<?xml version="1.0" standalone="no"?>
<!DOCTYPE svg PUBLIC "-//W3C//DTD SVG 1.1//EN" "http://www.w3.org/Graphics/SVG/1.1/DTD/svg11.dtd">
<!--Generator: Xara Designer (www.xara.com), SVG filter version: 6.6.0.0-->
<svg fill="none" fill-rule="evenodd" stroke="black" stroke-width="0.501" stroke-linejoin="bevel" stroke-miterlimit="10" font-family="Times New Roman" font-size="16" style="font-variant-ligatures:none" xmlns:xlink="http://www.w3.org/1999/xlink" xmlns="http://www.w3.org/2000/svg" version="1.1" overflow="visible" width="54.754pt" height="12.159pt" viewBox="48.225 -620.301 54.754 12.159">
 <defs>
	</defs>
 <g id="Layer 1" transform="scale(1 -1)"/>
 <g id="Sponsoren" transform="scale(1 -1)">
  <g id="Group" stroke-linejoin="miter" stroke="none" stroke-width="0.437">
   <path d="M 54.763,611.289 L 56.939,611.289 L 56.939,616.494 C 56.939,619.175 55.102,620.068 52.432,620.068 C 50.817,620.068 49.61,619.642 48.781,618.488 L 50.495,617.182 C 50.877,617.803 51.414,618.024 52.538,618.024 C 54.104,618.024 54.763,617.659 54.763,616.623 L 54.763,615.499 C 52.264,615.499 48.225,615.977 48.225,612.288 C 48.225,611.937 48.288,611.599 48.382,611.289 L 50.273,611.289 C 50.273,611.988 50.273,611.794 50.273,612.402 C 50.273,613.194 50.877,613.7 52.164,613.7 L 54.763,613.7 L 54.763,611.289 L 54.763,611.289 Z" fill="#231f20" marker-start="none" marker-end="none"/>
   <path d="M 70.689,613.931 L 70.689,615.733 C 70.689,618.523 68.62,620.301 66.222,620.301 C 64.14,620.301 61.768,618.931 61.768,614.722 C 61.768,613.232 62.069,612.121 62.532,611.289 L 66.105,611.289 C 64.759,611.47 63.944,612.482 63.944,613.931 L 70.689,613.931 L 70.689,613.931 M 63.944,615.733 C 63.982,617.373 64.943,618.24 66.222,618.24 C 67.504,618.24 68.448,617.373 68.512,615.733 L 63.944,615.733 L 63.944,615.733 Z" fill="#7dc242" marker-start="none" marker-end="none"/>
   <path d="M 72.373,613.945 L 74.549,613.945 L 74.549,615.795 C 74.549,617.259 75.468,618.112 76.711,618.112 C 77.93,618.112 78.849,617.259 78.849,615.795 L 78.849,613.945 L 81.022,613.945 L 81.022,616.536 C 81.022,618.996 79.109,620.301 77.41,620.301 C 76.256,620.301 75.272,619.876 74.586,619.019 L 74.549,619.019 L 74.549,620.172 L 72.373,620.172 L 72.373,613.945 L 72.373,613.945 Z" fill="#7dc242" marker-start="none" marker-end="none"/>
   <path d="M 56.939,611.289 L 59.492,611.289 L 59.492,608.752 L 56.939,608.752 L 56.939,611.289 L 56.939,611.289 Z" fill="#7dc242" marker-start="none" marker-end="none"/>
   <path d="M 73.074,609.736 L 73.421,610.796 L 73.435,610.796 L 73.784,609.736 L 73.074,609.736 L 73.074,609.736 M 74.08,608.867 L 74.471,608.867 L 73.578,611.305 L 73.28,611.305 L 72.385,608.867 L 72.773,608.867 L 72.966,609.416 L 73.887,609.416 L 74.08,608.867 L 74.08,608.867 Z" fill="#231f20" marker-start="none" marker-end="none"/>
   <path d="M 76.1,608.867 L 76.451,608.867 L 76.451,610.047 C 76.451,610.474 76.166,610.62 75.742,610.62 C 75.478,610.62 75.287,610.552 75.144,610.37 L 75.428,610.165 C 75.478,610.253 75.572,610.291 75.752,610.291 C 75.999,610.291 76.1,610.238 76.1,610.069 L 76.1,609.894 L 75.624,609.894 C 75.249,609.894 75.067,609.657 75.067,609.37 C 75.067,609.077 75.287,608.844 75.674,608.844 C 75.907,608.844 76.027,608.907 76.1,609.026 L 76.1,609.026 L 76.1,608.867 L 76.1,608.867 M 76.1,609.479 C 76.1,609.207 76.014,609.178 75.713,609.178 C 75.478,609.178 75.39,609.28 75.39,609.4 C 75.39,609.515 75.478,609.607 75.689,609.607 L 76.1,609.607 L 76.1,609.479 L 76.1,609.479 Z" fill="#231f20" marker-start="none" marker-end="none"/>
   <path d="M 77.41,608.867 L 77.757,608.867 L 77.757,609.921 C 77.757,610.165 77.93,610.282 78.094,610.282 C 78.185,610.282 78.237,610.253 78.315,610.192 L 78.575,610.486 C 78.469,610.562 78.357,610.62 78.214,610.62 C 78.029,610.62 77.878,610.552 77.757,610.421 L 77.757,610.421 L 77.757,610.602 L 77.41,610.602 L 77.41,608.867 L 77.41,608.867 Z" fill="#231f20" marker-start="none" marker-end="none"/>
   <path d="M 80.53,609.607 L 80.53,609.894 C 80.53,610.342 80.193,610.62 79.817,610.62 C 79.48,610.62 79.091,610.409 79.091,609.736 C 79.091,609.026 79.51,608.844 79.872,608.844 C 80.104,608.844 80.321,608.933 80.492,609.127 L 80.246,609.349 C 80.143,609.242 80,609.178 79.858,609.178 C 79.625,609.178 79.444,609.32 79.444,609.607 L 80.53,609.607 L 80.53,609.607 M 79.444,609.894 C 79.455,610.15 79.61,610.291 79.817,610.291 C 80.011,610.291 80.17,610.15 80.181,609.894 L 79.444,609.894 L 79.444,609.894 Z" fill="#231f20" marker-start="none" marker-end="none"/>
   <path d="M 82.808,608.867 L 84.363,608.867 L 84.363,609.22 L 83.174,609.22 L 83.174,609.93 L 84.179,609.93 L 84.179,610.253 L 83.174,610.253 L 83.174,610.955 L 84.363,610.955 L 84.363,611.305 L 82.808,611.305 L 82.808,608.867 L 82.808,608.867 Z" fill="#231f20" marker-start="none" marker-end="none"/>
   <path d="M 85.177,608.867 L 85.528,608.867 L 85.528,609.904 C 85.528,610.139 85.672,610.282 85.879,610.282 C 86.07,610.282 86.213,610.139 86.213,609.904 L 86.213,608.867 L 86.564,608.867 L 86.564,610.019 C 86.564,610.409 86.254,610.62 85.982,610.62 C 85.8,610.62 85.645,610.552 85.528,610.421 L 85.528,610.421 L 85.528,610.602 L 85.177,610.602 L 85.177,608.867 L 85.177,608.867 Z" fill="#231f20" marker-start="none" marker-end="none"/>
   <path d="M 88.853,609.607 L 88.853,609.894 C 88.853,610.342 88.532,610.62 88.142,610.62 C 87.806,610.62 87.431,610.409 87.431,609.736 C 87.431,609.026 87.843,608.844 88.196,608.844 C 88.429,608.844 88.659,608.933 88.83,609.127 L 88.571,609.349 C 88.466,609.242 88.325,609.178 88.196,609.178 C 87.951,609.178 87.78,609.32 87.78,609.607 L 88.853,609.607 L 88.853,609.607 M 87.78,609.894 C 87.792,610.15 87.938,610.291 88.142,610.291 C 88.352,610.291 88.508,610.15 88.508,609.894 L 87.78,609.894 L 87.78,609.894 Z" fill="#231f20" marker-start="none" marker-end="none"/>
   <path d="M 89.732,608.867 L 90.084,608.867 L 90.084,609.921 C 90.084,610.165 90.255,610.282 90.421,610.282 C 90.513,610.282 90.565,610.253 90.641,610.192 L 90.901,610.486 C 90.798,610.562 90.681,610.62 90.537,610.62 C 90.36,610.62 90.201,610.552 90.084,610.421 L 90.084,610.421 L 90.084,610.602 L 89.732,610.602 L 89.732,608.867 L 89.732,608.867 Z" fill="#231f20" marker-start="none" marker-end="none"/>
   <path d="M 92.546,608.867 C 92.546,608.636 92.377,608.494 92.146,608.494 C 92.016,608.494 91.885,608.57 91.807,608.65 L 91.535,608.444 C 91.692,608.259 91.913,608.142 92.132,608.142 C 92.531,608.142 92.882,608.393 92.882,608.907 L 92.882,610.602 L 92.546,610.602 L 92.546,610.421 C 92.417,610.552 92.275,610.62 92.093,610.62 C 91.873,610.62 91.715,610.512 91.638,610.409 C 91.535,610.282 91.509,610.218 91.509,609.736 C 91.509,609.257 91.535,609.197 91.638,609.061 C 91.715,608.958 91.873,608.844 92.093,608.844 C 92.275,608.844 92.426,608.933 92.546,609.052 L 92.546,608.867 L 92.546,608.867 M 91.861,609.736 C 91.861,610.013 91.861,610.062 91.922,610.139 C 91.973,610.201 92.052,610.282 92.195,610.282 C 92.339,610.282 92.426,610.201 92.467,610.139 C 92.531,610.062 92.546,610.013 92.546,609.736 C 92.546,609.455 92.531,609.416 92.467,609.334 C 92.426,609.27 92.339,609.197 92.195,609.197 C 92.052,609.197 91.973,609.27 91.922,609.334 C 91.861,609.416 91.861,609.455 91.861,609.736 L 91.861,609.736 L 91.861,609.736 Z" fill="#231f20" marker-start="none" marker-end="none"/>
   <path d="M 93.853,608.867 L 94.201,608.867 L 94.201,610.602 L 93.853,610.602 L 93.853,608.867 L 93.853,608.867 M 93.853,610.955 L 94.201,610.955 L 94.201,611.305 L 93.853,611.305 L 93.853,610.955 L 93.853,610.955 Z" fill="#231f20" marker-start="none" marker-end="none"/>
   <path d="M 96.507,609.607 L 96.507,609.894 C 96.507,610.342 96.182,610.62 95.798,610.62 C 95.459,610.62 95.084,610.409 95.084,609.736 C 95.084,609.026 95.5,608.844 95.861,608.844 C 96.082,608.844 96.311,608.933 96.48,609.127 L 96.223,609.349 C 96.118,609.242 95.977,609.178 95.847,609.178 C 95.613,609.178 95.431,609.32 95.431,609.607 L 96.507,609.607 L 96.507,609.607 M 95.431,609.894 C 95.448,610.15 95.589,610.291 95.798,610.291 C 96,610.291 96.161,610.15 96.17,609.894 L 95.431,609.894 L 95.431,609.894 Z" fill="#231f20" marker-start="none" marker-end="none"/>
   <path d="M 99.229,609.736 L 99.575,610.796 L 99.927,609.736 L 99.229,609.736 L 99.229,609.736 M 100.224,608.867 L 100.612,608.867 L 99.731,611.305 L 99.418,611.305 L 98.537,608.867 L 98.929,608.867 L 99.112,609.416 L 100.044,609.416 L 100.224,608.867 L 100.224,608.867 Z" fill="#231f20" marker-start="none" marker-end="none"/>
   <path d="M 102.115,609.867 L 102.619,609.867 L 102.619,609.736 C 102.619,609.425 102.402,609.22 102.115,609.22 C 101.944,609.22 101.815,609.297 101.741,609.4 C 101.649,609.515 101.607,609.579 101.607,610.086 C 101.607,610.592 101.649,610.656 101.741,610.774 C 101.815,610.876 101.944,610.955 102.115,610.955 C 102.348,610.955 102.516,610.786 102.579,610.602 L 102.966,610.602 C 102.891,610.993 102.579,611.33 102.115,611.33 C 101.724,611.33 101.466,611.096 101.347,610.889 C 101.273,610.745 101.244,610.67 101.244,610.086 C 101.244,609.505 101.273,609.425 101.347,609.28 C 101.466,609.077 101.724,608.844 102.115,608.844 C 102.594,608.844 102.979,609.229 102.979,609.71 L 102.979,610.218 L 102.115,610.218 L 102.115,609.867 L 102.115,609.867 Z" fill="#231f20" marker-start="none" marker-end="none"/>
  </g>
 </g>
 <g id="Content" transform="scale(1 -1)"/>
 <g id="Logo Vektor" transform="scale(1 -1)"/>
</svg>
