<?xml version="1.0" standalone="no"?>
<!DOCTYPE svg PUBLIC "-//W3C//DTD SVG 1.1//EN" "http://www.w3.org/Graphics/SVG/1.1/DTD/svg11.dtd">
<!--Generator: Xara Designer (www.xara.com), SVG filter version: 6.6.0.9-->
<svg fill="none" fill-rule="evenodd" stroke="black" stroke-width="0.501" stroke-linejoin="bevel" stroke-miterlimit="10" font-family="Times New Roman" font-size="16" style="font-variant-ligatures:none" xmlns:xlink="http://www.w3.org/1999/xlink" xmlns="http://www.w3.org/2000/svg" version="1.1" overflow="visible" width="321.851pt" height="72.565pt" viewBox="147.9 -564.263 321.851 72.565">
 <defs>
  <style type="text/css">@import url('https://themes.googleusercontent.com/fonts/css?family=Open Sans:400,600');</style>
 </defs>
 <g id="Layer 1" transform="scale(1 -1)">
  <g id="Group" stroke="none">
   <path d="M 246.671,496.37 C 246.475,496.486 246.291,496.613 246.117,496.75 L 245.731,497.102 L 245.731,495.898 L 244.221,495.898 L 244.221,509.185 L 245.731,509.185 L 245.731,504.297 L 246.117,504.648 C 246.291,504.785 246.475,504.912 246.67,505.029 C 247.468,505.515 248.342,505.762 249.28,505.762 C 250.671,505.762 251.874,505.26 252.854,504.27 C 253.842,503.29 254.344,502.088 254.344,500.693 C 254.344,499.305 253.841,498.106 252.855,497.122 C 251.872,496.133 250.67,495.638 249.28,495.638 C 248.342,495.638 247.468,495.884 246.671,496.37 Z M 251.794,498.189 C 252.492,498.887 252.833,499.714 252.833,500.693 C 252.833,501.682 252.491,502.514 251.794,503.211 C 251.097,503.908 250.265,504.251 249.28,504.251 C 248.293,504.251 247.468,503.909 246.771,503.211 C 246.073,502.514 245.731,501.682 245.731,500.693 C 245.731,499.714 246.072,498.887 246.771,498.189 C 247.468,497.49 248.293,497.148 249.28,497.148 C 250.265,497.148 251.097,497.491 251.794,498.189 Z" stroke-width="0.5" fill="#a99781" fill-rule="evenodd" marker-start="none" marker-end="none"/>
   <path d="M 256.231,495.898 L 256.231,509.185 L 257.741,509.185 L 257.741,495.898 L 256.231,495.898 Z" stroke-width="0.5" fill="#a99781" fill-rule="evenodd" marker-start="none" marker-end="none"/>
   <path d="M 260.901,496.825 C 260.112,497.613 259.714,498.575 259.714,499.68 L 259.714,505.492 L 261.221,505.492 L 261.221,499.68 C 261.221,498.978 261.464,498.388 261.963,497.889 C 262.463,497.39 263.052,497.148 263.756,497.148 C 264.46,497.148 265.05,497.39 265.545,497.889 C 266.051,498.39 266.295,498.979 266.295,499.68 L 266.295,505.492 L 267.804,505.492 L 267.804,499.68 C 267.804,498.575 267.404,497.612 266.616,496.825 C 265.829,496.038 264.867,495.638 263.756,495.638 C 262.644,495.638 261.687,496.038 260.901,496.825 Z" stroke-width="0.5" fill="#a99781" fill-rule="evenodd" marker-start="none" marker-end="none"/>
   <path d="M 269.596,495.898 L 269.596,505.491 L 271.106,505.491 L 271.106,504.885 L 271.277,505.03 C 271.936,505.515 272.727,505.762 273.64,505.762 C 274.461,505.762 275.219,505.526 275.898,505.07 C 276.227,504.846 276.515,504.585 276.759,504.29 L 276.93,504.05 L 277.098,504.288 C 277.342,504.585 277.63,504.846 277.96,505.069 C 278.638,505.526 279.396,505.762 280.222,505.762 C 281.336,505.762 282.293,505.358 283.075,504.569 C 283.862,503.786 284.261,502.825 284.261,501.72 L 284.261,495.898 L 282.754,495.898 L 282.754,501.72 C 282.754,502.421 282.51,503.008 282.011,503.51 C 281.511,504.011 280.924,504.251 280.222,504.251 C 279.512,504.251 278.924,504.01 278.43,503.51 C 277.931,503.008 277.687,502.421 277.687,501.72 L 277.687,495.898 L 276.18,495.898 L 276.18,501.72 C 276.18,502.419 275.934,503.006 275.43,503.509 C 274.933,504.011 274.347,504.251 273.64,504.251 C 272.936,504.251 272.347,504.011 271.845,503.509 C 271.346,503.009 271.106,502.423 271.106,501.72 L 271.106,495.898 L 269.596,495.898 Z" stroke-width="0.5" fill="#a99781" fill-rule="evenodd" marker-start="none" marker-end="none"/>
   <path d="M 287.355,497.119 C 286.37,498.108 285.874,499.306 285.874,500.693 C 285.874,502.086 286.369,503.289 287.355,504.27 C 288.341,505.259 289.541,505.762 290.93,505.762 C 292.323,505.762 293.527,505.26 294.507,504.27 C 295.495,503.291 295.998,502.088 295.998,500.693 L 295.998,499.94 L 287.463,499.94 L 287.497,499.779 C 287.661,499.141 287.996,498.587 288.507,498.105 C 289.194,497.464 289.995,497.148 290.93,497.148 C 291.918,497.148 292.747,497.491 293.443,498.189 L 293.779,498.525 L 294.836,497.449 L 294.508,497.119 C 293.525,496.133 292.321,495.638 290.93,495.638 C 289.543,495.638 288.343,496.134 287.355,497.119 Z M 293.356,503.285 C 292.672,503.933 291.872,504.251 290.93,504.251 C 289.996,504.251 289.195,503.933 288.507,503.285 C 287.997,502.808 287.661,502.254 287.497,501.613 L 287.462,501.447 L 294.402,501.447 L 294.368,501.615 C 294.207,502.254 293.87,502.807 293.356,503.285 Z" stroke-width="0.5" fill="#a99781" fill-rule="evenodd" marker-start="none" marker-end="none"/>
   <path d="M 297.711,495.898 L 297.711,505.491 L 299.22,505.491 L 299.22,504.883 L 299.393,505.029 C 300.051,505.514 300.841,505.762 301.753,505.762 C 302.864,505.762 303.827,505.358 304.613,504.57 C 305.403,503.787 305.803,502.825 305.803,501.72 L 305.803,495.898 L 304.293,495.898 L 304.293,501.72 C 304.293,502.42 304.048,503.006 303.542,503.509 C 303.047,504.01 302.461,504.251 301.753,504.251 C 301.05,504.251 300.46,504.011 299.96,503.51 C 299.464,503.008 299.22,502.421 299.22,501.72 L 299.22,495.898 L 297.711,495.898 Z" stroke-width="0.5" fill="#a99781" fill-rule="evenodd" marker-start="none" marker-end="none"/>
   <path d="M 311.241,494.323 L 311.241,510.854 L 312.751,510.854 L 312.751,494.323 L 311.241,494.323 Z" stroke-width="0.5" fill="#a99781" fill-rule="evenodd" marker-start="none" marker-end="none"/>
   <path d="M 318.281,491.698 L 318.281,505.484 L 319.791,505.484 L 319.791,504.287 L 320.177,504.639 C 320.351,504.777 320.535,504.904 320.731,505.021 C 321.53,505.506 322.401,505.755 323.337,505.755 C 324.733,505.755 325.934,505.251 326.914,504.263 C 327.902,503.28 328.407,502.082 328.407,500.686 C 328.407,499.296 327.902,498.097 326.914,497.111 C 325.932,496.126 324.731,495.629 323.337,495.629 C 322.401,495.629 321.531,495.878 320.731,496.359 C 320.535,496.476 320.351,496.603 320.177,496.741 L 319.791,497.093 L 319.791,491.698 L 318.281,491.698 Z M 325.855,498.182 C 326.552,498.876 326.894,499.705 326.894,500.686 C 326.894,501.674 326.551,502.506 325.855,503.202 C 325.155,503.897 324.325,504.241 323.337,504.241 C 322.357,504.241 321.531,503.897 320.83,503.202 C 320.134,502.506 319.791,501.674 319.791,500.686 C 319.791,499.705 320.133,498.876 320.83,498.182 C 321.531,497.482 322.357,497.141 323.337,497.141 C 324.326,497.141 325.155,497.483 325.855,498.182 Z" stroke-width="0.5" fill="#a99781" fill-rule="evenodd" marker-start="none" marker-end="none"/>
   <path d="M 330.033,495.898 L 330.033,505.192 C 330.033,506.305 330.432,507.268 331.221,508.059 C 332.012,508.838 332.968,509.237 334.077,509.237 L 334.547,509.237 L 334.547,507.727 L 334.077,507.727 C 333.374,507.727 332.783,507.484 332.283,506.989 C 331.785,506.485 331.541,505.897 331.541,505.192 L 331.541,502.73 L 334.547,502.73 L 334.547,501.226 L 331.541,501.226 L 331.541,495.898 L 330.033,495.898 Z" stroke-width="0.5" fill="#a99781" fill-rule="evenodd" marker-start="none" marker-end="none"/>
   <path d="M 336.413,495.898 L 336.413,509.185 L 337.925,509.185 L 337.925,495.898 L 336.413,495.898 Z" stroke-width="0.5" fill="#a99781" fill-rule="evenodd" marker-start="none" marker-end="none"/>
   <path d="M 341.375,497.122 C 340.395,498.108 339.898,499.306 339.898,500.693 C 339.898,502.087 340.394,503.288 341.376,504.27 C 342.364,505.259 343.565,505.762 344.955,505.762 C 345.897,505.762 346.769,505.515 347.564,505.029 C 347.758,504.912 347.942,504.785 348.115,504.648 L 348.51,504.29 L 348.51,505.492 L 350.019,505.492 L 350.019,495.905 L 348.51,495.905 L 348.51,497.108 L 348.115,496.75 C 347.942,496.613 347.758,496.486 347.564,496.371 C 346.769,495.884 345.897,495.638 344.955,495.638 C 343.567,495.638 342.365,496.134 341.375,497.122 Z M 347.471,498.189 C 348.166,498.887 348.51,499.714 348.51,500.693 C 348.51,501.684 348.165,502.513 347.471,503.211 C 346.772,503.908 345.941,504.251 344.955,504.251 C 343.973,504.251 343.145,503.909 342.448,503.211 C 341.75,502.514 341.408,501.685 341.408,500.693 C 341.408,499.714 341.749,498.887 342.448,498.189 C 343.145,497.49 343.973,497.148 344.955,497.148 C 345.941,497.148 346.771,497.491 347.471,498.189 Z" stroke-width="0.5" fill="#a99781" fill-rule="evenodd" marker-start="none" marker-end="none"/>
   <path d="M 351.735,495.898 L 351.735,505.491 L 353.242,505.491 L 353.242,504.883 L 353.415,505.029 C 354.073,505.514 354.864,505.762 355.778,505.762 C 356.89,505.762 357.851,505.358 358.637,504.57 C 359.428,503.786 359.826,502.825 359.826,501.72 L 359.826,495.898 L 358.315,495.898 L 358.315,501.72 C 358.315,502.42 358.069,503.007 357.569,503.51 C 357.072,504.01 356.482,504.251 355.778,504.251 C 355.072,504.251 354.485,504.011 353.986,503.509 C 353.486,503.008 353.242,502.421 353.242,501.72 L 353.242,495.898 L 351.735,495.898 Z" stroke-width="0.5" fill="#a99781" fill-rule="evenodd" marker-start="none" marker-end="none"/>
   <path d="M 361.448,495.898 L 361.448,497.102 L 367.053,503.977 L 361.448,503.977 L 361.448,505.484 L 369.218,505.484 L 369.218,504.281 L 363.634,497.405 L 369.218,497.405 L 369.218,495.898 L 361.448,495.898 Z" stroke-width="0.5" fill="#a99781" fill-rule="evenodd" marker-start="none" marker-end="none"/>
   <path d="M 372.318,497.119 C 371.338,498.108 370.838,499.305 370.838,500.693 C 370.838,502.087 371.338,503.289 372.319,504.27 C 373.307,505.259 374.507,505.762 375.897,505.762 C 377.291,505.762 378.491,505.259 379.474,504.27 C 380.461,503.29 380.962,502.088 380.962,500.693 L 380.962,499.94 L 372.428,499.94 L 372.462,499.778 C 372.625,499.14 372.959,498.587 373.472,498.105 C 374.162,497.464 374.96,497.148 375.897,497.148 C 376.885,497.148 377.714,497.491 378.41,498.189 L 378.746,498.525 L 379.804,497.449 L 379.474,497.119 C 378.489,496.133 377.289,495.638 375.897,495.638 C 374.509,495.638 373.308,496.134 372.318,497.119 Z M 378.319,503.286 C 377.639,503.933 376.837,504.251 375.897,504.251 C 374.961,504.251 374.163,503.934 373.472,503.285 C 372.96,502.808 372.625,502.254 372.462,501.613 L 372.428,501.447 L 379.367,501.447 L 379.333,501.613 C 379.17,502.253 378.833,502.807 378.319,503.286 Z" stroke-width="0.5" fill="#a99781" fill-rule="evenodd" marker-start="none" marker-end="none"/>
   <path d="M 382.678,495.898 L 382.678,505.491 L 384.185,505.491 L 384.185,504.883 L 384.358,505.029 C 385.016,505.514 385.807,505.762 386.717,505.762 C 387.832,505.762 388.796,505.359 389.58,504.569 C 390.367,503.786 390.767,502.825 390.767,501.72 L 390.767,495.898 L 389.26,495.898 L 389.26,501.72 C 389.26,502.42 389.015,503.006 388.508,503.509 C 388.014,504.01 387.428,504.251 386.717,504.251 C 386.016,504.251 385.427,504.011 384.925,503.51 C 384.43,503.008 384.185,502.42 384.185,501.72 L 384.185,495.898 L 382.678,495.898 Z" stroke-width="0.5" fill="#a99781" fill-rule="evenodd" marker-start="none" marker-end="none"/>
   <path d="M 396.205,494.323 L 396.205,510.854 L 397.715,510.854 L 397.715,494.323 L 396.205,494.323 Z" stroke-width="0.5" fill="#a99781" fill-rule="evenodd" marker-start="none" marker-end="none"/>
   <path d="M 412.535,495.898 L 410.025,502.861 L 407.51,495.898 L 406.069,495.898 L 402.619,505.492 L 404.221,505.492 L 406.79,498.355 L 409.368,505.492 L 410.682,505.492 L 413.252,498.357 L 415.821,505.492 L 417.425,505.492 L 413.968,495.898 L 412.535,495.898 Z" stroke-width="0.5" fill="#a99781" fill-rule="evenodd" marker-start="none" marker-end="none"/>
   <path d="M 419.964,497.119 C 418.981,498.108 418.484,499.306 418.484,500.693 C 418.484,502.087 418.98,503.289 419.964,504.27 C 420.951,505.259 422.15,505.762 423.539,505.762 C 424.933,505.762 426.136,505.26 427.117,504.27 C 428.104,503.29 428.606,502.088 428.606,500.693 C 428.606,499.305 428.103,498.107 427.118,497.119 C 426.135,496.134 424.932,495.638 423.539,495.638 C 422.151,495.638 420.953,496.135 419.964,497.119 Z M 426.057,498.189 C 426.754,498.887 427.097,499.714 427.097,500.693 C 427.097,501.681 426.753,502.514 426.057,503.211 C 425.359,503.908 424.528,504.251 423.539,504.251 C 422.558,504.251 421.729,503.909 421.031,503.211 C 420.336,502.514 419.993,501.682 419.993,500.693 C 419.993,499.714 420.335,498.887 421.032,498.189 C 421.729,497.49 422.558,497.148 423.539,497.148 C 424.528,497.148 425.358,497.491 426.057,498.189 Z" stroke-width="0.5" fill="#a99781" fill-rule="evenodd" marker-start="none" marker-end="none"/>
   <path d="M 430.312,495.898 L 430.312,509.185 L 431.82,509.185 L 431.82,504.882 L 431.994,505.029 C 432.652,505.514 433.443,505.762 434.356,505.762 C 435.468,505.762 436.43,505.358 437.216,504.569 C 438.002,503.787 438.406,502.826 438.406,501.72 L 438.406,495.898 L 436.893,495.898 L 436.893,501.72 C 436.893,502.421 436.651,503.007 436.145,503.509 C 435.651,504.01 435.066,504.251 434.356,504.251 C 433.651,504.251 433.063,504.011 432.564,503.509 C 432.064,503.008 431.82,502.421 431.82,501.72 L 431.82,495.898 L 430.312,495.898 Z" stroke-width="0.5" fill="#a99781" fill-rule="evenodd" marker-start="none" marker-end="none"/>
   <path d="M 440.111,495.898 L 440.111,505.491 L 441.618,505.491 L 441.618,504.883 L 441.791,505.029 C 442.45,505.514 443.24,505.762 444.154,505.762 C 445.267,505.762 446.228,505.358 447.013,504.569 C 447.8,503.786 448.202,502.826 448.202,501.72 L 448.202,495.898 L 446.693,495.898 L 446.693,501.72 C 446.693,502.419 446.447,503.006 445.943,503.51 C 445.447,504.011 444.863,504.251 444.154,504.251 C 443.449,504.251 442.86,504.011 442.36,503.51 C 441.862,503.008 441.618,502.421 441.618,501.72 L 441.618,495.898 L 440.111,495.898 Z" stroke-width="0.5" fill="#a99781" fill-rule="evenodd" marker-start="none" marker-end="none"/>
   <path d="M 451.305,497.119 C 450.316,498.108 449.823,499.307 449.823,500.693 C 449.823,502.086 450.316,503.289 451.305,504.271 C 452.291,505.259 453.491,505.762 454.88,505.762 C 456.272,505.762 457.476,505.26 458.456,504.27 C 459.446,503.29 459.942,502.087 459.942,500.693 L 459.942,499.94 L 451.41,499.94 L 451.444,499.779 C 451.608,499.14 451.942,498.587 452.455,498.105 C 453.145,497.464 453.942,497.148 454.88,497.148 C 455.867,497.148 456.695,497.491 457.393,498.189 L 457.728,498.525 L 458.785,497.449 L 458.457,497.119 C 457.474,496.133 456.271,495.638 454.88,495.638 C 453.493,495.638 452.293,496.134 451.305,497.119 Z M 457.304,503.285 C 456.619,503.933 455.819,504.251 454.88,504.251 C 453.943,504.251 453.146,503.934 452.455,503.285 C 451.942,502.808 451.608,502.254 451.444,501.612 L 451.409,501.447 L 458.349,501.447 L 458.316,501.614 C 458.154,502.254 457.819,502.807 457.304,503.285 Z" stroke-width="0.5" fill="#a99781" fill-rule="evenodd" marker-start="none" marker-end="none"/>
   <path d="M 461.661,495.898 L 461.661,505.491 L 463.167,505.491 L 463.167,504.883 L 463.34,505.029 C 463.998,505.514 464.788,505.762 465.701,505.762 C 466.813,505.762 467.776,505.358 468.562,504.569 C 469.349,503.786 469.751,502.826 469.751,501.72 L 469.751,495.898 L 468.241,495.898 L 468.241,501.72 C 468.241,502.42 467.996,503.006 467.491,503.51 C 466.999,504.01 466.409,504.251 465.701,504.251 C 464.996,504.251 464.411,504.011 463.909,503.509 C 463.411,503.008 463.167,502.421 463.167,501.72 L 463.167,495.898 L 461.661,495.898 Z" stroke-width="0.5" fill="#a99781" fill-rule="evenodd" marker-start="none" marker-end="none"/>
   <path d="M 248.943,522.181 C 245.547,525.602 243.832,529.737 243.832,534.534 C 243.832,539.347 245.546,543.486 248.943,546.886 C 252.362,550.299 256.498,552.028 261.297,552.028 C 264.546,552.028 267.559,551.184 270.309,549.505 C 271.648,548.697 272.846,547.746 273.899,546.654 L 274.558,545.874 L 274.558,551.074 L 278.791,551.074 L 278.791,518.021 L 274.558,518.021 L 274.558,523.219 L 273.899,522.439 C 272.846,521.348 271.648,520.398 270.309,519.592 C 267.559,517.913 264.546,517.069 261.297,517.069 C 256.501,517.069 252.365,518.782 248.943,522.181 Z M 270.676,525.184 C 273.274,527.782 274.558,530.878 274.558,534.534 C 274.558,538.211 273.273,541.317 270.676,543.913 C 268.079,546.506 264.974,547.794 261.297,547.794 C 257.643,547.794 254.545,546.507 251.947,543.913 C 249.349,541.317 248.066,538.212 248.066,534.534 C 248.066,530.878 249.348,527.782 251.948,525.184 C 254.545,522.586 257.643,521.3 261.297,521.3 C 264.974,521.3 268.079,522.587 270.676,525.184 Z" stroke-width="0.5" fill="#b0cc16" fill-rule="evenodd" marker-start="none" marker-end="none"/>
   <path d="M 288.118,517.988 L 288.118,564.242 L 292.352,564.242 L 292.352,517.988 L 288.118,517.988 Z" stroke-width="0.5" fill="#b0cc16" fill-rule="evenodd" marker-start="none" marker-end="none"/>
   <path d="M 302.906,517.988 L 302.906,564.242 L 307.14,564.242 L 307.14,517.988 L 302.906,517.988 Z" stroke-width="0.5" fill="#b0cc16" fill-rule="evenodd" marker-start="none" marker-end="none"/>
   <path d="M 321.889,522.18 C 318.488,525.6 316.774,529.735 316.774,534.534 C 316.774,539.345 318.487,543.487 321.889,546.884 C 325.302,550.3 329.442,552.028 334.238,552.028 C 339.055,552.028 343.193,550.301 346.589,546.884 C 350.008,543.489 351.731,539.347 351.731,534.534 L 351.731,532.417 L 321.171,532.417 L 321.18,532.331 C 321.643,529.435 322.977,526.96 325.201,524.871 C 327.757,522.486 330.753,521.3 334.238,521.3 C 337.915,521.3 341.02,522.587 343.616,525.184 L 344.405,525.973 L 347.361,522.952 L 346.589,522.18 C 343.189,518.781 339.053,517.069 334.238,517.069 C 329.444,517.069 325.305,518.782 321.889,522.18 Z M 343.273,544.192 C 340.731,546.602 337.741,547.794 334.238,547.794 C 330.755,547.794 327.761,546.603 325.201,544.192 C 322.977,542.12 321.643,539.649 321.181,536.741 L 321.17,536.65 L 347.31,536.65 L 347.3,536.745 C 346.85,539.649 345.514,542.119 343.273,544.192 Z" stroke-width="0.5" fill="#b0cc16" fill-rule="evenodd" marker-start="none" marker-end="none"/>
   <path d="M 360.139,517.99 L 360.139,551.077 L 364.37,551.077 L 364.37,545.946 L 365.003,546.652 C 366.052,547.745 367.248,548.697 368.589,549.506 C 371.358,551.183 374.371,552.028 377.604,552.028 L 378.707,552.028 L 378.707,547.794 L 377.604,547.794 C 373.946,547.794 370.85,546.511 368.255,543.911 C 365.655,541.315 364.37,538.218 364.37,534.563 L 364.37,517.99 L 360.139,517.99 Z" stroke-width="0.5" fill="#b0cc16" fill-rule="evenodd" marker-start="none" marker-end="none"/>
   <path d="M 177.156,501.442 C 177.19,501.669 177.209,501.799 177.209,501.799 C 177.2,501.729 177.174,501.612 177.135,501.452 L 177.156,501.442 Z M 172.325,501.906 C 172.322,501.911 172.322,501.911 172.32,501.915 C 172.32,501.911 172.322,501.911 172.322,501.906 L 172.325,501.906 Z M 147.9,564.263 L 147.9,544.534 C 148.649,543.107 149.391,541.674 150.134,540.242 C 150.304,539.912 150.416,539.551 150.963,539.04 C 151.445,540.22 152.117,541.36 152.363,542.587 C 152.934,545.42 153.199,548.262 150.727,550.535 C 150.463,550.776 150.501,551.424 150.542,551.87 C 150.554,551.994 151.138,552.222 151.361,552.138 C 151.775,551.979 152.381,551.678 152.444,551.35 C 153.04,548.166 154.144,544.987 153.008,541.713 C 152.571,540.462 151.985,539.261 151.38,537.836 C 151.907,537.98 152.469,538.018 152.901,538.273 C 155.13,539.576 156.109,541.883 155.665,544.477 C 155.611,544.794 155.751,545.373 155.95,545.451 C 156.35,545.606 156.894,545.611 157.295,545.457 C 157.49,545.384 157.662,544.761 157.568,544.48 C 156.451,541.164 155.607,537.596 151.023,537.017 C 154.482,531.639 157.764,526.474 162.661,522.623 C 163.906,521.644 165.353,520.9 166.762,520.147 C 167.865,519.56 169.896,521.172 169.759,522.578 C 169.539,524.825 169.197,527.058 168.884,529.295 C 168.249,533.826 167.868,538.357 168.745,543.014 C 166.77,543.014 164.87,542.672 163.171,543.107 C 161.367,543.568 159.741,544.749 158.069,545.668 C 157.928,545.745 157.904,546.3 158.026,546.521 C 158.182,546.814 158.566,547.205 158.806,547.178 C 159.15,547.135 159.589,546.824 159.751,546.504 C 160.97,544.12 163.92,542.934 166.677,543.938 C 166.103,544.258 165.658,544.519 165.2,544.757 C 162.848,545.983 161.21,547.812 160.376,550.358 C 160.195,550.91 159.807,551.398 159.615,551.949 C 159.459,552.399 159.265,552.995 159.436,553.361 C 159.581,553.677 160.224,553.762 160.645,553.949 C 160.801,553.467 161.133,552.964 161.085,552.504 C 160.834,549.996 161.943,548.06 163.734,546.564 C 164.709,545.747 166.048,545.369 167.116,544.846 C 166.18,549.096 165.255,553.171 164.43,557.266 C 164.333,557.755 164.795,558.355 164.999,558.905 L 165.647,558.905 C 165.977,555.645 166.183,552.366 166.68,549.13 C 167.006,546.999 167.871,545.995 169.369,545.142 C 170.416,548.292 170.232,551.235 168.497,554.335 C 168.962,554.558 169.439,554.785 169.915,555.015 C 170.089,554.458 170.398,553.902 170.41,553.345 C 170.465,550.774 170.433,548.199 170.433,545.63 C 170.61,545.53 170.792,545.426 170.967,545.326 C 171.698,546.091 172.605,546.746 173.125,547.634 C 174.625,550.194 175.668,552.877 174.268,555.887 C 174.127,556.192 174.227,556.702 174.395,557.021 C 174.482,557.185 175.077,557.282 175.246,557.155 C 175.488,556.966 175.683,556.544 175.676,556.228 C 175.593,552.03 175.328,547.883 171.81,544.846 C 171.701,544.752 171.663,544.577 171.583,544.422 C 174.833,544.511 177.727,547.18 178.264,550.551 C 178.339,551.029 178.329,551.545 178.527,551.968 C 178.719,552.377 179.128,552.683 179.441,553.033 C 179.701,552.507 180.326,551.763 180.162,551.478 C 178.154,547.985 176.676,543.866 171.663,543.592 C 170.28,543.516 169.279,542.969 169.252,541.396 C 169.162,536.491 168.917,531.561 170.138,526.756 C 170.537,525.182 171.459,523.735 172.219,522.269 C 172.372,521.97 172.865,521.714 173.223,521.68 C 176.932,521.317 179.998,522.548 181.693,525.941 C 183.677,529.916 185.355,534.043 187.13,538.121 C 187.683,539.389 187.43,540.098 185.793,540.156 C 182.258,540.281 180.765,543.083 179.124,545.606 C 178.973,545.84 179.027,546.401 179.211,546.603 C 179.396,546.81 179.937,546.908 180.189,546.784 C 180.509,546.624 180.859,546.22 180.915,545.876 C 181.507,542.266 183.273,540.831 187.002,541.239 C 182.704,544.19 182.344,548.597 182.202,553.066 C 182.184,553.584 182.552,554.119 182.741,554.646 C 183.073,554.514 183.665,554.427 183.692,554.249 C 183.772,553.742 183.591,553.197 183.571,552.668 C 183.511,551.145 183.278,549.597 183.48,548.108 C 183.772,545.95 184.966,544.183 186.464,542.665 C 186.653,542.672 186.84,542.677 187.03,542.681 C 187.536,545.266 188.029,547.853 188.558,550.431 C 188.645,550.845 188.836,551.31 189.132,551.584 C 189.273,551.714 189.981,551.534 190.081,551.329 C 190.266,550.941 190.408,550.261 190.199,549.996 C 188.718,548.113 188.461,545.874 188.213,543.63 C 188.155,543.071 188.274,542.494 188.335,541.553 C 192.606,545.133 193.894,549.552 193.898,554.841 C 194.478,554.61 195.122,554.548 195.376,554.2 C 195.591,553.902 195.442,553.252 195.302,552.806 C 194.917,551.582 194.36,550.405 194.036,549.167 C 193.287,546.327 192.093,543.743 189.739,541.653 C 193.73,540.96 197.468,543.866 197.738,547.539 C 197.769,547.972 197.903,548.486 198.184,548.772 C 198.312,548.902 199.182,548.644 199.243,548.426 C 199.383,547.942 199.401,547.273 199.159,546.859 C 197.421,543.89 195.488,541.109 191.651,540.658 C 191.524,540.643 191.417,540.462 191.293,540.35 C 193.235,539.261 196.111,539.905 197.459,541.63 C 197.936,542.24 198.598,542.707 199.207,543.269 C 199.494,542.874 199.566,542.795 199.617,542.705 C 200.506,541.088 201.37,539.756 200.151,537.601 C 199.239,535.992 201.554,532.74 203.453,532.073 C 201.884,536.857 203.431,541.006 205.858,544.956 C 206.055,545.278 206.618,545.545 206.998,545.53 C 207.277,545.52 207.711,545.028 207.752,544.712 C 207.786,544.45 207.376,544.093 207.104,543.842 C 206.918,543.669 206.609,543.633 206.393,543.483 C 204.337,542.046 202.632,535.308 203.856,533.914 C 206.523,536.247 209.211,538.625 211.935,540.964 C 212.326,541.3 212.858,541.592 213.353,541.641 C 213.601,541.668 213.912,541.109 214.191,540.816 C 213.761,540.474 213.37,540.06 212.894,539.806 C 209.69,538.065 207.206,535.587 205.29,532.513 C 205.193,532.356 205.24,532.108 205.202,531.713 C 205.799,531.713 206.387,531.549 206.819,531.739 C 209.438,532.885 212.384,533.599 213.659,536.647 C 213.77,536.912 214.306,537.251 214.496,537.175 C 214.82,537.046 215.216,536.633 215.24,536.312 C 215.27,535.962 215.017,535.413 214.716,535.229 C 211.95,533.555 209.148,531.938 206.423,530.345 C 208.689,528.827 214.448,529.335 216.419,531.378 C 216.692,531.664 216.723,532.174 216.98,532.483 C 217.263,532.827 217.642,533.162 218.046,533.29 C 218.213,533.34 218.772,532.837 218.766,532.595 C 218.755,532.183 218.551,531.599 218.234,531.404 C 214.889,529.355 211.362,528.069 207.355,529.117 C 207.049,529.197 206.741,529.262 206.432,529.327 C 206.389,529.336 206.334,529.287 206.285,529.262 C 207.481,527.11 210.267,525.967 212.522,526.495 C 213.525,526.728 214.633,526.575 215.685,526.505 C 215.968,526.489 216.223,526.124 216.493,525.92 C 216.259,525.667 216.072,525.282 215.784,525.178 C 211.34,523.575 209.178,520.096 209.185,515.89 C 211.578,517.138 213.944,518.392 216.336,519.59 C 216.761,519.805 217.308,519.86 217.786,519.832 C 217.907,519.825 218.175,519.039 218.049,518.891 C 217.739,518.529 217.245,518.112 216.81,518.097 C 213.87,517.985 211.662,516.539 209.692,514.593 C 209.714,514.387 209.735,514.175 209.755,513.97 C 211.417,513.97 213.133,513.705 214.733,514.027 C 217.302,514.548 219.804,515.411 221.838,517.26 C 222.168,517.561 222.887,517.514 223.414,517.476 C 223.606,517.464 223.939,516.806 223.913,516.781 C 223.504,516.422 223.088,515.987 222.59,515.828 C 219.888,514.967 217.182,514.098 214.439,513.39 C 213.166,513.06 211.802,513.077 210.375,512.926 C 212.366,510.465 214.721,509.192 217.795,509.68 C 218.448,509.784 219.06,510.163 219.691,510.414 C 220.099,510.577 220.501,510.823 220.921,510.862 C 221.041,510.872 221.42,510.134 221.324,510 C 221.042,509.618 220.605,509.147 220.184,509.1 C 217.209,508.761 214.252,508.709 211.581,510.418 C 211.18,510.674 210.771,510.912 210.018,511.367 C 211.063,509.322 212.28,507.967 214.007,507.168 C 214.505,506.938 215.216,507.188 215.824,507.167 C 216.307,507.146 216.813,507.113 217.248,506.933 C 217.367,506.879 217.382,506.063 217.233,505.981 C 216.822,505.751 216.244,505.534 215.83,505.656 C 212.613,506.603 210.149,508.427 209.115,511.793 C 208.988,512.203 208.857,512.612 208.712,513.015 C 208.68,513.107 208.579,513.174 208.415,513.364 C 206.933,512.735 205.404,512.098 203.886,511.437 C 200.761,510.078 197.444,509.803 194.1,509.659 C 191.569,509.55 189.039,509.411 186.504,509.361 C 185.013,509.329 184.595,508.266 184.006,507.203 C 183.415,506.138 184.409,505.919 184.784,505.375 C 188.61,499.829 194.519,497.865 200.398,495.879 L 204.18,495.879 C 205.479,500.563 209.305,501.409 213.386,501.881 C 214.297,501.989 215.217,501.981 216.329,502.033 C 215.817,500.511 215.43,499.894 213.904,500.448 C 210.635,501.635 207.782,500.313 205.363,496.733 C 206.948,497.107 208.404,497.462 209.865,497.791 C 212.673,498.42 215.164,497.347 217.639,496.276 C 217.807,496.201 217.956,496.056 218.083,495.879 L 233.385,495.879 L 233.385,564.263 L 147.9,564.263 Z M 182.924,503.175 C 180.896,504.228 180.679,504.013 180.519,501.682 C 180.38,499.651 180.605,497.728 181.06,495.879 L 197.821,495.879 C 196.082,496.6 194.351,497.337 192.645,498.136 C 189.344,499.686 186.162,501.485 182.924,503.175 Z M 172.322,501.918 C 172.285,501.915 172.248,501.915 172.21,501.914 L 172.207,501.914 C 172.077,501.911 171.95,501.909 171.82,501.906 C 171.616,501.057 171.296,500.216 171.229,499.354 C 171.139,498.196 171.064,497.038 170.976,495.879 L 179.95,495.879 C 179.043,497.834 178.132,499.801 177.208,501.796 L 172.322,501.918 Z M 206.558,495.879 L 215.485,495.879 C 212.895,497.429 209.314,497.467 206.558,495.879 Z M 204.311,530.389 C 200.761,527.723 197.47,525.108 194.029,522.709 C 191.3,520.803 188.356,519.206 185.569,517.378 C 184.142,516.445 184.264,513.253 185.813,512.497 C 187.629,511.608 189.558,510.658 191.521,510.414 C 197.206,509.709 202.434,511.486 207.108,513.758 C 206.626,515.873 205.978,517.744 205.824,519.653 C 205.665,521.606 206.108,523.549 207.822,525.001 C 208.557,524.122 209.278,523.464 208.029,522.641 C 205.755,521.145 205.924,516.631 208.715,514.958 C 207.915,519.269 210.302,522.265 212.78,525.645 C 208.479,525.265 206.053,527.293 204.311,530.389 Z M 161.322,509.824 C 161.887,510.767 162.421,511.728 162.967,512.684 C 162.034,513.085 161.137,513.625 160.165,513.869 C 155.967,514.913 151.852,516.17 147.9,517.893 L 147.9,504.605 C 152.523,505.314 156.964,506.354 160.835,509.398 C 161.005,509.534 161.218,509.646 161.322,509.824 Z M 198.862,541.112 C 195.502,538.826 192.191,538.468 188.641,540.25 C 186.81,533.121 183.258,526.94 179.755,520.419 C 180.746,519.825 181.793,518.668 182.568,518.828 C 185,519.333 187.493,520.028 189.659,521.208 C 192.9,522.971 195.923,525.15 198.954,527.278 C 200.419,528.306 201.684,529.621 203.257,530.992 C 198.932,533.175 199.458,537.165 198.862,541.112 Z M 147.9,543.093 L 147.9,538.967 C 148.539,538.639 149.184,538.378 149.81,538.254 C 149.65,538.993 149.645,539.678 149.367,540.223 C 148.876,541.176 148.402,542.145 147.9,543.093 Z M 159.731,507.113 C 155.83,505.881 151.866,504.835 147.9,503.808 L 147.9,495.879 L 160.931,495.879 C 161.575,496.521 162.218,497.165 162.873,497.797 C 164.617,499.477 165.397,501.642 166.051,503.867 C 166.168,504.272 165.948,504.839 165.747,505.266 C 164.421,508.061 162.311,507.928 159.731,507.113 Z M 168.42,502.453 C 167.677,501.812 166.886,501.222 166.196,500.527 C 164.66,498.985 163.135,497.43 161.605,495.879 L 169.915,495.879 C 169.729,498.024 169.382,500.153 168.987,502.293 C 168.799,502.343 168.609,502.398 168.42,502.453 Z M 163.184,520.456 C 158.372,525.15 154.257,530.406 150.537,535.982 C 150.422,536.153 150.286,536.31 150.289,536.308 C 149.47,535.938 148.684,535.532 147.9,535.147 L 147.9,518.867 C 148.681,518.508 149.463,518.145 150.249,517.804 C 151.674,517.19 153.25,516.893 154.627,516.195 C 157.593,514.68 160.481,515.611 163.377,516.258 C 164.63,516.537 165.043,517.621 164.426,518.778 C 164.103,519.388 163.679,519.974 163.184,520.456 Z" fill-rule="nonzero" stroke-linejoin="miter" stroke-width="0.472" fill="#a99781" marker-start="none" marker-end="none"/>
   <path d="M 390.658,522.181 C 387.26,525.602 385.546,529.737 385.546,534.534 C 385.546,539.347 387.259,543.486 390.658,546.886 C 394.074,550.299 398.212,552.028 403.01,552.028 C 406.261,552.028 409.273,551.184 412.022,549.505 C 413.362,548.697 414.56,547.746 415.614,546.654 L 416.272,545.875 L 416.272,551.074 L 420.505,551.074 L 420.505,518.021 L 416.272,518.021 L 416.272,523.219 L 415.614,522.439 C 414.56,521.348 413.362,520.398 412.021,519.592 C 409.273,517.913 406.261,517.069 403.01,517.069 C 398.215,517.069 394.077,518.782 390.658,522.181 Z M 412.387,525.184 C 414.986,527.782 416.272,530.879 416.272,534.534 C 416.272,538.211 414.985,541.316 412.387,543.913 C 409.793,546.506 406.686,547.794 403.01,547.794 C 399.354,547.794 396.259,546.507 393.661,543.913 C 391.064,541.317 389.779,538.211 389.779,534.534 C 389.779,530.878 391.063,527.782 393.661,525.184 C 396.259,522.586 399.354,521.3 403.01,521.3 C 406.686,521.3 409.793,522.587 412.387,525.184 Z" stroke-width="0.5" fill="#a99781" fill-rule="evenodd" marker-start="none" marker-end="none"/>
   <path d="M 428.911,517.99 L 428.911,551.077 L 433.144,551.077 L 433.144,545.946 L 433.776,546.652 C 434.825,547.745 436.021,548.697 437.362,549.506 C 440.132,551.183 443.145,552.028 446.375,552.028 L 447.478,552.028 L 447.478,547.794 L 446.375,547.794 C 442.72,547.794 439.623,546.511 437.026,543.911 C 434.428,541.315 433.144,538.218 433.144,534.563 L 433.144,517.99 L 428.911,517.99 Z" stroke-width="0.5" fill="#a99781" fill-rule="evenodd" marker-start="none" marker-end="none"/>
   <path d="M 458.386,521.136 C 455.687,523.817 454.318,527.097 454.318,530.91 L 454.318,559.579 L 458.553,559.579 L 458.553,550.92 L 469.262,550.92 L 469.262,546.719 L 458.553,546.719 L 458.553,530.91 C 458.553,528.255 459.48,526.008 461.36,524.11 C 463.258,522.23 465.507,521.302 468.159,521.302 L 469.262,521.302 L 469.262,517.069 L 468.159,517.069 C 464.346,517.069 461.065,518.434 458.386,521.136 Z" stroke-width="0.5" fill="#a99781" fill-rule="evenodd" marker-start="none" marker-end="none"/>
  </g>
 </g>
</svg>
