<?xml version="1.0" standalone="no"?>
<!DOCTYPE svg PUBLIC "-//W3C//DTD SVG 1.1//EN" "http://www.w3.org/Graphics/SVG/1.1/DTD/svg11.dtd">
<!--Generator: Xara Designer (www.xara.com), SVG filter version: 6.6.0.0-->
<svg fill="none" fill-rule="evenodd" stroke="black" stroke-width="0.501" stroke-linejoin="bevel" stroke-miterlimit="10" font-family="Times New Roman" font-size="16" style="font-variant-ligatures:none" xmlns:xlink="http://www.w3.org/1999/xlink" xmlns="http://www.w3.org/2000/svg" version="1.1" overflow="visible" width="58.851pt" height="15.154pt" viewBox="318 -485.719 58.851 15.154">
 <defs>
	</defs>
 <g id="Layer 1" transform="scale(1 -1)">
  <g id="Group" stroke-linejoin="miter" stroke="none" stroke-width="0.25">
   <path d="M 318,473.508 L 318,484.636 C 318.031,484.934 318.142,485.152 318.294,485.33 C 318.328,485.359 318.36,485.391 318.389,485.424 C 318.566,485.577 318.784,485.687 319.083,485.719 L 375.767,485.719 C 376.067,485.687 376.285,485.577 376.463,485.424 C 376.492,485.391 376.523,485.359 376.557,485.33 C 376.709,485.152 376.82,484.934 376.851,484.636 L 376.851,473.508 L 318,473.508 Z" fill="#ffffff" marker-start="none" marker-end="none"/>
   <path d="M 348.579,481.805 C 348.585,481.815 348.632,481.815 348.638,481.805 L 348.579,481.805 Z" fill="#e3f1db" marker-start="none" marker-end="none"/>
   <path d="M 326.327,481.505 C 326.342,481.476 326.329,481.42 326.333,481.382 C 326.32,481.411 326.332,481.466 326.327,481.505 Z" fill="#bcdeae" marker-start="none" marker-end="none"/>
   <path d="M 356.342,473.514 L 358.366,473.514 C 357.705,473.504 357.003,473.504 356.342,473.514 Z" fill="#e3f1db" marker-start="none" marker-end="none"/>
   <path d="M 358.625,473.514 L 360.149,473.514 C 359.655,473.504 359.119,473.504 358.625,473.514 Z" fill="#e3f1db" marker-start="none" marker-end="none"/>
   <path d="M 332.79,473.136 L 332.79,472.824 C 332.78,472.915 332.78,473.047 332.79,473.136 Z" fill="#51b849" marker-start="none" marker-end="none"/>
   <path d="M 333.06,473.136 C 333.07,473.047 333.07,472.915 333.06,472.824 L 333.06,473.136 Z" fill="#51b849" marker-start="none" marker-end="none"/>
   <path d="M 333.266,473.136 L 333.266,472.824 C 333.256,472.915 333.256,473.047 333.266,473.136 Z" fill="#51b849" marker-start="none" marker-end="none"/>
   <path d="M 333.537,473.136 C 333.547,473.047 333.547,472.915 333.537,472.824 L 333.537,473.136 Z" fill="#51b849" marker-start="none" marker-end="none"/>
   <path d="M 326.057,473.072 C 326.067,472.993 326.067,472.874 326.057,472.795 L 326.057,473.072 Z" fill="#51b849" marker-start="none" marker-end="none"/>
   <path d="M 326.228,473.072 L 326.228,471.017 C 326.218,471.689 326.218,472.4 326.228,473.072 Z" fill="#51b849" marker-start="none" marker-end="none"/>
   <path d="M 326.533,473.072 C 326.548,472.86 326.535,472.622 326.539,472.4 C 326.525,472.613 326.538,472.85 326.533,473.072 Z" fill="#51b849" marker-start="none" marker-end="none"/>
   <path d="M 329.264,471.017 L 328.958,471.017 L 328.958,473.072 L 329.264,473.072 L 329.264,471.017 Z" fill="#120d14" marker-start="none" marker-end="none"/>
   <path d="M 329.264,473.072 C 329.274,472.4 329.274,471.689 329.264,471.017 L 329.264,473.072 Z" fill="#51b849" marker-start="none" marker-end="none"/>
   <path d="M 338.362,473.072 L 338.669,473.072 L 338.669,471.017 L 338.356,471.017 L 338.356,473.054 C 338.356,473.063 338.355,473.071 338.362,473.072 Z" fill="#120d14" marker-start="none" marker-end="none"/>
   <path d="M 325.579,472.795 C 325.575,472.206 325.587,471.599 325.574,471.017 C 325.578,471.608 325.566,472.215 325.579,472.795 Z" fill="#51b849" marker-start="none" marker-end="none"/>
   <path d="M 341.411,472.383 C 341.547,472.659 342.094,472.698 342.182,472.36 C 342.229,472.179 342.199,471.929 342.199,471.695 L 342.199,471.017 L 341.888,471.017 C 341.861,471.33 341.922,471.83 341.888,472.16 C 341.88,472.236 341.842,472.315 341.781,472.342 C 341.613,472.42 341.424,472.285 341.429,472.095 C 341.415,471.748 341.427,471.376 341.424,471.017 L 341.117,471.017 L 341.117,472.565 L 341.405,472.565 C 341.409,472.506 341.397,472.432 341.411,472.383 Z" fill="#120d14" marker-start="none" marker-end="none"/>
   <path d="M 334.284,472.565 C 334.298,472.202 334.286,471.811 334.29,471.435 C 334.276,471.801 334.288,472.192 334.284,472.565 Z" fill="#51b849" marker-start="none" marker-end="none"/>
   <path d="M 334.755,472.565 C 334.752,472.199 334.764,471.816 334.75,471.46 C 334.753,471.826 334.741,472.209 334.755,472.565 Z" fill="#51b849" marker-start="none" marker-end="none"/>
   <path d="M 341.117,472.565 L 341.117,471.017 C 341.108,471.52 341.108,472.063 341.117,472.565 Z" fill="#51b849" marker-start="none" marker-end="none"/>
   <path d="M 328.076,472.388 C 328.091,472.399 328.148,472.399 328.164,472.388 L 328.076,472.388 Z" fill="#51b849" marker-start="none" marker-end="none"/>
   <path d="M 333.114,472.388 C 333.127,472.399 333.182,472.399 333.195,472.388 L 333.114,472.388 Z" fill="#51b849" marker-start="none" marker-end="none"/>
   <path d="M 340.275,472.388 C 340.285,472.399 340.335,472.399 340.346,472.388 L 340.275,472.388 Z" fill="#51b849" marker-start="none" marker-end="none"/>
   <path d="M 331.407,472.278 C 331.402,472.26 331.414,472.227 331.4,472.219 C 331.404,472.236 331.392,472.27 331.407,472.278 Z" fill="#51b849" marker-start="none" marker-end="none"/>
   <path d="M 328.623,472.266 C 328.636,471.964 328.624,471.636 328.628,471.325 C 328.614,471.626 328.626,471.954 328.623,472.266 Z" fill="#51b849" marker-start="none" marker-end="none"/>
   <path d="M 336.721,472.242 C 336.717,472.225 336.728,472.192 336.715,472.184 C 336.719,472.202 336.707,472.234 336.721,472.242 Z" fill="#51b849" marker-start="none" marker-end="none"/>
   <path d="M 337.738,472.229 C 337.752,472.215 337.741,472.174 337.744,472.148 C 337.731,472.164 337.742,472.206 337.738,472.229 Z" fill="#51b849" marker-start="none" marker-end="none"/>
   <path d="M 331.077,472.225 C 331.073,472.205 331.084,472.17 331.071,472.16 C 331.075,472.18 331.063,472.215 331.077,472.225 Z" fill="#51b849" marker-start="none" marker-end="none"/>
   <path d="M 328.329,472.208 C 328.338,472.193 328.338,472.138 328.329,472.125 L 328.329,472.208 Z" fill="#51b849" marker-start="none" marker-end="none"/>
   <path d="M 338.069,472.184 C 338.078,472.105 338.078,471.986 338.069,471.907 L 338.069,472.184 Z" fill="#51b849" marker-start="none" marker-end="none"/>
   <path d="M 337.044,472.107 L 337.044,471.995 C 337.034,472.019 337.034,472.083 337.044,472.107 Z" fill="#51b849" marker-start="none" marker-end="none"/>
   <path d="M 331.731,472.101 L 331.731,471.854 C 331.721,471.923 331.721,472.033 331.731,472.101 Z" fill="#51b849" marker-start="none" marker-end="none"/>
   <path d="M 332.624,472.101 L 332.919,472.101 C 332.835,472.091 332.709,472.091 332.624,472.101 Z" fill="#51b849" marker-start="none" marker-end="none"/>
   <path d="M 341.429,472.095 C 341.425,471.738 341.437,471.366 341.424,471.017 C 341.427,471.376 341.415,471.748 341.429,472.095 Z" fill="#51b849" marker-start="none" marker-end="none"/>
   <path d="M 326.539,472.089 C 326.535,471.734 326.548,471.363 326.533,471.017 C 326.538,471.373 326.525,471.744 326.539,472.089 Z" fill="#51b849" marker-start="none" marker-end="none"/>
   <path d="M 340.052,472.026 L 340.052,471.966 C 340.042,471.972 340.042,472.018 340.052,472.026 Z" fill="#51b849" marker-start="none" marker-end="none"/>
   <path d="M 337.744,471.954 C 337.741,471.929 337.752,471.887 337.738,471.871 C 337.742,471.897 337.731,471.939 337.744,471.954 Z" fill="#51b849" marker-start="none" marker-end="none"/>
   <path d="M 331.071,471.919 C 331.084,471.905 331.073,471.866 331.077,471.843 C 331.063,471.856 331.075,471.895 331.071,471.919 Z" fill="#51b849" marker-start="none" marker-end="none"/>
   <path d="M 331.4,471.877 C 331.414,471.869 331.402,471.837 331.407,471.819 C 331.392,471.827 331.404,471.86 331.4,471.877 Z" fill="#51b849" marker-start="none" marker-end="none"/>
   <path d="M 328.329,471.831 C 328.338,471.74 328.338,471.608 328.329,471.518 L 328.329,471.831 Z" fill="#51b849" marker-start="none" marker-end="none"/>
   <path d="M 327.863,471.483 L 327.863,471.407 C 327.853,471.42 327.853,471.471 327.863,471.483 Z" fill="#51b849" marker-start="none" marker-end="none"/>
   <path d="M 327.552,471.448 L 327.552,471.378 C 327.542,471.388 327.542,471.437 327.552,471.448 Z" fill="#51b849" marker-start="none" marker-end="none"/>
   <path d="M 333.789,471.236 C 333.799,471.205 333.8,471.084 333.789,471.036 L 333.789,471.236 Z" fill="#51b849" marker-start="none" marker-end="none"/>
   <path d="M 340.275,471.195 L 340.346,471.195 C 340.335,471.185 340.285,471.185 340.275,471.195 Z" fill="#51b849" marker-start="none" marker-end="none"/>
   <path d="M 319.125,470.571 L 375.727,470.571 L 375.727,470.565 L 319.125,470.565 L 319.125,470.571 Z" fill="#e3f1db" marker-start="none" marker-end="none"/>
   <path d="M 353.135,485.307 C 353.157,485.335 353.183,485.36 353.21,485.384 C 353.188,485.355 353.162,485.329 353.135,485.307 Z" fill="#bcdeae" marker-start="none" marker-end="none"/>
   <path d="M 347.702,481.275 C 347.719,481.298 347.738,481.318 347.761,481.334 C 347.744,481.313 347.724,481.293 347.702,481.275 Z" fill="#e3f1db" marker-start="none" marker-end="none"/>
   <path d="M 346.884,480.099 C 346.901,480.12 346.922,480.14 346.942,480.158 C 346.927,480.136 346.906,480.116 346.884,480.099 Z" fill="#bcdeae" marker-start="none" marker-end="none"/>
   <path d="M 347.814,480.094 C 347.831,480.115 347.851,480.135 347.873,480.152 C 347.856,480.13 347.835,480.11 347.814,480.094 Z" fill="#bcdeae" marker-start="none" marker-end="none"/>
   <path d="M 358.407,479.716 C 358.428,479.742 358.452,479.766 358.478,479.787 C 358.457,479.761 358.433,479.737 358.407,479.716 Z" fill="#e3f1db" marker-start="none" marker-end="none"/>
   <path d="M 327.887,472.154 C 327.885,472.134 327.892,472.107 327.881,472.095 C 327.859,472.119 327.613,472.067 327.586,472.095 C 327.574,472.109 327.59,472.143 327.592,472.154 L 327.592,472.101 L 327.881,472.101 C 327.885,472.117 327.873,472.147 327.887,472.154 Z" fill="#51b849" marker-start="none" marker-end="none"/>
   <path d="M 340.052,471.613 C 340.042,471.647 340.043,471.72 340.052,471.754 L 340.858,471.754 C 340.602,471.74 340.323,471.752 340.058,471.748 C 340.044,471.714 340.056,471.656 340.052,471.613 Z" fill="#51b849" marker-start="none" marker-end="none"/>
   <path d="M 334.762,471.195 C 334.764,471.203 334.766,471.194 334.773,471.195 L 334.773,471.017 C 334.755,471.063 334.777,471.15 334.762,471.195 Z" fill="#51b849" marker-start="none" marker-end="none"/>
   <path d="M 360.149,473.514 C 365.715,473.51 371.294,473.521 376.851,473.508 L 376.851,471.654 C 376.756,471.013 376.395,470.639 375.727,470.571 L 319.125,470.571 C 318.456,470.639 318.095,471.013 318,471.654 L 318,473.508 C 330.765,473.521 343.562,473.51 356.336,473.514 L 356.342,473.514 C 357.003,473.504 357.705,473.504 358.366,473.514 C 358.367,473.516 358.367,473.519 358.372,473.519 L 358.372,473.514 L 358.625,473.514 C 359.119,473.504 359.655,473.504 360.149,473.514 Z" fill="#bcdeae" marker-start="none" marker-end="none"/>
   <path d="M 328.329,471.518 C 328.32,471.431 328.309,471.362 328.263,471.301 C 328.159,471.159 327.855,471.171 327.863,471.407 L 327.863,471.483 C 327.866,471.751 328.173,471.716 328.329,471.831 L 328.329,471.518 Z" fill="#bcdeae" marker-start="none" marker-end="none"/>
   <path d="M 337.044,472.107 C 337.055,472.402 337.062,472.773 337.274,472.848 C 337.634,472.976 337.742,472.566 337.738,472.229 C 337.742,472.206 337.731,472.164 337.744,472.148 L 337.744,471.954 C 337.731,471.939 337.742,471.897 337.738,471.871 C 337.718,471.604 337.706,471.321 337.509,471.243 C 337.431,471.211 337.339,471.215 337.274,471.243 C 337.06,471.331 337.054,471.7 337.044,471.995 L 337.044,472.107 Z" fill="#bcdeae" marker-start="none" marker-end="none"/>
   <path d="M 333.367,471.831 C 333.391,471.53 333.361,471.161 333.054,471.206 C 332.906,471.229 332.834,471.484 332.943,471.629 C 333.034,471.753 333.243,471.734 333.367,471.831 Z" fill="#bcdeae" marker-start="none" marker-end="none"/>
   <path d="M 325.467,472.667 L 325.467,472.95 L 326.644,472.95 L 326.644,472.667 L 326.199,472.667 L 326.199,471.219 L 325.911,471.219 L 325.911,472.667 L 325.467,472.667 Z" fill="#004109" fill-rule="nonzero" marker-start="none" marker-end="none"/>
   <path d="M 326.882,471.219 L 326.882,472.95 L 327.135,472.95 L 327.135,472.349 C 327.182,472.394 327.233,472.43 327.289,472.454 C 327.344,472.477 327.404,472.489 327.468,472.489 C 327.59,472.489 327.686,472.451 327.757,472.372 C 327.827,472.296 327.863,472.188 327.863,472.052 L 327.863,471.219 L 327.611,471.219 L 327.611,472.004 C 327.611,472.085 327.594,472.145 327.56,472.186 C 327.525,472.227 327.476,472.249 327.409,472.249 C 327.333,472.249 327.267,472.221 327.215,472.166 C 327.162,472.112 327.135,472.041 327.135,471.959 L 327.135,471.219 L 326.882,471.219 Z" fill="#004109" fill-rule="nonzero" marker-start="none" marker-end="none"/>
   <path d="M 328.843,471.861 C 328.792,471.843 328.722,471.824 328.633,471.804 C 328.462,471.765 328.377,471.7 328.377,471.607 C 328.377,471.557 328.395,471.517 328.428,471.487 C 328.462,471.457 328.509,471.442 328.567,471.442 C 328.664,471.442 328.735,471.467 328.779,471.518 C 328.822,471.568 328.844,471.649 328.844,471.762 C 328.844,471.773 328.844,471.79 328.844,471.811 C 328.843,471.833 328.843,471.849 328.843,471.861 Z M 328.893,471.219 C 328.872,471.236 328.857,471.253 328.847,471.271 C 328.838,471.289 328.833,471.311 328.833,471.336 C 328.79,471.291 328.742,471.258 328.69,471.237 C 328.637,471.216 328.578,471.205 328.513,471.205 C 328.391,471.205 328.292,471.243 328.214,471.315 C 328.137,471.388 328.098,471.479 328.098,471.59 C 328.098,471.708 328.133,471.798 328.204,471.858 C 328.275,471.919 328.407,471.964 328.597,471.996 L 328.598,471.996 C 328.759,472.024 328.84,472.075 328.84,472.148 C 328.84,472.191 328.822,472.224 328.786,472.247 C 328.75,472.272 328.698,472.284 328.632,472.284 C 328.56,472.284 328.504,472.269 328.464,472.237 C 328.426,472.207 328.405,472.163 328.402,472.105 L 328.154,472.104 C 328.17,472.242 328.216,472.343 328.295,472.407 C 328.374,472.472 328.49,472.503 328.644,472.503 C 328.799,472.503 328.913,472.474 328.982,472.416 C 329.05,472.359 329.085,472.265 329.085,472.132 L 329.085,471.507 C 329.085,471.425 329.088,471.363 329.095,471.325 C 329.101,471.284 329.111,471.249 329.125,471.219 L 328.893,471.219 Z" fill="#004109" fill-rule="nonzero" marker-start="none" marker-end="none"/>
   <path d="M 329.369,472.95 L 329.624,472.95 L 329.624,471.219 L 329.369,471.219 L 329.369,472.95 Z" fill="#004109" fill-rule="nonzero" marker-start="none" marker-end="none"/>
   <path d="M 332.672,472.153 L 332.672,471.219 L 332.413,471.219 L 332.413,471.346 C 332.359,471.29 332.297,471.248 332.225,471.218 C 332.154,471.19 332.073,471.175 331.985,471.175 C 331.762,471.175 331.584,471.258 331.449,471.422 C 331.312,471.586 331.244,471.804 331.244,472.073 C 331.244,472.351 331.314,472.573 331.454,472.741 C 331.592,472.909 331.776,472.994 332.004,472.994 C 332.165,472.994 332.301,472.952 332.415,472.868 C 332.527,472.784 332.612,472.66 332.668,472.498 L 332.418,472.384 C 332.378,472.491 332.322,472.572 332.25,472.63 C 332.178,472.688 332.095,472.717 332.002,472.717 C 331.867,472.717 331.756,472.658 331.67,472.543 C 331.584,472.426 331.542,472.276 331.542,472.09 C 331.542,471.895 331.584,471.74 331.669,471.625 C 331.753,471.513 331.868,471.455 332.012,471.455 C 332.131,471.455 332.228,471.494 332.3,471.57 C 332.373,471.646 332.411,471.748 332.411,471.874 L 332.411,471.879 L 332.028,471.879 L 332.028,472.153 L 332.672,472.153 Z" fill="#004109" fill-rule="nonzero" marker-start="none" marker-end="none"/>
   <path d="M 333.528,472.868 L 333.762,472.868 L 333.762,472.614 L 333.528,472.614 L 333.528,472.868 Z M 333.65,471.861 C 333.6,471.843 333.53,471.824 333.441,471.804 C 333.27,471.765 333.185,471.7 333.185,471.607 C 333.185,471.557 333.203,471.517 333.235,471.487 C 333.27,471.457 333.316,471.442 333.375,471.442 C 333.471,471.442 333.543,471.467 333.586,471.518 C 333.631,471.568 333.652,471.649 333.652,471.762 C 333.652,471.773 333.651,471.79 333.65,471.811 C 333.65,471.833 333.65,471.849 333.65,471.861 Z M 333.15,472.868 L 333.384,472.868 L 333.384,472.614 L 333.15,472.614 L 333.15,472.868 Z M 333.702,471.219 C 333.68,471.236 333.665,471.253 333.655,471.271 C 333.646,471.29 333.641,471.311 333.641,471.336 C 333.598,471.291 333.55,471.258 333.498,471.237 C 333.445,471.216 333.385,471.205 333.32,471.205 C 333.199,471.205 333.101,471.243 333.023,471.315 C 332.946,471.388 332.906,471.479 332.906,471.59 C 332.906,471.708 332.942,471.798 333.013,471.858 C 333.084,471.919 333.214,471.964 333.404,471.996 L 333.405,471.996 C 333.567,472.024 333.648,472.075 333.648,472.148 C 333.648,472.191 333.63,472.224 333.594,472.247 C 333.558,472.272 333.506,472.284 333.44,472.284 C 333.368,472.284 333.311,472.269 333.272,472.237 C 333.233,472.207 333.212,472.163 333.21,472.105 L 332.962,472.104 C 332.978,472.242 333.025,472.343 333.103,472.407 C 333.182,472.472 333.298,472.503 333.452,472.503 C 333.607,472.503 333.721,472.474 333.79,472.416 C 333.858,472.359 333.894,472.265 333.894,472.132 L 333.894,471.507 C 333.894,471.425 333.897,471.363 333.904,471.325 C 333.909,471.284 333.919,471.249 333.934,471.219 L 333.702,471.219 Z" fill="#004109" fill-rule="nonzero" marker-start="none" marker-end="none"/>
   <path d="M 335.152,472.466 L 335.152,471.219 L 334.899,471.219 L 334.899,471.336 C 334.853,471.289 334.801,471.254 334.745,471.231 C 334.688,471.207 334.629,471.195 334.566,471.195 C 334.443,471.195 334.347,471.235 334.276,471.312 C 334.206,471.389 334.17,471.496 334.17,471.631 L 334.17,472.466 L 334.424,472.466 L 334.424,471.681 C 334.424,471.601 334.441,471.539 334.475,471.498 C 334.51,471.455 334.56,471.434 334.627,471.434 C 334.704,471.434 334.77,471.463 334.821,471.517 C 334.872,471.572 334.899,471.641 334.899,471.724 L 334.899,472.466 L 335.152,472.466 Z" fill="#004109" fill-rule="nonzero" marker-start="none" marker-end="none"/>
   <path d="M 337.509,471.455 C 337.644,471.455 337.753,471.512 337.832,471.623 C 337.911,471.734 337.951,471.888 337.951,472.083 C 337.951,472.278 337.911,472.43 337.833,472.543 C 337.753,472.652 337.645,472.709 337.509,472.709 C 337.372,472.709 337.264,472.652 337.185,472.543 C 337.104,472.43 337.064,472.278 337.064,472.083 C 337.064,471.888 337.104,471.734 337.185,471.623 C 337.264,471.512 337.372,471.455 337.509,471.455 Z M 338.248,472.083 C 338.248,471.809 338.18,471.59 338.045,471.424 C 337.91,471.258 337.731,471.175 337.509,471.175 C 337.286,471.175 337.106,471.258 336.971,471.424 C 336.835,471.59 336.767,471.809 336.767,472.083 C 336.767,472.357 336.835,472.576 336.971,472.74 C 337.106,472.907 337.286,472.989 337.509,472.989 C 337.731,472.989 337.91,472.907 338.045,472.74 C 338.18,472.575 338.248,472.356 338.248,472.083 Z" fill="#004109" fill-rule="nonzero" marker-start="none" marker-end="none"/>
   <path d="M 338.481,472.95 L 338.735,472.95 L 338.735,471.219 L 338.481,471.219 L 338.481,472.95 Z" fill="#004109" fill-rule="nonzero" marker-start="none" marker-end="none"/>
   <path d="M 339.314,471.629 C 339.314,471.551 339.324,471.501 339.346,471.477 C 339.368,471.453 339.409,471.442 339.468,471.442 C 339.477,471.442 339.487,471.442 339.499,471.443 C 339.51,471.444 339.522,471.445 339.533,471.447 L 339.533,471.219 C 339.513,471.214 339.491,471.21 339.47,471.207 C 339.448,471.204 339.426,471.203 339.403,471.203 C 339.275,471.203 339.186,471.229 339.134,471.283 C 339.085,471.336 339.059,471.444 339.059,471.613 L 339.059,472.247 L 338.871,472.247 L 338.871,472.466 L 339.059,472.466 L 339.059,472.901 L 339.314,472.901 L 339.314,472.466 L 339.533,472.466 L 339.533,472.247 L 339.314,472.247 L 339.314,471.629 Z" fill="#004109" fill-rule="nonzero" marker-start="none" marker-end="none"/>
   <path d="M 339.898,471.994 L 340.425,471.994 C 340.418,472.072 340.392,472.136 340.342,472.186 C 340.295,472.235 340.238,472.261 340.171,472.261 C 340.105,472.261 340.045,472.235 339.993,472.186 C 339.943,472.136 339.911,472.072 339.898,471.994 Z M 340.715,471.505 C 340.648,471.4 340.573,471.321 340.486,471.266 C 340.4,471.214 340.304,471.187 340.199,471.187 C 340.029,471.187 339.891,471.249 339.785,471.372 C 339.677,471.495 339.625,471.657 339.625,471.856 C 339.625,472.043 339.676,472.198 339.778,472.319 C 339.881,472.44 340.011,472.501 340.167,472.501 C 340.333,472.501 340.468,472.435 340.57,472.305 C 340.672,472.174 340.722,471.998 340.722,471.779 L 340.722,471.764 L 339.898,471.764 C 339.908,471.667 339.942,471.59 339.999,471.531 C 340.057,471.474 340.129,471.444 340.217,471.444 C 340.273,471.444 340.327,471.461 340.378,471.494 C 340.429,471.526 340.471,471.572 340.504,471.629 L 340.715,471.505 Z" fill="#004109" fill-rule="nonzero" marker-start="none" marker-end="none"/>
   <path d="M 340.927,471.219 L 340.927,472.466 L 341.18,472.466 L 341.18,472.349 C 341.226,472.394 341.278,472.43 341.333,472.454 C 341.388,472.477 341.449,472.489 341.512,472.489 C 341.634,472.489 341.729,472.451 341.802,472.372 C 341.872,472.296 341.907,472.188 341.907,472.052 L 341.907,471.219 L 341.655,471.219 L 341.655,472.004 C 341.655,472.085 341.637,472.145 341.603,472.186 C 341.569,472.227 341.52,472.249 341.455,472.249 C 341.377,472.249 341.312,472.221 341.26,472.166 C 341.205,472.112 341.18,472.041 341.18,471.959 L 341.18,471.219 L 340.927,471.219 Z" fill="#004109" fill-rule="nonzero" marker-start="none" marker-end="none"/>
   <path d="M 353.775,471.76 L 353.549,472.562 C 353.543,472.583 353.538,472.606 353.533,472.633 C 353.53,472.659 353.526,472.689 353.521,472.721 C 353.519,472.69 353.516,472.661 353.512,472.637 C 353.508,472.611 353.504,472.588 353.498,472.566 L 353.275,471.76 L 353.775,471.76 Z M 354.226,471.219 L 353.932,471.219 L 353.851,471.491 L 353.198,471.491 L 353.123,471.219 L 352.837,471.219 L 353.355,472.95 L 353.693,472.95 L 354.226,471.219 Z" fill="#004109" fill-rule="nonzero" marker-start="none" marker-end="none"/>
   <path d="M 354.402,471.219 L 354.402,472.466 L 354.655,472.466 L 354.655,472.349 C 354.701,472.394 354.752,472.43 354.808,472.454 C 354.863,472.477 354.923,472.489 354.988,472.489 C 355.108,472.489 355.205,472.451 355.277,472.372 C 355.348,472.296 355.383,472.188 355.383,472.052 L 355.383,471.219 L 355.13,471.219 L 355.13,472.004 C 355.13,472.085 355.113,472.145 355.079,472.186 C 355.045,472.227 354.995,472.249 354.929,472.249 C 354.852,472.249 354.787,472.221 354.734,472.166 C 354.681,472.112 354.655,472.041 354.655,471.959 L 354.655,471.219 L 354.402,471.219 Z" fill="#004109" fill-rule="nonzero" marker-start="none" marker-end="none"/>
   <path d="M 355.604,471.219 L 355.604,471.453 L 356.191,472.229 L 355.621,472.229 L 355.621,472.466 L 356.524,472.466 L 356.524,472.259 L 355.917,471.458 L 356.543,471.458 L 356.543,471.219 L 355.604,471.219 Z" fill="#004109" fill-rule="nonzero" marker-start="none" marker-end="none"/>
   <path d="M 356.985,471.994 L 357.512,471.994 C 357.504,472.072 357.477,472.136 357.429,472.186 C 357.38,472.235 357.323,472.261 357.257,472.261 C 357.19,472.261 357.131,472.235 357.08,472.186 C 357.027,472.136 356.997,472.072 356.985,471.994 Z M 357.8,471.505 C 357.734,471.4 357.658,471.321 357.572,471.266 C 357.486,471.214 357.389,471.187 357.284,471.187 C 357.114,471.187 356.976,471.249 356.87,471.372 C 356.764,471.495 356.71,471.657 356.71,471.856 C 356.71,472.043 356.761,472.198 356.864,472.319 C 356.967,472.44 357.096,472.501 357.252,472.501 C 357.42,472.501 357.553,472.435 357.655,472.305 C 357.757,472.174 357.807,471.998 357.807,471.779 L 357.807,471.764 L 356.985,471.764 C 356.995,471.667 357.027,471.59 357.086,471.531 C 357.143,471.474 357.214,471.444 357.301,471.444 C 357.358,471.444 357.413,471.461 357.464,471.494 C 357.516,471.526 357.556,471.572 357.589,471.629 L 357.8,471.505 Z" fill="#004109" fill-rule="nonzero" marker-start="none" marker-end="none"/>
   <path d="M 358.015,472.466 L 358.27,472.466 L 358.27,471.219 L 358.015,471.219 L 358.015,472.466 Z M 358.015,472.95 L 358.27,472.95 L 358.27,472.649 L 358.015,472.649 L 358.015,472.95 Z" fill="#004109" fill-rule="nonzero" marker-start="none" marker-end="none"/>
   <path d="M 359.288,471.903 C 359.288,472.018 359.265,472.105 359.221,472.164 C 359.177,472.222 359.111,472.252 359.025,472.252 C 358.94,472.252 358.874,472.221 358.827,472.16 C 358.778,472.1 358.754,472.014 358.754,471.903 C 358.754,471.793 358.778,471.708 358.827,471.647 C 358.874,471.586 358.94,471.556 359.025,471.556 C 359.111,471.556 359.177,471.586 359.221,471.644 C 359.265,471.702 359.288,471.789 359.288,471.903 Z M 359.288,471.431 C 359.251,471.388 359.206,471.356 359.157,471.337 C 359.106,471.317 359.049,471.306 358.984,471.306 C 358.836,471.306 358.716,471.36 358.625,471.469 C 358.533,471.578 358.486,471.721 358.486,471.899 C 358.486,472.077 358.532,472.22 358.623,472.329 C 358.714,472.438 358.834,472.491 358.984,472.491 C 359.048,472.491 359.105,472.481 359.155,472.461 C 359.204,472.441 359.249,472.409 359.288,472.367 L 359.288,472.466 L 359.54,472.466 L 359.54,471.419 C 359.54,471.327 359.536,471.259 359.53,471.218 C 359.522,471.176 359.511,471.14 359.494,471.104 C 359.458,471.031 359.397,470.974 359.313,470.933 C 359.227,470.893 359.126,470.872 359.009,470.872 C 358.863,470.872 358.747,470.905 358.663,470.969 C 358.579,471.033 358.532,471.124 358.524,471.242 L 358.817,471.242 C 358.823,471.197 358.84,471.164 358.87,471.144 C 358.899,471.124 358.944,471.114 359.005,471.114 C 359.107,471.114 359.179,471.132 359.223,471.168 C 359.266,471.203 359.288,471.262 359.288,471.345 L 359.288,471.431 Z" fill="#004109" fill-rule="nonzero" marker-start="none" marker-end="none"/>
   <path d="M 360.03,471.994 L 360.557,471.994 C 360.55,472.072 360.522,472.136 360.474,472.186 C 360.425,472.235 360.369,472.261 360.303,472.261 C 360.235,472.261 360.176,472.235 360.125,472.186 C 360.073,472.136 360.042,472.072 360.03,471.994 Z M 360.845,471.505 C 360.78,471.4 360.703,471.321 360.617,471.266 C 360.531,471.214 360.436,471.187 360.329,471.187 C 360.16,471.187 360.022,471.249 359.915,471.372 C 359.809,471.495 359.756,471.657 359.756,471.856 C 359.756,472.043 359.807,472.198 359.91,472.319 C 360.012,472.44 360.141,472.501 360.298,472.501 C 360.465,472.501 360.599,472.435 360.701,472.305 C 360.802,472.174 360.852,471.998 360.852,471.779 L 360.852,471.764 L 360.03,471.764 C 360.04,471.667 360.073,471.59 360.13,471.531 C 360.188,471.474 360.261,471.444 360.347,471.444 C 360.404,471.444 360.459,471.461 360.51,471.494 C 360.561,471.526 360.602,471.572 360.634,471.629 L 360.845,471.505 Z" fill="#004109" fill-rule="nonzero" marker-start="none" marker-end="none"/>
   <path d="M 361.059,471.219 L 361.059,472.466 L 361.313,472.466 L 361.313,472.287 C 361.352,472.357 361.4,472.409 361.453,472.443 C 361.507,472.476 361.569,472.494 361.641,472.494 C 361.654,472.494 361.664,472.493 361.67,472.493 C 361.677,472.493 361.682,472.492 361.688,472.49 L 361.688,472.194 C 361.683,472.194 361.678,472.194 361.67,472.195 C 361.664,472.195 361.653,472.196 361.638,472.196 C 361.539,472.196 361.46,472.168 361.401,472.116 C 361.343,472.062 361.313,471.991 361.313,471.901 L 361.313,471.219 L 361.059,471.219 Z" fill="#004109" fill-rule="nonzero" marker-start="none" marker-end="none"/>
   <path d="M 361.824,472.667 L 361.824,472.95 L 363.001,472.95 L 363.001,472.667 L 362.557,472.667 L 362.557,471.219 L 362.269,471.219 L 362.269,472.667 L 361.824,472.667 Z" fill="#004109" fill-rule="nonzero" marker-start="none" marker-end="none"/>
   <path d="M 364.612,472.153 L 364.612,471.219 L 364.352,471.219 L 364.352,471.346 C 364.298,471.29 364.237,471.248 364.165,471.218 C 364.094,471.19 364.013,471.175 363.924,471.175 C 363.702,471.175 363.524,471.258 363.389,471.422 C 363.253,471.586 363.184,471.804 363.184,472.073 C 363.184,472.351 363.255,472.573 363.393,472.741 C 363.532,472.909 363.716,472.994 363.945,472.994 C 364.106,472.994 364.243,472.952 364.356,472.868 C 364.468,472.784 364.553,472.66 364.608,472.498 L 364.358,472.384 C 364.318,472.491 364.263,472.572 364.191,472.63 C 364.119,472.688 364.037,472.717 363.943,472.717 C 363.807,472.717 363.696,472.658 363.61,472.543 C 363.524,472.426 363.482,472.276 363.482,472.09 C 363.482,471.895 363.524,471.74 363.609,471.625 C 363.693,471.513 363.809,471.455 363.953,471.455 C 364.071,471.455 364.167,471.494 364.241,471.57 C 364.313,471.646 364.35,471.748 364.35,471.874 L 364.35,471.879 L 363.968,471.879 L 363.968,472.153 L 364.612,472.153 Z" fill="#004109" fill-rule="nonzero" marker-start="none" marker-end="none"/>
   <path d="M 365.58,471.455 C 365.715,471.455 365.824,471.512 365.903,471.623 C 365.982,471.734 366.022,471.888 366.022,472.083 C 366.022,472.278 365.982,472.43 365.904,472.543 C 365.825,472.652 365.716,472.709 365.58,472.709 C 365.442,472.709 365.334,472.652 365.254,472.543 C 365.174,472.43 365.135,472.278 365.135,472.083 C 365.135,471.888 365.174,471.734 365.254,471.623 C 365.334,471.512 365.442,471.455 365.58,471.455 Z M 366.319,472.083 C 366.319,471.809 366.251,471.59 366.116,471.424 C 365.981,471.258 365.802,471.175 365.58,471.175 C 365.356,471.175 365.176,471.258 365.041,471.424 C 364.905,471.59 364.837,471.809 364.837,472.083 C 364.837,472.357 364.905,472.576 365.041,472.74 C 365.176,472.907 365.356,472.989 365.58,472.989 C 365.802,472.989 365.981,472.907 366.116,472.74 C 366.251,472.575 366.319,472.356 366.319,472.083 Z" fill="#004109" fill-rule="nonzero" marker-start="none" marker-end="none"/>
   <path d="M 366.566,471.518 L 366.858,471.518 L 366.858,471.219 L 366.566,471.219 L 366.566,471.518 Z" fill="#004109" fill-rule="nonzero" marker-start="none" marker-end="none"/>
   <path d="M 368.186,471.538 C 368.137,471.424 368.07,471.337 367.984,471.275 C 367.898,471.215 367.798,471.185 367.684,471.185 C 367.518,471.185 367.384,471.247 367.281,471.368 C 367.179,471.491 367.127,471.651 367.127,471.85 C 367.127,472.04 367.18,472.196 367.286,472.318 C 367.392,472.44 367.527,472.501 367.692,472.501 C 367.805,472.501 367.904,472.47 367.99,472.408 C 368.075,472.346 368.142,472.257 368.188,472.141 L 367.956,472.027 C 367.93,472.1 367.896,472.154 367.85,472.192 C 367.805,472.227 367.75,472.247 367.684,472.247 C 367.602,472.247 367.533,472.21 367.477,472.136 C 367.423,472.063 367.395,471.968 367.395,471.854 C 367.395,471.731 367.422,471.633 367.475,471.56 C 367.528,471.487 367.6,471.451 367.69,471.451 C 367.751,471.451 367.804,471.469 367.85,471.505 C 367.896,471.542 367.933,471.596 367.962,471.667 L 368.186,471.538 Z" fill="#004109" fill-rule="nonzero" marker-start="none" marker-end="none"/>
   <path d="M 368.415,471.219 L 368.415,472.95 L 368.669,472.95 L 368.669,472.349 C 368.715,472.394 368.766,472.43 368.821,472.454 C 368.877,472.477 368.937,472.489 369.002,472.489 C 369.123,472.489 369.22,472.451 369.29,472.372 C 369.362,472.296 369.397,472.188 369.397,472.052 L 369.397,471.219 L 369.144,471.219 L 369.144,472.004 C 369.144,472.085 369.127,472.145 369.093,472.186 C 369.058,472.227 369.008,472.249 368.943,472.249 C 368.866,472.249 368.801,472.221 368.748,472.166 C 368.695,472.112 368.669,472.041 368.669,471.959 L 368.669,471.219 L 368.415,471.219 Z" fill="#004109" fill-rule="nonzero" marker-start="none" marker-end="none"/>
   <path d="M 348.638,483.584 C 348.535,483.584 348.457,483.56 348.385,483.53 C 348.36,483.483 348.318,483.421 348.244,483.441 C 348.183,483.374 348.077,483.349 347.956,483.342 C 347.888,483.296 347.812,483.225 347.725,483.2 C 347.708,483.195 347.684,483.203 347.667,483.2 C 347.548,483.177 347.517,483.048 347.407,483.017 C 347.393,483.005 347.377,483.031 347.35,483.024 C 347.336,482.994 347.296,482.99 347.249,482.994 C 347.138,482.938 347.102,482.808 346.926,482.817 C 346.92,482.785 346.896,482.768 346.896,482.729 C 346.753,482.63 346.657,482.482 346.466,482.429 C 346.43,482.298 346.294,482.267 346.254,482.141 C 346.233,482.142 346.216,482.14 346.201,482.135 C 346.171,482.021 346.066,481.979 346.049,481.852 C 345.911,481.775 345.884,481.59 345.729,481.529 C 345.729,481.503 345.747,481.494 345.741,481.464 C 345.714,481.38 345.659,481.324 345.619,481.263 C 345.531,481.132 345.484,480.971 345.378,480.852 C 345.386,480.769 345.305,480.75 345.337,480.663 C 345.317,480.62 345.262,480.61 345.248,480.558 C 345.234,480.543 345.248,480.524 345.248,480.505 C 345.134,480.389 345.102,480.177 345.048,480.005 C 345.03,479.946 344.993,479.887 344.983,479.834 C 344.973,479.772 345.002,479.706 344.948,479.663 C 344.944,479.632 344.978,479.637 344.978,479.61 C 344.867,479.534 344.951,479.264 344.853,479.175 C 344.717,479.193 344.648,479.276 344.524,479.24 C 344.429,479.211 344.392,479.082 344.277,479.081 C 344.269,479.042 344.248,479.015 344.231,478.986 C 344.206,478.968 344.184,478.946 344.165,478.922 C 344.127,478.881 344.091,478.836 344.089,478.757 C 344.054,478.741 344.037,478.707 344.012,478.68 C 344.036,478.619 343.996,478.581 343.983,478.54 C 344,478.509 344.007,478.47 344.012,478.428 L 344.012,478.322 C 344.013,478.256 344.008,478.185 344.018,478.127 C 344.102,478.094 344.074,478.011 344.107,477.916 C 344.15,477.787 344.304,477.72 344.224,477.597 C 344.468,477.528 344.442,477.192 344.749,477.185 C 344.792,477.121 344.881,477.117 344.978,477.097 C 345.046,477.083 345.088,477.05 345.142,477.05 L 345.207,477.05 C 345.521,477.016 345.528,476.675 345.777,476.579 C 345.814,476.481 345.889,476.422 346.001,476.397 C 346.026,476.372 346.032,476.326 346.066,476.309 C 346.191,476.337 346.227,476.227 346.336,476.22 C 346.36,476.175 346.412,476.124 346.484,476.161 C 346.65,476.057 346.892,476.029 347.067,475.933 C 347.066,475.946 347.088,475.936 347.096,475.939 L 347.155,475.939 C 347.257,475.948 347.371,475.866 347.461,475.873 C 347.486,475.875 347.501,475.898 347.526,475.897 C 347.55,475.897 347.577,475.874 347.602,475.873 C 347.631,475.873 347.679,475.892 347.713,475.897 C 347.833,475.913 347.987,475.883 348.079,475.915 C 348.109,475.926 348.131,475.952 348.161,475.956 C 348.202,475.96 348.244,475.941 348.279,475.945 C 348.388,475.954 348.456,476.064 348.575,476.033 C 348.687,476.111 348.815,476.176 348.992,476.192 C 349.02,476.194 349.063,476.183 349.068,476.208 C 349.141,476.31 349.308,476.335 349.433,476.397 C 349.46,476.412 349.481,476.435 349.509,476.445 C 349.53,476.452 349.553,476.449 349.574,476.457 C 349.627,476.476 349.662,476.539 349.739,476.526 C 349.802,476.607 349.921,476.59 349.991,476.649 C 350.011,476.667 350.015,476.699 350.033,476.715 C 350.076,476.756 350.133,476.752 350.192,476.774 C 350.266,476.909 350.489,476.896 350.603,476.99 C 350.613,477 350.608,477.026 350.609,477.044 C 350.695,477.06 350.667,477.19 350.804,477.157 C 350.988,477.308 351.239,477.392 351.434,477.533 C 351.45,477.529 351.464,477.524 351.48,477.521 C 351.491,477.601 351.582,477.584 351.651,477.609 C 351.768,477.652 351.879,477.749 351.992,477.769 C 352.013,477.734 351.987,477.7 351.986,477.656 C 351.986,477.569 352.027,477.472 352.004,477.392 C 351.994,477.357 351.97,477.345 351.958,477.31 C 352.097,477.19 351.945,476.877 352.04,476.721 C 352.023,476.696 352.004,476.673 352.004,476.632 C 352.059,476.6 352.066,476.537 352.098,476.479 C 352.113,476.456 352.138,476.436 352.145,476.415 C 352.17,476.349 352.177,476.271 352.205,476.197 C 352.23,476.125 352.257,476.055 352.263,475.98 C 352.376,475.942 352.388,475.768 352.522,475.756 C 352.552,475.754 352.583,475.769 352.61,475.768 C 352.705,475.764 352.764,475.699 352.851,475.668 C 352.949,475.684 353.024,475.723 353.14,475.721 C 353.26,475.855 353.447,475.919 353.494,476.126 C 353.522,476.152 353.554,476.172 353.576,476.204 C 353.475,476.321 353.657,476.521 353.559,476.655 C 353.561,476.681 353.589,476.681 353.588,476.709 C 353.576,476.744 353.543,476.758 353.535,476.797 L 353.535,476.856 C 353.546,477.106 353.644,477.328 353.593,477.587 C 353.671,477.652 353.605,477.815 353.617,477.94 C 353.613,477.963 353.624,478.002 353.612,478.015 L 353.612,478.051 C 353.624,478.062 353.613,478.1 353.617,478.121 C 353.595,478.21 353.658,478.274 353.64,478.357 C 353.632,478.394 353.581,478.413 353.576,478.445 C 353.569,478.484 353.595,478.55 353.588,478.599 C 353.581,478.643 353.542,478.673 353.535,478.722 C 353.529,478.757 353.557,478.804 353.518,478.834 C 353.53,478.857 353.557,478.863 353.552,478.904 C 353.537,478.929 353.488,478.918 353.476,478.945 C 353.449,479.051 353.39,479.124 353.376,479.24 L 353.376,479.299 C 353.363,479.35 353.321,479.368 353.311,479.422 C 353.305,479.45 353.319,479.482 353.311,479.51 C 353.286,479.594 353.178,479.618 353.151,479.698 C 353.08,479.697 353.036,479.754 352.958,479.728 C 352.881,479.784 352.859,479.931 352.752,479.945 C 352.705,479.952 352.658,479.915 352.61,479.952 C 352.509,479.892 352.358,479.863 352.205,479.876 C 352.179,479.857 352.176,479.818 352.152,479.799 C 352.037,479.754 351.933,479.692 351.827,479.645 C 351.79,479.629 351.743,479.623 351.704,479.604 C 351.659,479.583 351.616,479.531 351.568,479.499 C 351.463,479.423 351.385,479.376 351.28,479.299 C 351.206,479.244 351.148,479.158 351.063,479.217 C 351.055,479.196 351.054,479.169 351.039,479.158 C 350.672,479.035 350.421,478.799 350.097,478.633 C 350.078,478.634 350.074,478.65 350.051,478.644 C 349.975,478.529 349.806,478.508 349.68,478.445 C 349.661,478.448 349.659,478.467 349.639,478.468 C 349.599,478.413 349.522,478.434 349.456,478.397 C 349.424,478.38 349.402,478.328 349.367,478.315 C 349.34,478.305 349.305,478.319 349.274,478.31 C 349.229,478.297 349.199,478.238 349.156,478.221 C 349.098,478.199 349.02,478.222 348.949,478.198 C 348.922,478.188 348.901,478.154 348.873,478.145 C 348.794,478.118 348.738,478.129 348.697,478.074 C 348.673,478.072 348.667,478.088 348.644,478.086 C 348.525,477.985 348.317,477.973 348.121,477.951 C 348.168,478.024 348.265,478.05 348.349,478.086 C 348.367,478.15 348.401,478.2 348.474,478.209 C 348.565,478.395 348.83,478.406 348.949,478.563 C 348.997,478.561 348.999,478.604 349.056,478.592 C 349.075,478.688 349.133,478.745 349.185,478.81 C 349.238,478.811 349.26,478.841 349.309,478.846 C 349.319,478.879 349.34,478.9 349.357,478.928 C 349.378,478.944 349.398,478.964 349.414,478.986 C 349.447,479 349.456,479.041 349.492,479.063 C 349.519,479.081 349.545,479.073 349.561,479.098 C 349.581,479.127 349.571,479.175 349.586,479.204 C 349.62,479.272 349.721,479.313 349.775,479.368 C 349.823,479.422 349.838,479.485 349.903,479.51 C 349.894,479.534 349.903,479.576 349.909,479.604 C 349.928,479.612 349.95,479.619 349.979,479.616 C 349.955,479.677 350.018,479.684 350.039,479.716 C 350.023,479.883 350.191,479.897 350.156,480.063 C 350.23,480.156 350.278,480.305 350.256,480.476 C 350.266,480.503 350.312,480.515 350.32,480.552 C 350.323,480.565 350.316,480.59 350.316,480.612 C 350.306,480.766 350.393,481.012 350.344,481.147 C 350.408,481.268 350.311,481.434 350.35,481.553 C 350.365,481.599 350.411,481.607 350.392,481.664 C 350.371,481.684 350.325,481.679 350.316,481.711 C 350.326,481.851 350.205,481.918 350.192,482.034 C 350.189,482.053 350.202,482.08 350.197,482.1 C 350.187,482.143 350.128,482.17 350.126,482.217 C 350.135,482.239 350.141,482.262 350.144,482.288 C 350.102,482.316 350.094,482.404 350.11,482.47 C 350.096,482.496 350.063,482.503 350.051,482.53 C 350.047,482.554 350.058,482.595 350.045,482.612 C 350.035,482.799 349.938,482.898 349.85,483.005 L 349.85,483.053 C 349.772,483.154 349.635,483.199 349.598,483.342 C 349.443,483.405 349.347,483.526 349.175,483.572 C 349.142,483.585 349.086,483.573 349.044,483.577 C 348.977,483.576 348.921,483.588 348.849,483.584 C 348.793,483.593 348.695,483.593 348.638,483.584 Z M 340.5,483.594 C 340.369,483.686 340.198,483.746 340.004,483.753 C 339.983,483.755 339.951,483.748 339.928,483.753 C 339.904,483.76 339.893,483.79 339.863,483.794 C 339.836,483.799 339.795,483.779 339.758,483.783 C 339.693,483.789 339.624,483.826 339.569,483.824 C 339.532,483.824 339.496,483.802 339.458,483.8 C 339.387,483.798 339.313,483.798 339.257,483.794 C 339.138,483.79 339.023,483.828 338.928,483.812 C 338.894,483.808 338.863,483.782 338.833,483.783 C 338.799,483.784 338.773,483.811 338.738,483.812 C 338.693,483.814 338.659,483.781 338.621,483.807 C 338.618,483.767 338.597,483.748 338.574,483.73 C 338.51,483.681 338.34,483.664 338.239,483.648 C 338.144,483.633 338.071,483.617 337.986,483.584 C 337.898,483.547 337.811,483.512 337.738,483.506 C 337.652,483.5 337.615,483.514 337.579,483.471 C 337.557,483.454 337.538,483.433 337.52,483.413 C 337.477,483.363 337.429,483.319 337.326,483.329 C 337.286,483.203 337.113,483.207 337.08,483.07 C 336.985,483.034 336.929,482.959 336.914,482.841 C 336.791,482.799 336.752,482.672 336.697,482.559 C 336.719,482.517 336.771,482.447 336.757,482.388 C 336.746,482.346 336.703,482.355 336.685,482.317 C 336.663,482.25 336.701,482.192 336.697,482.122 C 336.798,482.063 336.792,481.896 336.867,481.811 C 336.884,481.791 336.859,481.733 336.891,481.729 C 336.959,481.717 336.96,481.641 336.973,481.576 C 337.044,481.554 337.087,481.504 337.109,481.434 C 337.21,481.407 337.265,481.335 337.367,481.328 C 337.455,481.324 337.555,481.385 337.644,481.346 C 337.732,481.384 337.805,481.437 337.927,481.44 C 337.964,481.605 338.239,481.533 338.321,481.652 C 338.352,481.634 338.381,481.607 338.421,481.616 C 338.442,481.622 338.476,481.662 338.492,481.676 C 338.517,481.697 338.539,481.725 338.569,481.735 C 338.611,481.749 338.714,481.771 338.75,481.776 C 338.816,481.783 338.84,481.754 338.886,481.752 C 338.97,481.75 339.071,481.805 339.157,481.835 C 339.248,481.866 339.362,481.912 339.446,481.9 C 339.466,481.896 339.49,481.876 339.51,481.87 C 339.582,481.849 339.682,481.87 339.739,481.805 C 339.689,481.765 339.694,481.665 339.711,481.589 C 339.68,481.519 339.636,481.437 339.657,481.352 C 339.537,481.158 339.452,480.842 339.127,480.91 C 339.081,480.892 339.047,480.814 338.98,480.852 C 338.97,480.775 338.9,480.776 338.839,480.751 C 338.748,480.716 338.659,480.63 338.546,480.635 C 338.484,480.543 338.326,480.547 338.233,480.487 C 338.221,480.456 338.206,480.428 338.191,480.399 C 338.117,480.386 338.078,480.336 338.021,480.305 C 337.974,480.154 337.848,480.081 337.738,479.993 C 337.747,479.908 337.629,479.862 337.633,479.799 C 337.635,479.763 337.673,479.766 337.68,479.722 C 337.649,479.687 337.658,479.633 337.668,479.582 C 337.66,479.551 337.611,479.564 337.603,479.534 L 337.603,479.405 C 337.628,479.374 337.684,479.376 337.709,479.346 C 337.715,479.185 337.718,479.069 337.792,478.97 C 337.816,478.934 337.869,478.92 337.892,478.887 C 337.913,478.855 337.916,478.804 337.933,478.763 C 337.966,478.684 338.006,478.637 338.069,478.592 C 338.037,478.541 338.076,478.49 338.092,478.451 C 338.047,478.387 338.029,478.298 337.939,478.281 C 337.939,478.239 337.922,478.214 337.927,478.168 C 337.809,478.062 337.769,477.876 337.692,477.733 C 337.665,477.685 337.616,477.65 337.597,477.602 C 337.541,477.464 337.609,477.271 337.52,477.15 C 337.542,477.024 337.563,476.838 337.516,476.727 C 337.573,476.697 337.561,476.659 337.573,476.585 C 337.591,476.473 337.711,476.406 337.662,476.262 C 337.682,476.239 337.722,476.235 337.744,476.215 C 337.796,476.023 337.968,475.951 337.986,475.726 C 338.089,475.69 338.145,475.618 338.239,475.556 C 338.334,475.492 338.457,475.496 338.55,475.437 C 338.574,475.424 338.588,475.393 338.609,475.38 C 338.649,475.356 338.703,475.356 338.745,475.339 C 338.789,475.318 338.827,475.279 338.873,475.26 C 338.99,475.217 339.127,475.258 339.239,475.178 C 339.31,475.203 339.356,475.141 339.416,475.138 C 339.455,475.136 339.496,475.164 339.533,475.166 C 339.746,475.187 339.967,475.077 340.204,475.096 C 340.211,475.086 340.257,475.086 340.263,475.096 C 340.354,475.104 340.408,475.073 340.482,475.067 C 340.587,475.061 340.701,475.075 340.787,475.038 C 340.953,475.084 341.197,475.053 341.365,475.096 C 341.421,475.015 341.529,475.12 341.599,475.073 C 341.618,475.125 341.655,475.159 341.728,475.156 C 341.754,475.16 341.795,475.148 341.81,475.162 C 341.894,475.165 341.976,475.233 342.047,475.178 C 342.092,475.251 342.148,475.251 342.252,475.26 C 342.29,475.265 342.324,475.273 342.358,475.279 C 342.429,475.291 342.514,475.291 342.576,475.314 C 342.65,475.342 342.676,475.418 342.764,475.397 C 342.831,475.441 342.9,475.482 343.018,475.473 C 343.143,475.576 343.318,475.628 343.406,475.768 C 343.403,475.788 343.39,475.799 343.395,475.826 C 343.425,475.822 343.43,475.843 343.453,475.845 C 343.469,476.005 343.597,476.119 343.594,476.292 C 343.592,476.424 343.522,476.517 343.512,476.655 L 343.512,476.721 L 343.512,476.732 C 343.497,476.748 343.471,476.753 343.464,476.779 C 343.459,476.815 343.479,476.876 343.448,476.886 C 343.413,476.902 343.395,476.953 343.411,477.002 C 343.354,477.092 343.231,477.117 343.136,477.168 C 343.132,477.225 343.085,477.258 343.095,477.31 C 343.027,477.318 342.991,477.377 342.924,477.374 C 342.869,477.371 342.842,477.328 342.788,477.315 C 342.676,477.359 342.628,477.251 342.501,477.239 C 342.425,477.23 342.339,477.246 342.27,477.239 C 342.216,477.233 342.168,477.209 342.123,477.239 C 342.072,477.216 341.995,477.199 341.922,477.216 C 341.84,477.137 341.696,477.174 341.551,477.145 C 341.496,477.133 341.44,477.093 341.393,477.091 C 341.348,477.089 341.311,477.12 341.27,477.126 C 341.179,477.14 341.118,477.085 341.04,477.091 C 341.017,477.093 340.994,477.113 340.975,477.115 C 340.895,477.125 340.871,477.076 340.811,477.085 C 340.8,477.095 340.751,477.095 340.74,477.085 C 340.681,477.078 340.644,477.095 340.593,477.097 C 340.569,477.095 340.575,477.065 340.547,477.068 C 340.169,477.095 339.748,477.077 339.469,477.204 C 339.574,477.3 339.569,477.508 339.705,477.574 C 339.673,477.659 339.785,477.682 339.751,477.769 C 339.858,477.861 339.909,478.011 340.01,478.11 C 340.007,478.275 340.149,478.297 340.163,478.445 C 340.194,478.455 340.225,478.466 340.245,478.486 C 340.25,478.516 340.228,478.52 340.234,478.552 C 340.332,478.631 340.34,478.802 340.452,478.869 C 340.452,478.99 340.553,479.01 340.575,479.11 C 340.612,479.121 340.638,479.142 340.681,479.146 C 340.709,479.146 340.697,479.106 340.729,479.11 C 340.757,479.153 340.79,479.188 340.863,479.187 C 340.901,479.19 340.954,479.178 340.982,479.192 C 341.048,479.187 341.062,479.229 341.117,479.251 C 341.244,479.303 341.417,479.266 341.482,479.352 C 341.506,479.355 341.521,479.347 341.54,479.346 C 341.56,479.386 341.64,479.4 341.682,479.368 C 341.745,479.412 341.809,479.427 341.894,479.439 C 341.972,479.451 342.074,479.441 342.147,479.469 C 342.194,479.488 342.237,479.543 342.306,479.551 C 342.353,479.558 342.393,479.552 342.441,479.528 C 342.477,479.553 342.514,479.576 342.582,479.57 C 342.647,479.685 342.878,479.634 342.946,479.746 C 343.021,479.765 343.06,479.818 343.141,479.829 C 343.182,479.928 343.308,479.939 343.376,480.012 L 343.424,480.012 C 343.499,480.109 343.628,480.153 343.718,480.234 C 343.75,480.355 343.823,480.436 343.877,480.535 C 343.86,480.562 343.865,480.614 343.865,480.657 C 343.869,480.681 343.906,480.671 343.906,480.699 C 343.895,480.738 343.84,480.734 343.835,480.781 C 343.877,480.795 343.902,480.824 343.936,480.846 C 343.923,480.903 343.906,480.959 343.877,480.999 C 343.925,481.025 343.904,481.083 343.924,481.135 C 343.941,481.176 343.979,481.198 343.983,481.24 C 343.987,481.304 343.937,481.342 343.93,481.411 C 343.855,481.455 343.814,481.525 343.689,481.505 C 343.661,481.502 343.618,481.512 343.6,481.5 L 343.577,481.5 C 343.54,481.512 343.477,481.502 343.43,481.505 L 343.336,481.505 C 343.317,481.502 343.284,481.512 343.277,481.5 C 343.225,481.509 343.172,481.486 343.117,481.494 C 343.093,481.498 343.077,481.516 343.053,481.517 C 343.004,481.518 342.937,481.48 342.876,481.464 C 342.814,481.447 342.743,481.432 342.682,481.428 C 342.605,481.423 342.549,481.456 342.501,481.452 C 342.466,481.45 342.44,481.421 342.406,481.411 C 342.321,481.384 342.221,481.415 342.129,481.399 C 342.075,481.391 342.027,481.349 341.97,481.334 C 341.88,481.312 341.792,481.324 341.706,481.306 L 341.611,481.306 C 341.544,481.31 341.477,481.312 341.424,481.328 C 341.42,481.363 341.443,481.37 341.447,481.399 C 341.398,481.447 341.38,481.496 341.399,481.589 C 341.409,481.596 341.409,481.644 341.399,481.652 C 341.4,481.77 341.369,481.857 341.365,481.971 L 341.365,482.04 C 341.367,482.087 341.373,482.129 341.388,482.164 C 341.387,482.199 341.34,482.187 341.335,482.217 C 341.342,482.25 341.386,482.244 341.388,482.283 C 341.325,482.353 341.278,482.44 341.241,482.535 C 341.269,482.554 341.305,482.564 341.299,482.618 C 341.212,482.646 341.185,482.734 341.147,482.812 C 340.999,482.819 340.949,482.997 340.994,483.142 C 340.903,483.189 340.916,483.329 340.829,483.377 C 340.785,483.4 340.744,483.39 340.711,483.418 C 340.656,483.467 340.657,483.536 340.587,483.584 C 340.571,483.599 340.516,483.578 340.5,483.594 Z M 319.083,485.719 L 325.727,485.719 C 325.746,485.681 325.763,485.641 325.762,485.584 L 325.762,485.524 C 325.757,485.397 325.74,485.235 325.798,485.153 C 325.758,485.101 325.768,484.998 325.739,484.936 C 325.793,484.879 325.772,484.818 325.767,484.718 C 325.766,484.691 325.778,484.655 325.774,484.636 C 325.765,484.598 325.716,484.584 325.71,484.554 C 325.703,484.524 325.725,484.493 325.72,484.459 C 325.716,484.411 325.685,484.4 325.662,484.366 C 325.664,484.266 325.632,484.199 325.591,484.142 C 325.562,484.117 325.534,484.09 325.509,484.059 C 325.425,484.027 325.516,483.972 325.516,483.925 C 325.514,483.867 325.384,483.801 325.462,483.706 C 325.404,483.666 325.361,483.611 325.356,483.518 C 325.279,483.476 325.276,483.359 325.226,483.288 C 325.218,483.25 325.25,483.253 325.255,483.231 C 325.145,483.112 325.108,482.919 325.056,482.741 C 325.017,482.718 324.955,482.65 324.944,482.6 C 324.94,482.577 324.95,482.551 324.944,482.53 C 324.936,482.493 324.881,482.447 324.862,482.394 C 324.828,482.307 324.853,482.208 324.826,482.153 C 324.798,482.094 324.636,482.046 324.757,481.994 C 324.734,481.937 324.679,481.921 324.668,481.852 C 324.664,481.827 324.682,481.791 324.674,481.765 C 324.665,481.731 324.618,481.727 324.621,481.693 C 324.606,481.678 324.624,481.631 324.603,481.622 C 324.484,481.484 324.545,481.162 324.379,481.07 C 324.377,481.054 324.403,481.034 324.385,481.022 C 324.34,480.957 324.338,480.862 324.303,480.781 C 324.279,480.727 324.246,480.685 324.227,480.635 C 324.213,480.613 324.224,480.566 324.221,480.535 C 324.192,480.507 324.167,480.475 324.115,480.469 C 324.139,480.38 324.081,480.33 324.044,480.282 C 324.076,480.19 324.005,480.114 323.986,480.034 C 323.977,480.002 323.993,479.966 323.986,479.935 C 323.981,479.915 323.956,479.887 323.944,479.863 C 323.902,479.783 323.891,479.679 323.82,479.634 C 323.861,479.566 323.825,479.459 323.749,479.451 C 323.774,479.417 323.769,479.354 323.779,479.305 C 323.731,479.284 323.669,479.276 323.632,479.245 C 323.632,479.204 323.654,479.161 323.65,479.122 C 323.647,479.09 323.624,479.072 323.614,479.04 C 323.597,478.982 323.613,478.899 323.562,478.869 C 323.631,478.724 323.466,478.642 323.45,478.533 C 323.444,478.493 323.46,478.455 323.456,478.422 C 323.446,478.343 323.347,478.303 323.374,478.198 C 323.362,478.179 323.343,478.169 323.326,478.156 C 323.351,478.013 323.242,477.953 323.197,477.862 C 323.198,477.825 323.216,477.806 323.22,477.774 C 323.139,477.696 323.166,477.557 323.108,477.462 C 323.09,477.432 323.057,477.417 323.044,477.385 C 322.991,477.269 323.037,477.109 322.925,477.038 C 322.943,476.944 322.865,476.915 322.844,476.868 C 322.825,476.825 322.831,476.787 322.844,476.727 C 322.816,476.693 322.797,476.658 322.779,476.62 C 322.758,476.578 322.756,476.534 322.737,476.49 C 322.724,476.462 322.692,476.438 322.679,476.41 C 322.645,476.335 322.658,476.251 322.638,476.174 C 322.625,476.129 322.592,476.103 322.572,476.061 C 322.556,476.026 322.554,475.983 322.543,475.945 C 322.512,475.831 322.457,475.731 322.408,475.638 C 322.402,475.603 322.433,475.607 322.432,475.58 C 322.423,475.555 322.396,475.553 322.39,475.526 C 322.383,475.498 322.406,475.449 322.402,475.414 C 322.398,475.374 322.373,475.342 322.372,475.303 C 322.371,475.252 322.375,475.188 322.384,475.144 C 322.394,475.096 322.434,475.04 322.449,474.979 C 322.479,474.86 322.493,474.755 322.579,474.714 L 322.579,474.66 C 322.597,474.65 322.622,474.646 322.638,474.631 C 322.633,474.576 322.664,474.557 322.661,474.502 C 322.716,474.484 322.745,474.441 322.774,474.395 C 322.882,474.387 322.974,474.261 323.108,474.285 C 323.138,474.29 323.164,474.322 323.202,474.343 C 323.221,474.353 323.264,474.355 323.279,474.368 C 323.316,474.397 323.328,474.471 323.326,474.526 C 323.36,474.524 323.388,474.527 323.408,474.538 C 323.444,474.617 323.434,474.741 323.532,474.755 C 323.527,474.84 323.602,474.89 323.614,474.949 C 323.622,474.989 323.61,475.038 323.609,475.078 C 323.608,475.116 323.59,475.168 323.597,475.203 C 323.602,475.229 323.654,475.266 323.673,475.303 C 323.743,475.425 323.745,475.591 323.838,475.679 C 323.851,475.69 323.84,475.728 323.843,475.75 C 323.874,475.786 323.901,475.828 323.939,475.857 C 323.92,475.913 323.922,475.975 323.944,476.044 C 323.961,476.098 324.008,476.145 324.033,476.204 C 324.103,476.381 324.12,476.618 324.279,476.697 C 324.305,476.699 324.325,476.671 324.356,476.673 C 324.392,476.675 324.411,476.721 324.444,476.732 C 324.478,476.742 324.525,476.736 324.562,476.744 C 324.675,476.764 324.778,476.819 324.85,476.862 C 324.878,476.989 324.989,477.032 324.991,477.185 C 325.143,477.212 325.134,477.401 325.292,477.421 C 325.345,477.558 325.503,477.59 325.633,477.65 C 325.657,477.67 325.674,477.64 325.704,477.644 C 325.718,477.678 325.741,477.701 325.733,477.757 C 325.803,477.786 325.835,477.869 325.899,477.91 C 325.944,477.94 325.999,477.957 326.045,477.986 C 326.137,478.044 326.229,478.118 326.322,478.168 C 326.373,478.197 326.432,478.204 326.487,478.233 C 326.491,478.236 326.495,478.236 326.499,478.239 C 326.568,478.299 326.638,478.371 326.734,478.392 C 326.759,478.39 326.736,478.34 326.75,478.327 C 326.811,478.274 326.89,478.199 326.809,478.116 C 326.855,478.035 326.93,477.916 326.88,477.797 C 326.901,477.769 326.931,477.749 326.922,477.691 C 326.959,477.674 326.995,477.655 327.023,477.627 C 327.023,477.526 327.055,477.424 327.087,477.328 C 327.136,477.168 327.149,477.011 327.257,476.932 C 327.273,476.783 327.38,476.661 327.44,476.55 C 327.464,476.506 327.47,476.458 327.492,476.415 C 327.505,476.39 327.532,476.379 327.545,476.356 C 327.573,476.313 327.6,476.225 327.592,476.174 C 327.63,476.117 327.742,476.087 327.77,476.033 C 327.812,475.947 327.874,475.856 327.906,475.756 C 328.004,475.74 328.076,475.694 328.105,475.608 C 328.215,475.611 328.277,475.53 328.376,475.55 C 328.443,475.564 328.464,475.659 328.553,475.65 C 328.624,475.74 328.666,475.863 328.723,475.968 C 328.729,476.026 328.681,476.092 328.67,476.15 C 328.659,476.206 328.664,476.269 328.646,476.332 C 328.62,476.424 328.579,476.501 328.628,476.556 C 328.599,476.675 328.531,476.783 328.5,476.898 C 328.487,476.942 328.492,476.986 328.482,477.038 C 328.468,477.108 328.388,477.157 328.399,477.239 C 328.331,477.288 328.298,477.411 328.329,477.521 C 328.281,477.583 328.302,477.712 328.269,477.804 C 328.252,477.855 328.213,477.872 328.192,477.91 C 328.224,477.971 328.178,478.025 328.175,478.08 C 328.175,478.106 328.189,478.136 328.188,478.163 C 328.178,478.291 328.062,478.402 328.117,478.569 C 328.068,478.648 328.058,478.765 328.064,478.899 C 328.074,478.936 328.074,479.014 328.064,479.052 C 328.046,479.246 328.23,479.279 328.305,479.399 C 328.348,479.405 328.386,479.445 328.435,479.427 C 328.523,479.538 328.618,479.632 328.741,479.698 C 328.783,479.723 328.834,479.732 328.875,479.758 C 328.928,479.789 328.969,479.857 329.017,479.899 C 329.072,479.948 329.124,479.979 329.181,480.017 C 329.28,479.988 329.319,480.072 329.381,480.122 C 329.484,480.206 329.566,480.263 329.67,480.329 C 329.722,480.362 329.786,480.38 329.834,480.417 C 329.894,480.461 329.932,480.529 329.999,480.57 C 330.071,480.614 330.141,480.637 330.211,480.675 C 330.216,480.617 330.235,480.576 330.199,480.523 C 330.186,480.503 330.236,480.442 330.235,480.417 C 330.235,480.389 330.208,480.361 330.199,480.329 C 330.172,480.225 330.189,480.099 330.171,479.999 C 330.146,479.861 330.07,479.726 330.111,479.588 C 330.096,479.552 330.073,479.527 330.077,479.475 C 330.067,479.447 330.067,479.379 330.077,479.352 C 330.104,479.259 330.035,479.263 330.023,479.198 C 330.017,479.162 330.023,479.156 330.053,479.11 C 330.005,479.022 329.996,478.897 329.999,478.757 L 329.999,478.674 C 329.999,478.576 329.984,478.495 329.953,478.428 C 329.976,478.344 329.988,478.25 329.988,478.145 C 329.992,478.106 329.98,478.051 329.994,478.021 C 329.972,477.912 330.032,477.872 330.059,477.809 C 330.113,477.674 330.098,477.476 330.159,477.362 C 330.107,477.205 330.249,477.15 330.294,477.05 C 330.253,476.923 330.324,476.83 330.352,476.738 C 330.452,476.659 330.552,476.58 330.647,476.497 C 330.663,476.455 330.672,476.424 330.694,476.391 C 330.725,476.348 330.785,476.331 330.794,476.268 C 330.833,476.226 330.903,476.215 330.918,476.15 C 331.025,476.145 331.101,476.03 331.182,476.014 C 331.217,476.009 331.254,476.027 331.289,476.014 C 331.358,475.991 331.363,475.902 331.407,475.85 C 331.432,476.02 331.648,475.915 331.772,475.939 L 331.847,475.939 C 332.225,475.903 332.417,476.103 332.69,476.192 C 332.708,476.293 332.823,476.297 332.883,476.356 C 332.957,476.555 333.165,476.619 333.307,476.75 C 333.426,476.728 333.431,476.822 333.425,476.927 C 333.44,476.977 333.488,476.991 333.513,477.032 C 333.605,477.109 333.688,477.194 333.784,477.267 C 333.784,477.302 333.797,477.322 333.801,477.351 C 333.829,477.378 333.886,477.39 333.925,477.421 C 333.952,477.444 333.976,477.49 334.007,477.515 C 334.065,477.56 334.13,477.589 334.102,477.681 C 334.178,477.7 334.204,477.904 334.284,477.91 C 334.406,477.918 334.313,477.743 334.326,477.65 C 334.332,477.603 334.369,477.586 334.372,477.562 C 334.378,477.517 334.343,477.503 334.343,477.48 C 334.347,477.444 334.391,477.445 334.401,477.415 C 334.406,477.384 334.394,477.336 334.408,477.315 C 334.41,477.19 334.446,477.103 334.503,477.032 C 334.491,477.02 334.498,476.989 334.496,476.968 C 334.516,476.925 334.56,476.906 334.59,476.874 C 334.613,476.752 334.689,476.683 334.737,476.585 C 334.843,476.632 334.956,476.511 335.014,476.509 C 335.048,476.507 335.09,476.539 335.102,476.585 C 335.141,476.548 335.19,476.591 335.243,476.591 C 335.291,476.657 335.343,476.719 335.438,476.738 C 335.464,476.794 335.509,476.828 335.556,476.862 C 335.551,477.045 335.673,477.107 335.697,477.245 C 335.702,477.277 335.687,477.31 335.697,477.356 C 335.703,477.389 335.723,477.385 335.737,477.415 C 335.713,477.588 335.81,477.688 335.861,477.804 C 335.867,477.831 335.823,477.839 335.843,477.862 C 335.866,478.052 335.954,478.176 335.968,478.375 C 335.981,478.402 335.97,478.455 335.974,478.492 C 335.993,478.527 336.018,478.561 336.002,478.616 C 336.103,478.707 336.042,478.878 336.079,479.004 C 336.089,479.04 336.131,479.069 336.138,479.104 C 336.149,479.161 336.125,479.2 336.121,479.251 C 336.113,479.329 336.129,479.407 336.144,479.475 C 336.159,479.542 336.2,479.61 336.202,479.663 C 336.204,479.69 336.179,479.723 336.178,479.752 C 336.177,479.831 336.236,479.88 336.25,479.945 C 336.275,480.06 336.176,480.213 336.267,480.299 C 336.239,480.372 336.265,480.462 336.297,480.511 C 336.265,480.552 336.224,480.767 336.256,480.852 C 336.267,480.884 336.302,480.885 336.326,480.894 C 336.315,480.94 336.288,480.971 336.285,481.016 C 336.283,481.048 336.302,481.079 336.303,481.111 C 336.307,481.265 336.138,481.376 336.197,481.558 C 336.123,481.624 336.005,481.719 336.068,481.864 C 336.033,481.9 335.955,481.904 335.98,481.982 C 335.905,482.04 335.815,482.084 335.803,482.205 C 335.763,482.255 335.704,482.285 335.715,482.383 C 335.695,482.395 335.649,482.393 335.62,482.405 C 335.59,482.419 335.561,482.451 335.532,482.476 C 335.5,482.502 335.472,482.522 335.432,482.541 C 335.373,482.569 335.224,482.632 335.155,482.6 C 335.062,482.557 334.973,482.457 334.955,482.317 C 334.867,482.288 334.849,482.193 334.767,482.159 C 334.736,481.927 334.549,481.851 334.531,481.604 C 334.485,481.565 334.433,481.505 334.461,481.411 C 334.385,481.271 334.32,481.121 334.207,481.016 C 334.198,480.908 334.126,480.862 334.049,480.822 C 334.054,480.767 334.017,480.738 334.037,480.687 C 333.934,480.591 333.909,480.437 333.836,480.323 C 333.814,480.288 333.769,480.262 333.748,480.222 C 333.733,480.195 333.733,480.16 333.72,480.134 C 333.66,480.033 333.547,479.962 333.549,479.81 C 333.32,479.678 333.226,479.41 333.048,479.228 C 333.015,479.199 332.983,479.167 332.954,479.134 C 332.94,479.083 332.913,479.046 332.895,478.997 C 332.864,478.991 332.85,478.97 332.812,478.97 C 332.769,478.884 332.738,478.786 332.63,478.763 C 332.604,478.696 332.557,478.652 332.514,478.604 C 332.452,478.611 332.438,478.569 332.378,478.574 C 332.348,478.529 332.341,478.462 332.277,478.451 L 332.277,478.381 C 332.201,478.322 332.123,478.228 332.048,478.168 C 332.018,478.145 331.98,478.133 331.954,478.11 C 331.923,478.081 331.915,478.034 331.877,478.015 C 331.802,477.976 331.689,478.001 331.595,477.986 C 331.565,478.03 331.598,478.054 331.595,478.104 C 331.591,478.141 331.554,478.165 331.554,478.203 C 331.553,478.245 331.596,478.291 331.6,478.345 C 331.604,478.377 331.586,478.415 331.589,478.445 C 331.591,478.47 331.618,478.5 331.625,478.533 C 331.632,478.579 331.61,478.633 331.618,478.674 C 331.626,478.711 331.665,478.735 331.671,478.768 C 331.683,478.828 331.642,478.884 331.642,478.94 C 331.643,478.974 331.675,478.999 331.677,479.028 C 331.68,479.07 331.644,479.083 331.659,479.122 C 331.682,479.161 331.758,479.149 331.765,479.198 C 331.772,479.243 331.74,479.23 331.731,479.274 C 331.799,479.307 331.727,479.408 331.741,479.457 C 331.766,479.534 331.798,479.602 331.813,479.686 C 331.827,479.776 331.813,479.873 331.829,479.97 C 331.836,480.006 331.869,480.03 331.877,480.069 C 331.885,480.114 331.868,480.162 331.877,480.21 C 331.881,480.231 331.904,480.253 331.908,480.275 C 331.915,480.328 331.9,480.384 331.908,480.44 C 331.923,480.59 331.985,480.753 331.995,480.894 C 331.997,480.923 331.99,480.957 331.995,480.987 C 332.002,481.031 332.051,481.066 332.042,481.111 C 332.052,481.135 332.052,481.199 332.042,481.223 C 332.053,481.253 332.085,481.279 332.089,481.317 C 332.094,481.39 332.023,481.461 332.036,481.547 C 332.04,481.575 332.07,481.601 332.078,481.629 C 332.113,481.762 332.036,481.884 332.06,482.028 C 332.053,482.053 332.021,482.06 332.012,482.094 C 332,482.139 332.008,482.183 332,482.217 C 331.986,482.294 331.959,482.363 331.918,482.405 C 331.898,482.428 331.861,482.436 331.835,482.464 C 331.792,482.518 331.764,482.601 331.725,482.665 C 331.683,482.73 331.647,482.79 331.571,482.829 C 331.574,482.865 331.551,482.885 331.571,482.906 C 331.464,482.969 331.408,483.084 331.336,483.183 C 331.213,483.159 331.214,483.261 331.153,483.3 C 331.099,483.286 331.006,483.265 330.97,483.313 C 330.874,483.249 330.75,483.216 330.6,483.206 C 330.521,483.074 330.42,482.963 330.253,482.917 C 330.193,482.801 330.057,482.761 329.906,482.735 C 329.875,482.704 329.872,482.666 329.846,482.634 C 329.781,482.555 329.668,482.524 329.605,482.441 C 329.385,482.391 329.303,482.202 329.087,482.147 C 329.063,482.127 329.042,482.107 329.023,482.082 C 328.956,482.046 328.932,481.965 328.823,481.971 C 328.767,481.922 328.701,481.854 328.64,481.817 C 328.604,481.794 328.565,481.782 328.529,481.758 C 328.461,481.712 328.396,481.655 328.329,481.611 C 328.291,481.587 328.244,481.577 328.211,481.553 C 328.173,481.523 328.161,481.479 328.129,481.458 C 328.087,481.431 328.031,481.434 327.982,481.406 C 327.943,481.383 327.915,481.308 327.851,481.346 C 327.817,481.37 327.841,481.424 327.833,481.464 C 327.827,481.504 327.8,481.531 327.793,481.564 C 327.877,481.707 327.768,481.894 327.781,482.053 C 327.772,482.078 327.747,482.087 327.74,482.112 C 327.73,482.144 327.741,482.182 327.735,482.21 C 327.718,482.276 327.683,482.308 327.68,482.365 C 327.678,482.419 327.705,482.47 327.705,482.547 C 327.705,482.623 327.667,482.694 327.646,482.759 C 327.655,482.786 327.675,482.805 327.669,482.847 C 327.679,482.854 327.679,482.9 327.669,482.906 C 327.67,482.962 327.634,482.987 327.616,483.024 C 327.572,483.117 327.531,483.267 327.564,483.407 C 327.57,483.436 327.592,483.456 327.598,483.495 C 327.612,483.57 327.572,483.611 327.557,483.676 C 327.521,483.845 327.64,484.051 327.529,484.19 C 327.555,484.293 327.59,484.39 327.652,484.459 C 327.644,484.511 327.686,484.543 327.663,484.589 C 327.757,484.696 327.778,484.874 327.912,484.943 C 327.914,484.963 327.918,484.984 327.916,485.012 C 327.937,485.03 327.978,485.034 327.987,485.065 C 327.998,485.099 327.966,485.139 327.969,485.171 C 327.973,485.202 328.01,485.23 328.016,485.26 C 328.049,485.412 327.945,485.563 327.946,485.719 L 352.105,485.719 C 352.086,485.674 352.072,485.625 352.034,485.601 C 352.025,485.528 352.002,485.468 351.951,485.436 C 351.978,485.357 351.937,485.307 351.916,485.241 C 351.902,485.202 351.898,485.155 351.886,485.119 C 351.872,485.074 351.829,485.036 351.839,484.983 C 351.829,484.973 351.829,484.923 351.839,484.913 C 351.843,484.809 351.872,484.729 351.898,484.648 C 351.91,484.638 351.929,484.635 351.939,484.626 C 351.948,484.601 351.947,484.568 351.958,484.547 C 351.992,484.559 352.026,484.537 352.081,484.537 C 352.088,484.475 352.138,484.456 352.193,484.443 C 352.221,484.394 352.237,484.334 352.293,484.313 C 352.298,484.249 352.353,484.221 352.363,484.16 C 352.37,484.116 352.346,484.07 352.363,484.024 C 352.386,483.964 352.546,483.925 352.482,483.807 C 352.574,483.773 352.617,483.69 352.693,483.642 C 352.707,483.613 352.697,483.561 352.717,483.536 C 352.754,483.52 352.818,483.51 352.857,483.53 C 352.891,483.508 352.931,483.495 352.988,483.495 C 353,483.485 353.052,483.485 353.064,483.495 C 353.213,483.491 353.358,483.588 353.488,483.53 C 353.615,483.571 353.704,483.652 353.852,483.671 C 353.888,483.7 353.903,483.737 353.946,483.76 C 354.055,483.818 354.219,483.806 354.294,483.901 C 354.309,483.915 354.328,483.901 354.346,483.901 C 354.405,483.952 354.481,483.99 354.529,484.054 C 354.651,484.036 354.642,484.149 354.735,484.16 C 354.753,484.196 354.773,484.231 354.817,484.242 C 354.827,484.342 354.919,484.344 354.982,484.396 C 355.035,484.44 355.033,484.519 355.11,484.519 C 355.14,484.55 355.15,484.602 355.199,484.614 C 355.207,484.64 355.231,484.652 355.235,484.683 C 355.286,484.693 355.31,484.729 355.358,484.742 C 355.365,484.809 355.425,484.822 355.43,484.89 C 355.556,484.971 355.606,485.166 355.647,485.348 C 355.662,485.412 355.693,485.479 355.695,485.531 C 355.695,485.564 355.67,485.593 355.671,485.618 C 355.672,485.657 355.712,485.679 355.689,485.719 L 375.767,485.719 C 376.067,485.687 376.285,485.577 376.463,485.424 C 376.492,485.391 376.523,485.359 376.557,485.33 C 376.709,485.152 376.82,484.934 376.851,484.636 L 376.851,473.508 C 371.294,473.521 365.715,473.51 360.149,473.514 C 360.202,473.636 360.169,473.779 360.196,473.931 C 360.21,473.94 360.199,473.971 360.202,473.99 L 360.202,474.066 L 360.202,474.202 C 360.2,474.338 360.223,474.447 360.267,474.538 C 360.251,474.589 360.255,474.654 360.279,474.696 C 360.242,474.879 360.26,475.053 360.285,475.232 C 360.312,475.426 360.38,475.683 360.332,475.861 L 360.332,475.927 C 360.344,476.1 360.444,476.268 360.385,476.457 C 360.422,476.539 360.473,476.611 360.526,476.679 C 360.555,476.703 360.58,476.728 360.603,476.755 C 360.67,476.794 360.733,476.891 360.825,476.85 C 360.894,476.886 360.941,476.961 361.02,476.98 C 361.046,476.985 361.081,476.973 361.109,476.98 C 361.149,476.989 361.211,477.053 361.261,477.085 C 361.38,477.161 361.478,477.205 361.614,477.249 C 361.685,477.273 361.759,477.282 361.82,477.304 C 361.887,477.326 361.949,477.392 362.033,477.38 C 362.213,477.529 362.512,477.559 362.703,477.697 C 362.751,477.654 362.826,477.62 362.792,477.527 C 362.883,477.437 363.03,477.404 363.069,477.261 C 363.156,477.259 363.195,477.209 363.209,477.133 C 363.408,477.111 363.463,476.937 363.621,476.88 C 363.65,476.869 363.684,476.867 363.716,476.856 C 363.768,476.838 363.809,476.798 363.863,476.774 C 363.902,476.755 363.949,476.767 363.986,476.755 C 364.028,476.743 364.048,476.708 364.086,476.685 C 364.123,476.663 364.172,476.653 364.21,476.632 C 364.251,476.61 364.282,476.564 364.316,476.556 L 364.386,476.556 C 364.542,476.548 364.653,476.497 364.757,476.438 C 364.839,476.457 364.91,476.422 364.957,476.385 C 364.981,476.392 364.991,476.412 365.022,476.41 C 365.051,476.398 365.051,476.36 365.076,476.344 C 365.382,476.363 365.662,476.321 365.964,476.303 C 365.976,476.294 366.029,476.294 366.04,476.303 C 366.242,476.301 366.436,476.363 366.623,476.363 C 366.66,476.363 366.702,476.344 366.74,476.351 C 366.773,476.355 366.804,476.39 366.84,476.403 C 366.901,476.424 366.975,476.421 367.046,476.426 C 367.127,476.434 367.183,476.515 367.264,476.509 C 367.29,476.513 367.331,476.501 367.347,476.515 C 367.405,476.517 367.429,476.566 367.483,476.591 C 367.56,476.628 367.673,476.623 367.742,476.649 C 367.791,476.669 367.83,476.72 367.882,476.738 C 367.932,476.755 367.99,476.754 368.041,476.774 C 368.101,476.795 368.132,476.87 368.223,476.85 C 368.359,476.953 368.583,476.965 368.701,477.085 C 368.782,477.055 368.823,477.154 368.895,477.115 C 368.964,477.163 369.015,477.23 369.137,477.226 C 369.257,477.334 369.444,477.418 369.612,477.492 C 369.696,477.528 369.778,477.594 369.859,477.55 C 369.957,477.602 370.061,477.68 370.178,477.691 C 370.219,477.673 370.241,477.633 370.237,477.568 C 370.276,477.531 370.325,477.507 370.325,477.438 C 370.324,477.391 370.269,477.367 370.278,477.328 C 370.284,477.3 370.355,477.267 370.373,477.239 C 370.391,477.207 370.39,477.153 370.413,477.097 C 370.428,477.062 370.463,477.045 370.472,477.014 C 370.5,476.919 370.475,476.804 370.56,476.744 C 370.585,476.714 370.613,476.687 370.642,476.661 C 370.713,476.626 370.741,476.505 370.83,476.468 C 370.872,476.45 370.933,476.456 370.995,476.45 C 371.118,476.439 371.367,476.402 371.467,476.445 C 371.492,476.456 371.515,476.497 371.542,476.52 C 371.628,476.592 371.764,476.64 371.772,476.761 C 371.829,476.752 371.833,476.795 371.884,476.792 C 371.905,476.905 371.923,477.024 371.92,477.162 C 371.93,477.191 371.93,477.261 371.92,477.292 C 371.922,477.491 371.895,477.685 371.866,477.845 C 371.858,477.885 371.895,477.904 371.895,477.94 C 371.896,478 371.841,478.06 371.825,478.11 C 371.879,478.164 371.831,478.243 371.831,478.298 C 371.831,478.348 371.87,478.347 371.884,478.392 C 371.834,478.451 371.878,478.504 371.872,478.574 C 371.868,478.618 371.848,478.621 371.837,478.656 C 371.823,478.705 371.827,478.776 371.807,478.839 C 371.776,478.942 371.718,479.022 371.801,479.052 C 371.754,479.136 371.764,479.291 371.796,479.387 C 371.783,479.417 371.754,479.43 371.749,479.475 C 371.746,479.511 371.759,479.549 371.778,479.575 C 371.696,479.7 371.791,479.935 371.737,480.082 C 371.753,480.13 371.773,480.163 371.778,480.217 C 371.784,480.275 371.759,480.338 371.766,480.388 C 371.769,480.415 371.803,480.444 371.813,480.476 C 371.84,480.558 371.828,480.624 371.796,480.699 C 371.842,480.756 371.785,480.861 371.801,480.952 C 371.809,480.993 371.849,481.013 371.854,481.052 C 371.866,481.131 371.81,481.177 371.86,481.211 C 371.907,481.242 371.987,481.159 372.037,481.14 C 372.091,481.166 372.119,481.22 372.149,481.27 C 372.15,481.312 372.083,481.313 372.097,481.346 C 372.137,481.361 372.207,481.408 372.243,481.358 C 372.313,481.427 372.407,481.472 372.472,481.547 C 372.491,481.554 372.51,481.56 372.539,481.558 C 372.553,481.654 372.628,481.692 372.673,481.758 C 372.633,481.91 372.615,482.086 372.554,482.217 C 372.578,482.256 372.604,482.343 372.567,482.388 C 372.565,482.421 372.606,482.411 372.602,482.447 C 372.574,482.539 372.556,482.64 372.539,482.741 C 372.529,482.761 372.492,482.755 372.485,482.777 C 372.41,482.932 372.25,483.001 372.09,483.07 C 372.093,483.223 371.898,483.327 371.784,483.219 C 371.753,483.241 371.722,483.282 371.666,483.3 C 371.595,483.325 371.453,483.345 371.378,483.329 C 371.32,483.318 371.298,483.235 371.231,483.253 C 371.12,483.115 371.033,482.954 370.866,482.871 C 370.859,482.832 370.887,482.829 370.89,482.801 C 370.863,482.784 370.846,482.758 370.848,482.712 C 370.663,482.633 370.62,482.393 370.496,482.217 C 370.476,482.191 370.492,482.094 370.484,482.053 C 370.457,481.925 370.402,481.776 370.402,481.629 C 370.402,481.575 370.361,481.562 370.355,481.517 C 370.335,481.394 370.41,481.266 370.337,481.163 C 370.398,481.076 370.348,480.977 370.349,480.888 C 370.349,480.854 370.376,480.825 370.377,480.794 C 370.378,480.762 370.351,480.731 370.349,480.699 C 370.343,480.622 370.382,480.549 370.373,480.464 L 370.373,480.37 C 370.364,480.168 370.337,479.985 370.325,479.787 C 370.227,479.72 370.074,479.708 369.995,479.622 C 369.973,479.637 369.964,479.642 369.942,479.641 C 369.889,479.637 369.812,479.59 369.754,479.57 C 369.681,479.546 369.608,479.54 369.542,479.516 C 369.492,479.499 369.444,479.446 369.388,479.416 C 369.222,479.325 369.005,479.265 368.883,479.158 C 368.848,479.164 368.801,479.168 368.766,479.152 C 368.726,479.133 368.711,479.088 368.677,479.074 C 368.621,479.051 368.552,479.061 368.477,479.04 C 368.423,479.025 368.374,478.991 368.318,478.975 C 368.261,478.958 368.202,478.945 368.165,478.904 C 368.099,478.904 368.063,478.878 368.024,478.851 C 367.934,478.871 367.894,478.789 367.829,478.768 C 367.806,478.761 367.781,478.767 367.758,478.763 C 367.718,478.754 367.673,478.718 367.629,478.698 C 367.49,478.635 367.353,478.583 367.164,478.574 C 367.124,478.54 367.101,478.515 367.059,478.498 C 367.013,478.48 366.944,478.494 366.905,478.48 C 366.878,478.47 366.86,478.426 366.834,478.416 C 366.784,478.395 366.708,478.4 366.641,478.385 C 366.579,478.374 366.52,478.358 366.459,478.345 C 366.335,478.319 366.177,478.274 366.064,478.291 C 366.033,478.297 366.005,478.325 365.976,478.327 C 365.921,478.333 365.873,478.292 365.823,478.281 C 365.547,478.353 365.163,478.319 364.963,478.468 C 364.827,478.441 364.766,478.534 364.669,478.563 C 364.711,478.662 364.841,478.672 364.94,478.716 C 365.003,478.744 365.028,478.837 365.134,478.81 C 365.149,478.837 365.153,478.874 365.175,478.893 C 365.274,478.884 365.257,478.991 365.358,478.982 C 365.398,479.006 365.412,479.057 365.452,479.081 C 365.467,479.086 365.488,479.087 365.512,479.086 C 365.543,479.188 365.647,479.218 365.705,479.293 L 365.775,479.293 C 365.84,479.361 365.867,479.467 365.993,479.475 C 366.049,479.54 366.083,479.625 366.128,479.698 C 366.289,479.74 366.353,479.879 366.399,480.034 C 366.457,480.063 366.471,480.131 366.482,480.204 C 366.496,480.228 366.521,480.241 366.534,480.263 C 366.585,480.328 366.632,480.384 366.664,480.469 C 366.696,480.558 366.674,480.662 366.681,480.769 C 366.696,480.977 366.737,481.221 366.67,481.394 C 366.781,481.535 366.555,481.624 366.617,481.788 C 366.571,481.85 366.455,481.927 366.53,482.034 C 366.515,482.064 366.485,482.102 366.499,482.141 C 366.441,482.23 366.34,482.306 366.365,482.459 C 366.307,482.541 366.143,482.603 366.141,482.723 C 366.139,482.763 366.179,482.767 366.176,482.823 C 366.121,482.849 366.079,482.785 366.029,482.794 C 365.989,482.803 365.978,482.847 365.958,482.889 C 365.898,482.887 365.894,482.942 365.829,482.936 C 365.765,483.092 365.52,483.07 365.364,483.136 C 365.321,483.112 365.232,483.134 365.181,483.118 C 365.149,483.108 365.194,483.079 365.175,483.065 C 365.038,483.033 364.882,482.924 364.722,482.988 C 364.647,482.936 364.558,482.87 364.433,482.889 C 364.384,482.863 364.35,482.823 364.287,482.812 C 364.133,482.676 363.88,482.64 363.722,482.512 C 363.659,482.522 363.628,482.499 363.603,482.47 C 363.584,482.47 363.6,482.506 363.58,482.506 C 363.566,482.481 363.558,482.449 363.563,482.405 C 363.489,482.384 363.447,482.316 363.386,482.27 C 363.286,482.195 363.158,482.143 363.132,482.006 C 362.98,481.906 362.923,481.708 362.785,481.593 C 362.763,481.587 362.779,481.542 362.773,481.517 C 362.674,481.455 362.674,481.331 362.627,481.229 C 362.611,481.194 362.567,481.173 362.551,481.14 C 362.526,481.096 362.508,481.029 362.485,480.97 C 362.42,480.8 362.373,480.59 362.327,480.423 C 362.315,480.382 362.259,480.375 362.274,480.323 L 362.274,480.234 C 362.266,479.939 362.163,479.682 362.204,479.375 C 362.143,479.272 362.019,479.234 361.933,479.158 C 361.779,479.172 361.754,479.057 361.62,479.052 C 361.496,478.93 361.288,478.894 361.144,478.793 C 361.121,478.802 361.094,478.806 361.062,478.804 C 361.03,478.743 360.983,478.698 360.897,478.692 L 360.838,478.692 C 360.768,478.691 360.82,478.734 360.843,478.751 C 360.87,478.772 360.893,478.796 360.914,478.821 C 360.943,478.859 360.971,478.899 360.974,478.963 C 361.034,479.01 361.071,479.082 361.127,479.134 C 361.087,479.243 361.182,479.288 361.238,479.375 C 361.276,479.435 361.307,479.515 361.303,479.61 C 361.301,479.656 361.364,479.728 361.386,479.781 C 361.411,479.85 361.405,479.921 361.421,479.987 C 361.431,480.028 361.453,480.06 361.462,480.099 C 361.491,480.239 361.464,480.373 361.526,480.499 C 361.512,480.539 361.496,480.579 361.497,480.635 L 361.497,480.711 C 361.49,480.894 361.488,481.032 361.438,481.163 C 361.41,481.239 361.329,481.3 361.35,481.406 C 361.359,481.44 361.359,481.517 361.35,481.553 C 361.338,481.587 361.307,481.605 361.297,481.652 C 361.282,481.719 361.299,481.795 361.332,481.841 C 361.277,481.91 361.222,481.977 361.214,482.094 C 361.22,482.171 361.159,482.182 361.127,482.222 C 361.094,482.27 361.052,482.31 361.014,482.359 C 360.981,482.403 360.928,482.454 360.909,482.5 C 360.901,482.519 360.895,482.536 360.903,482.559 C 360.845,482.591 360.791,482.624 360.738,482.658 C 360.712,482.72 360.671,482.766 360.632,482.812 C 360.607,482.842 360.58,482.869 360.551,482.894 C 360.514,482.934 360.459,482.928 360.396,482.954 C 360.338,482.978 360.283,483.043 360.209,483.065 C 360.102,483.096 359.94,483.088 359.825,483.106 C 359.785,483.112 359.735,483.139 359.708,483.136 C 359.673,483.132 359.673,483.101 359.643,483.106 C 359.577,483.115 359.55,483.161 359.479,483.164 C 359.471,483.112 359.532,483.129 359.531,483.082 C 359.452,483.06 359.373,483.038 359.284,483.017 C 359.2,482.999 359.092,482.999 359.013,482.977 C 358.963,482.962 358.921,482.897 358.86,482.93 C 358.769,482.868 358.682,482.817 358.571,482.794 C 358.523,482.784 358.47,482.733 358.424,482.712 C 358.325,482.666 358.212,482.636 358.12,482.594 C 358.072,482.572 358.038,482.536 357.99,482.512 C 357.948,482.49 357.898,482.484 357.854,482.464 C 357.729,482.407 357.605,482.316 357.454,482.3 C 357.427,482.283 357.458,482.241 357.442,482.217 C 357.401,482.2 357.364,482.198 357.325,482.177 C 357.291,482.158 357.268,482.117 357.236,482.1 C 357.159,482.056 357.062,482.046 357.006,481.971 C 356.985,481.953 356.965,481.934 356.947,481.912 C 356.851,481.912 356.831,481.85 356.777,481.793 C 356.666,481.681 356.511,481.6 356.371,481.534 C 356.306,481.399 356.154,481.347 356.053,481.245 C 356.017,481.21 356.002,481.156 355.971,481.117 C 355.894,481.024 355.77,480.963 355.735,480.84 C 355.713,480.832 355.696,480.821 355.671,480.816 C 355.67,480.791 355.659,480.764 355.641,480.739 C 355.511,480.683 355.457,480.549 355.353,480.464 C 355.367,480.311 355.189,480.271 355.158,480.182 C 355.15,480.156 355.167,480.124 355.158,480.099 C 355.15,480.073 355.104,480.044 355.083,480.017 C 355.055,479.984 355.028,479.955 355.006,479.929 C 354.972,479.836 354.928,479.752 354.888,479.663 C 354.866,479.613 354.827,479.574 354.799,479.528 C 354.713,479.377 354.683,479.201 354.588,479.057 C 354.597,478.954 354.559,478.851 354.505,478.793 C 354.514,478.725 354.518,478.627 354.494,478.574 C 354.557,478.462 354.476,478.324 354.51,478.203 C 354.531,478.136 354.605,478.084 354.588,477.997 L 354.588,477.921 C 354.564,477.632 354.751,477.497 354.811,477.304 C 354.821,477.273 354.827,477.247 354.811,477.216 C 354.833,477.169 354.928,477.169 354.9,477.091 C 355.01,477.04 355.059,476.93 355.11,476.82 C 355.251,476.824 355.321,476.701 355.43,476.655 C 355.467,476.64 355.513,476.647 355.553,476.632 C 355.585,476.62 355.611,476.583 355.641,476.567 C 355.734,476.519 355.854,476.535 355.942,476.468 C 356.032,476.497 356.096,476.4 356.159,476.468 C 356.356,476.402 356.598,476.532 356.777,476.45 C 356.843,476.523 356.968,476.531 357.095,476.55 C 357.184,476.564 357.26,476.592 357.325,476.614 C 357.356,476.618 357.403,476.607 357.425,476.62 C 357.515,476.622 357.549,476.689 357.618,476.721 C 357.702,476.757 357.798,476.762 357.854,476.82 C 358.018,476.769 358.017,476.993 358.167,476.938 C 358.238,476.994 358.312,477.077 358.449,477.05 C 358.453,477.011 358.396,476.985 358.372,476.956 C 358.335,476.925 358.303,476.892 358.272,476.856 C 358.13,476.723 357.99,476.584 357.812,476.485 C 357.75,476.509 357.683,476.464 357.636,476.433 C 357.627,476.355 357.58,476.322 357.542,476.268 C 357.52,476.235 357.51,476.191 357.49,476.168 C 357.477,476.154 357.45,476.156 357.431,476.138 C 357.408,476.119 357.4,476.077 357.384,476.061 C 357.346,476.03 357.295,476.026 357.277,475.992 C 357.25,475.937 357.283,475.879 357.289,475.833 C 357.31,475.668 357.156,475.633 357.183,475.461 C 357.13,475.401 357.121,475.297 357.042,475.26 C 357.04,475.154 356.965,475.119 356.93,475.043 C 356.918,475.022 356.941,475.011 356.935,474.979 C 356.92,474.926 356.857,474.89 356.877,474.819 C 356.83,474.791 356.8,474.735 356.771,474.672 C 356.736,474.594 356.677,474.508 356.689,474.431 C 356.677,474.392 356.639,474.38 356.642,474.326 C 356.565,474.3 356.465,474.214 356.53,474.12 C 356.476,474.065 356.442,473.939 356.482,473.843 C 356.452,473.8 356.419,473.742 356.4,473.678 C 356.39,473.644 356.386,473.61 356.371,473.584 C 356.357,473.56 356.314,473.543 356.335,473.514 C 343.562,473.51 330.765,473.521 318,473.508 L 318,484.636 C 318.031,484.934 318.142,485.152 318.294,485.33 C 318.328,485.359 318.36,485.391 318.389,485.424 C 318.566,485.577 318.784,485.687 319.083,485.719 Z M 358.372,473.514 L 358.625,473.514 C 358.635,473.635 358.708,473.779 358.649,473.896 C 358.627,473.864 358.626,473.813 358.566,473.819 C 358.556,473.731 358.492,473.696 358.483,473.607 C 358.431,473.593 358.403,473.554 358.372,473.519 L 358.372,473.514 Z M 365.21,481.352 C 364.764,481.288 364.387,481.069 364.215,480.717 C 364.222,480.661 364.199,480.636 364.204,480.581 C 364.146,480.529 364.128,480.435 364.11,480.341 C 364.45,480.429 364.627,480.677 364.916,480.816 C 365,480.904 365.083,480.995 365.186,481.064 C 365.212,481.164 365.293,481.208 365.287,481.34 C 365.263,481.364 365.235,481.355 365.21,481.352 Z M 358.478,479.787 C 358.57,479.84 358.657,479.897 358.766,479.935 C 358.854,480.081 359.09,480.093 359.201,480.217 C 359.229,480.248 359.23,480.277 359.261,480.293 C 359.322,480.325 359.389,480.272 359.454,480.282 C 359.503,480.289 359.54,480.357 359.596,480.358 C 359.653,480.36 359.706,480.293 359.768,480.311 C 359.792,480.318 359.817,480.38 359.843,480.417 C 359.933,480.545 360.045,480.681 360.026,480.864 C 360.043,480.894 360.089,480.902 360.096,480.946 C 360.107,481.007 360.063,481.155 360.008,481.204 C 359.969,481.24 359.92,481.243 359.878,481.251 C 359.88,481.281 359.876,481.306 359.872,481.328 C 359.738,481.391 359.505,481.413 359.378,481.328 C 359.356,481.332 359.344,481.345 359.314,481.34 C 359.064,481.168 358.683,481.127 358.424,480.964 C 358.393,480.874 358.307,480.838 358.248,480.775 C 358.039,480.765 357.928,480.656 357.83,480.535 C 357.755,480.527 357.727,480.469 357.701,480.41 C 357.541,480.364 357.487,480.198 357.354,480.106 C 357.253,480.034 357.106,480.002 357.118,479.84 C 357.058,479.818 357.016,479.777 356.947,479.764 C 356.899,479.652 356.816,479.575 356.713,479.516 C 356.627,479.323 356.46,479.212 356.389,479.004 C 356.343,478.989 356.297,478.955 356.283,478.91 C 356.277,478.893 356.293,478.856 356.283,478.821 C 356.273,478.787 356.151,478.662 356.223,478.621 C 356.273,478.593 356.33,478.663 356.383,478.668 C 356.444,478.675 356.5,478.652 356.553,478.656 C 356.639,478.664 356.747,478.697 356.819,478.739 C 356.875,478.773 356.899,478.851 357.002,478.827 C 357.117,478.932 357.289,478.954 357.413,479.045 C 357.44,479.067 357.459,479.1 357.49,479.122 C 357.607,479.207 357.754,479.207 357.86,479.317 C 357.885,479.342 357.896,479.382 357.925,479.405 C 357.996,479.46 358.098,479.495 358.179,479.546 C 358.259,479.598 358.338,479.665 358.407,479.716 C 358.428,479.742 358.452,479.766 358.478,479.787 Z M 326.327,481.505 C 326.27,481.488 326.203,481.48 326.157,481.452 C 326.158,481.425 326.174,481.415 326.169,481.382 C 326.072,481.224 325.981,481.06 325.945,480.84 C 325.874,480.796 325.854,480.699 325.838,480.6 C 325.846,480.574 325.872,480.57 325.868,480.535 C 325.799,480.477 325.691,480.419 325.733,480.288 C 325.67,480.23 325.66,480.156 325.621,480.058 C 325.599,480.001 325.554,479.953 325.544,479.911 C 325.534,479.865 325.558,479.825 325.539,479.787 C 325.53,479.767 325.5,479.764 325.486,479.746 C 325.488,479.666 325.441,479.637 325.427,479.575 C 325.516,479.594 325.55,479.668 325.585,479.74 C 325.626,479.711 325.675,479.754 325.72,479.758 C 325.744,479.787 325.761,479.824 325.821,479.817 C 325.859,479.908 325.952,479.943 326.033,479.993 C 326.041,480.028 326.05,480.063 326.063,480.094 C 326.132,480.109 326.205,480.137 326.274,480.182 C 326.322,480.211 326.418,480.267 326.434,480.323 C 326.446,480.369 326.418,480.43 326.457,480.469 C 326.404,480.499 326.443,480.55 326.445,480.6 C 326.447,480.643 326.448,480.697 326.445,480.739 C 326.441,480.789 326.415,480.846 326.41,480.899 C 326.406,480.951 326.424,481.008 326.416,481.052 C 326.408,481.096 326.37,481.141 326.356,481.192 C 326.343,481.249 326.329,481.324 326.333,481.382 C 326.32,481.411 326.331,481.466 326.327,481.505 Z M 348.579,481.805 C 348.471,481.81 348.398,481.727 348.315,481.693 C 348.249,481.668 348.19,481.656 348.133,481.622 C 348.077,481.591 348.029,481.555 347.968,481.534 C 347.965,481.508 347.957,481.487 347.956,481.458 C 347.879,481.428 347.823,481.379 347.761,481.334 C 347.743,481.313 347.724,481.293 347.702,481.275 C 347.646,481.206 347.592,481.135 347.538,481.064 C 347.442,481.014 347.356,480.955 347.331,480.834 C 347.247,480.779 347.219,480.668 347.143,480.605 C 347.116,480.43 346.942,480.371 346.96,480.17 C 346.952,480.168 346.95,480.16 346.942,480.158 C 346.927,480.136 346.906,480.116 346.884,480.099 C 346.827,480.022 346.771,479.941 346.778,479.799 C 346.759,479.772 346.709,479.754 346.702,479.71 C 346.698,479.687 346.716,479.657 346.713,479.634 C 346.705,479.567 346.595,479.508 346.661,479.439 C 346.799,479.42 346.911,479.526 347.019,479.57 C 347.043,479.58 347.075,479.581 347.096,479.594 C 347.164,479.632 347.174,479.722 347.231,479.764 C 347.259,479.764 347.288,479.766 347.308,479.758 C 347.33,479.806 347.367,479.84 347.402,479.876 C 347.482,479.87 347.515,479.913 347.578,479.923 C 347.616,480.021 347.774,479.998 347.814,480.094 C 347.831,480.115 347.851,480.135 347.873,480.152 C 347.95,480.218 348.056,480.255 348.138,480.317 C 348.127,480.422 348.203,480.44 348.291,480.446 C 348.317,480.527 348.396,480.553 348.462,480.593 C 348.498,480.724 348.607,480.785 348.65,480.91 C 348.679,480.897 348.7,480.926 348.726,480.934 C 348.738,481.114 348.889,481.182 348.861,481.382 C 348.947,481.49 348.935,481.787 348.785,481.817 C 348.735,481.828 348.693,481.797 348.638,481.805 L 348.579,481.805 Z M 353.564,485.719 L 354.357,485.719 C 354.298,485.62 354.157,485.602 354.105,485.496 C 354.048,485.519 354.024,485.441 353.982,485.419 C 353.941,485.397 353.87,485.408 353.888,485.336 C 353.786,485.347 353.749,485.29 353.716,485.231 C 353.644,485.241 353.593,485.194 353.547,485.231 C 353.483,485.21 353.469,485.139 353.429,485.095 C 353.345,485.113 353.31,485.236 353.222,485.247 C 353.175,485.255 353.148,485.223 353.098,485.231 C 353.096,485.248 353.116,485.29 353.135,485.307 C 353.162,485.329 353.188,485.355 353.21,485.384 C 353.271,485.432 353.302,485.511 353.364,485.561 C 353.433,485.613 353.523,485.636 353.564,485.719 Z" fill="#51b849" marker-start="none" marker-end="none"/>
  </g>
 </g>
 <g id="Sponsoren" transform="scale(1 -1)"/>
 <g id="Content" transform="scale(1 -1)"/>
 <g id="Logo Vektor" transform="scale(1 -1)"/>
</svg>
