<?xml version="1.0" standalone="no"?>
<!DOCTYPE svg PUBLIC "-//W3C//DTD SVG 1.1//EN" "http://www.w3.org/Graphics/SVG/1.1/DTD/svg11.dtd">
<!--Generator: Xara Designer (www.xara.com), SVG filter version: 6.6.0.7-->
<svg fill="none" fill-rule="evenodd" stroke="black" stroke-width="0.501" stroke-linejoin="bevel" stroke-miterlimit="10" font-family="Times New Roman" font-size="16" style="font-variant-ligatures:none" xmlns:xlink="http://www.w3.org/1999/xlink" xmlns="http://www.w3.org/2000/svg" version="1.1" overflow="visible" width="356.551pt" height="106.921pt" viewBox="142.731 -484.24 356.551 106.921">
 <defs>
  <style type="text/css">@import url('https://themes.googleusercontent.com/fonts/css?family=Open Sans:400,600');</style>
 </defs>
 <g id="Layer 1" transform="scale(1 -1)">
  <g id="Group" fill-rule="nonzero" stroke-linejoin="miter" stroke="none" stroke-width="0.315" fill="#951d1d">
   <path d="M 142.731,377.319 L 142.731,484.24 L 499.282,484.24 L 499.282,377.319 L 142.731,377.319 Z M 185.514,416.725 L 188.121,417.001 L 190.048,417.799 L 191.531,418.77 L 192.767,419.72 L 192.767,417.343 L 196.492,417.343 L 196.492,432.591 L 195.896,436.148 L 194.082,438.519 L 191.244,439.816 L 187.373,440.176 L 183.536,439.816 L 180.564,439.165 L 180.564,435.35 L 180.789,435.35 L 184.295,436.474 L 187.351,436.867 L 189.486,436.71 L 191.244,436.108 L 192.362,434.856 L 192.767,432.732 L 192.767,432.018 L 187.25,431.524 L 182.817,430.344 L 179.727,427.754 L 178.744,423.804 L 179.289,420.962 L 180.727,418.703 L 182.901,417.248 L 185.514,416.725 Z M 337.718,416.725 L 341.78,417.49 L 344.943,419.793 L 346.977,423.49 L 347.657,428.473 L 346.977,433.462 L 344.943,437.176 L 341.78,439.485 L 337.718,440.26 L 333.661,439.485 L 330.482,437.165 L 328.42,433.451 L 327.734,428.473 L 328.408,423.619 L 330.403,419.889 L 333.566,417.518 L 337.718,416.725 Z M 233.539,416.843 L 235.488,416.989 L 237.213,417.422 L 238.724,417.973 L 240.129,418.602 L 240.129,422.816 L 239.904,422.816 L 236.977,420.86 L 233.482,420.096 L 230.774,420.647 L 228.741,422.299 L 227.454,424.945 L 227.033,428.462 L 227.471,432.035 L 228.797,434.698 L 233.482,436.901 L 235.511,436.608 L 237.353,435.912 L 238.876,435.013 L 239.904,434.232 L 240.129,434.232 L 240.129,438.446 L 237.078,439.642 L 233.539,440.159 L 229.314,439.367 L 226.033,437.12 L 223.926,433.53 L 223.134,428.462 L 223.898,423.321 L 226.033,419.697 L 229.325,417.551 L 233.539,416.843 Z M 431.144,416.843 L 433.099,416.989 L 434.813,417.422 L 436.329,417.973 L 437.728,418.602 L 437.728,422.816 L 437.515,422.816 L 434.577,420.86 L 431.082,420.096 L 428.38,420.647 L 426.34,422.299 L 425.065,424.945 L 424.632,428.462 L 425.082,432.035 L 426.402,434.698 L 431.082,436.901 L 433.121,436.608 L 434.953,435.912 L 436.487,435.013 L 437.515,434.232 L 437.728,434.232 L 437.728,438.446 L 434.678,439.642 L 431.144,440.159 L 426.919,439.367 L 423.638,437.12 L 421.525,433.53 L 420.744,428.462 L 421.503,423.321 L 423.638,419.697 L 426.93,417.551 L 431.144,416.843 Z M 210.419,417.343 L 210.419,433.17 L 213.262,435.125 L 216.274,435.788 L 217.403,435.754 L 218.285,435.603 L 218.487,435.603 L 218.487,439.519 L 217.836,439.614 L 216.97,439.642 L 214.004,438.889 L 210.419,436.322 L 210.419,439.642 L 206.666,439.642 L 206.666,417.343 L 210.419,417.343 Z M 251.579,417.343 L 251.579,433.99 L 254.489,435.934 L 257.371,436.687 L 259.607,436.277 L 260.888,435.03 L 261.456,432.906 L 261.602,430.041 L 261.602,417.343 L 265.355,417.343 L 265.355,431.816 L 264.894,435.44 L 263.501,438.092 L 261.282,439.715 L 258.349,440.26 L 254.894,439.463 L 251.579,437.165 L 251.579,448.401 L 247.831,448.401 L 247.831,417.343 L 251.579,417.343 Z M 279.569,417.343 L 279.569,439.642 L 275.816,439.642 L 275.816,417.343 L 279.569,417.343 Z M 299.278,417.343 L 304.688,434.53 L 310.132,417.343 L 313.61,417.343 L 319.256,439.642 L 315.486,439.642 L 311.773,422.372 L 306.34,439.642 L 303.25,439.642 L 297.957,422.372 L 294.025,439.642 L 290.114,439.642 L 295.823,417.343 L 299.278,417.343 Z M 360.579,417.343 L 360.579,433.17 L 363.41,435.125 L 366.433,435.788 L 367.556,435.754 L 368.444,435.603 L 368.646,435.603 L 368.646,439.519 L 368,439.614 L 367.124,439.642 L 364.163,438.889 L 360.579,436.322 L 360.579,439.642 L 356.826,439.642 L 356.826,417.343 L 360.579,417.343 Z M 380.832,417.343 L 380.832,426.659 L 382.304,428.102 L 390.625,417.343 L 395.558,417.343 L 385.158,430.316 L 394.322,439.642 L 389.647,439.642 L 380.832,430.22 L 380.832,448.401 L 377.074,448.401 L 377.074,417.343 L 380.832,417.343 Z M 449.392,417.343 L 449.392,433.99 L 452.297,435.934 L 455.179,436.687 L 457.415,436.277 L 458.69,435.03 L 459.263,432.906 L 459.409,430.041 L 459.409,417.343 L 463.168,417.343 L 463.168,431.816 L 462.702,435.44 L 461.308,438.092 L 459.095,439.715 L 456.156,440.26 L 452.707,439.463 L 449.392,437.165 L 449.392,448.401 L 445.633,448.401 L 445.633,417.343 L 449.392,417.343 Z M 407.856,417.422 L 407.856,421.821 L 403.356,421.821 L 403.356,417.422 L 407.856,417.422 Z M 337.718,419.962 L 333.201,422.125 L 332.004,424.793 L 331.611,428.473 L 332.004,432.254 L 333.201,434.917 L 337.718,437.024 L 342.207,434.917 L 343.392,432.254 L 343.786,428.473 L 343.392,424.743 L 342.201,422.08 L 337.718,419.962 Z M 186.851,420.181 L 183.699,421.153 L 182.62,424.052 L 183.598,426.698 L 186.076,428.102 L 189.373,428.692 L 192.767,429.024 L 192.767,422.838 L 190.07,420.945 L 186.851,420.181 Z M 279.827,443.367 L 279.827,447.261 L 275.557,447.261 L 275.557,443.367 L 279.827,443.367 Z" marker-start="none" marker-end="none"/>
  </g>
 </g>
</svg>
