<?xml version="1.0" encoding="utf-8"?>
<!-- Generator: Adobe Illustrator 26.1.0, SVG Export Plug-In . SVG Version: 6.00 Build 0)  -->
<svg version="1.1" id="Ebene_1" xmlns="http://www.w3.org/2000/svg" xmlns:xlink="http://www.w3.org/1999/xlink" x="0px" y="0px"
	 viewBox="0 0 650.6 322" style="enable-background:new 0 0 650.6 322;" xml:space="preserve">
<style type="text/css">
	.st0{fill-rule:evenodd;clip-rule:evenodd;}
	.st1{fill:#00407A;}
	.st2{fill:#FFFFFF;}
</style>
<g>
	<path class="st0" d="M550.3,182.6l13.5-25.4h5.3l13.6,25.4h-5l-4.2-8h-14.8l-4.1,8H550.3L550.3,182.6z M475.2,182.5h16.2v-33.3h9.2
		l26,33.3h17l-27.1-35.2c11.6-1.4,22.5-5.4,22.5-17.6c0-19.1-30.5-19.1-41.6-19.1l0,0h-36.1v2.4c13.6,1.5,13.9,1.5,13.9,12.1l0,0
		V182.5L475.2,182.5z M384.8,182.5h9.1l11.1-22.2h37.5l11,22.2h15.3L433,110.6h-27.7v2.4c5.8,0.6,11.3,0.7,11.3,4.9
		c0,0.8-1.7,4.5-2.6,6.3l0,0L384.8,182.5L384.8,182.5z M228.1,182.5h27.7c12.1,0,41.9,0,41.9-19.1c0-13.5-12.2-17.6-22.7-19l0,0V144
		c7.2-1.6,17.7-5.7,17.7-16.2c0-14.5-17.9-17.3-34.9-17.3l0,0H214v2.4c13.8,1.5,14.1,1.5,14.1,12.1l0,0V182.5L228.1,182.5z
		 M65.9,182.5h27.7c12.1,0,41.9,0,41.9-19.1c0-13.5-12.1-17.6-22.7-19l0,0V144c7.2-1.6,17.7-5.7,17.7-16.2c0-14.5-18-17.3-34.9-17.3
		l0,0H51.9v2.4c13.7,1.5,14,1.5,14,12.1l0,0V182.5L65.9,182.5z M566.1,160l-6.3,12.5h12.8l-6.3-12.5H566.1L566.1,160z M614.8,168.3
		h-14v2.1h9.2v9.1c-1.1,0.6-2.9,1.6-6.8,1.6c-9.6,0-11.7-6.2-11.7-11.7c0-4.7,1.6-10.7,10.2-10.7c5.9,0,8,2.6,8,5.3l0,0h5.5
		c0-2.4-2.7-7.2-13.6-7.2c-11.9,0-15.3,6.3-15.3,12.8c0,7.8,4.4,13.5,16.3,13.5c5.1,0,9.6-1,12.2-2.5l0,0V168.3L614.8,168.3z
		 M141.4,147.9c0,20.6,16.9,37.3,37.6,37.3c20.9,0,37.7-16.7,37.7-37.3c0-20.6-16.8-37.3-37.7-37.3l0,0h-37.6v2.4
		c10.3,1.2,13,1.4,13.8,6.1C146.8,125.9,141.4,136.3,141.4,147.9L141.4,147.9z M244.2,121.2V142h9.9l0,0c12.6,0,22.4-3,22.4-13.6
		c0-9.5-7.5-12.8-20.9-12.8C246.7,115.7,244.2,115.9,244.2,121.2L244.2,121.2z M308.9,182.5h9.2v-60.8h0.3l48.6,60.8h14.1v-71.9
		h-9.2v58.1h-0.3l-46.3-58.1h-31.1v2.4c12.7,1.7,14.8,1.3,14.8,11.3l0,0V182.5L308.9,182.5z M423.2,124.1l-15.8,31.2H440
		L423.2,124.1L423.2,124.1z M491.5,125.2v19.1h8.4l0,0c9.6,0,23-1.9,23-13.9c0-11.5-9.2-14.8-21.5-14.8
		C491.5,115.6,491.5,117.5,491.5,125.2L491.5,125.2z M82.1,147v26.1l0,0c0,4.4,6,4.4,14.1,4.4c16.3,0,23.2-5.2,23.2-16.1
		c0-10.6-10.9-14.3-23.9-14.3H82.1L82.1,147z M82.1,121.2V142H92l0,0c12.7,0,22.4-3,22.4-13.6c0-9.5-7.5-12.8-20.9-12.8
		C84.6,115.7,82.1,115.9,82.1,121.2L82.1,121.2z M244.2,147v26.1l0,0c0,4.4,6,4.4,14.2,4.4c16.1,0,23.1-5.2,23.1-16.1
		c0-10.6-10.9-14.3-23.9-14.3H244.2L244.2,147z M152.2,147.9c0,14.6,12,26.5,26.8,26.5c14.9,0,27-11.9,27-26.5
		c0-14.7-12-26.7-27-26.7C164.3,121.3,152.2,133.2,152.2,147.9L152.2,147.9z"/>
</g>
<path class="st0" d="M395,225v-16.2h3.1v7.2h10.1v-7.2h3.1V225h-3.1v-7.7h-10.1v7.7H395L395,225z M424.7,206.7h3.3v-2h-3.3V206.7
	L424.7,206.7z M431.2,206.7h3.3v-2h-3.3V206.7L431.2,206.7z M419.3,225h2.8l2.6-5.1h9.4l2.6,5.1h3.2l-8.7-16.2h-3.4L419.3,225
	L419.3,225z M464.7,216h-9v1.3h5.9v5.8c-0.7,0.4-1.9,1.1-4.3,1.1c-6,0-7.4-3.9-7.4-7.5c0-2.9,1.1-6.8,6.5-6.8c3.7,0,5.1,1.7,5.1,3.4
	l0,0h3.5c0-1.6-1.8-4.6-8.7-4.6c-7.6,0-9.7,3.9-9.7,8.1c0,4.9,2.9,8.6,10.4,8.6c3.2,0,6.1-0.6,7.8-1.6l0,0V216L464.7,216z
	 M474.9,225h12.7v-1.4h-9.6v-6.4h8.8v-1.4h-8.8v-5.7h9.3v-1.3h-12.4V225L474.9,225z M496.4,225h2.7v-13.8h0.1l10.7,13.8h3.5v-16.2
	h-2.8v13.8l0,0L500,208.8h-3.6V225L496.4,225z M524.2,225h4.2c7.8,0,12.7-1.3,12.7-8.2c0-6.1-4.2-8-12.3-8l0,0h-4.6V225L524.2,225z
	 M558.9,225.3c7,0,9.3-4,9.3-8.2c0-4.4-2.3-8.4-9.3-8.4c-7,0-9.6,4-9.6,8.4C549.3,221.3,551.9,225.3,558.9,225.3L558.9,225.3z
	 M577.6,225h3.1v-7.3h1.4c4.6,0,5.5,1,6.5,4l0,0l1.1,3.3h3.2l-1.4-4.1c-0.6-2-1.1-3.6-5.1-3.9l0,0v-0.1c1.9-0.1,5.8-1.1,5.8-3.8
	c0-3.5-4.6-4.3-8.9-4.3l0,0h-5.6V225L577.6,225z M602,225h3.1v-7.8h8.8v-1.4h-8.8v-5.7h9.3v-1.3H602V225L602,225z M429.3,210.8
	l-4,7.9h8.1L429.3,210.8L429.3,210.8L429.3,210.8z M527.3,210.2v13.5h1.9l0,0c6.3,0,8.5-2,8.5-6.6c0-5.7-2.8-6.9-8.5-6.9H527.3
	L527.3,210.2z M552.6,217.3c0,2.8,0.9,6.8,6,6.8c5.2,0,6.2-4.1,6.2-6.8c0-3.5-1.1-7.4-6.2-7.4C553.6,209.8,552.6,213.8,552.6,217.3
	L552.6,217.3z M580.7,210.2v6.2h1.7l0,0c2.3,0,6.4-0.5,6.4-3.3c0-2.6-3.2-3-5.4-3H580.7L580.7,210.2z"/>
<g>
	<path d="M61.5,208.9h3.3l8.4,16.3h-3.1l-2.6-5.1h-9.2l-2.5,5.1h-2.7L61.5,208.9z M58.9,218.7h7.9l-3.9-8h-0.1L58.9,218.7z"/>
	<path d="M97.1,219c0,2.5,0,6.4-8.3,6.4c-8.1,0-8.1-3.9-8.1-6.4v-10.2h3V219c0,2.1,0,5.2,5.2,5.2c5.2,0,5.2-3,5.2-5.2v-10.1h3V219z"
		/>
	<path d="M110.1,210.2h-5.9v-1.3H119v1.3h-5.9v15h-3V210.2z"/>
	<path d="M124.5,217.1c0-4.4,2.6-8.5,9.4-8.5c6.8,0,9.1,4.1,9.1,8.5c0,4.3-2.2,8.3-9.1,8.3C127,225.4,124.5,221.4,124.5,217.1z
		 M133.6,224.2c5.1,0,6.1-4.1,6.1-6.9c0-3.5-1-7.4-6.1-7.4c-5,0-5.9,4-5.9,7.4C127.7,220.1,128.6,224.2,133.6,224.2z"/>
	<path d="M152.1,208.9h4.2l7.1,14h0.1l7-14h4.2v16.3H172v-14.6h-0.1l-7.4,14.6h-2.6l-7.4-14.5h-0.1v14.5h-2.4V208.9z"/>
	<path d="M184,217.1c0-4.4,2.6-8.5,9.4-8.5c6.8,0,9.1,4.1,9.1,8.5c0,4.3-2.2,8.3-9.1,8.3C186.6,225.4,184,221.4,184,217.1z
		 M193.1,224.2c5.1,0,6.1-4.1,6.1-6.9c0-3.5-1-7.4-6.1-7.4c-5,0-5.9,4-5.9,7.4C187.2,220.1,188.1,224.2,193.1,224.2z"/>
	<path d="M211.6,208.9h5c2.9,0,8.4,0.1,8.4,3.9c0,2.3-2.4,3.5-4.4,3.7v0c2.6,0.3,5.5,1.5,5.5,4.1c0,4.5-6.4,4.5-9.2,4.5h-5.4V208.9z
		 M214.6,216h2.2c2.1,0,5.2-0.5,5.2-3.1c0-2.5-3-2.7-5.2-2.7h-2.2V216z M214.6,223.8h2.2c2.1,0,6.2-0.1,6.2-3.2
		c0-3.1-4.1-3.3-6.2-3.3h-2.2V223.8z"/>
	<path d="M235.5,208.9h3v16.3h-3V208.9z"/>
	<path d="M249,208.9h3v14.9h8.8v1.4H249V208.9z"/>
	<path d="M268.1,208.9h12.1v1.3h-9v5.8h8.6v1.3h-8.6v6.4h9.4v1.4h-12.4V208.9z"/>
</g>
<g id="layer1" transform="translate(-127.15947,-152.69208)">
	<path id="path737" class="st1" d="M464.7,350.2c-28.3,0-51,8.5-51,19.1c0,10.6,22.9,19.1,51,19.1c28.1,0,51-8.6,51-19.1
		C515.8,358.8,492.9,350.2,464.7,350.2"/>
	<path id="path741" class="st2" d="M484.8,373.4c0,0.1,0.1,0.2,0.2,0.2c0,0,0.1,0,0,0.1c-0.3,0.7-0.6,1.1-1,1.7
		c-0.4,0.5-0.8,1-1.3,1.4c-0.8,0.6-1.8,1.3-2.7,0.8c-0.4-0.2-0.6-0.7-0.5-1.2c0-1.2,0.6-2.5,1.6-3.7c1.2-1.5,2.6-2.3,3.5-1.9
		c0.9,0.4,0.6,1.5,0.2,2.3C484.8,373.3,484.8,373.3,484.8,373.4 M494.7,363.9c0.1-0.1,0-0.2-0.2-0.2c-0.8,0-1.8,0-2.6,0
		c-0.2,0-0.3,0-0.4,0.2c-0.3,0.6-3.9,6-4.6,7c-0.1,0.2-0.3,0.1-0.3,0c-0.1-0.6-0.6-1.3-1.5-1.7c-0.6-0.3-1.3-0.3-1.9-0.2
		c-1.2,0.2-2.2,0.8-3.2,1.5c-1.4,1.1-2.6,2.4-4.2,3.5c-0.9,0.6-2,1-2.8,0.3c-0.7-0.7-0.6-2.1,0.5-3.2c0.1-0.1,0.3,0,0.2,0.1
		c-0.1,0.5,0,1,0.4,1.4c0.5,0.4,1.1,0.5,1.7,0.2c0.7-0.3,1.1-1,1.2-1.7c0.2-1.1-0.7-2.2-1.8-2.2c-0.9-0.1-1.8,0.2-2.6,0.9
		c-0.4,0.3-0.7,0.6-1,1.1c-0.1,0.1-0.2,0.1-0.2,0c0-1.5-0.6-2.3-1.8-2.3c-0.9,0-1.9,0.5-2.7,1.1c-0.9,0.7-1.6,1.6-2.4,2.5
		c-0.1,0.1-0.2,0.1-0.2-0.1c0-1-0.3-1.9-0.7-2.6c-0.2-0.2-0.5-0.3-0.8-0.2c-0.1,0.1-0.6,0.3-0.9,0.5c-0.2,0.1-0.2,0.3-0.2,0.6
		c0.4,1.5,0.3,3.1-0.3,4.5c-0.5,1.3-1.6,2.4-2.8,2.8c-0.8,0.3-1.7,0.1-2.2-0.6c-0.7-1-0.4-2.7,0.6-4.2c0.9-1.3,2.3-2.1,3.7-2.6
		c0.2-0.1,0.2-0.2,0.1-0.3c-0.1-0.2-0.2-0.5-0.2-0.7c-0.1-0.3-0.5-0.4-0.9-0.3c-1,0.1-1.9,0.5-2.8,0.9c-2.3,1.2-3.5,3.6-4,4.9
		c-0.2,0.6-0.5,1-0.7,1.3c-0.4,0.5-0.8,0.9-1.7,1.6c-0.1,0.1-0.1,0.2-0.1,0.3c0.1,0.2,0.5,0.8,0.6,0.8c0.1,0.1,0.3,0,0.4-0.1
		c0.6-0.4,1.3-1,1.6-1.5c0.1-0.1,0.2-0.1,0.3,0.1c0.3,1.1,1.2,2.1,2.3,2.5c2.1,0.7,4.3-0.3,6-2.1c1.1-1.1,1.4-1.9,1.8-2.4
		c0.7-0.9,2-2.8,3.7-4c0.6-0.5,1.3-0.8,1.6-0.6c0.3,0.2,0.4,0.6-0.1,1.4c-1.6,3-4.1,6.5-4.5,7.4c-0.1,0.1,0,0.3,0.1,0.3
		c0.9,0,1.7,0,2.5,0c0.1,0,0.2-0.1,0.3-0.2c1.3-2,2.5-3.9,3.7-5.8c0.1-0.1,0.1,0,0.1,0c0,0.5,0.1,1.1,0.4,1.5
		c0.5,0.7,1.2,1.1,1.9,1.1c0.6,0,0.9-0.1,1.6-0.3c0.5-0.2,1-0.5,1.3-0.7c0.2-0.1,0.2,0.1,0.2,0.1c-0.3,1.6,0.1,3.4,1.6,4.2
		c1.9,0.9,3.9-0.4,5.1-1.5c0.1-0.1,0.2-0.1,0.3,0.1c0,0.4,0.2,1,0.6,1.3c1,1,3,0.6,5-1c1.3-1,2.6-2.4,3.8-3.9c0-0.1,0.1-0.1,0-0.2
		c-0.2-0.2-0.5-0.4-0.6-0.6c-0.1-0.1-0.2-0.1-0.3,0c-1.2,1.2-2.4,2.5-4,3.7c-0.5,0.4-1.4,0.7-1.8,0.2c-0.2-0.2-0.1-0.5,0-0.9
		C486.8,375.9,494.3,364.5,494.7,363.9"/>
	<path id="path745" class="st2" d="M459.5,365.2c0,0.2,0.1,0.2,0.2,0.2c0.4-0.1,0.8-0.4,1-0.8c0.2-0.3,0.3-0.8,0.1-1
		c-0.2-0.2-0.5-0.1-0.8,0.1C459.6,364.2,459.5,364.8,459.5,365.2 M440.5,379.9c-2.8,0-5.2-1.7-5.5-4.7c-0.2-1.7,0.3-3.1,1.2-4.3
		c0.8-1.1,2.2-2,3.4-2.2c0.4-0.1,0.9,0,1.1,0.2c0.3,0.4,0.2,0.8-0.1,1c-0.9,0.5-2,1.3-2.5,2.3c-0.4,0.9-0.5,1.9,0.1,3
		c1.1,1.7,4.2,1.7,7.1-1c0.7-0.7,1.4-1.3,2-2c1.3-1.5,1.7-2,3.4-4.3c0,0,0-0.1,0-0.1c0,0,0,0-0.1,0c-1.1,0-2.1,0.4-3.1,1.1
		c-0.3,0.2-0.7,0.2-0.8-0.1c-0.2-0.3-0.1-0.7,0.3-0.9c1.5-1.1,3.2-1.3,5-1.6c0,0,0.1,0,0.2-0.1c0.7-0.9,1.2-1.7,2-2.6
		c0.8-0.9,1.7-1.8,2.5-2.4c1-0.9,1.7-1.2,2.4-1.6c0.2-0.1,0-0.2-0.1-0.2c-3.8-0.7-7.8-1.6-11.6-0.2c-2.6,1-3.8,3.1-3.2,4.4
		c0.4,1,1.7,1.1,2.9,0.6c1-0.5,1.9-1.3,2.6-2.3c0.4-0.6,1.1-0.2,0.7,0.8c-1.1,2.6-3.2,4.7-5.8,4.8c-2.2,0.1-3.6-1.5-3.6-3.5
		c0-3.9,4.4-6.5,9-6.9c5.5-0.5,10.8,1,16.3,1.7c4.2,0.5,8.2,0.5,12.5-0.5c0.5-0.1,0.9,0.2,0.8,0.7c0,0.7-0.6,1.4-2,2.2
		c-1.6,0.9-3.2,1.1-5,1.1c-4.2,0-8.1-1.6-12.1-2.5c0,0.2,0.1,0.4-0.1,0.5c-2.2,1.6-4.3,3.3-5.6,5.7c0,0.1,0,0.1,0.1,0.1
		c1.2-0.1,2.2-0.1,3.3-0.2c0.2,0,0.2-0.1,0.2-0.2c-0.1-0.8,0.1-1.7,0.9-2.4c0.7-0.7,1.6-0.7,2.2-0.3c0.7,0.5,0.6,1.5,0.3,2.2
		c-0.4,0.7-1,1.1-1.6,1.3c0,0-0.1,0-0.1,0.1c0,0.2,0.9,0.6,0.9,0.8c0.1,0.1,0,0.3-0.1,0.4c-0.1,0.1-0.2,0.2-0.4,0.2
		c-0.1,0-0.2-0.1-0.4-0.2c-0.4-0.2-0.8-0.5-1.1-0.9c-0.1-0.1-0.2-0.1-0.4-0.1c-1.2,0.1-3,0.2-4.3,0.4c-0.3,0-0.3,0.1-0.4,0.2
		c-2,3.3-4.1,6.9-6.5,9.2C444.8,379.2,442.7,379.9,440.5,379.9"/>
	<path id="path749" class="st2" d="M464.7,353.3c-26.1,0-47.2,7.2-47.2,16c0,8.8,21.1,16,47.2,16c26.1,0,47.2-7.2,47.2-16
		C511.9,360.5,490.8,353.3,464.7,353.3 M464.7,386.8c-27,0-48.9-7.8-48.9-17.5c0-9.6,21.9-17.5,48.9-17.5c27,0,48.9,7.8,48.9,17.5
		C513.6,379,491.7,386.8,464.7,386.8"/>
</g>
</svg>
