<?xml version="1.0" standalone="no"?>
<!DOCTYPE svg PUBLIC "-//W3C//DTD SVG 1.1//EN" "http://www.w3.org/Graphics/SVG/1.1/DTD/svg11.dtd">
<!--Generator: Xara Designer (www.xara.com), SVG filter version: 6.6.0.7-->
<svg fill="none" fill-rule="evenodd" stroke="black" stroke-width="0.501" stroke-linejoin="bevel" stroke-miterlimit="10" font-family="Times New Roman" font-size="16" style="font-variant-ligatures:none" xmlns:xlink="http://www.w3.org/1999/xlink" xmlns="http://www.w3.org/2000/svg" version="1.1" overflow="visible" width="341.286pt" height="107.109pt" viewBox="44.004 -651.492 341.286 107.109">
 <defs>
  <style type="text/css">@import url('https://themes.googleusercontent.com/fonts/css?family=Open Sans:400,600');</style>
 </defs>
 <g id="Layer 1" transform="scale(1 -1)">
  <path d="M 159.843,605.702 C 160.404,605.702 160.842,605.854 161.159,606.157 C 161.475,606.46 161.634,606.879 161.634,607.414 C 161.634,607.725 161.575,607.984 161.46,608.189 C 161.344,608.393 161.191,608.556 160.999,608.676 C 160.807,608.797 160.586,608.882 160.337,608.93 C 160.087,608.979 159.83,609.004 159.562,609.004 L 156.662,609.004 L 156.662,605.702 L 159.843,605.702 Z M 159.199,610.074 C 159.92,610.074 160.438,610.2 160.755,610.455 C 161.071,610.707 161.229,611.088 161.229,611.594 C 161.229,611.932 161.175,612.199 161.069,612.394 C 160.961,612.59 160.815,612.741 160.628,612.848 C 160.441,612.955 160.225,613.023 159.98,613.054 C 159.736,613.085 159.475,613.101 159.199,613.101 L 156.662,613.101 L 156.662,610.074 L 159.199,610.074 Z M 158.852,614.17 C 159.056,614.17 159.277,614.168 159.512,614.164 C 159.748,614.16 159.982,614.147 160.213,614.125 C 160.444,614.102 160.66,614.069 160.86,614.024 C 161.06,613.979 161.232,613.913 161.374,613.824 C 161.685,613.638 161.95,613.379 162.167,613.049 C 162.385,612.721 162.495,612.316 162.495,611.835 C 162.495,611.327 162.372,610.89 162.129,610.52 C 161.885,610.151 161.536,609.878 161.084,609.699 L 161.084,609.673 C 161.671,609.548 162.12,609.281 162.432,608.87 C 162.744,608.46 162.899,607.962 162.899,607.373 C 162.899,607.026 162.837,606.687 162.711,606.357 C 162.588,606.027 162.403,605.737 162.159,605.481 C 161.913,605.228 161.611,605.022 161.25,604.867 C 160.89,604.711 160.474,604.632 160.002,604.632 L 155.397,604.632 L 155.397,614.17 L 158.852,614.17 Z" stroke="none" fill="#231f20" stroke-width="0.204" fill-rule="nonzero" stroke-linejoin="miter" marker-start="none" marker-end="none"/>
  <path d="M 176.369,614.17 L 176.369,613.101 L 171.052,613.101 L 171.052,610.074 L 176.009,610.074 L 176.009,609.004 L 171.052,609.004 L 171.052,605.702 L 176.41,605.702 L 176.41,604.632 L 169.787,604.632 L 169.787,614.17 L 176.369,614.17 Z" stroke="none" fill="#231f20" stroke-width="0.204" fill-rule="nonzero" stroke-linejoin="miter" marker-start="none" marker-end="none"/>
  <path d="M 182.174,613.101 L 182.174,614.17 L 189.798,614.17 L 189.798,613.101 L 186.619,613.101 L 186.619,604.632 L 185.353,604.632 L 185.353,613.101 L 182.174,613.101 Z" stroke="none" fill="#231f20" stroke-width="0.204" fill-rule="nonzero" stroke-linejoin="miter" marker-start="none" marker-end="none"/>
  <path d="M 200.85,609.84 C 201.117,609.885 201.351,609.971 201.552,610.101 C 201.752,610.23 201.912,610.404 202.033,610.622 C 202.153,610.84 202.213,611.123 202.213,611.471 C 202.213,611.952 202.079,612.344 201.813,612.647 C 201.545,612.949 201.112,613.101 200.515,613.101 L 197.359,613.101 L 197.359,609.774 L 200.007,609.774 C 200.301,609.774 200.582,609.796 200.85,609.84 Z M 200.581,614.17 C 201.489,614.17 202.199,613.948 202.712,613.503 C 203.223,613.058 203.478,612.447 203.478,611.672 C 203.478,611.093 203.347,610.585 203.085,610.148 C 202.823,609.711 202.401,609.413 201.824,609.253 L 201.824,609.226 C 202.099,609.172 202.324,609.083 202.498,608.958 C 202.671,608.834 202.809,608.685 202.912,608.511 C 203.014,608.338 203.09,608.144 203.138,607.931 C 203.187,607.717 203.226,607.494 203.252,607.264 C 203.27,607.032 203.283,606.796 203.293,606.556 C 203.301,606.315 203.324,606.079 203.36,605.847 C 203.395,605.617 203.446,605.397 203.513,605.187 C 203.58,604.978 203.68,604.794 203.814,604.632 L 202.397,604.632 C 202.308,604.731 202.248,604.864 202.217,605.033 C 202.186,605.203 202.166,605.391 202.157,605.601 C 202.147,605.81 202.139,606.035 202.13,606.274 C 202.122,606.515 202.095,606.751 202.05,606.982 C 202.014,607.214 201.97,607.434 201.916,607.643 C 201.863,607.851 201.778,608.034 201.663,608.19 C 201.547,608.346 201.395,608.471 201.208,608.564 C 201.021,608.657 200.772,608.704 200.46,608.704 L 197.359,608.704 L 197.359,604.632 L 196.094,604.632 L 196.094,614.17 L 200.581,614.17 Z" stroke="none" fill="#231f20" stroke-width="0.204" fill-rule="nonzero" stroke-linejoin="miter" marker-start="none" marker-end="none"/>
  <path d="M 211.801,614.17 L 211.801,604.632 L 210.536,604.632 L 210.536,614.17 L 211.801,614.17 Z" stroke="none" fill="#231f20" stroke-width="0.204" fill-rule="nonzero" stroke-linejoin="miter" marker-start="none" marker-end="none"/>
  <path d="M 225.765,614.17 L 225.765,613.101 L 220.447,613.101 L 220.447,610.074 L 225.403,610.074 L 225.403,609.004 L 220.447,609.004 L 220.447,605.702 L 225.805,605.702 L 225.805,604.632 L 219.182,604.632 L 219.182,614.17 L 225.765,614.17 Z" stroke="none" fill="#231f20" stroke-width="0.204" fill-rule="nonzero" stroke-linejoin="miter" marker-start="none" marker-end="none"/>
  <path d="M 237.028,605.702 C 237.59,605.702 238.029,605.854 238.345,606.157 C 238.66,606.46 238.82,606.879 238.82,607.414 C 238.82,607.725 238.761,607.984 238.646,608.189 C 238.53,608.393 238.376,608.556 238.185,608.676 C 237.993,608.797 237.772,608.882 237.523,608.93 C 237.274,608.979 237.015,609.004 236.749,609.004 L 233.848,609.004 L 233.848,605.702 L 237.028,605.702 Z M 236.385,610.074 C 237.107,610.074 237.625,610.2 237.94,610.455 C 238.256,610.707 238.415,611.088 238.415,611.594 C 238.415,611.932 238.362,612.199 238.255,612.394 C 238.147,612.59 238.001,612.741 237.814,612.848 C 237.627,612.955 237.411,613.023 237.166,613.054 C 236.921,613.085 236.661,613.101 236.385,613.101 L 233.848,613.101 L 233.848,610.074 L 236.385,610.074 Z M 236.038,614.17 C 236.242,614.17 236.463,614.168 236.699,614.164 C 236.934,614.16 237.168,614.147 237.399,614.125 C 237.631,614.102 237.845,614.069 238.046,614.024 C 238.246,613.979 238.417,613.913 238.56,613.824 C 238.87,613.638 239.136,613.379 239.353,613.049 C 239.571,612.721 239.68,612.316 239.68,611.835 C 239.68,611.327 239.559,610.89 239.314,610.52 C 239.07,610.151 238.722,609.878 238.269,609.699 L 238.269,609.673 C 238.857,609.548 239.306,609.281 239.618,608.87 C 239.929,608.46 240.085,607.962 240.085,607.373 C 240.085,607.026 240.022,606.687 239.898,606.357 C 239.774,606.027 239.589,605.737 239.345,605.481 C 239.099,605.228 238.796,605.022 238.436,604.867 C 238.075,604.711 237.661,604.632 237.189,604.632 L 232.582,604.632 L 232.582,614.17 L 236.038,614.17 Z" stroke="none" fill="#231f20" stroke-width="0.204" fill-rule="nonzero" stroke-linejoin="miter" marker-start="none" marker-end="none"/>
  <path d="M 108.228,611.506 C 108.228,612.116 107.721,612.335 106.959,612.335 L 104.995,612.335 L 104.995,610.508 L 106.959,610.508 C 107.737,610.508 108.228,610.727 108.228,611.506 Z" stroke="none" fill="#007dc3" stroke-width="0.204" fill-rule="nonzero" stroke-linejoin="miter" marker-start="none" marker-end="none"/>
  <path d="M 131.222,602.837 C 129.85,602.837 125.939,603.328 125.905,607.188 L 129.631,607.188 C 129.631,606.884 129.681,606.614 129.766,606.393 C 130.037,605.665 130.849,605.512 131.543,605.512 C 132.153,605.512 133.084,605.715 133.084,606.614 C 133.084,607.24 132.559,607.409 130.476,608.002 C 128.564,608.544 126.379,609.068 126.379,611.506 C 126.379,614.3 128.767,615.503 131.255,615.503 C 133.879,615.503 136.199,614.503 136.301,611.558 L 132.779,611.558 C 132.847,612.014 132.644,612.319 132.339,612.522 C 132.035,612.743 131.611,612.828 131.239,612.828 C 130.731,612.828 129.902,612.693 129.902,612.014 C 129.969,611.151 131.696,610.965 133.406,610.491 C 135.116,610.016 136.809,609.22 136.809,607.003 C 136.809,603.853 133.914,602.837 131.222,602.837 Z M 124.788,607.798 C 124.788,604.446 122.976,602.837 119.285,602.837 C 115.594,602.837 113.765,604.446 113.765,607.798 L 113.765,615.214 L 117.491,615.214 L 117.491,608.628 C 117.491,607.391 117.491,605.851 119.302,605.851 C 121.062,605.851 121.062,607.391 121.062,608.628 L 121.062,615.214 L 124.788,615.214 L 124.788,607.798 Z M 124.261,651.492 L 85.378,615.236 L 102.333,615.236 L 102.333,615.214 L 107.891,615.214 C 111.073,615.214 111.751,613.419 111.751,612.184 C 111.751,610.965 111.158,610.304 110.261,609.813 C 111.344,609.441 112.36,608.578 112.36,606.799 C 112.36,604.378 110.261,603.126 108.127,603.126 L 102.331,603.126 L 102.331,603.125 L 72.392,603.127 L 44.004,576.656 L 74.11,544.383 L 154.367,619.22 L 124.261,651.492 Z" stroke="none" fill="#007dc3" stroke-width="0.204" fill-rule="nonzero" stroke-linejoin="miter" marker-start="none" marker-end="none"/>
  <path d="M 104.995,606.003 L 107.179,606.003 C 107.958,606.003 108.635,606.224 108.635,607.155 C 108.635,607.867 108.212,608.256 107.332,608.256 L 104.995,608.256 L 104.995,606.003 Z" stroke="none" fill="#007dc3" stroke-width="0.204" fill-rule="nonzero" stroke-linejoin="miter" marker-start="none" marker-end="none"/>
  <path d="M 167.697,594.121 C 167.697,591.036 169.749,588.828 172.819,588.828 C 175.89,588.828 177.942,591.036 177.942,594.121 C 177.942,597.205 175.89,599.412 172.819,599.412 C 169.749,599.412 167.697,597.205 167.697,594.121 Z M 170.81,594.121 C 170.81,596.371 172.026,596.893 172.819,596.893 C 173.612,596.893 174.829,596.371 174.829,594.121 C 174.829,591.87 173.612,591.347 172.819,591.347 C 172.026,591.347 170.81,591.87 170.81,594.121 Z" stroke="none" fill="#007dc3" stroke-width="0.204" fill-rule="nonzero" stroke-linejoin="miter" marker-start="none" marker-end="none"/>
  <path d="M 183.884,599.172 L 186.997,599.172 L 186.997,591.658 L 191.469,591.658 L 191.469,589.068 L 183.884,589.068 L 183.884,599.172 Z" stroke="none" fill="#007dc3" stroke-width="0.204" fill-rule="nonzero" stroke-linejoin="miter" marker-start="none" marker-end="none"/>
  <path d="M 198.16,596.582 L 195.331,596.582 L 195.331,599.172 L 204.104,599.172 L 204.104,596.582 L 201.274,596.582 L 201.274,589.068 L 198.16,589.068 L 198.16,596.582 Z" stroke="none" fill="#007dc3" stroke-width="0.204" fill-rule="nonzero" stroke-linejoin="miter" marker-start="none" marker-end="none"/>
  <path d="M 209.876,599.172 L 218.239,599.172 L 218.239,596.582 L 212.99,596.582 L 212.99,595.323 L 217.758,595.323 L 217.758,592.916 L 212.99,592.916 L 212.99,591.658 L 218.395,591.658 L 218.395,589.068 L 209.876,589.068 L 209.876,599.172 Z" stroke="none" fill="#007dc3" stroke-width="0.204" fill-rule="nonzero" stroke-linejoin="miter" marker-start="none" marker-end="none"/>
  <path d="M 224.48,599.172 L 227.663,599.172 L 230.606,593.766 L 230.634,593.766 L 230.634,599.172 L 233.578,599.172 L 233.578,589.068 L 230.55,589.068 L 227.451,594.587 L 227.423,594.587 L 227.423,589.068 L 224.48,589.068 L 224.48,599.172 Z" stroke="none" fill="#007dc3" stroke-width="0.204" fill-rule="nonzero" stroke-linejoin="miter" marker-start="none" marker-end="none"/>
  <path d="M 255.141,590.08 C 254.448,589.19 253.372,588.806 252.269,588.806 C 249.283,588.806 247.444,591.127 247.444,593.999 C 247.444,597.849 250.146,599.391 252.424,599.391 C 254.999,599.391 256.627,597.99 257.08,595.613 L 254.094,595.613 C 253.98,596.349 253.358,596.872 252.622,596.872 C 250.485,596.872 250.556,594.623 250.556,593.928 C 250.556,592.981 250.939,591.325 252.834,591.325 C 253.556,591.325 254.292,591.693 254.448,592.443 L 253.075,592.443 L 253.075,594.607 L 257.208,594.607 L 257.208,589.047 L 255.24,589.047 L 255.141,590.08 Z" stroke="none" fill="#007dc3" stroke-width="0.204" fill-rule="nonzero" stroke-linejoin="miter" marker-start="none" marker-end="none"/>
  <path d="M 263.079,594.1 C 263.079,591.014 265.131,588.806 268.201,588.806 C 271.273,588.806 273.324,591.014 273.324,594.1 C 273.324,597.184 271.273,599.391 268.201,599.391 C 265.131,599.391 263.079,597.184 263.079,594.1 Z M 265.399,599.928 L 267.806,599.928 L 267.806,601.769 L 265.399,601.769 L 265.399,599.928 Z M 268.612,599.928 L 271.018,599.928 L 271.018,601.769 L 268.612,601.769 L 268.612,599.928 Z M 266.192,594.1 C 266.192,596.349 267.409,596.872 268.201,596.872 C 268.994,596.872 270.211,596.349 270.211,594.1 C 270.211,591.849 268.994,591.325 268.201,591.325 C 267.409,591.325 266.192,591.849 266.192,594.1 Z" stroke="none" fill="#007dc3" stroke-width="0.204" fill-rule="nonzero" stroke-linejoin="miter" marker-start="none" marker-end="none"/>
  <path d="M 281.743,592.443 C 281.743,592.188 281.785,591.962 281.856,591.779 C 282.083,591.17 282.762,591.043 283.342,591.043 C 283.851,591.043 284.631,591.211 284.631,591.962 C 284.631,592.486 284.191,592.627 282.45,593.122 C 280.852,593.575 279.026,594.013 279.026,596.051 C 279.026,598.386 281.022,599.391 283.102,599.391 C 285.295,599.391 287.234,598.556 287.318,596.094 L 284.375,596.094 C 284.431,596.476 284.262,596.731 284.007,596.9 C 283.752,597.085 283.399,597.155 283.087,597.155 C 282.663,597.155 281.969,597.042 281.969,596.476 C 282.026,595.754 283.47,595.598 284.899,595.202 C 286.329,594.807 287.743,594.141 287.743,592.288 C 287.743,589.655 285.323,588.806 283.073,588.806 C 281.927,588.806 278.658,589.216 278.63,592.443 L 281.743,592.443 Z" stroke="none" fill="#007dc3" stroke-width="0.204" fill-rule="nonzero" stroke-linejoin="miter" marker-start="none" marker-end="none"/>
  <path d="M 300.733,590.08 C 300.039,589.19 298.964,588.806 297.86,588.806 C 294.874,588.806 293.035,591.127 293.035,593.999 C 293.035,597.849 295.738,599.391 298.016,599.391 C 300.591,599.391 302.218,597.99 302.672,595.613 L 299.686,595.613 C 299.573,596.349 298.95,596.872 298.214,596.872 C 296.077,596.872 296.148,594.623 296.148,593.928 C 296.148,592.981 296.53,591.325 298.427,591.325 C 299.148,591.325 299.884,591.693 300.039,592.443 L 298.666,592.443 L 298.666,594.607 L 302.799,594.607 L 302.799,589.047 L 300.832,589.047 L 300.733,590.08 Z" stroke="none" fill="#007dc3" stroke-width="0.204" fill-rule="nonzero" stroke-linejoin="miter" marker-start="none" marker-end="none"/>
  <path d="M 308.968,599.15 L 317.331,599.15 L 317.331,596.561 L 312.081,596.561 L 312.081,595.302 L 316.85,595.302 L 316.85,592.897 L 312.081,592.897 L 312.081,591.637 L 317.486,591.637 L 317.486,589.047 L 308.968,589.047 L 308.968,599.15 Z" stroke="none" fill="#007dc3" stroke-width="0.204" fill-rule="nonzero" stroke-linejoin="miter" marker-start="none" marker-end="none"/>
  <path d="M 323.571,599.15 L 326.755,599.15 L 329.698,593.745 L 329.726,593.745 L 329.726,599.15 L 332.669,599.15 L 332.669,589.047 L 329.641,589.047 L 326.542,594.566 L 326.514,594.566 L 326.514,589.047 L 323.571,589.047 L 323.571,599.15 Z" stroke="none" fill="#007dc3" stroke-width="0.204" fill-rule="nonzero" stroke-linejoin="miter" marker-start="none" marker-end="none"/>
  <path d="M 353.751,590.075 C 353.057,589.183 351.982,588.801 350.877,588.801 C 347.892,588.801 346.053,591.122 346.053,593.994 C 346.053,597.843 348.756,599.385 351.033,599.385 C 353.609,599.385 355.236,597.984 355.688,595.607 L 352.703,595.607 C 352.59,596.342 351.967,596.867 351.232,596.867 C 349.095,596.867 349.165,594.616 349.165,593.923 C 349.165,592.975 349.548,591.319 351.443,591.319 C 352.165,591.319 352.901,591.688 353.057,592.438 L 351.683,592.438 L 351.683,594.603 L 355.817,594.603 L 355.817,589.042 L 353.85,589.042 L 353.751,590.075 Z" stroke="none" fill="#007dc3" stroke-width="0.204" fill-rule="nonzero" stroke-linejoin="miter" marker-start="none" marker-end="none"/>
  <path d="M 360.712,589.042 L 363.84,589.042 L 364.292,590.485 L 367.504,590.485 L 367.928,589.042 L 371.154,589.042 L 367.476,599.144 L 364.434,599.144 L 360.712,589.042 Z M 363.131,599.923 L 365.538,599.923 L 365.538,601.763 L 363.131,601.763 L 363.131,599.923 Z M 366.343,599.923 L 368.749,599.923 L 368.749,601.763 L 366.343,601.763 L 366.343,599.923 Z M 364.971,592.65 L 365.948,595.762 L 365.976,595.762 L 366.881,592.65 L 364.971,592.65 Z" stroke="none" fill="#007dc3" stroke-width="0.204" fill-rule="nonzero" stroke-linejoin="miter" marker-start="none" marker-end="none"/>
  <path d="M 385.29,592.946 C 385.29,590.146 383.776,588.801 380.692,588.801 C 377.607,588.801 376.078,590.146 376.078,592.946 L 376.078,599.144 L 379.192,599.144 L 379.192,593.641 C 379.192,592.607 379.192,591.319 380.706,591.319 C 382.178,591.319 382.178,592.607 382.178,593.641 L 382.178,599.144 L 385.29,599.144 L 385.29,592.946 Z" stroke="none" fill="#007dc3" stroke-width="0.204" fill-rule="nonzero" stroke-linejoin="miter" marker-start="none" marker-end="none"/>
 </g>
</svg>
