<?xml version="1.0" standalone="no"?>
<!DOCTYPE svg PUBLIC "-//W3C//DTD SVG 1.1//EN" "http://www.w3.org/Graphics/SVG/1.1/DTD/svg11.dtd">
<!--Generator: Xara Designer (www.xara.com), SVG filter version: 6.6.0.9-->
<svg fill="none" fill-rule="evenodd" stroke="black" stroke-width="0.501" stroke-linejoin="bevel" stroke-miterlimit="10" font-family="Times New Roman" font-size="16" style="font-variant-ligatures:none" xmlns:xlink="http://www.w3.org/1999/xlink" xmlns="http://www.w3.org/2000/svg" version="1.1" overflow="visible" width="101.148pt" height="19.524pt" viewBox="119.25 -591.774 101.148 19.524">
 <defs>
  <style type="text/css">@import url('https://themes.googleusercontent.com/fonts/css?family=Open Sans:400,600');</style>
 </defs>
 <g id="Layer 1" transform="scale(1 -1)">
  <g id="Group" stroke="none">
   <g id="Group_1" stroke-linejoin="miter" stroke-width="0.398" fill="#b0836c">
    <path d="M 145.535,580.798 C 145.794,580.798 145.902,580.748 145.902,580.508 L 145.902,580.262 C 145.902,580.02 145.794,579.971 145.535,579.971 L 143.802,579.971 L 143.802,580.798 L 145.535,580.798 M 143.055,579.383 L 145.648,579.383 C 146.288,579.383 146.61,579.585 146.61,580.02 L 146.61,580.439 C 146.61,580.787 146.401,581.014 146.021,581.065 C 146.382,581.108 146.584,581.299 146.584,581.615 L 146.584,582.013 C 146.584,582.469 146.351,582.645 145.851,582.645 L 143.055,582.645 L 143.055,579.383 M 145.535,582.114 C 145.769,582.114 145.883,582.07 145.883,581.881 L 145.883,581.57 C 145.883,581.381 145.769,581.336 145.535,581.336 L 143.802,581.336 L 143.802,582.114 L 145.535,582.114 Z" marker-start="none" marker-end="none"/>
    <path d="M 148.739,579.958 L 150.77,579.958 L 150.77,582.447 L 151.481,582.447 L 151.481,580.107 C 151.481,579.531 151.298,579.383 150.722,579.383 L 148.787,579.383 C 148.209,579.383 148.025,579.531 148.025,580.107 L 148.025,582.447 L 148.739,582.447 L 148.739,579.958 Z" marker-start="none" marker-end="none"/>
    <path d="M 153.697,581.912 L 153.697,581.253 L 155.61,581.253 C 156.185,581.253 156.375,581.105 156.375,580.528 L 156.375,580.107 C 156.375,579.531 156.185,579.383 155.61,579.383 L 153.715,579.383 C 153.139,579.383 152.949,579.531 152.949,580.107 L 152.949,580.19 L 153.578,580.32 L 153.578,579.958 L 155.746,579.958 L 155.746,580.659 L 153.833,580.659 C 153.257,580.659 153.073,580.808 153.073,581.384 L 153.073,581.723 C 153.073,582.298 153.257,582.447 153.833,582.447 L 155.573,582.447 C 156.12,582.447 156.334,582.304 156.334,581.775 L 156.334,581.71 L 155.703,581.562 L 155.703,581.912 L 153.697,581.912 Z" marker-start="none" marker-end="none"/>
    <path d="M 158.391,581.912 L 158.391,581.253 L 160.303,581.253 C 160.878,581.253 161.068,581.105 161.068,580.528 L 161.068,580.107 C 161.068,579.531 160.878,579.383 160.303,579.383 L 158.408,579.383 C 157.832,579.383 157.643,579.531 157.643,580.107 L 157.643,580.19 L 158.272,580.32 L 158.272,579.958 L 160.44,579.958 L 160.44,580.659 L 158.527,580.659 C 157.951,580.659 157.767,580.808 157.767,581.384 L 157.767,581.723 C 157.767,582.298 157.951,582.447 158.527,582.447 L 160.268,582.447 C 160.814,582.447 161.027,582.304 161.027,581.775 L 161.027,581.71 L 160.398,581.562 L 160.398,581.912 L 158.391,581.912 Z" marker-start="none" marker-end="none"/>
    <path d="M 162.541,582.447 L 163.117,582.447 L 164.561,580.594 L 165.974,582.447 L 166.544,582.447 L 166.544,579.383 L 165.885,579.383 L 165.885,581.276 C 165.885,581.336 165.891,581.443 165.908,581.603 C 165.843,581.467 165.784,581.354 165.731,581.283 L 164.578,579.75 L 164.436,579.75 L 163.284,581.289 C 163.213,581.384 163.147,581.485 163.099,581.603 C 163.112,581.479 163.117,581.378 163.117,581.276 L 163.117,579.383 L 162.541,579.383 L 162.541,582.447 Z" marker-start="none" marker-end="none"/>
    <path d="M 168.831,580.605 L 169.513,581.853 L 170.172,580.605 L 168.831,580.605 M 167.459,579.383 L 168.171,579.383 L 168.528,580.053 L 170.469,580.053 L 170.837,579.383 L 171.638,579.383 L 169.882,582.447 L 169.193,582.447 L 167.459,579.383 Z" marker-start="none" marker-end="none"/>
    <path d="M 172.619,582.447 L 173.106,582.447 L 175.262,580.641 C 175.385,580.54 175.504,580.433 175.611,580.309 C 175.594,580.563 175.582,580.742 175.582,580.837 L 175.582,582.447 L 176.224,582.447 L 176.224,579.383 L 175.736,579.383 L 173.485,581.276 C 173.396,581.354 173.314,581.431 173.231,581.526 C 173.254,581.289 173.26,581.128 173.26,581.039 L 173.26,579.383 L 172.619,579.383 L 172.619,582.447 Z" marker-start="none" marker-end="none"/>
    <path d="M 177.778,582.447 L 178.266,582.447 L 180.422,580.641 C 180.547,580.54 180.665,580.433 180.772,580.309 C 180.755,580.563 180.743,580.742 180.743,580.837 L 180.743,582.447 L 181.384,582.447 L 181.384,579.383 L 180.896,579.383 L 178.646,581.276 C 178.556,581.354 178.474,581.431 178.391,581.526 C 178.415,581.289 178.42,581.128 178.42,581.039 L 178.42,579.383 L 177.778,579.383 L 177.778,582.447 Z" marker-start="none" marker-end="none"/>
    <path d="M 185.594,579.917 L 185.594,580.44 L 186.378,580.926 L 187.297,580.16 L 187.013,579.917 L 185.594,579.917 M 185.76,579.383 L 186.852,579.383 C 187.108,579.383 187.231,579.394 187.428,579.566 L 187.702,579.81 L 188.206,579.383 L 189.139,579.383 L 188.171,580.196 L 188.877,580.784 L 188.473,581.134 L 187.761,580.54 L 186.318,581.74 L 186.318,581.96 L 187.322,581.96 L 187.322,581.549 L 187.874,581.645 L 187.874,581.829 C 187.874,582.328 187.665,582.447 187.114,582.447 L 186.495,582.447 C 185.973,582.447 185.736,582.328 185.736,581.888 L 185.736,581.717 C 185.736,581.539 185.819,581.402 185.998,581.253 L 185.373,580.878 C 185.107,580.718 184.993,580.623 184.993,580.309 L 184.993,580.107 C 184.993,579.531 185.184,579.383 185.76,579.383 Z" marker-start="none" marker-end="none"/>
    <path d="M 192.634,582.645 L 195.936,582.645 L 195.936,582.076 L 193.393,582.076 L 193.393,581.216 L 194.765,581.216 L 194.765,580.623 L 193.393,580.623 L 193.393,579.383 L 192.634,579.383 L 192.634,582.645 Z" marker-start="none" marker-end="none"/>
    <path d="M 199.13,581.918 C 199.351,581.918 199.451,581.877 199.451,581.675 L 199.451,581.307 C 199.451,581.105 199.351,581.063 199.13,581.063 L 197.527,581.063 L 197.527,581.918 L 199.13,581.918 M 196.827,579.383 L 197.527,579.383 L 197.527,580.54 L 198.204,580.54 L 199.438,579.383 L 200.461,579.383 L 199.047,580.54 L 199.451,580.54 C 199.921,580.54 200.139,580.707 200.139,581.134 L 200.139,581.853 C 200.139,582.28 199.921,582.447 199.451,582.447 L 196.827,582.447 L 196.827,579.383 Z" marker-start="none" marker-end="none"/>
    <path d="M 201.588,582.447 L 204.724,582.447 L 204.724,581.924 L 202.301,581.924 L 202.301,581.241 L 203.715,581.241 L 203.715,580.718 L 202.301,580.718 L 202.301,579.958 L 204.754,579.958 L 204.754,579.383 L 201.588,579.383 L 201.588,582.447 Z" marker-start="none" marker-end="none"/>
    <path d="M 206.927,580.754 L 205.335,582.447 L 206.286,582.447 L 207.338,581.271 L 208.393,582.447 L 209.232,582.447 L 207.646,580.772 L 207.646,579.383 L 206.927,579.383 L 206.927,580.754 Z" marker-start="none" marker-end="none"/>
    <path d="M 213.145,580.605 L 213.827,581.853 L 214.486,580.605 L 213.145,580.605 M 211.772,579.383 L 212.486,579.383 L 212.841,580.053 L 214.783,580.053 L 215.152,579.383 L 215.953,579.383 L 214.196,582.447 L 213.507,582.447 L 211.772,579.383 Z" marker-start="none" marker-end="none"/>
    <path d="M 217.476,581.901 L 217.476,579.958 L 219.702,579.958 L 219.702,580.641 L 218.539,580.641 L 218.539,581.164 L 220.398,581.164 L 220.398,580.107 C 220.398,579.531 220.212,579.383 219.637,579.383 L 217.523,579.383 C 216.948,579.383 216.764,579.531 216.764,580.107 L 216.764,581.723 C 216.764,582.298 216.948,582.447 217.523,582.447 L 219.637,582.447 C 220.196,582.447 220.398,582.304 220.398,581.752 C 220.398,581.728 220.398,581.704 220.398,581.68 L 219.702,581.555 L 219.702,581.901 L 217.476,581.901 Z" marker-start="none" marker-end="none"/>
   </g>
   <g id="Group_2" stroke-linejoin="miter" stroke-width="0.398" fill="#8594ab">
    <path d="M 143.279,577.163 L 143.685,577.163 L 143.685,574.727 L 143.279,574.727 L 143.279,577.163 Z" marker-start="none" marker-end="none"/>
    <path d="M 145.091,576.077 L 145.091,574.727 L 144.78,574.727 L 144.78,576.728 L 145.091,576.728 L 146.087,575.431 L 147.002,576.728 L 147.351,576.728 L 147.351,574.727 L 147.002,574.727 L 147.002,576.077 C 147.002,576.157 147.007,576.252 147.026,576.356 C 146.979,576.218 146.931,576.125 146.894,576.077 L 146.125,575.043 L 146.026,575.043 L 145.228,576.068 C 145.167,576.144 145.12,576.242 145.081,576.356 C 145.086,576.224 145.091,576.129 145.091,576.077 Z" marker-start="none" marker-end="none"/>
    <path d="M 148.592,576.077 L 148.592,574.727 L 148.281,574.727 L 148.281,576.728 L 148.592,576.728 L 149.588,575.431 L 150.504,576.728 L 150.853,576.728 L 150.853,574.727 L 150.504,574.727 L 150.504,576.077 C 150.504,576.157 150.508,576.252 150.526,576.356 C 150.48,576.218 150.432,576.125 150.394,576.077 L 149.626,575.043 L 149.527,575.043 L 148.729,576.068 C 148.668,576.144 148.621,576.242 148.583,576.356 C 148.588,576.224 148.592,576.129 148.592,576.077 Z" marker-start="none" marker-end="none"/>
    <path d="M 152.112,575.03 L 152.112,576.431 L 153.783,576.431 L 153.783,575.03 L 152.112,575.03 M 151.735,576.252 L 151.735,575.199 C 151.735,574.827 151.843,574.727 152.226,574.727 L 153.669,574.727 C 154.047,574.727 154.161,574.831 154.161,575.199 L 154.161,576.252 C 154.161,576.615 154.052,576.728 153.669,576.728 L 152.226,576.728 C 151.843,576.728 151.735,576.615 151.735,576.252 Z" marker-start="none" marker-end="none"/>
    <path d="M 156.788,576.081 C 156.788,575.94 156.722,575.921 156.576,575.921 L 155.415,575.921 L 155.415,576.436 L 156.576,576.436 C 156.727,576.436 156.788,576.403 156.788,576.27 L 156.788,576.081 M 155.038,574.727 L 156.6,574.727 C 156.987,574.727 157.18,574.851 157.18,575.119 L 157.18,575.374 C 157.18,575.601 157.052,575.738 156.816,575.761 C 157.056,575.789 157.165,575.894 157.165,576.105 L 157.165,576.337 C 157.165,576.611 157.033,576.728 156.727,576.728 L 155.038,576.728 L 155.038,574.727 M 155.415,575.629 L 156.576,575.629 C 156.736,575.629 156.803,575.578 156.803,575.402 L 156.803,575.247 C 156.803,575.072 156.741,575.02 156.576,575.02 L 155.415,575.02 L 155.415,575.629 Z" marker-start="none" marker-end="none"/>
    <path d="M 158.01,574.727 L 158.01,576.724 L 158.387,576.724 L 158.387,574.727 L 158.01,574.727 Z" marker-start="none" marker-end="none"/>
    <path d="M 159.304,576.728 L 159.68,576.728 L 159.68,575.03 L 161.238,575.03 L 161.238,574.727 L 159.304,574.727 L 159.304,576.728 Z" marker-start="none" marker-end="none"/>
    <path d="M 161.817,574.727 L 161.817,576.724 L 162.196,576.724 L 162.196,574.727 L 161.817,574.727 Z" marker-start="none" marker-end="none"/>
    <path d="M 163.111,576.728 L 165.125,576.728 L 165.125,576.431 L 163.488,576.431 L 163.488,575.917 L 164.474,575.917 L 164.474,575.619 L 163.488,575.619 L 163.488,575.02 L 165.144,575.02 L 165.144,574.727 L 163.111,574.727 L 163.111,576.728 Z" marker-start="none" marker-end="none"/>
    <path d="M 166.202,575.969 L 166.202,574.727 L 165.852,574.727 L 165.852,576.728 L 166.14,576.728 L 167.608,575.421 C 167.702,575.341 167.777,575.251 167.848,575.147 C 167.825,575.275 167.815,575.398 167.815,575.52 L 167.815,576.728 L 168.164,576.728 L 168.164,574.727 L 167.904,574.727 L 166.409,576.053 C 166.319,576.133 166.239,576.218 166.174,576.328 C 166.192,576.21 166.202,576.086 166.202,575.969 Z" marker-start="none" marker-end="none"/>
    <path d="M 171.231,575.03 L 172.694,575.03 L 172.694,576.728 L 173.076,576.728 L 173.076,575.199 C 173.076,574.836 172.973,574.727 172.585,574.727 L 171.344,574.727 C 170.967,574.727 170.854,574.831 170.854,575.199 L 170.854,576.728 L 171.231,576.728 L 171.231,575.03 Z" marker-start="none" marker-end="none"/>
    <path d="M 174.35,575.969 L 174.35,574.727 L 174,574.727 L 174,576.728 L 174.288,576.728 L 175.757,575.421 C 175.849,575.341 175.926,575.251 175.997,575.147 C 175.974,575.275 175.964,575.398 175.964,575.52 L 175.964,576.728 L 176.313,576.728 L 176.313,574.727 L 176.054,574.727 L 174.558,576.053 C 174.468,576.133 174.387,576.218 174.322,576.328 C 174.34,576.21 174.35,576.086 174.35,575.969 Z" marker-start="none" marker-end="none"/>
    <path d="M 178.502,576.431 C 179.101,576.431 179.404,576.261 179.404,575.738 C 179.404,575.195 179.106,575.03 178.502,575.03 L 177.77,575.03 L 177.77,576.431 L 178.502,576.431 M 178.545,576.728 L 177.393,576.728 L 177.393,574.727 L 178.545,574.727 C 179.369,574.727 179.78,575.054 179.78,575.733 C 179.78,576.092 179.616,576.403 179.347,576.573 C 179.168,576.686 178.898,576.728 178.545,576.728 Z" marker-start="none" marker-end="none"/>
    <path d="M 183.555,574.727 L 183.15,574.727 L 183.15,576.832 L 182.036,576.832 L 182.036,577.163 L 184.674,577.163 L 184.674,576.832 L 183.555,576.832 L 183.555,574.727 Z" marker-start="none" marker-end="none"/>
    <path d="M 186.544,576.436 C 186.685,576.436 186.756,576.398 186.756,576.233 L 186.756,575.993 C 186.756,575.833 186.709,575.789 186.544,575.789 L 185.478,575.789 L 185.478,576.436 L 186.544,576.436 M 185.101,574.727 L 185.478,574.727 L 185.478,575.511 L 186.025,575.511 L 186.822,574.727 L 187.328,574.727 L 186.445,575.511 L 186.709,575.511 C 187.002,575.511 187.13,575.619 187.13,575.894 L 187.13,576.341 C 187.13,576.62 187.002,576.728 186.709,576.728 L 185.101,576.728 L 185.101,574.727 Z" marker-start="none" marker-end="none"/>
    <path d="M 187.993,576.728 L 190.008,576.728 L 190.008,576.431 L 188.37,576.431 L 188.37,575.917 L 189.357,575.917 L 189.357,575.619 L 188.37,575.619 L 188.37,575.02 L 190.027,575.02 L 190.027,574.727 L 187.993,574.727 L 187.993,576.728 Z" marker-start="none" marker-end="none"/>
    <path d="M 191.112,575.03 L 192.574,575.03 L 192.574,576.728 L 192.956,576.728 L 192.956,575.199 C 192.956,574.836 192.852,574.727 192.467,574.727 L 191.225,574.727 C 190.847,574.727 190.734,574.831 190.734,575.199 L 190.734,576.728 L 191.112,576.728 L 191.112,575.03 Z" marker-start="none" marker-end="none"/>
    <path d="M 193.881,576.724 L 194.258,576.724 L 194.258,575.921 L 195.854,575.921 L 195.854,576.724 L 196.231,576.724 L 196.231,574.727 L 195.854,574.727 L 195.854,575.619 L 194.258,575.619 L 194.258,574.727 L 193.881,574.727 L 193.881,576.724 Z" marker-start="none" marker-end="none"/>
    <path d="M 197.623,575.483 L 198.151,576.436 L 198.684,575.483 L 197.623,575.483 M 196.831,574.727 L 197.208,574.727 L 197.462,575.195 L 198.845,575.195 L 199.105,574.727 L 199.514,574.727 L 198.331,576.728 L 197.987,576.728 L 196.831,574.727 Z" marker-start="none" marker-end="none"/>
    <path d="M 200.463,575.969 L 200.463,574.727 L 200.114,574.727 L 200.114,576.728 L 200.402,576.728 L 201.869,575.421 C 201.964,575.341 202.039,575.251 202.11,575.147 C 202.086,575.275 202.077,575.398 202.077,575.52 L 202.077,576.728 L 202.426,576.728 L 202.426,574.727 L 202.167,574.727 L 200.671,576.053 C 200.581,576.133 200.501,576.218 200.435,576.328 C 200.454,576.21 200.463,576.086 200.463,575.969 Z" marker-start="none" marker-end="none"/>
    <path d="M 204.616,576.431 C 205.214,576.431 205.517,576.261 205.517,575.738 C 205.517,575.195 205.219,575.03 204.616,575.03 L 203.884,575.03 L 203.884,576.431 L 204.616,576.431 M 204.658,576.728 L 203.507,576.728 L 203.507,574.727 L 204.658,574.727 C 205.483,574.727 205.894,575.054 205.894,575.733 C 205.894,576.092 205.73,576.403 205.46,576.573 C 205.282,576.686 205.011,576.728 204.658,576.728 Z" marker-start="none" marker-end="none"/>
   </g>
   <path d="M 129.086,572.392 C 129.047,572.392 129.009,572.394 128.97,572.395 L 128.97,572.4 C 129.01,572.4 129.048,572.399 129.087,572.398 C 131.838,572.34 133.942,572.29 134.485,572.25 C 133.941,572.283 131.838,572.334 129.086,572.392 Z M 136.112,572.669 C 135.073,572.689 133.113,572.7 129.525,572.684 C 129.525,572.684 129.338,572.69 128.97,572.701 L 128.97,573.357 C 131.705,573.281 134.325,573.197 136.382,573.111 C 136.573,573.182 136.749,573.171 136.902,573.168 C 137.061,573.158 137.24,573.157 137.279,573.19 L 137.31,573.213 C 137.437,573.265 137.516,573.413 137.554,573.571 C 137.594,573.73 137.603,573.896 137.611,574.057 L 137.613,574.068 C 137.789,574.929 137.865,575.582 137.921,575.931 C 137.921,575.931 137.912,575.722 137.878,575.383 C 137.845,575.043 137.791,574.574 137.695,574.055 L 137.696,574.057 C 137.69,573.889 137.685,573.713 137.645,573.541 C 137.607,573.37 137.522,573.192 137.358,573.117 L 137.353,573.114 C 137.228,573.02 137.045,573.054 136.885,573.051 C 136.724,573.053 136.556,573.05 136.402,572.982 L 136.41,572.982 L 136.395,572.978 C 136.397,572.979 136.399,572.981 136.402,572.982 C 135.552,572.998 134.81,573.004 134.412,572.99 L 136.409,572.879 L 136.44,572.885 C 136.49,572.904 136.541,572.92 136.596,572.925 C 136.542,572.917 136.491,572.898 136.443,572.877 L 136.409,572.87 L 133.082,572.891 L 131.058,572.984 C 131.058,572.984 134.497,572.811 136.112,572.669 C 136.221,572.667 136.32,572.665 136.409,572.663 L 136.536,572.692 C 136.713,572.756 136.969,572.714 137.09,572.714 C 137.229,572.709 137.278,572.712 137.238,572.694 C 137.155,572.66 136.912,572.648 136.921,572.648 C 136.869,572.667 136.671,572.703 136.545,572.673 L 136.409,572.642 C 136.32,572.65 136.22,572.66 136.112,572.669 Z M 136.337,573.093 L 136.41,573.11 C 136.401,573.11 136.391,573.111 136.382,573.111 C 136.368,573.106 136.352,573.1 136.337,573.093 Z M 137.242,573.221 L 137.242,573.221 L 137.198,573.289 C 137.196,573.291 137.195,573.294 137.193,573.301 C 137.193,573.3 137.191,573.303 137.19,573.307 C 137.18,573.326 137.165,573.372 137.152,573.423 L 137.154,573.413 C 137.151,573.424 137.148,573.437 137.144,573.45 L 137.141,573.466 L 137.127,573.526 L 137.065,573.566 L 136.846,573.566 C 136.797,573.566 136.743,573.567 136.681,573.562 C 136.664,573.562 136.644,573.56 136.619,573.555 C 136.567,573.553 136.506,573.544 136.44,573.529 L 136.344,573.501 L 136.411,573.5 L 136.435,573.5 L 136.165,573.443 L 136.305,573.496 L 136.008,573.502 C 134.188,573.537 131.601,573.587 128.97,573.639 L 128.97,573.646 C 131.601,573.594 134.189,573.544 136.008,573.508 L 136.324,573.502 L 136.439,573.534 C 136.509,573.551 136.573,573.559 136.619,573.555 C 136.667,573.569 136.7,573.57 136.681,573.562 C 136.836,573.574 136.919,573.567 136.984,573.571 L 137.057,573.571 L 137.016,573.598 C 136.916,573.652 136.762,573.717 136.539,573.765 C 136.462,573.755 136.378,573.738 136.285,573.71 C 136.327,573.71 136.369,573.709 136.411,573.709 L 136.071,573.63 C 136.147,573.664 136.218,573.69 136.285,573.71 C 134.151,573.739 131.596,573.774 128.97,573.809 L 128.97,574.052 C 131.57,573.986 134.099,573.922 136.226,573.869 L 136.227,573.873 L 136.235,574.06 L 136.235,574.062 L 135.896,573.983 C 136.02,574.039 136.134,574.078 136.237,574.105 C 136.189,574.106 136.141,574.107 136.093,574.108 L 135.861,574.054 C 135.907,574.074 135.952,574.093 135.995,574.109 C 133.881,574.144 131.45,574.184 128.97,574.226 L 128.97,574.29 C 131.651,574.251 134.126,574.216 136.227,574.185 C 136.233,574.186 136.24,574.188 136.246,574.19 L 136.246,574.187 L 136.253,574.28 L 136.266,574.387 L 135.753,574.274 L 136.127,574.413 L 136.183,574.425 L 135.287,574.435 C 132.752,574.463 130.884,574.485 130.884,574.485 C 130.598,574.49 130.098,574.499 129.424,574.512 C 129.28,574.513 129.128,574.515 128.97,574.516 L 128.97,574.522 C 129.13,574.521 129.28,574.519 129.424,574.518 C 130.098,574.506 130.598,574.496 130.885,574.491 C 130.885,574.491 132.752,574.469 135.288,574.44 L 136.211,574.43 L 136.273,574.442 L 136.431,575.731 C 136.499,576.718 136.475,577.729 136.409,578.686 L 136.393,578.867 C 136.356,578.87 136.322,578.873 136.289,578.877 L 136.263,578.879 L 136.257,578.581 C 136.256,578.581 136.256,578.586 136.256,578.596 L 136.256,578.565 C 136.255,578.568 136.255,578.621 136.255,578.742 L 136.255,578.88 L 136.212,578.884 L 135.467,578.884 L 135.398,578.883 C 135.398,578.883 135.274,578.883 135.037,578.884 L 134.264,578.884 C 133.027,578.882 131.707,578.891 130.411,578.862 C 129.926,578.852 129.445,578.835 128.97,578.811 L 128.97,578.805 L 128.97,578.817 C 129.445,578.841 129.926,578.858 130.411,578.868 C 131.317,578.888 132.236,578.89 133.13,578.89 C 132.729,578.891 132.281,578.892 131.792,578.894 C 130.954,578.891 129.996,578.883 128.97,578.834 L 128.97,578.833 L 128.97,578.84 C 129.996,578.888 130.954,578.897 131.792,578.899 C 133.35,578.895 134.49,578.891 135.037,578.89 L 135.467,578.89 L 135.951,578.898 L 136.182,578.902 L 136.189,578.995 C 136.189,579.007 136.19,579.02 136.191,579.034 L 136.149,579.035 C 136.04,579.035 135.929,579.036 135.814,579.036 C 135.586,579.038 135.347,579.039 135.1,579.041 C 134.113,579.046 132.978,579.051 131.727,579.058 C 130.855,579.056 129.924,579.048 128.97,579.006 L 128.97,579.003 L 128.97,580.692 C 129.264,580.712 129.559,580.729 129.856,580.743 C 131.074,580.803 132.33,580.826 133.62,580.855 C 134.265,580.87 134.919,580.886 135.581,580.901 L 136.081,580.914 C 136.172,580.914 136.226,580.922 136.357,580.915 L 136.608,580.899 C 136.671,580.896 136.734,580.894 136.795,580.894 C 136.604,581.023 136.384,581.142 136.153,581.261 C 135.932,581.377 135.699,581.493 135.458,581.638 C 135.199,581.787 134.979,581.981 134.78,582.141 C 133.956,582.817 133.157,583.558 132.354,584.305 L 132.324,584.339 C 131.685,585.03 131.002,585.761 130.342,586.578 C 130.016,586.978 129.678,587.434 129.39,587.85 C 129.256,588.037 129.112,588.231 128.97,588.445 L 128.97,588.457 L 128.97,591.506 L 129.193,591.542 C 129.416,591.434 129.632,591.273 129.798,591.101 C 129.964,590.931 130.086,590.755 130.178,590.605 C 130.172,590.615 130.248,590.502 130.398,590.214 L 130.466,590.049 C 130.495,589.996 130.552,589.88 130.694,589.666 C 130.765,589.558 130.857,589.427 130.973,589.268 C 131.099,589.095 131.239,588.903 131.39,588.692 C 131.936,587.928 132.766,586.966 133.846,585.775 C 134.317,585.325 134.815,584.844 135.345,584.356 C 135.612,584.112 135.885,583.864 136.166,583.623 L 136.364,583.455 C 136.39,583.434 136.428,583.399 136.443,583.389 L 136.485,583.362 C 136.588,583.292 136.732,583.208 136.901,583.113 C 136.901,583.113 137.038,583.035 137.304,582.885 C 137.447,582.799 137.635,582.692 137.883,582.518 C 138.126,582.342 138.447,582.099 138.78,581.665 L 138.924,580.041 C 138.847,579.895 138.747,579.751 138.633,579.626 C 138.533,579.52 138.433,579.44 138.32,579.36 C 138.133,579.235 137.941,579.155 137.816,579.118 C 137.529,579.027 137.344,579.012 137.172,578.998 C 136.862,578.978 136.611,578.997 136.385,579.017 L 136.397,578.892 L 136.715,578.877 C 136.845,578.872 136.989,578.874 137.156,578.886 C 137.32,578.899 137.517,578.918 137.802,579.003 C 137.883,579.03 137.938,579.046 138.037,579.09 C 138.137,579.136 138.23,579.183 138.327,579.244 C 138.453,579.326 138.572,579.424 138.677,579.529 L 139.01,579.997 L 138.858,581.723 L 138.346,582.263 C 138.174,582.411 138.007,582.532 137.853,582.632 C 137.543,582.836 137.262,582.983 137.029,583.107 C 136.802,583.227 136.585,583.346 136.487,583.41 L 136.408,583.467 C 136.303,583.548 136.135,583.69 136.004,583.802 L 133.9,585.731 L 133.921,585.703 L 133.842,585.788 L 132.813,586.95 C 132.47,587.349 132.152,587.735 131.866,588.11 C 131.574,588.484 131.341,588.84 131.054,589.247 C 130.807,589.596 130.627,589.894 130.553,590.078 L 130.48,590.256 C 130.37,590.464 130.236,590.725 130.032,590.979 C 129.931,591.106 129.81,591.23 129.674,591.341 L 129.235,591.624 L 128.97,591.582 L 128.97,591.588 L 129.237,591.63 C 129.551,591.48 129.835,591.239 130.036,590.983 C 130.241,590.728 130.375,590.467 130.486,590.258 L 130.558,590.08 C 130.632,589.897 130.812,589.599 131.06,589.25 C 131.347,588.844 131.58,588.487 131.87,588.113 C 132.156,587.738 132.474,587.353 132.818,586.954 L 133.86,585.776 L 136.007,583.806 C 136.183,583.658 136.424,583.455 136.49,583.415 C 136.588,583.351 136.804,583.232 137.032,583.112 C 137.265,582.989 137.545,582.841 137.857,582.637 C 138.164,582.436 138.53,582.156 138.863,581.726 L 139.016,579.994 C 138.929,579.826 138.81,579.66 138.682,579.524 C 138.575,579.418 138.456,579.322 138.331,579.238 C 138.232,579.178 138.14,579.13 138.04,579.085 C 137.94,579.041 137.885,579.024 137.804,578.997 C 137.518,578.912 137.321,578.893 137.157,578.881 C 136.989,578.868 136.845,578.867 136.714,578.87 L 136.397,578.886 L 136.398,578.877 L 136.398,578.873 C 136.523,578.863 136.662,578.854 136.812,578.852 C 137.011,578.851 137.222,578.85 137.534,578.905 C 137.624,578.924 137.683,578.933 137.8,578.969 C 137.907,579.003 137.994,579.028 138.144,579.103 C 138.211,579.137 138.275,579.171 138.341,579.211 C 138.428,579.268 138.512,579.33 138.59,579.398 C 138.628,579.432 138.667,579.467 138.703,579.504 C 138.746,579.546 138.79,579.598 138.83,579.65 L 139.043,579.98 L 138.887,581.746 L 138.485,582.194 C 138.093,582.575 137.737,582.765 137.475,582.931 C 137.175,583.102 136.914,583.25 136.699,583.371 L 136.533,583.477 C 136.524,583.479 136.459,583.536 136.429,583.562 L 136.296,583.674 C 135.781,584.122 135.21,584.661 134.585,585.264 L 134.03,585.796 L 133.943,585.889 L 133.093,586.86 C 132.783,587.22 132.476,587.585 132.184,587.957 C 132.038,588.144 131.895,588.332 131.756,588.522 C 131.615,588.714 131.495,588.893 131.329,589.138 C 131.027,589.558 130.79,589.923 130.71,590.13 L 130.627,590.328 C 130.544,590.48 130.438,590.697 130.243,590.967 C 130.207,591.018 130.164,591.072 130.105,591.13 C 130.068,591.197 130,591.27 129.943,591.31 C 129.882,591.375 129.813,591.438 129.738,591.483 C 129.694,591.531 129.649,591.564 129.605,591.594 L 129.379,591.725 L 129.307,591.768 L 128.97,591.714 L 128.97,591.719 L 129.308,591.774 C 129.435,591.714 129.554,591.64 129.663,591.562 C 129.693,591.539 129.723,591.516 129.738,591.483 C 129.813,591.444 129.871,591.393 129.943,591.31 C 130.009,591.25 130.068,591.187 130.105,591.13 C 130.173,591.072 130.212,591.02 130.248,590.97 C 130.443,590.7 130.549,590.483 130.632,590.332 L 130.715,590.132 C 130.796,589.926 131.032,589.562 131.334,589.141 C 131.501,588.896 131.62,588.718 131.762,588.525 C 131.9,588.335 132.043,588.147 132.189,587.961 C 132.48,587.588 132.787,587.223 133.097,586.864 L 133.973,585.867 L 134.589,585.268 C 135.214,584.665 135.785,584.126 136.3,583.679 L 136.432,583.566 C 136.465,583.539 136.527,583.485 136.535,583.484 L 136.701,583.376 L 137.057,583.175 C 137.187,583.101 137.327,583.022 137.477,582.937 C 137.829,582.715 138.342,582.449 138.894,581.748 L 139.049,579.978 C 138.989,579.863 138.918,579.75 138.834,579.646 C 138.795,579.595 138.75,579.543 138.707,579.498 C 138.671,579.463 138.634,579.428 138.594,579.393 C 138.515,579.326 138.431,579.262 138.346,579.206 C 138.278,579.166 138.215,579.131 138.147,579.098 C 137.996,579.023 137.909,578.997 137.802,578.963 C 137.684,578.926 137.625,578.918 137.535,578.898 C 137.222,578.843 137.011,578.844 136.811,578.845 C 136.662,578.848 136.523,578.857 136.399,578.867 L 136.414,578.686 C 136.481,577.731 136.505,576.718 136.436,575.731 L 136.278,574.443 L 136.437,574.477 C 136.473,574.481 136.507,574.484 136.539,574.487 C 136.685,575.401 136.717,576.205 136.726,576.843 C 136.735,577.539 136.714,578.04 136.718,578.297 C 136.718,578.297 136.754,577.884 136.773,577.166 C 136.786,576.501 136.777,575.572 136.615,574.492 C 136.717,574.497 136.802,574.496 136.872,574.499 L 136.884,574.498 L 136.893,574.499 C 137.139,575.978 137.111,577.062 137.156,577.41 C 137.156,577.41 137.171,577.091 137.165,576.523 C 137.158,576.021 137.131,575.324 137.01,574.496 L 137.035,574.494 L 137.051,574.281 L 137.071,573.98 C 137.077,573.902 137.086,573.822 137.099,573.743 L 137.119,573.627 L 137.119,573.626 C 137.126,573.647 137.131,573.67 137.135,573.694 C 137.156,573.812 137.158,573.948 137.161,574.057 L 137.167,574.138 C 137.28,574.826 137.316,575.209 137.348,575.516 C 137.322,575.209 137.286,574.826 137.172,574.136 L 137.167,574.057 C 137.164,573.947 137.161,573.811 137.141,573.693 C 137.136,573.664 137.13,573.637 137.123,573.614 L 137.122,573.612 L 137.137,573.528 L 137.144,573.522 L 137.149,573.517 L 137.161,573.508 L 137.166,573.5 L 137.167,573.498 C 137.167,573.498 137.166,573.499 137.166,573.5 C 137.166,573.499 137.167,573.498 137.167,573.498 L 137.175,573.488 L 137.208,573.357 L 137.244,573.224 C 137.244,573.223 137.245,573.222 137.246,573.222 C 137.245,573.222 137.244,573.223 137.244,573.223 L 137.245,573.218 C 137.244,573.219 137.243,573.22 137.242,573.221 Z M 137.243,573.224 L 137.244,573.224 L 137.243,573.224 Z M 137.237,573.24 L 137.219,573.3 L 137.164,573.493 L 137.151,573.506 L 137.138,573.518 L 137.154,573.44 L 137.158,573.421 C 137.171,573.368 137.187,573.327 137.201,573.299 C 137.201,573.299 137.204,573.293 137.206,573.288 L 137.237,573.24 Z M 136.206,573.452 L 136.386,573.495 L 136.324,573.496 L 136.309,573.492 L 136.206,573.452 Z M 137.118,573.537 L 137.097,573.562 L 137.08,573.566 L 137.076,573.566 L 137.118,573.537 Z M 137.125,573.537 L 137.117,573.567 L 137.101,573.559 L 137.125,573.537 Z M 137.122,573.571 L 137.12,573.571 L 137.122,573.571 Z M 137.116,573.597 L 137.115,573.594 C 137.116,573.587 137.118,573.58 137.119,573.571 L 137.12,573.571 C 137.118,573.58 137.116,573.588 137.116,573.597 Z M 137.115,573.594 L 137.107,573.572 L 137.119,573.571 C 137.118,573.579 137.116,573.587 137.115,573.594 Z M 137.046,573.587 L 137.045,573.588 C 137.044,573.588 137.04,573.589 137.033,573.594 L 137.031,573.594 L 137.04,573.589 C 137.035,573.594 137.028,573.597 137.022,573.6 L 137.026,573.598 L 137.022,573.6 L 137.066,573.571 L 137.068,573.571 C 137.06,573.578 137.053,573.583 137.046,573.587 Z M 137.08,573.571 L 137.101,573.572 L 137.112,573.605 C 137.112,573.608 137.112,573.61 137.112,573.611 C 137.109,573.631 137.107,573.641 137.109,573.638 C 137.105,573.656 137.105,573.664 137.104,573.67 L 137.104,573.671 C 137.104,573.672 137.104,573.673 137.104,573.675 L 137.104,573.676 L 137.103,573.678 L 137.103,573.684 L 137.102,573.69 L 137.093,573.743 C 137.09,573.76 137.087,573.779 137.085,573.795 C 137.084,573.796 137.084,573.791 137.085,573.779 L 136.936,573.78 C 136.932,573.745 136.927,573.715 136.922,573.692 C 136.918,573.675 136.914,573.661 136.91,573.657 L 136.909,573.653 C 136.904,573.656 136.908,573.655 136.937,573.642 C 136.957,573.632 136.974,573.624 137.001,573.61 C 137.009,573.607 137.014,573.605 137.019,573.602 L 137.021,573.601 C 137.028,573.598 137.035,573.594 137.044,573.589 L 137.04,573.589 C 137.041,573.589 137.044,573.588 137.045,573.588 L 137.046,573.587 C 137.052,573.583 137.057,573.58 137.07,573.571 L 137.08,573.571 Z M 137.115,573.594 L 137.115,573.594 L 137.115,573.595 L 137.115,573.594 L 137.115,573.594 Z M 137.022,573.6 L 137.02,573.601 C 137.019,573.602 137.019,573.602 137.019,573.602 L 137.022,573.6 Z M 137.022,573.6 L 137.021,573.601 C 137.019,573.602 137.018,573.603 137.016,573.603 L 137.016,573.603 L 137.02,573.601 C 137.02,573.601 137.021,573.601 137.022,573.6 Z M 137.019,573.602 L 137.016,573.603 L 137.016,573.603 C 137.016,573.603 137.018,573.602 137.019,573.602 Z M 137.113,573.605 L 137.112,573.605 L 137.113,573.605 Z M 137.113,573.605 L 137.114,573.61 C 137.114,573.613 137.113,573.615 137.113,573.619 C 137.11,573.634 137.108,573.64 137.109,573.638 C 137.108,573.639 137.11,573.628 137.112,573.611 C 137.112,573.61 137.112,573.608 137.113,573.606 L 137.113,573.605 Z M 137.104,573.674 C 137.104,573.674 137.104,573.673 137.104,573.671 L 137.104,573.67 C 137.105,573.664 137.107,573.653 137.113,573.619 C 137.108,573.639 137.105,573.657 137.104,573.674 Z M 137.105,573.673 L 137.104,573.677 C 137.105,573.675 137.105,573.675 137.105,573.673 Z M 137.104,573.675 L 137.104,573.677 L 137.104,573.676 L 137.104,573.675 L 137.104,573.674 L 137.104,573.675 Z M 137.104,573.677 L 137.103,573.682 L 137.103,573.678 L 137.104,573.677 Z M 137.103,573.682 L 137.102,573.689 L 137.102,573.688 L 137.103,573.684 L 137.103,573.682 Z M 136.793,573.718 C 136.797,573.734 136.802,573.754 136.806,573.779 C 136.735,573.779 136.653,573.778 136.549,573.765 L 136.561,573.762 L 136.564,573.761 L 136.63,573.745 L 136.637,573.743 L 136.638,573.743 C 136.636,573.743 136.634,573.744 136.632,573.745 L 136.639,573.743 L 136.638,573.743 C 136.636,573.743 136.634,573.744 136.633,573.744 L 136.628,573.746 L 136.561,573.762 C 136.564,573.764 136.585,573.76 136.634,573.744 C 136.638,573.743 136.641,573.743 136.644,573.741 C 136.648,573.74 136.653,573.738 136.658,573.737 C 136.675,573.732 136.691,573.728 136.703,573.724 C 136.729,573.722 136.759,573.712 136.786,573.704 C 136.788,573.706 136.794,573.71 136.793,573.718 Z M 136.658,573.737 C 136.653,573.739 136.647,573.74 136.642,573.742 L 136.638,573.743 C 136.661,573.736 136.682,573.73 136.696,573.726 C 136.682,573.73 136.669,573.734 136.658,573.737 Z M 136.644,573.741 L 136.638,573.743 C 136.639,573.743 136.641,573.742 136.642,573.742 L 136.644,573.741 Z M 136.634,573.744 L 136.632,573.745 L 136.633,573.744 L 136.634,573.744 Z M 136.564,573.761 L 136.563,573.761 L 136.564,573.761 Z M 136.563,573.761 L 136.561,573.762 L 136.563,573.761 Z M 136.549,573.765 L 136.537,573.768 L 136.538,573.77 C 136.543,573.783 136.551,573.836 136.556,573.92 C 136.531,573.917 136.505,573.914 136.479,573.911 C 136.474,573.842 136.468,573.798 136.463,573.787 C 136.472,573.785 136.48,573.784 136.488,573.782 C 136.49,573.781 136.492,573.78 136.549,573.765 L 136.549,573.765 Z M 136.003,573.769 L 136.24,573.824 L 136.221,573.832 L 136.224,573.854 C 136.154,573.832 136.081,573.804 136.003,573.769 Z M 136.897,573.78 L 136.933,573.78 L 136.936,573.78 C 136.942,573.822 136.945,573.871 136.947,573.926 L 136.945,573.927 L 136.896,573.928 C 136.873,573.928 136.848,573.928 136.822,573.928 C 136.818,573.869 136.813,573.818 136.806,573.779 C 136.839,573.779 136.869,573.779 136.897,573.78 Z M 136.25,573.827 L 136.411,573.865 C 136.365,573.865 136.321,573.867 136.275,573.868 C 136.26,573.864 136.246,573.86 136.23,573.855 L 136.227,573.832 L 136.25,573.827 Z M 136.479,573.911 C 136.481,573.951 136.483,574.001 136.484,574.06 L 136.491,574.155 L 136.491,574.154 L 136.491,574.155 C 136.416,574.146 136.334,574.131 136.245,574.107 L 136.245,574.105 C 136.301,574.104 136.356,574.103 136.411,574.103 L 136.242,574.063 L 136.242,574.06 C 136.24,573.971 136.238,573.913 136.233,573.873 L 136.232,573.869 C 136.247,573.869 136.261,573.868 136.275,573.868 C 136.348,573.888 136.416,573.901 136.479,573.911 Z M 136.822,573.928 C 136.824,573.968 136.826,574.012 136.828,574.058 L 136.837,574.172 C 136.763,574.171 136.674,574.172 136.567,574.164 L 136.559,574.06 C 136.559,574.006 136.558,573.96 136.556,573.92 C 136.659,573.93 136.747,573.928 136.822,573.928 Z M 137.064,573.98 L 137.052,574.171 L 137.046,574.171 L 137.011,574.172 L 136.959,574.172 C 136.959,574.172 136.959,574.171 136.959,574.17 L 136.95,574.058 C 136.95,574.012 136.949,573.968 136.947,573.926 L 137.07,573.923 C 137.067,573.942 137.065,573.962 137.064,573.98 Z M 136.24,574.105 L 136.24,574.106 C 136.239,574.106 136.238,574.105 136.237,574.105 L 136.24,574.105 Z M 136.093,574.108 L 136.242,574.143 L 136.246,574.185 L 136.227,574.185 C 136.155,574.166 136.077,574.142 135.995,574.109 C 136.027,574.108 136.061,574.108 136.093,574.108 Z M 136.248,574.144 L 136.412,574.182 C 136.358,574.183 136.305,574.183 136.251,574.184 L 136.248,574.144 Z M 136.491,574.155 C 136.517,574.159 136.543,574.161 136.567,574.164 L 136.572,574.23 C 136.573,574.234 136.575,574.239 136.575,574.244 C 136.551,574.242 136.525,574.239 136.498,574.236 L 136.491,574.155 Z M 136.895,574.173 L 136.959,574.172 C 136.963,574.199 136.969,574.225 136.972,574.251 L 136.971,574.251 L 136.896,574.252 C 136.88,574.251 136.866,574.251 136.849,574.251 C 136.846,574.23 136.842,574.209 136.838,574.188 L 136.837,574.172 L 136.837,574.172 C 136.857,574.172 136.877,574.172 136.895,574.173 Z M 136.251,574.188 L 136.251,574.192 C 136.342,574.213 136.424,574.228 136.498,574.236 L 136.499,574.242 C 136.512,574.323 136.526,574.402 136.538,574.481 C 136.506,574.479 136.473,574.474 136.438,574.47 L 136.277,574.432 L 136.412,574.428 L 136.437,574.428 L 136.272,574.389 L 136.258,574.279 L 136.251,574.188 Z M 136.849,574.251 C 136.865,574.332 136.878,574.413 136.892,574.492 L 136.883,574.492 L 136.872,574.493 L 136.685,574.489 C 136.662,574.488 136.638,574.487 136.614,574.486 C 136.602,574.406 136.589,574.325 136.575,574.244 C 136.685,574.252 136.775,574.25 136.849,574.251 Z M 137.047,574.25 L 137.045,574.28 L 137.03,574.49 L 137.009,574.491 C 136.998,574.412 136.985,574.332 136.972,574.251 L 137.011,574.251 L 137.042,574.25 L 137.047,574.25 Z M 135.799,574.285 L 136.267,574.394 L 136.27,574.423 L 136.211,574.423 L 136.128,574.407 L 135.799,574.285 Z M 136.273,574.395 L 136.387,574.421 L 136.276,574.423 L 136.273,574.395 Z M 136.391,578.873 L 136.391,578.877 L 136.39,578.887 L 136.355,578.889 L 136.264,578.895 L 136.263,578.885 L 136.289,578.883 C 136.322,578.88 136.356,578.877 136.391,578.873 Z M 136.181,578.89 L 136.181,578.894 L 135.952,578.892 L 135.813,578.89 L 136.181,578.89 Z M 136.213,578.89 L 136.239,578.89 L 136.256,578.89 L 136.256,578.896 L 136.242,578.896 L 136.227,578.896 L 136.193,578.895 L 136.193,578.891 L 136.213,578.89 Z M 136.39,578.893 L 136.38,579.017 C 136.363,579.019 136.347,579.021 136.33,579.022 L 136.264,579.028 L 136.264,578.902 L 136.356,578.895 L 136.39,578.893 Z M 136.242,578.903 L 136.254,578.904 L 136.255,579.029 L 136.209,579.034 L 136.199,579.034 L 136.194,578.906 L 136.214,578.905 L 136.242,578.903 Z M 136.255,579.034 L 136.199,579.035 L 136.209,579.034 L 136.255,579.034 Z M 136.795,580.894 L 136.795,580.894 M 133.846,585.775 C 133.843,585.777 133.839,585.78 133.837,585.783 L 133.915,585.698 C 133.891,585.724 133.869,585.749 133.846,585.775 Z M 129.663,591.562 L 129.605,591.595 L 129.605,591.594 L 129.663,591.562 Z" fill-rule="evenodd" fill="#b0836c" stroke-width="0.199" marker-start="none" marker-end="none"/>
   <path d="M 128.006,572.617 L 128.006,590.656 L 119.25,580.414 L 119.25,572.617 L 128.006,572.617 Z" fill="#b0836c" fill-rule="evenodd" stroke-width="0.199" marker-start="none" marker-end="none"/>
  </g>
 </g>
</svg>
