<?xml version="1.0" standalone="no"?>
<!DOCTYPE svg PUBLIC "-//W3C//DTD SVG 1.1//EN" "http://www.w3.org/Graphics/SVG/1.1/DTD/svg11.dtd">
<!--Generator: Xara Designer (www.xara.com), SVG filter version: 6.6.0.7-->
<svg fill="none" fill-rule="evenodd" stroke="black" stroke-width="0.501" stroke-linejoin="bevel" stroke-miterlimit="10" font-family="Times New Roman" font-size="16" style="font-variant-ligatures:none" xmlns:xlink="http://www.w3.org/1999/xlink" xmlns="http://www.w3.org/2000/svg" version="1.1" overflow="visible" width="75.973pt" height="17.468pt" viewBox="636.28 -70.131 75.973 17.468">
 <defs>
  <style type="text/css">@import url('https://themes.googleusercontent.com/fonts/css?family=Open Sans:400,600');</style>
 </defs>
 <g id="Inserate" transform="scale(1 -1)">
  <path d="M 712.253,59.066 L 712.056,57.83 C 711.798,58.011 711.541,58.131 711.223,58.208 C 710.957,58.311 710.682,58.345 710.365,58.345 C 710.064,58.345 709.824,58.268 709.644,58.191 C 709.463,58.071 709.386,57.908 709.386,57.727 C 709.386,57.573 709.463,57.487 709.583,57.367 C 709.704,57.29 709.944,57.169 710.365,57.049 L 710.699,56.972 C 711.137,56.852 711.438,56.654 711.618,56.448 C 711.798,56.191 711.935,55.933 711.935,55.538 C 711.935,54.955 711.678,54.5 711.223,54.156 C 710.802,53.822 710.184,53.659 709.386,53.659 C 709.068,53.659 708.725,53.702 708.39,53.719 C 708.047,53.779 707.747,53.882 707.412,54.002 L 707.652,55.212 C 707.927,55.075 708.227,54.912 708.545,54.817 C 708.811,54.697 709.146,54.68 709.463,54.68 C 709.781,54.68 710.107,54.74 710.279,54.86 C 710.502,54.972 710.579,55.152 710.579,55.375 C 710.579,55.538 710.519,55.616 710.442,55.71 C 710.304,55.796 710.064,55.933 709.644,56.053 L 709.206,56.131 C 708.811,56.251 708.545,56.448 708.33,56.654 C 708.15,56.912 708.047,57.169 708.047,57.547 C 708.047,58.088 708.27,58.526 708.725,58.869 C 709.189,59.187 709.721,59.384 710.502,59.384 C 710.759,59.384 711.077,59.341 711.377,59.281 C 711.678,59.264 711.995,59.161 712.253,59.066" stroke-linejoin="miter" stroke="none" stroke-width="0.18" fill="#00bf02"/>
  <path d="M 659.265,54.002 C 658.991,53.882 658.75,53.779 658.467,53.719 C 658.227,53.702 657.995,53.659 657.669,53.659 C 656.914,53.659 656.338,53.882 655.918,54.294 C 655.514,54.757 655.3,55.418 655.3,56.251 C 655.3,56.989 655.42,57.684 655.635,58.405 C 655.875,59.066 656.175,59.641 656.579,60.079 C 656.896,60.44 657.257,60.723 657.669,60.895 C 658.072,61.075 658.527,61.178 659.051,61.178 C 659.308,61.178 659.566,61.135 659.823,61.075 C 660.081,61.015 660.347,60.938 660.587,60.817 L 660.287,59.221 C 660.081,59.461 659.944,59.624 659.703,59.702 C 659.446,59.839 659.171,59.899 658.905,59.899 C 658.647,59.899 658.39,59.839 658.132,59.641 C 657.892,59.504 657.669,59.281 657.532,59.006 C 657.291,58.663 657.094,58.251 656.956,57.744 C 656.836,57.272 656.759,56.809 656.759,56.388 C 656.759,55.933 656.853,55.538 657.034,55.272 C 657.291,55.032 657.549,54.912 657.935,54.912 C 658.193,54.912 658.467,54.972 658.708,55.075 C 658.991,55.195 659.265,55.332 659.566,55.59 L 659.265,54.002" stroke="none" fill="#00bf02" stroke-width="0.18" stroke-linejoin="miter"/>
  <path d="M 664.793,57.109 C 664.793,57.487 664.716,57.744 664.553,57.95 C 664.39,58.131 664.193,58.208 663.918,58.208 C 663.514,58.208 663.214,58.011 662.896,57.573 C 662.656,57.109 662.502,56.569 662.502,55.89 C 662.502,55.556 662.596,55.272 662.759,55.092 C 662.896,54.878 663.12,54.8 663.394,54.8 C 663.798,54.8 664.132,55.015 664.373,55.478 C 664.656,55.933 664.793,56.448 664.793,57.109 Z M 661.059,55.856 C 661.059,56.912 661.343,57.744 661.901,58.405 C 662.441,59.049 663.154,59.384 663.995,59.384 C 664.716,59.384 665.231,59.187 665.626,58.809 C 666.029,58.405 666.21,57.847 666.21,57.169 C 666.21,56.114 665.952,55.272 665.411,54.62 C 664.853,53.976 664.193,53.659 663.3,53.659 C 662.596,53.659 662.038,53.839 661.66,54.234 C 661.283,54.637 661.059,55.152 661.059,55.856 Z" stroke="none" fill="#00bf02" stroke-width="0.18" stroke-linejoin="miter" marker-start="none" marker-end="none"/>
  <path d="M 669.283,55.59 C 669.257,55.496 669.257,55.435 669.223,55.418 C 669.223,55.332 669.223,55.272 669.223,55.272 C 669.223,55.135 669.283,55.032 669.377,54.972 C 669.48,54.912 669.66,54.878 669.935,54.878 L 671.274,54.878 L 671.051,53.779 L 669.6,53.779 C 668.957,53.779 668.502,53.882 668.184,54.062 C 667.926,54.234 667.781,54.56 667.781,54.972 C 667.781,55.032 667.781,55.135 667.781,55.255 C 667.823,55.332 667.841,55.496 667.884,55.616 L 668.862,60.26 L 667.386,60.26 L 667.583,61.358 L 670.519,61.358 L 669.283,55.59" stroke="none" fill="#00bf02" stroke-width="0.18" stroke-linejoin="miter"/>
  <path d="M 674.665,55.59 C 674.665,55.496 674.622,55.435 674.622,55.418 C 674.622,55.332 674.622,55.272 674.622,55.272 C 674.622,55.135 674.708,55.032 674.785,54.972 C 674.879,54.912 675.06,54.878 675.3,54.878 L 676.656,54.878 L 676.442,53.779 L 674.999,53.779 C 674.321,53.779 673.866,53.882 673.583,54.062 C 673.326,54.234 673.171,54.56 673.171,54.972 C 673.171,55.032 673.188,55.135 673.188,55.255 C 673.188,55.332 673.266,55.496 673.266,55.616 L 674.244,60.26 L 672.768,60.26 L 672.991,61.358 L 675.884,61.358 L 674.665,55.59" stroke="none" fill="#00bf02" stroke-width="0.18" stroke-linejoin="miter"/>
  <path d="M 681.686,57.109 C 681.686,57.169 681.686,57.212 681.686,57.229 C 681.686,57.29 681.686,57.332 681.686,57.367 C 681.686,57.633 681.626,57.89 681.489,58.028 C 681.283,58.191 681.085,58.268 680.768,58.268 C 680.467,58.268 680.184,58.148 679.952,57.968 C 679.729,57.787 679.549,57.487 679.394,57.109 L 681.686,57.109 Z M 682.244,54.062 C 681.944,53.899 681.626,53.822 681.283,53.762 C 680.965,53.702 680.63,53.659 680.244,53.659 C 679.446,53.659 678.811,53.839 678.416,54.234 C 677.995,54.62 677.815,55.152 677.815,55.933 C 677.815,56.388 677.832,56.809 678.012,57.229 C 678.15,57.667 678.356,58.028 678.613,58.345 C 678.871,58.663 679.214,58.929 679.592,59.101 C 679.952,59.281 680.364,59.384 680.768,59.384 C 681.489,59.384 682.021,59.187 682.424,58.809 C 682.819,58.405 683.042,57.89 683.042,57.229 C 683.042,57.109 683.042,56.929 683,56.749 C 682.982,56.569 682.939,56.311 682.922,56.053 L 679.214,56.053 C 679.214,55.993 679.188,55.95 679.188,55.89 C 679.188,55.856 679.188,55.796 679.188,55.736 C 679.188,55.435 679.274,55.195 679.532,55.015 C 679.729,54.86 680.047,54.757 680.467,54.757 C 680.828,54.757 681.163,54.817 681.54,54.955 C 681.866,55.032 682.201,55.152 682.519,55.375 L 682.244,54.062 Z" stroke="none" fill="#00bf02" stroke-width="0.18" stroke-linejoin="miter" marker-start="none" marker-end="none"/>
  <path d="M 688.047,53.976 C 687.806,53.839 687.549,53.779 687.291,53.719 C 687.025,53.702 686.768,53.659 686.493,53.659 C 685.755,53.659 685.171,53.839 684.733,54.234 C 684.356,54.68 684.141,55.212 684.141,55.89 C 684.141,56.929 684.433,57.744 685.051,58.405 C 685.635,59.049 686.433,59.384 687.369,59.384 C 687.669,59.384 687.944,59.324 688.261,59.264 C 688.527,59.187 688.785,59.101 689.025,58.989 L 688.785,57.633 C 688.588,57.847 688.382,58.011 688.124,58.071 C 687.927,58.148 687.669,58.208 687.472,58.208 C 686.888,58.208 686.45,58.011 686.09,57.607 C 685.755,57.212 685.575,56.689 685.575,56.053 C 685.575,55.616 685.652,55.315 685.875,55.135 C 686.055,54.912 686.373,54.817 686.768,54.817 C 686.965,54.817 687.249,54.86 687.489,54.955 C 687.746,55.015 688.004,55.152 688.321,55.315 L 688.047,53.976" stroke="none" fill="#00bf02" stroke-width="0.18" stroke-linejoin="miter"/>
  <path d="M 693.515,60.783 L 693.214,59.221 L 695.103,59.221 L 694.845,58.148 L 693.034,58.148 L 692.493,55.59 C 692.493,55.496 692.476,55.478 692.476,55.418 C 692.476,55.332 692.476,55.315 692.476,55.272 C 692.476,55.135 692.493,55.032 692.631,54.972 C 692.716,54.912 692.888,54.878 693.154,54.878 L 694.244,54.878 L 694.03,53.779 L 692.828,53.779 C 692.176,53.779 691.712,53.882 691.394,54.062 C 691.154,54.234 691,54.56 691,54.955 C 691,55.032 691,55.135 691.034,55.212 C 691.034,55.332 691.06,55.478 691.094,55.616 L 691.592,58.148 L 690.218,58.148 L 690.399,59.221 L 691.798,59.221 L 692.116,60.783 L 693.515,60.783" stroke="none" fill="#00bf02" stroke-width="0.18" stroke-linejoin="miter"/>
  <path d="M 699.532,57.109 C 699.532,57.487 699.437,57.744 699.274,57.95 C 699.137,58.131 698.957,58.208 698.639,58.208 C 698.236,58.208 697.918,58.011 697.661,57.573 C 697.403,57.109 697.24,56.569 697.24,55.89 C 697.24,55.556 697.317,55.272 697.48,55.092 C 697.635,54.878 697.841,54.8 698.116,54.8 C 698.519,54.8 698.837,55.015 699.094,55.478 C 699.377,55.933 699.532,56.448 699.532,57.109 Z M 695.824,55.856 C 695.824,56.912 696.081,57.744 696.622,58.405 C 697.137,59.049 697.841,59.384 698.734,59.384 C 699.437,59.384 699.995,59.187 700.347,58.809 C 700.751,58.405 700.965,57.847 700.965,57.169 C 700.965,56.114 700.648,55.272 700.133,54.62 C 699.592,53.976 698.897,53.659 698.038,53.659 C 697.317,53.659 696.802,53.839 696.425,54.234 C 696.021,54.637 695.824,55.152 695.824,55.856 Z" stroke="none" fill="#00bf02" stroke-width="0.18" stroke-linejoin="miter" marker-start="none" marker-end="none"/>
  <path d="M 706.854,57.744 C 706.716,57.89 706.553,58.011 706.33,58.071 C 706.193,58.131 705.935,58.148 705.738,58.148 C 705.18,58.148 704.759,58.028 704.476,57.727 C 704.184,57.453 703.978,56.972 703.841,56.294 L 703.386,53.779 L 701.944,53.779 L 702.983,59.221 L 704.416,59.221 L 704.236,58.405 C 704.442,58.706 704.699,58.946 705.017,59.101 C 705.334,59.281 705.695,59.384 706.073,59.384 C 706.27,59.384 706.45,59.341 706.656,59.281 C 706.837,59.264 706.974,59.187 707.128,59.066 L 706.854,57.744" stroke="none" fill="#00bf02" stroke-width="0.18" stroke-linejoin="miter"/>
  <path d="M 640.939,61.418 L 640.939,61.933 L 654.338,61.933 L 654.338,61.418 L 640.939,61.418 Z M 640.939,62.311 L 640.939,62.732 L 654.338,62.732 L 654.338,62.311 L 640.939,62.311 Z M 640.939,63.23 L 640.939,63.496 L 654.338,63.496 L 654.338,63.23 L 640.939,63.23 Z M 643.808,64.148 L 643.808,64.328 L 648.713,64.328 L 648.713,64.148 L 643.808,64.148 Z M 644.97,64.989 L 644.97,65.127 L 648.507,65.127 L 648.507,64.989 L 644.97,64.989 Z" stroke-linejoin="miter" stroke="none" stroke-width="0.18" fill="#00bf02" marker-start="none" marker-end="none"/>
  <path d="M 645.128,55.736 L 640.939,61.401 L 640.939,61.401 L 640.939,61.401 L 648.021,67.024 L 647.205,63.813 C 647.205,63.813 651.926,63.813 654.338,63.813 C 654.218,67.478 651.549,70.131 647.557,70.131 C 642.733,70.131 637.832,66.225 636.57,61.401 C 635.317,56.569 638.244,52.663 643.077,52.663 C 647.042,52.663 651.111,55.315 653.102,58.989 C 649.712,58.989 645.943,58.989 645.943,58.989 L 645.128,55.736" stroke="none" stroke-width="0.18" fill="#00bf02" stroke-linejoin="miter"/>
 </g>
</svg>
