<?xml version="1.0" standalone="no"?>
<!DOCTYPE svg PUBLIC "-//W3C//DTD SVG 1.1//EN" "http://www.w3.org/Graphics/SVG/1.1/DTD/svg11.dtd">
<!--Generator: Xara Designer (www.xara.com), SVG filter version: 6.6.0.0-->
<svg fill="none" fill-rule="evenodd" stroke="black" stroke-width="0.501" stroke-linejoin="bevel" stroke-miterlimit="10" font-family="Times New Roman" font-size="16" style="font-variant-ligatures:none" xmlns:xlink="http://www.w3.org/1999/xlink" xmlns="http://www.w3.org/2000/svg" version="1.1" overflow="visible" width="52.114pt" height="17.4pt" viewBox="48.225 -437.219 52.114 17.4">
 <defs>
	</defs>
 <g id="Layer 1" transform="scale(1 -1)"/>
 <g id="Sponsoren" transform="scale(1 -1)">
  <g id="Group" stroke-linejoin="miter" stroke="none" stroke-width="0.14">
   <path d="M 100.339,419.819 L 48.225,419.819 L 48.225,437.219 L 100.339,437.219 L 100.339,419.819 Z" fill="#a4acb0" marker-start="none" marker-end="none"/>
   <path d="M 48.225,421.494 L 48.225,422.116 L 48.945,422.116 L 48.945,423.476 L 49.246,423.476 C 50.017,423.476 50.629,423.776 50.629,424.615 C 50.629,425.469 49.915,425.695 49.136,425.695 L 48.225,425.695 L 48.225,426.315 L 100.339,426.315 L 100.339,425.695 L 99.651,425.695 L 99.651,423.02 L 99.643,423.02 L 98.279,425.695 L 97.397,425.695 L 97.397,422.116 L 98.083,422.116 L 98.083,424.792 L 98.092,424.792 L 99.463,422.116 L 100.339,422.116 L 100.339,421.494 L 48.225,421.494 Z M 64.325,422.433 L 64.565,422.116 L 65.449,422.116 L 64.808,422.834 C 65.095,423.175 65.244,423.603 65.265,424.061 L 64.639,424.061 C 64.628,423.783 64.587,423.481 64.412,423.279 L 63.756,423.998 C 64.145,424.222 64.449,424.454 64.449,424.946 C 64.449,425.528 63.919,425.759 63.417,425.759 C 62.913,425.759 62.329,425.487 62.329,424.941 C 62.329,424.532 62.551,424.342 62.825,424.079 C 62.256,423.84 62.071,423.525 62.071,423.096 C 62.071,422.421 62.642,422.052 63.348,422.052 C 63.704,422.052 64.074,422.176 64.325,422.433 Z M 74.726,423.139 C 74.726,424.337 73.154,424.074 73.154,424.697 C 73.154,425.085 73.473,425.193 73.718,425.193 C 73.969,425.193 74.222,425.136 74.448,425.041 L 74.515,425.629 C 74.253,425.717 73.966,425.759 73.657,425.759 C 73.026,425.759 72.405,425.467 72.405,424.667 C 72.405,423.481 73.975,423.761 73.975,423.078 C 73.975,422.756 73.61,422.618 73.338,422.618 C 73.058,422.618 72.775,422.705 72.529,422.838 L 72.46,422.193 C 72.815,422.105 72.988,422.052 73.379,422.052 C 74.103,422.052 74.726,422.351 74.726,423.139 Z M 79.753,422.237 L 79.753,424.168 L 78.306,424.168 L 78.306,423.603 L 79.066,423.603 L 79.066,422.669 C 78.941,422.639 78.789,422.618 78.593,422.618 C 77.83,422.618 77.376,423.165 77.376,423.896 C 77.376,424.628 77.838,425.193 78.675,425.193 C 78.963,425.193 79.322,425.132 79.598,425.005 L 79.645,425.61 C 79.338,425.7 79.01,425.759 78.593,425.759 C 77.376,425.759 76.626,425.07 76.626,423.843 C 76.626,422.636 77.433,422.052 78.593,422.052 C 78.978,422.052 79.372,422.136 79.753,422.237 Z M 88.973,423.915 C 88.973,425 88.343,425.759 87.219,425.759 C 86.08,425.759 85.462,425.014 85.462,423.915 C 85.462,422.818 86.069,422.052 87.219,422.052 C 88.353,422.052 88.973,422.834 88.973,423.915 Z M 51.796,422.116 L 51.796,423.603 L 52.029,423.603 C 52.331,423.603 52.423,423.499 52.527,423.233 L 52.958,422.116 L 53.757,422.116 L 53.181,423.516 C 53.11,423.677 52.996,423.872 52.802,423.886 L 52.802,423.896 C 53.256,423.958 53.542,424.309 53.542,424.729 C 53.542,425.723 52.623,425.695 51.854,425.695 L 51.08,425.695 L 51.08,422.116 L 51.796,422.116 Z M 54.931,422.116 L 54.931,425.695 L 54.212,425.695 L 54.212,422.116 L 54.931,422.116 Z M 56.353,422.116 L 56.353,424.792 L 56.365,424.792 L 57.735,422.116 L 58.61,422.116 L 58.61,425.695 L 57.924,425.695 L 57.924,423.02 L 57.912,423.02 L 56.549,425.695 L 55.665,425.695 L 55.665,422.116 L 56.353,422.116 Z M 60.777,422.116 L 60.777,425.132 L 61.802,425.132 L 61.802,425.695 L 59.032,425.695 L 59.032,425.132 L 60.059,425.132 L 60.059,422.116 L 60.777,422.116 Z M 69.013,423.905 C 69.013,425.328 68.044,425.695 66.945,425.695 L 65.966,425.695 L 65.966,422.116 L 66.945,422.116 C 68.044,422.116 69.013,422.485 69.013,423.905 Z M 71.793,422.116 L 71.793,422.679 L 70.388,422.679 L 70.388,423.686 L 71.665,423.686 L 71.665,424.251 L 70.388,424.251 L 70.388,425.132 L 71.784,425.132 L 71.784,425.695 L 69.669,425.695 L 69.669,422.116 L 71.793,422.116 Z M 76.032,422.116 L 76.032,425.695 L 75.314,425.695 L 75.314,422.116 L 76.032,422.116 Z M 81.159,422.116 L 81.159,424.792 L 81.171,424.792 L 82.538,422.116 L 83.415,422.116 L 83.415,425.695 L 82.731,425.695 L 82.731,423.02 L 82.72,423.02 L 81.355,425.695 L 80.47,425.695 L 80.47,422.116 L 81.159,422.116 Z M 91.74,422.116 L 91.74,422.679 L 90.349,422.679 L 90.349,425.695 L 89.631,425.695 L 89.631,422.116 L 91.74,422.116 Z M 93.095,422.116 L 93.095,425.132 L 94.12,425.132 L 94.12,425.695 L 91.352,425.695 L 91.352,425.132 L 92.377,425.132 L 92.377,422.116 L 93.095,422.116 Z M 96.701,422.116 L 96.701,422.679 L 95.296,422.679 L 95.296,423.686 L 96.576,423.686 L 96.576,424.251 L 95.296,424.251 L 95.296,425.132 L 96.693,425.132 L 96.693,425.695 L 94.58,425.695 L 94.58,422.116 L 96.701,422.116 Z M 62.758,423.115 C 62.758,423.399 62.959,423.567 63.197,423.691 L 63.991,422.802 C 63.832,422.649 63.606,422.587 63.366,422.587 C 63.033,422.587 62.758,422.802 62.758,423.115 Z M 86.213,423.915 C 86.213,424.547 86.507,425.193 87.219,425.193 C 87.934,425.193 88.223,424.547 88.223,423.915 C 88.223,423.27 87.954,422.618 87.219,422.618 C 86.487,422.618 86.213,423.27 86.213,423.915 Z M 66.684,422.679 L 66.684,425.132 L 67.083,425.132 C 67.683,425.132 68.264,424.686 68.264,423.905 C 68.264,423.125 67.683,422.679 67.083,422.679 L 66.684,422.679 Z M 48.945,424.038 L 48.945,425.132 L 49.198,425.132 C 49.566,425.132 49.879,424.987 49.879,424.572 C 49.879,424.157 49.553,424.038 49.198,424.038 L 48.945,424.038 Z M 51.796,424.168 L 51.796,425.132 L 52.031,425.132 C 52.392,425.132 52.791,425.098 52.791,424.667 C 52.791,424.218 52.386,424.168 52.031,424.168 L 51.796,424.168 Z M 63.016,424.875 C 63.016,425.136 63.224,425.256 63.427,425.256 C 63.634,425.256 63.823,425.136 63.823,424.885 C 63.823,424.676 63.535,424.459 63.356,424.366 C 63.216,424.506 63.016,424.676 63.016,424.875 Z M 48.225,430.471 L 48.225,432 C 48.414,433.443 49.18,434.585 50.868,434.585 C 51.721,434.585 52.298,434.311 52.791,433.678 L 52.818,433.678 L 52.818,437.219 L 54.497,437.219 L 54.497,428.02 L 52.874,428.02 L 52.874,428.734 L 52.848,428.734 C 52.353,428.1 51.665,427.854 50.868,427.854 C 49.18,427.854 48.414,429.034 48.225,430.471 Z M 58.92,431.176 C 58.92,433.046 59.91,434.585 61.914,434.585 C 64.278,434.585 64.963,432.938 64.963,430.712 L 60.514,430.712 C 60.597,429.668 61.311,429.089 62.355,429.089 C 63.152,429.089 63.868,429.394 64.499,429.722 L 64.499,428.377 C 63.868,428.045 63.179,427.854 62.271,427.854 C 60.157,427.854 58.92,429.089 58.92,431.176 Z M 66.64,429.942 L 66.64,433.21 L 65.404,433.21 L 65.404,434.447 L 66.64,434.447 L 66.64,435.711 L 68.316,436.263 L 68.316,434.447 L 69.801,434.447 L 69.801,433.21 L 68.316,433.21 L 68.316,430.218 C 68.316,429.668 68.456,429.144 69.115,429.144 C 69.391,429.144 69.691,429.224 69.857,429.336 L 69.911,428.02 C 69.555,427.908 69.169,427.854 68.675,427.854 C 67.356,427.854 66.64,428.68 66.64,429.942 Z M 70.817,428.128 L 70.929,429.5 C 71.449,429.254 72.001,429.089 72.578,429.089 C 72.988,429.089 73.676,429.254 73.676,429.86 C 73.676,431.122 70.765,430.27 70.765,432.58 C 70.765,433.98 71.973,434.585 73.293,434.585 C 74.065,434.585 74.584,434.447 75.105,434.337 L 74.994,433.075 C 74.474,433.266 74.116,433.351 73.484,433.351 C 73.046,433.351 72.495,433.21 72.495,432.662 C 72.495,431.618 75.406,432.277 75.406,429.942 C 75.406,428.457 74.089,427.854 72.717,427.854 C 72.081,427.854 71.424,427.961 70.817,428.128 Z M 76.369,431.258 C 76.369,433.1 77.468,434.585 79.474,434.585 C 80.161,434.585 80.657,434.502 81.094,434.367 L 80.959,433.046 C 80.657,433.185 80.325,433.293 79.833,433.293 C 78.789,433.293 78.129,432.47 78.129,431.258 C 78.129,430.079 78.676,429.144 79.858,429.144 C 80.325,429.144 80.849,429.336 81.151,429.446 L 81.206,428.074 C 80.739,427.908 80.243,427.854 79.556,427.854 C 77.441,427.854 76.369,429.281 76.369,431.258 Z M 56.006,428.02 L 56.006,434.447 L 57.684,434.447 L 57.684,428.02 L 56.006,428.02 Z M 82.415,428.02 L 82.415,437.219 L 84.063,437.219 L 84.063,433.569 L 84.09,433.569 C 84.53,434.172 85.243,434.585 86.123,434.585 C 87.635,434.585 88.295,433.513 88.295,432.058 L 88.295,428.02 L 86.618,428.02 L 86.618,431.454 C 86.618,432.223 86.618,433.293 85.547,433.293 C 84.338,433.293 84.063,431.974 84.063,431.151 L 84.063,428.02 L 82.415,428.02 Z M 90,428.02 L 90,434.447 L 91.675,434.447 L 91.675,428.02 L 90,428.02 Z M 52.791,431.233 C 52.791,432.14 52.382,433.293 51.309,433.293 C 50.209,433.293 49.934,432.112 49.934,431.233 C 49.934,430.353 50.237,429.144 51.337,429.144 C 52.435,429.144 52.791,430.326 52.791,431.233 Z M 61.998,433.351 C 61.064,433.351 60.597,432.718 60.514,431.866 L 63.371,431.866 C 63.314,432.662 62.931,433.351 61.998,433.351 Z M 56.006,435.604 L 56.006,437.219 L 57.684,437.219 L 57.684,435.604 L 56.006,435.604 Z M 90,435.604 L 90,437.219 L 91.675,437.219 L 91.675,435.604 L 90,435.604 Z" fill="#e03127" marker-start="none" marker-end="none"/>
  </g>
 </g>
 <g id="Content" transform="scale(1 -1)"/>
 <g id="Logo Vektor" transform="scale(1 -1)"/>
</svg>
