<?xml version="1.0" standalone="no"?>
<!DOCTYPE svg PUBLIC "-//W3C//DTD SVG 1.1//EN" "http://www.w3.org/Graphics/SVG/1.1/DTD/svg11.dtd">
<!--Generator: Xara Designer (www.xara.com), SVG filter version: 6.6.0.7-->
<svg fill="none" fill-rule="evenodd" stroke="black" stroke-width="0.501" stroke-linejoin="bevel" stroke-miterlimit="10" font-family="Times New Roman" font-size="16" style="font-variant-ligatures:none" xmlns:xlink="http://www.w3.org/1999/xlink" xmlns="http://www.w3.org/2000/svg" version="1.1" overflow="visible" width="71.265pt" height="99.683pt" viewBox="0.093 -103.387 71.265 99.683">
 <defs>
	</defs>
 <g id="Layer 1" transform="scale(1 -1)">
  <path d="M 12.084,67.92 L 11.92,65.473 L 4.557,65.473 L 4.557,75.439 L 12.053,75.439 L 11.89,72.978 L 7.63,72.978 L 7.63,71.62 L 11.797,71.62 L 11.633,69.277 L 7.63,69.277 L 7.63,67.92 L 12.084,67.92 Z" fill="#0052a4" stroke="none" stroke-width="0.25" fill-rule="nonzero" stroke-linejoin="miter" marker-start="none" marker-end="none"/>
  <path d="M 24.678,70.62 L 24.678,65.473 L 21.665,65.473 L 21.665,70.188 C 21.665,70.874 21.47,71.113 21.004,71.113 C 20.765,71.113 20.57,71.009 20.435,70.889 L 20.435,65.473 L 17.421,65.473 L 17.421,70.173 C 17.421,70.919 17.256,71.098 16.791,71.098 C 16.566,71.098 16.341,70.948 16.191,70.8 L 16.191,65.473 L 13.178,65.473 L 13.178,73.156 L 16.057,73.156 L 16.162,72.052 C 16.521,72.858 17.091,73.381 18.036,73.381 C 19.265,73.381 20.015,72.888 20.315,71.978 C 20.705,73.007 21.44,73.381 22.384,73.381 C 23.914,73.381 24.678,72.381 24.678,70.62 Z" fill="#0052a4" stroke="none" stroke-width="0.25" fill-rule="nonzero" stroke-linejoin="miter" marker-start="none" marker-end="none"/>
  <path d="M 28.936,74.216 L 25.922,74.216 L 25.922,76.484 L 28.936,76.484 L 28.936,74.216 Z" fill="#0052a4" stroke="none" stroke-width="0.25" fill-rule="nonzero" stroke-linejoin="miter" marker-start="none" marker-end="none"/>
  <path d="M 28.936,65.473 L 25.922,65.473 L 25.922,73.156 L 28.936,73.156 L 28.936,65.473 Z" fill="#0052a4" stroke="none" stroke-width="0.25" fill-rule="nonzero" stroke-linejoin="miter" marker-start="none" marker-end="none"/>
  <path d="M 33.24,65.473 L 30.226,65.473 L 30.226,76.484 L 33.24,76.484 L 33.24,65.473 Z" fill="#0052a4" stroke="none" stroke-width="0.25" fill-rule="nonzero" stroke-linejoin="miter" marker-start="none" marker-end="none"/>
  <path d="M 33.24,93.838 L 33.24,86.081 L 28.992,86.081 L 28.992,81.833 L 15.767,81.833 C 19.081,88.398 25.584,93.078 33.24,93.838 Z M 37.645,93.838 C 45.301,93.078 51.803,88.398 55.117,81.833 L 41.893,81.833 L 41.893,86.081 L 37.645,86.081 L 37.645,93.838 Z M 33.24,77.585 L 33.24,81.833 L 37.645,81.833 L 37.645,77.585 L 56.733,77.585 L 66.395,77.585 C 66.146,78.942 65.806,80.297 65.368,81.645 C 64.795,83.408 64.08,85.085 63.241,86.67 L 60.342,83.309 C 58.813,86.648 56.631,89.627 53.96,92.081 C 53.961,92.081 53.961,92.081 53.962,92.081 L 58.06,93.802 C 56.811,95.09 55.438,96.288 53.937,97.378 C 52.437,98.468 50.873,99.404 49.263,100.193 L 48.893,95.768 C 45.781,97.527 42.291,98.693 38.575,99.117 L 40.879,102.918 C 39.112,103.225 37.297,103.387 35.442,103.387 C 33.588,103.387 31.771,103.225 30.006,102.918 L 32.309,99.117 C 28.593,98.693 25.103,97.527 21.991,95.768 L 21.621,100.193 C 20.012,99.404 18.447,98.468 16.947,97.378 C 15.447,96.288 14.073,95.09 12.825,93.802 L 16.922,92.081 C 16.923,92.081 16.924,92.081 16.924,92.081 C 14.254,89.627 12.072,86.648 10.542,83.309 L 7.643,86.67 C 6.804,85.085 6.089,83.408 5.516,81.645 C 5.079,80.297 4.738,78.942 4.489,77.585 L 14.152,77.585 L 33.24,77.585 Z" fill="#0052a4" stroke="none" stroke-width="0.25" fill-rule="nonzero" stroke-linejoin="miter" marker-start="none" marker-end="none"/>
  <path d="M 54.253,70.158 L 56.307,70.158 C 56.232,71.143 55.767,71.366 55.242,71.366 C 54.703,71.366 54.358,71.083 54.253,70.158 Z M 58.885,68.577 L 54.373,68.577 C 54.477,67.652 55.078,67.398 56.457,67.398 C 57.177,67.398 57.926,67.502 58.646,67.741 L 58.426,65.771 C 57.796,65.503 56.907,65.294 55.812,65.294 C 52.514,65.294 51.359,66.995 51.359,69.337 C 51.359,71.769 52.62,73.335 55.229,73.335 C 58.153,73.335 58.946,71.322 58.946,69.472 C 58.946,69.173 58.916,68.845 58.885,68.577 Z M 50.954,73.142 L 50.654,70.337 C 50.459,70.352 50.234,70.367 50.024,70.367 C 49.44,70.367 48.9,70.263 48.525,70.009 L 48.525,65.473 L 45.378,65.473 L 45.511,73.156 L 48.39,73.156 L 48.525,71.337 C 48.84,72.739 49.485,73.276 50.205,73.276 C 50.384,73.276 50.685,73.246 50.954,73.142 Z M 40.718,73.007 L 40.718,71.62 L 44.445,71.62 L 44.327,69.248 L 40.718,69.248 L 40.718,65.473 L 37.645,65.473 L 37.645,75.439 L 44.687,75.439 L 44.568,73.007 L 40.718,73.007 Z" fill="#0052a4" stroke="none" stroke-width="0.25" fill-rule="nonzero" stroke-linejoin="miter" marker-start="none" marker-end="none"/>
  <path d="M 66.887,73.156 L 64.378,66.545 C 63.326,63.804 62.785,63.181 60.772,63.181 C 60.516,63.181 59.9,63.268 59.509,63.398 L 59.684,65.309 C 60.015,65.222 60.315,65.179 60.676,65.179 C 61.127,65.179 61.442,65.266 61.577,65.657 L 58.865,73.156 L 61.854,73.156 L 62.921,68.865 L 63.957,73.156 L 66.887,73.156 Z" fill="#0052a4" stroke="none" stroke-width="0.25" fill-rule="nonzero" stroke-linejoin="miter" marker-start="none" marker-end="none"/>
  <path d="M 45.437,58.152 C 45.05,57.871 44.509,57.957 44.229,58.343 C 43.947,58.73 44.033,59.271 44.42,59.552 C 44.806,59.833 45.348,59.747 45.629,59.361 C 45.909,58.974 45.824,58.433 45.437,58.152 Z M 40.695,55.749 C 40.24,55.602 39.752,55.85 39.605,56.305 C 39.457,56.759 39.706,57.247 40.16,57.395 C 40.615,57.543 41.102,57.294 41.25,56.84 C 41.398,56.385 41.149,55.897 40.695,55.749 Z M 35.442,54.93 C 34.965,54.93 34.577,55.317 34.577,55.795 C 34.577,56.273 34.965,56.66 35.442,56.66 C 35.92,56.66 36.307,56.273 36.307,55.795 C 36.307,55.317 35.92,54.93 35.442,54.93 Z M 31.284,56.329 C 31.136,55.875 30.648,55.626 30.193,55.773 C 29.739,55.921 29.49,56.409 29.638,56.864 C 29.786,57.318 30.273,57.567 30.728,57.42 C 31.182,57.272 31.431,56.784 31.284,56.329 Z M 26.671,58.39 C 26.39,58.003 25.849,57.917 25.463,58.198 C 25.076,58.479 24.99,59.02 25.271,59.406 C 25.552,59.793 26.093,59.879 26.48,59.598 C 26.866,59.317 26.952,58.776 26.671,58.39 Z M 43.581,62.324 C 41.386,60.461 38.547,59.335 35.442,59.335 C 32.338,59.335 29.498,60.461 27.303,62.324 L 19.094,62.324 C 22.389,56.724 28.475,52.963 35.442,52.963 C 42.41,52.963 48.495,56.724 51.79,62.324 L 43.581,62.324 Z" fill="#0052a4" stroke="none" stroke-width="0.25" fill-rule="nonzero" stroke-linejoin="miter" marker-start="none" marker-end="none"/>
  <path d="M 34.565,40.458 L 32.993,40.541 L 33.077,42.112 L 34.648,42.029 L 34.565,40.458 Z" fill="#0052a4" stroke="none" stroke-width="0.25" fill-rule="nonzero" stroke-linejoin="miter" marker-start="none" marker-end="none"/>
  <path d="M 31.248,40.726 L 29.694,40.975 L 29.943,42.529 L 31.496,42.28 L 31.248,40.726 Z" fill="#0052a4" stroke="none" stroke-width="0.25" fill-rule="nonzero" stroke-linejoin="miter" marker-start="none" marker-end="none"/>
  <path d="M 27.978,41.343 L 26.459,41.755 L 26.871,43.273 L 28.389,42.862 L 27.978,41.343 Z" fill="#0052a4" stroke="none" stroke-width="0.25" fill-rule="nonzero" stroke-linejoin="miter" marker-start="none" marker-end="none"/>
  <path d="M 24.791,42.302 L 23.325,42.872 L 23.894,44.338 L 25.361,43.769 L 24.791,42.302 Z" fill="#0052a4" stroke="none" stroke-width="0.25" fill-rule="nonzero" stroke-linejoin="miter" marker-start="none" marker-end="none"/>
  <path d="M 21.724,43.592 L 20.326,44.313 L 21.047,45.712 L 22.445,44.99 L 21.724,43.592 Z" fill="#0052a4" stroke="none" stroke-width="0.25" fill-rule="nonzero" stroke-linejoin="miter" marker-start="none" marker-end="none"/>
  <path d="M 18.81,45.199 L 17.496,46.063 L 18.361,47.378 L 19.675,46.513 L 18.81,45.199 Z" fill="#0052a4" stroke="none" stroke-width="0.25" fill-rule="nonzero" stroke-linejoin="miter" marker-start="none" marker-end="none"/>
  <path d="M 16.082,47.104 L 14.866,48.102 L 15.865,49.318 L 17.081,48.32 L 16.082,47.104 Z" fill="#0052a4" stroke="none" stroke-width="0.25" fill-rule="nonzero" stroke-linejoin="miter" marker-start="none" marker-end="none"/>
  <path d="M 13.57,49.286 L 12.466,50.407 L 13.588,51.511 L 14.691,50.39 L 13.57,49.286 Z" fill="#0052a4" stroke="none" stroke-width="0.25" fill-rule="nonzero" stroke-linejoin="miter" marker-start="none" marker-end="none"/>
  <path d="M 11.303,51.722 L 10.324,52.953 L 11.555,53.932 L 12.534,52.701 L 11.303,51.722 Z" fill="#0052a4" stroke="none" stroke-width="0.25" fill-rule="nonzero" stroke-linejoin="miter" marker-start="none" marker-end="none"/>
  <path d="M 9.305,54.383 L 8.461,55.711 L 9.789,56.555 L 10.633,55.227 L 9.305,54.383 Z" fill="#0052a4" stroke="none" stroke-width="0.25" fill-rule="nonzero" stroke-linejoin="miter" marker-start="none" marker-end="none"/>
  <path d="M 7.6,57.24 L 6.901,58.65 L 8.311,59.349 L 9.009,57.939 L 7.6,57.24 Z" fill="#0052a4" stroke="none" stroke-width="0.25" fill-rule="nonzero" stroke-linejoin="miter" marker-start="none" marker-end="none"/>
  <path d="M 6.205,60.262 L 5.66,61.737 L 7.135,62.284 L 7.681,60.808 L 6.205,60.262 Z" fill="#0052a4" stroke="none" stroke-width="0.25" fill-rule="nonzero" stroke-linejoin="miter" marker-start="none" marker-end="none"/>
  <path d="M 37.891,40.541 L 36.32,40.458 L 36.237,42.029 L 37.807,42.112 L 37.891,40.541 Z" fill="#0052a4" stroke="none" stroke-width="0.25" fill-rule="nonzero" stroke-linejoin="miter" marker-start="none" marker-end="none"/>
  <path d="M 41.19,40.975 L 39.637,40.726 L 39.388,42.28 L 40.941,42.529 L 41.19,40.975 Z" fill="#0052a4" stroke="none" stroke-width="0.25" fill-rule="nonzero" stroke-linejoin="miter" marker-start="none" marker-end="none"/>
  <path d="M 44.425,41.755 L 42.906,41.343 L 42.495,42.862 L 44.014,43.273 L 44.425,41.755 Z" fill="#0052a4" stroke="none" stroke-width="0.25" fill-rule="nonzero" stroke-linejoin="miter" marker-start="none" marker-end="none"/>
  <path d="M 47.56,42.872 L 46.093,42.302 L 45.523,43.769 L 46.99,44.338 L 47.56,42.872 Z" fill="#0052a4" stroke="none" stroke-width="0.25" fill-rule="nonzero" stroke-linejoin="miter" marker-start="none" marker-end="none"/>
  <path d="M 50.559,44.313 L 49.16,43.592 L 48.439,44.99 L 49.838,45.712 L 50.559,44.313 Z" fill="#0052a4" stroke="none" stroke-width="0.25" fill-rule="nonzero" stroke-linejoin="miter" marker-start="none" marker-end="none"/>
  <path d="M 53.389,46.063 L 52.074,45.199 L 51.209,46.513 L 52.524,47.378 L 53.389,46.063 Z" fill="#0052a4" stroke="none" stroke-width="0.25" fill-rule="nonzero" stroke-linejoin="miter" marker-start="none" marker-end="none"/>
  <path d="M 56.018,48.102 L 54.802,47.104 L 53.804,48.32 L 55.02,49.318 L 56.018,48.102 Z" fill="#0052a4" stroke="none" stroke-width="0.25" fill-rule="nonzero" stroke-linejoin="miter" marker-start="none" marker-end="none"/>
  <path d="M 58.418,50.407 L 57.314,49.286 L 56.193,50.39 L 57.296,51.511 L 58.418,50.407 Z" fill="#0052a4" stroke="none" stroke-width="0.25" fill-rule="nonzero" stroke-linejoin="miter" marker-start="none" marker-end="none"/>
  <path d="M 60.561,52.953 L 59.582,51.722 L 58.35,52.701 L 59.329,53.932 L 60.561,52.953 Z" fill="#0052a4" stroke="none" stroke-width="0.25" fill-rule="nonzero" stroke-linejoin="miter" marker-start="none" marker-end="none"/>
  <path d="M 62.422,55.711 L 61.579,54.383 L 60.251,55.227 L 61.094,56.555 L 62.422,55.711 Z" fill="#0052a4" stroke="none" stroke-width="0.25" fill-rule="nonzero" stroke-linejoin="miter" marker-start="none" marker-end="none"/>
  <path d="M 63.983,58.65 L 63.284,57.24 L 61.875,57.939 L 62.574,59.349 L 63.983,58.65 Z" fill="#0052a4" stroke="none" stroke-width="0.25" fill-rule="nonzero" stroke-linejoin="miter" marker-start="none" marker-end="none"/>
  <path d="M 65.225,61.737 L 64.679,60.262 L 63.203,60.808 L 63.749,62.284 L 65.225,61.737 Z" fill="#0052a4" stroke="none" stroke-width="0.25" fill-rule="nonzero" stroke-linejoin="miter" marker-start="none" marker-end="none"/>
  <path d="M 61.855,59.668 L 62.478,61.112 L 61.17,61.677 C 61.255,61.892 61.342,62.106 61.423,62.324 L 61.086,62.324 L 59.739,62.324 L 59.399,62.324 C 55.59,52.827 46.3,46.119 35.442,46.119 C 24.584,46.119 15.293,52.827 11.485,62.324 L 11.145,62.324 L 9.798,62.324 L 9.461,62.324 C 9.542,62.106 9.629,61.892 9.715,61.677 L 8.406,61.112 L 9.03,59.668 L 10.337,60.232 C 10.528,59.822 10.731,59.418 10.942,59.019 L 9.699,58.318 L 10.471,56.948 L 11.712,57.647 C 11.945,57.259 12.19,56.88 12.443,56.505 L 11.278,55.677 L 12.191,54.395 L 13.356,55.225 C 13.629,54.865 13.908,54.51 14.198,54.164 L 13.129,53.216 L 14.171,52.039 L 15.244,52.988 C 15.553,52.659 15.867,52.335 16.192,52.02 L 15.227,50.966 L 16.389,49.904 L 17.355,50.961 C 17.697,50.666 18.045,50.379 18.401,50.1 L 17.553,48.948 L 18.82,48.016 L 19.667,49.166 C 20.038,48.909 20.416,48.661 20.799,48.422 L 20.078,47.188 L 21.436,46.395 L 22.155,47.624 C 22.55,47.407 22.954,47.202 23.361,47.005 L 22.775,45.704 L 24.209,45.059 L 24.793,46.356 C 25.21,46.182 25.631,46.019 26.057,45.865 L 25.614,44.514 L 27.109,44.023 L 27.553,45.377 C 27.985,45.248 28.42,45.128 28.861,45.02 L 28.562,43.629 L 30.1,43.299 L 30.4,44.695 C 30.842,44.613 31.289,44.542 31.738,44.482 L 31.588,43.061 L 33.152,42.895 L 33.302,44.314 C 33.75,44.28 34.202,44.259 34.656,44.247 L 34.656,42.816 L 36.229,42.816 L 36.229,44.247 C 36.682,44.259 37.134,44.28 37.582,44.314 L 37.732,42.895 L 39.297,43.061 L 39.146,44.482 C 39.596,44.542 40.042,44.613 40.484,44.695 L 40.784,43.299 L 42.322,43.629 L 42.023,45.02 C 42.465,45.128 42.899,45.248 43.332,45.377 L 43.776,44.023 L 45.27,44.514 L 44.827,45.865 C 45.253,46.019 45.674,46.182 46.09,46.356 L 46.674,45.059 L 48.109,45.704 L 47.524,47.005 C 47.931,47.202 48.334,47.407 48.73,47.624 L 49.448,46.395 L 50.806,47.188 L 50.086,48.422 C 50.469,48.661 50.847,48.909 51.217,49.166 L 52.064,48.016 L 53.331,48.948 L 52.484,50.1 C 52.84,50.379 53.188,50.666 53.529,50.961 L 54.495,49.904 L 55.656,50.966 L 54.693,52.02 C 55.017,52.335 55.332,52.659 55.641,52.988 L 56.713,52.039 L 57.756,53.216 L 56.686,54.164 C 56.976,54.51 57.256,54.865 57.529,55.225 L 58.693,54.395 L 59.606,55.677 L 58.442,56.505 C 58.693,56.88 58.939,57.259 59.172,57.647 L 60.414,56.948 L 61.185,58.318 L 59.943,59.019 C 60.153,59.418 60.355,59.822 60.547,60.232 L 61.855,59.668 Z" fill="#0052a4" stroke="none" stroke-width="0.25" fill-rule="nonzero" stroke-linejoin="miter" marker-start="none" marker-end="none"/>
  <path d="M 35.442,51.783 C 27.795,51.783 21.144,56.046 17.734,62.324 L 12.76,62.324 C 16.502,53.494 25.248,47.3 35.442,47.3 C 45.636,47.3 54.382,53.494 58.123,62.324 L 53.151,62.324 C 49.741,56.046 43.09,51.783 35.442,51.783 Z" fill="#0052a4" stroke="none" stroke-width="0.25" fill-rule="nonzero" stroke-linejoin="miter" marker-start="none" marker-end="none"/>
  <g id="Group" fill-rule="nonzero" stroke-linejoin="miter" stroke="none" stroke-width="0.25" fill="#0052a4">
   <g id="Group_1">
    <path d="M 7.502,18.915 L 8.866,18.915 L 5.311,28.876 L 3.648,28.876 L 0.093,18.915 L 1.353,18.915 L 2.193,21.314 L 6.691,21.314 L 7.502,18.915 Z M 2.567,22.411 L 4.471,27.854 L 6.317,22.411 L 2.567,22.411 Z" marker-start="none" marker-end="none"/>
    <path d="M 14.703,26.594 L 14.703,21.001 C 14.238,20.266 13.606,19.859 12.766,19.859 C 11.536,19.859 10.996,20.565 10.996,21.734 L 10.996,26.594 L 9.723,26.594 L 9.723,21.584 C 9.723,19.696 10.8,18.736 12.392,18.736 C 13.518,18.736 14.221,19.231 14.762,20.236 L 14.837,18.915 L 15.976,18.915 L 15.976,26.594 L 14.703,26.594 Z" marker-start="none" marker-end="none"/>
    <path d="M 19.126,21.193 L 19.126,25.471 L 21.811,25.471 L 21.977,26.594 L 19.126,26.594 L 19.126,28.664 L 17.853,28.664 L 17.853,21.031 C 17.853,19.455 18.842,18.736 20.298,18.736 C 20.747,18.736 21.303,18.856 21.753,19.11 L 21.915,20.25 C 21.408,19.966 20.896,19.859 20.402,19.859 C 19.695,19.859 19.126,20.204 19.126,21.193 Z" marker-start="none" marker-end="none"/>
    <path d="M 26.311,18.736 C 28.548,18.736 29.912,20.295 29.912,22.756 C 29.912,25.171 28.548,26.776 26.311,26.776 C 24.078,26.776 22.728,25.171 22.728,22.756 C 22.728,20.341 24.078,18.736 26.311,18.736 Z M 26.311,19.859 C 24.827,19.859 24.004,20.865 24.004,22.756 C 24.004,24.644 24.827,25.65 26.311,25.65 C 27.858,25.65 28.639,24.644 28.639,22.756 C 28.639,20.865 27.812,19.859 26.311,19.859 Z" marker-start="none" marker-end="none"/>
    <path d="M 36.59,19.156 L 36.814,20.37 C 36.245,20.009 35.568,19.8 34.803,19.8 C 33.273,19.8 32.3,20.79 32.3,22.798 C 32.3,24.719 33.273,25.708 34.79,25.708 C 35.48,25.708 36.079,25.546 36.603,25.259 L 36.785,26.34 C 36.17,26.685 35.48,26.818 34.744,26.818 C 32.449,26.818 31.024,25.23 31.024,22.756 C 31.024,20.279 32.449,18.69 34.744,18.69 C 35.434,18.69 36.004,18.824 36.59,19.156 Z" marker-start="none" marker-end="none"/>
    <path d="M 44.269,23.114 C 44.269,25.2 43.338,26.776 40.997,26.776 C 39.139,26.776 37.668,25.454 37.668,22.785 C 37.668,20.266 38.944,18.736 41.434,18.736 C 42.212,18.736 43.052,18.886 43.787,19.319 L 43.966,20.595 C 43.172,20.041 42.348,19.859 41.538,19.859 C 39.949,19.859 39.123,20.686 38.973,22.261 L 44.223,22.261 C 44.253,22.469 44.269,22.889 44.269,23.114 Z M 41.027,25.65 C 42.482,25.65 43.022,24.689 43.052,23.326 L 38.956,23.326 C 39.077,24.901 39.738,25.65 41.027,25.65 Z" marker-start="none" marker-end="none"/>
    <path d="M 49.428,26.776 C 48.288,26.776 47.582,26.265 47.042,25.259 L 46.967,26.594 L 45.844,26.594 L 45.844,18.915 L 47.116,18.915 L 47.116,24.54 C 47.582,25.259 48.214,25.65 49.037,25.65 C 50.284,25.65 50.808,24.943 50.808,23.775 L 50.808,18.915 L 52.084,18.915 L 52.084,23.924 C 52.084,25.816 51.016,26.776 49.428,26.776 Z" marker-start="none" marker-end="none"/>
    <path d="M 55.171,21.193 L 55.171,25.471 L 57.856,25.471 L 58.022,26.594 L 55.171,26.594 L 55.171,28.664 L 53.898,28.664 L 53.898,21.031 C 53.898,19.455 54.887,18.736 56.343,18.736 C 56.792,18.736 57.348,18.856 57.798,19.11 L 57.96,20.25 C 57.453,19.966 56.941,19.859 56.447,19.859 C 55.74,19.859 55.171,20.204 55.171,21.193 Z" marker-start="none" marker-end="none"/>
    <path d="M 65.389,23.114 C 65.389,25.2 64.458,26.776 62.117,26.776 C 60.259,26.776 58.788,25.454 58.788,22.785 C 58.788,20.266 60.064,18.736 62.554,18.736 C 63.332,18.736 64.172,18.886 64.907,19.319 L 65.086,20.595 C 64.292,20.041 63.468,19.859 62.658,19.859 C 61.069,19.859 60.243,20.686 60.093,22.261 L 65.343,22.261 C 65.373,22.469 65.389,22.889 65.389,23.114 Z M 62.147,25.65 C 63.602,25.65 64.142,24.689 64.172,23.326 L 60.076,23.326 C 60.197,24.901 60.858,25.65 62.147,25.65 Z" marker-start="none" marker-end="none"/>
    <path d="M 70.203,26.776 C 69.421,26.776 68.581,26.34 68.178,25.321 L 68.178,26.594 L 66.964,26.594 L 66.964,18.915 L 68.236,18.915 L 68.236,24.104 C 68.477,24.989 69.076,25.575 70.157,25.575 C 70.548,25.575 70.876,25.529 71.208,25.438 L 71.358,26.564 C 71.029,26.701 70.652,26.776 70.203,26.776 Z" marker-start="none" marker-end="none"/>
   </g>
   <g id="Group_2">
    <path d="M 12.708,3.704 C 15.048,3.704 16.233,4.905 16.233,6.496 C 16.233,8.068 15.377,8.879 13.444,9.465 L 12.754,9.689 C 11.523,10.064 10.891,10.529 10.891,11.473 C 10.891,12.404 11.614,12.99 12.887,12.99 C 13.909,12.99 14.791,12.766 15.618,12.18 L 15.784,13.348 C 14.973,13.859 14.026,14.1 12.916,14.1 C 10.891,14.1 9.619,13.049 9.619,11.431 C 9.619,9.764 10.742,9.061 12.109,8.625 L 12.828,8.401 C 14.222,7.951 14.944,7.561 14.944,6.48 C 14.944,5.445 14.222,4.813 12.724,4.813 C 11.598,4.813 10.563,5.145 9.677,5.881 L 9.528,4.68 C 10.442,4.006 11.582,3.704 12.708,3.704 Z" marker-start="none" marker-end="none"/>
    <path d="M 23.539,3.915 C 23.448,4.501 23.373,5.07 23.373,5.686 L 23.373,9.419 C 23.373,10.904 22.442,11.776 20.343,11.776 C 19.486,11.776 18.647,11.626 17.927,11.294 L 17.761,10.171 C 18.588,10.516 19.308,10.679 20.209,10.679 C 21.723,10.679 22.097,10.171 22.097,9.315 L 22.097,8.729 L 20.447,8.505 C 18.347,8.189 17.283,7.453 17.283,5.969 C 17.283,4.696 18.302,3.736 19.832,3.736 C 20.808,3.736 21.602,4.156 22.143,4.979 C 22.172,4.589 22.234,4.214 22.292,3.915 L 23.539,3.915 Z M 19.923,4.813 C 19.129,4.813 18.559,5.279 18.559,6.015 C 18.559,6.958 19.291,7.365 20.837,7.561 L 22.097,7.723 L 22.097,5.835 C 21.694,5.191 20.942,4.813 19.923,4.813 Z" marker-start="none" marker-end="none"/>
    <path d="M 27.917,13.589 C 28.337,13.589 28.773,13.544 29.163,13.423 L 29.329,14.458 C 28.906,14.579 28.382,14.653 27.887,14.653 C 26.237,14.653 25.264,13.876 25.264,12.196 L 25.264,3.915 L 26.536,3.915 L 26.536,10.471 L 28.789,10.471 L 28.968,11.594 L 26.536,11.594 L 26.536,12.255 C 26.536,13.199 26.927,13.589 27.917,13.589 Z" marker-start="none" marker-end="none"/>
    <path d="M 36.093,8.114 C 36.093,10.2 35.162,11.776 32.821,11.776 C 30.963,11.776 29.492,10.454 29.492,7.785 C 29.492,5.266 30.768,3.736 33.258,3.736 C 34.036,3.736 34.876,3.886 35.611,4.319 L 35.79,5.595 C 34.996,5.041 34.172,4.859 33.362,4.859 C 31.773,4.859 30.947,5.686 30.797,7.261 L 36.047,7.261 C 36.077,7.469 36.093,7.889 36.093,8.114 Z M 32.851,10.65 C 34.306,10.65 34.846,9.689 34.876,8.326 L 30.78,8.326 C 30.901,9.901 31.562,10.65 32.851,10.65 Z" marker-start="none" marker-end="none"/>
    <path d="M 41.252,11.776 C 40.112,11.776 39.406,11.265 38.866,10.259 L 38.791,11.594 L 37.668,11.594 L 37.668,3.915 L 38.94,3.915 L 38.94,9.54 C 39.406,10.259 40.038,10.65 40.861,10.65 C 42.108,10.65 42.632,9.943 42.632,8.775 L 42.632,3.915 L 43.908,3.915 L 43.908,8.924 C 43.908,10.816 42.84,11.776 41.252,11.776 Z" marker-start="none" marker-end="none"/>
    <path d="M 47.175,3.915 L 48.392,3.915 L 50.222,9.644 L 52.097,3.915 L 53.311,3.915 L 55.876,11.594 L 54.645,11.594 L 52.725,5.324 L 50.821,11.594 L 49.606,11.594 L 47.777,5.445 L 45.944,11.594 L 44.626,11.594 L 47.175,3.915 Z" marker-start="none" marker-end="none"/>
    <path d="M 56.896,13.094 L 58.168,13.094 L 58.168,14.475 L 56.896,14.475 L 56.896,13.094 Z M 56.896,3.915 L 58.168,3.915 L 58.168,11.594 L 56.896,11.594 L 56.896,3.915 Z" marker-start="none" marker-end="none"/>
    <path d="M 60.062,3.915 L 61.334,3.915 L 61.334,14.475 L 60.062,14.475 L 60.062,3.915 Z" marker-start="none" marker-end="none"/>
   </g>
  </g>
 </g>
</svg>
