<?xml version="1.0" standalone="no"?>
<!DOCTYPE svg PUBLIC "-//W3C//DTD SVG 1.1//EN" "http://www.w3.org/Graphics/SVG/1.1/DTD/svg11.dtd">
<!--Generator: Xara Designer (www.xara.com), SVG filter version: 6.6.0.7-->
<svg fill="none" fill-rule="evenodd" stroke="black" stroke-width="0.501" stroke-linejoin="bevel" stroke-miterlimit="10" font-family="Times New Roman" font-size="16" style="font-variant-ligatures:none" xmlns:xlink="http://www.w3.org/1999/xlink" xmlns="http://www.w3.org/2000/svg" version="1.1" overflow="visible" width="403.571pt" height="142.123pt" viewBox="195.412 -376.327 403.571 142.123">
 <defs>
	</defs>
 <g id="Layer 1" transform="scale(1 -1)">
  <rect x="-10.652" y="-10.6505" width="21.304" height="21.301" rx="0" ry="0" transform="matrix(1 0 0 1 588.331 320.827)" fill="#da1935" stroke-linejoin="miter" stroke="none" stroke-width="0.25"/>
  <path d="M 586.092,328.342 L 590.571,328.342 L 590.571,322.947 L 595.81,322.947 L 595.81,318.516 L 590.571,318.516 L 590.571,313.313 L 586.092,313.313 L 586.092,318.516 L 580.854,318.516 L 580.854,322.947 L 586.092,322.947 L 586.092,328.342 Z" fill="#ffffff" stroke="none" stroke-width="0.25" stroke-linejoin="miter" marker-start="none" marker-end="none"/>
  <path d="M 394.174,346.913 C 397.22,346.913 401.724,348.233 401.885,349.007 C 402.075,349.768 401.821,350.53 401.123,351.291 C 400.298,352.37 399.822,353.068 399.695,353.386 C 399.505,353.957 399.315,355.194 399.124,357.098 C 398.934,358.748 398.585,359.954 398.077,360.715 C 396.499,361.818 389.648,358.451 388.939,351.006 C 388.806,349.616 389.382,348.404 390.271,347.389 C 391.54,347.071 392.841,346.913 394.174,346.913 Z" fill="#00235d" stroke="none" stroke-width="0.25" fill-rule="nonzero" stroke-linejoin="miter" marker-start="none" marker-end="none"/>
  <path d="M 285.559,280.849 C 284.48,280.849 283.338,280.309 282.132,279.23 C 277.246,274.662 270.455,272.376 261.761,272.376 C 255.795,272.376 250.274,273.455 245.197,275.614 C 240.12,277.771 237.137,280.849 236.249,284.847 C 236.122,285.545 236.059,286.148 236.059,286.656 C 236.059,288.115 237.042,289.257 239.01,290.082 C 242.5,291.669 247.704,292.747 254.622,293.319 C 258.365,293.7 263.76,293.953 270.804,294.08 C 271.502,294.08 272.454,294.048 273.66,293.986 C 274.866,293.921 275.69,293.89 276.135,293.89 C 279.371,293.89 281.91,295 283.75,297.222 C 284.702,298.365 285.178,299.379 285.178,300.268 C 285.178,301.474 284.194,302.363 282.227,302.934 C 281.846,303.06 280.196,303.377 277.277,303.885 C 253.796,308.074 236.281,312.199 224.73,316.26 C 215.021,319.687 208.58,323.305 205.406,327.112 C 204.391,328.382 203.883,329.683 203.883,331.015 C 203.883,333.3 206.105,336.6 210.547,340.915 C 216.956,347.198 226.412,352.624 238.914,357.193 C 248.751,360.874 259.413,363.635 270.899,365.475 C 279.784,366.935 288.605,367.664 297.363,367.664 C 308.913,367.664 316.909,366.173 321.351,363.191 C 322.81,362.175 323.541,361.096 323.541,359.954 C 323.541,359.192 323.192,358.431 322.494,357.669 C 321.098,356.083 320.399,354.782 320.399,353.766 C 320.399,352.37 321.034,351.672 322.303,351.672 C 324.143,351.672 325.666,352.339 326.873,353.671 C 330.173,357.415 331.823,360.843 331.823,363.952 C 331.823,366.046 331.093,367.855 329.633,369.378 C 326.523,372.615 320.304,374.709 310.975,375.661 C 307.168,376.105 303.138,376.327 298.886,376.327 C 284.671,376.327 270.074,374.265 255.097,370.14 C 239.422,365.824 226.317,360.049 215.783,352.814 C 205.058,345.39 198.457,338.059 195.982,330.825 C 195.601,329.683 195.412,328.54 195.412,327.398 C 195.412,322.955 198.299,318.862 204.074,315.118 C 212.324,309.724 226.793,304.774 247.481,300.268 C 242.278,299.189 237.962,297.38 234.535,294.842 C 230.03,291.606 227.745,287.576 227.682,282.752 C 227.555,277.359 230.125,273.011 235.392,269.711 C 239.137,267.363 243.832,265.713 249.481,264.761 C 252.209,264.253 254.938,263.999 257.667,263.999 C 269.344,263.999 278.705,267.522 285.749,274.566 C 287.082,275.899 287.748,277.2 287.748,278.469 C 287.748,280.055 287.018,280.849 285.559,280.849 Z" fill="#00235d" stroke="none" stroke-width="0.25" fill-rule="nonzero" stroke-linejoin="miter" marker-start="none" marker-end="none"/>
  <path d="M 492.413,296.935 C 492.413,299.474 492.762,300.617 493.46,300.363 C 493.65,300.299 493.745,300.109 493.745,299.791 C 493.745,299.22 493.302,298.268 492.413,296.935 Z M 481.56,273.232 C 478.388,276.914 475.532,279.642 472.993,281.418 C 472.359,282.117 472.073,282.657 472.137,283.038 C 473.787,284.053 476.071,284.814 478.99,285.322 C 481.466,285.703 483.909,286.083 486.32,286.464 C 486.892,286.528 487.209,286.242 487.272,285.607 C 487.336,283.577 487.432,282.371 487.558,281.99 C 488.446,275.009 488.986,268.917 489.177,263.713 C 484.416,269.678 481.878,272.851 481.56,273.232 Z M 510.499,294.841 C 503.011,292.493 497.775,291.319 494.793,291.319 C 494.285,291.319 493.968,291.351 493.841,291.414 C 493.777,291.605 494.189,292.334 495.078,293.604 C 496.665,296.65 497.458,298.966 497.458,300.553 C 497.458,301.885 497.109,303.122 496.411,304.265 C 495.84,304.582 495.237,304.742 494.602,304.742 C 493.841,304.742 492.952,304.488 491.936,303.98 C 488.193,302.076 486.511,298.458 486.892,293.127 C 486.003,291.795 484.544,291.129 482.513,291.129 C 481.751,291.129 480.958,291.224 480.133,291.414 C 478.736,291.731 477.435,292.509 476.23,293.747 C 475.024,294.984 474.263,296.365 473.945,297.887 C 473.691,298.839 473.564,299.791 473.564,300.743 C 473.564,304.424 474.993,307.883 477.849,311.119 C 482.608,316.514 488.193,319.21 494.602,319.21 C 496.76,319.21 498.854,318.83 500.885,318.068 C 501.329,317.941 501.646,317.497 501.837,316.736 C 502.345,314.514 503.424,313.531 505.073,313.785 C 507.041,314.356 507.612,315.847 506.787,318.258 C 504.439,321.939 500.441,323.526 494.793,323.018 C 487.811,322.384 481.624,320.099 476.23,316.164 C 470.201,311.785 466.742,306.359 465.854,299.886 C 465.727,299.251 465.709,298.647 465.664,298.078 C 465.592,297.154 465.698,296.226 465.93,295.334 C 462.647,294.124 459.385,293.508 456.144,293.508 C 455.129,293.508 454.113,293.572 453.099,293.699 C 451.194,294.27 450.02,295.729 449.576,298.078 C 449.068,300.997 448.466,302.837 447.767,303.599 C 447.069,303.663 446.403,303.694 445.768,303.694 C 442.215,303.694 438.756,301.568 435.392,297.316 C 434.25,296.619 433.393,296.269 432.822,296.269 C 431.934,296.269 431.394,297.57 431.204,300.171 C 431.077,303.028 430.379,304.742 429.109,305.312 C 424.857,305.566 420.32,305.217 415.497,304.265 C 415.878,303.059 416.734,302.171 418.067,301.6 C 418.575,301.41 419.178,301.283 419.876,301.219 C 420.828,300.521 421.431,299.347 421.684,297.697 C 421.726,297.251 421.769,296.806 421.811,296.361 C 415.771,293.987 409.706,292.776 404.74,292.556 C 395.585,292.151 390.937,295.92 388.653,298.458 C 386.368,300.997 385.226,303.694 385.226,306.55 C 385.226,308.327 386.305,310.897 388.462,314.261 C 387.764,314.768 387.066,315.022 386.368,315.022 C 385.543,315.022 384.106,314.616 382.332,313.861 C 380.568,313.11 373.623,308.172 376.277,299.791 C 379.811,292.357 392.429,289.365 402.646,289.415 C 415.077,289.477 421.21,292.465 422.388,293.022 C 423.342,291.319 425.167,290.39 427.872,290.462 C 431.747,290.566 433.33,291.382 435.297,292.652 C 437.074,293.858 438.661,294.333 440.057,294.08 C 444.118,291.478 448.624,290.176 453.574,290.176 C 457.624,290.176 462.088,291.052 466.962,292.798 C 467.875,291.172 469.119,289.886 470.233,289.32 C 471.566,288.558 472.581,288.082 473.279,287.892 C 472.2,287.511 471.121,287.115 470.043,286.702 C 468.964,286.289 468.17,285.48 467.662,284.275 C 467.536,283.704 467.473,283.164 467.473,282.657 C 467.473,281.006 468.233,279.452 469.757,277.992 C 471.661,276.215 480.228,269.108 483.846,263.713 C 487.78,257.874 490.858,254.162 493.079,252.576 C 493.714,252.322 494.412,252.29 495.174,252.48 C 496.062,252.67 496.538,253.242 496.601,254.194 C 495.967,266.886 495.174,277.801 494.222,286.94 L 494.507,287.416 C 494.761,287.416 497.394,287.923 502.408,288.939 C 505.708,289.574 508.628,290.304 511.166,291.129 C 511.801,291.319 512.118,291.827 512.118,292.652 C 512.118,293.287 511.959,293.841 511.642,294.318 C 511.324,294.793 510.944,294.968 510.499,294.841 Z" fill="#00235d" stroke="none" stroke-width="0.25" fill-rule="nonzero" stroke-linejoin="miter" marker-start="none" marker-end="none"/>
  <path d="M 522.97,298.935 C 522.272,298.365 521.827,298.11 521.637,298.174 C 519.001,302.599 521.556,308.753 523.446,308.359 C 524.316,308.178 524.874,307.82 525.065,306.742 C 525.254,303.949 524.557,301.347 522.97,298.935 Z M 553.146,293.986 C 547.879,290.94 542.707,289.416 537.629,289.416 C 535.726,289.416 533.917,289.638 532.203,290.082 C 528.65,290.908 526.429,292.208 525.54,293.986 C 529.729,298.365 531.823,302.109 531.823,305.218 C 531.823,307.566 530.903,309.534 529.063,311.12 C 527.92,311.691 525.257,312.514 522.252,311.54 C 520.095,310.841 517.016,309.844 514.472,306.663 C 511.222,302.599 511.802,295.051 517.163,291.51 C 519.927,289.685 523.033,288.115 526.778,287.227 C 528.936,286.719 531.284,286.51 533.823,286.465 C 547.395,286.227 553.146,289.86 554.288,290.369 C 555.431,290.875 556.066,291.701 556.193,292.843 C 555.812,293.605 554.796,293.986 553.146,293.986 Z" fill="#00235d" stroke="none" stroke-width="0.25" fill-rule="nonzero" stroke-linejoin="miter" marker-start="none" marker-end="none"/>
  <path d="M 578.087,285.799 C 577.897,285.799 577.547,285.767 577.039,285.703 C 576.531,285.64 576.151,285.608 575.898,285.608 C 575.072,285.608 574.469,285.799 574.088,286.179 C 572.692,287.258 571.994,288.972 571.994,291.32 C 571.994,291.954 572.518,296.984 572.613,297.84 C 572.708,298.697 572.756,299.348 572.756,299.792 C 572.756,301.188 572.279,302.172 571.328,302.743 C 570.693,303.123 569.995,303.314 569.233,303.314 C 567.964,303.314 566.663,302.902 565.33,302.076 C 564.684,301.519 563.814,301.707 563.287,301.861 C 562.068,302.219 561.682,302.902 561.618,305.123 C 561.555,307.725 561.079,309.311 560.191,309.882 C 559.413,310.242 558.572,309.946 558.191,309.692 C 557.557,309.248 556.858,308.042 556.097,306.074 C 555.779,305.44 555.268,304.034 554.479,301.886 C 554.006,300.6 554.446,298.586 554.955,297.507 C 555.717,295.985 556.509,294.271 557.525,294.271 C 559.238,294.271 561.713,294.684 564.95,295.508 C 565.901,295.381 566.441,294.905 566.568,294.08 C 566.124,291.034 565.901,288.845 565.901,287.512 C 565.901,284.212 566.886,281.737 568.853,280.087 C 571.434,278.306 574.603,278.719 575.992,279.897 C 578.046,281.475 578.769,282.752 578.991,283.323 C 579.213,283.895 579.324,284.371 579.324,284.751 C 579.324,285.449 578.911,285.799 578.087,285.799 Z" fill="#00235d" stroke="none" stroke-width="0.25" fill-rule="nonzero" stroke-linejoin="miter" marker-start="none" marker-end="none"/>
  <path d="M 307.555,249.418 C 307.555,249.418 306.278,254.778 306.51,260.12 C 306.743,265.462 308.484,279.144 308.484,279.144 C 308.484,279.144 309.084,273.522 308.832,266.371 C 308.558,258.589 307.555,249.418 307.555,249.418 Z M 443.294,319.433 C 442.913,319.497 439.644,319.814 433.488,320.369 C 422.89,321.369 410.008,321.908 394.84,321.972 L 355.811,321.972 L 355.335,322.353 C 355.208,324.32 360.253,338.599 361.141,344.057 C 360.253,345.389 359.143,346.055 357.81,346.055 C 356.858,346.055 356.128,345.611 355.62,344.723 C 354.986,342.184 353.748,338.694 351.909,334.251 C 350.004,329.619 348.735,326.128 348.1,323.78 C 347.275,322.067 346.419,321.21 345.53,321.21 L 319.828,321.21 C 318.869,321.216 317.939,321.231 317.009,321.246 C 317.057,322.134 317.083,322.951 317.083,323.685 C 317.083,328.699 316.068,330.983 314.037,330.539 C 312.704,330.222 310.864,328.254 308.516,324.637 C 307.807,323.545 307.219,322.551 306.724,321.633 C 302.098,321.919 290.858,323.114 288.51,324.256 C 285.908,325.462 284.068,326.065 282.989,326.065 C 281.402,326.065 279.942,325.335 278.61,323.876 C 278.229,323.495 278.038,323.051 278.038,322.543 C 278.038,321.781 278.673,320.83 279.942,319.687 C 287.11,318.111 295.481,317.178 305.012,316.864 C 305.008,316.792 304.994,316.71 304.994,316.641 C 304.994,315.943 305.248,315.562 305.755,315.499 C 307.977,315.181 309.087,312.357 309.087,307.026 C 309.087,305.757 309.008,303.917 308.849,301.505 C 308.69,299.094 308.611,297.476 308.611,296.65 C 304.296,288.972 301.789,277.453 301.091,262.096 C 300.837,257.146 300.71,253.655 300.71,251.624 C 300.71,245.151 301.376,239.915 302.709,235.917 C 303.09,234.775 303.661,234.204 304.423,234.204 C 305.502,234.204 306.866,235.314 308.516,237.536 C 309.912,239.376 310.801,240.963 311.181,242.295 C 312.26,245.531 313.022,249.498 313.466,254.194 C 313.53,254.702 313.752,258.7 314.133,266.189 C 314.64,280.976 314.926,292.081 314.989,299.506 C 315.751,299.76 316.607,299.856 317.559,299.792 C 325.175,299.665 328.982,298.301 328.982,295.698 C 328.982,294.176 328.126,293.414 326.412,293.414 C 325.397,293.414 323.81,293.747 321.652,294.413 C 319.495,295.08 318.225,295.413 317.845,295.413 C 317.591,295.413 317.432,295.317 317.369,295.128 C 316.988,293.921 317.686,292.525 319.463,290.939 C 321.367,289.162 323.556,288.273 326.032,288.273 C 328.761,288.273 331.299,289.48 333.647,291.891 C 338.026,296.523 338.565,300.427 335.265,303.6 C 332.536,306.265 328.538,307.597 323.271,307.597 C 320.923,307.597 319.051,307.217 317.655,306.455 C 316.829,305.948 315.973,305.345 315.084,304.647 C 315.084,304.9 315.417,307.455 316.084,312.31 C 316.304,313.912 316.484,315.388 316.631,316.759 C 319.832,316.787 323.805,316.842 328.586,316.926 C 335.503,317.053 340.929,317.085 344.864,317.022 L 345.626,316.26 C 345.562,315.308 345.244,312.96 344.674,309.216 C 344.293,306.36 344.102,304.012 344.102,302.172 C 344.102,301.156 344.166,300.204 344.293,299.315 C 349.366,279.271 365.864,284.361 368.593,284.742 C 371.702,285.503 375.04,287.354 376.944,289.32 C 377.832,290.272 378.277,291.542 378.277,293.128 C 378.277,294.017 378.086,294.461 377.705,294.461 C 377.578,294.461 377.388,294.334 377.135,294.08 C 375.04,291.922 372.533,290.272 369.614,289.13 C 368.091,288.495 366.409,288.179 364.569,288.179 C 361.395,288.179 358.794,289.066 356.763,290.844 C 353.526,293.636 351.909,297.951 351.909,303.79 C 351.909,305.884 352.321,309.787 353.146,315.499 C 353.526,316.641 354.065,317.244 354.764,317.308 C 363.331,317.878 372.628,318.164 382.656,318.164 C 392.175,318.164 407.691,317.783 429.205,317.022 C 439.486,316.133 447.228,315.308 452.431,314.546 L 452.431,316.149 C 450.02,317.768 446.973,318.878 443.294,319.433 Z" fill="#00235d" stroke="none" stroke-width="0.25" fill-rule="nonzero" stroke-linejoin="miter" marker-start="none" marker-end="none"/>
 </g>
</svg>
