<?xml version="1.0" encoding="UTF-8" ?>
<!DOCTYPE svg PUBLIC "-//W3C//DTD SVG 1.1//EN" "http://www.w3.org/Graphics/SVG/1.1/DTD/svg11.dtd">
<svg width="2423pt" height="551pt" viewBox="0 0 2423 551" version="1.1" xmlns="http://www.w3.org/2000/svg">
<path fill="#000000" opacity="1.00" d=" M 0.00 0.00 L 2423.00 0.00 L 2423.00 551.00 L 0.00 551.00 L 0.00 0.00 M 17.92 17.27 C 17.91 188.08 17.91 358.90 17.92 529.71 C 814.09 529.72 1610.25 529.71 2406.42 529.72 C 2406.43 358.90 2406.43 188.08 2406.42 17.26 C 1610.25 17.26 814.09 17.26 17.92 17.27 Z" />
<path fill="#000000" opacity="1.00" d=" M 30.81 30.14 C 818.39 30.14 1605.97 30.13 2393.55 30.15 C 2393.55 192.38 2393.55 354.60 2393.55 516.83 C 1605.97 516.84 818.39 516.83 30.81 516.83 C 30.80 354.60 30.80 192.37 30.81 30.14 M 2225.10 83.40 C 2225.08 142.98 2225.09 202.56 2225.09 262.14 C 2232.40 262.14 2239.70 262.14 2247.02 262.14 C 2247.04 237.76 2246.99 213.38 2247.04 189.00 C 2247.32 179.24 2248.30 168.60 2254.67 160.71 C 2264.51 148.89 2283.02 144.95 2296.62 152.31 C 2305.36 157.17 2308.28 167.77 2308.50 177.12 C 2308.61 205.46 2308.51 233.80 2308.55 262.14 C 2315.85 262.16 2323.16 262.11 2330.47 262.17 C 2330.58 238.78 2330.48 215.39 2330.52 192.01 C 2330.44 181.28 2330.99 170.42 2328.73 159.86 C 2327.54 154.01 2325.23 148.28 2321.30 143.73 C 2315.13 136.49 2306.04 132.30 2296.81 130.66 C 2286.57 128.93 2275.74 129.44 2266.07 133.44 C 2258.66 136.44 2252.24 141.49 2247.01 147.48 C 2247.03 126.12 2247.02 104.76 2247.02 83.41 C 2239.70 83.40 2232.40 83.41 2225.10 83.40 M 1350.23 110.85 C 1350.23 118.74 1350.23 126.63 1350.23 134.51 C 1344.15 134.53 1338.07 134.52 1332.00 134.52 C 1332.00 146.59 1331.99 158.65 1332.01 170.72 C 1338.08 170.71 1344.15 170.71 1350.23 170.72 C 1350.25 186.84 1350.21 202.97 1350.25 219.09 C 1350.40 227.07 1350.82 235.14 1352.89 242.88 C 1355.02 251.02 1360.51 258.38 1368.16 262.06 C 1374.35 265.02 1381.30 265.80 1388.07 266.21 C 1401.73 266.91 1415.42 265.26 1428.77 262.38 C 1427.56 251.00 1426.34 239.63 1425.14 228.26 C 1420.22 229.73 1415.22 231.25 1410.07 231.40 C 1406.81 231.53 1403.19 230.42 1401.45 227.47 C 1399.87 224.60 1399.92 221.18 1399.78 217.99 C 1399.75 202.23 1399.77 186.47 1399.77 170.72 C 1408.82 170.71 1417.88 170.71 1426.94 170.72 C 1426.95 158.65 1426.94 146.59 1426.94 134.52 C 1417.88 134.51 1408.82 134.53 1399.77 134.51 C 1399.76 118.17 1399.77 101.82 1399.76 85.47 C 1383.26 93.94 1366.74 102.39 1350.23 110.85 M 2113.92 142.90 C 2104.51 150.71 2099.02 162.22 2096.22 173.93 C 2092.40 190.95 2092.44 209.08 2097.38 225.87 C 2102.23 242.57 2115.36 256.80 2132.08 262.02 C 2150.17 267.60 2171.62 265.98 2186.69 253.70 C 2197.89 244.96 2204.24 231.33 2206.34 217.50 C 2199.14 216.55 2191.95 215.63 2184.76 214.69 C 2183.46 223.27 2180.77 232.18 2174.43 238.42 C 2162.04 250.60 2139.73 249.66 2127.91 237.15 C 2121.95 231.21 2118.99 223.00 2117.53 214.88 C 2115.84 205.10 2115.74 195.06 2116.77 185.20 C 2117.90 175.61 2120.68 165.64 2127.53 158.50 C 2137.09 148.07 2153.64 144.72 2166.47 150.65 C 2175.60 154.95 2180.79 164.49 2182.92 173.98 C 2190.03 172.90 2197.15 171.79 2204.26 170.69 C 2202.18 159.71 2197.15 148.97 2188.53 141.62 C 2179.85 133.98 2168.28 130.39 2156.88 129.85 C 2141.65 128.88 2125.79 133.11 2113.92 142.90 M 735.90 137.83 C 721.34 143.84 709.27 155.66 703.06 170.16 C 697.56 182.99 696.51 197.40 698.33 211.13 C 700.71 229.05 710.80 246.02 725.96 256.01 C 738.66 264.28 754.27 266.03 769.07 266.35 C 783.81 266.44 798.98 265.57 812.79 259.97 C 826.49 254.28 836.81 242.72 844.06 230.08 C 827.85 228.54 811.63 227.10 795.42 225.56 C 792.41 229.14 789.18 232.81 784.79 234.70 C 775.59 239.06 763.49 238.24 756.03 230.89 C 750.54 225.91 748.61 218.38 747.76 211.29 C 780.79 211.28 813.82 211.30 846.86 211.28 C 846.93 201.82 846.69 192.29 844.82 182.98 C 842.14 168.12 834.35 153.92 822.01 144.96 C 810.29 136.07 795.40 132.88 780.99 131.96 C 765.81 130.97 750.08 131.85 735.90 137.83 M 1041.58 137.48 C 1024.39 144.24 1010.62 159.12 1005.42 176.87 C 1001.49 190.34 1001.32 204.89 1004.58 218.52 C 1009.34 237.38 1022.90 254.60 1041.46 261.34 C 1055.05 266.15 1069.70 266.67 1083.97 266.23 C 1096.45 265.67 1109.26 264.11 1120.63 258.59 C 1132.88 252.51 1142.13 241.77 1148.87 230.08 C 1132.64 228.55 1116.42 227.07 1100.19 225.58 C 1097.20 229.18 1093.94 232.82 1089.56 234.72 C 1080.41 239.03 1068.40 238.25 1060.95 230.99 C 1055.38 226.02 1053.43 218.43 1052.55 211.30 C 1085.57 211.27 1118.59 211.29 1151.61 211.29 C 1152.04 192.44 1150.12 172.12 1138.42 156.55 C 1128.75 143.18 1112.98 135.37 1096.87 133.17 C 1078.49 130.64 1059.06 130.51 1041.58 137.48 M 1243.14 136.19 C 1233.96 140.44 1226.64 147.76 1220.33 155.50 C 1220.34 148.51 1220.33 141.52 1220.33 134.52 C 1205.00 134.52 1189.67 134.52 1174.35 134.52 C 1174.34 177.50 1174.33 220.48 1174.35 263.45 C 1190.80 263.45 1207.26 263.44 1223.72 263.46 C 1223.78 241.97 1223.67 220.47 1223.78 198.98 C 1224.07 191.79 1224.61 184.06 1228.75 177.91 C 1234.36 169.67 1247.16 167.77 1254.97 173.89 C 1260.46 178.51 1260.92 186.34 1261.00 192.99 C 1261.00 216.48 1261.00 239.96 1261.00 263.45 C 1277.55 263.45 1294.10 263.45 1310.65 263.45 C 1310.66 235.63 1310.68 207.82 1310.64 180.00 C 1310.46 168.66 1308.65 156.72 1301.93 147.28 C 1295.55 138.29 1284.88 133.10 1274.07 132.01 C 1263.65 130.99 1252.77 131.86 1243.14 136.19 M 1584.58 132.85 C 1574.36 134.47 1564.36 137.97 1555.75 143.77 C 1541.93 153.02 1531.77 167.75 1528.67 184.15 C 1525.52 200.63 1527.20 218.54 1535.78 233.19 C 1545.00 249.01 1561.18 260.35 1579.06 264.08 C 1595.91 267.60 1613.77 267.25 1630.29 262.22 C 1648.03 256.82 1663.15 243.32 1670.20 226.13 C 1676.08 211.62 1676.73 195.22 1673.11 180.08 C 1668.60 161.60 1655.05 145.59 1637.48 138.28 C 1620.87 131.33 1602.24 130.37 1584.58 132.85 M 1766.02 137.12 C 1757.69 141.49 1750.95 148.29 1745.08 155.53 C 1745.09 148.53 1745.08 141.53 1745.09 134.52 C 1729.75 134.51 1714.42 134.52 1699.10 134.52 C 1699.09 177.50 1699.09 220.47 1699.10 263.45 C 1715.57 263.45 1732.04 263.45 1748.51 263.45 C 1748.52 247.63 1748.51 231.81 1748.52 216.00 C 1748.70 206.71 1747.90 197.33 1749.59 188.14 C 1750.53 182.87 1752.68 177.49 1757.09 174.18 C 1763.32 169.27 1772.99 168.91 1779.42 173.64 C 1784.62 177.67 1785.54 184.77 1785.74 190.91 C 1785.81 215.09 1785.74 239.27 1785.77 263.45 C 1802.32 263.45 1818.87 263.45 1835.43 263.45 C 1835.43 240.63 1835.42 217.82 1835.43 195.01 C 1835.31 184.64 1836.01 174.14 1833.73 163.94 C 1831.99 155.76 1828.35 147.72 1822.05 142.05 C 1815.02 135.47 1805.40 132.29 1795.92 131.75 C 1785.74 131.21 1775.17 132.37 1766.02 137.12 M 1901.29 136.23 C 1887.01 141.02 1874.59 151.15 1867.19 164.28 C 1859.19 178.37 1857.42 195.26 1859.54 211.12 C 1862.05 229.97 1873.10 247.87 1889.64 257.52 C 1902.44 264.79 1917.57 266.18 1932.01 266.37 C 1946.47 266.33 1961.37 265.34 1974.83 259.62 C 1988.13 253.81 1998.16 242.46 2005.27 230.07 C 1989.05 228.55 1972.83 227.09 1956.62 225.57 C 1953.44 229.41 1949.90 233.24 1945.15 235.09 C 1936.07 239.01 1924.41 238.01 1917.20 230.85 C 1911.72 225.88 1909.82 218.36 1908.97 211.29 C 1942.00 211.28 1975.02 211.29 2008.05 211.28 C 2008.10 203.49 2008.01 195.66 2006.87 187.94 C 2004.95 172.91 1998.57 158.04 1986.96 147.98 C 1976.33 138.38 1962.13 133.90 1948.11 132.48 C 1932.48 130.91 1916.28 131.06 1901.29 136.23 M 93.84 132.67 C 107.09 175.84 120.17 219.06 133.54 262.19 C 141.15 262.08 148.75 262.17 156.36 262.14 C 165.11 228.96 173.83 195.77 182.56 162.58 C 184.86 172.21 186.74 181.95 189.40 191.50 C 195.66 215.05 201.90 238.60 208.18 262.14 C 215.77 262.14 223.36 262.14 230.95 262.14 C 244.45 218.99 257.94 175.83 271.43 132.67 C 264.31 132.66 257.20 132.67 250.09 132.66 C 240.18 165.89 230.49 199.19 220.43 232.37 C 211.78 199.15 203.23 165.90 194.65 132.66 C 187.12 132.67 179.60 132.66 172.08 132.67 C 162.95 166.81 153.18 200.78 144.78 235.11 C 135.33 200.97 125.95 166.80 116.51 132.66 C 108.95 132.67 101.39 132.66 93.84 132.67 M 313.73 262.14 C 321.38 262.12 329.03 262.19 336.68 262.10 C 345.35 228.92 354.11 195.76 362.84 162.59 C 365.16 172.39 367.09 182.29 369.80 191.99 C 376.08 215.39 382.13 238.85 388.55 262.20 C 396.10 262.07 403.66 262.18 411.23 262.14 C 424.73 218.98 438.21 175.82 451.70 132.67 C 444.59 132.67 437.47 132.66 430.36 132.67 C 420.49 165.92 410.68 199.20 400.75 232.44 C 392.02 199.21 383.53 165.92 374.91 132.66 C 367.39 132.67 359.87 132.66 352.35 132.67 C 343.22 166.80 333.45 200.77 325.05 235.10 C 315.60 200.97 306.21 166.81 296.79 132.67 C 289.23 132.66 281.67 132.67 274.11 132.66 C 287.30 175.83 300.51 218.98 313.73 262.14 M 454.38 132.67 C 467.58 175.82 480.78 218.99 494.00 262.14 C 501.63 262.14 509.27 262.14 516.90 262.14 C 525.66 228.98 534.33 195.80 543.11 162.64 C 545.38 172.08 547.21 181.62 549.80 190.98 C 556.11 214.70 562.40 238.42 568.71 262.14 C 576.29 262.16 583.87 262.10 591.45 262.17 C 605.03 219.03 618.45 175.83 631.97 132.67 C 624.85 132.66 617.74 132.67 610.63 132.67 C 600.74 165.87 591.00 199.13 581.02 232.31 C 572.22 199.14 563.82 165.87 555.17 132.67 C 547.66 132.66 540.14 132.67 532.62 132.66 C 523.49 166.80 513.72 200.78 505.32 235.12 C 495.87 200.97 486.49 166.81 477.05 132.67 C 469.49 132.66 461.93 132.67 454.38 132.67 M 848.52 134.53 C 866.38 177.50 884.26 220.47 902.12 263.45 C 916.74 263.46 931.35 263.45 945.97 263.45 C 964.24 220.48 982.50 177.50 1000.76 134.52 C 984.13 134.52 967.51 134.52 950.89 134.52 C 942.23 161.74 933.60 188.97 924.94 216.19 C 916.59 188.97 908.28 161.74 899.93 134.52 C 882.79 134.52 865.65 134.52 848.52 134.53 M 1441.01 179.42 C 1440.99 192.19 1441.00 204.95 1441.01 217.72 C 1464.96 217.71 1488.92 217.71 1512.87 217.72 C 1512.88 204.95 1512.88 192.19 1512.87 179.42 C 1488.92 179.43 1464.96 179.43 1441.01 179.42 M 642.81 237.12 C 642.80 245.46 642.80 253.80 642.81 262.14 C 651.14 262.14 659.47 262.14 667.80 262.14 C 667.80 253.80 667.80 245.46 667.80 237.12 C 659.47 237.12 651.14 237.12 642.81 237.12 M 2037.12 237.12 C 2037.11 245.46 2037.11 253.80 2037.12 262.14 C 2045.46 262.14 2053.79 262.14 2062.14 262.14 C 2062.14 253.80 2062.14 245.46 2062.14 237.12 C 2053.79 237.12 2045.46 237.12 2037.12 237.12 M 1894.05 334.51 C 1880.56 337.05 1866.91 343.34 1859.23 355.20 C 1849.00 369.84 1848.75 390.98 1859.72 405.30 C 1869.56 418.45 1886.24 423.99 1901.93 426.07 C 1924.22 428.99 1947.30 424.11 1966.62 412.65 C 1966.63 401.39 1966.61 390.12 1966.63 378.86 C 1949.05 378.82 1931.48 378.88 1913.92 378.92 C 1913.90 382.47 1913.90 386.03 1913.92 389.59 C 1926.10 389.60 1938.29 389.59 1950.48 389.60 C 1950.46 395.28 1950.51 400.97 1950.45 406.65 C 1932.10 416.70 1909.25 419.13 1889.59 411.50 C 1881.20 408.32 1873.87 401.84 1870.79 393.29 C 1865.98 379.90 1868.52 363.20 1879.49 353.52 C 1888.01 345.88 1899.87 343.40 1911.02 343.06 C 1920.63 342.76 1930.68 344.02 1939.13 348.92 C 1944.36 351.91 1947.65 357.27 1949.92 362.69 C 1954.89 361.67 1959.89 360.81 1964.83 359.61 C 1962.72 354.32 1959.97 349.16 1955.78 345.23 C 1949.53 339.31 1941.13 336.36 1932.88 334.55 C 1920.11 331.98 1906.83 332.13 1894.05 334.51 M 93.84 334.27 C 109.90 364.62 125.97 394.97 142.05 425.31 C 147.68 425.30 153.31 425.31 158.95 425.31 C 175.19 394.96 191.43 364.61 207.67 334.26 C 202.07 334.26 196.47 334.27 190.86 334.26 C 181.42 352.78 172.02 371.33 162.59 389.85 C 158.39 398.23 153.86 406.46 150.57 415.25 C 147.16 406.37 142.77 397.92 138.62 389.38 C 129.64 371.01 120.66 352.64 111.68 334.27 C 105.73 334.26 99.79 334.26 93.84 334.27 M 790.38 334.27 C 790.38 364.61 790.37 394.96 790.39 425.31 C 795.47 425.30 800.56 425.30 805.65 425.31 C 805.67 394.96 805.65 364.61 805.66 334.27 C 800.56 334.26 795.47 334.26 790.38 334.27 M 1486.51 334.28 C 1486.53 364.62 1486.51 394.96 1486.52 425.30 C 1491.61 425.31 1496.70 425.30 1501.80 425.31 C 1501.82 412.89 1501.77 400.48 1501.82 388.07 C 1501.91 383.00 1502.96 377.43 1506.88 373.87 C 1511.51 369.68 1517.88 367.88 1524.01 367.52 C 1529.38 367.33 1535.20 367.94 1539.63 371.27 C 1543.24 373.93 1544.61 378.58 1544.65 382.90 C 1544.69 397.03 1544.64 411.17 1544.67 425.30 C 1549.75 425.31 1554.84 425.30 1559.94 425.31 C 1559.92 410.85 1559.98 396.40 1559.91 381.95 C 1559.78 375.90 1558.56 369.18 1553.66 365.10 C 1547.13 359.61 1538.26 358.07 1529.98 357.85 C 1519.93 357.54 1509.56 360.28 1501.79 366.85 C 1501.81 355.99 1501.79 345.13 1501.80 334.26 C 1496.70 334.27 1491.60 334.25 1486.51 334.28 M 1718.56 334.28 C 1718.58 364.62 1718.56 394.96 1718.58 425.30 C 1723.67 425.31 1728.77 425.31 1733.88 425.31 C 1733.88 416.59 1733.87 407.87 1733.88 399.15 C 1737.47 396.64 1741.05 394.10 1744.66 391.60 C 1754.55 402.84 1764.51 414.03 1774.39 425.29 C 1780.68 425.33 1786.98 425.30 1793.29 425.30 C 1780.66 411.46 1767.99 397.66 1755.37 383.81 C 1766.84 375.65 1778.33 367.51 1789.81 359.35 C 1783.22 359.32 1776.63 359.35 1770.05 359.33 C 1757.98 368.25 1745.94 377.22 1733.88 386.15 C 1733.87 368.85 1733.89 351.56 1733.87 334.26 C 1728.76 334.27 1723.66 334.25 1718.56 334.28 M 2133.66 334.28 C 2133.68 364.62 2133.65 394.96 2133.67 425.30 C 2138.39 425.31 2143.12 425.31 2147.86 425.30 C 2147.84 422.58 2147.84 419.86 2147.84 417.14 C 2154.48 424.25 2164.48 427.16 2174.01 426.78 C 2186.73 426.66 2200.06 421.00 2207.07 410.02 C 2214.65 397.18 2213.38 379.13 2202.76 368.30 C 2195.57 360.99 2184.98 358.19 2175.00 357.86 C 2165.62 357.47 2155.93 360.25 2148.93 366.67 C 2148.96 355.87 2148.94 345.06 2148.94 334.26 C 2143.84 334.27 2138.74 334.25 2133.66 334.28 M 2232.92 334.27 C 2232.91 364.61 2232.91 394.96 2232.92 425.30 C 2238.39 425.31 2243.88 425.31 2249.37 425.30 C 2249.38 410.99 2249.36 396.68 2249.38 382.38 C 2270.93 382.37 2292.49 382.37 2314.05 382.38 C 2314.06 396.69 2314.05 411.00 2314.06 425.31 C 2319.53 425.31 2325.02 425.31 2330.51 425.31 C 2330.52 394.96 2330.51 364.61 2330.52 334.27 C 2325.02 334.26 2319.54 334.27 2314.06 334.26 C 2314.04 346.73 2314.07 359.20 2314.05 371.66 C 2292.49 371.66 2270.93 371.67 2249.38 371.66 C 2249.37 359.20 2249.36 346.74 2249.38 334.28 C 2243.88 334.25 2238.40 334.27 2232.92 334.27 M 1679.95 334.27 C 1679.94 338.56 1679.94 342.85 1679.95 347.14 C 1685.04 347.14 1690.13 347.14 1695.23 347.14 C 1695.23 342.85 1695.22 338.56 1695.23 334.27 C 1690.13 334.26 1685.04 334.26 1679.95 334.27 M 648.58 342.97 C 648.50 348.42 648.57 353.88 648.55 359.34 C 644.81 359.34 641.07 359.34 637.34 359.34 C 637.33 362.24 637.33 365.14 637.34 368.05 C 641.08 368.05 644.81 368.04 648.56 368.06 C 648.57 381.71 648.49 395.35 648.59 409.00 C 648.77 413.80 648.94 419.71 653.60 422.50 C 661.82 427.64 672.17 426.29 681.32 425.20 C 680.59 421.90 679.85 418.61 679.12 415.32 C 674.92 415.51 670.34 416.53 666.42 414.55 C 663.61 413.16 663.83 409.68 663.74 407.04 C 663.73 394.04 663.74 381.05 663.74 368.06 C 668.87 368.05 674.00 368.06 679.14 368.05 C 679.14 365.14 679.14 362.24 679.14 359.34 C 674.00 359.33 668.87 359.35 663.74 359.34 C 663.72 351.66 663.74 343.98 663.73 336.30 C 658.68 338.52 653.65 340.78 648.58 342.97 M 832.14 343.01 C 832.13 348.45 832.14 353.89 832.14 359.34 C 828.41 359.34 824.68 359.34 820.96 359.34 C 820.94 362.24 820.94 365.14 820.95 368.05 C 824.68 368.05 828.41 368.05 832.14 368.05 C 832.18 381.71 832.07 395.37 832.19 409.02 C 832.36 413.89 832.61 419.91 837.40 422.63 C 845.62 427.59 855.84 426.30 864.93 425.19 C 864.19 421.90 863.45 418.61 862.74 415.33 C 858.42 415.50 853.61 416.64 849.67 414.31 C 847.16 412.80 847.47 409.54 847.34 407.03 C 847.32 394.04 847.34 381.05 847.33 368.06 C 852.46 368.04 857.59 368.06 862.73 368.05 C 862.73 365.14 862.73 362.24 862.73 359.34 C 857.60 359.34 852.47 359.34 847.34 359.34 C 847.32 351.66 847.34 343.98 847.33 336.30 C 842.27 338.54 837.20 340.77 832.14 343.01 M 1257.39 343.05 C 1257.42 348.48 1257.40 353.91 1257.40 359.34 C 1253.66 359.34 1249.93 359.34 1246.20 359.34 C 1246.19 362.24 1246.19 365.14 1246.20 368.05 C 1249.93 368.05 1253.66 368.05 1257.41 368.06 C 1257.43 381.58 1257.35 395.11 1257.45 408.64 C 1257.64 413.54 1257.69 419.60 1262.43 422.48 C 1270.65 427.64 1281.02 426.30 1290.19 425.19 C 1289.45 421.90 1288.71 418.61 1287.99 415.32 C 1283.63 415.49 1278.71 416.69 1274.78 414.21 C 1272.67 412.89 1272.73 410.16 1272.64 407.99 C 1272.59 394.68 1272.63 381.37 1272.62 368.06 C 1277.74 368.04 1282.87 368.06 1288.00 368.05 C 1287.99 365.14 1287.99 362.24 1287.99 359.34 C 1282.86 359.34 1277.74 359.34 1272.62 359.34 C 1272.61 351.66 1272.62 343.98 1272.62 336.30 C 1267.54 338.55 1262.44 340.74 1257.39 343.05 M 218.96 365.95 C 212.67 370.26 208.12 377.00 206.63 384.49 C 204.76 393.89 205.76 404.47 211.75 412.27 C 217.98 420.40 228.03 424.62 237.94 426.04 C 248.23 427.38 258.98 427.16 268.88 423.75 C 277.59 420.80 285.26 414.28 288.45 405.50 C 283.14 405.05 277.85 404.41 272.53 404.14 C 269.78 410.16 264.36 414.88 257.90 416.47 C 248.17 418.86 236.86 417.70 229.01 411.02 C 224.33 407.15 222.07 401.14 221.52 395.22 C 243.97 395.15 266.41 395.22 288.86 395.19 C 289.33 386.95 287.72 378.20 282.36 371.69 C 275.50 363.29 264.70 359.05 254.11 358.14 C 242.03 357.08 229.05 358.76 218.96 365.95 M 333.85 358.87 C 328.41 360.44 324.56 364.90 321.22 369.22 C 321.14 365.93 321.15 362.63 321.17 359.34 C 316.58 359.33 311.99 359.34 307.41 359.34 C 307.41 381.33 307.40 403.32 307.41 425.31 C 312.51 425.30 317.61 425.31 322.71 425.30 C 322.77 412.89 322.61 400.46 322.79 388.05 C 323.35 382.63 324.46 376.45 329.01 372.88 C 335.34 368.01 344.17 368.88 351.15 371.79 C 352.90 368.33 354.65 364.88 356.41 361.43 C 349.41 358.38 341.34 356.60 333.85 358.87 M 376.53 362.44 C 369.74 365.11 364.79 371.20 362.86 378.16 C 367.86 378.63 372.86 379.24 377.88 379.59 C 379.66 373.67 384.66 368.86 390.88 368.02 C 399.79 366.65 409.55 366.26 417.84 370.34 C 422.71 372.67 423.61 378.72 422.94 383.53 C 413.72 385.55 404.31 386.54 394.92 387.37 C 387.45 388.07 379.80 388.74 372.88 391.84 C 367.76 393.98 363.02 397.81 361.07 403.14 C 359.02 408.84 360.96 415.57 365.59 419.43 C 373.03 425.99 383.56 426.92 393.04 426.77 C 404.10 426.66 414.94 423.18 424.22 417.23 C 424.74 420.07 425.75 422.79 427.19 425.29 C 432.53 425.33 437.87 425.28 443.22 425.32 C 440.88 421.98 439.14 418.14 438.96 414.02 C 438.16 403.04 438.55 392.02 438.45 381.03 C 438.54 375.73 438.01 369.91 434.09 365.95 C 428.87 360.72 421.16 359.25 414.10 358.35 C 401.53 357.31 388.35 357.54 376.53 362.44 M 475.89 368.64 C 475.92 365.54 475.90 362.44 475.90 359.34 C 471.31 359.34 466.73 359.34 462.15 359.34 C 462.14 381.33 462.14 403.32 462.14 425.31 C 467.24 425.31 472.33 425.31 477.42 425.30 C 477.45 412.89 477.39 400.47 477.45 388.06 C 477.58 382.69 478.82 376.77 483.11 373.13 C 488.69 368.77 496.04 367.29 502.99 367.59 C 507.82 367.81 512.91 369.11 516.51 372.52 C 519.56 375.47 519.96 380.00 520.10 384.01 C 520.15 397.77 520.10 411.54 520.12 425.31 C 525.22 425.31 530.32 425.31 535.42 425.30 C 535.33 409.88 535.63 394.44 535.26 379.02 C 535.25 372.32 531.62 365.62 525.60 362.50 C 517.76 358.37 508.61 357.39 499.88 358.03 C 490.97 358.61 482.02 361.98 475.89 368.64 M 561.26 365.25 C 556.95 368.65 554.17 374.37 555.59 379.89 C 557.03 385.94 562.55 390.00 568.19 391.89 C 580.07 395.86 592.65 396.96 604.72 400.19 C 607.96 401.03 611.81 403.13 611.88 406.94 C 611.86 411.97 606.81 415.02 602.52 416.28 C 595.20 418.06 587.36 418.11 580.06 416.24 C 574.06 414.79 568.90 410.06 567.73 403.88 C 562.70 404.46 557.67 405.02 552.65 405.63 C 553.91 410.34 556.22 414.86 559.90 418.13 C 565.67 423.44 573.59 425.44 581.19 426.29 C 590.77 427.21 600.64 427.08 609.90 424.21 C 616.00 422.35 622.04 419.01 625.42 413.41 C 628.49 408.58 628.35 401.81 624.76 397.30 C 621.92 393.75 617.69 391.63 613.41 390.34 C 601.58 386.89 589.34 385.25 577.40 382.33 C 573.76 381.38 568.96 378.55 570.25 374.10 C 571.94 369.82 576.90 368.23 581.08 367.60 C 588.44 366.80 596.47 366.30 603.24 369.85 C 606.48 371.43 608.25 374.67 609.58 377.81 C 614.49 377.34 619.42 376.93 624.31 376.26 C 622.89 370.92 619.94 365.66 614.83 363.12 C 605.70 358.41 595.12 357.62 585.03 357.93 C 576.76 358.51 567.90 359.89 561.26 365.25 M 704.03 362.95 C 697.72 365.72 693.31 371.62 691.44 378.15 C 696.41 378.67 701.40 379.15 706.38 379.65 C 708.30 373.63 713.37 368.71 719.79 367.95 C 728.65 366.68 738.38 366.27 746.59 370.44 C 751.37 372.81 752.06 378.72 751.61 383.46 C 741.20 385.90 730.51 386.69 719.90 387.71 C 709.72 388.73 697.97 390.69 691.52 399.54 C 687.81 404.61 688.01 412.08 691.91 417.00 C 695.56 421.67 701.20 424.31 706.89 425.55 C 722.50 428.71 739.42 426.08 752.78 417.21 C 753.34 420.06 754.30 422.83 755.85 425.32 C 761.17 425.30 766.50 425.29 771.83 425.33 C 769.64 422.21 767.91 418.69 767.62 414.84 C 766.61 402.91 767.27 390.93 766.99 378.98 C 767.15 373.71 765.57 368.12 761.36 364.68 C 755.31 360.04 747.44 358.73 740.03 358.12 C 727.92 357.44 715.23 357.83 704.03 362.95 M 988.07 368.64 C 988.09 365.54 988.08 362.44 988.09 359.34 C 983.50 359.33 978.92 359.34 974.34 359.34 C 974.34 381.33 974.32 403.32 974.35 425.31 C 979.44 425.30 984.52 425.31 989.62 425.31 C 989.64 412.86 989.59 400.42 989.64 387.98 C 989.77 382.67 991.01 376.83 995.21 373.20 C 1000.19 369.25 1006.68 367.63 1012.96 367.56 C 1018.45 367.47 1024.40 368.58 1028.58 372.41 C 1031.49 375.11 1032.07 379.32 1032.25 383.09 C 1032.39 397.18 1032.15 411.28 1032.36 425.36 C 1037.43 425.25 1042.51 425.33 1047.59 425.31 C 1047.54 410.17 1047.72 395.02 1047.49 379.88 C 1047.63 373.10 1044.32 366.13 1038.28 362.78 C 1029.67 358.05 1019.43 357.19 1009.81 358.26 C 1001.67 359.15 993.69 362.58 988.07 368.64 M 1076.51 366.60 C 1067.20 374.33 1063.33 387.52 1065.92 399.21 C 1067.74 407.56 1073.26 414.91 1080.44 419.48 C 1088.29 424.35 1097.82 425.63 1106.90 425.23 C 1114.98 424.88 1122.93 421.96 1129.11 416.72 C 1128.98 421.22 1129.18 425.81 1128.18 430.24 C 1126.42 436.72 1120.05 440.79 1113.75 441.92 C 1106.49 443.19 1098.84 443.32 1091.74 441.19 C 1087.45 440.09 1083.78 436.85 1082.97 432.37 C 1078.02 431.82 1073.08 431.28 1068.13 430.76 C 1067.77 437.36 1071.58 443.68 1077.48 446.59 C 1089.18 452.68 1103.00 452.79 1115.81 451.23 C 1125.41 449.72 1135.79 445.84 1141.00 437.09 C 1145.02 429.04 1144.55 419.73 1144.62 410.98 C 1144.62 393.76 1144.62 376.55 1144.62 359.34 C 1139.91 359.34 1135.22 359.33 1130.52 359.34 C 1130.51 361.97 1130.50 364.59 1130.54 367.22 C 1123.84 361.18 1114.89 358.04 1105.93 357.87 C 1095.58 357.54 1084.63 359.82 1076.51 366.60 M 1178.07 360.85 C 1172.56 362.79 1167.25 366.50 1165.00 372.07 C 1162.98 377.05 1164.51 382.99 1168.35 386.67 C 1173.25 391.59 1180.35 392.99 1186.85 394.57 C 1196.05 396.79 1205.53 397.83 1214.63 400.52 C 1218.23 401.44 1221.85 404.87 1220.50 408.90 C 1218.70 414.01 1212.96 416.26 1208.01 417.02 C 1200.62 417.97 1192.76 418.05 1185.79 415.11 C 1181.09 413.15 1177.62 408.85 1176.61 403.88 C 1171.58 404.45 1166.55 405.03 1161.53 405.62 C 1163.33 413.55 1169.21 420.24 1176.78 423.15 C 1186.67 426.98 1197.58 427.22 1208.03 426.39 C 1217.00 425.31 1226.74 422.79 1232.77 415.56 C 1236.64 411.14 1237.69 404.38 1234.85 399.15 C 1232.28 394.54 1227.32 391.88 1222.44 390.39 C 1210.61 386.92 1198.35 385.28 1186.39 382.36 C 1183.22 381.43 1179.40 379.64 1178.90 375.98 C 1178.74 371.77 1183.09 369.33 1186.61 368.31 C 1193.28 366.72 1200.37 366.58 1207.10 367.94 C 1212.27 368.95 1217.02 372.59 1218.28 377.88 C 1223.21 377.31 1228.16 376.87 1233.10 376.36 C 1232.06 372.15 1230.18 367.96 1226.75 365.18 C 1221.95 361.37 1215.82 359.81 1209.90 358.78 C 1199.32 357.22 1188.26 357.38 1178.07 360.85 M 1333.14 358.17 C 1323.64 359.06 1314.10 362.47 1307.11 369.13 C 1301.91 374.01 1298.82 380.87 1298.09 387.91 C 1297.02 396.79 1298.69 406.46 1304.66 413.39 C 1311.87 421.84 1323.09 425.62 1333.88 426.50 C 1344.87 427.31 1356.50 426.60 1366.41 421.31 C 1372.80 417.95 1377.91 412.29 1380.48 405.52 C 1375.19 405.01 1369.91 404.49 1364.62 404.10 C 1361.87 409.86 1356.84 414.57 1350.62 416.27 C 1340.90 418.89 1329.54 417.88 1321.50 411.41 C 1316.54 407.54 1314.06 401.33 1313.57 395.20 C 1336.00 395.19 1358.44 395.20 1380.87 395.19 C 1381.16 388.84 1380.46 382.27 1377.52 376.55 C 1374.38 370.23 1368.71 365.51 1362.45 362.47 C 1353.39 358.12 1343.03 357.27 1333.14 358.17 M 1407.57 365.57 C 1399.62 370.95 1395.42 380.54 1395.00 389.93 C 1394.42 398.65 1396.44 407.99 1402.52 414.55 C 1409.48 422.15 1419.79 425.74 1429.86 426.54 C 1441.03 427.50 1453.03 426.01 1462.37 419.34 C 1468.06 415.44 1472.02 409.30 1473.49 402.58 C 1468.49 402.08 1463.48 401.62 1458.48 401.14 C 1457.33 407.85 1452.67 413.85 1446.08 415.93 C 1436.68 418.99 1425.23 418.15 1417.51 411.50 C 1412.27 406.93 1410.71 399.64 1410.63 392.99 C 1410.51 386.22 1411.86 378.77 1416.97 373.91 C 1423.87 367.44 1434.23 365.93 1443.24 367.78 C 1449.77 369.10 1455.25 374.02 1457.23 380.40 C 1462.17 379.83 1467.12 379.29 1472.07 378.70 C 1470.55 373.31 1467.37 368.35 1462.77 365.08 C 1454.83 359.25 1444.64 357.75 1435.03 357.85 C 1425.46 358.07 1415.59 360.14 1407.57 365.57 M 1596.93 368.65 C 1596.95 365.54 1596.93 362.44 1596.94 359.34 C 1592.35 359.34 1587.77 359.34 1583.20 359.34 C 1583.20 381.33 1583.19 403.32 1583.20 425.31 C 1588.29 425.30 1593.38 425.31 1598.48 425.30 C 1598.48 413.85 1598.48 402.40 1598.47 390.95 C 1598.40 385.75 1598.81 380.20 1601.80 375.76 C 1604.77 371.48 1609.97 369.48 1614.86 368.31 C 1622.09 366.93 1630.37 367.05 1636.52 371.60 C 1640.39 374.44 1641.08 379.60 1641.14 384.06 C 1641.15 397.80 1641.13 411.56 1641.14 425.31 C 1646.24 425.31 1651.34 425.31 1656.45 425.30 C 1656.39 410.22 1656.56 395.13 1656.36 380.05 C 1656.50 373.49 1653.53 366.71 1647.84 363.20 C 1640.73 358.94 1632.21 357.71 1624.05 357.87 C 1614.12 357.98 1603.79 361.16 1596.93 368.65 M 2002.60 368.47 C 2002.61 365.42 2002.61 362.38 2002.62 359.34 C 1998.06 359.34 1993.50 359.34 1988.96 359.34 C 1988.93 381.33 1988.95 403.32 1988.95 425.30 C 1994.04 425.31 1999.13 425.31 2004.23 425.30 C 2004.24 413.54 2004.21 401.77 2004.24 390.01 C 2004.35 384.62 2004.95 378.76 2008.56 374.48 C 2012.38 370.05 2018.35 368.15 2024.02 367.65 C 2028.64 367.38 2033.73 367.57 2037.67 370.34 C 2041.26 372.98 2042.44 377.67 2042.49 381.93 C 2042.56 396.39 2042.49 410.85 2042.52 425.30 C 2047.59 425.31 2052.67 425.31 2057.76 425.31 C 2057.77 412.56 2057.75 399.81 2057.77 387.06 C 2057.75 382.45 2058.76 377.52 2061.99 374.04 C 2065.89 369.95 2071.59 368.05 2077.13 367.65 C 2082.38 367.25 2088.18 367.92 2092.34 371.47 C 2095.37 374.01 2095.70 378.26 2095.84 381.95 C 2095.89 396.40 2095.84 410.85 2095.86 425.30 C 2100.93 425.31 2106.00 425.31 2111.08 425.30 C 2111.07 409.87 2111.12 394.44 2111.06 379.01 C 2111.03 373.07 2108.79 366.82 2103.84 363.26 C 2097.01 358.29 2088.13 357.56 2079.96 357.96 C 2070.72 358.43 2061.72 362.46 2055.45 369.30 C 2051.77 362.18 2043.67 358.89 2036.08 358.18 C 2024.20 356.72 2011.02 359.44 2002.60 368.47 M 877.29 359.34 C 877.29 373.23 877.27 387.11 877.30 401.00 C 877.25 406.95 877.94 413.43 882.11 418.04 C 886.93 423.32 894.28 425.24 901.11 426.34 C 913.71 428.09 927.77 425.32 936.73 415.69 C 936.69 418.89 936.71 422.10 936.72 425.30 C 941.28 425.31 945.85 425.31 950.42 425.30 C 950.43 403.32 950.42 381.33 950.43 359.35 C 945.33 359.33 940.22 359.34 935.13 359.34 C 935.11 369.20 935.12 379.07 935.12 388.93 C 935.07 394.50 935.49 400.28 933.52 405.60 C 932.29 409.01 929.59 411.70 926.45 413.42 C 919.70 417.08 911.57 418.05 904.11 416.36 C 899.53 415.24 894.88 412.34 893.49 407.58 C 892.49 403.47 892.64 399.19 892.59 394.99 C 892.60 383.11 892.59 371.22 892.59 359.34 C 887.49 359.34 882.39 359.34 877.29 359.34 M 1679.96 359.34 C 1679.94 381.33 1679.95 403.32 1679.95 425.30 C 1685.04 425.31 1690.13 425.31 1695.23 425.30 C 1695.24 403.32 1695.22 381.33 1695.23 359.35 C 1690.14 359.33 1685.04 359.34 1679.96 359.34 Z" />
<path fill="#000000" opacity="1.00" d=" M 755.74 167.72 C 765.08 157.66 784.08 158.58 791.54 170.45 C 794.74 175.58 795.88 181.65 796.60 187.56 C 780.37 187.59 764.14 187.56 747.91 187.58 C 748.63 180.45 750.48 172.93 755.74 167.72 Z" />
<path fill="#000000" opacity="1.00" d=" M 1060.65 167.62 C 1070.39 157.22 1090.51 158.81 1097.18 171.88 C 1099.76 176.71 1100.75 182.18 1101.41 187.57 C 1085.16 187.57 1068.92 187.58 1052.67 187.56 C 1053.50 180.41 1055.29 172.81 1060.65 167.62 Z" />
<path fill="#000000" opacity="1.00" d=" M 1916.38 168.32 C 1925.36 157.89 1944.30 158.29 1952.27 169.72 C 1955.84 174.97 1957.06 181.37 1957.80 187.56 C 1941.56 187.58 1925.32 187.58 1909.09 187.56 C 1909.88 180.72 1911.49 173.48 1916.38 168.32 Z" />
<path fill="#000000" opacity="1.00" d=" M 1596.13 166.20 C 1603.24 164.53 1611.22 166.28 1616.51 171.47 C 1622.80 177.13 1625.01 185.85 1625.51 194.01 C 1625.92 202.25 1625.58 210.79 1622.51 218.56 C 1619.67 225.81 1612.97 231.59 1605.17 232.68 C 1598.11 233.88 1590.49 231.75 1585.45 226.58 C 1579.34 220.75 1577.37 212.03 1576.88 203.90 C 1576.46 195.86 1576.86 187.52 1580.05 180.03 C 1582.92 173.31 1588.91 167.79 1596.13 166.20 Z" />
<path fill="#000000" opacity="1.00" d=" M 235.53 369.35 C 244.96 365.74 256.47 366.06 264.96 371.89 C 269.78 374.93 272.12 380.49 272.83 385.95 C 256.01 386.00 239.19 385.98 222.37 385.96 C 222.93 378.34 228.57 372.02 235.53 369.35 Z" />
<path fill="#000000" opacity="1.00" d=" M 1099.47 367.65 C 1108.21 365.97 1117.99 368.07 1124.37 374.53 C 1129.15 379.31 1130.60 386.40 1130.32 392.94 C 1130.16 399.03 1128.41 405.54 1123.69 409.69 C 1116.96 415.73 1107.15 417.14 1098.53 415.31 C 1091.54 413.78 1084.81 409.14 1082.53 402.11 C 1080.42 395.72 1080.25 388.63 1082.12 382.16 C 1084.37 374.39 1091.77 369.13 1099.47 367.65 Z" />
<path fill="#000000" opacity="1.00" d=" M 1326.15 369.98 C 1335.62 365.70 1347.52 365.83 1356.41 371.50 C 1361.52 374.51 1364.16 380.24 1364.85 385.95 C 1348.03 386.00 1331.21 385.98 1314.39 385.97 C 1314.93 378.91 1319.80 372.83 1326.15 369.98 Z" />
<path fill="#000000" opacity="1.00" d=" M 2166.45 367.64 C 2174.92 365.82 2184.48 368.02 2190.51 374.47 C 2195.32 379.65 2196.43 387.11 2196.20 393.93 C 2196.01 400.46 2193.77 407.32 2188.55 411.55 C 2177.84 420.89 2158.74 419.52 2150.85 407.20 C 2147.24 400.45 2147.12 392.27 2148.38 384.88 C 2150.01 376.02 2157.85 369.39 2166.45 367.64 Z" />
<path fill="#000000" opacity="1.00" d=" M 393.00 397.03 C 403.05 395.81 413.21 394.96 423.00 392.24 C 423.06 398.21 423.36 405.16 418.77 409.72 C 412.39 416.21 402.77 418.12 393.98 418.01 C 388.46 417.93 382.19 417.04 378.39 412.59 C 375.74 409.60 376.09 404.70 378.99 401.99 C 382.66 398.31 388.12 397.79 393.00 397.03 Z" />
<path fill="#000000" opacity="1.00" d=" M 715.97 397.98 C 727.79 395.82 739.96 395.57 751.58 392.26 C 751.67 398.35 751.90 405.48 747.07 410.02 C 739.17 417.52 727.30 418.88 716.92 417.56 C 711.81 416.84 705.63 413.87 705.17 408.08 C 704.86 402.22 710.89 398.78 715.97 397.98 Z" />
</svg>
