<?xml version="1.0" standalone="no"?>
<!DOCTYPE svg PUBLIC "-//W3C//DTD SVG 1.1//EN" "http://www.w3.org/Graphics/SVG/1.1/DTD/svg11.dtd">
<!--Generator: Xara Designer (www.xara.com), SVG filter version: 6.6.0.0-->
<svg fill="none" fill-rule="evenodd" stroke="black" stroke-width="0.501" stroke-linejoin="bevel" stroke-miterlimit="10" font-family="Times New Roman" font-size="16" style="font-variant-ligatures:none" xmlns:xlink="http://www.w3.org/1999/xlink" xmlns="http://www.w3.org/2000/svg" version="1.1" overflow="visible" width="142.592pt" height="46.333pt" viewBox="180.75 -119.712 142.592 46.333">
 <defs>
	</defs>
 <g id="Layer 1" transform="scale(1 -1)">
  <g id="Group" stroke-linejoin="miter" stroke="none" stroke-width="0.044">
   <path d="M 200.354,80.413 L 202.027,80.413 C 204.39,80.424 205.418,79.511 205.418,77.278 C 205.418,75.046 204.39,74.133 202.027,74.143 L 200.354,74.143 L 200.354,80.413 Z M 199.57,73.536 L 202.419,73.536 C 204.898,73.588 206.201,74.826 206.201,77.278 C 206.201,79.732 204.898,80.968 202.419,81.021 L 199.57,81.021 L 199.57,73.536 Z" fill="#231f20" marker-start="none" marker-end="none"/>
   <path d="M 207.37,78.945 L 207.37,73.536 L 208.096,73.536 L 208.096,78.945 L 207.37,78.945 Z M 207.37,81.021 L 207.37,79.961 L 208.096,79.961 L 208.096,81.021 L 207.37,81.021 Z" fill="#231f20" marker-start="none" marker-end="none"/>
   <path d="M 215.099,76.063 C 215.158,77.582 214.397,79.103 212.482,79.103 C 210.591,79.103 209.795,77.667 209.795,76.241 C 209.795,74.699 210.591,73.379 212.482,73.379 C 213.981,73.379 214.765,74.091 215.076,75.319 L 214.35,75.319 C 214.119,74.501 213.543,73.935 212.482,73.935 C 211.086,73.935 210.533,75.098 210.522,76.063 L 215.099,76.063 Z M 210.522,76.618 C 210.637,77.603 211.293,78.547 212.482,78.547 C 213.658,78.547 214.339,77.614 214.373,76.618 L 210.522,76.618 Z" fill="#231f20" marker-start="none" marker-end="none"/>
   <path d="M 220.607,73.536 L 221.391,73.536 L 221.391,80.004 L 221.413,80.004 L 224.239,73.536 L 224.977,73.536 L 227.791,80.004 L 227.814,80.004 L 227.814,73.536 L 228.598,73.536 L 228.598,81.021 L 227.444,81.021 L 224.608,74.458 L 221.76,81.021 L 220.607,81.021 L 220.607,73.536 Z" fill="#231f20" fill-rule="nonzero" marker-start="none" marker-end="none"/>
   <path d="M 235.702,76.063 C 235.76,77.582 234.998,79.103 233.084,79.103 C 231.193,79.103 230.397,77.667 230.397,76.241 C 230.397,74.699 231.193,73.379 233.084,73.379 C 234.583,73.379 235.368,74.091 235.679,75.319 L 234.953,75.319 C 234.721,74.501 234.145,73.935 233.084,73.935 C 231.689,73.935 231.136,75.098 231.124,76.063 L 235.702,76.063 Z M 231.124,76.618 C 231.239,77.603 231.896,78.547 233.084,78.547 C 234.261,78.547 234.941,77.614 234.975,76.618 L 231.124,76.618 Z" fill="#231f20" marker-start="none" marker-end="none"/>
   <path d="M 238.438,80.57 L 237.712,80.57 L 237.712,78.945 L 236.674,78.945 L 236.674,78.389 L 237.712,78.389 L 237.712,74.689 C 237.7,73.766 238.034,73.472 239.003,73.472 C 239.223,73.472 239.43,73.494 239.649,73.494 L 239.649,74.059 C 239.441,74.039 239.234,74.028 239.026,74.028 C 238.508,74.059 238.438,74.311 238.438,74.742 L 238.438,78.389 L 239.649,78.389 L 239.649,78.945 L 238.438,78.945 L 238.438,80.57 Z" fill="#231f20" fill-rule="nonzero" marker-start="none" marker-end="none"/>
   <path d="M 245.107,75.632 C 245.118,74.574 244.138,73.935 243.031,73.935 C 242.351,73.935 241.705,74.343 241.705,75.004 C 241.705,76.063 243.239,76.052 244.472,76.251 C 244.668,76.282 244.991,76.335 245.083,76.492 L 245.107,76.492 L 245.107,75.632 Z M 241.958,77.288 C 241.981,78.17 242.65,78.547 243.55,78.547 C 244.403,78.547 245.107,78.328 245.107,77.436 C 245.107,76.838 244.772,76.765 244.173,76.702 C 242.604,76.534 240.978,76.482 240.978,74.961 C 240.978,73.871 241.878,73.379 242.973,73.379 C 244.115,73.379 244.633,73.777 245.141,74.48 L 245.165,74.48 C 245.165,73.914 245.279,73.536 246.018,73.536 C 246.213,73.536 246.33,73.546 246.49,73.578 L 246.49,74.133 C 246.433,74.112 246.341,74.091 246.26,74.091 C 245.971,74.091 245.833,74.238 245.833,74.491 L 245.833,77.362 C 245.833,78.809 244.692,79.103 243.641,79.103 C 242.282,79.103 241.301,78.557 241.231,77.288 L 241.958,77.288 Z" fill="#231f20" marker-start="none" marker-end="none"/>
   <path d="M 248.627,73.536 L 248.627,81.021 L 247.901,81.021 L 247.901,73.536 L 248.627,73.536 Z" fill="#231f20" fill-rule="nonzero" marker-start="none" marker-end="none"/>
   <path d="M 251.364,73.536 L 251.364,81.021 L 250.637,81.021 L 250.637,73.536 L 251.364,73.536 Z" fill="#231f20" fill-rule="nonzero" marker-start="none" marker-end="none"/>
   <path d="M 254.677,73.536 L 255.472,73.536 L 256.925,78.085 L 256.948,78.085 L 258.414,73.536 L 259.209,73.536 L 261.123,78.945 L 260.35,78.945 L 258.828,74.311 L 258.804,74.311 L 257.352,78.945 L 256.533,78.945 L 255.081,74.311 L 255.057,74.311 L 253.535,78.945 L 252.763,78.945 L 254.677,73.536 Z" fill="#231f20" fill-rule="nonzero" marker-start="none" marker-end="none"/>
   <path d="M 267.514,76.063 C 267.571,77.582 266.811,79.103 264.896,79.103 C 263.005,79.103 262.21,77.667 262.21,76.241 C 262.21,74.699 263.005,73.379 264.896,73.379 C 266.395,73.379 267.179,74.091 267.491,75.319 L 266.764,75.319 C 266.533,74.501 265.957,73.935 264.896,73.935 C 263.501,73.935 262.947,75.098 262.935,76.063 L 267.514,76.063 Z M 262.935,76.618 C 263.052,77.603 263.708,78.547 264.896,78.547 C 266.073,78.547 266.752,77.614 266.786,76.618 L 262.935,76.618 Z" fill="#231f20" marker-start="none" marker-end="none"/>
   <path d="M 269.097,73.536 L 269.824,73.536 L 269.824,76.419 C 269.824,77.54 270.723,78.421 272.038,78.358 L 272.038,79.019 C 270.965,79.061 270.157,78.547 269.79,77.677 L 269.767,77.677 L 269.767,78.945 L 269.097,78.945 L 269.097,73.536 Z" fill="#231f20" fill-rule="nonzero" marker-start="none" marker-end="none"/>
   <path d="M 273.334,73.536 L 274.06,73.536 L 274.06,75.591 L 275.236,76.482 L 277.589,73.536 L 278.5,73.536 L 275.79,76.943 L 278.327,78.945 L 277.359,78.945 L 274.06,76.325 L 274.06,81.021 L 273.334,81.021 L 273.334,73.536 Z" fill="#231f20" fill-rule="nonzero" marker-start="none" marker-end="none"/>
   <path d="M 283.995,77.362 C 283.949,78.537 283.004,79.103 281.816,79.103 C 280.766,79.103 279.579,78.683 279.579,77.582 C 279.579,76.661 280.294,76.366 281.239,76.136 L 282.173,75.947 C 282.831,75.8 283.477,75.591 283.477,74.961 C 283.477,74.207 282.531,73.935 281.85,73.935 C 280.883,73.935 280.156,74.396 280.098,75.287 L 279.371,75.287 C 279.487,73.966 280.432,73.379 281.816,73.379 C 282.923,73.379 284.203,73.83 284.203,75.004 C 284.203,75.947 283.338,76.387 282.508,76.503 L 281.539,76.702 C 281.042,76.817 280.306,77.026 280.306,77.614 C 280.306,78.317 281.067,78.547 281.713,78.547 C 282.543,78.547 283.234,78.18 283.269,77.362 L 283.995,77.362 Z" fill="#231f20" fill-rule="nonzero" marker-start="none" marker-end="none"/>
   <path d="M 287.011,80.57 L 286.284,80.57 L 286.284,78.945 L 285.246,78.945 L 285.246,78.389 L 286.284,78.389 L 286.284,74.689 C 286.272,73.766 286.607,73.472 287.575,73.472 C 287.794,73.472 288.002,73.494 288.221,73.494 L 288.221,74.059 C 288.014,74.039 287.805,74.028 287.598,74.028 C 287.08,74.059 287.011,74.311 287.011,74.742 L 287.011,78.389 L 288.221,78.389 L 288.221,78.945 L 287.011,78.945 L 287.011,80.57 Z" fill="#231f20" fill-rule="nonzero" marker-start="none" marker-end="none"/>
   <path d="M 293.678,75.632 C 293.69,74.574 292.71,73.935 291.603,73.935 C 290.922,73.935 290.277,74.343 290.277,75.004 C 290.277,76.063 291.81,76.052 293.044,76.251 C 293.24,76.282 293.562,76.335 293.655,76.492 L 293.678,76.492 L 293.678,75.632 Z M 290.53,77.288 C 290.553,78.17 291.222,78.547 292.121,78.547 C 292.974,78.547 293.678,78.328 293.678,77.436 C 293.678,76.838 293.343,76.765 292.744,76.702 C 291.175,76.534 289.55,76.482 289.55,74.961 C 289.55,73.871 290.45,73.379 291.545,73.379 C 292.687,73.379 293.206,73.777 293.713,74.48 L 293.736,74.48 C 293.736,73.914 293.851,73.536 294.588,73.536 C 294.785,73.536 294.9,73.546 295.062,73.578 L 295.062,74.133 C 295.003,74.112 294.912,74.091 294.831,74.091 C 294.543,74.091 294.404,74.238 294.404,74.491 L 294.404,77.362 C 294.404,78.809 293.264,79.103 292.214,79.103 C 290.853,79.103 289.873,78.557 289.804,77.288 L 290.53,77.288 Z" fill="#231f20" marker-start="none" marker-end="none"/>
   <path d="M 297.614,80.57 L 296.887,80.57 L 296.887,78.945 L 295.85,78.945 L 295.85,78.389 L 296.887,78.389 L 296.887,74.689 C 296.876,73.766 297.21,73.472 298.18,73.472 C 298.399,73.472 298.606,73.494 298.825,73.494 L 298.825,74.059 C 298.617,74.039 298.41,74.028 298.202,74.028 C 297.683,74.059 297.614,74.311 297.614,74.742 L 297.614,78.389 L 298.825,78.389 L 298.825,78.945 L 297.614,78.945 L 297.614,80.57 Z" fill="#231f20" fill-rule="nonzero" marker-start="none" marker-end="none"/>
   <path d="M 301.63,80.57 L 300.903,80.57 L 300.903,78.945 L 299.865,78.945 L 299.865,78.389 L 300.903,78.389 L 300.903,74.689 C 300.891,73.766 301.226,73.472 302.195,73.472 C 302.414,73.472 302.622,73.494 302.841,73.494 L 302.841,74.059 C 302.633,74.039 302.426,74.028 302.218,74.028 C 301.699,74.059 301.63,74.311 301.63,74.742 L 301.63,78.389 L 302.841,78.389 L 302.841,78.945 L 301.63,78.945 L 301.63,80.57 Z" fill="#231f20" fill-rule="nonzero" marker-start="none" marker-end="none"/>
   <path d="M 307.528,73.536 L 308.371,73.536 L 309.362,75.863 L 313.109,75.863 L 314.112,73.536 L 314.955,73.536 L 311.726,81.021 L 310.849,81.021 L 307.528,73.536 Z M 311.253,80.308 L 312.844,76.47 L 309.604,76.47 L 311.253,80.308 Z" fill="#231f20" marker-start="none" marker-end="none"/>
   <path d="M 323.342,77.341 L 319.847,77.341 L 319.847,76.732 L 322.649,76.732 C 322.683,75.15 321.623,73.987 319.801,73.987 C 317.622,73.987 316.699,75.642 316.699,77.278 C 316.699,78.914 317.622,80.57 319.801,80.57 C 321.369,80.57 322.35,79.553 322.453,78.693 L 323.238,78.693 C 322.938,80.329 321.531,81.178 319.801,81.178 C 317.207,81.178 315.915,79.323 315.915,77.278 C 315.915,75.235 317.207,73.379 319.801,73.379 C 320.989,73.379 322.095,73.83 322.649,74.899 L 322.672,74.899 L 322.776,73.536 L 323.342,73.536 L 323.342,77.341 Z" fill="#231f20" fill-rule="nonzero" marker-start="none" marker-end="none"/>
   <path d="M 218.158,85.638 L 218.158,119.712 L 180.75,119.712 L 180.75,85.638 L 218.158,85.638 Z" fill="#231f20" fill-rule="nonzero" marker-start="none" marker-end="none"/>
   <path d="M 218.402,109.369 L 211.69,109.369 L 211.69,101.129 L 211.623,101.129 C 210.606,102.621 208.81,103.503 206.809,103.503 C 200.912,103.503 199.318,98.486 199.318,94.351 C 199.318,89.945 201.725,85.029 206.708,85.029 C 209.995,85.029 218.402,85.625 218.402,85.625 L 218.402,109.369 Z" fill="#ffffff" fill-rule="nonzero" marker-start="none" marker-end="none"/>
   <path d="M 211.929,93.98 C 211.929,91.878 211.386,89.607 208.979,89.607 C 206.573,89.607 206.03,91.878 206.03,93.98 C 206.03,96.047 206.573,98.319 208.979,98.319 C 211.386,98.319 211.929,96.047 211.929,93.98 Z" fill="#231f20" fill-rule="nonzero" marker-start="none" marker-end="none"/>
   <path d="M 218.411,85.633 L 224.822,85.633 L 224.822,98.487 L 228.06,98.487 L 228.06,102.436 L 224.693,102.436 C 224.595,103.991 225.114,104.444 226.668,104.444 C 227.185,104.444 227.703,104.282 228.221,104.217 L 228.221,108.62 C 227.249,108.652 226.31,108.75 225.339,108.75 C 222.75,108.75 221.131,108.556 219.739,107.163 C 218.509,105.934 218.347,104.087 218.411,102.436 L 215.789,102.436 L 215.789,98.487 L 218.411,98.487 L 218.411,85.633 Z" fill="#231f20" fill-rule="nonzero" marker-start="none" marker-end="none"/>
   <path d="M 229.289,102.436 L 229.289,85.633 L 235.7,85.633 L 235.7,102.436 L 229.289,102.436 Z M 235.7,104.249 L 235.7,108.75 L 229.289,108.75 L 229.289,104.249 L 235.7,104.249 Z" fill="#231f20" marker-start="none" marker-end="none"/>
   <path d="M 252.929,97.548 C 252.768,101.854 248.397,102.858 244.771,102.858 C 241.403,102.858 236.839,101.757 236.839,97.516 C 236.839,94.634 238.814,93.08 243.703,92.238 C 246.68,91.719 247.231,91.429 247.231,90.458 C 247.231,89.487 245.904,89.163 245.062,89.163 C 244.284,89.163 243.67,89.357 243.346,89.649 C 242.86,90.069 242.601,90.554 242.569,91.138 L 236.45,91.138 C 236.548,86.799 240.886,85.213 244.836,85.213 C 248.915,85.213 253.382,86.475 253.382,91.138 C 253.382,93.889 251.505,95.152 249.368,95.832 C 247.231,96.544 244.803,96.674 243.735,97.127 C 243.379,97.289 242.991,97.516 242.991,98.001 C 242.991,99.101 244.025,99.296 244.933,99.296 C 245.45,99.296 245.969,99.134 246.357,98.811 C 246.778,98.519 247.07,98.098 247.101,97.548 L 252.929,97.548 Z" fill="#231f20" fill-rule="nonzero" marker-start="none" marker-end="none"/>
   <path d="M 271.484,96.058 C 271.095,100.688 267.34,102.858 262.936,102.858 C 257.886,102.858 253.839,99.328 253.839,94.019 C 253.839,88.709 257.886,85.213 262.936,85.213 C 267.469,85.213 271.062,87.77 271.678,92.335 L 265.559,92.335 C 265.43,91.007 264.459,89.875 263.066,89.875 C 260.606,89.875 260.25,91.978 260.25,94.019 C 260.25,96.058 260.606,98.195 263.066,98.195 C 263.747,98.195 264.297,98.001 264.685,97.645 C 265.105,97.289 265.332,96.738 265.397,96.058 L 271.484,96.058 Z" fill="#231f20" fill-rule="nonzero" marker-start="none" marker-end="none"/>
   <path d="M 272.592,85.633 L 279.001,85.633 L 279.001,94.505 C 279.001,97.191 280.459,97.742 281.56,97.742 C 283.438,97.742 283.664,96.382 283.664,94.44 L 283.664,85.633 L 290.073,85.633 L 290.073,97.159 C 290.073,101.011 287.322,102.858 284.311,102.858 C 281.592,102.858 280.167,101.919 279.066,100.624 L 279.001,100.624 L 279.001,108.75 L 272.592,108.75 L 272.592,85.633 Z" fill="#231f20" fill-rule="nonzero" marker-start="none" marker-end="none"/>
   <path d="M 297.263,95.929 C 297.555,97.742 298.655,98.746 300.565,98.746 C 302.217,98.746 303.383,97.483 303.383,95.929 L 297.263,95.929 Z M 309.534,92.595 C 309.534,99.134 306.652,102.858 299.983,102.858 C 294.673,102.858 291.113,98.874 291.113,93.986 C 291.113,88.385 295.159,85.213 300.533,85.213 C 304.354,85.213 307.882,86.896 309.177,90.522 L 303.188,90.522 C 302.67,89.714 301.536,89.324 300.5,89.324 C 298.494,89.324 297.392,90.685 297.231,92.595 L 309.534,92.595 Z" fill="#231f20" marker-start="none" marker-end="none"/>
   <path d="M 310.479,85.633 L 316.889,85.633 L 316.889,92.271 C 316.889,95.864 318.25,97.354 320.774,97.354 C 322.07,97.354 322.652,97.159 323.3,96.932 L 323.3,102.599 C 322.684,102.76 322.07,102.858 321.422,102.858 C 319.091,102.858 317.731,101.757 316.695,99.75 L 316.63,99.75 L 316.63,102.436 L 310.479,102.436 L 310.479,85.633 Z" fill="#231f20" fill-rule="nonzero" marker-start="none" marker-end="none"/>
  </g>
 </g>
 <g id="Sponsoren" transform="scale(1 -1)"/>
 <g id="Content" transform="scale(1 -1)"/>
 <g id="Logo Vektor" transform="scale(1 -1)"/>
</svg>
