<?xml version="1.0" standalone="no"?>
<!DOCTYPE svg PUBLIC "-//W3C//DTD SVG 1.1//EN" "http://www.w3.org/Graphics/SVG/1.1/DTD/svg11.dtd">
<!--Generator: Xara Designer (www.xara.com), SVG filter version: 6.6.0.0-->
<svg fill="none" fill-rule="evenodd" stroke="black" stroke-width="0.501" stroke-linejoin="bevel" stroke-miterlimit="10" font-family="Times New Roman" font-size="16" style="font-variant-ligatures:none" xmlns:xlink="http://www.w3.org/1999/xlink" xmlns="http://www.w3.org/2000/svg" version="1.1" overflow="visible" width="105.679pt" height="22.023pt" viewBox="222.786 -431.822 105.679 22.023">
 <defs>
	</defs>
 <g id="Layer 1" transform="scale(1 -1)">
  <g id="Group" stroke-linejoin="miter" stroke="none" stroke-width="0.047" fill="#00b5a8">
   <path d="M 237.143,421.953 C 237.143,421.948 237.143,421.936 237.143,421.931 C 237.143,421.124 236.479,420.439 235.43,420.439 C 234.381,420.439 233.716,421.124 233.716,421.931 C 233.716,422.738 234.387,423.396 235.43,423.396 C 236.473,423.396 237.13,422.749 237.143,421.953 Z M 306.871,412.295 L 305.858,412.295 L 305.858,412.62 C 305.49,412.348 305.022,412.227 304.57,412.226 C 304.091,412.225 303.609,412.336 303.277,412.703 C 303.077,412.936 303.002,413.201 302.999,413.505 L 302.999,415.948 L 304.011,415.948 L 304.012,413.626 C 304.017,413.485 304.04,413.359 304.115,413.238 C 304.27,413.004 304.537,412.944 304.804,412.944 C 305.127,412.945 305.43,413.037 305.659,413.273 C 305.793,413.419 305.855,413.579 305.858,413.776 L 305.858,415.948 L 306.871,415.948 L 306.871,412.295 Z M 298.152,414.135 C 298.108,414.125 298.063,414.115 298.019,414.106 C 297.823,414.064 297.626,414.029 297.428,413.996 C 297.248,413.965 297.073,413.927 296.9,413.869 C 296.693,413.794 296.418,413.669 296.433,413.408 C 296.453,413.073 296.844,412.971 297.134,412.965 C 297.414,412.959 297.742,412.992 297.973,413.168 C 298.192,413.346 298.25,413.627 298.246,413.897 C 298.245,413.94 298.243,413.983 298.242,414.027 C 298.239,414.07 298.237,414.113 298.237,414.156 C 298.209,414.149 298.18,414.142 298.152,414.135 Z M 298.202,412.62 C 297.826,412.348 297.408,412.253 296.949,412.254 C 296.629,412.254 296.318,412.302 296.024,412.432 C 295.639,412.613 295.332,412.905 295.317,413.356 C 295.305,413.733 295.467,414.02 295.793,414.206 C 296.116,414.38 296.519,414.46 296.885,414.521 C 297.186,414.57 297.49,414.594 297.786,414.673 C 297.949,414.721 298.236,414.814 298.228,415.028 C 298.22,415.226 297.999,415.313 297.838,415.353 C 297.524,415.421 296.946,415.443 296.659,415.177 C 296.574,415.09 296.538,414.995 296.53,414.874 L 295.533,414.87 C 295.573,415.118 295.644,415.322 295.795,415.516 C 296.188,415.989 296.893,416.054 297.465,416.055 C 297.809,416.056 298.161,416.034 298.492,415.936 C 298.968,415.785 299.208,415.5 299.214,414.961 L 299.214,413.12 C 299.215,412.851 299.214,412.564 299.359,412.328 L 299.38,412.295 L 298.384,412.295 C 298.279,412.394 298.243,412.477 298.202,412.62 Z M 291.965,414.118 C 291.965,413.846 291.925,413.595 291.828,413.342 C 291.505,412.568 290.748,412.212 289.949,412.212 C 289.519,412.213 289.094,412.322 288.758,412.603 L 288.758,412.295 L 287.745,412.295 L 287.745,417.356 L 288.758,417.356 L 288.758,415.633 C 289.114,415.932 289.537,416.025 289.985,416.021 C 290.356,416.017 290.704,415.948 291.033,415.775 C 291.362,415.592 291.603,415.347 291.771,415.021 C 291.91,414.733 291.965,414.438 291.965,414.118 Z M 289.764,412.971 C 290.101,412.966 290.396,413.051 290.622,413.292 C 290.808,413.502 290.88,413.756 290.893,414.033 C 290.904,414.282 290.872,414.53 290.757,414.754 C 290.571,415.093 290.255,415.241 289.876,415.262 C 289.657,415.273 289.436,415.251 289.237,415.155 C 288.856,414.958 288.764,414.553 288.758,414.154 C 288.754,413.841 288.796,413.495 289.009,413.25 C 289.206,413.037 289.481,412.975 289.764,412.971 Z M 284.39,412.977 L 284.411,412.98 L 284.411,412.297 C 284.109,412.238 283.803,412.235 283.498,412.264 C 283.175,412.3 282.837,412.369 282.669,412.675 C 282.555,412.899 282.532,413.156 282.528,413.403 L 282.527,415.285 L 281.791,415.285 L 281.791,415.948 L 282.527,415.948 L 282.527,417.213 L 283.549,417.213 L 283.549,415.948 L 284.411,415.948 L 284.411,415.285 L 283.549,415.285 L 283.55,413.435 C 283.55,413.324 283.567,413.202 283.631,413.107 C 283.767,412.924 284.209,412.959 284.39,412.977 Z M 276.663,412.937 C 276.838,412.934 277.006,412.945 277.176,412.987 C 277.356,413.036 277.615,413.143 277.634,413.36 C 277.647,413.517 277.502,413.594 277.382,413.647 C 277.123,413.752 276.835,413.789 276.559,413.821 C 276.13,413.868 275.671,413.925 275.278,414.116 C 274.971,414.275 274.797,414.52 274.804,414.883 C 274.82,415.605 275.63,415.917 276.232,416.003 C 276.414,416.027 276.594,416.038 276.772,416.037 C 277.407,416.033 278.014,415.866 278.556,415.475 L 277.942,414.962 C 277.572,415.217 277.151,415.341 276.702,415.341 C 276.47,415.341 275.854,415.311 275.839,414.961 C 275.854,414.698 276.478,414.626 276.662,414.6 C 276.936,414.564 277.211,414.535 277.483,414.489 C 277.826,414.425 278.199,414.326 278.453,414.069 C 278.62,413.89 278.69,413.678 278.683,413.432 C 278.668,412.933 278.315,412.617 277.891,412.422 C 277.505,412.253 277.103,412.206 276.683,412.209 C 276.003,412.214 275.335,412.34 274.771,412.739 C 274.717,412.78 274.665,412.821 274.613,412.865 L 275.394,413.381 C 275.588,413.234 275.796,413.107 276.028,413.031 C 276.233,412.966 276.448,412.941 276.663,412.937 Z M 267.978,417.119 L 268.919,417.119 L 268.919,416.356 L 267.978,416.356 L 267.978,417.119 Z M 269.463,417.119 L 270.405,417.119 L 270.405,416.356 L 269.463,416.356 L 269.463,417.119 Z M 271.114,412.295 L 270.102,412.295 L 270.102,412.62 C 269.718,412.344 269.272,412.227 268.803,412.226 C 268.278,412.225 267.729,412.371 267.424,412.831 C 267.294,413.04 267.245,413.26 267.243,413.505 L 267.243,415.948 L 268.255,415.948 L 268.257,413.584 C 268.266,413.447 268.298,413.323 268.378,413.21 C 268.545,412.988 268.815,412.94 269.082,412.944 C 269.511,412.952 269.989,413.168 270.087,413.624 C 270.097,413.675 270.101,413.725 270.102,413.776 L 270.102,415.948 L 271.114,415.948 L 271.114,412.295 Z M 263.844,415.132 C 263.752,415.132 263.66,415.136 263.568,415.134 C 263.071,415.119 262.434,414.946 262.375,414.36 C 262.373,414.336 262.372,414.312 262.372,414.288 L 262.372,412.295 L 261.35,412.295 L 261.35,415.948 L 262.372,415.948 L 262.372,415.442 C 262.603,415.737 262.886,415.912 263.252,415.991 C 263.437,416.025 263.66,416.049 263.844,416.016 L 263.844,415.132 Z M 255.86,412.203 C 255.047,412.181 254.248,412.452 253.792,413.155 C 253.599,413.472 253.518,413.811 253.521,414.181 C 253.533,415.335 254.512,416.035 255.636,416.049 C 256.995,416.065 257.845,415.176 257.845,413.882 L 254.62,413.882 C 254.67,413.555 254.833,413.32 255.116,413.15 C 255.355,413.015 255.627,412.964 255.899,412.974 C 256.327,412.989 256.71,413.172 256.974,413.512 L 257.825,413.14 C 257.685,412.977 257.537,412.833 257.366,412.703 C 256.92,412.373 256.419,412.217 255.86,412.203 Z M 254.621,414.572 L 256.66,414.572 C 256.597,415.065 256.122,415.333 255.666,415.327 C 255.201,415.32 254.724,415.062 254.621,414.572 Z M 250.007,412.295 L 248.966,412.295 L 248.966,412.653 C 248.493,412.285 247.877,412.166 247.29,412.166 C 246.958,412.166 246.638,412.203 246.317,412.285 C 245.587,412.487 244.982,412.923 244.635,413.606 C 244.455,413.987 244.38,414.378 244.382,414.798 C 244.383,415.204 244.45,415.578 244.613,415.949 C 244.892,416.543 245.361,416.964 245.958,417.225 C 246.412,417.411 246.878,417.483 247.368,417.485 C 248.126,417.486 248.869,417.31 249.444,416.791 C 249.681,416.569 249.853,416.319 249.992,416.026 L 248.989,415.684 C 248.911,415.838 248.822,415.975 248.707,416.103 C 248.36,416.477 247.9,416.649 247.394,416.655 C 246.754,416.663 246.209,416.414 245.852,415.881 C 245.649,415.559 245.569,415.214 245.57,414.834 C 245.57,414.342 245.696,413.893 246.035,413.528 C 246.386,413.169 246.827,413.02 247.322,413.004 C 247.853,412.988 248.419,413.117 248.756,413.561 C 248.896,413.758 248.957,413.974 248.957,414.215 L 247.458,414.215 L 247.458,415.035 L 250.007,415.035 L 250.007,412.295 Z M 262.808,420.618 C 262.368,421.199 262.101,421.875 262.101,422.607 L 262.101,429.664 C 262.101,430.208 262.335,431.377 262.644,431.822 L 258.075,431.813 C 258.423,431.445 258.698,430.531 258.698,429.664 L 258.698,424.33 C 258.698,423.169 257.963,422.353 256.78,422.351 C 255.597,422.349 254.817,423.12 254.817,424.33 L 254.817,429.664 C 254.817,430.531 254.958,431.169 255.253,431.808 L 250.827,431.799 C 251.127,431.434 251.354,430.531 251.354,429.664 L 251.354,424.33 C 251.354,421.671 252.608,420.334 255.23,420.306 C 256.449,420.292 257.544,420.499 258.587,421.176 C 258.708,421.255 258.747,421.232 258.754,421.163 L 258.812,420.618 L 262.808,420.618 Z M 298.727,420.618 L 299.532,423.221 C 298.282,422.506 297.378,422.246 295.945,422.232 C 295.422,422.227 295.108,422.245 294.609,422.245 C 294.454,422.245 294.106,422.346 294.106,422.66 L 294.103,425.171 C 294.102,425.428 294.486,425.507 294.602,425.508 L 295.445,425.516 C 296.181,425.522 296.911,425.377 297.579,425.036 L 297.579,427.801 C 297.055,427.357 296.076,427.298 295.445,427.298 L 294.609,427.298 C 294.497,427.298 294.106,427.277 294.106,427.57 L 294.106,429.821 C 294.106,430.091 294.357,430.148 294.609,430.148 L 295.445,430.148 C 296.877,430.148 297.547,430.033 298.777,429.346 L 298.347,431.799 L 290.016,431.799 C 290.44,431.3 290.701,430.64 290.702,429.982 L 290.703,422.607 C 290.703,421.952 290.419,421.134 290.016,420.618 L 298.727,420.618 Z M 241.582,420.618 L 246.151,420.618 C 245.616,421.22 245.47,421.98 245.47,422.765 L 245.47,425.378 C 245.47,425.696 246.19,425.595 246.372,425.595 C 247.072,425.595 247.8,425.503 248.431,425.196 L 248.431,427.87 C 247.789,427.442 246.861,427.353 246.221,427.343 C 246.031,427.34 245.47,427.28 245.47,427.581 L 245.47,429.81 C 245.47,430.2 245.984,430.148 246.384,430.148 C 247.694,430.148 248.316,430.161 249.653,429.411 L 249.363,431.799 L 241.312,431.799 C 241.852,431.14 242.006,430.382 242.006,429.553 L 242.006,422.765 C 242.006,422.107 241.937,421.191 241.582,420.618 Z M 226.873,420.618 L 231.442,420.618 C 230.907,421.22 230.761,421.98 230.761,422.765 L 230.761,425.378 C 230.761,425.696 231.481,425.595 231.663,425.595 C 232.363,425.595 233.091,425.503 233.722,425.196 L 233.722,427.87 C 233.08,427.442 232.152,427.353 231.512,427.343 C 231.322,427.34 230.761,427.28 230.761,427.581 L 230.761,429.81 C 230.761,430.2 231.275,430.148 231.675,430.148 C 232.985,430.148 233.607,430.161 234.944,429.411 L 234.654,431.799 L 226.603,431.799 C 227.143,431.14 227.297,430.382 227.297,429.553 L 227.297,422.765 C 227.297,422.107 227.228,421.191 226.873,420.618 Z M 268.98,426.831 C 270.09,426.831 270.553,427.427 270.551,428.497 C 270.55,429.59 269.843,430.148 268.98,430.148 L 268.584,430.148 C 268.525,430.148 268.47,430.071 268.47,430.012 L 268.476,426.936 C 268.476,426.881 268.532,426.831 268.598,426.831 L 268.98,426.831 Z M 281.847,426.831 C 282.958,426.831 283.42,427.427 283.419,428.497 C 283.417,429.59 282.71,430.148 281.847,430.148 L 281.451,430.148 C 281.393,430.148 281.337,430.071 281.337,430.012 L 281.344,426.936 C 281.344,426.881 281.4,426.831 281.465,426.831 L 281.847,426.831 Z M 305.471,426.831 C 306.581,426.831 307.043,427.427 307.042,428.497 C 307.04,429.59 306.333,430.148 305.471,430.148 L 305.074,430.148 C 305.016,430.148 304.96,430.071 304.961,430.012 L 304.967,426.936 C 304.967,426.881 305.023,426.831 305.088,426.831 L 305.471,426.831 Z M 313.367,419.314 L 313.559,419.314 L 328.465,419.314 L 328.465,409.799 L 222.804,409.799 L 222.786,419.314 L 272.683,419.314 L 268.619,425.363 C 268.592,425.402 268.476,425.443 268.476,425.359 L 268.476,422.607 C 268.476,421.651 268.646,421.1 268.959,420.618 L 264.517,420.609 C 264.833,421.002 264.941,421.559 264.941,422.607 L 264.941,429.553 C 264.941,430.42 264.834,431.185 264.3,431.799 L 270.94,431.799 C 272.543,431.799 274.199,430.528 274.202,428.804 C 274.204,427.935 273.86,427.253 273.238,426.75 C 272.944,426.512 272.548,426.316 272.272,426.149 C 272.22,426.117 272.226,426.047 272.264,425.991 L 276.877,419.314 L 285.28,419.314 L 285.55,419.314 L 281.487,425.363 C 281.46,425.402 281.344,425.443 281.344,425.359 L 281.344,422.607 C 281.344,421.651 281.514,421.1 281.827,420.618 L 277.385,420.609 C 277.701,421.002 277.809,421.559 277.809,422.607 L 277.809,429.553 C 277.809,430.42 277.702,431.185 277.167,431.799 L 283.808,431.799 C 285.41,431.799 287.066,430.528 287.07,428.804 C 287.071,427.935 286.727,427.253 286.106,426.75 C 285.812,426.512 285.416,426.316 285.14,426.149 C 285.087,426.117 285.093,426.047 285.132,425.991 L 289.745,419.314 L 289.936,419.314 C 296.349,419.314 302.761,419.314 309.173,419.314 L 305.11,425.363 C 305.083,425.402 304.967,425.443 304.967,425.359 L 304.967,422.607 C 304.967,421.651 305.136,421.1 305.45,420.618 L 301.008,420.609 C 301.324,421.002 301.432,421.559 301.432,422.607 L 301.432,429.553 C 301.432,430.42 301.325,431.185 300.79,431.799 L 307.431,431.799 C 309.033,431.799 310.69,430.528 310.693,428.804 C 310.695,427.935 310.35,427.253 309.729,426.75 C 309.435,426.512 309.039,426.316 308.763,426.149 C 308.71,426.117 308.716,426.047 308.755,425.991 L 313.367,419.314 Z M 316.43,420.619 L 317.313,420.621 L 317.313,420.621 C 317.245,420.763 317.236,420.825 317.236,420.899 L 317.236,420.899 L 317.236,422.179 L 317.236,422.179 C 317.236,422.305 317.309,422.397 317.426,422.398 C 317.527,422.398 317.594,422.317 317.594,422.193 L 317.594,422.193 L 317.59,420.895 L 317.59,420.895 C 317.59,420.85 317.57,420.729 317.517,420.621 L 317.517,420.621 L 318.393,420.623 L 318.393,420.623 C 318.35,420.699 318.323,420.788 318.323,420.949 L 318.323,420.949 L 318.323,422.152 L 318.323,422.152 C 318.322,422.339 318.403,422.418 318.517,422.418 C 318.623,422.418 318.694,422.345 318.695,422.192 L 318.695,422.192 L 318.688,420.96 L 318.688,420.96 C 318.688,420.889 318.666,420.755 318.61,420.623 L 318.61,420.623 L 319.466,420.625 L 319.466,420.625 C 319.428,420.706 319.405,420.804 319.405,420.877 L 319.405,420.877 L 319.391,422.383 L 319.391,422.383 C 319.391,422.748 319.159,423.037 318.776,423.036 C 318.574,423.036 318.388,422.949 318.288,422.854 C 318.279,422.849 318.277,422.846 318.227,422.791 C 318.207,422.765 318.203,422.759 318.198,422.759 C 318.189,422.759 318.181,422.78 318.158,422.812 C 318.061,422.959 317.929,423.04 317.729,423.04 C 317.575,423.039 317.427,422.984 317.34,422.913 C 317.304,422.884 317.275,422.85 317.246,422.815 C 317.239,422.805 317.237,422.786 317.221,422.786 C 317.219,422.786 317.219,422.789 317.219,422.797 L 317.219,422.797 L 317.21,422.944 L 316.428,422.943 L 316.428,422.943 C 316.499,422.824 316.522,422.732 316.522,422.609 L 316.522,422.609 L 316.523,420.945 L 316.523,420.945 C 316.521,420.829 316.492,420.727 316.43,420.619 L 316.43,420.619 Z M 315.174,422.257 C 315.25,422.165 315.3,422.031 315.3,421.873 L 315.3,421.873 L 315.304,421.132 L 315.304,421.132 C 315.304,421.111 315.302,421.103 315.284,421.09 C 315.277,421.085 315.21,421.056 315.093,421.055 C 314.627,421.054 314.306,421.38 314.305,422.131 C 314.304,422.478 314.406,422.836 314.491,422.986 C 314.616,423.207 314.793,423.321 315.042,423.321 C 315.248,423.321 315.468,423.246 315.757,422.97 L 315.757,422.97 L 315.781,423.659 L 315.781,423.659 C 315.646,423.717 315.341,423.784 315.061,423.784 C 314.568,423.783 314.178,423.569 313.942,423.282 C 313.673,422.958 313.553,422.548 313.554,422.114 C 313.555,421.649 313.715,421.255 313.991,420.982 C 314.159,420.817 314.386,420.683 314.682,420.618 C 314.852,420.582 315.002,420.569 315.108,420.569 C 315.424,420.57 316.026,420.692 316.026,420.784 L 316.026,420.784 L 316.024,421.735 L 316.024,421.735 C 316.024,421.988 316.064,422.137 316.124,422.258 L 316.124,422.258 L 315.174,422.257 Z M 322.073,420.63 L 323.005,420.632 L 323.005,420.632 C 322.931,420.8 322.904,420.936 322.903,421.094 L 322.903,421.094 L 322.899,421.935 L 322.899,421.935 C 322.899,421.977 322.911,421.993 322.951,421.993 L 322.951,421.993 L 323.623,421.992 L 323.623,421.992 C 323.664,421.992 323.675,421.979 323.675,421.932 L 323.675,421.932 L 323.677,421.025 L 323.677,421.025 C 323.677,420.933 323.648,420.783 323.574,420.633 L 323.574,420.633 L 324.529,420.635 L 324.529,420.635 C 324.468,420.729 324.419,420.908 324.418,421.031 L 324.418,421.031 L 324.414,423.379 L 324.414,423.379 C 324.414,423.439 324.434,423.579 324.494,423.744 L 324.494,423.744 L 323.568,423.742 L 323.568,423.742 C 323.627,423.645 323.67,423.498 323.67,423.359 L 323.67,423.359 L 323.674,422.539 L 323.674,422.539 C 323.674,422.497 323.66,422.486 323.638,422.486 L 323.638,422.486 L 322.934,422.485 L 322.934,422.485 C 322.914,422.485 322.901,422.495 322.901,422.532 L 322.901,422.532 L 322.904,423.263 L 322.904,423.263 C 322.903,423.528 322.925,423.599 322.988,423.736 L 322.988,423.736 L 322.067,423.734 L 322.067,423.734 C 322.134,423.598 322.173,423.432 322.173,423.264 L 322.173,423.264 L 322.177,421.032 L 322.177,421.032 C 322.178,420.903 322.135,420.74 322.073,420.63 L 322.073,420.63 Z M 319.845,420.71 C 319.865,420.71 319.888,420.712 319.908,420.712 C 320.136,420.713 320.278,420.655 320.406,420.627 C 320.592,420.587 320.742,420.572 320.901,420.572 C 321.472,420.574 321.926,421.076 321.925,421.87 C 321.923,422.614 321.499,423.065 321.035,423.065 C 320.813,423.064 320.67,422.977 320.596,422.885 L 320.596,422.885 L 320.594,423.737 L 319.779,423.735 L 319.779,423.735 C 319.846,423.604 319.875,423.475 319.876,423.359 L 319.876,423.359 L 319.88,421.002 L 319.88,421.002 C 319.88,420.912 319.869,420.804 319.845,420.71 L 319.845,420.71 Z M 320.848,421.032 C 320.705,421.032 320.599,421.158 320.592,421.31 L 320.592,421.31 L 320.591,422.138 L 320.591,422.138 C 320.59,422.422 320.731,422.559 320.875,422.56 C 320.982,422.56 321.173,422.481 321.174,421.779 C 321.175,421.154 320.967,421.033 320.848,421.032 L 320.848,421.032 Z" marker-start="none" marker-end="none"/>
  </g>
 </g>
 <g id="Sponsoren" transform="scale(1 -1)"/>
 <g id="Content" transform="scale(1 -1)"/>
 <g id="Logo Vektor" transform="scale(1 -1)"/>
</svg>
