<?xml version="1.0" standalone="no"?>
<!DOCTYPE svg PUBLIC "-//W3C//DTD SVG 1.1//EN" "http://www.w3.org/Graphics/SVG/1.1/DTD/svg11.dtd">
<!--Generator: Xara Designer (www.xara.com), SVG filter version: 6.6.0.7-->
<svg fill="none" fill-rule="evenodd" stroke="black" stroke-width="0.501" stroke-linejoin="bevel" stroke-miterlimit="10" font-family="Times New Roman" font-size="16" style="font-variant-ligatures:none" xmlns:xlink="http://www.w3.org/1999/xlink" xmlns="http://www.w3.org/2000/svg" version="1.1" overflow="visible" width="517.277pt" height="107.799pt" viewBox="32.035 -543.912 517.277 107.799">
 <defs>
  <style type="text/css">@import url('https://themes.googleusercontent.com/fonts/css?family=Open Sans:400,600');</style>
 </defs>
 <g id="Layer 1" transform="scale(1 -1)">
  <path d="M 102.309,495.605 L 102.309,495.496 C 102.309,491.543 99.062,488.195 93.927,488.195 C 88.793,488.195 85.53,491.543 85.53,495.496 C 85.53,499.443 88.816,502.666 93.927,502.666 C 99.03,502.666 102.238,499.505 102.309,495.605 Z M 443.618,448.331 L 438.654,448.331 L 438.654,449.924 C 436.852,448.588 434.568,447.997 432.355,447.99 C 430.001,447.982 427.647,448.533 426.025,450.32 C 425.046,451.469 424.681,452.767 424.665,454.258 L 424.665,466.212 L 429.621,466.212 L 429.621,454.849 C 429.644,454.157 429.752,453.544 430.126,452.945 C 430.887,451.803 432.184,451.508 433.497,451.508 C 435.074,451.508 436.565,451.975 437.676,453.116 C 438.336,453.831 438.639,454.615 438.654,455.587 L 438.654,466.212 L 443.618,466.212 L 443.618,448.331 Z M 400.935,457.334 C 400.717,457.295 400.508,457.241 400.283,457.194 C 399.319,456.993 398.364,456.814 397.393,456.659 C 396.515,456.511 395.653,456.316 394.806,456.036 C 393.796,455.672 392.445,455.058 392.522,453.776 C 392.616,452.138 394.535,451.64 395.948,451.617 C 397.323,451.578 398.931,451.741 400.057,452.604 C 401.137,453.473 401.416,454.856 401.401,456.169 C 401.385,456.386 401.378,456.596 401.378,456.806 C 401.362,457.016 401.354,457.234 401.354,457.435 C 401.222,457.404 401.074,457.373 400.935,457.334 Z M 401.183,449.923 C 399.342,448.595 397.3,448.129 395.047,448.129 C 393.478,448.129 391.955,448.363 390.526,448.999 C 388.631,449.884 387.131,451.314 387.062,453.528 C 386.999,455.369 387.792,456.775 389.392,457.683 C 390.977,458.546 392.942,458.927 394.729,459.23 C 396.212,459.462 397.696,459.579 399.14,459.976 C 399.94,460.208 401.354,460.658 401.307,461.707 C 401.268,462.686 400.189,463.098 399.397,463.3 C 397.859,463.634 395.031,463.743 393.626,462.438 C 393.206,462.01 393.028,461.544 392.996,460.961 L 388.118,460.931 C 388.313,462.15 388.662,463.145 389.4,464.1 C 391.318,466.414 394.775,466.733 397.572,466.74 C 399.257,466.74 400.981,466.64 402.605,466.151 C 404.927,465.412 406.1,464.022 406.132,461.381 L 406.132,452.371 C 406.14,451.05 406.132,449.652 406.846,448.494 L 406.947,448.331 L 402.068,448.331 C 401.556,448.813 401.378,449.225 401.183,449.923 Z M 370.649,457.257 C 370.649,455.928 370.455,454.693 369.981,453.45 C 368.396,449.667 364.698,447.92 360.776,447.92 C 358.678,447.935 356.597,448.456 354.958,449.847 L 354.958,448.331 L 349.995,448.331 L 349.995,473.11 L 354.958,473.11 L 354.958,464.675 C 356.699,466.135 358.764,466.585 360.955,466.569 C 362.78,466.546 364.482,466.212 366.082,465.373 C 367.697,464.472 368.886,463.268 369.702,461.676 C 370.377,460.271 370.649,458.818 370.649,457.257 Z M 359.875,451.64 C 361.53,451.625 362.974,452.029 364.078,453.21 C 364.986,454.243 365.336,455.486 365.405,456.845 C 365.452,458.057 365.305,459.268 364.745,460.363 C 363.821,462.026 362.283,462.756 360.434,462.857 C 359.362,462.911 358.267,462.795 357.304,462.329 C 355.432,461.365 354.981,459.385 354.958,457.427 C 354.935,455.897 355.145,454.204 356.178,452.999 C 357.148,451.959 358.492,451.655 359.875,451.64 Z M 333.574,451.672 L 333.675,451.68 L 333.675,448.34 C 332.199,448.052 330.708,448.036 329.208,448.176 C 327.624,448.354 325.97,448.689 325.146,450.196 C 324.594,451.291 324.478,452.542 324.455,453.753 L 324.455,462.974 L 320.851,462.974 L 320.851,466.212 L 324.455,466.212 L 324.455,472.403 L 329.457,472.403 L 329.457,466.212 L 333.675,466.212 L 333.675,462.974 L 329.457,462.974 L 329.465,453.908 C 329.465,453.373 329.543,452.767 329.861,452.301 C 330.522,451.407 332.689,451.578 333.574,451.672 Z M 295.753,451.477 C 296.608,451.462 297.431,451.508 298.27,451.718 C 299.14,451.951 300.406,452.48 300.5,453.544 C 300.569,454.32 299.855,454.693 299.273,454.949 C 298.006,455.461 296.593,455.641 295.241,455.796 C 293.136,456.029 290.891,456.316 288.972,457.241 C 287.465,458.025 286.619,459.222 286.657,461 C 286.727,464.527 290.697,466.057 293.641,466.485 C 294.534,466.594 295.419,466.655 296.282,466.647 C 299.389,466.632 302.364,465.808 305.02,463.898 L 302.014,461.381 C 300.205,462.632 298.138,463.237 295.947,463.245 C 294.806,463.245 291.784,463.09 291.722,461.381 C 291.792,460.099 294.844,459.742 295.753,459.617 C 297.081,459.439 298.434,459.299 299.762,459.074 C 301.447,458.755 303.265,458.274 304.507,457.016 C 305.331,456.138 305.673,455.097 305.642,453.901 C 305.564,451.454 303.847,449.916 301.758,448.952 C 299.87,448.129 297.913,447.896 295.855,447.912 C 292.522,447.935 289.252,448.549 286.487,450.499 C 286.223,450.7 285.974,450.911 285.718,451.12 L 289.54,453.644 C 290.487,452.93 291.504,452.301 292.647,451.935 C 293.648,451.617 294.697,451.493 295.753,451.477 Z M 253.241,471.945 L 257.856,471.945 L 257.856,468.209 L 253.241,468.209 L 253.241,471.945 Z M 260.504,471.945 L 265.11,471.945 L 265.11,468.209 L 260.504,468.209 L 260.504,471.945 Z M 268.59,448.331 L 263.634,448.331 L 263.634,449.924 C 261.755,448.572 259.572,447.997 257.273,447.99 C 254.717,447.99 252.022,448.704 250.522,450.957 C 249.894,451.982 249.652,453.062 249.637,454.258 L 249.637,466.212 L 254.593,466.212 L 254.6,454.638 C 254.655,453.971 254.802,453.365 255.191,452.813 C 256.014,451.726 257.342,451.485 258.64,451.508 C 260.745,451.548 263.083,452.604 263.565,454.849 C 263.611,455.089 263.634,455.33 263.634,455.587 L 263.634,466.212 L 268.59,466.212 L 268.59,448.331 Z M 233.007,462.22 C 232.548,462.227 232.106,462.236 231.655,462.236 C 229.224,462.158 226.101,461.303 225.813,458.444 C 225.806,458.321 225.798,458.204 225.798,458.087 L 225.798,448.331 L 220.796,448.331 L 220.796,466.212 L 225.798,466.212 L 225.798,463.743 C 226.924,465.179 228.323,466.034 230.11,466.414 C 231.01,466.585 232.106,466.71 233.007,466.546 L 233.007,462.22 Z M 193.928,447.873 C 189.951,447.772 186.036,449.1 183.799,452.542 C 182.859,454.095 182.455,455.757 182.478,457.567 C 182.532,463.214 187.333,466.64 192.832,466.71 C 199.481,466.78 203.637,462.429 203.637,456.091 L 187.853,456.091 C 188.102,454.499 188.902,453.349 190.276,452.526 C 191.458,451.85 192.786,451.602 194.122,451.655 C 196.219,451.726 198.083,452.627 199.381,454.289 L 203.544,452.464 C 202.853,451.672 202.13,450.965 201.291,450.328 C 199.108,448.712 196.654,447.951 193.928,447.873 Z M 187.868,459.478 L 197.843,459.478 C 197.531,461.886 195.202,463.207 192.972,463.168 C 190.696,463.137 188.359,461.878 187.868,459.478 Z M 165.272,448.331 L 160.177,448.331 L 160.177,450.087 C 157.87,448.277 154.848,447.702 151.974,447.702 C 150.352,447.702 148.79,447.881 147.213,448.277 C 143.64,449.279 140.672,451.4 138.979,454.747 C 138.101,456.611 137.729,458.53 137.744,460.581 C 137.752,462.562 138.078,464.403 138.871,466.22 C 140.238,469.118 142.529,471.184 145.465,472.466 C 147.679,473.374 149.963,473.731 152.355,473.731 C 156.076,473.74 159.703,472.877 162.515,470.337 C 163.68,469.25 164.528,468.022 165.195,466.585 L 160.293,464.923 C 159.906,465.669 159.478,466.352 158.911,466.966 C 157.21,468.799 154.957,469.646 152.487,469.677 C 149.357,469.708 146.685,468.488 144.937,465.878 C 143.951,464.309 143.555,462.616 143.555,460.76 C 143.555,458.352 144.176,456.153 145.83,454.36 C 147.547,452.612 149.707,451.873 152.13,451.811 C 154.732,451.726 157.505,452.363 159.152,454.53 C 159.843,455.493 160.138,456.542 160.138,457.73 L 152.797,457.73 L 152.797,461.738 L 165.272,461.738 L 165.272,448.331 Z M 227.942,489.064 C 225.783,491.916 224.478,495.225 224.478,498.805 L 224.478,533.349 C 224.478,536.012 225.62,541.737 227.134,543.912 L 204.763,543.873 C 206.472,542.063 207.824,537.597 207.824,533.349 L 207.824,507.241 C 207.824,501.563 204.228,497.562 198.426,497.555 C 192.638,497.547 188.817,501.315 188.817,507.241 L 188.817,533.349 C 188.817,537.597 189.508,540.711 190.96,543.842 L 169.289,543.803 C 170.757,542.017 171.86,537.597 171.86,533.349 L 171.86,507.241 C 171.86,494.222 178.004,487.683 190.844,487.55 C 196.809,487.48 202.169,488.49 207.273,491.807 C 207.863,492.187 208.049,492.079 208.088,491.737 L 208.375,489.064 L 227.942,489.064 Z M 403.747,489.064 L 407.693,501.811 C 401.579,498.308 397.144,497.043 390.131,496.964 C 387.574,496.949 386.044,497.034 383.59,497.034 C 382.836,497.035 381.135,497.532 381.135,499.069 L 381.12,511.358 C 381.112,512.617 383,513.004 383.559,513.004 L 387.683,513.036 C 391.287,513.074 394.861,512.367 398.13,510.698 L 398.13,524.229 C 395.576,522.061 390.766,521.774 387.683,521.774 L 383.59,521.774 C 383.047,521.774 381.135,521.666 381.135,523.094 L 381.135,534.117 C 381.128,535.437 382.363,535.725 383.59,535.725 L 387.683,535.725 C 394.698,535.725 397.967,535.157 404.003,531.787 L 401.89,543.803 L 361.11,543.803 C 363.192,541.356 364.458,538.125 364.466,534.909 L 364.482,498.805 C 364.482,495.597 363.083,491.605 361.11,489.064 L 403.747,489.064 Z M 124.034,489.064 L 146.405,489.064 C 143.788,492.017 143.073,495.737 143.073,499.574 L 143.073,512.367 C 143.073,513.928 146.591,513.431 147.485,513.431 C 150.91,513.431 154.476,512.989 157.56,511.482 L 157.56,524.571 C 154.414,522.473 149.878,522.047 146.747,521.984 C 145.807,521.976 143.073,521.673 143.073,523.157 L 143.073,534.063 C 143.073,535.982 145.59,535.725 147.547,535.725 C 153.955,535.725 156.992,535.787 163.548,532.113 L 162.12,543.803 L 122.714,543.803 C 125.355,540.572 126.109,536.867 126.109,532.804 L 126.109,499.574 C 126.109,496.359 125.767,491.876 124.034,489.064 Z M 52.044,489.064 L 74.408,489.064 C 71.782,492.017 71.068,495.737 71.068,499.574 L 71.068,512.367 C 71.068,513.929 74.594,513.431 75.487,513.431 C 78.921,513.432 82.47,512.989 85.562,511.482 L 85.562,524.571 C 82.424,522.473 77.88,522.047 74.741,521.984 C 73.817,521.976 71.068,521.673 71.068,523.157 L 71.068,534.063 C 71.068,535.982 73.584,535.725 75.549,535.725 C 81.958,535.725 84.994,535.787 91.542,532.113 L 90.129,543.803 L 50.723,543.803 C 53.357,540.572 54.118,536.867 54.118,532.804 L 54.118,499.574 C 54.118,496.359 53.776,491.876 52.044,489.064 Z M 258.142,519.483 C 263.572,519.483 265.848,522.404 265.84,527.639 C 265.825,532.983 262.369,535.725 258.142,535.725 L 256.201,535.725 C 255.913,535.725 255.649,535.345 255.649,535.049 L 255.672,519.996 C 255.672,519.731 255.96,519.483 256.271,519.483 L 258.142,519.483 Z M 321.13,519.483 C 326.568,519.483 328.828,522.404 328.821,527.639 C 328.812,532.983 325.348,535.725 321.13,535.725 L 319.181,535.725 C 318.901,535.725 318.629,535.345 318.629,535.049 L 318.668,519.996 C 318.668,519.731 318.94,519.483 319.258,519.483 L 321.13,519.483 Z M 436.759,519.483 C 442.197,519.483 444.457,522.404 444.449,527.639 C 444.441,532.983 440.977,535.725 436.759,535.725 L 434.817,535.725 C 434.53,535.725 434.258,535.345 434.258,535.049 L 434.297,519.996 C 434.297,519.731 434.568,519.483 434.879,519.483 L 436.759,519.483 Z M 475.418,482.68 L 476.351,482.68 L 549.312,482.68 L 549.312,436.113 L 32.12,436.113 L 32.035,482.68 L 276.272,482.68 L 256.379,512.298 C 256.255,512.492 255.672,512.687 255.672,512.283 L 255.672,498.805 C 255.672,494.129 256.512,491.434 258.049,489.064 L 236.299,489.026 C 237.846,490.944 238.374,493.671 238.374,498.805 L 238.374,532.804 C 238.374,537.053 237.846,540.79 235.235,543.803 L 267.743,543.803 C 275.588,543.803 283.69,537.574 283.706,529.131 C 283.706,524.889 282.028,521.549 278.991,519.087 C 277.554,517.921 275.605,516.959 274.261,516.143 C 273.996,515.987 274.035,515.645 274.221,515.374 L 296.794,482.679 L 337.932,482.68 L 339.252,482.68 L 319.359,512.298 C 319.235,512.492 318.668,512.686 318.668,512.283 L 318.668,498.805 C 318.668,494.129 319.499,491.434 321.029,489.064 L 299.288,489.026 C 300.826,490.944 301.362,493.671 301.362,498.805 L 301.362,532.804 C 301.362,537.053 300.834,540.79 298.224,543.803 L 330.723,543.803 C 338.568,543.803 346.67,537.574 346.694,529.131 C 346.701,524.889 345.016,521.549 341.971,519.087 C 340.534,517.921 338.591,516.959 337.24,516.143 C 336.992,515.987 337.015,515.645 337.202,515.374 L 359.782,482.68 L 360.722,482.68 L 454.881,482.68 L 434.996,512.298 C 434.864,512.492 434.297,512.686 434.297,512.283 L 434.297,498.805 C 434.297,494.129 435.128,491.434 436.658,489.064 L 414.917,489.026 C 416.454,490.944 416.982,493.671 416.982,498.805 L 416.982,532.804 C 416.982,537.053 416.462,540.79 413.845,543.803 L 446.353,543.803 C 454.197,543.803 462.307,537.574 462.322,529.131 C 462.331,524.889 460.645,521.549 457.6,519.087 C 456.162,517.921 454.229,516.959 452.877,516.143 C 452.621,515.987 452.644,515.645 452.83,515.374 L 475.418,482.68 Z M 490.403,489.081 L 494.721,489.088 C 494.395,489.771 494.348,490.091 494.348,490.448 L 494.348,496.716 C 494.348,497.321 494.706,497.787 495.28,497.787 C 495.77,497.787 496.103,497.384 496.103,496.778 L 496.088,490.425 C 496.088,490.207 495.98,489.616 495.723,489.088 L 500.011,489.096 C 499.801,489.468 499.677,489.904 499.677,490.68 L 499.677,496.584 C 499.661,497.492 500.065,497.881 500.616,497.881 C 501.137,497.881 501.486,497.524 501.486,496.77 L 501.456,490.743 C 501.456,490.393 501.347,489.741 501.075,489.096 L 505.27,489.104 C 505.083,489.5 504.974,489.982 504.974,490.339 L 504.905,497.71 C 504.897,499.504 503.762,500.911 501.891,500.902 C 500.896,500.902 499.988,500.483 499.498,500.017 C 499.452,499.994 499.443,499.978 499.195,499.706 C 499.103,499.574 499.079,499.551 499.063,499.551 C 499.017,499.551 498.97,499.652 498.869,499.808 C 498.387,500.53 497.742,500.934 496.764,500.934 C 496.011,500.918 495.288,500.647 494.853,500.312 C 494.682,500.165 494.535,499.994 494.395,499.823 C 494.356,499.776 494.348,499.691 494.27,499.691 C 494.263,499.691 494.263,499.699 494.263,499.738 L 494.224,500.452 L 490.395,500.445 C 490.744,499.87 490.853,499.419 490.853,498.813 L 490.861,490.673 C 490.846,490.105 490.705,489.6 490.403,489.081 Z M 484.258,497.096 C 484.631,496.646 484.872,495.978 484.88,495.216 L 484.887,491.589 C 484.887,491.481 484.88,491.442 484.794,491.38 C 484.763,491.356 484.429,491.209 483.854,491.209 C 481.578,491.201 480.01,492.801 480.01,496.475 C 480.001,498.176 480.499,499.924 480.911,500.661 C 481.532,501.749 482.394,502.3 483.614,502.3 C 484.615,502.308 485.696,501.936 487.109,500.584 L 487.226,503.955 C 486.573,504.235 485.074,504.569 483.707,504.569 C 481.291,504.562 479.388,503.512 478.223,502.114 C 476.91,500.522 476.328,498.518 476.328,496.398 C 476.335,494.122 477.112,492.187 478.456,490.852 C 479.295,490.043 480.397,489.391 481.843,489.064 C 482.681,488.893 483.419,488.832 483.932,488.832 C 485.47,488.832 488.429,489.438 488.429,489.873 L 488.414,494.533 C 488.414,495.776 488.608,496.506 488.911,497.096 L 484.258,497.096 Z M 518.024,489.127 L 522.591,489.135 C 522.227,489.959 522.087,490.626 522.087,491.395 L 522.071,495.52 C 522.071,495.729 522.118,495.799 522.327,495.799 L 525.613,495.791 C 525.815,495.791 525.862,495.728 525.87,495.496 L 525.87,491.069 C 525.877,490.618 525.737,489.873 525.38,489.143 L 530.048,489.15 C 529.746,489.616 529.512,490.486 529.505,491.092 L 529.481,502.58 C 529.481,502.875 529.575,503.559 529.878,504.375 L 525.342,504.367 C 525.62,503.885 525.838,503.163 525.846,502.488 L 525.862,498.471 C 525.862,498.27 525.791,498.207 525.683,498.207 L 522.242,498.207 C 522.148,498.207 522.079,498.262 522.079,498.44 L 522.087,502.022 C 522.087,503.318 522.195,503.661 522.505,504.328 L 518.001,504.321 C 518.327,503.661 518.513,502.845 518.513,502.022 L 518.529,491.1 C 518.529,490.463 518.327,489.671 518.024,489.127 Z M 507.119,489.523 C 507.219,489.523 507.328,489.539 507.429,489.539 C 508.54,489.539 509.239,489.259 509.86,489.111 C 510.777,488.925 511.506,488.847 512.292,488.847 C 515.088,488.855 517.31,491.31 517.301,495.201 C 517.294,498.844 515.22,501.05 512.944,501.05 C 511.856,501.043 511.149,500.615 510.792,500.165 L 510.785,504.336 L 506.8,504.328 C 507.119,503.684 507.266,503.054 507.266,502.487 L 507.289,490.944 C 507.289,490.517 507.243,489.989 507.119,489.523 Z M 512.027,491.1 C 511.328,491.1 510.816,491.714 510.777,492.459 L 510.769,496.506 C 510.762,497.904 511.46,498.573 512.151,498.573 C 512.679,498.573 513.62,498.192 513.628,494.759 C 513.636,491.698 512.618,491.1 512.027,491.1 Z" stroke="none" fill="#009094" stroke-width="0.179" stroke-linejoin="miter" marker-start="none" marker-end="none"/>
 </g>
</svg>
