<?xml version="1.0" standalone="no"?>
<!DOCTYPE svg PUBLIC "-//W3C//DTD SVG 1.1//EN" "http://www.w3.org/Graphics/SVG/1.1/DTD/svg11.dtd">
<svg id="Ebene_Blüte" xmlns="http://www.w3.org/2000/svg" viewBox="0 0 406.7 358.3"><style>.st0{fill:#53abe0}.st1{fill:#bcdcf5}.st2{fill:#87c0ea}.st3{fill:#1b93d2}.st4{fill:#1380c4}.st5{fill:#0080c9}</style><path class="st0" d="M204 195.9l43.5-136.1c1.4-4.4 2.2-9.2 2.2-14.1C249.8 20.5 229.3 0 204 0c-25.3 0-45.7 20.5-45.7 45.7 0 4.9.8 9.7 2.2 14.1L204 195.9z"/><path class="st1" d="M217.9 210.4l142.9.1c4.7 0 9.4-.7 14.1-2.2 24.1-7.7 37.3-33.4 29.7-57.5-7.7-24.1-33.4-37.3-57.5-29.7-4.7 1.5-9 3.7-12.8 6.4l-116.4 82.9z"/><path class="st2" d="M213.4 200.2l46.5-135.1c1.5-4.4 3.7-8.7 6.6-12.6 15.1-20.2 43.7-24.4 64-9.3 20.2 15.1 24.4 43.7 9.3 64-2.9 3.9-6.4 7.3-10.2 10l-116.2 83z"/><path class="st3" d="M193.2 200.2L146.8 65.1c-1.5-4.4-3.7-8.7-6.6-12.6C125 32.2 96.4 28 76.1 43.1c-20.2 15.1-24.4 43.7-9.3 64 2.9 3.9 6.4 7.3 10.2 10l116.2 83.1z"/><path class="st4" d="M188.8 210.4l-142.9.1c-4.7 0-9.4-.7-14.1-2.2-24.1-7.7-37.3-33.4-29.7-57.5 7.7-24.1 33.4-37.3 57.5-29.7 4.7 1.5 9 3.7 12.8 6.4l116.4 82.9z"/><path class="st5" d="M91.6 283.7h30.1v38c-11 4.8-22 7.2-32.9 7.2-14.9 0-26.7-4.3-35.6-13-8.9-8.7-13.3-19.4-13.3-32.1 0-13.4 4.6-24.6 13.8-33.5 9.2-8.9 20.8-13.4 34.6-13.4 5.1 0 9.9.5 14.4 1.6s10.3 3.1 17.2 6v13.1c-10.7-6.2-21.3-9.3-31.9-9.3-9.8 0-18.1 3.3-24.8 10-6.7 6.7-10.1 14.9-10.1 24.6 0 10.2 3.4 18.5 10.1 25 6.7 6.5 15.4 9.7 26 9.7 5.1 0 11.3-1.2 18.4-3.5l1.2-.4V295H91.6v-11.3zm49-45.5h47.9v11.4h-35v25.1h35v11.4h-35v41.8h-12.8v-89.7zm118.5 0h12.8L234 328.3h-3l-38.7-90.1h12.9l27 63 26.9-63zm61.4-1.3c13.9 0 25.4 4.4 34.6 13.2 9.2 8.8 13.8 19.8 13.8 33s-4.7 24.2-14 32.9-21 13-35.2 13c-13.5 0-24.8-4.3-33.8-13-9-8.7-13.5-19.5-13.5-32.6 0-13.4 4.5-24.5 13.6-33.3 9.1-8.8 20.6-13.2 34.5-13.2zm.5 12.2c-10.3 0-18.7 3.2-25.3 9.6-6.6 6.4-9.9 14.6-9.9 24.6 0 9.7 3.3 17.7 9.9 24.2 6.6 6.4 14.9 9.6 24.9 9.6 10 0 18.4-3.3 25.1-9.8 6.7-6.6 10-14.7 10-24.5 0-9.5-3.3-17.5-10-24s-15-9.7-24.7-9.7z"/></svg>