<?xml version="1.0" standalone="no"?>
<!DOCTYPE svg PUBLIC "-//W3C//DTD SVG 1.1//EN" "http://www.w3.org/Graphics/SVG/1.1/DTD/svg11.dtd">
<!--Generator: Xara Designer (www.xara.com), SVG filter version: 6.6.0.0-->
<svg fill="none" fill-rule="evenodd" stroke="black" stroke-width="0.501" stroke-linejoin="bevel" stroke-miterlimit="10" font-family="Times New Roman" font-size="16" style="font-variant-ligatures:none" xmlns:xlink="http://www.w3.org/1999/xlink" xmlns="http://www.w3.org/2000/svg" version="1.1" overflow="visible" width="104.119pt" height="104.119pt" viewBox="402.441 -196.81 104.119 104.119">
 <defs>
	</defs>
 <g id="Layer 1" transform="scale(1 -1)">
  <g id="Group" fill-rule="nonzero" stroke-linejoin="miter" stroke="none" stroke-width="0.037">
   <path d="M 408.095,194.011 L 500.906,194.011 C 502.48,194.011 503.761,192.73 503.761,191.156 L 503.761,100.063 C 503.331,100.848 502.685,101.621 501.97,102.274 C 500.731,103.405 499.646,104.048 498.311,104.668 C 496.977,105.288 495.695,105.913 493.327,106.391 C 490.96,106.871 488.435,106.966 485.981,107.269 C 483.642,107.558 481.316,108.21 479.186,109.129 C 478.128,109.586 476.933,110.237 475.759,110.251 C 475.014,110.261 474.237,110.103 473.509,109.965 C 472.047,109.687 470.615,109.275 469.157,108.979 C 468.323,108.81 467.466,108.678 466.621,108.784 C 465.508,108.924 463.761,109.522 463.067,110.464 C 462.61,111.084 462.599,112.007 462.274,112.709 C 461.935,113.439 461.406,114.057 460.704,114.461 C 458.669,115.633 453.797,112.858 451.453,111.809 C 449.11,110.761 442.696,106.567 440.722,105.827 C 438.749,105.087 436.035,105.457 431.471,106.999 C 426.907,108.541 421.85,107.184 421.85,107.184 C 416.872,106.247 408.432,101.178 405.24,99.178 L 405.24,191.156 C 405.24,192.73 406.521,194.011 408.095,194.011 Z M 500.906,196.81 L 408.095,196.81 C 404.977,196.81 402.441,194.274 402.441,191.156 L 402.441,98.345 C 402.441,95.228 404.977,92.691 408.095,92.691 L 500.906,92.691 C 504.023,92.691 506.56,95.228 506.56,98.345 L 506.56,191.156 C 506.56,194.274 504.023,196.81 500.906,196.81 Z" fill="#000000" marker-start="none" marker-end="none"/>
   <path d="M 493.273,139.24 L 415.728,139.24 L 415.728,142.039 L 493.273,142.039 L 493.273,139.24 Z" fill="#060300" marker-start="none" marker-end="none"/>
   <g id="Group_1" fill="#12120d">
    <g id="Group_2">
     <path d="M 429.206,173.65 L 429.206,176.646 C 429.206,182.738 427.958,183.571 422.581,183.571 C 417.113,183.571 415.737,182.702 415.737,176.646 L 415.737,156.749 C 415.737,151.002 416.905,149.789 422.581,149.789 C 426.247,149.789 428.419,150.043 429.206,150.205 L 429.206,169.35 L 424.708,169.35 L 424.708,154.206 C 424.373,154.125 423.703,154.043 422.581,154.043 C 420.825,154.043 420.535,154.586 420.535,156.749 L 420.535,176.646 C 420.535,178.773 420.825,179.28 422.581,179.28 C 424.292,179.28 424.581,178.9 424.581,176.646 L 424.581,173.65 L 429.206,173.65 Z" marker-start="none" marker-end="none"/>
     <path d="M 436.682,166.472 L 438.845,166.472 C 440.52,166.472 440.765,165.892 440.765,164.091 L 440.765,150.205 L 445.607,150.205 L 445.607,163.348 C 445.607,166.969 444.394,167.893 442.648,168.309 L 442.648,168.472 C 443.932,168.807 445.607,169.522 445.607,172.98 L 445.607,176.438 C 445.607,182.24 444.394,183.155 438.719,183.155 L 431.884,183.155 L 431.884,150.205 L 436.682,150.205 L 436.682,166.472 Z M 436.682,178.991 L 438.719,178.991 C 440.556,178.991 440.765,178.529 440.765,176.438 L 440.765,172.391 C 440.765,170.808 440.393,170.265 438.845,170.265 L 436.682,170.265 L 436.682,178.991 Z" marker-start="none" marker-end="none"/>
     <path d="M 461.583,176.646 C 461.583,182.738 460.37,183.571 454.703,183.571 C 449.028,183.571 447.86,182.738 447.86,176.646 L 447.86,156.749 C 447.86,150.621 449.028,149.789 454.703,149.789 C 460.37,149.789 461.583,150.621 461.583,156.749 L 461.583,176.646 Z M 456.74,156.749 C 456.74,154.541 456.496,154.043 454.703,154.043 C 452.947,154.043 452.658,154.459 452.658,156.749 L 452.658,176.646 C 452.658,178.773 452.947,179.28 454.703,179.28 C 456.45,179.28 456.74,178.9 456.74,176.646 L 456.74,156.749 Z" marker-start="none" marker-end="none"/>
     <path d="M 477.223,173.65 L 477.223,176.646 C 477.223,182.738 475.974,183.571 470.597,183.571 C 465.13,183.571 463.754,182.702 463.754,176.646 L 463.754,156.749 C 463.754,151.002 464.921,149.789 470.597,149.789 C 474.263,149.789 476.436,150.043 477.223,150.205 L 477.223,169.35 L 472.724,169.35 L 472.724,154.206 C 472.389,154.125 471.719,154.043 470.597,154.043 C 468.841,154.043 468.551,154.586 468.551,156.749 L 468.551,176.646 C 468.551,178.773 468.841,179.28 470.597,179.28 C 472.308,179.28 472.598,178.9 472.598,176.646 L 472.598,173.65 L 477.223,173.65 Z" marker-start="none" marker-end="none"/>
     <path d="M 493.035,173.65 L 493.035,176.646 C 493.035,182.738 491.786,183.571 486.409,183.571 C 480.941,183.571 479.565,182.702 479.565,176.646 L 479.565,156.749 C 479.565,151.002 480.733,149.789 486.409,149.789 C 490.075,149.789 492.247,150.043 493.035,150.205 L 493.035,169.35 L 488.537,169.35 L 488.537,154.206 C 488.202,154.125 487.531,154.043 486.409,154.043 C 484.653,154.043 484.364,154.586 484.364,156.749 L 484.364,176.646 C 484.364,178.773 484.653,179.28 486.409,179.28 C 488.12,179.28 488.409,178.9 488.409,176.646 L 488.409,173.65 L 493.035,173.65 Z" marker-start="none" marker-end="none"/>
    </g>
    <g id="Group_3">
     <path d="M 434.661,129.121 L 436.196,129.121 C 437.342,129.121 438.006,129.991 438.006,131.138 C 438.006,132.29 437.342,133.172 436.196,133.172 L 434.661,133.172 L 434.661,129.121 Z M 435.049,129.486 L 435.049,132.807 L 436.196,132.807 C 437.118,132.807 437.618,132.079 437.618,131.138 C 437.618,130.203 437.118,129.486 436.196,129.486 L 435.049,129.486 Z" marker-start="none" marker-end="none"/>
     <path d="M 441.462,129.121 L 441.868,129.121 L 440.328,133.172 L 439.916,133.172 L 438.37,129.121 L 438.782,129.121 L 439.188,130.197 L 441.056,130.197 L 441.462,129.121 Z M 439.323,130.544 L 440.121,132.654 L 440.921,130.544 L 439.323,130.544 Z" marker-start="none" marker-end="none"/>
     <path d="M 443.59,129.063 C 444.478,129.063 444.948,129.669 444.948,130.239 C 444.948,130.826 444.501,131.173 443.861,131.332 L 443.313,131.461 C 442.709,131.603 442.65,131.925 442.65,132.113 C 442.65,132.566 443.079,132.854 443.537,132.854 C 444.025,132.854 444.395,132.566 444.419,132.119 L 444.807,132.119 C 444.783,132.795 444.237,133.219 443.55,133.219 C 442.879,133.219 442.261,132.784 442.261,132.113 C 442.261,131.79 442.385,131.303 443.22,131.102 L 443.766,130.974 C 444.165,130.873 444.56,130.661 444.56,130.221 C 444.56,129.838 444.237,129.428 443.59,129.428 C 443.02,129.428 442.655,129.809 442.614,130.208 L 442.232,130.208 C 442.261,129.622 442.797,129.063 443.59,129.063 Z" marker-start="none" marker-end="none"/>
     <path d="M 449.116,129.063 C 449.686,129.063 450.198,129.297 450.55,129.674 L 450.274,129.921 C 449.979,129.615 449.569,129.428 449.116,129.428 C 448.193,129.428 447.47,130.197 447.47,131.138 C 447.47,132.079 448.193,132.848 449.116,132.848 C 449.569,132.848 449.986,132.66 450.274,132.354 L 450.55,132.602 C 450.198,132.978 449.686,133.213 449.116,133.213 C 447.981,133.213 447.082,132.284 447.082,131.138 C 447.082,129.991 447.981,129.063 449.116,129.063 Z" marker-start="none" marker-end="none"/>
     <path d="M 453.895,129.121 L 454.3,129.121 L 452.761,133.172 L 452.348,133.172 L 450.802,129.121 L 451.214,129.121 L 451.62,130.197 L 453.489,130.197 L 453.895,129.121 Z M 451.755,130.544 L 452.554,132.654 L 453.354,130.544 L 451.755,130.544 Z" marker-start="none" marker-end="none"/>
     <path d="M 457.222,132.807 L 457.222,133.172 L 454.941,133.172 L 454.941,129.121 L 455.329,129.121 L 455.329,130.927 L 456.828,130.927 L 456.828,131.29 L 455.329,131.29 L 455.329,132.807 L 457.222,132.807 Z" marker-start="none" marker-end="none"/>
     <path d="M 459.903,134.477 L 459.451,134.477 L 458.88,133.578 L 459.245,133.578 L 459.903,134.477 Z M 458.375,129.486 L 458.375,130.927 L 460.055,130.927 L 460.055,131.29 L 458.375,131.29 L 458.375,132.807 L 460.303,132.807 L 460.303,133.172 L 457.992,133.172 L 457.992,129.121 L 460.368,129.121 L 460.368,129.486 L 458.375,129.486 Z" marker-start="none" marker-end="none"/>
     <path d="M 465.182,133.172 L 462.495,133.172 L 462.495,132.807 L 464.681,132.807 L 462.447,129.433 L 462.447,129.121 L 465.182,129.121 L 465.182,129.486 L 462.948,129.486 L 465.182,132.854 L 465.182,133.172 Z" marker-start="none" marker-end="none"/>
     <path d="M 467.427,129.063 C 468.209,129.063 468.874,129.597 468.874,130.485 L 468.874,133.172 L 468.486,133.172 L 468.486,130.485 C 468.486,129.809 468.003,129.433 467.427,129.433 C 466.851,129.433 466.369,129.809 466.369,130.485 L 466.369,133.172 L 465.981,133.172 L 465.981,130.485 C 465.981,129.597 466.645,129.063 467.427,129.063 Z" marker-start="none" marker-end="none"/>
     <path d="M 474.628,129.121 L 474.122,133.172 L 473.763,133.172 L 472.206,129.956 L 470.648,133.172 L 470.283,133.172 L 469.784,129.121 L 470.161,129.121 L 470.578,132.49 L 472.03,129.538 L 472.388,129.538 L 473.829,132.478 L 474.246,129.121 L 474.628,129.121 Z" marker-start="none" marker-end="none"/>
    </g>
    <g id="Group_4">
     <path d="M 423.174,126.109 L 422.156,122.669 L 421.134,126.109 L 420.728,126.109 L 421.957,122.058 L 422.362,122.058 L 423.573,126.109 L 423.174,126.109 Z" marker-start="none" marker-end="none"/>
     <path d="M 424.738,122.423 L 424.738,123.864 L 426.418,123.864 L 426.418,124.227 L 424.738,124.227 L 424.738,125.744 L 426.665,125.744 L 426.665,126.109 L 424.355,126.109 L 424.355,122.058 L 426.731,122.058 L 426.731,122.423 L 424.738,122.423 Z" marker-start="none" marker-end="none"/>
     <path d="M 430.31,124.874 C 430.31,125.498 429.986,126.109 429.14,126.109 L 427.635,126.109 L 427.635,122.058 L 428.023,122.058 L 428.023,123.645 L 428.699,123.645 L 429.81,122.058 L 430.281,122.058 L 429.157,123.645 C 429.993,123.663 430.31,124.256 430.31,124.874 Z M 428.023,125.744 L 429.145,125.744 C 429.664,125.744 429.922,125.356 429.922,124.874 C 429.922,124.392 429.681,124.004 429.046,124.004 L 428.023,124.004 L 428.023,125.744 Z" marker-start="none" marker-end="none"/>
     <path d="M 435.436,126.109 L 434.301,122.646 L 433.472,125.521 L 433.137,125.521 L 432.308,122.664 L 431.174,126.109 L 430.762,126.109 L 432.132,122.058 L 432.497,122.058 L 433.302,124.869 L 434.113,122.058 L 434.477,122.058 L 435.847,126.109 L 435.436,126.109 Z" marker-start="none" marker-end="none"/>
     <path d="M 436.947,122.423 L 436.947,123.864 L 438.627,123.864 L 438.627,124.227 L 436.947,124.227 L 436.947,125.744 L 438.874,125.744 L 438.874,126.109 L 436.564,126.109 L 436.564,122.058 L 438.94,122.058 L 438.94,122.423 L 436.947,122.423 Z" marker-start="none" marker-end="none"/>
     <path d="M 439.844,122.058 L 440.232,122.058 L 440.232,126.109 L 439.844,126.109 L 439.844,122.058 Z" marker-start="none" marker-end="none"/>
     <path d="M 441.426,122.058 L 443.536,122.058 L 443.536,122.423 L 441.814,122.423 L 441.814,126.109 L 441.426,126.109 L 441.426,122.058 Z" marker-start="none" marker-end="none"/>
     <path d="M 444.654,122.423 L 444.654,123.864 L 446.334,123.864 L 446.334,124.227 L 444.654,124.227 L 444.654,125.744 L 446.581,125.744 L 446.581,126.109 L 444.271,126.109 L 444.271,122.058 L 446.647,122.058 L 446.647,122.423 L 444.654,122.423 Z" marker-start="none" marker-end="none"/>
     <path d="M 450.026,126.109 L 450.026,122.741 L 447.957,126.109 L 447.551,126.109 L 447.551,122.058 L 447.939,122.058 L 447.939,125.433 L 450.014,122.058 L 450.414,122.058 L 450.414,126.109 L 450.026,126.109 Z" marker-start="none" marker-end="none"/>
     <path d="M 456.022,122.352 C 455.535,122.352 455.458,122.805 455.458,123.275 L 455.458,124.151 L 455.993,124.151 L 455.993,124.463 L 455.458,124.463 L 455.458,124.975 L 455.082,124.975 L 455.082,124.468 L 454.212,124.468 C 453.741,124.468 453.488,124.792 453.488,125.144 C 453.488,125.509 453.77,125.791 454.171,125.791 C 454.417,125.791 454.641,125.685 454.776,125.48 L 455.082,125.68 C 454.894,125.967 454.565,126.156 454.171,126.156 C 453.56,126.156 453.125,125.692 453.125,125.169 C 453.125,124.839 453.294,124.51 453.56,124.339 C 453.13,124.139 452.854,123.733 452.854,123.257 C 452.854,122.581 453.359,122 454.142,122 C 454.565,122 455.023,122.171 455.223,122.545 C 455.294,122.182 455.641,122 456.017,122 L 456.11,122 L 456.11,122.352 L 456.022,122.352 Z M 454.153,122.365 C 453.571,122.365 453.218,122.775 453.218,123.269 C 453.218,123.769 453.589,124.151 454.23,124.151 L 455.082,124.151 L 455.082,123.235 C 455.064,122.741 454.7,122.365 454.153,122.365 Z" marker-start="none" marker-end="none"/>
     <path d="M 460.214,122 C 461.314,122 462.089,122.652 462.108,124.022 L 460.467,124.022 L 460.467,123.675 L 461.684,123.675 L 461.677,123.587 C 461.572,122.799 460.978,122.365 460.214,122.365 C 459.279,122.365 458.556,123.134 458.556,124.075 C 458.556,125.016 459.279,125.791 460.214,125.791 C 460.602,125.791 460.967,125.644 461.242,125.421 L 461.501,125.685 C 461.161,125.974 460.708,126.156 460.214,126.156 C 459.062,126.156 458.168,125.227 458.168,124.075 C 458.168,122.928 459.062,122 460.214,122 Z" marker-start="none" marker-end="none"/>
     <path d="M 463.284,122.423 L 463.284,123.864 L 464.964,123.864 L 464.964,124.227 L 463.284,124.227 L 463.284,125.744 L 465.211,125.744 L 465.211,126.109 L 462.901,126.109 L 462.901,122.058 L 465.277,122.058 L 465.277,122.423 L 463.284,122.423 Z" marker-start="none" marker-end="none"/>
     <path d="M 468.656,126.109 L 468.656,122.741 L 466.587,126.109 L 466.181,126.109 L 466.181,122.058 L 466.569,122.058 L 466.569,125.433 L 468.644,122.058 L 469.044,122.058 L 469.044,126.109 L 468.656,126.109 Z" marker-start="none" marker-end="none"/>
     <path d="M 470.238,122.058 L 470.626,122.058 L 470.626,126.109 L 470.238,126.109 L 470.238,122.058 Z" marker-start="none" marker-end="none"/>
     <path d="M 472.203,122.423 L 472.203,123.864 L 473.883,123.864 L 473.883,124.227 L 472.203,124.227 L 472.203,125.744 L 474.13,125.744 L 474.13,126.109 L 471.82,126.109 L 471.82,122.058 L 474.195,122.058 L 474.195,122.423 L 472.203,122.423 Z" marker-start="none" marker-end="none"/>
     <path d="M 476.182,122 C 477.069,122 477.539,122.606 477.539,123.176 C 477.539,123.763 477.093,124.11 476.452,124.269 L 475.905,124.398 C 475.3,124.54 475.241,124.862 475.241,125.05 C 475.241,125.503 475.67,125.791 476.128,125.791 C 476.617,125.791 476.987,125.503 477.011,125.056 L 477.399,125.056 C 477.374,125.732 476.829,126.156 476.141,126.156 C 475.47,126.156 474.852,125.721 474.852,125.05 C 474.852,124.727 474.976,124.24 475.812,124.039 L 476.358,123.91 C 476.757,123.81 477.151,123.598 477.151,123.158 C 477.151,122.775 476.829,122.365 476.182,122.365 C 475.611,122.365 475.246,122.746 475.206,123.145 L 474.823,123.145 C 474.852,122.559 475.388,122 476.182,122 Z" marker-start="none" marker-end="none"/>
     <path d="M 479.509,122 C 480.397,122 480.866,122.606 480.866,123.176 C 480.866,123.763 480.42,124.11 479.779,124.269 L 479.232,124.398 C 478.627,124.54 478.569,124.862 478.569,125.05 C 478.569,125.503 478.997,125.791 479.455,125.791 C 479.944,125.791 480.314,125.503 480.338,125.056 L 480.726,125.056 C 480.702,125.732 480.156,126.156 479.468,126.156 C 478.797,126.156 478.18,125.721 478.18,125.05 C 478.18,124.727 478.303,124.24 479.139,124.039 L 479.685,123.91 C 480.084,123.81 480.478,123.598 480.478,123.158 C 480.478,122.775 480.156,122.365 479.509,122.365 C 478.938,122.365 478.574,122.746 478.533,123.145 L 478.15,123.145 C 478.18,122.559 478.715,122 479.509,122 Z" marker-start="none" marker-end="none"/>
     <path d="M 482.137,122.423 L 482.137,123.864 L 483.817,123.864 L 483.817,124.227 L 482.137,124.227 L 482.137,125.744 L 484.065,125.744 L 484.065,126.109 L 481.754,126.109 L 481.754,122.058 L 484.13,122.058 L 484.13,122.423 L 482.137,122.423 Z" marker-start="none" marker-end="none"/>
     <path d="M 487.509,126.109 L 487.509,122.741 L 485.44,126.109 L 485.034,126.109 L 485.034,122.058 L 485.422,122.058 L 485.422,125.433 L 487.498,122.058 L 487.897,122.058 L 487.897,126.109 L 487.509,126.109 Z" marker-start="none" marker-end="none"/>
    </g>
   </g>
  </g>
 </g>
 <g id="Sponsoren" transform="scale(1 -1)"/>
 <g id="Content" transform="scale(1 -1)"/>
 <g id="Logo Vektor" transform="scale(1 -1)"/>
</svg>
