<?xml version="1.0" standalone="no"?>
<!DOCTYPE svg PUBLIC "-//W3C//DTD SVG 1.1//EN" "http://www.w3.org/Graphics/SVG/1.1/DTD/svg11.dtd">
<!--Generator: Xara Designer (www.xara.com), SVG filter version: 6.6.0.7-->
<svg fill="none" fill-rule="evenodd" stroke="black" stroke-width="0.501" stroke-linejoin="bevel" stroke-miterlimit="10" font-family="Times New Roman" font-size="16" style="font-variant-ligatures:none" xmlns:xlink="http://www.w3.org/1999/xlink" xmlns="http://www.w3.org/2000/svg" version="1.1" overflow="visible" width="144pt" height="72pt" viewBox="0 -72 144 72">
 <defs>
	</defs>
 <g id="Layer 1" transform="scale(1 -1)">
  <rect x="0.002" y="0.002" width="143.999" height="71.999" fill="#ffffff" stroke="none" stroke-width="0.25" stroke-linejoin="miter"/>
  <g id="Group" fill-rule="nonzero" stroke-linejoin="miter" stroke="none" stroke-width="0.25" fill="#000000">
   <g id="Group_1">
    <path d="M 5.8,19.748 L 5.8,21.213 C 5.8,21.352 5.81,21.505 5.829,21.672 L 4.37,19.748 L 5.8,19.748 Z M 7.091,19.748 L 7.091,19.304 C 7.091,19.263 7.077,19.227 7.049,19.196 C 7.021,19.167 6.981,19.152 6.929,19.152 L 6.5,19.152 L 6.5,18.058 L 5.8,18.058 L 5.8,19.152 L 3.817,19.152 C 3.762,19.152 3.714,19.168 3.673,19.2 C 3.632,19.232 3.606,19.272 3.595,19.32 L 3.51,19.707 L 5.739,22.543 L 6.5,22.543 L 6.5,19.748 L 7.091,19.748 Z" marker-start="none" marker-end="none"/>
    <path d="M 8.956,20.913 L 8.792,20.72 C 8.883,20.764 8.982,20.798 9.087,20.821 C 9.193,20.846 9.306,20.858 9.427,20.858 C 9.605,20.858 9.778,20.829 9.945,20.773 C 10.114,20.717 10.262,20.633 10.39,20.52 C 10.518,20.408 10.621,20.268 10.699,20.1 C 10.777,19.933 10.816,19.738 10.816,19.515 C 10.816,19.306 10.776,19.11 10.695,18.927 C 10.615,18.744 10.502,18.584 10.356,18.448 C 10.211,18.312 10.036,18.204 9.831,18.125 C 9.627,18.047 9.401,18.008 9.154,18.008 C 8.902,18.008 8.677,18.046 8.477,18.123 C 8.278,18.2 8.108,18.307 7.966,18.444 C 7.826,18.581 7.719,18.746 7.643,18.939 C 7.569,19.133 7.532,19.348 7.532,19.584 C 7.532,19.794 7.577,20.011 7.666,20.232 C 7.756,20.455 7.895,20.686 8.084,20.925 L 9.206,22.361 C 9.245,22.41 9.302,22.452 9.377,22.487 C 9.452,22.523 9.538,22.541 9.635,22.541 L 10.35,22.541 L 8.956,20.913 Z M 9.138,18.635 C 9.266,18.635 9.384,18.656 9.491,18.697 C 9.598,18.738 9.69,18.796 9.766,18.871 C 9.843,18.945 9.903,19.032 9.947,19.132 C 9.99,19.232 10.012,19.341 10.012,19.459 C 10.012,19.587 9.991,19.702 9.95,19.804 C 9.909,19.907 9.851,19.993 9.775,20.064 C 9.699,20.136 9.608,20.19 9.502,20.227 C 9.396,20.264 9.279,20.283 9.151,20.283 C 9.023,20.283 8.907,20.263 8.802,20.221 C 8.699,20.18 8.61,20.123 8.535,20.049 C 8.462,19.977 8.404,19.89 8.363,19.789 C 8.323,19.689 8.302,19.581 8.302,19.465 C 8.302,19.341 8.32,19.228 8.356,19.126 C 8.392,19.024 8.445,18.937 8.514,18.864 C 8.585,18.791 8.672,18.735 8.777,18.694 C 8.881,18.655 9.002,18.635 9.138,18.635 Z" marker-start="none" marker-end="none"/>
    <path d="M 14.397,18.631 L 14.397,18.058 L 11.795,18.058 L 11.795,18.631 L 12.749,18.631 L 12.749,21.245 C 12.749,21.348 12.751,21.455 12.757,21.564 L 12.081,21.025 C 12.042,20.996 12.004,20.978 11.965,20.971 C 11.928,20.964 11.892,20.963 11.858,20.968 C 11.825,20.974 11.795,20.985 11.769,21 C 11.743,21.016 11.723,21.034 11.711,21.053 L 11.457,21.384 L 12.891,22.546 L 13.552,22.546 L 13.552,18.631 L 14.397,18.631 Z" marker-start="none" marker-end="none"/>
    <path d="M 15.155,21.291 C 15.187,21.506 15.25,21.695 15.343,21.856 C 15.437,22.018 15.554,22.154 15.693,22.262 C 15.833,22.371 15.994,22.452 16.174,22.507 C 16.356,22.562 16.551,22.589 16.759,22.589 C 16.975,22.589 17.17,22.56 17.345,22.5 C 17.52,22.442 17.669,22.361 17.792,22.256 C 17.916,22.152 18.011,22.029 18.077,21.888 C 18.143,21.748 18.176,21.597 18.176,21.434 C 18.176,21.291 18.159,21.165 18.125,21.057 C 18.092,20.948 18.044,20.854 17.981,20.773 C 17.918,20.692 17.84,20.624 17.747,20.568 C 17.654,20.513 17.549,20.467 17.432,20.43 C 17.713,20.345 17.923,20.215 18.062,20.041 C 18.201,19.868 18.27,19.65 18.27,19.387 C 18.27,19.165 18.227,18.967 18.141,18.795 C 18.054,18.624 17.937,18.48 17.789,18.363 C 17.641,18.247 17.471,18.158 17.277,18.098 C 17.083,18.038 16.878,18.008 16.661,18.008 C 16.424,18.008 16.218,18.034 16.042,18.085 C 15.867,18.137 15.714,18.214 15.584,18.315 C 15.455,18.416 15.344,18.54 15.253,18.686 C 15.162,18.833 15.083,19.003 15.019,19.196 L 15.373,19.335 C 15.466,19.372 15.553,19.382 15.634,19.364 C 15.716,19.347 15.775,19.306 15.812,19.239 C 15.851,19.167 15.894,19.095 15.94,19.025 C 15.987,18.955 16.043,18.893 16.108,18.837 C 16.173,18.782 16.249,18.738 16.337,18.704 C 16.425,18.67 16.53,18.653 16.652,18.653 C 16.788,18.653 16.907,18.674 17.009,18.716 C 17.11,18.759 17.195,18.815 17.264,18.883 C 17.333,18.951 17.384,19.027 17.416,19.11 C 17.45,19.194 17.467,19.279 17.467,19.363 C 17.467,19.471 17.455,19.568 17.431,19.656 C 17.407,19.744 17.357,19.819 17.281,19.881 C 17.206,19.943 17.097,19.991 16.955,20.026 C 16.813,20.061 16.623,20.079 16.385,20.079 L 16.385,20.625 C 16.581,20.627 16.745,20.644 16.875,20.677 C 17.005,20.711 17.109,20.756 17.185,20.815 C 17.262,20.874 17.316,20.945 17.346,21.027 C 17.377,21.11 17.393,21.201 17.393,21.3 C 17.393,21.511 17.33,21.671 17.206,21.781 C 17.083,21.89 16.918,21.945 16.712,21.945 C 16.617,21.945 16.53,21.932 16.45,21.906 C 16.37,21.881 16.298,21.845 16.234,21.798 C 16.17,21.751 16.116,21.697 16.071,21.635 C 16.028,21.574 15.996,21.505 15.974,21.431 C 15.937,21.336 15.889,21.273 15.83,21.241 C 15.771,21.211 15.687,21.204 15.577,21.22 L 15.155,21.291 Z" marker-start="none" marker-end="none"/>
    <path d="M 22.103,20.407 C 22.268,20.407 22.411,20.427 22.533,20.466 C 22.656,20.506 22.756,20.56 22.835,20.629 C 22.914,20.698 22.973,20.78 23.012,20.875 C 23.051,20.97 23.071,21.075 23.071,21.189 C 23.071,21.416 22.993,21.59 22.835,21.712 C 22.678,21.834 22.438,21.895 22.116,21.895 L 21.557,21.895 L 21.557,20.407 L 22.103,20.407 Z M 24.353,18.058 L 23.562,18.058 C 23.413,18.058 23.305,18.114 23.238,18.225 L 22.248,19.66 C 22.212,19.714 22.171,19.752 22.127,19.775 C 22.083,19.798 22.017,19.81 21.931,19.81 L 21.557,19.81 L 21.557,18.058 L 20.682,18.058 L 20.682,22.541 L 22.116,22.541 C 22.435,22.541 22.708,22.509 22.937,22.445 C 23.166,22.382 23.353,22.294 23.499,22.18 C 23.646,22.067 23.753,21.931 23.822,21.773 C 23.892,21.615 23.926,21.441 23.926,21.251 C 23.926,21.1 23.903,20.957 23.856,20.823 C 23.81,20.688 23.743,20.566 23.655,20.457 C 23.568,20.347 23.459,20.251 23.329,20.169 C 23.201,20.086 23.054,20.021 22.889,19.974 C 22.946,19.942 22.998,19.906 23.046,19.863 C 23.094,19.821 23.137,19.771 23.176,19.713 L 24.353,18.058 Z" marker-start="none" marker-end="none"/>
    <path d="M 25.524,21.238 L 25.524,18.058 L 24.718,18.058 L 24.718,21.238 L 25.524,21.238 Z M 25.634,22.165 C 25.634,22.099 25.62,22.037 25.592,21.978 C 25.564,21.921 25.526,21.87 25.479,21.826 C 25.433,21.783 25.378,21.749 25.315,21.723 C 25.253,21.698 25.186,21.685 25.115,21.685 C 25.045,21.685 24.98,21.698 24.917,21.723 C 24.856,21.749 24.803,21.783 24.757,21.826 C 24.711,21.87 24.675,21.921 24.648,21.978 C 24.621,22.037 24.607,22.099 24.607,22.165 C 24.607,22.234 24.621,22.297 24.648,22.356 C 24.675,22.417 24.711,22.468 24.757,22.511 C 24.803,22.555 24.856,22.59 24.917,22.616 C 24.98,22.642 25.045,22.655 25.115,22.655 C 25.186,22.655 25.253,22.642 25.315,22.616 C 25.378,22.59 25.433,22.555 25.479,22.511 C 25.526,22.468 25.564,22.417 25.592,22.356 C 25.62,22.297 25.634,22.234 25.634,22.165 Z" marker-start="none" marker-end="none"/>
    <path d="M 28.735,20.566 C 28.71,20.537 28.687,20.514 28.664,20.497 C 28.641,20.481 28.608,20.473 28.565,20.473 C 28.524,20.473 28.483,20.485 28.444,20.508 C 28.405,20.532 28.359,20.559 28.304,20.589 C 28.25,20.619 28.186,20.646 28.111,20.669 C 28.036,20.694 27.944,20.706 27.833,20.706 C 27.692,20.706 27.569,20.681 27.463,20.632 C 27.357,20.583 27.268,20.514 27.197,20.423 C 27.127,20.333 27.074,20.223 27.039,20.094 C 27.005,19.964 26.987,19.818 26.987,19.655 C 26.987,19.485 27.006,19.334 27.044,19.202 C 27.082,19.07 27.137,18.958 27.209,18.868 C 27.28,18.778 27.367,18.71 27.468,18.663 C 27.571,18.618 27.686,18.595 27.813,18.595 C 27.941,18.595 28.044,18.61 28.123,18.639 C 28.203,18.669 28.27,18.701 28.324,18.737 C 28.378,18.774 28.425,18.807 28.465,18.837 C 28.505,18.867 28.551,18.883 28.601,18.883 C 28.665,18.883 28.714,18.859 28.747,18.811 L 28.977,18.533 C 28.889,18.433 28.792,18.35 28.688,18.283 C 28.584,18.215 28.477,18.162 28.365,18.121 C 28.253,18.081 28.138,18.053 28.019,18.036 C 27.901,18.02 27.784,18.011 27.667,18.011 C 27.461,18.011 27.267,18.048 27.085,18.121 C 26.903,18.195 26.744,18.302 26.608,18.441 C 26.471,18.582 26.363,18.754 26.283,18.958 C 26.204,19.162 26.164,19.394 26.164,19.655 C 26.164,19.888 26.2,20.104 26.27,20.303 C 26.341,20.503 26.444,20.676 26.581,20.821 C 26.717,20.967 26.886,21.081 27.087,21.163 C 27.29,21.247 27.522,21.288 27.785,21.288 C 28.034,21.288 28.252,21.25 28.44,21.173 C 28.627,21.096 28.795,20.987 28.945,20.844 L 28.735,20.566 Z" marker-start="none" marker-end="none"/>
    <path d="M 30.282,22.665 L 30.282,20.026 L 30.431,20.026 C 30.486,20.026 30.529,20.033 30.56,20.046 C 30.592,20.06 30.624,20.087 30.656,20.128 L 31.486,21.105 C 31.52,21.148 31.559,21.181 31.6,21.204 C 31.642,21.227 31.697,21.238 31.765,21.238 L 32.5,21.238 L 31.463,20.057 C 31.389,19.964 31.308,19.893 31.222,19.843 C 31.267,19.813 31.307,19.776 31.343,19.734 C 31.379,19.693 31.413,19.649 31.446,19.601 L 32.558,18.058 L 31.833,18.058 C 31.77,18.058 31.716,18.068 31.671,18.088 C 31.625,18.107 31.587,18.143 31.556,18.194 L 30.705,19.401 C 30.674,19.448 30.642,19.479 30.609,19.493 C 30.577,19.508 30.529,19.515 30.464,19.515 L 30.282,19.515 L 30.282,18.058 L 29.479,18.058 L 29.479,22.665 L 30.282,22.665 Z" marker-start="none" marker-end="none"/>
    <path d="M 34.936,20.014 C 34.936,20.113 34.922,20.206 34.892,20.294 C 34.863,20.382 34.819,20.459 34.76,20.525 C 34.701,20.592 34.627,20.644 34.537,20.681 C 34.447,20.72 34.343,20.739 34.223,20.739 C 33.992,20.739 33.809,20.676 33.676,20.55 C 33.543,20.424 33.458,20.246 33.42,20.014 L 34.936,20.014 Z M 33.405,19.553 C 33.418,19.389 33.448,19.248 33.495,19.129 C 33.543,19.01 33.606,18.912 33.684,18.834 C 33.762,18.757 33.855,18.699 33.962,18.661 C 34.07,18.623 34.188,18.604 34.318,18.604 C 34.449,18.604 34.561,18.619 34.655,18.647 C 34.749,18.676 34.832,18.708 34.902,18.743 C 34.973,18.778 35.035,18.81 35.087,18.838 C 35.141,18.868 35.193,18.883 35.243,18.883 C 35.309,18.883 35.359,18.859 35.392,18.811 L 35.622,18.533 C 35.534,18.433 35.434,18.35 35.323,18.283 C 35.213,18.215 35.098,18.162 34.977,18.121 C 34.857,18.081 34.734,18.053 34.609,18.036 C 34.485,18.02 34.364,18.011 34.247,18.011 C 34.015,18.011 33.799,18.048 33.6,18.121 C 33.4,18.195 33.226,18.303 33.079,18.447 C 32.932,18.59 32.816,18.768 32.732,18.98 C 32.647,19.192 32.605,19.438 32.605,19.717 C 32.605,19.934 32.641,20.138 32.715,20.329 C 32.789,20.52 32.895,20.686 33.032,20.827 C 33.17,20.969 33.337,21.081 33.536,21.163 C 33.735,21.247 33.959,21.288 34.208,21.288 C 34.418,21.288 34.612,21.256 34.789,21.191 C 34.967,21.128 35.12,21.034 35.248,20.912 C 35.376,20.789 35.476,20.638 35.549,20.458 C 35.622,20.28 35.659,20.076 35.659,19.846 C 35.659,19.73 35.646,19.652 35.619,19.612 C 35.593,19.572 35.543,19.553 35.47,19.553 L 33.405,19.553 Z" marker-start="none" marker-end="none"/>
    <path d="M 37.011,20.848 C 37.079,20.912 37.15,20.971 37.225,21.026 C 37.3,21.081 37.379,21.127 37.462,21.165 C 37.545,21.203 37.635,21.233 37.73,21.255 C 37.826,21.277 37.93,21.288 38.043,21.288 C 38.225,21.288 38.386,21.259 38.527,21.199 C 38.668,21.14 38.786,21.057 38.88,20.951 C 38.974,20.845 39.046,20.718 39.095,20.57 C 39.144,20.423 39.168,20.26 39.168,20.083 L 39.168,18.058 L 38.365,18.058 L 38.365,20.083 C 38.365,20.277 38.318,20.426 38.225,20.532 C 38.132,20.639 37.99,20.692 37.799,20.692 C 37.66,20.692 37.529,20.662 37.408,20.602 C 37.287,20.543 37.172,20.462 37.064,20.359 L 37.064,18.058 L 36.261,18.058 L 36.261,21.238 L 36.752,21.238 C 36.856,21.238 36.924,21.192 36.956,21.099 L 37.011,20.848 Z" marker-start="none" marker-end="none"/>
    <path d="M 40.733,18.883 C 40.824,18.777 40.923,18.702 41.031,18.659 C 41.138,18.616 41.251,18.595 41.371,18.595 C 41.494,18.595 41.605,18.616 41.704,18.658 C 41.803,18.7 41.886,18.766 41.955,18.856 C 42.025,18.946 42.078,19.061 42.115,19.2 C 42.152,19.34 42.171,19.507 42.171,19.701 C 42.171,20.05 42.11,20.302 41.987,20.458 C 41.866,20.614 41.692,20.692 41.465,20.692 C 41.311,20.692 41.176,20.659 41.062,20.591 C 40.947,20.525 40.837,20.431 40.733,20.309 L 40.733,18.883 Z M 40.733,20.848 C 40.867,20.982 41.016,21.089 41.18,21.169 C 41.344,21.248 41.531,21.288 41.74,21.288 C 41.933,21.288 42.107,21.252 42.263,21.179 C 42.418,21.107 42.55,21.003 42.659,20.867 C 42.769,20.733 42.854,20.569 42.912,20.376 C 42.97,20.184 42.999,19.968 42.999,19.729 C 42.999,19.471 42.966,19.236 42.898,19.025 C 42.831,18.815 42.735,18.634 42.61,18.484 C 42.486,18.335 42.336,18.218 42.16,18.135 C 41.985,18.052 41.79,18.011 41.575,18.011 C 41.471,18.011 41.376,18.021 41.292,18.041 C 41.208,18.06 41.13,18.088 41.059,18.123 C 40.987,18.158 40.921,18.201 40.861,18.252 C 40.802,18.302 40.745,18.358 40.69,18.421 L 40.655,18.207 C 40.642,18.153 40.619,18.115 40.587,18.092 C 40.556,18.069 40.514,18.058 40.46,18.058 L 39.93,18.058 L 39.93,22.665 L 40.733,22.665 L 40.733,20.848 Z" marker-start="none" marker-end="none"/>
    <path d="M 45.383,19.415 C 45.151,19.406 44.956,19.386 44.798,19.358 C 44.64,19.33 44.513,19.294 44.417,19.251 C 44.322,19.208 44.253,19.158 44.212,19.099 C 44.171,19.042 44.151,18.979 44.151,18.911 C 44.151,18.776 44.193,18.68 44.275,18.622 C 44.359,18.564 44.468,18.536 44.603,18.536 C 44.768,18.536 44.91,18.564 45.031,18.62 C 45.151,18.678 45.269,18.764 45.383,18.88 L 45.383,19.415 Z M 43.543,20.795 C 43.927,21.13 44.388,21.298 44.928,21.298 C 45.123,21.298 45.298,21.267 45.451,21.206 C 45.606,21.145 45.736,21.06 45.842,20.952 C 45.949,20.843 46.029,20.713 46.084,20.562 C 46.139,20.411 46.167,20.246 46.167,20.067 L 46.167,18.058 L 45.803,18.058 C 45.726,18.058 45.668,18.069 45.626,18.09 C 45.586,18.112 45.554,18.156 45.53,18.222 L 45.458,18.452 C 45.374,18.38 45.291,18.316 45.21,18.261 C 45.13,18.206 45.047,18.16 44.96,18.123 C 44.873,18.086 44.781,18.058 44.682,18.038 C 44.584,18.018 44.475,18.008 44.356,18.008 C 44.215,18.008 44.085,18.026 43.965,18.062 C 43.846,18.099 43.743,18.153 43.656,18.225 C 43.569,18.297 43.502,18.388 43.454,18.495 C 43.407,18.603 43.383,18.728 43.383,18.871 C 43.383,18.951 43.398,19.031 43.426,19.11 C 43.454,19.19 43.5,19.266 43.564,19.337 C 43.628,19.41 43.711,19.478 43.813,19.542 C 43.914,19.607 44.039,19.663 44.188,19.71 C 44.337,19.758 44.509,19.796 44.706,19.826 C 44.904,19.856 45.129,19.875 45.383,19.881 L 45.383,20.067 C 45.383,20.279 45.336,20.437 45.239,20.539 C 45.144,20.641 45.007,20.692 44.827,20.692 C 44.697,20.692 44.59,20.678 44.504,20.649 C 44.418,20.62 44.343,20.588 44.277,20.551 C 44.212,20.515 44.153,20.483 44.099,20.454 C 44.046,20.425 43.988,20.411 43.923,20.411 C 43.866,20.411 43.819,20.425 43.78,20.453 C 43.742,20.481 43.71,20.513 43.686,20.55 L 43.543,20.795 Z" marker-start="none" marker-end="none"/>
    <path d="M 49.307,20.566 C 49.282,20.537 49.259,20.514 49.236,20.497 C 49.213,20.481 49.18,20.473 49.137,20.473 C 49.096,20.473 49.055,20.485 49.016,20.508 C 48.977,20.532 48.931,20.559 48.876,20.589 C 48.822,20.619 48.758,20.646 48.683,20.669 C 48.608,20.694 48.516,20.706 48.405,20.706 C 48.264,20.706 48.141,20.681 48.035,20.632 C 47.929,20.583 47.84,20.514 47.769,20.423 C 47.699,20.333 47.646,20.223 47.611,20.094 C 47.577,19.964 47.559,19.818 47.559,19.655 C 47.559,19.485 47.578,19.334 47.616,19.202 C 47.654,19.07 47.709,18.958 47.781,18.868 C 47.852,18.778 47.939,18.71 48.04,18.663 C 48.143,18.618 48.258,18.595 48.385,18.595 C 48.513,18.595 48.616,18.61 48.695,18.639 C 48.775,18.669 48.842,18.701 48.896,18.737 C 48.95,18.774 48.997,18.807 49.037,18.837 C 49.077,18.867 49.123,18.883 49.173,18.883 C 49.237,18.883 49.286,18.859 49.319,18.811 L 49.549,18.533 C 49.461,18.433 49.364,18.35 49.26,18.283 C 49.156,18.215 49.049,18.162 48.937,18.121 C 48.825,18.081 48.71,18.053 48.591,18.036 C 48.473,18.02 48.356,18.011 48.239,18.011 C 48.033,18.011 47.839,18.048 47.657,18.121 C 47.475,18.195 47.316,18.302 47.18,18.441 C 47.043,18.582 46.935,18.754 46.855,18.958 C 46.776,19.162 46.736,19.394 46.736,19.655 C 46.736,19.888 46.772,20.104 46.842,20.303 C 46.913,20.503 47.016,20.676 47.153,20.821 C 47.289,20.967 47.458,21.081 47.659,21.163 C 47.862,21.247 48.094,21.288 48.357,21.288 C 48.606,21.288 48.824,21.25 49.012,21.173 C 49.199,21.096 49.367,20.987 49.517,20.844 L 49.307,20.566 Z" marker-start="none" marker-end="none"/>
    <path d="M 50.861,20.897 C 50.991,21.012 51.134,21.107 51.29,21.179 C 51.446,21.252 51.629,21.288 51.84,21.288 C 52.022,21.288 52.183,21.259 52.324,21.199 C 52.465,21.14 52.583,21.057 52.677,20.951 C 52.771,20.845 52.843,20.718 52.892,20.57 C 52.941,20.423 52.965,20.26 52.965,20.083 L 52.965,18.058 L 52.162,18.058 L 52.162,20.083 C 52.162,20.277 52.115,20.426 52.022,20.532 C 51.929,20.639 51.787,20.692 51.596,20.692 C 51.457,20.692 51.326,20.662 51.205,20.602 C 51.084,20.543 50.969,20.462 50.861,20.359 L 50.861,18.058 L 50.058,18.058 L 50.058,22.665 L 50.861,22.665 L 50.861,20.897 Z" marker-start="none" marker-end="none"/>
    <path d="M 57.931,21.725 C 57.905,21.682 57.877,21.65 57.848,21.63 C 57.819,21.61 57.783,21.6 57.74,21.6 C 57.694,21.6 57.645,21.617 57.591,21.649 C 57.539,21.681 57.475,21.717 57.401,21.755 C 57.327,21.795 57.241,21.83 57.143,21.863 C 57.044,21.895 56.928,21.911 56.794,21.911 C 56.673,21.911 56.566,21.897 56.475,21.869 C 56.384,21.842 56.307,21.803 56.245,21.752 C 56.184,21.703 56.138,21.644 56.107,21.575 C 56.076,21.506 56.061,21.43 56.061,21.347 C 56.061,21.242 56.092,21.153 56.154,21.082 C 56.217,21.012 56.298,20.953 56.4,20.903 C 56.502,20.854 56.617,20.81 56.747,20.77 C 56.878,20.731 57.012,20.689 57.148,20.644 C 57.285,20.6 57.418,20.548 57.548,20.489 C 57.677,20.431 57.793,20.356 57.895,20.266 C 57.997,20.176 58.079,20.066 58.14,19.936 C 58.202,19.806 58.234,19.648 58.234,19.463 C 58.234,19.26 58.197,19.07 58.125,18.893 C 58.052,18.717 57.946,18.562 57.806,18.431 C 57.667,18.3 57.496,18.197 57.294,18.121 C 57.092,18.046 56.862,18.008 56.602,18.008 C 56.452,18.008 56.305,18.022 56.159,18.05 C 56.014,18.078 55.875,18.118 55.741,18.17 C 55.608,18.222 55.483,18.284 55.366,18.355 C 55.249,18.428 55.145,18.509 55.054,18.597 L 55.31,18.997 C 55.332,19.026 55.36,19.05 55.395,19.07 C 55.43,19.089 55.467,19.099 55.505,19.099 C 55.56,19.099 55.618,19.078 55.68,19.036 C 55.743,18.994 55.818,18.947 55.905,18.895 C 55.992,18.843 56.094,18.796 56.21,18.754 C 56.325,18.711 56.465,18.69 56.627,18.69 C 56.877,18.69 57.07,18.746 57.206,18.858 C 57.342,18.971 57.411,19.133 57.411,19.344 C 57.411,19.462 57.38,19.558 57.317,19.632 C 57.256,19.706 57.174,19.769 57.072,19.819 C 56.97,19.87 56.855,19.913 56.725,19.948 C 56.595,19.984 56.463,20.023 56.328,20.064 C 56.194,20.105 56.061,20.154 55.932,20.212 C 55.802,20.27 55.685,20.346 55.583,20.438 C 55.481,20.531 55.399,20.647 55.337,20.786 C 55.276,20.926 55.246,21.099 55.246,21.303 C 55.246,21.466 55.279,21.626 55.347,21.781 C 55.416,21.936 55.515,22.073 55.645,22.192 C 55.776,22.313 55.936,22.409 56.126,22.48 C 56.317,22.553 56.536,22.589 56.784,22.589 C 57.062,22.589 57.317,22.548 57.55,22.465 C 57.785,22.383 57.984,22.267 58.149,22.118 L 57.931,21.725 Z" marker-start="none" marker-end="none"/>
    <path d="M 63.479,20.299 C 63.479,19.97 63.422,19.666 63.308,19.386 C 63.194,19.106 63.033,18.864 62.825,18.659 C 62.617,18.455 62.367,18.295 62.074,18.18 C 61.782,18.066 61.457,18.008 61.099,18.008 C 60.743,18.008 60.419,18.066 60.127,18.18 C 59.834,18.295 59.583,18.455 59.373,18.659 C 59.164,18.864 59.002,19.106 58.887,19.386 C 58.773,19.666 58.715,19.97 58.715,20.299 C 58.715,20.628 58.773,20.932 58.887,21.212 C 59.002,21.492 59.164,21.735 59.373,21.939 C 59.583,22.144 59.834,22.303 60.127,22.417 C 60.419,22.532 60.743,22.589 61.099,22.589 C 61.337,22.589 61.561,22.563 61.771,22.51 C 61.982,22.458 62.175,22.384 62.35,22.288 C 62.526,22.192 62.684,22.075 62.824,21.937 C 62.964,21.8 63.083,21.646 63.18,21.477 C 63.277,21.307 63.352,21.123 63.402,20.925 C 63.453,20.727 63.479,20.518 63.479,20.299 Z M 62.585,20.299 C 62.585,20.545 62.55,20.765 62.481,20.96 C 62.411,21.155 62.312,21.321 62.184,21.458 C 62.056,21.595 61.901,21.699 61.717,21.771 C 61.535,21.844 61.329,21.88 61.099,21.88 C 60.869,21.88 60.662,21.844 60.478,21.771 C 60.295,21.699 60.14,21.595 60.011,21.458 C 59.882,21.321 59.783,21.155 59.713,20.96 C 59.643,20.765 59.609,20.545 59.609,20.299 C 59.609,20.054 59.643,19.833 59.713,19.637 C 59.783,19.442 59.882,19.276 60.011,19.141 C 60.14,19.006 60.295,18.901 60.478,18.829 C 60.662,18.757 60.869,18.721 61.099,18.721 C 61.329,18.721 61.535,18.757 61.717,18.829 C 61.901,18.901 62.056,19.006 62.184,19.141 C 62.312,19.276 62.411,19.442 62.481,19.637 C 62.55,19.833 62.585,20.054 62.585,20.299 Z" marker-start="none" marker-end="none"/>
    <path d="M 65.843,22.853 L 66.469,22.853 L 66.469,16.991 L 65.843,16.991 L 65.843,22.853 Z" marker-start="none" marker-end="none"/>
    <path d="M 73.616,21.238 L 72.556,18.058 L 71.913,18.058 C 71.839,18.058 71.788,18.103 71.76,18.194 L 71.162,20.033 C 71.142,20.095 71.124,20.156 71.108,20.217 C 71.092,20.278 71.078,20.34 71.067,20.402 C 71.054,20.34 71.039,20.277 71.023,20.213 C 71.007,20.151 70.989,20.088 70.97,20.026 L 70.361,18.194 C 70.335,18.103 70.278,18.058 70.189,18.058 L 69.571,18.058 L 68.514,21.238 L 69.155,21.238 C 69.214,21.238 69.264,21.225 69.304,21.198 C 69.346,21.171 69.373,21.137 69.386,21.096 L 69.865,19.397 C 69.888,19.304 69.909,19.214 69.927,19.125 C 69.945,19.036 69.961,18.947 69.975,18.857 C 69.998,18.947 70.024,19.036 70.051,19.125 C 70.078,19.214 70.107,19.304 70.137,19.397 L 70.69,21.103 C 70.703,21.144 70.729,21.178 70.767,21.205 C 70.804,21.232 70.85,21.245 70.905,21.245 L 71.259,21.245 C 71.316,21.245 71.364,21.232 71.403,21.205 C 71.443,21.178 71.47,21.144 71.483,21.103 L 72.02,19.397 C 72.048,19.304 72.074,19.213 72.099,19.122 C 72.124,19.032 72.149,18.943 72.172,18.854 C 72.201,19.03 72.241,19.211 72.294,19.397 L 72.785,21.096 C 72.8,21.137 72.827,21.171 72.865,21.198 C 72.905,21.225 72.951,21.238 73.005,21.238 L 73.616,21.238 Z" marker-start="none" marker-end="none"/>
    <path d="M 78.836,21.238 L 77.776,18.058 L 77.133,18.058 C 77.059,18.058 77.008,18.103 76.98,18.194 L 76.382,20.033 C 76.362,20.095 76.344,20.156 76.328,20.217 C 76.312,20.278 76.298,20.34 76.287,20.402 C 76.274,20.34 76.259,20.277 76.243,20.213 C 76.227,20.151 76.209,20.088 76.19,20.026 L 75.581,18.194 C 75.555,18.103 75.498,18.058 75.409,18.058 L 74.791,18.058 L 73.734,21.238 L 74.375,21.238 C 74.434,21.238 74.484,21.225 74.524,21.198 C 74.566,21.171 74.593,21.137 74.606,21.096 L 75.085,19.397 C 75.108,19.304 75.129,19.214 75.147,19.125 C 75.165,19.036 75.181,18.947 75.195,18.857 C 75.218,18.947 75.244,19.036 75.271,19.125 C 75.298,19.214 75.327,19.304 75.357,19.397 L 75.91,21.103 C 75.923,21.144 75.949,21.178 75.987,21.205 C 76.024,21.232 76.07,21.245 76.125,21.245 L 76.479,21.245 C 76.536,21.245 76.584,21.232 76.623,21.205 C 76.663,21.178 76.69,21.144 76.703,21.103 L 77.24,19.397 C 77.268,19.304 77.294,19.213 77.319,19.122 C 77.344,19.032 77.369,18.943 77.392,18.854 C 77.421,19.03 77.461,19.211 77.514,19.397 L 78.005,21.096 C 78.02,21.137 78.047,21.171 78.085,21.198 C 78.125,21.225 78.171,21.238 78.225,21.238 L 78.836,21.238 Z" marker-start="none" marker-end="none"/>
    <path d="M 84.056,21.238 L 82.996,18.058 L 82.353,18.058 C 82.279,18.058 82.228,18.103 82.2,18.194 L 81.602,20.033 C 81.582,20.095 81.564,20.156 81.548,20.217 C 81.532,20.278 81.518,20.34 81.507,20.402 C 81.494,20.34 81.479,20.277 81.463,20.213 C 81.447,20.151 81.429,20.088 81.41,20.026 L 80.801,18.194 C 80.775,18.103 80.718,18.058 80.629,18.058 L 80.011,18.058 L 78.954,21.238 L 79.595,21.238 C 79.654,21.238 79.704,21.225 79.744,21.198 C 79.786,21.171 79.813,21.137 79.826,21.096 L 80.305,19.397 C 80.328,19.304 80.349,19.214 80.367,19.125 C 80.385,19.036 80.401,18.947 80.415,18.857 C 80.438,18.947 80.464,19.036 80.491,19.125 C 80.518,19.214 80.547,19.304 80.577,19.397 L 81.13,21.103 C 81.143,21.144 81.169,21.178 81.207,21.205 C 81.244,21.232 81.29,21.245 81.345,21.245 L 81.699,21.245 C 81.756,21.245 81.804,21.232 81.843,21.205 C 81.883,21.178 81.91,21.144 81.923,21.103 L 82.46,19.397 C 82.488,19.304 82.514,19.213 82.539,19.122 C 82.564,19.032 82.589,18.943 82.612,18.854 C 82.641,19.03 82.681,19.211 82.734,19.397 L 83.225,21.096 C 83.24,21.137 83.267,21.171 83.305,21.198 C 83.345,21.225 83.391,21.238 83.445,21.238 L 84.056,21.238 Z" marker-start="none" marker-end="none"/>
    <path d="M 84.252,18.479 C 84.252,18.544 84.265,18.605 84.289,18.662 C 84.315,18.72 84.349,18.77 84.392,18.811 C 84.435,18.853 84.487,18.885 84.547,18.91 C 84.609,18.935 84.674,18.947 84.744,18.947 C 84.813,18.947 84.878,18.935 84.937,18.91 C 84.996,18.885 85.048,18.853 85.092,18.811 C 85.137,18.77 85.173,18.72 85.198,18.662 C 85.224,18.605 85.238,18.544 85.238,18.479 C 85.238,18.414 85.224,18.352 85.198,18.295 C 85.173,18.238 85.137,18.189 85.092,18.148 C 85.048,18.107 84.996,18.075 84.937,18.051 C 84.878,18.027 84.813,18.015 84.744,18.015 C 84.674,18.015 84.609,18.027 84.547,18.051 C 84.487,18.075 84.435,18.107 84.392,18.148 C 84.349,18.189 84.315,18.238 84.289,18.295 C 84.265,18.352 84.252,18.414 84.252,18.479 Z" marker-start="none" marker-end="none"/>
    <path d="M 87.133,19.726 C 87.233,19.726 87.319,19.739 87.393,19.764 C 87.467,19.79 87.528,19.826 87.576,19.872 C 87.625,19.917 87.662,19.972 87.686,20.036 C 87.712,20.099 87.724,20.17 87.724,20.247 C 87.724,20.404 87.675,20.528 87.576,20.62 C 87.478,20.712 87.331,20.758 87.133,20.758 C 86.935,20.758 86.787,20.712 86.688,20.62 C 86.591,20.528 86.542,20.404 86.542,20.247 C 86.542,20.172 86.554,20.103 86.578,20.038 C 86.604,19.975 86.64,19.92 86.688,19.873 C 86.737,19.826 86.799,19.79 86.873,19.764 C 86.949,19.739 87.035,19.726 87.133,19.726 Z M 88.041,17.915 C 88.041,17.977 88.021,18.028 87.981,18.067 C 87.943,18.107 87.89,18.137 87.822,18.159 C 87.755,18.18 87.676,18.196 87.586,18.206 C 87.497,18.217 87.402,18.225 87.301,18.23 C 87.2,18.236 87.096,18.24 86.989,18.244 C 86.882,18.248 86.777,18.257 86.674,18.269 C 86.586,18.222 86.514,18.166 86.458,18.101 C 86.403,18.037 86.375,17.963 86.375,17.878 C 86.375,17.822 86.39,17.77 86.419,17.722 C 86.448,17.673 86.495,17.632 86.559,17.597 C 86.623,17.562 86.705,17.534 86.807,17.515 C 86.91,17.495 87.035,17.485 87.182,17.485 C 87.332,17.485 87.461,17.496 87.569,17.517 C 87.677,17.539 87.767,17.569 87.837,17.607 C 87.908,17.645 87.959,17.69 87.991,17.743 C 88.024,17.796 88.041,17.853 88.041,17.915 Z M 88.841,21.129 L 88.841,20.844 C 88.841,20.754 88.783,20.698 88.669,20.677 L 88.37,20.625 C 88.415,20.516 88.437,20.395 88.437,20.264 C 88.437,20.107 88.404,19.965 88.337,19.838 C 88.271,19.711 88.18,19.604 88.063,19.515 C 87.946,19.426 87.808,19.358 87.648,19.309 C 87.489,19.261 87.317,19.237 87.133,19.237 C 87.068,19.237 87.005,19.239 86.944,19.245 C 86.884,19.251 86.824,19.259 86.766,19.27 C 86.662,19.21 86.609,19.143 86.609,19.068 C 86.609,19.005 86.64,18.958 86.701,18.927 C 86.763,18.898 86.845,18.876 86.947,18.864 C 87.049,18.851 87.166,18.843 87.295,18.84 C 87.426,18.837 87.56,18.83 87.696,18.819 C 87.833,18.81 87.966,18.792 88.096,18.766 C 88.226,18.741 88.341,18.7 88.443,18.643 C 88.545,18.588 88.627,18.512 88.688,18.416 C 88.751,18.32 88.782,18.197 88.782,18.046 C 88.782,17.905 88.745,17.769 88.673,17.637 C 88.6,17.504 88.495,17.386 88.357,17.283 C 88.219,17.18 88.05,17.097 87.85,17.034 C 87.65,16.97 87.421,16.939 87.166,16.939 C 86.914,16.939 86.695,16.962 86.509,17.009 C 86.323,17.055 86.168,17.118 86.043,17.196 C 85.92,17.273 85.828,17.362 85.767,17.463 C 85.707,17.565 85.676,17.67 85.676,17.78 C 85.676,17.928 85.723,18.053 85.818,18.152 C 85.912,18.253 86.041,18.333 86.206,18.393 C 86.117,18.436 86.047,18.493 85.994,18.565 C 85.942,18.638 85.916,18.733 85.916,18.852 C 85.916,18.899 85.926,18.948 85.945,18.998 C 85.963,19.05 85.991,19.1 86.026,19.149 C 86.062,19.198 86.107,19.245 86.161,19.289 C 86.215,19.334 86.279,19.374 86.353,19.41 C 86.183,19.496 86.05,19.611 85.953,19.756 C 85.857,19.901 85.809,20.071 85.809,20.264 C 85.809,20.422 85.842,20.564 85.908,20.691 C 85.975,20.818 86.067,20.927 86.185,21.016 C 86.303,21.106 86.443,21.175 86.604,21.222 C 86.766,21.27 86.942,21.294 87.133,21.294 C 87.276,21.294 87.41,21.28 87.535,21.252 C 87.661,21.224 87.777,21.183 87.881,21.129 L 88.841,21.129 Z" marker-start="none" marker-end="none"/>
    <path d="M 91.11,19.415 C 90.878,19.406 90.683,19.386 90.525,19.358 C 90.367,19.33 90.24,19.294 90.144,19.251 C 90.049,19.208 89.98,19.158 89.939,19.099 C 89.898,19.042 89.878,18.979 89.878,18.911 C 89.878,18.776 89.92,18.68 90.002,18.622 C 90.086,18.564 90.195,18.536 90.33,18.536 C 90.495,18.536 90.637,18.564 90.758,18.62 C 90.878,18.678 90.996,18.764 91.11,18.88 L 91.11,19.415 Z M 89.27,20.795 C 89.654,21.13 90.115,21.298 90.655,21.298 C 90.85,21.298 91.025,21.267 91.178,21.206 C 91.333,21.145 91.463,21.06 91.569,20.952 C 91.676,20.843 91.756,20.713 91.811,20.562 C 91.866,20.411 91.894,20.246 91.894,20.067 L 91.894,18.058 L 91.53,18.058 C 91.453,18.058 91.395,18.069 91.353,18.09 C 91.313,18.112 91.281,18.156 91.257,18.222 L 91.185,18.452 C 91.101,18.38 91.018,18.316 90.937,18.261 C 90.857,18.206 90.774,18.16 90.687,18.123 C 90.6,18.086 90.508,18.058 90.409,18.038 C 90.311,18.018 90.202,18.008 90.083,18.008 C 89.942,18.008 89.812,18.026 89.692,18.062 C 89.573,18.099 89.47,18.153 89.383,18.225 C 89.296,18.297 89.229,18.388 89.181,18.495 C 89.134,18.603 89.11,18.728 89.11,18.871 C 89.11,18.951 89.125,19.031 89.153,19.11 C 89.181,19.19 89.227,19.266 89.291,19.337 C 89.355,19.41 89.438,19.478 89.54,19.542 C 89.641,19.607 89.766,19.663 89.915,19.71 C 90.064,19.758 90.236,19.796 90.433,19.826 C 90.631,19.856 90.856,19.875 91.11,19.881 L 91.11,20.067 C 91.11,20.279 91.063,20.437 90.966,20.539 C 90.871,20.641 90.734,20.692 90.554,20.692 C 90.424,20.692 90.317,20.678 90.231,20.649 C 90.145,20.62 90.07,20.588 90.004,20.551 C 89.939,20.515 89.88,20.483 89.826,20.454 C 89.773,20.425 89.715,20.411 89.65,20.411 C 89.593,20.411 89.546,20.425 89.507,20.453 C 89.469,20.481 89.437,20.513 89.413,20.55 L 89.27,20.795 Z" marker-start="none" marker-end="none"/>
    <path d="M 93.408,20.687 C 93.512,20.877 93.636,21.026 93.779,21.135 C 93.922,21.243 94.091,21.298 94.285,21.298 C 94.44,21.298 94.564,21.265 94.657,21.201 L 94.604,20.628 C 94.593,20.591 94.577,20.564 94.556,20.548 C 94.536,20.533 94.508,20.525 94.475,20.525 C 94.442,20.525 94.393,20.53 94.329,20.54 C 94.265,20.551 94.203,20.556 94.143,20.556 C 94.053,20.556 93.974,20.544 93.904,20.519 C 93.836,20.494 93.774,20.459 93.718,20.412 C 93.663,20.366 93.614,20.309 93.571,20.243 C 93.529,20.177 93.489,20.102 93.453,20.017 L 93.453,18.058 L 92.65,18.058 L 92.65,21.238 L 93.121,21.238 C 93.204,21.238 93.261,21.225 93.293,21.197 C 93.326,21.169 93.348,21.119 93.358,21.046 L 93.408,20.687 Z" marker-start="none" marker-end="none"/>
    <path d="M 96.799,19.415 C 96.567,19.406 96.372,19.386 96.214,19.358 C 96.056,19.33 95.929,19.294 95.833,19.251 C 95.738,19.208 95.669,19.158 95.628,19.099 C 95.587,19.042 95.567,18.979 95.567,18.911 C 95.567,18.776 95.609,18.68 95.691,18.622 C 95.775,18.564 95.884,18.536 96.019,18.536 C 96.184,18.536 96.326,18.564 96.447,18.62 C 96.567,18.678 96.685,18.764 96.799,18.88 L 96.799,19.415 Z M 94.959,20.795 C 95.343,21.13 95.804,21.298 96.344,21.298 C 96.539,21.298 96.714,21.267 96.867,21.206 C 97.022,21.145 97.152,21.06 97.258,20.952 C 97.365,20.843 97.445,20.713 97.5,20.562 C 97.555,20.411 97.583,20.246 97.583,20.067 L 97.583,18.058 L 97.219,18.058 C 97.142,18.058 97.084,18.069 97.042,18.09 C 97.002,18.112 96.97,18.156 96.946,18.222 L 96.874,18.452 C 96.79,18.38 96.707,18.316 96.626,18.261 C 96.546,18.206 96.463,18.16 96.376,18.123 C 96.289,18.086 96.197,18.058 96.098,18.038 C 96,18.018 95.891,18.008 95.772,18.008 C 95.631,18.008 95.501,18.026 95.381,18.062 C 95.262,18.099 95.159,18.153 95.072,18.225 C 94.985,18.297 94.918,18.388 94.87,18.495 C 94.823,18.603 94.799,18.728 94.799,18.871 C 94.799,18.951 94.814,19.031 94.842,19.11 C 94.87,19.19 94.916,19.266 94.98,19.337 C 95.044,19.41 95.127,19.478 95.229,19.542 C 95.33,19.607 95.455,19.663 95.604,19.71 C 95.753,19.758 95.925,19.796 96.122,19.826 C 96.32,19.856 96.545,19.875 96.799,19.881 L 96.799,20.067 C 96.799,20.279 96.752,20.437 96.655,20.539 C 96.56,20.641 96.423,20.692 96.243,20.692 C 96.113,20.692 96.006,20.678 95.92,20.649 C 95.834,20.62 95.759,20.588 95.693,20.551 C 95.628,20.515 95.569,20.483 95.515,20.454 C 95.462,20.425 95.404,20.411 95.339,20.411 C 95.282,20.411 95.235,20.425 95.196,20.453 C 95.158,20.481 95.126,20.513 95.102,20.55 L 94.959,20.795 Z" marker-start="none" marker-end="none"/>
    <path d="M 99.558,19.726 C 99.658,19.726 99.744,19.739 99.818,19.764 C 99.892,19.79 99.953,19.826 100.001,19.872 C 100.05,19.917 100.087,19.972 100.111,20.036 C 100.137,20.099 100.149,20.17 100.149,20.247 C 100.149,20.404 100.1,20.528 100.001,20.62 C 99.903,20.712 99.756,20.758 99.558,20.758 C 99.36,20.758 99.212,20.712 99.113,20.62 C 99.016,20.528 98.967,20.404 98.967,20.247 C 98.967,20.172 98.979,20.103 99.003,20.038 C 99.029,19.975 99.065,19.92 99.113,19.873 C 99.162,19.826 99.224,19.79 99.298,19.764 C 99.374,19.739 99.46,19.726 99.558,19.726 Z M 100.466,17.915 C 100.466,17.977 100.446,18.028 100.406,18.067 C 100.368,18.107 100.315,18.137 100.247,18.159 C 100.18,18.18 100.101,18.196 100.011,18.206 C 99.922,18.217 99.827,18.225 99.726,18.23 C 99.625,18.236 99.521,18.24 99.414,18.244 C 99.307,18.248 99.202,18.257 99.099,18.269 C 99.011,18.222 98.939,18.166 98.883,18.101 C 98.828,18.037 98.8,17.963 98.8,17.878 C 98.8,17.822 98.815,17.77 98.844,17.722 C 98.873,17.673 98.92,17.632 98.984,17.597 C 99.048,17.562 99.13,17.534 99.232,17.515 C 99.335,17.495 99.46,17.485 99.607,17.485 C 99.757,17.485 99.886,17.496 99.994,17.517 C 100.102,17.539 100.192,17.569 100.262,17.607 C 100.333,17.645 100.384,17.69 100.416,17.743 C 100.449,17.796 100.466,17.853 100.466,17.915 Z M 101.266,21.129 L 101.266,20.844 C 101.266,20.754 101.208,20.698 101.094,20.677 L 100.795,20.625 C 100.84,20.516 100.862,20.395 100.862,20.264 C 100.862,20.107 100.829,19.965 100.762,19.838 C 100.696,19.711 100.605,19.604 100.488,19.515 C 100.371,19.426 100.233,19.358 100.073,19.309 C 99.914,19.261 99.742,19.237 99.558,19.237 C 99.493,19.237 99.43,19.239 99.369,19.245 C 99.309,19.251 99.249,19.259 99.191,19.27 C 99.087,19.21 99.034,19.143 99.034,19.068 C 99.034,19.005 99.065,18.958 99.126,18.927 C 99.188,18.898 99.27,18.876 99.372,18.864 C 99.474,18.851 99.591,18.843 99.72,18.84 C 99.851,18.837 99.985,18.83 100.121,18.819 C 100.258,18.81 100.391,18.792 100.521,18.766 C 100.651,18.741 100.766,18.7 100.868,18.643 C 100.97,18.588 101.052,18.512 101.113,18.416 C 101.176,18.32 101.207,18.197 101.207,18.046 C 101.207,17.905 101.17,17.769 101.098,17.637 C 101.025,17.504 100.92,17.386 100.782,17.283 C 100.644,17.18 100.475,17.097 100.275,17.034 C 100.075,16.97 99.846,16.939 99.591,16.939 C 99.339,16.939 99.12,16.962 98.934,17.009 C 98.748,17.055 98.593,17.118 98.468,17.196 C 98.345,17.273 98.253,17.362 98.192,17.463 C 98.132,17.565 98.101,17.67 98.101,17.78 C 98.101,17.928 98.148,18.053 98.243,18.152 C 98.337,18.253 98.466,18.333 98.631,18.393 C 98.542,18.436 98.472,18.493 98.419,18.565 C 98.367,18.638 98.341,18.733 98.341,18.852 C 98.341,18.899 98.351,18.948 98.37,18.998 C 98.388,19.05 98.416,19.1 98.451,19.149 C 98.487,19.198 98.532,19.245 98.586,19.289 C 98.64,19.334 98.704,19.374 98.778,19.41 C 98.608,19.496 98.475,19.611 98.378,19.756 C 98.282,19.901 98.234,20.071 98.234,20.264 C 98.234,20.422 98.267,20.564 98.333,20.691 C 98.4,20.818 98.492,20.927 98.61,21.016 C 98.728,21.106 98.868,21.175 99.029,21.222 C 99.191,21.27 99.367,21.294 99.558,21.294 C 99.701,21.294 99.835,21.28 99.96,21.252 C 100.086,21.224 100.202,21.183 100.306,21.129 L 101.266,21.129 Z" marker-start="none" marker-end="none"/>
    <path d="M 103.863,20.014 C 103.863,20.113 103.849,20.206 103.819,20.294 C 103.79,20.382 103.746,20.459 103.687,20.525 C 103.628,20.592 103.554,20.644 103.464,20.681 C 103.374,20.72 103.27,20.739 103.15,20.739 C 102.919,20.739 102.736,20.676 102.603,20.55 C 102.47,20.424 102.385,20.246 102.347,20.014 L 103.863,20.014 Z M 102.332,19.553 C 102.345,19.389 102.375,19.248 102.422,19.129 C 102.47,19.01 102.533,18.912 102.611,18.834 C 102.689,18.757 102.782,18.699 102.889,18.661 C 102.997,18.623 103.115,18.604 103.245,18.604 C 103.376,18.604 103.488,18.619 103.582,18.647 C 103.676,18.676 103.759,18.708 103.829,18.743 C 103.9,18.778 103.962,18.81 104.014,18.838 C 104.068,18.868 104.12,18.883 104.17,18.883 C 104.236,18.883 104.286,18.859 104.319,18.811 L 104.549,18.533 C 104.461,18.433 104.361,18.35 104.25,18.283 C 104.14,18.215 104.025,18.162 103.904,18.121 C 103.784,18.081 103.661,18.053 103.536,18.036 C 103.412,18.02 103.291,18.011 103.174,18.011 C 102.942,18.011 102.726,18.048 102.527,18.121 C 102.327,18.195 102.153,18.303 102.006,18.447 C 101.859,18.59 101.743,18.768 101.659,18.98 C 101.574,19.192 101.532,19.438 101.532,19.717 C 101.532,19.934 101.568,20.138 101.642,20.329 C 101.716,20.52 101.822,20.686 101.959,20.827 C 102.097,20.969 102.264,21.081 102.463,21.163 C 102.662,21.247 102.886,21.288 103.135,21.288 C 103.345,21.288 103.539,21.256 103.716,21.191 C 103.894,21.128 104.047,21.034 104.175,20.912 C 104.303,20.789 104.403,20.638 104.476,20.458 C 104.549,20.28 104.586,20.076 104.586,19.846 C 104.586,19.73 104.573,19.652 104.546,19.612 C 104.52,19.572 104.47,19.553 104.397,19.553 L 102.332,19.553 Z" marker-start="none" marker-end="none"/>
    <path d="M 105.162,20.25 L 106.846,20.25 L 106.846,19.611 L 105.162,19.611 L 105.162,20.25 Z" marker-start="none" marker-end="none"/>
    <path d="M 108.417,20.897 C 108.547,21.012 108.69,21.107 108.846,21.179 C 109.002,21.252 109.185,21.288 109.396,21.288 C 109.578,21.288 109.739,21.259 109.88,21.199 C 110.021,21.14 110.139,21.057 110.233,20.951 C 110.327,20.845 110.399,20.718 110.448,20.57 C 110.497,20.423 110.521,20.26 110.521,20.083 L 110.521,18.058 L 109.718,18.058 L 109.718,20.083 C 109.718,20.277 109.671,20.426 109.578,20.532 C 109.485,20.639 109.343,20.692 109.152,20.692 C 109.013,20.692 108.882,20.662 108.761,20.602 C 108.64,20.543 108.525,20.462 108.417,20.359 L 108.417,18.058 L 107.614,18.058 L 107.614,22.665 L 108.417,22.665 L 108.417,20.897 Z" marker-start="none" marker-end="none"/>
    <path d="M 113.045,19.415 C 112.813,19.406 112.618,19.386 112.46,19.358 C 112.302,19.33 112.175,19.294 112.079,19.251 C 111.984,19.208 111.915,19.158 111.874,19.099 C 111.833,19.042 111.813,18.979 111.813,18.911 C 111.813,18.776 111.855,18.68 111.937,18.622 C 112.021,18.564 112.13,18.536 112.265,18.536 C 112.43,18.536 112.572,18.564 112.693,18.62 C 112.813,18.678 112.931,18.764 113.045,18.88 L 113.045,19.415 Z M 111.205,20.795 C 111.589,21.13 112.05,21.298 112.59,21.298 C 112.785,21.298 112.96,21.267 113.113,21.206 C 113.268,21.145 113.398,21.06 113.504,20.952 C 113.611,20.843 113.691,20.713 113.746,20.562 C 113.801,20.411 113.829,20.246 113.829,20.067 L 113.829,18.058 L 113.465,18.058 C 113.388,18.058 113.33,18.069 113.288,18.09 C 113.248,18.112 113.216,18.156 113.192,18.222 L 113.12,18.452 C 113.036,18.38 112.953,18.316 112.872,18.261 C 112.792,18.206 112.709,18.16 112.622,18.123 C 112.535,18.086 112.443,18.058 112.344,18.038 C 112.246,18.018 112.137,18.008 112.018,18.008 C 111.877,18.008 111.747,18.026 111.627,18.062 C 111.508,18.099 111.405,18.153 111.318,18.225 C 111.231,18.297 111.164,18.388 111.116,18.495 C 111.069,18.603 111.045,18.728 111.045,18.871 C 111.045,18.951 111.06,19.031 111.088,19.11 C 111.116,19.19 111.162,19.266 111.226,19.337 C 111.29,19.41 111.373,19.478 111.475,19.542 C 111.576,19.607 111.701,19.663 111.85,19.71 C 111.999,19.758 112.171,19.796 112.368,19.826 C 112.566,19.856 112.791,19.875 113.045,19.881 L 113.045,20.067 C 113.045,20.279 112.998,20.437 112.901,20.539 C 112.806,20.641 112.669,20.692 112.489,20.692 C 112.359,20.692 112.252,20.678 112.166,20.649 C 112.08,20.62 112.005,20.588 111.939,20.551 C 111.874,20.515 111.815,20.483 111.761,20.454 C 111.708,20.425 111.65,20.411 111.585,20.411 C 111.528,20.411 111.481,20.425 111.442,20.453 C 111.404,20.481 111.372,20.513 111.348,20.55 L 111.205,20.795 Z" marker-start="none" marker-end="none"/>
    <path d="M 116.734,20.014 C 116.734,20.113 116.72,20.206 116.69,20.294 C 116.661,20.382 116.617,20.459 116.558,20.525 C 116.499,20.592 116.425,20.644 116.335,20.681 C 116.245,20.72 116.141,20.739 116.021,20.739 C 115.79,20.739 115.607,20.676 115.474,20.55 C 115.341,20.424 115.256,20.246 115.218,20.014 L 116.734,20.014 Z M 115.203,19.553 C 115.216,19.389 115.246,19.248 115.293,19.129 C 115.341,19.01 115.404,18.912 115.482,18.834 C 115.56,18.757 115.653,18.699 115.76,18.661 C 115.868,18.623 115.986,18.604 116.116,18.604 C 116.247,18.604 116.359,18.619 116.453,18.647 C 116.547,18.676 116.63,18.708 116.7,18.743 C 116.771,18.778 116.833,18.81 116.885,18.838 C 116.939,18.868 116.991,18.883 117.041,18.883 C 117.107,18.883 117.157,18.859 117.19,18.811 L 117.42,18.533 C 117.332,18.433 117.232,18.35 117.121,18.283 C 117.011,18.215 116.896,18.162 116.775,18.121 C 116.655,18.081 116.532,18.053 116.407,18.036 C 116.283,18.02 116.162,18.011 116.045,18.011 C 115.813,18.011 115.597,18.048 115.398,18.121 C 115.198,18.195 115.024,18.303 114.877,18.447 C 114.73,18.59 114.614,18.768 114.53,18.98 C 114.445,19.192 114.403,19.438 114.403,19.717 C 114.403,19.934 114.439,20.138 114.513,20.329 C 114.587,20.52 114.693,20.686 114.83,20.827 C 114.968,20.969 115.135,21.081 115.334,21.163 C 115.533,21.247 115.757,21.288 116.006,21.288 C 116.216,21.288 116.41,21.256 116.587,21.191 C 116.765,21.128 116.918,21.034 117.046,20.912 C 117.174,20.789 117.274,20.638 117.347,20.458 C 117.42,20.28 117.457,20.076 117.457,19.846 C 117.457,19.73 117.444,19.652 117.417,19.612 C 117.391,19.572 117.341,19.553 117.268,19.553 L 115.203,19.553 Z" marker-start="none" marker-end="none"/>
    <path d="M 118.81,20.687 C 118.914,20.877 119.038,21.026 119.181,21.135 C 119.324,21.243 119.493,21.298 119.687,21.298 C 119.842,21.298 119.966,21.265 120.059,21.201 L 120.006,20.628 C 119.995,20.591 119.979,20.564 119.958,20.548 C 119.938,20.533 119.91,20.525 119.877,20.525 C 119.844,20.525 119.795,20.53 119.731,20.54 C 119.667,20.551 119.605,20.556 119.545,20.556 C 119.455,20.556 119.376,20.544 119.306,20.519 C 119.238,20.494 119.176,20.459 119.12,20.412 C 119.065,20.366 119.016,20.309 118.973,20.243 C 118.931,20.177 118.891,20.102 118.855,20.017 L 118.855,18.058 L 118.052,18.058 L 118.052,21.238 L 118.523,21.238 C 118.606,21.238 118.663,21.225 118.695,21.197 C 118.728,21.169 118.75,21.119 118.76,21.046 L 118.81,20.687 Z" marker-start="none" marker-end="none"/>
    <path d="M 121.597,18.008 C 121.306,18.008 121.083,18.086 120.928,18.242 C 120.773,18.398 120.696,18.614 120.696,18.888 L 120.696,20.665 L 120.355,20.665 C 120.311,20.665 120.274,20.679 120.243,20.706 C 120.213,20.733 120.198,20.773 120.198,20.825 L 120.198,21.129 L 120.734,21.213 L 120.904,22.082 C 120.915,22.123 120.936,22.155 120.966,22.178 C 120.996,22.2 121.035,22.211 121.083,22.211 L 121.499,22.211 L 121.499,21.21 L 122.39,21.21 L 122.39,20.665 L 121.499,20.665 L 121.499,18.942 C 121.499,18.842 121.525,18.765 121.576,18.709 C 121.626,18.654 121.697,18.626 121.786,18.626 C 121.836,18.626 121.877,18.631 121.91,18.642 C 121.944,18.654 121.973,18.666 121.998,18.678 C 122.023,18.691 122.046,18.702 122.065,18.713 C 122.085,18.725 122.104,18.731 122.123,18.731 C 122.148,18.731 122.167,18.725 122.183,18.713 C 122.198,18.702 122.214,18.685 122.23,18.662 L 122.472,18.291 C 122.354,18.197 122.22,18.127 122.068,18.08 C 121.917,18.032 121.76,18.008 121.597,18.008 Z" marker-start="none" marker-end="none"/>
    <path d="M 124.939,20.618 C 124.917,20.585 124.895,20.562 124.871,20.548 C 124.848,20.535 124.817,20.528 124.779,20.528 C 124.741,20.528 124.699,20.538 124.655,20.559 C 124.611,20.58 124.559,20.603 124.5,20.629 C 124.442,20.655 124.375,20.678 124.299,20.699 C 124.225,20.72 124.137,20.73 124.036,20.73 C 123.877,20.73 123.753,20.698 123.663,20.633 C 123.573,20.569 123.527,20.486 123.527,20.383 C 123.527,20.315 123.551,20.257 123.598,20.211 C 123.645,20.164 123.707,20.123 123.783,20.088 C 123.86,20.053 123.947,20.022 124.044,19.994 C 124.142,19.966 124.241,19.936 124.342,19.902 C 124.443,19.869 124.543,19.832 124.64,19.789 C 124.737,19.747 124.825,19.693 124.902,19.628 C 124.979,19.563 125.041,19.485 125.087,19.394 C 125.134,19.303 125.158,19.194 125.158,19.066 C 125.158,18.912 125.129,18.771 125.072,18.642 C 125.014,18.513 124.929,18.401 124.816,18.307 C 124.703,18.214 124.564,18.14 124.398,18.088 C 124.233,18.035 124.041,18.008 123.824,18.008 C 123.709,18.008 123.597,18.018 123.486,18.038 C 123.377,18.058 123.272,18.085 123.172,18.12 C 123.071,18.155 122.978,18.196 122.892,18.244 C 122.807,18.291 122.731,18.343 122.666,18.398 L 122.851,18.69 C 122.876,18.725 122.904,18.752 122.936,18.771 C 122.969,18.79 123.01,18.799 123.06,18.799 C 123.11,18.799 123.157,18.786 123.201,18.759 C 123.246,18.732 123.297,18.703 123.355,18.672 C 123.414,18.641 123.484,18.612 123.563,18.585 C 123.642,18.558 123.742,18.545 123.863,18.545 C 123.958,18.545 124.04,18.556 124.108,18.577 C 124.176,18.599 124.233,18.627 124.277,18.662 C 124.322,18.697 124.355,18.738 124.376,18.784 C 124.396,18.831 124.407,18.879 124.407,18.928 C 124.407,19.003 124.383,19.064 124.336,19.111 C 124.289,19.159 124.227,19.2 124.15,19.235 C 124.074,19.271 123.986,19.303 123.887,19.331 C 123.789,19.359 123.687,19.389 123.584,19.422 C 123.481,19.455 123.381,19.494 123.282,19.538 C 123.184,19.583 123.097,19.639 123.019,19.707 C 122.942,19.776 122.88,19.859 122.833,19.958 C 122.787,20.057 122.764,20.177 122.764,20.318 C 122.764,20.448 122.791,20.572 122.844,20.69 C 122.899,20.807 122.979,20.91 123.084,20.998 C 123.19,21.086 123.321,21.156 123.478,21.209 C 123.635,21.262 123.817,21.288 124.023,21.288 C 124.252,21.288 124.461,21.252 124.649,21.179 C 124.839,21.107 124.996,21.012 125.121,20.894 L 124.939,20.618 Z" marker-start="none" marker-end="none"/>
    <path d="M 128.153,20.566 C 128.128,20.537 128.105,20.514 128.082,20.497 C 128.059,20.481 128.026,20.473 127.983,20.473 C 127.942,20.473 127.901,20.485 127.862,20.508 C 127.823,20.532 127.777,20.559 127.722,20.589 C 127.668,20.619 127.604,20.646 127.529,20.669 C 127.454,20.694 127.362,20.706 127.251,20.706 C 127.11,20.706 126.987,20.681 126.881,20.632 C 126.775,20.583 126.686,20.514 126.615,20.423 C 126.545,20.333 126.492,20.223 126.457,20.094 C 126.423,19.964 126.405,19.818 126.405,19.655 C 126.405,19.485 126.424,19.334 126.462,19.202 C 126.5,19.07 126.555,18.958 126.627,18.868 C 126.698,18.778 126.785,18.71 126.886,18.663 C 126.989,18.618 127.104,18.595 127.231,18.595 C 127.359,18.595 127.462,18.61 127.541,18.639 C 127.621,18.669 127.688,18.701 127.742,18.737 C 127.796,18.774 127.843,18.807 127.883,18.837 C 127.923,18.867 127.969,18.883 128.019,18.883 C 128.083,18.883 128.132,18.859 128.165,18.811 L 128.395,18.533 C 128.307,18.433 128.21,18.35 128.106,18.283 C 128.002,18.215 127.895,18.162 127.783,18.121 C 127.671,18.081 127.556,18.053 127.437,18.036 C 127.319,18.02 127.202,18.011 127.085,18.011 C 126.879,18.011 126.685,18.048 126.503,18.121 C 126.321,18.195 126.162,18.302 126.026,18.441 C 125.889,18.582 125.781,18.754 125.701,18.958 C 125.622,19.162 125.582,19.394 125.582,19.655 C 125.582,19.888 125.618,20.104 125.688,20.303 C 125.759,20.503 125.862,20.676 125.999,20.821 C 126.135,20.967 126.304,21.081 126.505,21.163 C 126.708,21.247 126.94,21.288 127.203,21.288 C 127.452,21.288 127.67,21.25 127.858,21.173 C 128.045,21.096 128.213,20.987 128.363,20.844 L 128.153,20.566 Z" marker-start="none" marker-end="none"/>
    <path d="M 129.7,20.897 C 129.83,21.012 129.973,21.107 130.129,21.179 C 130.285,21.252 130.468,21.288 130.679,21.288 C 130.861,21.288 131.022,21.259 131.163,21.199 C 131.304,21.14 131.422,21.057 131.516,20.951 C 131.61,20.845 131.682,20.718 131.731,20.57 C 131.78,20.423 131.804,20.26 131.804,20.083 L 131.804,18.058 L 131.001,18.058 L 131.001,20.083 C 131.001,20.277 130.954,20.426 130.861,20.532 C 130.768,20.639 130.626,20.692 130.435,20.692 C 130.296,20.692 130.165,20.662 130.044,20.602 C 129.923,20.543 129.808,20.462 129.7,20.359 L 129.7,18.058 L 128.897,18.058 L 128.897,22.665 L 129.7,22.665 L 129.7,20.897 Z" marker-start="none" marker-end="none"/>
    <path d="M 132.448,18.479 C 132.448,18.544 132.461,18.605 132.485,18.662 C 132.511,18.72 132.545,18.77 132.588,18.811 C 132.631,18.853 132.683,18.885 132.743,18.91 C 132.805,18.935 132.87,18.947 132.94,18.947 C 133.009,18.947 133.074,18.935 133.133,18.91 C 133.192,18.885 133.244,18.853 133.288,18.811 C 133.333,18.77 133.369,18.72 133.394,18.662 C 133.42,18.605 133.434,18.544 133.434,18.479 C 133.434,18.414 133.42,18.352 133.394,18.295 C 133.369,18.238 133.333,18.189 133.288,18.148 C 133.244,18.107 133.192,18.075 133.133,18.051 C 133.074,18.027 133.009,18.015 132.94,18.015 C 132.87,18.015 132.805,18.027 132.743,18.051 C 132.683,18.075 132.631,18.107 132.588,18.148 C 132.545,18.189 132.511,18.238 132.485,18.295 C 132.461,18.352 132.448,18.414 132.448,18.479 Z" marker-start="none" marker-end="none"/>
    <path d="M 136.501,20.566 C 136.476,20.537 136.453,20.514 136.43,20.497 C 136.407,20.481 136.374,20.473 136.331,20.473 C 136.29,20.473 136.249,20.485 136.21,20.508 C 136.171,20.532 136.125,20.559 136.07,20.589 C 136.016,20.619 135.952,20.646 135.877,20.669 C 135.802,20.694 135.71,20.706 135.599,20.706 C 135.458,20.706 135.335,20.681 135.229,20.632 C 135.123,20.583 135.034,20.514 134.963,20.423 C 134.893,20.333 134.84,20.223 134.805,20.094 C 134.771,19.964 134.753,19.818 134.753,19.655 C 134.753,19.485 134.772,19.334 134.81,19.202 C 134.848,19.07 134.903,18.958 134.975,18.868 C 135.046,18.778 135.133,18.71 135.234,18.663 C 135.337,18.618 135.452,18.595 135.579,18.595 C 135.707,18.595 135.81,18.61 135.889,18.639 C 135.969,18.669 136.036,18.701 136.09,18.737 C 136.144,18.774 136.191,18.807 136.231,18.837 C 136.271,18.867 136.317,18.883 136.367,18.883 C 136.431,18.883 136.48,18.859 136.513,18.811 L 136.743,18.533 C 136.655,18.433 136.558,18.35 136.454,18.283 C 136.35,18.215 136.243,18.162 136.131,18.121 C 136.019,18.081 135.904,18.053 135.785,18.036 C 135.667,18.02 135.55,18.011 135.433,18.011 C 135.227,18.011 135.033,18.048 134.851,18.121 C 134.669,18.195 134.51,18.302 134.374,18.441 C 134.237,18.582 134.129,18.754 134.049,18.958 C 133.97,19.162 133.93,19.394 133.93,19.655 C 133.93,19.888 133.966,20.104 134.036,20.303 C 134.107,20.503 134.21,20.676 134.347,20.821 C 134.483,20.967 134.652,21.081 134.853,21.163 C 135.056,21.247 135.288,21.288 135.551,21.288 C 135.8,21.288 136.018,21.25 136.206,21.173 C 136.393,21.096 136.561,20.987 136.711,20.844 L 136.501,20.566 Z" marker-start="none" marker-end="none"/>
    <path d="M 138.048,20.897 C 138.178,21.012 138.321,21.107 138.477,21.179 C 138.633,21.252 138.816,21.288 139.027,21.288 C 139.209,21.288 139.37,21.259 139.511,21.199 C 139.652,21.14 139.77,21.057 139.864,20.951 C 139.958,20.845 140.03,20.718 140.079,20.57 C 140.128,20.423 140.152,20.26 140.152,20.083 L 140.152,18.058 L 139.349,18.058 L 139.349,20.083 C 139.349,20.277 139.302,20.426 139.209,20.532 C 139.116,20.639 138.974,20.692 138.783,20.692 C 138.644,20.692 138.513,20.662 138.392,20.602 C 138.271,20.543 138.156,20.462 138.048,20.359 L 138.048,18.058 L 137.245,18.058 L 137.245,22.665 L 138.048,22.665 L 138.048,20.897 Z" marker-start="none" marker-end="none"/>
   </g>
  </g>
  <rect x="-17.894" y="-71.999" width="35.789" height="143.999" transform="translate(72 54.106) rotate(90)" stroke-linejoin="miter" stroke="none" fill="#000000" stroke-width="0.25"/>
  <path d="M 12.661,47.561 L 12.661,52.97 L 8.56,52.97 L 8.56,51.945 L 11.387,51.945 L 11.387,51.662 C 11.387,49.93 10.292,48.462 8.507,48.462 C 6.526,48.462 5.183,50.018 5.183,52.581 C 5.183,54.968 6.438,56.7 8.471,56.7 C 9.903,56.7 10.893,56.099 11.582,54.826 L 12.59,55.551 C 11.706,57.089 10.398,57.814 8.56,57.814 C 5.855,57.814 3.839,55.728 3.839,52.564 C 3.839,49.311 5.801,47.348 8.4,47.348 C 9.903,47.348 10.981,48.091 11.529,49.099 L 11.547,49.099 L 11.547,47.578 L 12.661,47.578 L 12.661,47.561 Z M 18.459,57.601 L 14.605,47.561 L 15.985,47.561 L 16.921,50.247 L 21.269,50.247 L 22.224,47.561 L 23.673,47.561 L 19.837,57.601 L 18.459,57.601 L 18.459,57.601 Z M 17.77,52.634 C 18.618,54.915 18.918,55.799 19.078,56.4 L 19.096,56.4 C 19.254,55.799 19.59,54.88 20.438,52.599 L 20.916,51.237 L 17.292,51.237 L 17.77,52.634 L 17.77,52.634 Z M 33.926,47.561 L 30.674,51.733 C 32.407,52.033 33.432,53.023 33.432,54.631 C 33.432,56.505 32.141,57.601 29.595,57.601 C 28.393,57.601 26.556,57.584 25.795,57.584 L 25.795,47.561 L 27.05,47.561 L 27.05,51.592 L 29.189,51.592 L 32.318,47.561 L 33.926,47.561 L 33.926,47.561 Z M 27.067,56.488 C 27.828,56.505 28.518,56.505 29.542,56.505 C 31.664,56.505 32.105,55.586 32.105,54.596 C 32.105,53.43 31.487,52.652 29.472,52.652 C 28.818,52.652 27.81,52.652 27.067,52.687 L 27.067,56.488 L 27.067,56.488 Z M 38.576,57.601 L 34.74,47.561 L 36.119,47.561 L 37.055,50.247 L 41.404,50.247 L 42.359,47.561 L 43.808,47.561 L 39.955,57.601 L 38.576,57.601 L 38.576,57.601 Z M 37.886,52.634 C 38.718,54.915 39.036,55.799 39.195,56.4 L 39.213,56.4 C 39.371,55.799 39.707,54.88 40.556,52.599 L 41.033,51.237 L 37.392,51.237 L 37.886,52.634 L 37.886,52.634 Z M 53.726,47.561 L 53.726,52.97 L 49.624,52.97 L 49.624,51.945 L 52.454,51.945 L 52.454,51.662 C 52.454,49.93 51.357,48.462 49.571,48.462 C 47.592,48.462 46.248,50.018 46.248,52.581 C 46.248,54.968 47.504,56.7 49.536,56.7 C 50.968,56.7 51.957,56.099 52.647,54.826 L 53.655,55.551 C 52.771,57.089 51.463,57.814 49.624,57.814 C 46.937,57.814 44.922,55.728 44.922,52.564 C 44.922,49.311 46.884,47.348 49.482,47.348 C 50.986,47.348 52.064,48.091 52.612,49.099 L 52.63,49.099 L 52.63,47.578 L 53.726,47.578 L 53.726,47.561 Z M 56.979,47.561 L 63.997,47.561 L 63.997,48.638 L 58.234,48.638 L 58.234,52.193 L 63.06,52.193 L 63.06,53.201 L 58.252,53.201 L 58.252,56.542 L 63.75,56.542 L 63.75,57.601 L 56.979,57.601 L 56.979,47.561 L 56.979,47.561 Z M 68.116,47.561 L 70.679,47.561 L 70.679,51.697 L 74.781,51.697 L 74.781,47.561 L 77.344,47.561 L 77.344,57.601 L 74.781,57.601 L 74.781,53.854 L 70.679,53.854 L 70.679,57.601 L 68.116,57.601 L 68.116,47.561 L 68.116,47.561 Z M 82.328,57.601 L 78.828,47.561 L 81.621,47.561 L 82.134,49.381 L 85.546,49.381 L 86.076,47.561 L 89.046,47.561 L 85.546,57.601 L 82.328,57.601 L 82.328,57.601 Z M 83.3,53.465 C 83.46,54.031 83.69,54.88 83.814,55.481 L 83.832,55.481 C 83.955,54.88 84.184,54.031 84.344,53.465 L 84.98,51.308 L 82.682,51.308 L 83.3,53.465 L 83.3,53.465 Z M 83.265,60.571 L 80.914,60.571 L 80.914,58.362 L 83.265,58.362 L 83.265,60.571 L 83.265,60.571 Z M 86.943,60.571 L 84.591,60.571 L 84.591,58.362 L 86.943,58.362 L 86.943,60.571 L 86.943,60.571 Z M 99.794,47.561 L 97.319,51.379 C 98.557,51.909 99.281,52.899 99.281,54.401 C 99.281,57.053 96.93,57.637 94.932,57.637 C 93.767,57.637 91.998,57.601 90.531,57.601 L 90.531,47.561 L 93.093,47.561 L 93.093,50.937 L 94.633,50.937 L 96.648,47.561 L 99.794,47.561 L 99.794,47.561 Z M 93.093,55.516 C 93.625,55.516 94.19,55.534 94.809,55.534 C 96.223,55.534 96.594,55.003 96.594,54.348 C 96.594,53.677 96.223,53.023 94.862,53.023 C 94.261,53.023 93.66,53.023 93.111,53.041 L 93.111,55.516 L 93.093,55.516 Z M 102.941,47.561 L 105.556,47.561 L 105.556,55.498 L 108.279,55.498 L 108.279,57.601 L 100.219,57.601 L 100.219,55.498 L 102.941,55.498 L 102.941,47.561 L 102.941,47.561 Z M 109.075,48.568 C 110.418,47.772 112.186,47.296 113.618,47.296 C 116.428,47.296 118.019,48.727 118.019,50.549 C 118.019,54.986 111.921,53.218 111.921,54.986 C 111.921,55.356 112.221,55.799 113.424,55.799 C 114.343,55.799 115.438,55.462 116.375,54.897 L 117.259,56.948 C 116.075,57.513 114.678,57.867 113.494,57.867 C 110.807,57.867 109.287,56.505 109.287,54.738 C 109.287,50.424 115.368,52.175 115.368,50.301 C 115.368,49.841 114.979,49.381 113.707,49.381 C 112.539,49.381 111.197,49.823 110.029,50.566 L 109.075,48.568 L 109.075,48.568 Z M 126.576,51.379 C 126.275,50.23 125.462,49.629 124.384,49.629 C 123.022,49.629 122.103,50.796 122.103,52.599 C 122.103,54.543 123.11,55.569 124.331,55.569 C 125.373,55.569 126.116,55.038 126.434,53.942 L 128.909,54.508 C 128.22,56.753 126.611,57.849 124.366,57.849 C 121.927,57.849 119.417,56.134 119.417,52.546 C 119.417,49.258 121.484,47.278 124.366,47.278 C 126.682,47.278 128.414,48.48 129.033,50.796 L 126.576,51.379 L 126.576,51.379 Z M 130.73,47.561 L 133.294,47.561 L 133.294,51.697 L 137.394,51.697 L 137.394,47.561 L 139.958,47.561 L 139.958,57.601 L 137.394,57.601 L 137.394,53.854 L 133.294,53.854 L 133.294,57.601 L 130.73,57.601 L 130.73,47.561 L 130.73,47.561 Z" stroke-linejoin="miter" stroke="none" fill="#ffffff" stroke-width="0.177" fill-rule="nonzero" marker-start="none" marker-end="none"/>
 </g>
</svg>
