<?xml version="1.0" encoding="utf-8"?>
<!-- Generator: Adobe Illustrator 24.0.2, SVG Export Plug-In . SVG Version: 6.00 Build 0)  -->
<svg version="1.1" id="Ebene_1" xmlns="http://www.w3.org/2000/svg" xmlns:xlink="http://www.w3.org/1999/xlink" x="0px" y="0px"
	 viewBox="0 0 769.9 75.1" style="enable-background:new 0 0 769.9 75.1;" xml:space="preserve">
<g>
	<path d="M49.9,73.6V43H26.7v5.8h16v1.6c0,9.8-6.2,18.1-16.3,18.1c-11.2,0-18.8-8.8-18.8-23.3c0-13.5,7.1-23.3,18.6-23.3
		c8.1,0,13.7,3.4,17.6,10.6l5.7-4.1c-5-8.7-12.4-12.8-22.8-12.8C11.4,15.6,0,27.4,0,45.3c0,18.4,11.1,29.5,25.8,29.5
		c8.5,0,14.6-4.2,17.7-9.9h0.1v8.6H49.9L49.9,73.6z M82.7,16.8L60.9,73.6h7.8l5.3-15.2h24.6l5.4,15.2h8.2L90.5,16.8H82.7L82.7,16.8z
		 M78.8,44.9C83.6,32,85.3,27,86.2,23.6h0.1c0.9,3.4,2.8,8.6,7.6,21.5l2.7,7.7H76.1L78.8,44.9L78.8,44.9z M170.2,73.6L151.8,50
		c9.8-1.7,15.6-7.3,15.6-16.4c0-10.6-7.3-16.8-21.7-16.8c-6.8,0-17.2,0.1-21.5,0.1v56.7h7.1V50.8h12.1l17.7,22.8H170.2L170.2,73.6z
		 M131.4,23.1c4.3-0.1,8.2-0.1,14-0.1c12,0,14.5,5.2,14.5,10.8c0,6.6-3.5,11-14.9,11c-3.7,0-9.4,0-13.6-0.2V23.1L131.4,23.1z
		 M196.5,16.8l-21.7,56.8h7.8l5.3-15.2h24.6l5.4,15.2h8.2l-21.8-56.8H196.5L196.5,16.8z M192.6,44.9c4.7-12.9,6.5-17.9,7.4-21.3h0.1
		c0.9,3.4,2.8,8.6,7.6,21.5l2.7,7.7h-20.6L192.6,44.9L192.6,44.9z M282.2,73.6V43H259v5.8h16v1.6c0,9.8-6.2,18.1-16.3,18.1
		c-11.2,0-18.8-8.8-18.8-23.3c0-13.5,7.1-23.3,18.6-23.3c8.1,0,13.7,3.4,17.6,10.6l5.7-4.1c-5-8.7-12.4-12.8-22.8-12.8
		c-15.2,0-26.6,11.8-26.6,29.7c0,18.4,11.1,29.5,25.8,29.5c8.5,0,14.6-4.2,17.7-9.9h0.1v8.6H282.2L282.2,73.6z M300.6,73.6h39.7
		v-6.1h-32.6V47.4H335v-5.7h-27.2V22.8h31.1v-6h-38.3V73.6L300.6,73.6z M363.6,73.6h14.5V50.2h23.2v23.4h14.5V16.8h-14.5V38h-23.2
		V16.8h-14.5V73.6L363.6,73.6z M444,16.8l-19.8,56.8H440l2.9-10.3h19.3l3,10.3H482l-19.8-56.8H444L444,16.8z M449.5,40.2
		c0.9-3.2,2.2-8,2.9-11.4h0.1c0.7,3.4,2,8.2,2.9,11.4l3.6,12.2h-13L449.5,40.2L449.5,40.2z M449.3,0H436v12.5h13.3V0L449.3,0z
		 M470.1,0h-13.3v12.5h13.3V0L470.1,0z M542.8,73.6l-14-21.6c7-3,11.1-8.6,11.1-17.1c0-15-13.3-18.3-24.6-18.3
		c-6.6,0-16.6,0.2-24.9,0.2v56.8h14.5V54.5h8.7l11.4,19.1H542.8L542.8,73.6z M504.9,28.6c3,0,6.2-0.1,9.7-0.1c8,0,10.1,3,10.1,6.7
		c0,3.8-2.1,7.5-9.8,7.5c-3.4,0-6.8,0-9.9-0.1V28.6L504.9,28.6z M560.6,73.6h14.8V28.7h15.4V16.8h-45.6v11.9h15.4V73.6L560.6,73.6z
		 M595.3,67.9c7.6,4.5,17.6,7.2,25.7,7.2c15.9,0,24.9-8.1,24.9-18.4c0-25.1-34.5-15.1-34.5-25.1c0-2.1,1.7-4.6,8.5-4.6
		c5.2,0,11.4,1.9,16.7,5.1l5-11.6c-6.7-3.2-14.6-5.2-21.3-5.2c-15.2,0-23.8,7.7-23.8,17.7c0,24.4,34.4,14.5,34.4,25.1
		c0,2.6-2.2,5.2-9.4,5.2c-6.6,0-14.2-2.5-20.8-6.7L595.3,67.9L595.3,67.9z M694.3,52c-1.7,6.5-6.3,9.9-12.4,9.9
		c-7.7,0-12.9-6.6-12.9-16.8c0-11,5.7-16.8,12.6-16.8c5.9,0,10.1,3,11.9,9.2l14-3.2c-3.9-12.7-13-18.9-25.7-18.9
		c-13.8,0-28,9.7-28,30c0,18.6,11.7,29.8,28,29.8c13.1,0,22.9-6.8,26.4-19.9L694.3,52L694.3,52z M717.8,73.6h14.5V50.2h23.2v23.4
		h14.5V16.8h-14.5V38h-23.2V16.8h-14.5V73.6L717.8,73.6z"/>
</g>
</svg>
