<?xml version="1.0" standalone="no"?>
<!DOCTYPE svg PUBLIC "-//W3C//DTD SVG 1.1//EN" "http://www.w3.org/Graphics/SVG/1.1/DTD/svg11.dtd">
<!--Generator: Xara Designer (www.xara.com), SVG filter version: 6.6.0.0-->
<svg fill="none" fill-rule="evenodd" stroke="black" stroke-width="0.501" stroke-linejoin="bevel" stroke-miterlimit="10" font-family="Times New Roman" font-size="16" style="font-variant-ligatures:none" xmlns:xlink="http://www.w3.org/1999/xlink" xmlns="http://www.w3.org/2000/svg" version="1.1" overflow="visible" width="154.985pt" height="80.46pt" viewBox="146.383 -751.84 154.985 80.46">
 <defs>
  <linearGradient id="LinearGradient" gradientUnits="userSpaceOnUse" x1="0" y1="0" x2="153.514" y2="0" gradientTransform="translate(146.825 681.692)">
   <stop offset="0" stop-color="#00a9e2"/>
   <stop offset="1" stop-color="#ffffff"/>
  </linearGradient>
  <linearGradient id="LinearGradient_1" gradientUnits="userSpaceOnUse" x1="0" y1="0" x2="0" y2="25.984" gradientTransform="translate(223.582 670.053)">
   <stop offset="0" stop-color="#182a52"/>
   <stop offset="1" stop-color="#00a9e2"/>
  </linearGradient>
 </defs>
 <g id="Layer 1" transform="scale(1 -1)">
  <path d="M 147.843,751.84 L 151.782,751.84 L 151.782,744.966 C 151.782,743.257 151.708,741.92 151.708,741.92 L 151.782,741.92 C 153.082,742.997 154.791,744 157.244,744 C 159.659,744 162.149,742.812 162.149,738.39 L 162.149,725.014 L 158.21,725.014 L 158.21,737.832 C 158.21,739.913 157.429,740.656 155.981,740.656 C 154.234,740.656 152.785,739.579 151.782,738.539 L 151.782,725.014 L 147.843,725.014 L 147.843,751.84 Z" stroke="none" fill="#084f94" stroke-width="0.163" fill-rule="nonzero" stroke-linejoin="miter" marker-start="none" marker-end="none"/>
  <path d="M 174.78,736.16 C 176.824,736.16 177.047,737.014 177.047,738.278 C 177.047,739.913 176.081,741.028 174,741.028 C 171.623,741.028 170.47,739.764 170.321,736.866 C 171.623,736.458 173.406,736.16 174.78,736.16 Z M 174.075,744.111 C 179.685,744.111 180.948,740.73 180.948,738.278 C 180.948,734.749 180.205,733.262 175.858,733.262 C 174.372,733.262 171.771,733.522 170.21,733.968 L 170.21,733.671 C 170.21,729.175 171.362,727.912 174.335,727.912 C 176.415,727.912 178.199,728.358 179.796,728.878 L 180.466,725.905 C 179.796,725.571 177.233,724.679 173.777,724.679 C 167.944,724.679 166.235,727.8 166.235,734.376 C 166.235,740.768 168.018,744.111 174.075,744.111 Z" stroke="none" fill="#084f94" stroke-width="0.163" fill-rule="nonzero" stroke-linejoin="miter" marker-start="none" marker-end="none"/>
  <path d="M 188.9,743.666 L 188.9,730.81 C 188.9,728.767 189.643,728.023 191.092,728.023 C 192.838,728.023 194.287,729.101 195.29,730.104 L 195.29,743.666 L 199.267,743.666 L 199.267,725.014 L 195.774,725.014 L 195.551,726.872 L 195.476,726.872 C 193.99,725.682 192.318,724.679 189.866,724.679 C 187.414,724.679 184.924,725.869 184.924,730.29 L 184.924,743.666 L 188.9,743.666 Z" stroke="none" fill="#084f94" stroke-width="0.163" fill-rule="nonzero" stroke-linejoin="miter" marker-start="none" marker-end="none"/>
  <path d="M 215.094,734.898 C 215.094,739.95 214.054,740.657 212.456,740.657 C 210.746,740.657 209.298,739.579 208.294,738.539 L 208.294,728.469 C 209.037,728.209 210.003,728.024 211.341,728.024 C 213.831,728.024 215.094,729.027 215.094,734.898 Z M 208.294,751.84 L 208.294,745.115 C 208.294,743.332 208.22,742.106 208.22,741.92 L 208.294,741.92 C 209.558,742.998 211.379,744.001 213.459,744.001 C 216.951,744.001 219.032,742.255 219.032,735.417 C 219.032,727.169 216.766,724.679 211.564,724.679 C 209.781,724.679 206.622,725.126 204.356,726.018 L 204.356,751.84 L 208.294,751.84 Z" stroke="none" fill="#084f94" stroke-width="0.163" fill-rule="nonzero" stroke-linejoin="miter" marker-start="none" marker-end="none"/>
  <path d="M 230.81,736.16 C 232.853,736.16 233.076,737.014 233.076,738.278 C 233.076,739.913 232.111,741.028 230.03,741.028 C 227.652,741.028 226.5,739.764 226.351,736.866 C 227.652,736.458 229.435,736.16 230.81,736.16 Z M 230.104,744.111 C 235.715,744.111 236.977,740.73 236.977,738.278 C 236.977,734.749 236.234,733.262 231.887,733.262 C 230.401,733.262 227.8,733.522 226.24,733.968 L 226.24,733.671 C 226.24,729.175 227.391,727.912 230.364,727.912 C 232.445,727.912 234.228,728.358 235.826,728.878 L 236.495,725.905 C 235.826,725.571 233.263,724.679 229.807,724.679 C 223.973,724.679 222.264,727.8 222.264,734.376 C 222.264,740.768 224.048,744.111 230.104,744.111 Z" stroke="none" fill="#084f94" stroke-width="0.163" fill-rule="nonzero" stroke-linejoin="miter" marker-start="none" marker-end="none"/>
  <path d="M 241.065,743.666 L 244.521,743.666 L 244.743,741.808 L 244.855,741.808 C 245.969,742.997 247.641,743.926 249.759,743.926 C 250.465,743.926 251.135,743.852 251.506,743.703 L 250.912,740.062 C 250.353,740.173 249.759,740.285 249.091,740.285 C 247.27,740.285 245.746,739.282 245.004,738.279 L 245.004,725.014 L 241.065,725.014 L 241.065,743.666 Z" stroke="none" fill="#084f94" stroke-width="0.163" fill-rule="nonzero" stroke-linejoin="miter" marker-start="none" marker-end="none"/>
  <path d="M 259.902,728.358 C 261.648,728.358 263.06,729.287 264.026,730.327 L 264.026,740.21 C 263.209,740.433 262.503,740.656 260.98,740.656 C 258.528,740.656 257.227,739.653 257.227,733.857 C 257.227,729.063 258.23,728.358 259.902,728.358 Z M 257.078,719.477 C 258.713,719.775 259.865,719.923 261.499,720.406 C 263.209,720.926 264.174,721.744 264.174,724.456 L 264.174,727.057 L 264.1,727.057 C 263.097,726.24 261.314,725.014 258.861,725.014 C 255.332,725.014 253.251,726.76 253.251,733.262 C 253.251,741.883 255.852,744 260.756,744 C 262.54,744 265.698,743.517 267.965,742.663 L 267.965,724.419 C 267.965,719.403 265.587,717.917 262.8,717.248 C 261.24,716.877 259.493,716.616 257.636,716.356 L 257.078,719.477 Z" stroke="none" fill="#084f94" stroke-width="0.163" fill-rule="nonzero" stroke-linejoin="miter" marker-start="none" marker-end="none"/>
  <path d="M 280.672,736.16 C 282.716,736.16 282.938,737.014 282.938,738.278 C 282.938,739.913 281.972,741.028 279.892,741.028 C 277.514,741.028 276.362,739.764 276.213,736.866 C 277.514,736.458 279.297,736.16 280.672,736.16 Z M 279.966,744.111 C 285.576,744.111 286.84,740.73 286.84,738.278 C 286.84,734.749 286.097,733.262 281.749,733.262 C 280.263,733.262 277.662,733.522 276.102,733.968 L 276.102,733.671 C 276.102,729.175 277.254,727.912 280.226,727.912 C 282.307,727.912 284.091,728.358 285.688,728.878 L 286.356,725.905 C 285.688,725.571 283.124,724.679 279.669,724.679 C 273.835,724.679 272.126,727.8 272.126,734.376 C 272.126,740.768 273.909,744.111 279.966,744.111 Z" stroke="none" fill="#084f94" stroke-width="0.163" fill-rule="nonzero" stroke-linejoin="miter" marker-start="none" marker-end="none"/>
  <path d="M 290.927,743.666 L 294.382,743.666 L 294.605,741.808 L 294.717,741.808 C 295.831,742.997 297.503,743.926 299.621,743.926 C 300.327,743.926 300.997,743.852 301.368,743.703 L 300.773,740.062 C 300.215,740.173 299.621,740.285 298.952,740.285 C 297.132,740.285 295.608,739.282 294.866,738.279 L 294.866,725.014 L 290.927,725.014 L 290.927,743.666 Z" stroke="none" fill="#084f94" stroke-width="0.163" fill-rule="nonzero" stroke-linejoin="miter" marker-start="none" marker-end="none"/>
  <path d="M 153.309,704.776 C 151.494,704.752 150.968,704.68 150.299,704.56 C 148.938,704.346 148.269,703.677 148.269,702.196 C 148.269,700.715 148.938,700.285 149.965,700.285 C 151.518,700.285 152.544,701.145 153.309,701.933 L 153.309,704.776 Z M 153.548,698.876 C 153.548,698.971 153.429,700.19 153.429,700.19 L 153.38,700.19 C 152.33,699.306 151.135,698.662 149.559,698.662 C 147.147,698.662 146.383,700.19 146.383,702.028 L 146.383,702.268 C 146.383,705.157 148.078,705.946 150.61,706.185 C 151.255,706.232 151.971,706.28 153.309,706.304 L 153.309,706.734 C 153.309,708.883 152.855,709.361 151.183,709.361 C 149.965,709.361 148.317,709.026 147.242,708.644 L 146.836,710.197 C 147.648,710.484 149.607,711.033 151.398,711.033 C 153.715,711.033 155.195,710.316 155.195,706.758 L 155.195,698.876 L 153.548,698.876 Z" stroke="none" fill="#00a8e1" stroke-width="0.163" fill-rule="nonzero" stroke-linejoin="miter" marker-start="none" marker-end="none"/>
  <path d="M 160.57,710.818 L 160.57,702.458 C 160.57,700.858 161.239,700.333 162.29,700.333 C 163.651,700.333 164.75,701.169 165.515,701.981 L 165.515,710.818 L 167.473,710.818 L 167.473,698.876 L 165.753,698.876 C 165.753,698.971 165.658,700.19 165.658,700.19 L 165.586,700.19 C 164.535,699.306 163.364,698.661 161.86,698.661 C 160.403,698.661 158.636,699.306 158.636,702.292 L 158.636,710.818 L 160.57,710.818 Z" stroke="none" fill="#00a8e1" stroke-width="0.163" fill-rule="nonzero" stroke-linejoin="miter" marker-start="none" marker-end="none"/>
  <path d="M 174.4,700.548 C 175.761,700.548 176.812,701.289 177.6,702.101 L 177.6,709.003 C 176.955,709.194 176.405,709.361 175.212,709.361 C 173.373,709.361 172.369,708.597 172.369,704.489 C 172.369,701.05 173.158,700.548 174.4,700.548 Z M 172.991,694.935 C 173.898,695.079 174.663,695.174 175.785,695.508 C 176.932,695.867 177.671,696.416 177.671,698.398 C 177.671,698.494 177.696,700.31 177.696,700.31 L 177.648,700.31 C 176.932,699.712 175.689,698.876 174.089,698.876 C 171.796,698.876 170.435,699.951 170.435,704.154 C 170.435,709.791 172.131,711.033 175.188,711.033 C 176.072,711.033 178.078,710.795 179.535,710.245 L 179.535,698.398 C 179.535,695.174 178.054,694.338 176.478,693.908 C 175.403,693.622 174.495,693.502 173.277,693.312 L 172.991,694.935 Z" stroke="none" fill="#00a8e1" stroke-width="0.163" fill-rule="nonzero" stroke-linejoin="miter" marker-start="none" marker-end="none"/>
  <path d="M 187.991,705.898 C 189.567,705.898 189.734,706.494 189.734,707.45 C 189.734,708.668 188.946,709.528 187.369,709.528 C 185.459,709.528 184.647,708.477 184.527,706.423 C 185.459,706.16 186.844,705.898 187.991,705.898 Z M 187.369,711.104 C 190.642,711.104 191.692,709.242 191.692,707.498 C 191.692,705.372 191.215,704.321 188.516,704.321 C 187.322,704.321 185.435,704.56 184.432,704.847 L 184.432,704.584 C 184.432,701.144 185.387,700.332 187.465,700.332 C 188.946,700.332 190.14,700.667 190.999,700.954 L 191.358,699.401 C 191.024,699.234 189.471,698.661 187.203,698.661 C 183.692,698.661 182.497,700.548 182.497,704.871 C 182.497,709.193 183.811,711.104 187.369,711.104 Z" stroke="none" fill="#00a8e1" stroke-width="0.163" fill-rule="nonzero" stroke-linejoin="miter" marker-start="none" marker-end="none"/>
  <path d="M 194.607,710.818 L 196.303,710.818 C 196.303,710.722 196.422,709.529 196.422,709.529 L 196.517,709.529 C 197.521,710.388 198.739,711.033 200.219,711.033 C 201.676,711.033 203.444,710.388 203.444,707.403 L 203.444,698.876 L 201.485,698.876 L 201.485,707.235 C 201.485,708.859 200.84,709.361 199.79,709.361 C 198.428,709.361 197.33,708.525 196.541,707.737 L 196.541,698.876 L 194.607,698.876 L 194.607,710.818 Z" stroke="none" fill="#00a8e1" stroke-width="0.163" fill-rule="nonzero" stroke-linejoin="miter" marker-start="none" marker-end="none"/>
  <path d="M 206.979,716.12 L 208.938,716.12 L 208.938,706.352 C 209.152,706.352 210.06,706.28 210.347,706.185 L 214.001,710.818 L 216.365,710.818 L 212.042,705.492 C 212.592,705.086 213.237,704.393 213.834,703.437 L 216.843,698.876 L 214.622,698.876 L 212.162,702.554 C 211.039,704.25 210.61,704.656 208.938,704.68 L 208.938,698.876 L 206.979,698.876 L 206.979,716.12 Z" stroke="none" fill="#00a8e1" stroke-width="0.163" fill-rule="nonzero" stroke-linejoin="miter" marker-start="none" marker-end="none"/>
  <path d="M 222.504,698.852 C 222.169,698.757 221.501,698.661 220.736,698.661 C 219.47,698.661 218.491,699.139 218.491,701.455 L 218.491,716.119 L 220.426,716.119 L 220.426,701.599 C 220.426,700.429 220.784,700.332 221.333,700.332 C 221.763,700.332 222.265,700.429 222.288,700.429 L 222.504,698.852 Z" stroke="none" fill="#00a8e1" stroke-width="0.163" fill-rule="nonzero" stroke-linejoin="miter" marker-start="none" marker-end="none"/>
  <path d="M 224.845,710.818 L 226.779,710.818 L 226.779,698.876 L 224.845,698.876 L 224.845,710.818 Z M 224.702,715.451 L 226.923,715.451 L 226.923,713.159 L 224.702,713.159 L 224.702,715.451 Z" stroke="none" fill="#00a8e1" stroke-width="0.163" fill-rule="nonzero" stroke-linejoin="miter" marker-start="none" marker-end="none"/>
  <path d="M 230.458,710.818 L 232.153,710.818 C 232.153,710.722 232.273,709.529 232.273,709.529 L 232.369,709.529 C 233.372,710.388 234.59,711.033 236.07,711.033 C 237.527,711.033 239.295,710.388 239.295,707.403 L 239.295,698.876 L 237.336,698.876 L 237.336,707.235 C 237.336,708.859 236.692,709.361 235.641,709.361 C 234.28,709.361 233.181,708.525 232.393,707.737 L 232.393,698.876 L 230.458,698.876 L 230.458,710.818 Z" stroke="none" fill="#00a8e1" stroke-width="0.163" fill-rule="nonzero" stroke-linejoin="miter" marker-start="none" marker-end="none"/>
  <path d="M 242.925,710.818 L 244.86,710.818 L 244.86,698.876 L 242.925,698.876 L 242.925,710.818 Z M 242.783,715.451 L 245.004,715.451 L 245.004,713.159 L 242.783,713.159 L 242.783,715.451 Z" stroke="none" fill="#00a8e1" stroke-width="0.163" fill-rule="nonzero" stroke-linejoin="miter" marker-start="none" marker-end="none"/>
  <path d="M 248.515,716.12 L 250.473,716.12 L 250.473,706.352 C 250.688,706.352 251.595,706.28 251.882,706.185 L 255.536,710.818 L 257.901,710.818 L 253.578,705.492 C 254.127,705.086 254.772,704.393 255.369,703.437 L 258.379,698.876 L 256.158,698.876 L 253.698,702.554 C 252.575,704.25 252.145,704.656 250.473,704.68 L 250.473,698.876 L 248.515,698.876 L 248.515,716.12 Z" stroke="none" fill="#00a8e1" stroke-width="0.163" fill-rule="nonzero" stroke-linejoin="miter" marker-start="none" marker-end="none"/>
  <path d="M 198.064,671.459 L 201.257,671.658 L 204.39,671.969 L 207.467,672.384 L 210.489,672.893 L 213.458,673.489 L 216.379,674.163 L 219.252,674.906 L 222.082,675.71 L 224.868,676.567 L 228.979,677.928 L 234.33,679.854 L 242.142,682.836 L 249.72,685.705 L 254.695,687.454 L 258.396,688.62 L 260.853,689.322 L 263.307,689.947 L 265.758,690.491 L 268.209,690.942 L 270.662,691.293 L 273.121,691.536 L 275.587,691.662 L 276.824,691.673 L 278.141,691.664 L 280.678,691.56 L 283.093,691.366 L 285.379,691.097 L 287.529,690.765 L 289.538,690.385 L 291.398,689.971 L 293.102,689.535 L 295.372,688.872 L 297.766,688.043 L 300.047,687.103 L 300.339,686.956 L 300.042,687.172 L 297.683,688.549 L 295.851,689.45 L 294.404,690.088 L 292.77,690.737 L 290.952,691.374 L 288.955,691.982 L 286.785,692.539 L 284.444,693.025 L 281.939,693.42 L 279.273,693.704 L 276.452,693.855 L 274.978,693.869 L 273.742,693.86 L 271.279,693.755 L 268.825,693.552 L 266.378,693.258 L 263.935,692.879 L 261.495,692.423 L 259.054,691.895 L 256.611,691.305 L 252.938,690.319 L 248.011,688.836 L 240.529,686.387 L 232.853,683.812 L 227.614,682.128 L 222.253,680.531 L 218.135,679.428 L 215.344,678.746 L 212.513,678.116 L 209.638,677.545 L 206.717,677.041 L 203.75,676.61 L 200.731,676.259 L 197.66,675.994 L 194.535,675.822 L 191.353,675.751 L 189.737,675.76 L 188.547,675.778 L 186.215,675.858 L 183.942,675.99 L 181.729,676.167 L 178.515,676.511 L 174.456,677.11 L 170.649,677.837 L 167.101,678.668 L 163.817,679.572 L 160.803,680.527 L 158.066,681.504 L 155.612,682.477 L 153.445,683.419 L 151.574,684.303 L 149.295,685.481 L 147.393,686.588 L 146.977,686.856 L 146.856,686.92 L 146.825,686.935 L 146.944,686.827 L 148.347,685.679 L 150.347,684.23 L 152.075,683.083 L 154.138,681.823 L 156.534,680.486 L 159.257,679.112 L 162.305,677.739 L 165.675,676.406 L 168.42,675.459 L 170.342,674.858 L 172.343,674.289 L 174.421,673.756 L 176.577,673.264 L 178.81,672.818 L 181.119,672.423 L 183.506,672.083 L 185.967,671.804 L 188.503,671.589 L 189.803,671.511 L 191.491,671.429 L 194.81,671.38 Z" stroke="none" stroke-width="0.163" fill-rule="nonzero" stroke-linejoin="miter" marker-start="none" marker-end="none" fill="url(#LinearGradient)"/>
  <path d="M 194.535,675.822 L 197.66,675.994 L 200.731,676.259 L 203.75,676.61 L 206.717,677.041 L 209.638,677.545 L 212.513,678.116 L 215.344,678.746 L 218.135,679.428 L 222.253,680.531 L 227.614,682.128 L 232.853,683.812 L 240.529,686.387 L 248.011,688.836 L 252.938,690.319 L 256.611,691.305 L 259.054,691.895 L 261.495,692.423 L 263.935,692.879 L 266.378,693.258 L 268.825,693.552 L 271.279,693.755 L 273.742,693.86 L 274.978,693.869 L 276.452,693.855 L 279.273,693.704 L 281.939,693.42 L 284.444,693.025 L 286.785,692.539 L 288.955,691.982 L 290.952,691.374 L 292.77,690.737 L 294.404,690.088 L 295.851,689.45 L 297.683,688.549 L 300.042,687.172 L 300.339,686.956 L 300.267,687.026 L 299.401,687.771 L 298.159,688.703 L 297.08,689.434 L 295.787,690.232 L 294.279,691.071 L 292.558,691.922 L 290.623,692.76 L 288.476,693.559 L 286.116,694.29 L 283.544,694.929 L 280.76,695.447 L 277.766,695.82 L 275.374,695.981 L 273.719,696.033 L 272.87,696.037 L 271.583,696.03 L 269.035,695.948 L 266.515,695.788 L 264.019,695.557 L 261.546,695.258 L 259.09,694.897 L 256.649,694.479 L 254.221,694.008 L 250.593,693.221 L 245.77,692.028 L 238.513,690.038 L 231.137,687.904 L 226.122,686.482 L 220.993,685.103 L 215.727,683.808 L 211.666,682.92 L 208.907,682.372 L 206.097,681.868 L 203.237,681.413 L 200.321,681.011 L 197.346,680.668 L 194.311,680.388 L 191.21,680.177 L 189.631,680.103 L 188.393,680.053 L 185.967,679.998 L 182.436,680 L 177.961,680.163 L 173.747,680.478 L 169.805,680.92 L 166.143,681.462 L 162.769,682.082 L 159.693,682.752 L 156.923,683.448 L 154.469,684.145 L 152.338,684.818 L 150.541,685.442 L 148.444,686.243 L 146.953,686.893 L 146.825,686.956 L 146.853,686.937 L 146.977,686.856 L 147.393,686.588 L 149.295,685.481 L 151.574,684.303 L 153.445,683.419 L 155.612,682.477 L 158.066,681.504 L 160.803,680.527 L 163.817,679.572 L 167.101,678.668 L 170.649,677.837 L 174.456,677.11 L 178.515,676.511 L 181.729,676.167 L 183.942,675.99 L 186.215,675.858 L 188.547,675.778 L 189.737,675.76 L 191.353,675.751 Z" stroke="none" stroke-width="0.163" fill-rule="nonzero" stroke-linejoin="miter" marker-start="none" marker-end="none" fill="url(#LinearGradient_1)"/>
 </g>
 <g id="Sponsoren" transform="scale(1 -1)"/>
 <g id="Content" transform="scale(1 -1)"/>
 <g id="Logo Vektor" transform="scale(1 -1)"/>
</svg>
