<?xml version="1.0" standalone="no"?>
<!DOCTYPE svg PUBLIC "-//W3C//DTD SVG 1.1//EN" "http://www.w3.org/Graphics/SVG/1.1/DTD/svg11.dtd">
<!--Generator: Xara Designer (www.xara.com), SVG filter version: 6.6.0.0-->
<svg fill="none" fill-rule="evenodd" stroke="black" stroke-width="0.501" stroke-linejoin="bevel" stroke-miterlimit="10" font-family="Times New Roman" font-size="16" style="font-variant-ligatures:none" xmlns:xlink="http://www.w3.org/1999/xlink" xmlns="http://www.w3.org/2000/svg" version="1.1" overflow="visible" width="61.229pt" height="15.886pt" viewBox="47.25 -231.886 61.229 15.886">
 <defs>
	</defs>
 <g id="Layer 1" transform="scale(1 -1)"/>
 <g id="Sponsoren" transform="scale(1 -1)"/>
 <g id="Content" transform="scale(1 -1)">
  <g id="Group" fill-rule="nonzero" stroke-linejoin="miter" stroke="none" stroke-width="0.021">
   <path d="M 102.119,225.108 C 102.119,225.92 102.777,226.578 103.59,226.578 C 104.402,226.578 105.061,225.92 105.061,225.108 C 105.061,224.295 104.402,223.637 103.59,223.637 C 102.777,223.637 102.119,224.295 102.119,225.108 Z" fill="#ddc461" marker-start="none" marker-end="none"/>
   <path d="M 104.92,227.757 C 104.92,228.74 105.717,229.537 106.7,229.537 C 107.683,229.537 108.479,228.74 108.479,227.757 C 108.479,226.775 107.683,225.978 106.7,225.978 C 105.717,225.978 104.92,226.775 104.92,227.757 Z" fill="#1e2026" marker-start="none" marker-end="none"/>
   <path d="M 100.065,229.799 C 100.065,230.951 100.999,231.886 102.152,231.886 C 103.305,231.886 104.241,230.951 104.241,229.799 C 104.241,228.645 103.305,227.712 102.152,227.712 C 100.999,227.712 100.065,228.645 100.065,229.799 Z" fill="#c4151c" marker-start="none" marker-end="none"/>
   <path d="M 52.294,219.024 L 54.67,219.024 L 54.67,224.33 C 54.67,225.703 53.899,226.659 52.202,226.659 C 50.952,226.659 50.073,226.089 49.626,225.564 L 49.626,229.313 L 47.25,229.313 L 47.25,219.024 L 49.626,219.024 L 49.626,223.836 C 49.904,224.176 50.366,224.562 51.06,224.562 C 51.816,224.562 52.294,224.269 52.294,223.358 L 52.294,219.024 Z M 59.309,218.839 C 61.869,218.839 63.381,220.659 63.381,222.757 C 63.381,224.855 61.869,226.659 59.309,226.659 C 56.779,226.659 55.252,224.855 55.252,222.757 C 55.252,220.659 56.779,218.839 59.309,218.839 Z M 59.309,220.937 C 58.275,220.937 57.704,221.754 57.704,222.757 C 57.704,223.744 58.275,224.562 59.309,224.562 C 60.357,224.562 60.944,223.744 60.944,222.757 C 60.944,221.754 60.357,220.937 59.309,220.937 Z M 64.021,219.024 L 66.396,219.024 L 66.396,223.744 C 66.705,224.176 67.522,224.438 68.139,224.438 C 68.386,224.438 68.587,224.407 68.726,224.361 L 68.726,226.659 C 67.831,226.659 66.89,226.135 66.396,225.534 L 66.396,226.474 L 64.021,226.474 L 64.021,219.024 Z M 70.026,218.237 L 69.687,216.123 C 69.933,216.046 70.489,216 70.705,216 C 72.124,216.031 73.25,216.385 73.852,217.959 L 77.214,226.474 L 74.7,226.474 L 73.003,221.754 L 71.322,226.474 L 68.823,226.474 L 71.784,218.915 L 71.615,218.514 C 71.491,218.206 71.152,218.098 70.613,218.098 C 70.427,218.098 70.195,218.144 70.026,218.237 Z M 77.541,219.024 L 83.82,219.024 L 83.82,221.075 L 80.704,221.075 L 83.758,224.793 L 83.758,226.474 L 77.541,226.474 L 77.541,224.407 L 80.534,224.407 L 77.541,220.767 L 77.541,219.024 Z M 88.364,218.839 C 90.925,218.839 92.436,220.659 92.436,222.757 C 92.436,224.855 90.925,226.659 88.364,226.659 C 85.834,226.659 84.306,224.855 84.306,222.757 C 84.306,220.659 85.834,218.839 88.364,218.839 Z M 88.364,220.937 C 87.33,220.937 86.76,221.754 86.76,222.757 C 86.76,223.744 87.33,224.562 88.364,224.562 C 89.413,224.562 89.999,223.744 89.999,222.757 C 89.999,221.754 89.413,220.937 88.364,220.937 Z M 98.07,219.024 L 100.445,219.024 L 100.445,224.3 C 100.445,225.672 99.674,226.659 97.977,226.659 C 96.728,226.659 95.849,226.089 95.401,225.564 L 95.401,226.474 L 93.025,226.474 L 93.025,219.024 L 95.401,219.024 L 95.401,223.836 C 95.679,224.176 96.141,224.562 96.852,224.562 C 97.592,224.562 98.07,224.238 98.07,223.327 L 98.07,219.024 Z" fill="#1e2026" marker-start="none" marker-end="none"/>
  </g>
 </g>
 <g id="Logo Vektor" transform="scale(1 -1)"/>
</svg>
