<?xml version="1.0" encoding="UTF-8"?>
<svg width="78px" height="63px" viewBox="0 0 78 63" version="1.1" xmlns="http://www.w3.org/2000/svg" xmlns:xlink="http://www.w3.org/1999/xlink">
    <title>Logo/mit-weiss</title>
    <g id="Logo/mit-weiss" stroke="none" stroke-width="1" fill="none" fill-rule="evenodd">
        <g id="Group-4" transform="translate(0.000000, -0.000000)" fill="#FFFFFE">
            <path d="M64.97,24.644 C64.97,38.254 53.357,49.288 39.031,49.288 C24.705,49.288 13.091,38.254 13.091,24.644 C13.091,11.033 24.705,0 39.031,0 C53.357,0 64.97,11.033 64.97,24.644" id="Fill-1"></path>
            <path d="M77.776,58.922 C77.776,61.262 75.861,63.177 73.521,63.177 L4.254,63.177 C1.915,63.177 0,61.262 0,58.922 L0,27.795 C0,25.455 1.915,23.54 4.254,23.54 L73.521,23.54 C75.861,23.54 77.776,25.455 77.776,27.795 L77.776,58.922" id="Fill-3"></path>
        </g>
        <polyline id="Fill-5" fill="#161267" points="5.502 58.811 4.447 58.811 4.447 52.019 9.719 52.019 9.719 52.943 5.502 52.943 5.502 54.878 9.522 54.878 9.522 55.802 5.502 55.802 5.502 58.811"></polyline>
        <path d="M14.583,55.925 L17.056,55.925 L15.806,53.042 L14.583,55.925 Z M19.509,58.811 L18.307,58.811 L18.3,58.794 L17.448,56.849 L14.182,56.849 L13.324,58.811 L12.187,58.811 L12.205,58.772 L15.26,52.019 L16.437,52.019 L16.444,52.036 L19.509,58.811 L19.509,58.811 Z" id="Fill-6" fill="#161267"></path>
        <polyline id="Fill-7" fill="#161267" points="31.504 58.811 30.449 58.811 30.449 53.282 27.852 58.811 26.931 58.811 26.923 58.795 24.344 53.393 24.344 58.811 23.288 58.811 23.288 52.019 24.739 52.019 24.747 52.036 27.392 57.569 30.072 52.019 31.504 52.019 31.504 58.811"></polyline>
        <polygon id="Fill-8" fill="#161267" points="36.148 58.811 37.204 58.811 37.204 52.019 36.148 52.019"></polygon>
        <polyline id="Fill-9" fill="#161267" points="47.034 58.811 41.884 58.811 41.884 52.019 42.94 52.019 42.94 57.888 47.034 57.888 47.034 58.811"></polyline>
        <polygon id="Fill-10" fill="#161267" points="50.469 58.811 51.525 58.811 51.525 52.019 50.469 52.019"></polygon>
        <polyline id="Fill-11" fill="#161267" points="61.733 58.811 56.168 58.811 56.168 52.019 61.639 52.019 61.639 52.943 57.223 52.943 57.223 54.84 61.507 54.84 61.507 55.763 57.223 55.763 57.223 57.888 61.733 57.888 61.733 58.811"></polyline>
        <path d="M74.401,55.454 C74.401,57.665 72.611,59.451 70.404,59.451 C68.187,59.451 66.394,57.661 66.394,55.454 C66.394,53.234 68.187,51.445 70.404,51.443 C72.611,51.443 74.401,53.234 74.401,55.454" id="Fill-12" fill="#D6332F"></path>
        <polyline id="Fill-13" fill="#FFFFFE" points="72.792 54.678 71.163 54.678 71.163 53.048 69.621 53.048 69.621 54.678 67.993 54.678 67.993 56.232 69.621 56.232 69.621 57.85 71.163 57.85 71.163 56.232 72.792 56.232 72.792 54.678"></polyline>
        <path d="M26.732,8.631 C26.724,8.464 26.729,8.293 26.753,8.118 C26.784,7.904 26.849,7.692 26.93,7.484 C21.392,11.043 17.494,16.933 16.63,23.772 L18.193,23.772 C18.997,17.561 22.18,12.157 26.732,8.631" id="Fill-14" fill="#161267"></path>
        <path d="M39.215,4.315 C49.947,4.315 58.813,12.783 60.235,23.772 L61.798,23.772 C60.381,12.557 50.814,3.881 39.215,3.881 C36.958,3.881 34.78,4.213 32.723,4.825 C32.986,4.922 33.195,5.048 33.363,5.184 C35.222,4.619 37.185,4.315 39.215,4.315" id="Fill-15" fill="#161267"></path>
        <path d="M29.248,25.324 C29.269,25.334 29.3,25.34 29.339,25.34 C30.064,25.34 33.698,23.572 33.698,23.572 L33.656,21.993 C33.656,21.993 33.946,22.324 35.336,22.429 C35.342,22.429 35.348,22.429 35.353,22.429 C36.313,22.429 36.431,22.238 36.839,22.238 C36.923,22.238 37.017,22.246 37.133,22.265 C37.285,22.28 37.398,22.286 37.484,22.286 C37.844,22.286 37.71,22.178 37.822,22.178 C37.83,22.178 37.839,22.179 37.849,22.18 C37.967,22.181 38.409,22.22 39.012,22.22 C40.078,22.22 41.647,22.098 42.836,21.429 C43.867,20.741 43.165,20.488 38.251,20.488 C37.973,20.488 37.683,20.488 37.379,20.49 C37.218,20.491 37.066,20.491 36.924,20.491 C36.074,20.491 35.564,20.475 35.593,20.433 C35.626,20.384 35.612,20.413 36.199,20.323 C36.52,20.216 36.418,20.003 36.134,19.947 C36.016,19.923 35.915,19.915 35.821,19.915 C35.579,19.915 35.393,19.973 35.122,19.973 C35.026,19.973 34.919,19.965 34.795,19.946 C34.758,19.94 34.721,19.937 34.684,19.937 C34.136,19.937 33.757,20.576 33.685,20.644 C33.608,20.717 32.112,21.394 31.271,21.763 C31.256,20.87 31.95,18.899 32.069,18.584 C32.189,18.269 31.259,16.131 31.259,16.131 C31.259,16.131 31.715,15.854 31.81,15.79 C31.819,15.784 31.829,15.781 31.842,15.781 C31.965,15.781 32.267,16.043 32.725,16.226 C32.843,16.274 32.944,16.294 33.029,16.294 C33.31,16.294 33.427,16.081 33.48,15.941 C33.612,15.593 33.845,15.205 34.067,14.963 C34.191,14.824 34.59,14.852 34.666,14.78 C34.742,14.707 34.499,13.84 34.495,13.738 C34.492,13.635 34.776,13.369 34.823,13.259 C34.942,13.057 35.012,12.864 35.054,12.682 C35.055,12.682 35.055,12.682 35.055,12.682 C35.111,12.682 35.336,12.606 35.371,12.555 C35.493,12.327 35.398,11.269 35.039,10.715 C35.039,10.715 34.979,10.621 34.921,10.514 C34.801,10.297 34.939,9.474 35.071,9.357 C35.247,9.2 35.58,8.989 35.739,8.839 C35.901,8.688 36.07,8.546 36.158,8.265 C36.318,7.753 36.316,7.366 35.914,6.919 C35.731,6.716 35.133,6.396 34.512,6.396 C34.476,6.396 34.441,6.397 34.406,6.399 C33.526,6.452 32.999,7.251 32.923,7.378 C32.921,7.383 32.919,7.388 32.916,7.393 C32.915,7.394 32.915,7.394 32.914,7.394 C32.914,7.394 32.917,7.389 32.923,7.378 C33.299,6.643 33.201,5.665 31.647,5.587 C31.618,5.58499863 31.588,5.58499863 31.56,5.58499863 C30.781,5.584 30.444,6.13 30.403,6.36 C30.332,6.775 30.629,7.055 30.602,7.055 C30.6,7.055 30.593,7.052 30.583,7.046 C30.159,6.798 29.765,6.693 29.413,6.693 C27.631,6.693 26.92,9.385 28.793,9.925 C29.789,10.212 29.662,10.26 29.708,10.928 C29.704,10.95 29.7,10.971 29.697,10.993 C29.435,11.172 29.374,11.599 29.389,11.909 C29.399,12.1 29.49,12.554 29.764,12.724 C29.757,12.812 29.75,12.904 29.744,12.996 C29.712,13.477 29.703,13.494 29.702,13.494 C29.702,13.494 29.349,13.018 29.236,13.018 C29.225,13.018 29.216,13.023 29.21,13.033 C29.145,13.147 28.656,14.228 28.289,14.581 C27.903,14.952 27.46,14.932 26.928,15.429 C23.827,18.029 25.082,19.737 21.956,22.662 C22.558,22.386 23.093,22.284 23.578,22.284 C24.975,22.284 25.96,23.132 26.948,23.132 C27.372,23.132 27.796,22.976 28.253,22.53 C28.361,23.532 28.777,25.159 29.248,25.324" id="Fill-16" fill="#161267"></path>
        <path d="M41.068,19.625 C40.866,19.749 40.775,19.959 40.771,20.12 C40.761,20.28 40.951,20.484 40.986,20.361 C41.017,20.236 41.284,20.009 41.344,19.954 C41.408,19.892 41.491,19.854 41.55,19.836 C41.647,19.806 41.696,19.742 41.732,19.752 C41.935,19.809 42.272,19.719 42.393,19.635 C42.83,19.451 43.021,19.521 43.159,19.591 C43.3,19.655 43.623,20.107 43.623,20.107 C43.623,20.107 45.939,23.411 46.909,24.474 C47.76,25.361 48.141,24.784 48.572,24.307 C48.922,23.858 49.274,23.415 49.803,22.692 C52.04,24.272 51.835,21.108 56.142,22.507 C55.169,21.365 54.931,21.126 54.22,19.825 C53.288,17.94 53.279,17.804 52.829,17.065 C52.135,15.948 51.597,15.423 50.425,14.822 C49.729,14.468 49.573,14.021 49.502,13.802 C49.751,13.485 50.383,12.445 49.544,10.669 C49.751,10.648 50.659,10.14 50.159,9.241 C50.077,9.11 49.761,8.569 49.14,8.713 C48.704,8.845 48.524,9.209 48.461,9.289 C48.445,9.31 48.437,9.308 48.413,9.291 C48.094,9.062 48.369,9.263 48.08,9.065 C46.485,8.115 43.874,9.953 43.805,10.02 C43.74,10.084 43.677,10.153 43.627,10.229 C43.567,10.32 43.585,10.419 43.632,10.513 C43.681,10.61 43.748,10.693 43.831,10.763 C43.852,10.781 43.854,10.8 43.848,10.825 C43.831,10.902 43.816,10.981 43.795,11.058 C43.752,11.221 43.748,11.386 43.752,11.551 C43.759,11.752 43.77,11.953 43.784,12.153 C43.792,12.282 43.805,12.411 43.857,12.531 C43.888,12.603 43.927,12.672 43.967,12.74 C44.071,12.912 44.133,13.118 44.085,13.308 C44.038,13.493 44.006,13.636 43.945,13.82 C43.924,13.881 43.891,14.02 43.879,14.07 C43.845,14.2 43.912,14.246 43.994,14.256 C44.141,14.275 44.331,14.283 44.376,14.29 C44.44,14.302 44.508,14.319 44.572,14.433 L45.261,15.416 C45.397,15.605 45.594,15.842 46.062,15.674 C46.32,15.589 46.724,15.366 46.724,15.366 C47.082,15.187 47.222,15.263 47.354,15.331 C47.354,15.331 47.526,15.409 47.803,15.628 C48.028,15.805 48.256,15.964 48.375,16.164 C48.599,16.483 48.766,17.281 48.622,18.115 C48.46,18.791 48.267,19.115 48.381,20.107 C48.195,20.621 47.342,22.18 47.342,22.18 C47.342,22.18 46.692,21.645 46.329,21.264 C46.198,21.122 45.294,20.291 45.072,20.077 C44.85,19.862 43.951,19.005 43.536,18.754 C43.292,18.617 42.924,18.464 42.327,18.468 C41.963,18.473 41.068,18.452 41.002,18.458 C40.947,18.462 40.941,18.459 40.889,18.458 C40.866,18.46 40.833,18.454 40.763,18.442 C40.684,18.428 40.415,18.389 40.282,18.35 C40.139,18.306 40.212,18.594 40.341,18.643 C40.417,18.671 40.523,18.703 40.523,18.703 C40.523,18.703 40.405,18.716 40.354,18.729 C40.302,18.749 40.161,18.774 40.049,18.84 C39.872,18.92 39.528,19.127 39.488,19.147 C39.446,19.177 39.381,19.225 39.321,19.268 C39.274,19.341 39.577,19.403 39.577,19.403 C39.577,19.403 39.381,19.602 39.32,19.671 C39.377,19.865 39.6,19.782 39.653,19.749 C39.71,19.708 39.823,19.594 39.913,19.553 C40.019,19.507 40.115,19.392 40.201,19.349 C40.287,19.305 40.312,19.228 40.426,19.217 C40.324,19.265 40.186,19.518 40.168,19.594 C40.138,19.628 40.113,19.733 40.08,19.859 C40.023,19.957 40.044,20.219 40.044,20.349 C40.228,20.359 40.333,20.228 40.395,20.051 C40.454,19.966 40.506,19.727 40.506,19.727 C40.506,19.727 40.597,19.542 40.653,19.48 C40.734,19.442 40.844,19.389 40.88,19.305 C40.95,19.285 41.011,19.303 41.093,19.245 C41.157,19.199 41.216,19.213 41.216,19.213 C41.216,19.213 41.307,19.317 41.322,19.38 C41.326,19.443 41.266,19.506 41.068,19.625" id="Fill-17" fill="#161267"></path>
        <path d="M73.509,42.398 C73.509,41.343 73.575,40.28 73.596,39.671 C73.628,39.062 74.04,37.983 74.675,37.301 L64.77,37.301 C65.714,38.179 65.896,39.496 65.91,39.792 C65.923,40.078 65.932,40.783 65.932,41.197 C65.932,41.808 65.903,42.357 65.875,42.936 C65.863,43.097 65.851,43.258 65.846,43.423 C65.595,43.446 65.302,43.452 64.892,43.452 C61.936,43.452 60.177,41.395 60.177,37.962 C60.177,34.457 62.14,32.6 65.875,32.53 C67.398,32.536 68.041,32.616 69.08,32.99 C69.865,33.278 70.465,33.955 70.834,34.824 L73.467,27.4 C72.503,27.933 71.801,27.841 71.153,27.69 C69.758,27.317 67.903,27.029 65.648,27.029 C61.96,27.029 58.619,28.147 56.227,30.188 C53.736,32.304 52.364,35.319 52.364,38.675 C52.364,44.593 57.397,48.904 64.329,48.904 C67.841,48.904 70.382,48.582 73.094,47.776 L73.747,47.582 L73.687,46.857 C73.557,45.127 73.509,44.121 73.509,42.398" id="Fill-18" fill="#161267"></path>
        <path d="M26.648,29.716 C26.712,28.595 27.094,28.026 27.769,27.37 L17.052,27.37 C18.047,28.219 18.226,29.44 18.249,29.823 C18.322,31.063 18.21,33.094 18.242,34.936 L14.109,34.936 C14.109,33.005 14.109,31.599 14.095,29.685 C14.08,28.581 14.538,28.022 15.219,27.37 L4.463,27.37 C5.463,28.224 5.639,29.391 5.66,29.833 L5.66,46.128 C5.606,46.599 5.461,47.728 4.46,48.613 L15.215,48.613 C14.589,47.994 14.109,47.258 14.109,46.135 C13.987,43.953 14.109,42.587 14.109,39.652 L18.242,39.652 C18.21,42.52 18.242,45.701 18.242,46.135 C18.242,46.979 18.038,47.727 17.044,48.603 L27.77,48.603 C27.094,47.92 26.713,47.353 26.649,46.248 L26.648,29.716" id="Fill-19" fill="#161267"></path>
        <path d="M42.579,29.7 L42.577,40.864 C42.577,42.093 41.638,43.086 40.425,43.086 C39.197,43.086 38.256,42.093 38.256,40.864 L38.256,29.7 C38.322,28.581 38.708,28.019 39.515,27.36 L28.596,27.36 C29.443,28.214 29.776,29.322 29.781,29.734 C29.788,30.146 29.781,40.839 29.781,40.839 C29.781,44.517 31.744,48.904 40.425,48.904 C49.096,48.904 51.055,44.517 51.055,40.839 C51.055,40.839 51.047,30.146 51.055,29.734 C51.064,29.322 51.39,28.214 52.243,27.36 L41.319,27.36 C42.132,28.019 42.515,28.581 42.579,29.7" id="Fill-20" fill="#161267"></path>
    </g>
</svg>