<?xml version="1.0" encoding="UTF-8"?>
<svg xmlns="http://www.w3.org/2000/svg" xmlns:xlink="http://www.w3.org/1999/xlink" width="276" height="54" viewBox="0 0 276 54">
<defs>
<clipPath id="clip-0">
<path clip-rule="nonzero" d="M 260 1 L 275.679688 1 L 275.679688 31 L 260 31 Z M 260 1 "/>
</clipPath>
<clipPath id="clip-1">
<path clip-rule="nonzero" d="M 265 41 L 275.679688 41 L 275.679688 54 L 265 54 Z M 265 41 "/>
</clipPath>
<clipPath id="clip-2">
<path clip-rule="nonzero" d="M 0 0.535156 L 55 0.535156 L 55 54 L 0 54 Z M 0 0.535156 "/>
</clipPath>
</defs>
<path fill-rule="nonzero" fill="rgb(30.004883%, 30.004883%, 30.004883%)" fill-opacity="1" d="M 72.324219 30.019531 L 72.324219 1.742188 L 77.273438 1.742188 L 77.273438 30.019531 L 72.324219 30.019531 "/>
<path fill-rule="nonzero" fill="rgb(30.004883%, 30.004883%, 30.004883%)" fill-opacity="1" d="M 106.144531 30.019531 L 95.484375 13.433594 C 94.34375 11.691406 93.203125 9.625 92.386719 7.886719 L 92.332031 7.886719 C 92.441406 9.679688 92.546875 11.585938 92.546875 14.628906 L 92.546875 30.019531 L 87.765625 30.019531 L 87.765625 1.742188 L 94.289062 1.742188 L 104.785156 18.054688 C 105.980469 19.847656 107.121094 21.804688 108.101562 23.710938 L 108.15625 23.710938 C 107.992188 21.859375 107.9375 18.816406 107.9375 14.628906 L 107.882812 1.742188 L 112.722656 1.742188 L 112.722656 30.019531 L 106.144531 30.019531 "/>
<path fill-rule="nonzero" fill="rgb(30.004883%, 30.004883%, 30.004883%)" fill-opacity="1" d="M 131.800781 5.875 L 131.800781 30.019531 L 126.851562 30.019531 L 126.851562 5.875 L 118.695312 5.875 L 118.695312 1.742188 L 140.011719 1.742188 L 140.011719 5.875 L 131.800781 5.875 "/>
<path fill-rule="nonzero" fill="rgb(30.004883%, 30.004883%, 30.004883%)" fill-opacity="1" d="M 146.265625 30.019531 L 146.265625 1.742188 L 162.25 1.742188 L 162.25 5.601562 L 151.214844 5.601562 L 151.214844 13.59375 L 161.707031 13.59375 L 161.707031 17.347656 L 151.214844 17.347656 L 151.214844 26.046875 L 162.25 26.046875 L 162.25 30.019531 L 146.265625 30.019531 "/>
<path fill-rule="nonzero" fill="rgb(30.004883%, 30.004883%, 30.004883%)" fill-opacity="1" d="M 182.859375 30.453125 C 174.375 30.453125 168.339844 25.558594 168.339844 16.421875 C 168.339844 7.941406 174.160156 1.359375 183.949219 1.359375 C 186.828125 1.359375 189.65625 1.742188 192.539062 2.613281 L 191.667969 6.960938 C 189.167969 5.984375 186.558594 5.441406 183.894531 5.441406 C 178.292969 5.441406 173.5625 8.972656 173.5625 15.933594 C 173.5625 22.515625 177.585938 26.101562 183.457031 26.101562 C 185.144531 26.101562 186.828125 25.886719 188.132812 25.449219 L 188.132812 15.445312 L 193.082031 15.445312 L 193.082031 28.605469 C 189.929688 29.800781 186.613281 30.453125 182.859375 30.453125 "/>
<path fill-rule="nonzero" fill="rgb(30.004883%, 30.004883%, 30.004883%)" fill-opacity="1" d="M 210.753906 5.386719 C 209.558594 5.386719 208.742188 5.441406 207.929688 5.546875 L 207.929688 14.410156 C 208.796875 14.464844 209.886719 14.519531 210.917969 14.519531 C 214.34375 14.519531 216.574219 12.617188 216.574219 9.679688 C 216.574219 6.796875 214.34375 5.386719 210.753906 5.386719 Z M 217.226562 30.019531 L 208.144531 17.890625 L 207.929688 17.890625 L 207.929688 30.019531 L 202.980469 30.019531 L 202.980469 1.742188 C 204.828125 1.632812 208.035156 1.578125 211.40625 1.578125 C 217.988281 1.578125 221.792969 4.1875 221.792969 9.191406 C 221.792969 13.976562 218.207031 16.804688 213.3125 17.292969 C 214.019531 18.054688 214.832031 19.140625 215.757812 20.285156 L 223.425781 30.019531 L 217.226562 30.019531 "/>
<path fill-rule="nonzero" fill="rgb(30.004883%, 30.004883%, 30.004883%)" fill-opacity="1" d="M 241.859375 11.585938 C 241.261719 10.007812 240.714844 8.265625 240.28125 6.90625 L 240.226562 6.90625 C 239.902344 8.320312 239.355469 9.953125 238.757812 11.53125 L 235.277344 20.449219 L 245.285156 20.449219 Z M 248.765625 30.019531 L 246.535156 24.089844 L 233.972656 24.089844 L 231.746094 30.019531 L 226.742188 30.019531 L 237.726562 1.742188 L 243.382812 1.742188 L 254.257812 30.019531 L 248.765625 30.019531 "/>
<g clip-path="url(#clip-0)">
<path fill-rule="nonzero" fill="rgb(30.004883%, 30.004883%, 30.004883%)" fill-opacity="1" d="M 260.617188 30.019531 L 260.617188 1.742188 L 265.566406 1.742188 L 265.566406 25.777344 L 275.679688 25.777344 L 275.679688 30.019531 L 260.617188 30.019531 "/>
</g>
<path fill-rule="nonzero" fill="rgb(30.004883%, 30.004883%, 30.004883%)" fill-opacity="1" d="M 75.539062 48.3125 C 75.285156 48.3125 74.726562 48.3125 74.425781 48.335938 L 74.425781 52.214844 C 74.773438 52.261719 75.285156 52.304688 75.933594 52.304688 C 77.8125 52.304688 78.648438 51.425781 78.648438 50.195312 C 78.648438 48.753906 77.347656 48.3125 75.539062 48.3125 Z M 76.003906 43.230469 C 75.46875 43.230469 74.914062 43.230469 74.425781 43.253906 L 74.425781 46.875 C 74.867188 46.898438 75.285156 46.898438 75.445312 46.898438 C 77.28125 46.898438 78.417969 46.25 78.417969 44.902344 C 78.417969 43.953125 77.859375 43.230469 76.003906 43.230469 Z M 75.886719 53.859375 C 75.074219 53.859375 73.753906 53.839844 72.3125 53.8125 L 72.3125 41.746094 C 73.335938 41.746094 74.84375 41.699219 76.445312 41.699219 C 79.414062 41.699219 80.621094 42.859375 80.621094 44.625 C 80.621094 45.878906 79.855469 46.898438 78.53125 47.386719 L 78.53125 47.410156 C 80.089844 47.757812 80.851562 48.847656 80.851562 50.148438 C 80.851562 51.679688 79.902344 53.859375 75.886719 53.859375 "/>
<path fill-rule="nonzero" fill="rgb(30.004883%, 30.004883%, 30.004883%)" fill-opacity="1" d="M 89.042969 45.949219 C 88.785156 45.273438 88.554688 44.53125 88.371094 43.953125 L 88.347656 43.953125 C 88.207031 44.554688 87.976562 45.25 87.71875 45.925781 L 86.234375 49.730469 L 90.503906 49.730469 Z M 91.988281 53.8125 L 91.039062 51.285156 L 85.675781 51.285156 L 84.726562 53.8125 L 82.589844 53.8125 L 87.277344 41.746094 L 89.691406 41.746094 L 94.332031 53.8125 L 91.988281 53.8125 "/>
<path fill-rule="nonzero" fill="rgb(30.004883%, 30.004883%, 30.004883%)" fill-opacity="1" d="M 101.664062 54 C 98.324219 54 96.582031 52.421875 96.582031 49.636719 L 96.582031 41.746094 L 98.695312 41.746094 L 98.695312 49.265625 C 98.695312 51.332031 99.832031 52.261719 101.828125 52.261719 C 104.101562 52.261719 104.9375 50.984375 104.9375 49.058594 L 104.9375 41.746094 L 107.023438 41.746094 L 107.023438 49.21875 C 107.023438 51.796875 105.46875 54 101.664062 54 "/>
<path fill-rule="nonzero" fill="rgb(30.004883%, 30.004883%, 30.004883%)" fill-opacity="1" d="M 123.890625 53.8125 L 122.941406 47.109375 C 122.777344 45.832031 122.683594 44.878906 122.613281 44.207031 L 122.59375 44.207031 C 122.453125 44.832031 122.242188 45.574219 121.964844 46.363281 L 119.4375 53.8125 L 117.183594 53.8125 L 114.863281 46.875 C 114.5625 46.015625 114.238281 44.996094 114.097656 44.230469 L 114.074219 44.230469 C 114.027344 45.15625 113.914062 46.085938 113.773438 47.199219 L 112.914062 53.8125 L 110.804688 53.8125 L 112.636719 41.746094 L 115.257812 41.746094 L 117.742188 49.058594 C 117.996094 49.847656 118.253906 50.636719 118.390625 51.355469 L 118.414062 51.355469 C 118.578125 50.519531 118.761719 49.9375 119.039062 49.125 L 121.59375 41.746094 L 124.355469 41.746094 L 126.117188 53.8125 L 123.890625 53.8125 "/>
<path fill-rule="nonzero" fill="rgb(30.004883%, 30.004883%, 30.004883%)" fill-opacity="1" d="M 134.542969 45.949219 C 134.289062 45.273438 134.054688 44.53125 133.871094 43.953125 L 133.847656 43.953125 C 133.707031 44.554688 133.476562 45.25 133.21875 45.925781 L 131.734375 49.730469 L 136.003906 49.730469 Z M 137.488281 53.8125 L 136.539062 51.285156 L 131.179688 51.285156 L 130.226562 53.8125 L 128.09375 53.8125 L 132.777344 41.746094 L 135.191406 41.746094 L 139.835938 53.8125 L 137.488281 53.8125 "/>
<path fill-rule="nonzero" fill="rgb(30.004883%, 30.004883%, 30.004883%)" fill-opacity="1" d="M 150.394531 53.8125 L 145.84375 46.738281 C 145.355469 45.992188 144.871094 45.113281 144.523438 44.367188 L 144.5 44.367188 C 144.546875 45.136719 144.589844 45.949219 144.589844 47.246094 L 144.589844 53.8125 L 142.550781 53.8125 L 142.550781 41.746094 L 145.335938 41.746094 L 149.8125 48.707031 C 150.324219 49.476562 150.8125 50.308594 151.226562 51.121094 L 151.25 51.121094 C 151.183594 50.332031 151.160156 49.035156 151.160156 47.246094 L 151.136719 41.746094 L 153.199219 41.746094 L 153.199219 53.8125 L 150.394531 53.8125 "/>
<path fill-rule="nonzero" fill="rgb(30.004883%, 30.004883%, 30.004883%)" fill-opacity="1" d="M 162.390625 45.949219 C 162.136719 45.273438 161.902344 44.53125 161.71875 43.953125 L 161.695312 43.953125 C 161.554688 44.554688 161.324219 45.25 161.066406 45.925781 L 159.582031 49.730469 L 163.851562 49.730469 Z M 165.339844 53.8125 L 164.386719 51.285156 L 159.027344 51.285156 L 158.074219 53.8125 L 155.941406 53.8125 L 160.628906 41.746094 L 163.039062 41.746094 L 167.683594 53.8125 L 165.339844 53.8125 "/>
<path fill-rule="nonzero" fill="rgb(30.004883%, 30.004883%, 30.004883%)" fill-opacity="1" d="M 175.175781 54 C 171.558594 54 168.980469 51.910156 168.980469 48.011719 C 168.980469 44.394531 171.464844 41.585938 175.640625 41.585938 C 176.871094 41.585938 178.078125 41.746094 179.308594 42.117188 L 178.9375 43.972656 C 177.871094 43.558594 176.753906 43.324219 175.617188 43.324219 C 173.226562 43.324219 171.210938 44.832031 171.210938 47.804688 C 171.210938 50.613281 172.925781 52.144531 175.433594 52.144531 C 176.152344 52.144531 176.871094 52.050781 177.429688 51.863281 L 177.429688 47.59375 L 179.539062 47.59375 L 179.539062 53.210938 C 178.195312 53.722656 176.777344 54 175.175781 54 "/>
<path fill-rule="nonzero" fill="rgb(30.004883%, 30.004883%, 30.004883%)" fill-opacity="1" d="M 183.765625 53.8125 L 183.765625 41.746094 L 190.585938 41.746094 L 190.585938 43.394531 L 185.875 43.394531 L 185.875 46.804688 L 190.355469 46.804688 L 190.355469 48.40625 L 185.875 48.40625 L 185.875 52.121094 L 190.585938 52.121094 L 190.585938 53.8125 L 183.765625 53.8125 "/>
<path fill-rule="nonzero" fill="rgb(30.004883%, 30.004883%, 30.004883%)" fill-opacity="1" d="M 206.925781 53.8125 L 205.972656 47.109375 C 205.808594 45.832031 205.71875 44.878906 205.648438 44.207031 L 205.625 44.207031 C 205.484375 44.832031 205.277344 45.574219 204.996094 46.363281 L 202.46875 53.8125 L 200.21875 53.8125 L 197.898438 46.875 C 197.59375 46.015625 197.269531 44.996094 197.128906 44.230469 L 197.109375 44.230469 C 197.0625 45.15625 196.945312 46.085938 196.804688 47.199219 L 195.945312 53.8125 L 193.835938 53.8125 L 195.667969 41.746094 L 198.292969 41.746094 L 200.773438 49.058594 C 201.03125 49.847656 201.285156 50.636719 201.425781 51.355469 L 201.445312 51.355469 C 201.609375 50.519531 201.796875 49.9375 202.074219 49.125 L 204.625 41.746094 L 207.386719 41.746094 L 209.152344 53.8125 L 206.925781 53.8125 "/>
<path fill-rule="nonzero" fill="rgb(30.004883%, 30.004883%, 30.004883%)" fill-opacity="1" d="M 213.050781 53.8125 L 213.050781 41.746094 L 219.875 41.746094 L 219.875 43.394531 L 215.164062 43.394531 L 215.164062 46.804688 L 219.640625 46.804688 L 219.640625 48.40625 L 215.164062 48.40625 L 215.164062 52.121094 L 219.875 52.121094 L 219.875 53.8125 L 213.050781 53.8125 "/>
<path fill-rule="nonzero" fill="rgb(30.004883%, 30.004883%, 30.004883%)" fill-opacity="1" d="M 231.546875 53.8125 L 226.996094 46.738281 C 226.511719 45.992188 226.023438 45.113281 225.675781 44.367188 L 225.652344 44.367188 C 225.699219 45.136719 225.746094 45.949219 225.746094 47.246094 L 225.746094 53.8125 L 223.703125 53.8125 L 223.703125 41.746094 L 226.488281 41.746094 L 230.964844 48.707031 C 231.476562 49.476562 231.964844 50.308594 232.382812 51.121094 L 232.40625 51.121094 C 232.335938 50.332031 232.3125 49.035156 232.3125 47.246094 L 232.289062 41.746094 L 234.355469 41.746094 L 234.355469 53.8125 L 231.546875 53.8125 "/>
<path fill-rule="nonzero" fill="rgb(30.004883%, 30.004883%, 30.004883%)" fill-opacity="1" d="M 242.496094 43.511719 L 242.496094 53.8125 L 240.382812 53.8125 L 240.382812 43.511719 L 236.902344 43.511719 L 236.902344 41.746094 L 246 41.746094 L 246 43.511719 L 242.496094 43.511719 "/>
<path fill-rule="nonzero" fill="rgb(30.004883%, 30.004883%, 30.004883%)" fill-opacity="1" d="M 258.484375 45.949219 C 258.230469 45.273438 257.996094 44.53125 257.8125 43.953125 L 257.789062 43.953125 C 257.648438 44.554688 257.417969 45.25 257.164062 45.925781 L 255.675781 49.730469 L 259.945312 49.730469 Z M 261.433594 53.8125 L 260.480469 51.285156 L 255.121094 51.285156 L 254.167969 53.8125 L 252.035156 53.8125 L 256.722656 41.746094 L 259.132812 41.746094 L 263.777344 53.8125 L 261.433594 53.8125 "/>
<g clip-path="url(#clip-1)">
<path fill-rule="nonzero" fill="rgb(30.004883%, 30.004883%, 30.004883%)" fill-opacity="1" d="M 271.269531 54 C 267.652344 54 265.074219 51.910156 265.074219 48.011719 C 265.074219 44.394531 267.558594 41.585938 271.734375 41.585938 C 272.964844 41.585938 274.171875 41.746094 275.402344 42.117188 L 275.03125 43.972656 C 273.964844 43.558594 272.847656 43.324219 271.710938 43.324219 C 269.320312 43.324219 267.304688 44.832031 267.304688 47.804688 C 267.304688 50.613281 269.019531 52.144531 271.527344 52.144531 C 272.246094 52.144531 272.964844 52.050781 273.523438 51.863281 L 273.523438 47.59375 L 275.632812 47.59375 L 275.632812 53.210938 C 274.289062 53.722656 272.871094 54 271.269531 54 "/>
</g>
<g clip-path="url(#clip-2)">
<path fill-rule="nonzero" fill="rgb(30.004883%, 30.004883%, 30.004883%)" fill-opacity="1" d="M 12.910156 40.089844 L 40.253906 39.378906 L 38.757812 12.273438 C 38.757812 12.273438 33.222656 11.085938 18.285156 11.40625 C 18.285156 11.40625 -0.234375 11.242188 4.296875 6.265625 C 4.296875 6.265625 5.886719 4.132812 14.652344 3.582031 C 14.652344 3.582031 37.964844 1.289062 42.234375 0.8125 C 42.234375 0.8125 49.421875 -1.320312 51.714844 6.265625 C 51.714844 6.265625 52.425781 9.269531 53.058594 13.773438 L 54.5625 42.460938 C 54.5625 42.460938 55.03125 47.675781 54.5625 50.203125 C 54.5625 50.203125 54.488281 54.234375 49.503906 53.601562 C 49.503906 53.601562 41.757812 53.050781 34.804688 51.3125 C 34.804688 51.3125 21.371094 48.148438 2.640625 50.917969 C 2.640625 50.917969 -0.835938 51.867188 0.191406 49.257812 C 0.191406 49.257812 2.480469 44.28125 4.058594 35.351562 C 4.058594 35.351562 5.886719 22.230469 7.300781 20.015625 C 7.300781 20.015625 9.992188 12.828125 12.519531 16.933594 C 12.519531 16.933594 14.730469 22.464844 12.910156 40.089844 "/>
</g>
<path fill-rule="nonzero" fill="rgb(56.861877%, 72.940063%, 81.567383%)" fill-opacity="1" d="M 34.347656 25.902344 C 34.347656 30.246094 30.824219 33.769531 26.480469 33.769531 C 22.136719 33.769531 18.613281 30.246094 18.613281 25.902344 C 18.613281 21.558594 22.136719 18.035156 26.480469 18.035156 C 30.824219 18.035156 34.347656 21.558594 34.347656 25.902344 "/>
</svg>
