<?xml version="1.0" encoding="UTF-8" standalone="no"?>
<!DOCTYPE svg PUBLIC "-//W3C//DTD SVG 1.1//EN" "http://www.w3.org/Graphics/SVG/1.1/DTD/svg11.dtd">
<svg width="100%" height="100%" viewBox="0 0 388 221" version="1.1" xmlns="http://www.w3.org/2000/svg" xmlns:xlink="http://www.w3.org/1999/xlink" xml:space="preserve" xmlns:serif="http://www.serif.com/" style="fill-rule:evenodd;clip-rule:evenodd;stroke-linejoin:round;stroke-miterlimit:2;">
    <g transform="matrix(4.16667,0,0,4.16667,0,0)">
        <path d="M87.408,53L5.277,53C2.362,53 0,50.638 0,47.723L0,6.024C0,3.109 2.362,0.747 5.277,0.747L87.408,0.747C90.322,0.747 92.685,3.109 92.685,6.024L92.685,47.723C92.685,50.638 90.322,53 87.408,53Z" style="fill:white;fill-rule:nonzero;"/>
        <path d="M82.851,20.324L82.851,39.586C82.851,41.916 81.132,43.802 79.016,43.802L13.666,43.802C11.549,43.802 9.833,41.916 9.833,39.586L9.833,20.324C9.833,17.995 11.549,16.108 13.666,16.108L15.586,16.108C16.388,20.661 19.867,23.631 24.113,23.631C28.356,23.631 31.955,20.661 32.757,16.108L79.016,16.108C81.132,16.108 82.851,17.995 82.851,20.324Z" style="fill-rule:nonzero;"/>
        <path d="M23.151,27.861L25.072,27.861C25.138,27.879 25.171,27.936 25.171,28.029L25.171,36.805C25.171,36.903 25.138,36.96 25.072,36.973L23.151,36.973L23.085,36.918L23.085,27.917L23.151,27.861Z" style="fill:white;fill-rule:nonzero;"/>
        <path d="M36.556,26.543L36.524,26.683L36.524,30.188L36.623,30.272L37.186,30.272C38.467,30.272 39.217,30.076 39.438,29.683C39.659,29.408 39.769,28.987 39.769,28.421C39.769,27.394 39.416,26.814 38.709,26.683C38.384,26.59 37.909,26.543 37.285,26.543L36.556,26.543ZM34.305,24.749L38.08,24.749C40.796,24.749 42.154,25.954 42.154,28.365L42.154,28.421C42.154,30.851 40.796,32.067 38.08,32.067L36.556,32.067L36.524,32.207L36.524,36.918L36.457,36.973L34.338,36.973L34.238,36.889L34.238,24.805L34.305,24.749Z" style="fill:white;fill-rule:nonzero;"/>
        <path d="M43.349,27.868L45.27,27.868C45.336,27.887 45.369,27.942 45.369,28.036L45.369,34.71C45.425,35.251 45.612,35.522 45.932,35.522L46.065,35.55L46.131,35.55C46.666,35.55 47.185,35.251 47.688,34.653L47.688,27.924L47.754,27.868L49.675,27.868L49.774,27.952L49.774,36.896L49.675,36.98L47.787,36.98L47.688,36.896L47.688,35.943L47.655,35.943C46.777,36.728 45.927,37.121 45.104,37.121L44.972,37.121C44.222,37.121 43.702,36.765 43.415,36.055C43.327,35.718 43.283,35.411 43.283,35.129L43.283,27.924L43.349,27.868Z" style="fill:white;fill-rule:nonzero;"/>
        <path d="M55.892,27.721L56.025,27.721C57.151,27.721 57.713,28.459 57.713,29.935L57.713,36.889L57.615,36.973L55.727,36.973L55.627,36.889L55.627,30.328C55.627,29.636 55.396,29.291 54.932,29.291L54.866,29.291C54.308,29.291 53.789,29.589 53.309,30.188L53.309,36.805C53.309,36.903 53.276,36.96 53.209,36.973L51.288,36.973L51.222,36.918L51.222,27.917L51.288,27.861L53.209,27.861C53.276,27.879 53.309,27.936 53.309,28.029L53.309,28.898L53.342,28.898C54.198,28.113 55.048,27.721 55.892,27.721Z" style="fill:white;fill-rule:nonzero;"/>
        <path d="M59.225,24.749L61.146,24.749C61.212,24.767 61.245,24.823 61.245,24.917L61.245,31.309C61.333,31.235 61.709,30.683 62.371,29.655L63.597,27.861L65.816,27.861C65.86,27.861 65.882,27.889 65.882,27.945L63.762,30.861C65.308,34.824 66.08,36.842 66.08,36.918L66.014,36.973L63.895,36.973C63.812,36.973 63.514,36.198 63,34.646L62.338,32.852L62.305,32.852C61.598,33.735 61.245,34.221 61.245,34.309L61.245,36.805C61.245,36.903 61.212,36.96 61.146,36.973L59.225,36.973L59.159,36.918L59.159,24.805L59.225,24.749Z" style="fill:white;fill-rule:nonzero;"/>
        <path d="M68.535,25.225L70.456,25.225C70.523,25.244 70.556,25.3 70.556,25.393L70.556,27.665L70.622,27.721L72.278,27.721L72.377,27.805L72.377,29.207L72.278,29.291L70.622,29.291L70.556,29.347L70.556,34.253C70.556,34.983 70.953,35.347 71.748,35.347L72.51,35.263L72.577,35.431L72.577,36.665C72.577,36.852 72.267,36.945 71.649,36.945L71.251,36.973L70.987,36.973C69.832,36.973 69.06,36.609 68.668,35.879C68.535,35.534 68.469,35.085 68.469,34.534L68.469,29.431L68.436,29.291L67.012,29.291L66.912,29.207L66.912,27.776L66.979,27.721L68.37,27.721L68.469,27.636L68.469,25.281L68.535,25.225Z" style="fill:white;fill-rule:nonzero;"/>
        <path d="M31.348,14.701C31.348,18.696 28.108,21.936 24.113,21.936C20.117,21.936 16.878,18.696 16.878,14.701C16.878,10.705 20.117,7.465 24.113,7.465C28.108,7.465 31.348,10.705 31.348,14.701Z" style="fill:rgb(200,16,46);fill-rule:nonzero;"/>
    </g>
</svg>
