<?xml version="1.0" standalone="no"?>
<!DOCTYPE svg PUBLIC "-//W3C//DTD SVG 1.1//EN" "http://www.w3.org/Graphics/SVG/1.1/DTD/svg11.dtd">
<!--Generator: Xara Designer (www.xara.com), SVG filter version: 6.6.0.0-->
<svg fill="none" fill-rule="evenodd" stroke="black" stroke-width="0.501" stroke-linejoin="bevel" stroke-miterlimit="10" font-family="Times New Roman" font-size="16" style="font-variant-ligatures:none" xmlns:xlink="http://www.w3.org/1999/xlink" xmlns="http://www.w3.org/2000/svg" version="1.1" overflow="visible" width="115.701pt" height="26.85pt" viewBox="234.989 -319.151 115.701 26.85">
 <defs>
	</defs>
 <g id="Layer 1" transform="scale(1 -1)"/>
 <g id="Sponsoren" transform="scale(1 -1)"/>
 <g id="Content" transform="scale(1 -1)"/>
 <g id="Logo Vektor" transform="scale(1 -1)">
  <path d="M 234.989,292.818 L 236.824,295.454 L 235.05,295.454 L 235.05,295.9 L 237.407,295.9 L 237.407,295.444 L 235.577,292.808 L 237.437,292.808 L 237.437,292.362 L 234.989,292.362 L 234.989,292.818 Z" stroke="none" fill="#231f20" stroke-width="0.158" fill-rule="nonzero" stroke-linejoin="miter" marker-start="none" marker-end="none"/>
  <path d="M 238.082,295.525 L 238.619,295.525 L 238.619,296.062 L 238.082,296.062 L 238.082,295.525 Z M 238.113,292.362 L 238.589,292.362 L 238.589,294.947 L 238.113,294.947 L 238.113,292.362 Z" stroke="none" fill="#231f20" stroke-width="0.158" fill-rule="nonzero" stroke-linejoin="miter" marker-start="none" marker-end="none"/>
  <path d="M 239.457,294.947 L 239.903,294.947 L 239.903,294.572 L 239.913,294.572 C 240.096,294.871 240.354,295.008 240.734,295.008 C 241.034,295.008 241.332,294.856 241.469,294.507 C 241.647,294.877 242.037,295.008 242.27,295.008 C 242.93,295.008 243.168,294.582 243.168,294.02 L 243.168,292.362 L 242.691,292.362 L 242.691,293.903 C 242.691,294.222 242.615,294.623 242.23,294.623 C 241.743,294.623 241.55,294.146 241.55,293.665 L 241.55,292.362 L 241.074,292.362 L 241.074,293.903 C 241.074,294.222 240.998,294.623 240.613,294.623 C 240.126,294.623 239.933,294.146 239.933,293.665 L 239.933,292.362 L 239.457,292.362 L 239.457,294.947 Z" stroke="none" fill="#231f20" stroke-width="0.158" fill-rule="nonzero" stroke-linejoin="miter" marker-start="none" marker-end="none"/>
  <path d="M 243.966,294.947 L 244.412,294.947 L 244.412,294.572 L 244.422,294.572 C 244.604,294.871 244.863,295.008 245.243,295.008 C 245.542,295.008 245.841,294.856 245.978,294.507 C 246.155,294.877 246.546,295.008 246.779,295.008 C 247.438,295.008 247.676,294.582 247.676,294.02 L 247.676,292.362 L 247.2,292.362 L 247.2,293.903 C 247.2,294.222 247.124,294.623 246.738,294.623 C 246.252,294.623 246.059,294.146 246.059,293.665 L 246.059,292.362 L 245.583,292.362 L 245.583,293.903 C 245.583,294.222 245.507,294.623 245.122,294.623 C 244.635,294.623 244.442,294.146 244.442,293.665 L 244.442,292.362 L 243.966,292.362 L 243.966,294.947 Z" stroke="none" fill="#231f20" stroke-width="0.158" fill-rule="nonzero" stroke-linejoin="miter" marker-start="none" marker-end="none"/>
  <path d="M 250.153,293.903 C 250.153,294.299 249.92,294.623 249.509,294.623 C 249.043,294.623 248.85,294.238 248.814,293.903 L 250.153,293.903 Z M 250.462,292.469 C 250.28,292.403 250.072,292.301 249.646,292.301 C 248.728,292.301 248.308,292.859 248.308,293.701 C 248.308,294.466 248.789,295.008 249.519,295.008 C 250.381,295.008 250.66,294.38 250.66,293.549 L 248.814,293.549 C 248.814,293.036 249.215,292.686 249.666,292.686 C 249.98,292.686 250.345,292.849 250.462,292.945 L 250.462,292.469 Z" stroke="none" fill="#231f20" stroke-width="0.158" fill-rule="nonzero" stroke-linejoin="miter" marker-start="none" marker-end="none"/>
  <path d="M 251.299,294.947 L 251.746,294.947 L 251.746,294.546 L 251.755,294.546 C 251.882,294.815 252.156,295.008 252.43,295.008 C 252.572,295.008 252.643,294.993 252.744,294.973 L 252.744,294.546 C 252.658,294.582 252.562,294.592 252.48,294.592 C 252.055,294.592 251.776,294.187 251.776,293.538 L 251.776,292.362 L 251.299,292.362 L 251.299,294.947 Z" stroke="none" fill="#231f20" stroke-width="0.158" fill-rule="nonzero" stroke-linejoin="miter" marker-start="none" marker-end="none"/>
  <path d="M 254.945,293.903 C 254.945,294.299 254.712,294.623 254.302,294.623 C 253.836,294.623 253.643,294.238 253.607,293.903 L 254.945,293.903 Z M 255.255,292.469 C 255.072,292.403 254.865,292.301 254.439,292.301 C 253.521,292.301 253.101,292.859 253.101,293.701 C 253.101,294.466 253.582,295.008 254.312,295.008 C 255.173,295.008 255.453,294.38 255.453,293.549 L 253.607,293.549 C 253.607,293.036 254.008,292.686 254.458,292.686 C 254.773,292.686 255.138,292.849 255.255,292.945 L 255.255,292.469 Z" stroke="none" fill="#231f20" stroke-width="0.158" fill-rule="nonzero" stroke-linejoin="miter" marker-start="none" marker-end="none"/>
  <path d="M 256.154,294.947 L 256.63,294.947 L 256.63,292.362 L 256.154,292.362 L 256.154,294.947 Z M 256.661,295.525 L 256.123,295.525 L 256.123,296.063 L 256.661,296.063 L 256.661,295.525 Z" stroke="none" fill="#231f20" stroke-width="0.158" fill-rule="nonzero" stroke-linejoin="miter" marker-start="none" marker-end="none"/>
  <rect x="-1.0315" y="-0.3045" width="2.063" height="0.609" rx="0" ry="0" transform="matrix(0.631546 0 0 0.631546 259.351 293.725)" fill-rule="nonzero" stroke-linejoin="miter" stroke="none" stroke-width="0.158" fill="#231f20"/>
  <path d="M 263.665,295.369 C 263.406,295.47 263.264,295.515 263,295.515 C 262.717,295.515 262.382,295.414 262.382,295.044 C 262.382,294.364 263.903,294.522 263.903,293.356 C 263.903,292.601 263.32,292.302 262.611,292.302 C 262.362,292.302 262.119,292.373 261.886,292.449 L 261.936,292.92 C 262.108,292.849 262.413,292.748 262.671,292.748 C 262.96,292.748 263.365,292.91 263.365,293.326 C 263.365,294.117 261.845,293.898 261.845,294.999 C 261.845,295.627 262.342,295.961 262.981,295.961 C 263.214,295.961 263.492,295.921 263.735,295.835 L 263.665,295.369 Z" stroke="none" fill="#231f20" stroke-width="0.158" fill-rule="nonzero" stroke-linejoin="miter" marker-start="none" marker-end="none"/>
  <path d="M 266.19,294.512 C 266.008,294.587 265.825,294.623 265.673,294.623 C 265.141,294.623 264.842,294.147 264.842,293.655 C 264.842,293.194 265.09,292.686 265.703,292.686 C 265.866,292.686 266.068,292.737 266.215,292.834 L 266.251,292.408 C 266.053,292.316 265.825,292.301 265.653,292.301 C 264.872,292.301 264.335,292.915 264.335,293.655 C 264.335,294.441 264.862,295.008 265.653,295.008 C 265.845,295.008 266.094,294.963 266.231,294.907 L 266.19,294.512 Z" stroke="none" fill="#231f20" stroke-width="0.158" fill-rule="nonzero" stroke-linejoin="miter" marker-start="none" marker-end="none"/>
  <path d="M 266.799,296.164 L 267.275,296.164 L 267.275,294.577 L 267.286,294.577 C 267.458,294.851 267.757,295.008 268.117,295.008 C 268.786,295.008 269.085,294.592 269.085,293.898 L 269.085,292.362 L 268.608,292.362 L 268.608,293.701 C 268.608,294.304 268.477,294.598 268.061,294.623 C 267.519,294.623 267.275,294.187 267.275,293.559 L 267.275,292.362 L 266.799,292.362 L 266.799,296.164 Z" stroke="none" fill="#231f20" stroke-width="0.158" fill-rule="nonzero" stroke-linejoin="miter" marker-start="none" marker-end="none"/>
  <path d="M 269.899,294.947 L 270.345,294.947 L 270.345,294.546 L 270.355,294.546 C 270.482,294.815 270.755,295.008 271.029,295.008 C 271.171,295.008 271.242,294.993 271.344,294.973 L 271.344,294.546 C 271.257,294.582 271.161,294.592 271.08,294.592 C 270.654,294.592 270.375,294.187 270.375,293.538 L 270.375,292.362 L 269.899,292.362 L 269.899,294.947 Z" stroke="none" fill="#231f20" stroke-width="0.158" fill-rule="nonzero" stroke-linejoin="miter" marker-start="none" marker-end="none"/>
  <path d="M 273.544,293.903 C 273.544,294.299 273.311,294.623 272.9,294.623 C 272.434,294.623 272.241,294.238 272.206,293.903 L 273.544,293.903 Z M 273.853,292.469 C 273.671,292.403 273.463,292.301 273.037,292.301 C 272.12,292.301 271.699,292.859 271.699,293.701 C 271.699,294.466 272.18,295.008 272.911,295.008 C 273.772,295.008 274.051,294.38 274.051,293.549 L 272.206,293.549 C 272.206,293.036 272.606,292.686 273.057,292.686 C 273.372,292.686 273.737,292.849 273.853,292.945 L 273.853,292.469 Z" stroke="none" fill="#231f20" stroke-width="0.158" fill-rule="nonzero" stroke-linejoin="miter" marker-start="none" marker-end="none"/>
  <path d="M 274.752,294.947 L 275.228,294.947 L 275.228,292.362 L 274.752,292.362 L 274.752,294.947 Z M 275.259,295.525 L 274.721,295.525 L 274.721,296.063 L 275.259,296.063 L 275.259,295.525 Z" stroke="none" fill="#231f20" stroke-width="0.158" fill-rule="nonzero" stroke-linejoin="miter" marker-start="none" marker-end="none"/>
  <path d="M 276.101,294.947 L 276.562,294.947 L 276.562,294.537 L 276.573,294.537 C 276.714,294.831 277.059,295.008 277.419,295.008 C 278.088,295.008 278.387,294.592 278.387,293.898 L 278.387,292.362 L 277.911,292.362 L 277.911,293.7 C 277.911,294.303 277.779,294.597 277.364,294.623 C 276.821,294.623 276.577,294.187 276.577,293.559 L 276.577,292.362 L 276.101,292.362 L 276.101,294.947 Z" stroke="none" fill="#231f20" stroke-width="0.158" fill-rule="nonzero" stroke-linejoin="miter" marker-start="none" marker-end="none"/>
  <path d="M 280.873,293.903 C 280.873,294.299 280.639,294.623 280.229,294.623 C 279.763,294.623 279.57,294.238 279.534,293.903 L 280.873,293.903 Z M 281.182,292.469 C 280.999,292.403 280.792,292.301 280.366,292.301 C 279.448,292.301 279.028,292.859 279.028,293.701 C 279.028,294.466 279.509,295.008 280.239,295.008 C 281.101,295.008 281.38,294.38 281.38,293.549 L 279.534,293.549 C 279.534,293.036 279.935,292.686 280.386,292.686 C 280.701,292.686 281.065,292.849 281.182,292.945 L 281.182,292.469 Z" stroke="none" fill="#231f20" stroke-width="0.158" fill-rule="nonzero" stroke-linejoin="miter" marker-start="none" marker-end="none"/>
  <path d="M 282.02,294.947 L 282.467,294.947 L 282.467,294.546 L 282.476,294.546 C 282.603,294.815 282.876,295.008 283.151,295.008 C 283.293,295.008 283.363,294.993 283.465,294.973 L 283.465,294.546 C 283.379,294.582 283.283,294.592 283.201,294.592 C 282.775,294.592 282.496,294.187 282.496,293.538 L 282.496,292.362 L 282.02,292.362 L 282.02,294.947 Z" stroke="none" fill="#231f20" stroke-width="0.158" fill-rule="nonzero" stroke-linejoin="miter" marker-start="none" marker-end="none"/>
  <path d="M 285.666,293.903 C 285.666,294.299 285.433,294.623 285.022,294.623 C 284.556,294.623 284.363,294.238 284.328,293.903 L 285.666,293.903 Z M 285.975,292.469 C 285.793,292.403 285.585,292.301 285.16,292.301 C 284.242,292.301 283.821,292.859 283.821,293.701 C 283.821,294.466 284.302,295.008 285.033,295.008 C 285.894,295.008 286.173,294.38 286.173,293.549 L 284.328,293.549 C 284.328,293.036 284.728,292.686 285.179,292.686 C 285.494,292.686 285.859,292.849 285.975,292.945 L 285.975,292.469 Z" stroke="none" fill="#231f20" stroke-width="0.158" fill-rule="nonzero" stroke-linejoin="miter" marker-start="none" marker-end="none"/>
  <path d="M 286.874,294.947 L 287.35,294.947 L 287.35,292.362 L 286.874,292.362 L 286.874,294.947 Z M 287.381,295.525 L 286.843,295.525 L 286.843,296.063 L 287.381,296.063 L 287.381,295.525 Z" stroke="none" fill="#231f20" stroke-width="0.158" fill-rule="nonzero" stroke-linejoin="miter" marker-start="none" marker-end="none"/>
  <rect x="-1.0315" y="-0.3045" width="2.063" height="0.609" rx="0" ry="0" transform="matrix(0.631546 0 0 0.631546 290.071 293.725)" fill-rule="nonzero" stroke-linejoin="miter" stroke="none" stroke-width="0.158" fill="#231f20"/>
  <rect x="-0.4015" y="-2.8015" width="0.803" height="5.603" rx="0" ry="0" transform="matrix(0.631546 0 0 0.631546 293.03 294.13)" fill-rule="nonzero" stroke-linejoin="miter" stroke="none" stroke-width="0.158" fill="#231f20"/>
  <path d="M 294.141,294.947 L 294.602,294.947 L 294.602,294.537 L 294.613,294.537 C 294.755,294.831 295.1,295.008 295.459,295.008 C 296.128,295.008 296.428,294.592 296.428,293.898 L 296.428,292.362 L 295.951,292.362 L 295.951,293.7 C 295.951,294.303 295.819,294.597 295.404,294.623 C 294.861,294.623 294.618,294.187 294.618,293.559 L 294.618,292.362 L 294.141,292.362 L 294.141,294.947 Z" stroke="none" fill="#231f20" stroke-width="0.158" fill-rule="nonzero" stroke-linejoin="miter" marker-start="none" marker-end="none"/>
  <path d="M 297.241,294.947 L 297.702,294.947 L 297.702,294.537 L 297.712,294.537 C 297.854,294.831 298.2,295.008 298.559,295.008 C 299.228,295.008 299.527,294.592 299.527,293.898 L 299.527,292.362 L 299.051,292.362 L 299.051,293.7 C 299.051,294.303 298.919,294.597 298.503,294.623 C 297.961,294.623 297.717,294.187 297.717,293.559 L 297.717,292.362 L 297.241,292.362 L 297.241,294.947 Z" stroke="none" fill="#231f20" stroke-width="0.158" fill-rule="nonzero" stroke-linejoin="miter" marker-start="none" marker-end="none"/>
  <path d="M 302.012,293.903 C 302.012,294.299 301.779,294.623 301.368,294.623 C 300.902,294.623 300.709,294.238 300.674,293.903 L 302.012,293.903 Z M 302.321,292.469 C 302.139,292.403 301.93,292.301 301.505,292.301 C 300.587,292.301 300.166,292.859 300.166,293.701 C 300.166,294.466 300.649,295.008 301.378,295.008 C 302.24,295.008 302.519,294.38 302.519,293.549 L 300.674,293.549 C 300.674,293.036 301.075,292.686 301.526,292.686 C 301.839,292.686 302.204,292.849 302.321,292.945 L 302.321,292.469 Z" stroke="none" fill="#231f20" stroke-width="0.158" fill-rule="nonzero" stroke-linejoin="miter" marker-start="none" marker-end="none"/>
  <path d="M 303.161,294.947 L 303.621,294.947 L 303.621,294.537 L 303.632,294.537 C 303.774,294.831 304.118,295.008 304.478,295.008 C 305.147,295.008 305.446,294.592 305.446,293.898 L 305.446,292.362 L 304.97,292.362 L 304.97,293.7 C 304.97,294.303 304.838,294.597 304.422,294.623 C 303.88,294.623 303.637,294.187 303.637,293.559 L 303.637,292.362 L 303.161,292.362 L 303.161,294.947 Z" stroke="none" fill="#231f20" stroke-width="0.158" fill-rule="nonzero" stroke-linejoin="miter" marker-start="none" marker-end="none"/>
  <path d="M 307.785,293.594 C 307.684,293.594 307.583,293.605 307.482,293.605 C 307.223,293.605 306.584,293.564 306.584,293.107 C 306.584,292.834 306.848,292.686 307.066,292.686 C 307.537,292.686 307.785,292.981 307.785,293.366 L 307.785,293.594 Z M 306.372,294.765 C 306.61,294.907 306.894,295.008 307.223,295.008 C 307.963,295.008 308.262,294.643 308.262,293.939 L 308.262,292.87 C 308.262,292.575 308.272,292.438 308.283,292.362 L 307.836,292.362 L 307.836,292.697 L 307.826,292.697 C 307.715,292.54 307.461,292.301 307.026,292.301 C 306.468,292.301 306.077,292.545 306.077,293.107 C 306.077,293.756 306.788,293.959 307.278,293.959 C 307.466,293.959 307.598,293.959 307.785,293.949 C 307.785,294.395 307.624,294.623 307.146,294.623 C 306.879,294.623 306.589,294.522 306.397,294.359 L 306.372,294.765 Z" stroke="none" fill="#231f20" stroke-width="0.158" fill-rule="nonzero" stroke-linejoin="miter" marker-start="none" marker-end="none"/>
  <path d="M 311.355,292.362 L 310.894,292.362 L 310.894,292.773 L 310.884,292.773 C 310.742,292.479 310.398,292.301 310.038,292.301 C 309.368,292.301 309.069,292.717 309.069,293.411 L 309.069,294.948 L 309.546,294.948 L 309.546,293.61 C 309.546,293.007 309.678,292.712 310.093,292.687 C 310.636,292.687 310.879,293.123 310.879,293.751 L 310.879,294.948 L 311.355,294.948 L 311.355,292.362 Z" stroke="none" fill="#231f20" stroke-width="0.158" fill-rule="nonzero" stroke-linejoin="miter" marker-start="none" marker-end="none"/>
  <path d="M 311.976,292.869 C 312.163,292.748 312.432,292.686 312.569,292.686 C 312.787,292.686 313.056,292.777 313.056,293.057 C 313.056,293.528 311.935,293.487 311.935,294.212 C 311.935,294.75 312.336,295.008 312.848,295.008 C 313.071,295.008 313.253,294.962 313.441,294.907 L 313.401,294.491 C 313.295,294.557 313.011,294.623 312.899,294.623 C 312.655,294.623 312.442,294.521 312.442,294.308 C 312.442,293.781 313.564,293.934 313.564,293.107 C 313.564,292.554 313.121,292.301 312.66,292.301 C 312.417,292.301 312.17,292.326 311.951,292.443 L 311.976,292.869 Z" stroke="none" fill="#231f20" stroke-width="0.158" fill-rule="nonzero" stroke-linejoin="miter" marker-start="none" marker-end="none"/>
  <path d="M 315.382,294.623 C 314.866,294.623 314.618,294.131 314.618,293.65 C 314.618,293.219 314.841,292.687 315.377,292.687 C 315.89,292.687 316.103,293.26 316.093,293.665 C 316.103,294.131 315.899,294.623 315.382,294.623 Z M 314.141,296.164 L 314.618,296.164 L 314.618,294.592 L 314.628,294.592 C 314.774,294.831 315.033,295.008 315.483,295.008 C 316.235,295.008 316.6,294.395 316.6,293.701 C 316.6,292.991 316.269,292.301 315.49,292.301 C 315.028,292.301 314.734,292.534 314.608,292.727 L 314.597,292.727 L 314.597,292.362 L 314.141,292.362 L 314.141,296.164 Z" stroke="none" fill="#231f20" stroke-width="0.158" fill-rule="nonzero" stroke-linejoin="miter" marker-start="none" marker-end="none"/>
  <path d="M 318.776,293.594 C 318.675,293.594 318.574,293.605 318.473,293.605 C 318.213,293.605 317.575,293.564 317.575,293.107 C 317.575,292.834 317.839,292.686 318.056,292.686 C 318.528,292.686 318.776,292.981 318.776,293.366 L 318.776,293.594 Z M 317.362,294.765 C 317.6,294.907 317.884,295.008 318.213,295.008 C 318.953,295.008 319.252,294.643 319.252,293.939 L 319.252,292.87 C 319.252,292.575 319.263,292.438 319.273,292.362 L 318.826,292.362 L 318.826,292.697 L 318.816,292.697 C 318.706,292.54 318.451,292.301 318.016,292.301 C 317.458,292.301 317.067,292.545 317.067,293.107 C 317.067,293.756 317.778,293.959 318.269,293.959 C 318.456,293.959 318.588,293.959 318.776,293.949 C 318.776,294.395 318.614,294.623 318.137,294.623 C 317.869,294.623 317.579,294.522 317.387,294.359 L 317.362,294.765 Z" stroke="none" fill="#231f20" stroke-width="0.158" fill-rule="nonzero" stroke-linejoin="miter" marker-start="none" marker-end="none"/>
  <path d="M 322.346,292.362 L 321.885,292.362 L 321.885,292.773 L 321.875,292.773 C 321.733,292.479 321.389,292.301 321.029,292.301 C 320.359,292.301 320.06,292.717 320.06,293.411 L 320.06,294.948 L 320.537,294.948 L 320.537,293.61 C 320.537,293.007 320.669,292.712 321.084,292.687 C 321.627,292.687 321.87,293.123 321.87,293.751 L 321.87,294.948 L 322.346,294.948 L 322.346,292.362 Z" stroke="none" fill="#231f20" stroke-width="0.158" fill-rule="nonzero" stroke-linejoin="miter" marker-start="none" marker-end="none"/>
  <path d="M 307.467,319.129 C 306.529,319.129 305.761,318.382 305.761,317.486 C 305.761,316.568 306.529,315.821 307.467,315.821 C 308.386,315.821 309.153,316.568 309.153,317.486 C 309.153,318.403 308.386,319.129 307.467,319.129 Z" stroke="none" fill="#ff173d" stroke-width="0.158" fill-rule="nonzero" stroke-linejoin="miter" marker-start="none" marker-end="none"/>
  <path d="M 304.245,314.285 L 304.245,312.577 C 304.864,312.535 305.59,312.45 306.101,312.364 L 306.101,302.782 C 306.101,301.332 305.761,300.84 304.65,300.84 C 304.245,300.84 303.754,300.948 303.372,301.097 L 303.199,298.77 C 303.647,298.643 304.224,298.557 304.714,298.557 C 307.789,298.557 308.834,300.2 308.834,303.061 L 308.834,314.477 C 307.255,314.52 305.61,314.455 304.245,314.285 Z" stroke="none" fill="#ff173d" stroke-width="0.158" fill-rule="nonzero" stroke-linejoin="miter" marker-start="none" marker-end="none"/>
  <path d="M 317.7,316.205 C 318.509,316.205 319.172,316.867 319.172,317.677 C 319.172,318.509 318.509,319.151 317.7,319.151 C 316.89,319.151 316.227,318.509 316.227,317.677 C 316.227,316.867 316.89,316.205 317.7,316.205 Z" stroke="none" fill="#ff173d" stroke-width="0.158" fill-rule="nonzero" stroke-linejoin="miter" marker-start="none" marker-end="none"/>
  <path d="M 316.932,308.288 C 316.932,307.008 316.013,305.727 314.668,305.727 C 313.88,305.727 313.41,306.176 313.41,306.858 C 313.41,307.712 314.051,308.544 316.932,308.544 L 316.932,308.288 Z M 319.662,310.999 C 319.662,313.326 318.703,314.69 315.288,314.69 C 313.923,314.69 312.556,314.412 311.491,314.028 L 311.724,311.744 C 312.621,312.258 313.901,312.578 314.862,312.578 C 316.397,312.578 316.932,312.001 316.932,310.892 L 316.932,310.316 C 313.326,310.316 310.806,308.971 310.806,306.432 C 310.806,304.724 311.916,303.636 313.838,303.636 C 315.416,303.636 316.718,304.468 317.23,305.664 L 317.252,305.643 C 317.167,305.088 317.145,304.447 317.145,303.828 C 318.531,303.785 320.176,303.85 321.519,304.02 L 321.519,305.727 C 320.901,305.77 320.176,305.856 319.662,305.941 L 319.662,310.999 Z" stroke="none" fill="#ff173d" stroke-width="0.158" fill-rule="nonzero" stroke-linejoin="miter" marker-start="none" marker-end="none"/>
  <path d="M 313.389,316.205 C 314.201,316.205 314.862,316.867 314.862,317.677 C 314.862,318.509 314.201,319.151 313.389,319.151 C 312.578,319.151 311.916,318.509 311.916,317.677 C 311.916,316.867 312.578,316.205 313.389,316.205 Z" stroke="none" fill="#ff173d" stroke-width="0.158" fill-rule="nonzero" stroke-linejoin="miter" marker-start="none" marker-end="none"/>
  <path d="M 339.038,305.897 C 337.801,305.897 337.225,306.901 337.225,308.886 C 337.225,311.509 338.334,312.47 339.892,312.47 C 340.426,312.47 340.873,312.427 341.322,312.321 L 341.322,311.315 C 342.239,311.243 343.247,311.125 344.032,311.002 L 344.032,314.326 C 342.88,314.519 341.641,314.647 340.147,314.647 C 336.414,314.647 334.365,312.172 334.365,308.587 C 334.365,305.364 335.753,303.636 338.291,303.636 C 339.7,303.636 340.873,304.383 341.429,305.599 L 341.471,305.599 C 341.364,305.045 341.364,304.575 341.364,304.062 L 341.364,303.507 C 341.364,301.567 340.319,300.861 338.313,300.861 C 337.311,300.861 336.093,301.118 335.154,301.48 L 334.941,298.941 C 335.859,298.705 336.99,298.535 338.185,298.535 C 342.88,298.535 344.032,301.032 344.032,303.507 L 344.032,308.545 C 343.159,308.615 342.217,308.648 341.272,308.644 C 341.074,307.119 340.271,305.897 339.038,305.897 Z" stroke="none" fill="#ff173d" stroke-width="0.158" fill-rule="nonzero" stroke-linejoin="miter" marker-start="none" marker-end="none"/>
  <path d="M 348.982,315.821 C 349.92,315.821 350.69,316.568 350.69,317.486 C 350.69,318.403 349.92,319.129 348.982,319.129 C 348.065,319.129 347.297,318.382 347.297,317.486 C 347.297,316.568 348.065,315.821 348.982,315.821 Z" stroke="none" fill="#ff173d" stroke-width="0.158" fill-rule="nonzero" stroke-linejoin="miter" marker-start="none" marker-end="none"/>
  <path d="M 345.781,314.285 L 345.781,312.577 C 346.399,312.535 347.126,312.45 347.638,312.364 L 347.638,303.85 L 350.348,303.85 L 350.348,314.477 C 348.768,314.52 347.126,314.455 345.781,314.285 Z" stroke="none" fill="#ff173d" stroke-width="0.158" fill-rule="nonzero" stroke-linejoin="miter" marker-start="none" marker-end="none"/>
  <path d="M 327.208,305.897 C 325.972,305.897 325.396,306.901 325.396,308.886 C 325.396,311.509 326.505,312.47 328.063,312.47 C 328.596,312.47 329.044,312.427 329.493,312.321 L 329.493,311.315 C 330.41,311.243 331.419,311.125 332.203,311.001 L 332.203,314.326 C 331.049,314.519 329.812,314.647 328.319,314.647 C 324.585,314.647 322.536,312.172 322.536,308.587 C 322.536,305.364 323.922,303.636 326.46,303.636 C 327.871,303.636 329.044,304.383 329.6,305.599 L 329.643,305.599 C 329.535,305.045 329.535,304.575 329.535,304.062 L 329.535,303.507 C 329.535,301.567 328.49,300.861 326.484,300.861 C 325.482,300.861 324.264,301.118 323.325,301.48 L 323.112,298.941 C 324.03,298.705 325.16,298.535 326.356,298.535 C 331.049,298.535 332.203,301.032 332.203,303.507 L 332.203,308.545 C 331.33,308.615 330.388,308.648 329.443,308.644 C 329.245,307.119 328.442,305.897 327.208,305.897 Z" stroke="none" fill="#ff173d" stroke-width="0.158" fill-rule="nonzero" stroke-linejoin="miter" marker-start="none" marker-end="none"/>
  <path d="M 235.002,314.395 L 237.115,314.395 L 237.115,310.139 L 241.341,310.139 L 241.341,314.395 L 243.454,314.395 L 243.454,303.86 L 241.341,303.86 L 241.341,308.479 L 237.115,308.479 L 237.115,303.86 L 235.002,303.86 L 235.002,314.395 Z" stroke="none" fill="#40595c" stroke-width="0.158" fill-rule="nonzero" stroke-linejoin="miter" marker-start="none" marker-end="none"/>
  <path d="M 247.301,309.159 C 247.281,308.172 247.507,307.302 247.98,306.548 C 248.453,305.753 249.213,305.35 250.259,305.34 C 250.813,305.34 251.275,305.451 251.647,305.672 C 252.03,305.904 252.332,306.195 252.553,306.548 C 252.996,307.313 253.217,308.183 253.217,309.159 C 253.217,310.134 252.991,310.995 252.538,311.739 C 252.076,312.504 251.316,312.896 250.259,312.917 C 249.233,312.907 248.483,312.514 248.01,311.739 C 247.537,310.995 247.301,310.134 247.301,309.159 Z M 245.098,309.159 C 245.098,310.799 245.54,312.107 246.426,313.082 C 247.301,314.058 248.579,314.556 250.259,314.577 C 251.919,314.567 253.197,314.064 254.093,313.067 C 254.978,312.092 255.421,310.789 255.421,309.159 C 255.401,307.539 254.963,306.231 254.108,305.235 C 253.212,304.208 251.93,303.69 250.259,303.68 C 248.559,303.7 247.281,304.213 246.426,305.219 C 245.54,306.195 245.098,307.508 245.098,309.159 Z" stroke="none" fill="#40595c" stroke-width="0.158" fill-rule="nonzero" stroke-linejoin="miter" marker-start="none" marker-end="none"/>
  <path d="M 257.035,314.395 L 259.148,314.395 L 259.148,305.521 L 263.238,305.521 L 263.238,303.86 L 257.035,303.86 L 257.035,314.395 Z" stroke="none" fill="#40595c" stroke-width="0.158" fill-rule="nonzero" stroke-linejoin="miter" marker-start="none" marker-end="none"/>
  <path d="M 264.573,305.581 L 269.523,312.735 L 264.769,312.735 L 264.769,314.395 L 271.772,314.395 L 271.772,312.675 L 266.776,305.521 L 271.877,305.521 L 271.877,303.86 L 264.573,303.86 L 264.573,305.581 Z" stroke="none" fill="#40595c" stroke-width="0.158" fill-rule="nonzero" stroke-linejoin="miter" marker-start="none" marker-end="none"/>
  <path d="M 275.627,305.521 L 276.623,305.521 C 276.904,305.521 277.162,305.541 277.393,305.582 C 277.644,305.622 277.876,305.697 278.087,305.808 C 278.54,306 278.776,306.392 278.797,306.985 C 278.797,307.318 278.736,307.599 278.615,307.83 C 278.495,308.032 278.329,308.188 278.117,308.298 C 277.916,308.409 277.684,308.49 277.423,308.54 C 277.292,308.55 277.162,308.557 277.031,308.562 C 276.9,308.567 276.764,308.57 276.623,308.57 L 275.627,308.57 L 275.627,305.521 Z M 275.627,310.139 L 276.487,310.139 C 276.95,310.129 277.398,310.21 277.83,310.381 C 278.032,310.472 278.193,310.602 278.313,310.773 C 278.424,310.945 278.48,311.161 278.48,311.423 C 278.48,311.725 278.424,311.971 278.313,312.162 C 278.193,312.343 278.032,312.474 277.83,312.554 C 277.619,312.655 277.403,312.71 277.181,312.721 C 277.061,312.731 276.94,312.736 276.819,312.736 L 275.627,312.736 L 275.627,310.139 Z M 273.514,314.396 L 277.196,314.396 C 277.367,314.396 277.549,314.388 277.74,314.373 C 277.931,314.358 278.127,314.34 278.329,314.32 C 278.52,314.28 278.706,314.23 278.887,314.169 C 279.068,314.109 279.244,314.028 279.416,313.928 C 279.757,313.727 280.044,313.455 280.276,313.113 C 280.477,312.751 280.583,312.278 280.593,311.694 C 280.573,311.05 280.381,310.532 280.019,310.139 C 279.637,309.727 279.128,309.46 278.495,309.34 L 278.495,309.31 C 279.229,309.229 279.813,308.978 280.245,308.555 C 280.668,308.132 280.89,307.584 280.909,306.91 C 280.909,306.256 280.783,305.727 280.532,305.325 C 280.281,304.923 279.959,304.616 279.566,304.404 C 279.204,304.203 278.801,304.062 278.359,303.982 C 278.137,303.941 277.931,303.911 277.74,303.891 C 277.549,303.871 277.367,303.861 277.196,303.861 L 273.514,303.861 L 273.514,314.396 Z" stroke="none" fill="#40595c" stroke-width="0.158" fill-rule="nonzero" stroke-linejoin="miter" marker-start="none" marker-end="none"/>
  <path d="M 286.787,312.283 L 286.757,312.283 L 285.232,307.936 L 288.312,307.936 L 286.787,312.283 Z M 285.625,314.396 L 288.01,314.396 L 292.144,303.861 L 289.805,303.861 L 288.9,306.276 L 284.629,306.276 L 283.708,303.861 L 281.519,303.861 L 285.625,314.396 Z" stroke="none" fill="#40595c" stroke-width="0.158" fill-rule="nonzero" stroke-linejoin="miter" marker-start="none" marker-end="none"/>
  <path d="M 293.135,314.395 L 295.249,314.395 L 295.249,308.313 C 295.238,307.408 295.404,306.693 295.746,306.17 C 296.089,305.617 296.651,305.34 297.438,305.34 C 298.241,305.34 298.81,305.617 299.142,306.17 C 299.464,306.703 299.625,307.417 299.625,308.313 L 299.625,314.395 L 301.738,314.395 L 301.738,307.664 C 301.688,304.957 300.254,303.629 297.438,303.679 C 294.609,303.629 293.175,304.957 293.135,307.664 L 293.135,314.395 Z" stroke="none" fill="#40595c" stroke-width="0.158" fill-rule="nonzero" stroke-linejoin="miter" marker-start="none" marker-end="none"/>
  <path d="M 327.208,305.897 C 325.972,305.897 325.396,306.901 325.396,308.886 C 325.396,311.509 326.505,312.47 328.063,312.47 C 328.596,312.47 329.044,312.427 329.493,312.321 L 329.493,311.315 C 330.41,311.243 331.419,311.125 332.203,311.001 L 332.203,314.326 C 331.049,314.519 329.812,314.647 328.319,314.647 C 324.585,314.647 322.536,312.172 322.536,308.587 C 322.536,305.364 323.922,303.636 326.46,303.636 C 327.871,303.636 329.044,304.383 329.6,305.599 L 329.643,305.599 C 329.535,305.045 329.535,304.575 329.535,304.062 L 329.535,303.507 C 329.535,301.567 328.49,300.861 326.484,300.861 C 325.482,300.861 324.264,301.118 323.325,301.48 L 323.112,298.941 C 324.03,298.705 325.16,298.535 326.356,298.535 C 331.049,298.535 332.203,301.032 332.203,303.507 L 332.203,308.545 C 331.33,308.615 330.388,308.648 329.443,308.644 C 329.245,307.119 328.442,305.897 327.208,305.897 Z" stroke="none" fill="#ff173d" stroke-width="0.158" fill-rule="nonzero" stroke-linejoin="miter" marker-start="none" marker-end="none"/>
  <path d="M 327.208,305.897 C 325.972,305.897 325.396,306.901 325.396,308.886 C 325.396,311.509 326.505,312.47 328.063,312.47 C 328.596,312.47 329.044,312.427 329.493,312.321 L 329.493,311.315 C 330.41,311.243 331.419,311.125 332.203,311.001 L 332.203,314.326 C 331.049,314.519 329.812,314.647 328.319,314.647 C 324.585,314.647 322.536,312.172 322.536,308.587 C 322.536,305.364 323.922,303.636 326.46,303.636 C 327.871,303.636 329.044,304.383 329.6,305.599 L 329.643,305.599 C 329.535,305.045 329.535,304.575 329.535,304.062 L 329.535,303.507 C 329.535,301.567 328.49,300.861 326.484,300.861 C 325.482,300.861 324.264,301.118 323.325,301.48 L 323.112,298.941 C 324.03,298.705 325.16,298.535 326.356,298.535 C 331.049,298.535 332.203,301.032 332.203,303.507 L 332.203,308.545 C 331.33,308.615 330.388,308.648 329.443,308.644 C 329.245,307.119 328.442,305.897 327.208,305.897 Z" stroke="none" fill="#ff173d" stroke-width="0.158" fill-rule="nonzero" stroke-linejoin="miter" marker-start="none" marker-end="none"/>
 </g>
</svg>
