<?xml version="1.0" standalone="no"?>
<!DOCTYPE svg PUBLIC "-//W3C//DTD SVG 1.1//EN" "http://www.w3.org/Graphics/SVG/1.1/DTD/svg11.dtd">
<!--Generator: Xara Designer (www.xara.com), SVG filter version: 6.6.0.7-->
<svg fill="none" fill-rule="evenodd" stroke="black" stroke-width="0.501" stroke-linejoin="bevel" stroke-miterlimit="10" font-family="Times New Roman" font-size="16" style="font-variant-ligatures:none" xmlns:xlink="http://www.w3.org/1999/xlink" xmlns="http://www.w3.org/2000/svg" version="1.1" overflow="visible" width="1056pt" height="777pt" viewBox="0 -777 1056 777">
 <defs>
	</defs>
 <g id="Layer 1" transform="scale(1 -1)">
  <g id="Group" fill-rule="nonzero" stroke-linejoin="miter" stroke="none" stroke-width="0.25" fill="#231f20">
   <path d="M 911.873,741.423 C 851.824,741.423 802.971,692.57 802.971,632.522 C 802.971,572.474 851.824,523.621 911.873,523.621 C 971.92,523.621 1020.77,572.474 1020.77,632.522 C 1020.77,692.57 971.92,741.423 911.873,741.423 Z M 911.873,488.621 C 832.525,488.621 767.971,553.174 767.971,632.522 C 767.971,711.869 832.525,776.423 911.873,776.423 C 991.219,776.423 1055.77,711.869 1055.77,632.522 C 1055.77,553.174 991.219,488.621 911.873,488.621 Z" marker-start="none" marker-end="none"/>
   <rect x="-17.7165" y="-134.6455" width="35.433" height="269.291" rx="0" ry="0" transform="matrix(1 0 0 1 352.374 632.595)"/>
   <path d="M 280.063,497.95 L 142.583,635.43 L 274.394,767.241 L 224.284,767.241 L 35.433,578.391 L 35.433,767.241 L 0,767.241 L 0,492.848 L 117.528,610.375 L 229.953,497.95 L 280.063,497.95 Z" marker-start="none" marker-end="none"/>
   <path d="M 714.095,767.241 L 678.662,767.241 L 678.662,578.391 L 489.811,767.241 L 439.701,767.241 L 439.701,767.241 L 439.701,767.241 L 439.701,497.95 L 475.134,497.95 L 475.134,731.808 L 714.095,492.848 L 714.095,492.848 L 714.095,492.848 L 714.095,492.848 L 714.095,767.241 Z" marker-start="none" marker-end="none"/>
   <path d="M 435.449,382.392 C 375.401,382.392 326.548,333.54 326.548,273.491 C 326.548,213.443 375.401,164.59 435.449,164.59 C 495.498,164.59 544.35,213.443 544.35,273.491 C 544.35,333.54 495.498,382.392 435.449,382.392 Z M 435.449,129.59 C 356.102,129.59 291.548,194.144 291.548,273.491 C 291.548,352.839 356.102,417.392 435.449,417.392 C 514.796,417.392 579.35,352.839 579.35,273.491 C 579.35,194.144 514.796,129.59 435.449,129.59 Z" marker-start="none" marker-end="none"/>
   <rect x="-17.7155" y="-134.6455" width="35.431" height="269.291" rx="0" ry="0" transform="matrix(1 0 0 1 1012.59 279.965)"/>
   <path d="M 280.063,145.32 L 142.583,282.8 L 274.394,414.611 L 224.284,414.611 L 35.433,225.761 L 35.433,414.611 L 0,414.611 L 0,145.32 L 0,140.218 L 117.528,257.745 L 229.953,145.32 L 280.063,145.32 Z" marker-start="none" marker-end="none"/>
   <path d="M 873.515,414.611 L 873.515,225.761 L 684.664,414.611 L 634.555,414.611 L 634.555,145.32 L 669.988,145.32 L 669.988,379.178 L 908.948,140.218 L 908.948,140.218 L 908.948,140.218 L 908.948,414.611 L 873.515,414.611 Z" marker-start="none" marker-end="none"/>
   <path d="M 13.266,49.906 L 13.266,38.445 L 34.774,38.445 L 34.774,27.378 L 13.266,27.378 L 13.266,5.791 L 0,5.791 L 0,61.366 L 36.579,61.366 L 36.579,49.906 L 13.266,49.906 Z" marker-start="none" marker-end="none"/>
   <rect x="-6.7505" y="-27.7875" width="13.501" height="55.575" rx="0" ry="0" transform="matrix(1 0 0 1 60.127 33.578)"/>
   <path d="M 86.824,5.791 L 86.824,61.366 L 100.325,61.366 L 100.325,17.487 L 121.833,17.487 L 121.833,5.791 L 86.824,5.791 Z" marker-start="none" marker-end="none"/>
   <path d="M 186.529,5.791 L 186.843,45.118 L 186.607,45.118 L 172.164,5.791 L 162.745,5.791 L 148.693,45.118 L 148.458,45.118 L 148.772,5.791 L 136.134,5.791 L 136.134,61.366 L 155.232,61.366 L 167.886,25.729 L 168.2,25.729 L 180.303,61.366 L 199.716,61.366 L 199.716,5.791 L 186.529,5.791 Z" marker-start="none" marker-end="none"/>
   <path d="M 318.715,49.906 L 318.715,38.445 L 340.223,38.445 L 340.223,27.378 L 318.715,27.378 L 318.715,5.791 L 305.449,5.791 L 305.449,61.366 L 342.028,61.366 L 342.028,49.906 L 318.715,49.906 Z" marker-start="none" marker-end="none"/>
   <path d="M 401.387,33.814 C 401.387,36.22 400.994,38.471 400.209,40.565 C 399.424,42.657 398.337,44.45 396.952,45.942 C 395.564,47.433 393.89,48.611 391.928,49.474 C 389.965,50.338 387.807,50.769 385.452,50.769 C 383.097,50.769 380.951,50.338 379.015,49.474 C 377.079,48.611 375.404,47.433 373.991,45.942 C 372.579,44.45 371.492,42.657 370.734,40.565 C 369.975,38.471 369.596,36.22 369.596,33.814 C 369.596,31.302 369.988,28.986 370.773,26.867 C 371.558,24.748 372.644,22.928 374.031,21.412 C 375.417,19.893 377.079,18.704 379.015,17.84 C 380.951,16.976 383.097,16.545 385.452,16.545 C 387.807,16.545 389.952,16.976 391.889,17.84 C 393.824,18.704 395.5,19.893 396.913,21.412 C 398.325,22.928 399.424,24.748 400.209,26.867 C 400.994,28.986 401.387,31.302 401.387,33.814 Z M 415.751,33.814 C 415.751,29.419 414.992,25.401 413.475,21.764 C 411.957,18.127 409.851,15.014 407.156,12.423 C 404.46,9.834 401.255,7.832 397.541,6.419 C 393.824,5.006 389.795,4.299 385.452,4.299 C 381.107,4.299 377.092,5.006 373.403,6.419 C 369.713,7.832 366.521,9.834 363.826,12.423 C 361.13,15.014 359.024,18.127 357.507,21.764 C 355.989,25.401 355.23,29.419 355.23,33.814 C 355.23,38.261 355.989,42.278 357.507,45.863 C 359.024,49.447 361.13,52.496 363.826,55.008 C 366.521,57.52 369.713,59.456 373.403,60.817 C 377.092,62.177 381.107,62.858 385.452,62.858 C 389.795,62.858 393.824,62.177 397.541,60.817 C 401.255,59.456 404.46,57.52 407.156,55.008 C 409.851,52.496 411.957,49.447 413.475,45.863 C 414.992,42.278 415.751,38.261 415.751,33.814 Z" marker-start="none" marker-end="none"/>
   <path d="M 476.21,33.814 C 476.21,36.22 475.817,38.471 475.033,40.565 C 474.248,42.657 473.161,44.45 471.775,45.942 C 470.388,47.433 468.713,48.611 466.751,49.474 C 464.789,50.338 462.63,50.769 460.275,50.769 C 457.92,50.769 455.774,50.338 453.838,49.474 C 451.902,48.611 450.228,47.433 448.814,45.942 C 447.402,44.45 446.315,42.657 445.557,40.565 C 444.798,38.471 444.419,36.22 444.419,33.814 C 444.419,31.302 444.812,28.986 445.596,26.867 C 446.381,24.748 447.467,22.928 448.854,21.412 C 450.24,19.893 451.902,18.704 453.838,17.84 C 455.774,16.976 457.92,16.545 460.275,16.545 C 462.63,16.545 464.775,16.976 466.712,17.84 C 468.647,18.704 470.323,19.893 471.736,21.412 C 473.148,22.928 474.248,24.748 475.033,26.867 C 475.817,28.986 476.21,31.302 476.21,33.814 Z M 490.575,33.814 C 490.575,29.419 489.815,25.401 488.298,21.764 C 486.78,18.127 484.674,15.014 481.979,12.423 C 479.284,9.834 476.079,7.832 472.364,6.419 C 468.647,5.006 464.618,4.299 460.275,4.299 C 455.931,4.299 451.915,5.006 448.226,6.419 C 444.537,7.832 441.344,9.834 438.649,12.423 C 435.954,15.014 433.848,18.127 432.331,21.764 C 430.812,25.401 430.054,29.419 430.054,33.814 C 430.054,38.261 430.812,42.278 432.331,45.863 C 433.848,49.447 435.954,52.496 438.649,55.008 C 441.344,57.52 444.537,59.456 448.226,60.817 C 451.915,62.177 455.931,62.858 460.275,62.858 C 464.618,62.858 468.647,62.177 472.364,60.817 C 476.079,59.456 479.284,57.52 481.979,55.008 C 484.674,52.496 486.78,49.447 488.298,45.863 C 489.815,42.278 490.575,38.261 490.575,33.814 Z" marker-start="none" marker-end="none"/>
   <path d="M 545.609,33.735 C 545.609,36.876 545.098,39.478 544.078,41.546 C 543.057,43.613 541.695,45.261 539.996,46.491 C 538.295,47.72 536.357,48.597 534.188,49.121 C 532.016,49.643 529.777,49.906 527.477,49.906 L 520.803,49.906 L 520.803,17.408 L 527.162,17.408 C 529.568,17.408 531.885,17.683 534.109,18.232 C 536.332,18.782 538.295,19.684 539.996,20.94 C 541.695,22.197 543.057,23.871 544.078,25.965 C 545.098,28.056 545.609,30.647 545.609,33.735 Z M 559.58,33.735 C 559.58,28.869 558.678,24.67 556.873,21.136 C 555.066,17.604 552.686,14.7 549.73,12.423 C 546.773,10.147 543.436,8.471 539.721,7.4 C 536.006,6.327 532.236,5.791 528.418,5.791 L 507.695,5.791 L 507.695,61.366 L 527.789,61.366 C 531.715,61.366 535.586,60.908 539.408,59.993 C 543.227,59.077 546.629,57.559 549.611,55.44 C 552.594,53.32 555.002,50.481 556.834,46.923 C 558.664,43.364 559.58,38.967 559.58,33.735 Z" marker-start="none" marker-end="none"/>
   <path d="M 662.802,5.791 L 662.802,61.366 L 676.303,61.366 L 676.303,17.487 L 697.812,17.487 L 697.812,5.791 L 662.802,5.791 Z" marker-start="none" marker-end="none"/>
   <path d="M 754.94,33.814 C 754.94,36.22 754.548,38.471 753.763,40.565 C 752.979,42.657 751.892,44.45 750.506,45.942 C 749.118,47.433 747.444,48.611 745.481,49.474 C 743.52,50.338 741.36,50.769 739.006,50.769 C 736.65,50.769 734.504,50.338 732.569,49.474 C 730.632,48.611 728.958,47.433 727.545,45.942 C 726.132,44.45 725.046,42.657 724.287,40.565 C 723.528,38.471 723.149,36.22 723.149,33.814 C 723.149,31.302 723.542,28.986 724.327,26.867 C 725.111,24.748 726.197,22.928 727.584,21.412 C 728.971,19.893 730.632,18.704 732.569,17.84 C 734.504,16.976 736.65,16.545 739.006,16.545 C 741.36,16.545 743.506,16.976 745.442,17.84 C 747.378,18.704 749.053,19.893 750.466,21.412 C 751.879,22.928 752.979,24.748 753.763,26.867 C 754.548,28.986 754.94,31.302 754.94,33.814 Z M 769.306,33.814 C 769.306,29.419 768.546,25.401 767.029,21.764 C 765.511,18.127 763.404,15.014 760.71,12.423 C 758.014,9.834 754.81,7.832 751.094,6.419 C 747.378,5.006 743.349,4.299 739.006,4.299 C 734.661,4.299 730.646,5.006 726.956,6.419 C 723.267,7.832 720.074,9.834 717.38,12.423 C 714.684,15.014 712.578,18.127 711.061,21.764 C 709.542,25.401 708.784,29.419 708.784,33.814 C 708.784,38.261 709.542,42.278 711.061,45.863 C 712.578,49.447 714.684,52.496 717.38,55.008 C 720.074,57.52 723.267,59.456 726.956,60.817 C 730.646,62.177 734.661,62.858 739.006,62.858 C 743.349,62.858 747.378,62.177 751.094,60.817 C 754.81,59.456 758.014,57.52 760.71,55.008 C 763.404,52.496 765.511,49.447 767.029,45.863 C 768.546,42.278 769.306,38.261 769.306,33.814 Z" marker-start="none" marker-end="none"/>
   <path d="M 831.78,17.604 C 830.654,14.857 829.045,12.503 826.953,10.54 C 824.859,8.578 822.334,7.047 819.378,5.948 C 816.421,4.848 813.138,4.299 809.526,4.299 C 805.863,4.299 802.566,4.848 799.636,5.948 C 796.704,7.047 794.22,8.578 792.179,10.54 C 790.138,12.503 788.567,14.857 787.469,17.604 C 786.37,20.352 785.82,23.4 785.82,26.75 L 785.82,61.366 L 799.165,61.366 L 799.165,27.848 C 799.165,26.33 799.361,24.891 799.754,23.531 C 800.146,22.17 800.747,20.953 801.559,19.881 C 802.37,18.807 803.443,17.958 804.777,17.33 C 806.112,16.702 807.721,16.387 809.604,16.387 C 811.489,16.387 813.098,16.702 814.433,17.33 C 815.767,17.958 816.853,18.807 817.69,19.881 C 818.526,20.953 819.129,22.17 819.495,23.531 C 819.861,24.891 820.045,26.33 820.045,27.848 L 820.045,61.366 L 833.468,61.366 L 833.468,26.75 C 833.468,23.4 832.905,20.352 831.78,17.604 Z" marker-start="none" marker-end="none"/>
   <path d="M 888.313,5.791 L 865.941,42.134 L 865.705,42.134 L 866.02,5.791 L 852.989,5.791 L 852.989,61.366 L 868.296,61.366 L 890.589,25.101 L 890.824,25.101 L 890.511,61.366 L 903.541,61.366 L 903.541,5.791 L 888.313,5.791 Z" marker-start="none" marker-end="none"/>
   <path d="M 963.222,5.713 C 959.584,4.823 955.62,4.378 951.329,4.378 C 946.881,4.378 942.785,5.085 939.045,6.497 C 935.303,7.91 932.084,9.898 929.39,12.463 C 926.693,15.026 924.588,18.101 923.07,21.686 C 921.552,25.27 920.794,29.261 920.794,33.657 C 920.794,38.104 921.565,42.134 923.109,45.746 C 924.652,49.356 926.786,52.43 929.507,54.968 C 932.228,57.506 935.42,59.456 939.084,60.817 C 942.746,62.177 946.698,62.858 950.937,62.858 C 955.333,62.858 959.414,62.19 963.183,60.856 C 966.95,59.522 970.012,57.728 972.366,55.479 L 963.889,45.824 C 962.58,47.341 960.854,48.584 958.708,49.552 C 956.562,50.52 954.128,51.005 951.408,51.005 C 949.053,51.005 946.881,50.573 944.893,49.71 C 942.903,48.846 941.177,47.641 939.712,46.098 C 938.246,44.554 937.108,42.723 936.297,40.604 C 935.485,38.485 935.08,36.169 935.08,33.657 C 935.08,31.092 935.446,28.738 936.18,26.592 C 936.912,24.446 937.997,22.601 939.438,21.058 C 940.876,19.514 942.655,18.311 944.774,17.448 C 946.895,16.584 949.314,16.152 952.036,16.152 C 953.605,16.152 955.098,16.27 956.51,16.506 C 957.923,16.741 959.23,17.12 960.435,17.643 L 960.435,27.77 L 949.838,27.77 L 949.838,38.602 L 972.759,38.602 L 972.759,9.166 C 970.037,7.754 966.858,6.601 963.222,5.713 Z" marker-start="none" marker-end="none"/>
   <path d="M 992.172,5.791 L 992.172,61.366 L 1029.54,61.366 L 1029.54,50.063 L 1005.12,50.063 L 1005.12,39.545 L 1028.2,39.545 L 1028.2,28.791 L 1005.12,28.791 L 1005.12,17.252 L 1030.95,17.252 L 1030.95,5.791 L 992.172,5.791 Z" marker-start="none" marker-end="none"/>
   <path d="M 255.762,67.157 L 255.762,0 L 249.325,0 L 249.325,67.157 L 255.762,67.157 Z" marker-start="none" marker-end="none"/>
   <path d="M 613.115,67.157 L 613.115,0 L 606.679,0 L 606.679,67.157 L 613.115,67.157 Z" marker-start="none" marker-end="none"/>
  </g>
 </g>
</svg>
