<?xml version="1.0" standalone="no"?>
<!DOCTYPE svg PUBLIC "-//W3C//DTD SVG 1.1//EN" "http://www.w3.org/Graphics/SVG/1.1/DTD/svg11.dtd">
<!--Generator: Xara Designer (www.xara.com), SVG filter version: 6.6.0.0-->
<svg fill="none" fill-rule="evenodd" stroke="black" stroke-width="0.501" stroke-linejoin="bevel" stroke-miterlimit="10" font-family="Times New Roman" font-size="16" style="font-variant-ligatures:none" xmlns:xlink="http://www.w3.org/1999/xlink" xmlns="http://www.w3.org/2000/svg" version="1.1" overflow="visible" width="54.751pt" height="13.603pt" viewBox="48.225 -767.793 54.751 13.603">
 <defs>
	</defs>
 <g id="Layer 1" transform="scale(1 -1)"/>
 <g id="Sponsoren" transform="scale(1 -1)">
  <g id="Group" stroke="none">
   <g id="Group_1" fill-rule="nonzero" stroke-linejoin="round" stroke-linecap="round" stroke-width="0.101" fill="#b99e76">
    <g id="Group_2">
     <path d="M 60.849,757.142 L 60.556,757.142 L 60.556,754.262 L 60.849,754.262 L 60.849,755.796 L 60.853,755.796 L 62.293,754.262 L 62.724,754.262 L 61.19,755.836 L 62.643,757.142 L 62.224,757.142 L 60.853,755.848 L 60.849,755.848 L 60.849,757.142 Z" marker-start="none" marker-end="none"/>
     <path d="M 63.403,757.142 L 63.11,757.142 L 63.11,754.262 L 63.403,754.262 L 63.403,757.142 Z" marker-start="none" marker-end="none"/>
     <path d="M 64.15,757.142 L 63.841,757.142 L 64.691,754.262 L 65.032,754.262 L 65.756,756.735 L 65.765,756.735 L 66.489,754.262 L 66.831,754.262 L 67.681,757.142 L 67.371,757.142 L 66.668,754.665 L 66.66,754.665 L 65.94,757.142 L 65.59,757.142 L 64.87,754.665 L 64.862,754.665 L 64.15,757.142 Z" marker-start="none" marker-end="none"/>
     <path d="M 68.365,755.019 L 69.853,755.019 L 70.171,754.262 L 70.496,754.262 L 69.26,757.142 L 68.976,757.142 L 67.731,754.262 L 68.052,754.262 L 68.365,755.019 Z M 69.11,756.816 L 69.744,755.287 L 68.475,755.287 L 69.11,756.816 Z" marker-start="none" marker-end="none"/>
     <path d="M 71.287,757.142 L 70.921,757.142 L 70.921,754.262 L 71.214,754.262 L 71.214,756.739 L 71.222,756.739 L 72.897,754.262 L 73.264,754.262 L 73.264,757.142 L 72.97,757.142 L 72.97,754.69 L 72.962,754.69 L 71.287,757.142 Z" marker-start="none" marker-end="none"/>
     <path d="M 74.322,757.142 L 74.029,757.142 L 74.029,754.262 L 74.322,754.262 L 74.322,757.142 Z" marker-start="none" marker-end="none"/>
     <path d="M 76.712,756.866 C 76.666,756.929 76.603,756.987 76.525,757.039 C 76.447,757.092 76.356,757.135 76.25,757.166 C 76.145,757.199 76.028,757.215 75.898,757.215 C 75.791,757.216 75.684,757.2 75.576,757.169 C 75.469,757.14 75.37,757.092 75.28,757.028 C 75.191,756.964 75.118,756.882 75.063,756.781 C 75.009,756.681 74.981,756.561 74.979,756.422 C 74.98,756.293 75.002,756.183 75.046,756.094 C 75.09,756.003 75.149,755.928 75.222,755.869 C 75.296,755.809 75.379,755.759 75.47,755.72 C 75.561,755.679 75.655,755.646 75.752,755.617 C 75.844,755.59 75.932,755.56 76.016,755.529 C 76.101,755.498 76.175,755.46 76.241,755.416 C 76.308,755.372 76.359,755.316 76.397,755.249 C 76.436,755.182 76.455,755.098 76.456,754.998 C 76.455,754.905 76.436,754.825 76.397,754.755 C 76.36,754.686 76.31,754.628 76.248,754.581 C 76.185,754.535 76.117,754.499 76.043,754.476 C 75.967,754.452 75.893,754.441 75.817,754.441 C 75.717,754.442 75.624,754.458 75.541,754.49 C 75.457,754.522 75.383,754.565 75.318,754.619 C 75.254,754.674 75.201,754.735 75.158,754.803 L 74.906,754.616 C 74.976,754.521 75.059,754.442 75.156,754.378 C 75.251,754.316 75.356,754.268 75.469,754.237 C 75.581,754.205 75.695,754.19 75.814,754.19 C 75.929,754.189 76.041,754.205 76.153,754.237 C 76.263,754.27 76.364,754.32 76.454,754.387 C 76.544,754.455 76.616,754.541 76.67,754.645 C 76.724,754.75 76.751,754.874 76.753,755.018 C 76.751,755.162 76.726,755.281 76.676,755.375 C 76.627,755.47 76.561,755.547 76.478,755.607 C 76.395,755.666 76.303,755.715 76.204,755.754 C 76.104,755.794 76.002,755.829 75.898,755.861 C 75.817,755.887 75.739,755.914 75.665,755.942 C 75.59,755.971 75.524,756.006 75.465,756.046 C 75.406,756.087 75.359,756.137 75.325,756.199 C 75.29,756.26 75.273,756.336 75.272,756.426 C 75.273,756.519 75.292,756.599 75.328,756.667 C 75.364,756.735 75.412,756.792 75.472,756.835 C 75.532,756.88 75.598,756.913 75.67,756.935 C 75.742,756.956 75.814,756.967 75.887,756.967 C 76.023,756.966 76.141,756.94 76.24,756.888 C 76.339,756.837 76.42,756.767 76.48,756.679 L 76.712,756.866 Z" marker-start="none" marker-end="none"/>
     <path d="M 80.592,754.872 C 80.525,754.774 80.448,754.692 80.358,754.63 C 80.269,754.566 80.172,754.52 80.069,754.49 C 79.964,754.459 79.857,754.445 79.746,754.445 C 79.562,754.446 79.394,754.481 79.247,754.548 C 79.1,754.614 78.975,754.706 78.872,754.822 C 78.768,754.938 78.688,755.071 78.634,755.223 C 78.579,755.374 78.551,755.534 78.551,755.702 C 78.551,755.871 78.579,756.031 78.633,756.182 C 78.688,756.332 78.766,756.467 78.87,756.583 C 78.973,756.699 79.098,756.791 79.246,756.857 C 79.393,756.924 79.56,756.958 79.746,756.96 C 79.87,756.958 79.982,756.94 80.084,756.902 C 80.186,756.867 80.275,756.82 80.35,756.763 C 80.424,756.705 80.482,756.645 80.524,756.581 L 80.768,756.76 C 80.701,756.854 80.614,756.935 80.508,757.003 C 80.401,757.071 80.283,757.123 80.152,757.16 C 80.022,757.197 79.885,757.215 79.743,757.215 C 79.527,757.214 79.329,757.178 79.146,757.102 C 78.964,757.027 78.806,756.922 78.671,756.787 C 78.535,756.652 78.431,756.492 78.356,756.308 C 78.282,756.123 78.243,755.922 78.242,755.702 C 78.243,755.482 78.28,755.281 78.354,755.097 C 78.427,754.912 78.532,754.754 78.666,754.618 C 78.8,754.482 78.959,754.377 79.141,754.302 C 79.324,754.228 79.524,754.19 79.743,754.19 C 79.915,754.19 80.071,754.216 80.209,754.264 C 80.348,754.312 80.469,754.377 80.571,754.458 C 80.674,754.539 80.756,754.628 80.821,754.726 L 80.592,754.872 Z" marker-start="none" marker-end="none"/>
     <path d="M 81.618,757.142 L 81.326,757.142 L 81.326,754.262 L 82.961,754.262 L 82.961,754.522 L 81.618,754.522 L 81.618,757.142 Z" marker-start="none" marker-end="none"/>
     <path d="M 84.364,754.19 C 84.536,754.19 84.683,754.215 84.807,754.262 C 84.93,754.31 85.033,754.374 85.116,754.455 C 85.198,754.535 85.263,754.625 85.311,754.724 C 85.358,754.825 85.392,754.928 85.412,755.032 C 85.433,755.138 85.442,755.238 85.442,755.336 L 85.442,757.142 L 85.149,757.142 L 85.149,755.368 C 85.15,755.251 85.136,755.138 85.109,755.029 C 85.082,754.92 85.037,754.822 84.976,754.735 C 84.915,754.648 84.835,754.578 84.734,754.528 C 84.633,754.477 84.51,754.45 84.364,754.449 C 84.218,754.45 84.094,754.477 83.994,754.528 C 83.894,754.578 83.813,754.648 83.752,754.735 C 83.691,754.822 83.647,754.92 83.619,755.029 C 83.592,755.138 83.578,755.251 83.579,755.368 L 83.579,757.142 L 83.286,757.142 L 83.286,755.336 C 83.286,755.238 83.295,755.138 83.315,755.032 C 83.335,754.928 83.369,754.825 83.418,754.724 C 83.465,754.625 83.53,754.535 83.612,754.455 C 83.694,754.374 83.797,754.31 83.921,754.262 C 84.044,754.215 84.192,754.19 84.364,754.19 Z" marker-start="none" marker-end="none"/>
     <path d="M 86.19,754.262 L 87.043,754.262 C 87.266,754.264 87.457,754.297 87.618,754.363 C 87.778,754.428 87.9,754.521 87.987,754.639 C 88.073,754.758 88.117,754.898 88.118,755.06 C 88.117,755.199 88.088,755.32 88.032,755.423 C 87.976,755.526 87.9,755.608 87.802,755.668 C 87.705,755.728 87.593,755.766 87.467,755.779 L 87.467,755.787 C 87.57,755.811 87.658,755.853 87.734,755.912 C 87.811,755.971 87.869,756.043 87.911,756.127 C 87.953,756.212 87.974,756.305 87.975,756.406 C 87.974,756.549 87.946,756.669 87.892,756.765 C 87.838,756.86 87.766,756.935 87.676,756.991 C 87.586,757.046 87.487,757.085 87.377,757.108 C 87.269,757.132 87.159,757.142 87.048,757.142 L 86.19,757.142 L 86.19,754.262 Z M 86.482,756.89 L 86.991,756.89 C 87.119,756.891 87.234,756.874 87.339,756.841 C 87.442,756.807 87.525,756.753 87.587,756.679 C 87.649,756.605 87.681,756.507 87.682,756.386 C 87.681,756.29 87.662,756.21 87.626,756.146 C 87.59,756.081 87.542,756.029 87.482,755.989 C 87.422,755.951 87.357,755.923 87.286,755.906 C 87.215,755.889 87.143,755.881 87.072,755.881 L 86.482,755.881 L 86.482,756.89 Z M 86.482,755.641 L 87.081,755.641 C 87.316,755.641 87.498,755.594 87.626,755.5 C 87.754,755.407 87.82,755.264 87.821,755.076 C 87.821,754.975 87.799,754.89 87.756,754.818 C 87.714,754.747 87.657,754.689 87.583,754.644 C 87.51,754.599 87.426,754.566 87.33,754.546 C 87.235,754.524 87.135,754.515 87.028,754.515 L 86.482,754.515 L 86.482,755.641 Z" marker-start="none" marker-end="none"/>
     <path d="M 92.641,755.702 C 92.64,755.922 92.602,756.123 92.527,756.307 C 92.453,756.492 92.348,756.651 92.213,756.787 C 92.077,756.922 91.919,757.027 91.737,757.102 C 91.556,757.178 91.356,757.214 91.141,757.215 C 90.925,757.214 90.726,757.178 90.544,757.102 C 90.363,757.027 90.204,756.922 90.069,756.787 C 89.934,756.651 89.829,756.492 89.754,756.307 C 89.679,756.123 89.641,755.922 89.64,755.702 C 89.641,755.482 89.679,755.281 89.754,755.097 C 89.829,754.912 89.934,754.753 90.069,754.618 C 90.204,754.482 90.363,754.377 90.544,754.302 C 90.726,754.228 90.925,754.19 91.141,754.19 C 91.356,754.19 91.556,754.228 91.737,754.302 C 91.919,754.377 92.077,754.482 92.213,754.618 C 92.348,754.753 92.453,754.912 92.527,755.097 C 92.602,755.281 92.64,755.482 92.641,755.702 Z M 92.333,755.702 C 92.332,755.534 92.304,755.374 92.25,755.223 C 92.196,755.074 92.117,754.94 92.014,754.824 C 91.911,754.708 91.787,754.617 91.639,754.551 C 91.492,754.484 91.327,754.45 91.141,754.449 C 90.955,754.45 90.789,754.484 90.643,754.551 C 90.495,754.617 90.37,754.708 90.267,754.824 C 90.165,754.94 90.085,755.074 90.031,755.223 C 89.977,755.374 89.95,755.534 89.949,755.702 C 89.95,755.871 89.977,756.031 90.031,756.182 C 90.085,756.332 90.165,756.467 90.267,756.583 C 90.37,756.699 90.495,756.791 90.643,756.857 C 90.789,756.924 90.955,756.958 91.141,756.96 C 91.327,756.958 91.492,756.924 91.639,756.857 C 91.787,756.791 91.911,756.699 92.014,756.583 C 92.117,756.467 92.196,756.332 92.25,756.182 C 92.304,756.031 92.332,755.871 92.333,755.702 Z" marker-start="none" marker-end="none"/>
     <path d="M 93.545,757.142 L 93.252,757.142 L 93.252,754.262 L 94.887,754.262 L 94.887,754.522 L 93.545,754.522 L 93.545,757.142 Z" marker-start="none" marker-end="none"/>
     <path d="M 95.858,756.882 L 96.823,756.882 L 96.823,757.142 L 94.602,757.142 L 94.602,756.882 L 95.566,756.882 L 95.566,754.262 L 95.858,754.262 L 95.858,756.882 Z" marker-start="none" marker-end="none"/>
     <path d="M 97.545,755.633 L 98.94,755.633 L 98.94,755.889 L 97.545,755.889 L 97.545,756.882 L 99.038,756.882 L 99.038,757.142 L 97.253,757.142 L 97.253,754.262 L 99.087,754.262 L 99.087,754.522 L 97.545,754.522 L 97.545,755.633 Z" marker-start="none" marker-end="none"/>
     <path d="M 100.026,757.142 L 99.66,757.142 L 99.66,754.262 L 99.952,754.262 L 99.952,756.739 L 99.961,756.739 L 101.636,754.262 L 102.002,754.262 L 102.002,757.142 L 101.71,757.142 L 101.71,754.69 L 101.701,754.69 L 100.026,757.142 Z" marker-start="none" marker-end="none"/>
    </g>
   </g>
   <g id="Group_3" stroke-linejoin="miter" stroke-width="0.137">
    <g id="Group_4" fill="#003874">
     <path d="M 67.423,759.156 L 65.1,759.156 L 62.887,762.107 L 62.441,761.57 L 62.441,759.156 L 60.544,759.156 L 60.544,766.531 L 62.441,766.531 L 62.441,763.194 L 65.079,766.531 L 67.282,766.531 L 64.399,763.122 L 67.423,759.156 L 67.423,759.156 Z" marker-start="none" marker-end="none"/>
     <path d="M 69.773,759.156 L 67.987,759.156 L 67.987,764.716 L 69.773,764.716 L 69.773,759.156 L 69.773,759.156 M 69.825,765.507 L 67.937,765.507 L 67.937,766.866 L 69.825,766.866 L 69.825,765.507 L 69.825,765.507 Z" marker-start="none" marker-end="none"/>
     <path d="M 80.058,764.716 L 78.333,759.156 L 76.436,759.156 L 75.299,762.91 L 74.184,759.156 L 72.267,759.156 L 70.562,764.716 L 72.439,764.716 L 73.383,760.88 L 74.57,764.716 L 76.153,764.716 L 77.288,760.88 L 78.224,764.716 L 80.058,764.716 L 80.058,764.716 Z" marker-start="none" marker-end="none"/>
     <path d="M 84.124,761.762 C 83.635,761.722 82.985,761.652 82.703,761.559 C 82.346,761.448 82.155,761.246 82.155,760.89 C 82.155,760.657 82.175,760.536 82.326,760.402 C 82.49,760.271 82.65,760.21 83.099,760.21 C 83.453,760.21 83.847,760.363 84.124,760.607 L 84.124,761.762 L 84.124,761.762 M 84.124,759.744 C 83.93,759.591 83.615,759.358 83.364,759.237 C 83.007,759.084 82.65,759.003 82.206,759.003 C 81.667,759.003 81.222,759.165 80.866,759.489 C 80.51,759.825 80.338,760.242 80.338,760.749 C 80.338,761.559 80.723,762.056 81.383,762.351 C 82.043,762.645 83.078,762.758 84.133,762.808 L 84.133,762.837 C 84.133,763.457 83.626,763.65 82.65,763.65 C 82.357,763.65 82.032,763.599 81.696,763.498 C 81.363,763.397 81.129,763.315 80.987,763.254 L 80.825,763.254 L 80.825,764.603 C 81.018,764.654 81.322,764.705 81.738,764.776 C 82.166,764.847 82.591,764.878 83.017,764.878 C 85.047,764.878 85.889,764.279 85.889,762.939 L 85.889,759.156 L 84.124,759.156 L 84.124,759.744 L 84.124,759.744 Z" marker-start="none" marker-end="none"/>
     <path d="M 92.712,759.156 L 90.915,759.156 L 90.915,761.915 C 90.915,762.361 90.874,762.868 90.762,763.081 C 90.632,763.325 90.398,763.427 89.942,763.427 C 89.617,763.427 89.302,763.336 88.906,763.102 L 88.906,759.156 L 87.122,759.156 L 87.122,764.716 L 88.906,764.716 L 88.906,764.106 C 89.546,764.594 90.073,764.867 90.792,764.867 C 92.002,764.867 92.712,764.169 92.712,762.776 L 92.712,759.156 L 92.712,759.156 Z" marker-start="none" marker-end="none"/>
     <path d="M 95.705,759.156 L 93.92,759.156 L 93.92,764.716 L 95.705,764.716 L 95.705,759.156 L 95.705,759.156 M 95.756,765.507 L 93.869,765.507 L 93.869,766.866 L 95.756,766.866 L 95.756,765.507 L 95.756,765.507 Z" marker-start="none" marker-end="none"/>
     <g id="Group_5">
      <path d="M 101.225,759.53 C 100.708,759.175 100.008,759.003 99.117,759.003 C 98.133,759.003 97.289,759.215 96.791,759.45 L 96.791,760.91 L 96.955,760.91 C 97.147,760.788 97.33,760.636 97.766,760.464 C 98.133,760.311 98.619,760.19 99.146,760.19 C 99.846,760.19 100.181,760.352 100.181,760.646 C 100.181,760.921 100.029,761.012 99.471,761.123 C 99.197,761.174 98.68,761.235 98.315,761.346 C 97.3,761.6 96.823,762.179 96.823,763.001 C 96.823,763.539 97.076,763.974 97.583,764.331 C 98.09,764.685 98.781,764.867 99.664,764.867 C 100.486,764.867 101.316,764.674 101.754,764.472 L 101.754,763.072 L 101.601,763.072 C 101.062,763.437 100.353,763.68 99.664,763.68 C 99.095,763.68 98.649,763.518 98.649,763.223 C 98.649,762.97 98.75,762.848 99.41,762.717 C 99.774,762.645 100.213,762.575 100.627,762.483 C 101.56,762.24 102.008,761.702 102.008,760.921 C 102.008,760.343 101.742,759.885 101.225,759.53"/>
      <path d="M 102.522,764.391 C 102.589,764.391 102.648,764.394 102.648,764.474 C 102.648,764.538 102.589,764.551 102.536,764.551 L 102.429,764.551 L 102.429,764.391 L 102.522,764.391 L 102.522,764.391 M 102.429,764.099 L 102.349,764.099 L 102.349,764.618 L 102.547,764.618 C 102.668,764.618 102.729,764.572 102.729,764.47 C 102.729,764.377 102.673,764.336 102.596,764.326 L 102.743,764.099 L 102.655,764.099 L 102.518,764.323 L 102.429,764.323 L 102.429,764.099 L 102.429,764.099 M 102.523,763.983 C 102.728,763.983 102.888,764.142 102.888,764.358 C 102.888,764.572 102.728,764.732 102.523,764.732 C 102.316,764.732 102.158,764.572 102.158,764.358 C 102.158,764.142 102.316,763.983 102.523,763.983 M 102.067,764.358 C 102.067,764.618 102.276,764.806 102.523,764.806 C 102.769,764.806 102.976,764.618 102.976,764.358 C 102.976,764.099 102.769,763.909 102.523,763.909 C 102.276,763.909 102.067,764.099 102.067,764.358"/>
     </g>
    </g>
    <g id="Group_6">
     <path d="M 53.391,767.701 C 53.572,767.681 53.737,767.742 53.933,767.714 C 54.205,767.714 54.423,767.562 54.658,767.455 C 54.732,767.422 54.825,767.473 54.904,767.439 C 55.235,767.385 55.494,767.16 55.756,766.935 C 56.159,766.867 56.341,766.609 56.549,766.3 C 56.966,766.093 57.233,765.622 57.34,765.309 C 57.621,765.021 57.762,764.67 57.772,764.278 C 57.796,764.118 57.919,763.999 57.968,763.85 C 58.067,763.611 58.047,763.312 57.998,763.053 C 58.108,762.717 58.125,762.302 57.937,761.995 C 57.899,761.808 57.944,761.559 57.874,761.369 C 57.841,761.094 57.587,760.91 57.527,760.641 C 57.459,760.414 57.388,760.172 57.178,760.012 C 57.011,759.885 56.934,759.712 56.855,759.545 C 56.825,759.509 56.779,759.484 56.762,759.437 C 56.583,759.328 56.447,759.124 56.228,759.109 C 56.237,758.924 55.872,758.64 55.526,758.504 C 55.398,758.454 55.257,758.43 55.124,758.382 C 54.808,758.158 54.43,758.079 54.018,758.09 C 53.772,758.012 53.518,757.95 53.239,757.939 C 53.019,757.916 52.86,758.093 52.634,758.021 C 52.231,757.974 51.918,758.151 51.591,758.297 C 51.241,758.314 50.928,758.45 50.702,758.736 C 50.499,758.838 50.255,758.845 50.093,759.042 C 49.95,759.174 49.875,759.351 49.76,759.498 C 49.421,759.678 49.122,760.015 49.003,760.372 C 48.875,760.525 48.718,760.678 48.67,760.869 C 48.542,761.073 48.618,761.359 48.484,761.559 C 48.302,761.839 48.223,762.222 48.323,762.557 C 48.33,762.744 48.239,762.911 48.229,763.097 C 48.202,763.36 48.309,763.602 48.402,763.832 C 48.332,764.225 48.487,764.584 48.724,764.88 C 48.783,765.21 48.947,765.507 49.212,765.748 C 49.4,765.962 49.462,766.249 49.718,766.41 C 49.816,766.516 49.96,766.54 50.071,766.627 C 50.211,766.677 50.289,766.819 50.4,766.919 C 50.488,767.002 50.589,767.102 50.695,767.163 C 50.963,767.232 51.22,767.327 51.452,767.48 C 51.701,767.59 51.976,767.629 52.265,767.633 C 52.574,767.833 53.051,767.833 53.391,767.701 L 53.391,767.701 Z" fill="#003874" marker-start="none" marker-end="none"/>
     <path d="M 48.796,762.865 C 48.796,760.484 50.75,758.549 53.153,758.549 C 55.555,758.549 57.51,760.484 57.51,762.865 C 57.51,765.245 55.555,767.182 53.153,767.182 C 50.75,767.182 48.796,765.245 48.796,762.865 M 48.945,762.865 C 48.945,765.164 50.833,767.035 53.153,767.035 C 55.472,767.035 57.361,765.164 57.361,762.865 C 57.361,760.567 55.472,758.696 53.153,758.696 C 50.833,758.696 48.945,760.567 48.945,762.865 Z" fill="#b99e76" marker-start="none" marker-end="none"/>
     <g id="Group_7" fill="#b99e76">
      <path d="M 53.216,767.622 C 53.225,767.558 53.15,767.562 53.116,767.529 C 52.721,767.346 52.315,767.174 51.87,767.109 C 51.849,767.119 51.814,767.109 51.814,767.139 C 51.879,767.255 52.004,767.313 52.095,767.408 C 52.391,767.646 52.794,767.746 53.177,767.653 C 53.194,767.649 53.205,767.633 53.216,767.622 L 53.216,767.622 Z" marker-start="none" marker-end="none"/>
      <path d="M 54.336,767.507 C 54.355,767.482 54.394,767.462 54.379,767.426 C 54.049,767.313 53.706,767.293 53.346,767.255 C 53.198,767.249 53.023,767.238 52.881,767.286 C 52.854,767.293 52.854,767.323 52.876,767.341 C 53.137,767.476 53.404,767.591 53.704,767.629 C 53.923,767.629 54.142,767.586 54.336,767.507 L 54.336,767.507 Z" marker-start="none" marker-end="none"/>
      <path d="M 52.04,767.511 L 52.018,767.455 C 51.66,767.122 51.286,766.826 50.856,766.666 C 50.847,766.666 50.842,766.677 50.832,766.674 C 50.826,766.742 50.88,766.806 50.928,766.858 C 51.165,767.232 51.536,767.48 51.948,767.541 C 51.979,767.529 52.02,767.548 52.04,767.511 L 52.04,767.511 Z" marker-start="none" marker-end="none"/>
      <path d="M 55.481,767.028 C 55.483,767.007 55.477,766.987 55.456,766.979 C 54.936,766.996 54.716,767.02 54.311,767.126 C 54.245,767.156 54.056,767.163 53.996,767.21 C 53.985,767.253 54.034,767.263 54.058,767.271 C 54.466,767.367 54.983,767.412 55.325,767.143 C 55.381,767.113 55.442,767.085 55.481,767.028 L 55.481,767.028 Z" marker-start="none" marker-end="none"/>
      <path d="M 51.005,767.089 C 50.663,766.727 50.445,766.237 49.983,766.006 L 49.96,766.006 C 49.943,766.13 50.028,766.228 50.071,766.336 C 50.239,766.687 50.579,767.028 50.955,767.139 L 51.005,767.132 L 51.005,767.089 L 51.005,767.089 Z" marker-start="none" marker-end="none"/>
      <path d="M 55.635,766.88 C 55.934,766.823 56.215,766.643 56.393,766.374 C 56.401,766.347 56.387,766.313 56.356,766.32 C 55.869,766.442 55.404,766.661 54.98,766.895 C 54.958,766.919 54.985,766.946 55.01,766.949 C 55.218,766.946 55.429,766.912 55.635,766.88 L 55.635,766.88 Z" marker-start="none" marker-end="none"/>
      <path d="M 50.053,766.489 C 50.028,766.394 49.977,766.308 49.929,766.228 C 49.727,765.888 49.675,765.476 49.353,765.197 C 49.322,765.183 49.332,765.221 49.322,765.234 C 49.328,765.742 49.548,766.224 50.002,766.507 C 50.022,766.507 50.05,766.516 50.053,766.489 L 50.053,766.489 Z" marker-start="none" marker-end="none"/>
      <path d="M 56.618,766.141 C 56.858,765.991 57.118,765.76 57.166,765.482 C 57.149,765.455 57.121,765.482 57.098,765.482 C 56.697,765.729 56.253,765.943 55.936,766.331 C 55.926,766.339 55.934,766.356 55.93,766.369 C 55.995,766.39 56.068,766.356 56.129,766.339 C 56.291,766.268 56.466,766.237 56.618,766.141 L 56.618,766.141 Z" marker-start="none" marker-end="none"/>
      <path d="M 49.287,765.618 C 49.243,765.244 49.19,764.87 49.043,764.537 C 49.016,764.422 48.988,764.309 48.903,764.217 C 48.868,764.21 48.868,764.25 48.857,764.27 C 48.783,764.789 48.868,765.299 49.236,765.656 C 49.266,765.667 49.277,765.642 49.287,765.618 L 49.287,765.618 Z" marker-start="none" marker-end="none"/>
      <path d="M 57.016,765.411 C 57.364,765.203 57.59,764.85 57.627,764.469 C 57.621,764.449 57.597,764.435 57.58,764.452 C 57.244,764.802 56.866,765.145 56.66,765.554 C 56.66,765.568 56.656,765.582 56.671,765.589 C 56.8,765.568 56.9,765.472 57.016,765.411 L 57.016,765.411 Z" marker-start="none" marker-end="none"/>
      <path d="M 57.405,764.517 C 57.693,764.225 57.923,763.922 57.919,763.506 C 57.91,763.444 57.944,763.379 57.89,763.343 L 57.865,763.349 C 57.597,763.758 57.349,764.176 57.202,764.636 L 57.209,764.683 C 57.302,764.676 57.34,764.575 57.405,764.517 L 57.405,764.517 Z" marker-start="none" marker-end="none"/>
      <path d="M 48.705,764.61 C 48.745,764.192 48.808,763.743 48.721,763.331 C 48.716,763.308 48.705,763.27 48.678,763.263 C 48.455,763.66 48.423,764.236 48.668,764.635 C 48.684,764.644 48.698,764.624 48.705,764.61 L 48.705,764.61 Z" marker-start="none" marker-end="none"/>
      <path d="M 57.672,763.496 C 57.916,763.124 58.073,762.628 57.906,762.179 C 57.895,762.16 57.872,762.155 57.859,762.166 C 57.686,762.624 57.556,763.101 57.525,763.618 C 57.531,763.632 57.531,763.656 57.549,763.659 C 57.614,763.624 57.632,763.55 57.672,763.496 L 57.672,763.496 Z" marker-start="none" marker-end="none"/>
      <path d="M 48.455,763.498 C 48.551,763.061 48.738,762.668 48.709,762.181 C 48.633,762.171 48.633,762.276 48.579,762.314 C 48.483,762.453 48.451,762.613 48.379,762.762 C 48.312,762.95 48.328,763.171 48.341,763.369 C 48.371,763.416 48.379,763.699 48.455,763.498 L 48.455,763.498 Z" marker-start="none" marker-end="none"/>
      <path d="M 57.672,762.454 C 57.827,762.056 57.919,761.533 57.684,761.144 C 57.658,761.117 57.638,761.083 57.597,761.083 L 57.58,761.101 C 57.521,761.44 57.508,761.816 57.541,762.179 C 57.556,762.298 57.536,762.438 57.61,762.526 C 57.648,762.522 57.652,762.478 57.672,762.454 L 57.672,762.454 Z" marker-start="none" marker-end="none"/>
      <path d="M 48.404,762.468 C 48.637,762.036 48.916,761.626 49.028,761.144 C 49.035,761.124 49.022,761.108 48.997,761.115 C 48.771,761.305 48.558,761.533 48.496,761.809 C 48.391,761.992 48.373,762.213 48.371,762.438 C 48.373,762.452 48.386,762.473 48.404,762.468 L 48.404,762.468 Z" marker-start="none" marker-end="none"/>
      <path d="M 57.462,761.388 C 57.491,761.232 57.484,761.049 57.494,760.888 C 57.459,760.738 57.439,760.582 57.371,760.446 C 57.284,760.309 57.213,760.143 57.062,760.055 C 57.047,760.055 57.038,760.055 57.031,760.069 C 57.062,760.425 57.13,760.769 57.233,761.096 C 57.278,761.232 57.336,761.357 57.412,761.481 C 57.457,761.481 57.453,761.422 57.462,761.388 L 57.462,761.388 Z" marker-start="none" marker-end="none"/>
      <path d="M 48.741,761.206 C 49.111,760.921 49.421,760.56 49.637,760.172 C 49.641,760.155 49.637,760.134 49.619,760.134 C 49.209,760.298 48.816,760.686 48.703,761.115 C 48.699,761.144 48.683,761.233 48.741,761.206 L 48.741,761.206 Z" marker-start="none" marker-end="none"/>
      <path d="M 56.999,760.491 C 56.966,760.017 56.831,759.544 56.382,759.288 C 56.353,759.278 56.316,759.282 56.306,759.313 C 56.453,759.738 56.639,760.145 56.946,760.506 C 56.961,760.528 56.999,760.521 56.999,760.491 L 56.999,760.491 Z" marker-start="none" marker-end="none"/>
      <path d="M 50.071,759.705 C 50.166,759.596 50.3,759.529 50.369,759.406 C 50.334,759.365 50.289,759.399 50.248,759.399 C 50.111,759.461 49.954,759.477 49.823,759.563 C 49.589,759.695 49.353,759.896 49.259,760.15 C 49.263,760.172 49.263,760.203 49.29,760.203 C 49.568,760.08 49.812,759.876 50.071,759.705 L 50.071,759.705 Z" marker-start="none" marker-end="none"/>
      <path d="M 56.336,759.676 C 56.291,759.47 56.206,759.286 56.11,759.103 C 55.928,758.834 55.65,758.687 55.378,758.579 C 55.358,758.582 55.331,758.569 55.317,758.59 C 55.342,758.696 55.434,758.774 55.502,758.859 C 55.701,759.181 55.986,759.466 56.299,759.692 C 56.316,759.692 56.326,759.684 56.336,759.676 L 56.336,759.676 Z" marker-start="none" marker-end="none"/>
      <path d="M 50.773,759.133 C 50.948,759.053 51.114,758.943 51.282,758.849 C 51.282,758.834 51.307,758.824 51.289,758.811 C 51.032,758.777 50.78,758.834 50.554,758.903 C 50.346,759.015 50.09,759.124 49.977,759.362 C 49.974,759.376 49.983,759.389 49.997,759.392 C 50.269,759.338 50.513,759.215 50.773,759.133 L 50.773,759.133 Z" marker-start="none" marker-end="none"/>
      <path d="M 52.312,758.521 C 52.339,758.504 52.347,758.466 52.308,758.457 C 51.955,758.371 51.519,758.341 51.196,758.504 C 51.1,758.549 50.987,758.6 50.928,758.703 C 50.966,758.736 51.028,758.709 51.073,758.726 C 51.508,758.716 51.931,758.667 52.312,758.521 L 52.312,758.521 Z" marker-start="none" marker-end="none"/>
      <path d="M 54.481,758.609 C 54.377,758.447 54.192,758.373 54.048,758.254 C 53.765,758.101 53.405,758.026 53.072,758.108 C 53.049,758.111 53.038,758.15 53.058,758.164 C 53.485,758.38 53.928,758.553 54.408,758.636 C 54.436,758.636 54.463,758.636 54.481,758.609 L 54.481,758.609 Z" marker-start="none" marker-end="none"/>
      <path d="M 53.37,758.43 C 53.398,758.417 53.4,758.389 53.377,758.368 C 53.017,758.191 52.576,758.013 52.154,758.168 C 52.079,758.191 52.006,758.216 51.941,758.266 C 51.934,758.293 51.958,758.317 51.979,758.32 C 52.432,758.402 52.895,758.493 53.37,758.43 L 53.37,758.43 Z" marker-start="none" marker-end="none"/>
      <path d="M 55.502,759.037 L 55.492,758.977 C 55.214,758.579 54.812,758.232 54.321,758.198 C 54.301,758.205 54.269,758.205 54.258,758.236 C 54.359,758.378 54.516,758.46 54.651,758.565 C 54.898,758.774 55.18,758.927 55.464,759.049 C 55.478,759.049 55.494,759.053 55.502,759.037 L 55.502,759.037 Z" marker-start="none" marker-end="none"/>
     </g>
     <g id="Group_8" fill="#ffffff">
      <path d="M 51.227,765.482 C 51.246,765.46 51.253,765.44 51.245,765.421 C 51.238,765.403 51.216,765.377 51.179,765.345 C 51.15,765.318 51.121,765.293 51.095,765.271 C 51.069,765.249 51.044,765.228 51.021,765.208 L 50.727,765.257 C 50.713,765.26 50.704,765.262 50.701,765.262 C 50.693,765.262 50.686,765.257 50.677,765.251 C 50.663,765.237 50.663,765.219 50.683,765.197 C 50.701,765.178 50.724,765.165 50.754,765.154 C 50.761,765.151 50.773,765.152 50.795,765.156 C 50.812,765.158 50.826,765.152 50.836,765.139 C 50.849,765.125 50.853,765.109 50.849,765.085 C 50.842,765.063 50.834,765.044 50.82,765.032 L 50.655,764.885 C 50.634,764.865 50.612,764.853 50.589,764.847 C 50.561,764.839 50.539,764.844 50.523,764.863 C 50.516,764.872 50.513,764.884 50.515,764.898 C 50.515,764.908 50.517,764.921 50.522,764.938 C 50.506,764.97 50.481,765.008 50.45,765.048 C 50.42,765.089 50.387,765.128 50.351,765.167 C 50.313,765.21 50.277,765.245 50.248,765.273 C 50.218,765.299 50.195,765.318 50.177,765.327 C 50.144,765.311 50.116,765.314 50.093,765.336 C 50.077,765.352 50.075,765.377 50.084,765.407 C 50.095,765.436 50.114,765.464 50.142,765.488 L 50.259,765.593 C 50.278,765.609 50.3,765.621 50.326,765.627 C 50.35,765.634 50.371,765.629 50.386,765.612 C 50.394,765.603 50.4,765.593 50.402,765.58 C 50.404,765.567 50.403,765.552 50.396,765.536 C 50.403,765.518 50.412,765.5 50.422,765.482 C 50.433,765.464 50.443,765.45 50.454,765.439 C 50.465,765.425 50.474,765.422 50.479,765.428 C 50.495,765.444 50.504,765.475 50.504,765.515 C 50.504,765.557 50.497,765.591 50.481,765.618 L 50.432,765.641 C 50.41,765.66 50.406,765.686 50.419,765.716 C 50.428,765.74 50.447,765.764 50.476,765.79 L 50.603,765.903 C 50.62,765.917 50.639,765.925 50.661,765.927 C 50.684,765.93 50.703,765.924 50.715,765.91 C 50.735,765.888 50.735,765.863 50.711,765.834 C 50.69,765.807 50.667,765.781 50.647,765.755 C 50.636,765.721 50.631,765.683 50.631,765.646 C 50.631,765.604 50.638,765.575 50.652,765.56 C 50.657,765.554 50.69,765.547 50.749,765.537 C 50.79,765.531 50.855,765.522 50.945,765.512 C 51.018,765.505 51.082,765.498 51.141,765.493 C 51.161,765.503 51.179,765.507 51.19,765.504 C 51.201,765.503 51.214,765.495 51.227,765.482 L 51.227,765.482 Z" marker-start="none" marker-end="none"/>
      <path d="M 51.701,765.775 C 51.715,765.753 51.705,765.725 51.668,765.692 C 51.645,765.671 51.607,765.646 51.556,765.614 L 51.523,765.596 C 51.473,765.564 51.433,765.545 51.405,765.54 C 51.361,765.529 51.331,765.538 51.312,765.569 C 51.305,765.58 51.307,765.594 51.316,765.612 C 51.34,765.651 51.341,765.684 51.325,765.714 C 51.31,765.736 51.289,765.773 51.262,765.824 C 51.234,765.874 51.213,765.91 51.198,765.935 L 51.187,765.954 L 51.179,765.969 C 51.154,766.006 51.136,766.034 51.12,766.051 C 51.105,766.071 51.076,766.084 51.037,766.089 C 51.018,766.091 51.006,766.097 51,766.107 C 50.987,766.128 50.989,766.151 51.006,766.176 C 51.028,766.208 51.072,766.243 51.142,766.284 L 51.179,766.307 C 51.227,766.334 51.262,766.354 51.284,766.359 C 51.321,766.369 51.347,766.359 51.363,766.333 C 51.373,766.317 51.374,766.301 51.369,766.282 C 51.359,766.24 51.354,766.215 51.359,766.206 C 51.373,766.183 51.389,766.155 51.407,766.123 C 51.446,766.046 51.471,766 51.482,765.981 C 51.492,765.964 51.508,765.938 51.531,765.906 C 51.556,765.874 51.571,765.85 51.578,765.838 C 51.589,765.827 51.609,765.818 51.641,765.809 C 51.672,765.803 51.692,765.791 51.701,765.775 L 51.701,765.775 Z" marker-start="none" marker-end="none"/>
      <path d="M 53.817,766.056 C 53.816,766.028 53.798,766.008 53.763,765.997 C 53.729,765.987 53.672,765.984 53.596,765.987 C 53.511,765.993 53.446,766 53.403,766.01 C 53.359,766.02 53.338,766.039 53.339,766.069 C 53.34,766.087 53.357,766.103 53.39,766.115 C 53.405,766.121 53.413,766.13 53.413,766.141 C 53.415,766.163 53.403,766.18 53.377,766.187 C 53.35,766.195 53.316,766.2 53.267,766.203 L 53.236,766.204 C 53.183,766.208 53.148,766.206 53.133,766.199 C 53.119,766.193 53.111,766.176 53.11,766.15 C 53.11,766.14 53.12,766.13 53.144,766.121 C 53.168,766.11 53.179,766.096 53.179,766.078 C 53.175,766.033 53.119,766.013 53.007,766.018 C 52.942,766.022 52.895,766.029 52.871,766.039 C 52.845,766.05 52.833,766.069 52.833,766.093 C 52.834,766.107 52.839,766.117 52.845,766.126 C 52.851,766.134 52.863,766.138 52.878,766.136 C 52.904,766.135 52.943,766.176 52.993,766.26 C 53.031,766.323 53.073,766.406 53.116,766.507 C 53.157,766.599 53.177,766.657 53.179,766.681 C 53.184,766.778 53.229,766.825 53.314,766.821 C 53.386,766.816 53.453,766.753 53.52,766.628 C 53.55,766.576 53.598,766.462 53.666,766.286 C 53.716,766.162 53.751,766.101 53.776,766.1 C 53.805,766.097 53.818,766.083 53.817,766.056 L 53.817,766.056 M 53.362,766.35 C 53.362,766.368 53.352,766.397 53.329,766.44 C 53.305,766.483 53.289,766.505 53.276,766.505 C 53.264,766.506 53.246,766.486 53.224,766.446 C 53.203,766.403 53.192,766.377 53.191,766.361 C 53.191,766.355 53.2,766.35 53.217,766.344 C 53.236,766.341 53.256,766.336 53.278,766.336 C 53.305,766.334 53.323,766.334 53.338,766.336 C 53.352,766.338 53.361,766.343 53.362,766.35 L 53.362,766.35 Z" marker-start="none" marker-end="none"/>
      <path d="M 55.01,766.286 C 55.001,766.264 54.98,766.249 54.943,766.243 C 54.923,766.24 54.911,766.234 54.904,766.226 C 54.884,766.195 54.862,766.156 54.842,766.11 C 54.822,766.062 54.798,766.004 54.771,765.93 C 54.724,765.803 54.691,765.724 54.667,765.694 C 54.645,765.662 54.622,765.651 54.6,765.66 C 54.578,765.668 54.543,765.714 54.501,765.798 C 54.459,765.874 54.42,765.951 54.382,766.029 C 54.336,766.114 54.302,766.16 54.279,766.168 C 54.269,766.172 54.258,766.167 54.249,766.154 C 54.239,766.141 54.231,766.124 54.222,766.101 C 54.211,766.076 54.206,766.05 54.201,766.024 C 54.198,765.997 54.197,765.975 54.199,765.956 C 54.212,765.941 54.223,765.928 54.229,765.917 C 54.236,765.901 54.237,765.888 54.232,765.874 C 54.22,765.854 54.201,765.841 54.175,765.837 C 54.142,765.833 54.099,765.841 54.045,765.86 C 54.006,765.874 53.976,765.891 53.951,765.91 C 53.923,765.936 53.911,765.959 53.921,765.982 C 53.925,765.993 53.935,766.002 53.951,766.009 C 53.953,766.01 53.971,766.016 54.001,766.028 C 54.027,766.069 54.048,766.107 54.066,766.147 C 54.085,766.187 54.103,766.227 54.118,766.268 C 54.133,766.308 54.144,766.347 54.152,766.381 C 54.16,766.419 54.164,766.457 54.166,766.502 C 54.164,766.506 54.154,766.52 54.133,766.547 C 54.119,766.566 54.115,766.58 54.119,766.592 C 54.129,766.621 54.157,766.633 54.199,766.63 C 54.231,766.628 54.269,766.621 54.316,766.603 C 54.324,766.601 54.331,766.599 54.339,766.596 C 54.346,766.594 54.355,766.59 54.362,766.588 C 54.382,766.581 54.399,766.57 54.414,766.556 C 54.428,766.544 54.444,766.52 54.46,766.489 C 54.488,766.434 54.516,766.379 54.546,766.325 C 54.578,766.262 54.601,766.221 54.613,766.202 C 54.632,766.168 54.648,766.151 54.658,766.147 C 54.679,766.139 54.699,766.157 54.715,766.202 C 54.721,766.216 54.725,766.233 54.727,766.246 C 54.732,766.262 54.734,766.275 54.736,766.287 C 54.738,766.3 54.73,766.315 54.712,766.334 C 54.695,766.356 54.689,766.375 54.696,766.394 C 54.705,766.421 54.732,766.433 54.774,766.429 C 54.8,766.427 54.83,766.421 54.867,766.408 C 54.875,766.403 54.879,766.403 54.879,766.401 C 54.882,766.401 54.882,766.401 54.884,766.401 C 54.887,766.401 54.889,766.399 54.892,766.399 C 54.898,766.397 54.902,766.394 54.909,766.394 C 54.941,766.381 54.965,766.369 54.983,766.356 C 55.01,766.334 55.02,766.31 55.01,766.286 L 55.01,766.286 Z" marker-start="none" marker-end="none"/>
      <path d="M 55.213,765.358 C 55.196,765.338 55.167,765.338 55.122,765.358 C 55.094,765.371 55.056,765.396 55.008,765.432 L 54.976,765.455 C 54.929,765.49 54.897,765.519 54.879,765.544 C 54.854,765.58 54.851,765.609 54.873,765.639 C 54.882,765.65 54.895,765.655 54.915,765.651 C 54.96,765.646 54.994,765.656 55.013,765.683 C 55.03,765.705 55.056,765.737 55.093,765.781 C 55.129,765.827 55.156,765.859 55.174,765.882 L 55.187,765.898 L 55.196,765.913 C 55.223,765.948 55.242,765.975 55.254,765.997 C 55.266,766.018 55.268,766.049 55.256,766.087 C 55.253,766.106 55.253,766.119 55.26,766.128 C 55.275,766.148 55.297,766.155 55.327,766.148 C 55.364,766.141 55.414,766.112 55.479,766.064 L 55.513,766.039 C 55.558,766.004 55.588,765.979 55.602,765.961 C 55.624,765.93 55.627,765.903 55.607,765.876 C 55.596,765.863 55.582,765.855 55.562,765.853 C 55.518,765.849 55.493,765.843 55.487,765.834 C 55.47,765.813 55.451,765.788 55.427,765.761 C 55.369,765.695 55.335,765.655 55.322,765.638 C 55.311,765.622 55.294,765.598 55.27,765.564 C 55.249,765.531 55.234,765.508 55.225,765.497 C 55.218,765.482 55.216,765.459 55.223,765.429 C 55.227,765.397 55.224,765.374 55.213,765.358 L 55.213,765.358 Z" marker-start="none" marker-end="none"/>
      <path d="M 55.956,764.878 C 55.895,764.822 55.822,764.804 55.737,764.818 C 55.653,764.835 55.575,764.882 55.502,764.961 C 55.41,765.063 55.363,765.15 55.363,765.221 C 55.363,765.279 55.395,765.336 55.458,765.392 C 55.49,765.422 55.516,765.424 55.537,765.401 C 55.548,765.39 55.546,765.348 55.53,765.275 C 55.515,765.203 55.533,765.141 55.582,765.085 C 55.602,765.065 55.62,765.053 55.64,765.046 C 55.659,765.041 55.675,765.042 55.687,765.051 C 55.703,765.067 55.7,765.109 55.676,765.176 C 55.644,765.271 55.626,765.338 55.62,765.376 C 55.613,765.459 55.636,765.524 55.691,765.573 C 55.75,765.623 55.817,765.643 55.897,765.633 C 55.979,765.621 56.049,765.582 56.112,765.512 C 56.13,765.491 56.147,765.469 56.161,765.442 C 56.175,765.416 56.19,765.39 56.206,765.36 C 56.209,765.356 56.217,765.351 56.229,765.345 C 56.241,765.34 56.248,765.336 56.253,765.329 C 56.274,765.307 56.276,765.271 56.261,765.22 C 56.248,765.174 56.229,765.141 56.203,765.118 C 56.187,765.104 56.17,765.096 56.149,765.095 C 56.129,765.094 56.113,765.101 56.101,765.115 C 56.087,765.131 56.08,765.171 56.08,765.236 C 56.079,765.302 56.065,765.349 56.037,765.377 C 56.024,765.394 56.008,765.403 55.99,765.407 C 55.976,765.41 55.962,765.405 55.947,765.392 C 55.926,765.372 55.928,765.331 55.956,765.266 C 55.997,765.17 56.021,765.107 56.026,765.076 C 56.039,764.997 56.015,764.932 55.956,764.878 L 55.956,764.878 Z" marker-start="none" marker-end="none"/>
      <path d="M 52.735,766.752 C 52.739,766.739 52.732,766.72 52.717,766.695 C 52.701,766.674 52.691,766.637 52.685,766.585 L 52.626,766.115 C 52.618,766.051 52.608,766.01 52.598,765.988 C 52.587,765.968 52.57,765.955 52.546,765.949 C 52.507,765.938 52.466,765.961 52.42,766.015 C 52.406,766.031 52.371,766.084 52.313,766.169 C 52.278,766.224 52.249,766.251 52.231,766.247 C 52.215,766.242 52.204,766.208 52.197,766.141 C 52.187,766.034 52.18,765.971 52.177,765.954 C 52.161,765.885 52.133,765.846 52.094,765.835 C 52.071,765.83 52.051,765.83 52.033,765.837 C 52.018,765.846 52,765.863 51.982,765.888 L 51.645,766.357 C 51.627,766.384 51.606,766.401 51.58,766.403 C 51.562,766.408 51.549,766.422 51.543,766.447 C 51.538,766.471 51.549,766.493 51.578,766.513 C 51.607,766.536 51.652,766.554 51.714,766.569 C 51.788,766.587 51.84,766.596 51.87,766.592 C 51.899,766.59 51.918,766.574 51.924,766.547 C 51.926,766.54 51.924,766.525 51.918,766.5 C 51.914,766.489 51.914,766.48 51.917,766.473 C 51.92,766.457 51.941,766.423 51.979,766.369 C 52.022,766.305 52.051,766.276 52.064,766.279 C 52.082,766.284 52.094,766.313 52.096,766.364 C 52.096,766.381 52.096,766.408 52.094,766.442 C 52.087,766.464 52.066,766.486 52.028,766.503 C 51.991,766.522 51.971,766.54 51.966,766.558 C 51.955,766.604 52.02,766.646 52.163,766.68 C 52.235,766.698 52.289,766.705 52.322,766.703 C 52.357,766.702 52.378,766.689 52.384,766.666 C 52.386,766.655 52.38,766.637 52.363,766.612 C 52.356,766.599 52.352,766.588 52.354,766.578 C 52.362,766.551 52.386,766.513 52.43,766.466 C 52.473,766.421 52.499,766.399 52.509,766.401 C 52.523,766.403 52.533,766.436 52.54,766.496 C 52.549,766.556 52.55,766.599 52.544,766.621 C 52.541,766.634 52.527,766.642 52.5,766.646 C 52.475,766.649 52.459,766.661 52.453,766.687 C 52.447,766.708 52.455,766.727 52.477,766.743 C 52.5,766.759 52.537,766.774 52.592,766.787 C 52.677,766.807 52.724,766.796 52.735,766.752 L 52.735,766.752 Z" marker-start="none" marker-end="none"/>
      <path d="M 49.254,763.277 C 49.228,763.28 49.215,763.306 49.21,763.353 C 49.209,763.383 49.211,763.426 49.219,763.485 L 49.224,763.521 C 49.232,763.577 49.243,763.618 49.256,763.645 C 49.274,763.683 49.299,763.699 49.334,763.696 C 49.348,763.693 49.357,763.683 49.364,763.665 C 49.379,763.624 49.404,763.602 49.438,763.597 C 49.463,763.593 49.503,763.586 49.559,763.577 C 49.614,763.567 49.656,763.559 49.683,763.557 L 49.703,763.554 L 49.721,763.552 C 49.763,763.545 49.797,763.541 49.821,763.544 C 49.844,763.544 49.871,763.557 49.9,763.583 C 49.914,763.595 49.925,763.602 49.935,763.6 C 49.96,763.596 49.976,763.58 49.984,763.552 C 49.994,763.517 49.994,763.461 49.983,763.385 L 49.979,763.344 C 49.97,763.29 49.962,763.252 49.954,763.232 C 49.938,763.198 49.916,763.185 49.883,763.188 C 49.868,763.191 49.854,763.199 49.842,763.214 C 49.817,763.25 49.801,763.268 49.79,763.27 C 49.764,763.273 49.734,763.279 49.698,763.286 C 49.616,763.303 49.565,763.312 49.544,763.316 C 49.525,763.319 49.496,763.321 49.456,763.324 C 49.417,763.327 49.391,763.329 49.377,763.331 C 49.362,763.331 49.342,763.32 49.317,763.301 C 49.292,763.281 49.27,763.274 49.254,763.277 L 49.254,763.277 Z" marker-start="none" marker-end="none"/>
      <path d="M 49.927,762.097 C 49.904,762.096 49.882,762.108 49.863,762.139 C 49.851,762.153 49.84,762.162 49.831,762.164 C 49.795,762.171 49.751,762.173 49.701,762.173 C 49.651,762.171 49.589,762.166 49.512,762.16 C 49.382,762.148 49.296,762.146 49.261,762.153 C 49.223,762.16 49.204,762.175 49.202,762.199 C 49.2,762.222 49.226,762.268 49.283,762.341 C 49.336,762.409 49.386,762.476 49.44,762.541 C 49.497,762.615 49.525,762.664 49.522,762.687 C 49.521,762.697 49.512,762.704 49.497,762.707 C 49.483,762.712 49.463,762.713 49.438,762.711 C 49.412,762.707 49.386,762.702 49.362,762.695 C 49.337,762.689 49.317,762.68 49.301,762.67 C 49.292,762.651 49.285,762.639 49.277,762.628 C 49.266,762.615 49.256,762.609 49.243,762.608 C 49.219,762.609 49.2,762.621 49.186,762.642 C 49.168,762.67 49.156,762.711 49.151,762.765 C 49.149,762.804 49.15,762.839 49.158,762.867 C 49.169,762.904 49.186,762.923 49.209,762.924 C 49.219,762.925 49.232,762.919 49.245,762.908 C 49.247,762.907 49.261,762.895 49.283,762.872 C 49.329,762.866 49.373,762.865 49.416,762.865 C 49.458,762.865 49.501,762.865 49.544,762.868 C 49.588,762.873 49.625,762.878 49.661,762.886 C 49.695,762.893 49.732,762.906 49.773,762.923 C 49.775,762.927 49.785,762.942 49.799,762.969 C 49.809,762.99 49.822,763.001 49.833,763.001 C 49.863,763.004 49.884,762.986 49.901,762.947 C 49.911,762.919 49.92,762.882 49.925,762.834 C 49.925,762.826 49.927,762.818 49.927,762.811 C 49.928,762.803 49.929,762.795 49.93,762.788 C 49.932,762.767 49.929,762.747 49.924,762.73 C 49.918,762.713 49.903,762.689 49.881,762.66 C 49.844,762.614 49.807,762.566 49.77,762.519 C 49.729,762.465 49.701,762.429 49.689,762.409 C 49.669,762.379 49.658,762.359 49.659,762.348 C 49.661,762.326 49.685,762.315 49.732,762.32 C 49.747,762.322 49.762,762.322 49.775,762.328 C 49.791,762.33 49.804,762.333 49.816,762.337 C 49.828,762.34 49.837,762.354 49.849,762.378 C 49.86,762.402 49.875,762.415 49.894,762.416 C 49.923,762.418 49.944,762.4 49.958,762.363 C 49.967,762.339 49.974,762.308 49.976,762.273 C 49.977,762.264 49.977,762.26 49.977,762.259 C 49.978,762.256 49.978,762.256 49.978,762.255 C 49.978,762.252 49.979,762.248 49.979,762.246 C 49.979,762.242 49.981,762.235 49.981,762.229 C 49.983,762.196 49.983,762.171 49.978,762.149 C 49.97,762.117 49.954,762.099 49.927,762.097 L 49.927,762.097 Z" marker-start="none" marker-end="none"/>
      <path d="M 50.462,760.199 C 50.438,760.181 50.401,760.164 50.35,760.149 C 50.29,760.131 50.252,760.132 50.237,760.152 C 50.23,760.162 50.221,760.174 50.211,760.189 C 50.189,760.224 50.174,760.248 50.166,760.257 L 49.864,760.626 C 49.837,760.657 49.837,760.682 49.864,760.703 C 49.876,760.713 49.895,760.713 49.918,760.703 C 49.941,760.693 49.965,760.693 49.988,760.704 C 50.013,760.716 50.04,760.733 50.071,760.751 C 50.098,760.773 50.133,760.798 50.174,760.829 C 50.287,760.921 50.353,760.986 50.371,761.024 C 50.376,761.035 50.375,761.05 50.367,761.072 C 50.36,761.094 50.364,761.111 50.378,761.123 C 50.397,761.137 50.414,761.14 50.428,761.131 C 50.445,761.123 50.469,761.101 50.501,761.062 L 50.683,760.84 C 50.721,760.794 50.753,760.758 50.779,760.733 C 50.8,760.714 50.821,760.695 50.842,760.678 C 50.856,760.661 50.856,760.635 50.844,760.601 C 50.831,760.567 50.809,760.537 50.777,760.513 C 50.736,760.479 50.703,760.477 50.677,760.509 C 50.666,760.524 50.663,760.542 50.673,760.567 C 50.691,760.62 50.672,760.684 50.609,760.76 C 50.586,760.789 50.566,760.805 50.552,760.809 C 50.537,760.814 50.52,760.807 50.499,760.789 L 50.423,760.73 C 50.404,760.715 50.396,760.703 50.396,760.695 C 50.397,760.687 50.407,760.668 50.428,760.644 C 50.446,760.623 50.471,760.621 50.508,760.641 C 50.543,760.661 50.569,760.662 50.586,760.643 C 50.599,760.627 50.598,760.604 50.582,760.576 C 50.568,760.548 50.539,760.518 50.499,760.484 C 50.456,760.452 50.419,760.43 50.386,760.421 C 50.351,760.413 50.328,760.415 50.313,760.432 C 50.302,760.446 50.309,760.468 50.334,760.5 C 50.358,760.529 50.358,760.56 50.333,760.591 C 50.322,760.604 50.311,760.61 50.298,760.607 C 50.287,760.607 50.269,760.595 50.246,760.577 C 50.19,760.533 50.16,760.502 50.155,760.484 C 50.149,760.465 50.163,760.437 50.196,760.397 C 50.257,760.322 50.317,760.288 50.38,760.294 C 50.443,760.298 50.478,760.296 50.486,760.289 C 50.495,760.275 50.499,760.261 50.495,760.244 C 50.49,760.228 50.478,760.213 50.462,760.199 L 50.462,760.199 Z" marker-start="none" marker-end="none"/>
      <path d="M 51.305,759.454 C 51.29,759.432 51.266,759.425 51.231,759.43 C 51.198,759.436 51.158,759.453 51.114,759.483 C 51.043,759.533 51.01,759.591 51.016,759.658 C 51.018,759.674 51.035,759.728 51.067,759.825 C 51.087,759.883 51.08,759.924 51.046,759.948 C 51.035,759.955 51.025,759.957 51.015,759.95 C 51.005,759.943 50.996,759.934 50.987,759.921 L 50.977,759.908 C 50.93,759.84 50.914,759.79 50.932,759.756 C 50.939,759.739 50.937,759.724 50.927,759.71 C 50.912,759.689 50.889,759.683 50.856,759.694 C 50.826,759.702 50.779,759.728 50.717,759.771 C 50.603,759.85 50.563,759.911 50.593,759.952 C 50.601,759.965 50.615,759.971 50.634,759.97 C 50.677,759.968 50.724,759.999 50.773,760.069 L 50.91,760.261 C 50.966,760.341 50.984,760.397 50.963,760.43 C 50.952,760.448 50.95,760.463 50.96,760.475 C 50.987,760.513 51.033,760.506 51.102,760.458 C 51.115,760.45 51.133,760.437 51.156,760.417 C 51.179,760.398 51.196,760.385 51.208,760.376 C 51.233,760.361 51.256,760.344 51.275,760.333 C 51.349,760.289 51.387,760.265 51.392,760.262 C 51.459,760.216 51.502,760.163 51.521,760.105 C 51.54,760.048 51.531,759.994 51.496,759.944 C 51.471,759.908 51.439,759.883 51.405,759.872 C 51.369,759.869 51.336,759.863 51.302,759.859 C 51.322,759.831 51.336,759.797 51.34,759.755 C 51.347,759.708 51.332,759.653 51.298,759.59 C 51.281,759.558 51.281,759.53 51.296,759.509 C 51.312,759.486 51.316,759.468 51.305,759.454 L 51.305,759.454 M 51.245,760.081 C 51.288,760.141 51.288,760.187 51.245,760.216 C 51.223,760.231 51.202,760.226 51.185,760.201 L 51.105,760.096 C 51.096,760.085 51.092,760.076 51.092,760.069 C 51.092,760.063 51.097,760.055 51.109,760.048 C 51.159,760.012 51.205,760.024 51.245,760.081 L 51.245,760.081 Z" marker-start="none" marker-end="none"/>
      <path d="M 52.646,759.637 C 52.639,759.615 52.618,759.6 52.582,759.593 C 52.563,759.59 52.552,759.584 52.546,759.575 C 52.525,759.544 52.506,759.505 52.487,759.461 C 52.47,759.414 52.45,759.356 52.426,759.284 C 52.385,759.159 52.354,759.08 52.334,759.051 C 52.313,759.019 52.291,759.007 52.269,759.015 C 52.246,759.022 52.213,759.065 52.166,759.145 C 52.125,759.219 52.084,759.291 52.042,759.365 C 51.997,759.448 51.962,759.491 51.94,759.498 C 51.93,759.502 51.92,759.497 51.911,759.483 C 51.901,759.472 51.893,759.453 51.885,759.43 C 51.878,759.405 51.872,759.381 51.868,759.355 C 51.867,759.33 51.867,759.309 51.868,759.291 C 51.883,759.275 51.892,759.263 51.899,759.252 C 51.906,759.237 51.908,759.223 51.903,759.211 C 51.893,759.191 51.874,759.178 51.849,759.174 C 51.816,759.168 51.775,759.174 51.722,759.191 C 51.684,759.203 51.653,759.219 51.63,759.237 C 51.6,759.26 51.591,759.283 51.598,759.306 C 51.6,759.315 51.609,759.325 51.625,759.332 C 51.627,759.333 51.645,759.342 51.674,759.354 C 51.697,759.392 51.717,759.43 51.734,759.469 C 51.751,759.509 51.766,759.549 51.779,759.59 C 51.792,759.63 51.802,759.669 51.808,759.701 C 51.815,759.736 51.818,759.775 51.82,759.818 C 51.816,759.823 51.806,759.837 51.786,759.861 C 51.771,759.877 51.764,759.892 51.769,759.905 C 51.778,759.931 51.804,759.946 51.845,759.944 C 51.877,759.944 51.914,759.937 51.959,759.923 C 51.968,759.921 51.976,759.917 51.982,759.915 C 51.991,759.912 51.999,759.911 52.006,759.909 C 52.025,759.903 52.042,759.892 52.056,759.881 C 52.071,759.868 52.087,759.846 52.105,759.816 C 52.133,759.762 52.163,759.71 52.193,759.658 C 52.226,759.598 52.249,759.559 52.263,759.542 C 52.283,759.51 52.298,759.493 52.308,759.49 C 52.329,759.483 52.348,759.502 52.362,759.545 C 52.367,759.559 52.37,759.574 52.372,759.589 C 52.377,759.603 52.378,759.617 52.379,759.628 C 52.381,759.641 52.374,759.656 52.354,759.676 C 52.338,759.695 52.331,759.714 52.338,759.73 C 52.346,759.758 52.37,759.771 52.411,759.769 C 52.437,759.768 52.466,759.762 52.501,759.751 C 52.51,759.748 52.514,759.747 52.515,759.747 C 52.517,759.745 52.518,759.745 52.518,759.745 C 52.521,759.744 52.525,759.743 52.527,759.742 C 52.532,759.739 52.537,759.739 52.544,759.738 C 52.576,759.728 52.6,759.717 52.617,759.703 C 52.645,759.684 52.654,759.662 52.646,759.637 L 52.646,759.637 Z" marker-start="none" marker-end="none"/>
      <path d="M 53.623,759.03 C 53.623,759.003 53.606,758.983 53.572,758.972 C 53.538,758.962 53.485,758.956 53.411,758.957 C 53.329,758.959 53.265,758.963 53.222,758.972 C 53.179,758.98 53.157,758.998 53.159,759.026 C 53.159,759.044 53.174,759.06 53.205,759.073 C 53.22,759.08 53.227,759.09 53.227,759.1 C 53.229,759.122 53.217,759.137 53.191,759.144 C 53.165,759.15 53.13,759.154 53.084,759.155 L 53.054,759.156 C 53,759.157 52.968,759.153 52.953,759.146 C 52.94,759.14 52.933,759.124 52.933,759.098 C 52.933,759.088 52.943,759.079 52.966,759.071 C 52.991,759.06 53.002,759.046 53.001,759.03 C 53,758.986 52.946,758.965 52.838,758.967 C 52.774,758.968 52.728,758.973 52.704,758.983 C 52.678,758.993 52.666,759.01 52.666,759.032 C 52.666,759.046 52.67,759.057 52.676,759.065 C 52.682,759.075 52.692,759.078 52.708,759.078 C 52.734,759.078 52.769,759.118 52.814,759.2 C 52.851,759.265 52.888,759.347 52.926,759.445 C 52.962,759.537 52.98,759.594 52.98,759.617 C 52.981,759.712 53.025,759.758 53.109,759.757 C 53.177,759.755 53.246,759.697 53.316,759.578 C 53.344,759.528 53.396,759.418 53.469,759.25 C 53.519,759.131 53.557,759.071 53.582,759.071 C 53.61,759.071 53.624,759.057 53.623,759.03 L 53.623,759.03 M 53.17,759.302 C 53.17,759.318 53.159,759.347 53.134,759.388 C 53.111,759.43 53.094,759.45 53.081,759.45 C 53.07,759.45 53.054,759.43 53.033,759.389 C 53.014,759.349 53.004,759.322 53.004,759.306 C 53.004,759.3 53.012,759.295 53.031,759.291 C 53.049,759.286 53.069,759.284 53.09,759.284 C 53.114,759.284 53.134,759.284 53.148,759.286 C 53.163,759.289 53.17,759.295 53.17,759.302 L 53.17,759.302 Z" marker-start="none" marker-end="none"/>
      <path d="M 54.47,759.762 C 54.478,759.738 54.475,759.717 54.464,759.695 C 54.455,759.674 54.438,759.661 54.416,759.653 C 54.378,759.643 54.345,759.654 54.315,759.688 C 54.285,759.721 54.255,759.735 54.226,759.726 C 54.218,759.724 54.22,759.695 54.231,759.638 C 54.243,759.582 54.256,759.524 54.273,759.466 C 54.284,759.428 54.295,759.398 54.303,759.378 C 54.311,759.356 54.328,759.328 54.348,759.291 C 54.355,759.281 54.371,759.273 54.401,759.271 C 54.429,759.269 54.448,759.258 54.452,759.238 C 54.458,759.213 54.448,759.19 54.42,759.165 C 54.391,759.142 54.336,759.119 54.253,759.096 C 54.187,759.077 54.135,759.066 54.099,759.064 C 54.042,759.062 54.008,759.078 53.998,759.113 C 53.995,759.126 54.004,759.144 54.025,759.165 C 54.049,759.187 54.06,759.204 54.058,759.215 C 54.056,759.255 54.051,759.286 54.046,759.315 C 54.042,759.345 54.034,759.375 54.027,759.405 C 54.018,759.432 54.012,759.459 54.006,759.478 C 54.001,759.498 53.997,759.517 53.992,759.535 C 53.982,759.571 53.971,759.598 53.961,759.616 C 53.95,759.634 53.937,759.642 53.919,759.637 C 53.91,759.634 53.895,759.609 53.876,759.559 C 53.857,759.512 53.832,759.483 53.8,759.473 C 53.783,759.469 53.766,759.473 53.751,759.488 C 53.737,759.502 53.727,759.519 53.72,759.541 C 53.71,759.578 53.711,759.622 53.725,759.674 C 53.739,759.734 53.765,759.769 53.803,759.779 C 53.809,759.782 53.819,759.782 53.832,759.782 C 53.845,759.781 53.857,759.781 53.863,759.782 L 54.244,759.892 C 54.252,759.894 54.258,759.901 54.269,759.908 C 54.277,759.915 54.284,759.921 54.288,759.922 C 54.325,759.936 54.364,759.921 54.404,759.872 C 54.438,759.836 54.46,759.798 54.47,759.762 L 54.47,759.762 Z" marker-start="none" marker-end="none"/>
      <path d="M 55.333,759.656 C 55.346,759.634 55.335,759.608 55.301,759.574 C 55.28,759.553 55.244,759.526 55.195,759.493 L 55.164,759.473 C 55.116,759.443 55.077,759.423 55.049,759.416 C 55.009,759.404 54.98,759.412 54.96,759.441 C 54.952,759.452 54.954,759.466 54.962,759.483 C 54.983,759.523 54.984,759.556 54.967,759.583 C 54.952,759.604 54.931,759.639 54.902,759.688 C 54.873,759.735 54.851,759.771 54.837,759.794 L 54.825,759.811 L 54.816,759.825 C 54.792,759.861 54.772,759.888 54.756,759.905 C 54.741,759.924 54.714,759.934 54.676,759.938 C 54.655,759.939 54.644,759.944 54.637,759.955 C 54.624,759.975 54.626,759.998 54.642,760.021 C 54.66,760.052 54.703,760.089 54.77,760.131 L 54.804,760.154 C 54.851,760.184 54.884,760.203 54.907,760.209 C 54.941,760.22 54.967,760.212 54.985,760.187 C 54.994,760.172 54.996,760.155 54.991,760.136 C 54.981,760.096 54.978,760.071 54.983,760.063 C 54.999,760.041 55.014,760.014 55.032,759.984 C 55.073,759.911 55.1,759.865 55.111,759.848 C 55.122,759.831 55.138,759.808 55.162,759.777 C 55.185,759.745 55.201,759.724 55.208,759.714 C 55.218,759.702 55.241,759.694 55.27,759.688 C 55.301,759.682 55.321,759.671 55.333,759.656 L 55.333,759.656 Z" marker-start="none" marker-end="none"/>
      <path d="M 55.963,760.621 C 56.039,760.543 56.073,760.449 56.063,760.337 C 56.054,760.227 56.004,760.13 55.915,760.044 C 55.833,759.965 55.737,759.927 55.627,759.928 C 55.516,759.93 55.421,759.971 55.342,760.052 C 55.264,760.131 55.227,760.225 55.232,760.336 C 55.236,760.445 55.28,760.541 55.363,760.618 C 55.456,760.71 55.564,760.753 55.681,760.749 C 55.79,760.746 55.885,760.703 55.963,760.621 L 55.963,760.621 M 55.829,760.352 C 55.781,760.402 55.721,760.444 55.646,760.475 C 55.555,760.517 55.487,760.517 55.444,760.476 C 55.427,760.458 55.418,760.435 55.421,760.406 C 55.423,760.378 55.438,760.35 55.464,760.324 C 55.507,760.278 55.566,760.242 55.644,760.208 C 55.739,760.168 55.804,760.165 55.842,760.201 C 55.862,760.222 55.872,760.246 55.871,760.272 C 55.869,760.3 55.856,760.327 55.829,760.352 L 55.829,760.352 Z" marker-start="none" marker-end="none"/>
      <path d="M 56.258,761.788 C 56.278,761.778 56.288,761.754 56.288,761.72 C 56.288,761.7 56.293,761.686 56.3,761.68 C 56.327,761.654 56.362,761.628 56.403,761.602 C 56.445,761.576 56.499,761.543 56.565,761.507 C 56.681,761.444 56.753,761.399 56.779,761.373 C 56.807,761.348 56.813,761.323 56.802,761.302 C 56.791,761.283 56.742,761.259 56.654,761.229 C 56.573,761.202 56.493,761.177 56.41,761.152 C 56.321,761.122 56.27,761.096 56.26,761.076 C 56.255,761.067 56.259,761.056 56.269,761.045 C 56.28,761.034 56.295,761.022 56.318,761.01 C 56.341,760.997 56.365,760.988 56.389,760.98 C 56.414,760.971 56.435,760.967 56.453,760.967 C 56.471,760.977 56.486,760.984 56.496,760.988 C 56.513,760.993 56.526,760.993 56.537,760.986 C 56.555,760.973 56.565,760.951 56.565,760.926 C 56.565,760.893 56.551,760.854 56.524,760.805 C 56.503,760.771 56.483,760.743 56.46,760.724 C 56.432,760.701 56.407,760.694 56.386,760.705 C 56.377,760.711 56.369,760.722 56.365,760.738 C 56.365,760.742 56.36,760.758 56.353,760.789 C 56.32,760.82 56.285,760.846 56.25,760.87 C 56.214,760.894 56.176,760.917 56.139,760.937 C 56.101,760.957 56.066,760.975 56.034,760.988 C 56,761 55.963,761.012 55.92,761.019 C 55.915,761.018 55.9,761.01 55.872,760.995 C 55.852,760.984 55.837,760.981 55.826,760.988 C 55.8,761.001 55.791,761.029 55.8,761.069 C 55.806,761.1 55.822,761.135 55.844,761.176 C 55.848,761.183 55.853,761.191 55.856,761.197 C 55.859,761.204 55.862,761.211 55.867,761.217 C 55.876,761.236 55.889,761.25 55.904,761.262 C 55.92,761.275 55.944,761.286 55.977,761.296 C 56.036,761.314 56.093,761.334 56.149,761.353 C 56.215,761.374 56.259,761.389 56.28,761.399 C 56.314,761.412 56.333,761.423 56.34,761.433 C 56.349,761.453 56.336,761.473 56.294,761.496 C 56.282,761.502 56.267,761.509 56.253,761.515 C 56.239,761.52 56.228,761.526 56.215,761.528 C 56.203,761.533 56.187,761.528 56.165,761.513 C 56.142,761.499 56.122,761.497 56.105,761.506 C 56.081,761.52 56.073,761.546 56.082,761.585 C 56.088,761.61 56.1,761.639 56.118,761.671 C 56.122,761.68 56.125,761.682 56.125,761.682 C 56.125,761.684 56.127,761.684 56.127,761.686 C 56.128,761.689 56.129,761.691 56.131,761.695 C 56.134,761.698 56.136,761.703 56.139,761.709 C 56.154,761.738 56.17,761.76 56.186,761.774 C 56.21,761.796 56.235,761.801 56.258,761.788 L 56.258,761.788 Z" marker-start="none" marker-end="none"/>
      <path d="M 57.026,762.675 C 57.053,762.672 57.071,762.653 57.078,762.618 C 57.086,762.583 57.085,762.531 57.073,762.458 C 57.062,762.376 57.049,762.315 57.035,762.274 C 57.024,762.233 57.002,762.213 56.973,762.218 C 56.955,762.222 56.941,762.238 56.932,762.271 C 56.926,762.285 56.919,762.294 56.907,762.295 C 56.886,762.299 56.871,762.287 56.861,762.264 C 56.849,762.24 56.841,762.206 56.836,762.161 L 56.831,762.13 C 56.825,762.079 56.823,762.047 56.827,762.031 C 56.832,762.016 56.848,762.008 56.874,762.005 C 56.883,762.003 56.894,762.013 56.906,762.034 C 56.919,762.056 56.933,762.067 56.95,762.065 C 56.994,762.059 57.008,762.001 56.994,761.895 C 56.985,761.832 56.974,761.789 56.961,761.765 C 56.948,761.742 56.93,761.732 56.907,761.736 C 56.893,761.736 56.883,761.742 56.875,761.747 C 56.867,761.755 56.864,761.767 56.866,761.781 C 56.871,761.807 56.833,761.846 56.756,761.902 C 56.698,761.944 56.62,761.992 56.525,762.041 C 56.439,762.088 56.382,762.112 56.36,762.115 C 56.266,762.128 56.223,762.175 56.236,762.256 C 56.246,762.326 56.314,762.386 56.44,762.439 C 56.495,762.462 56.61,762.5 56.788,762.55 C 56.913,762.586 56.978,762.615 56.98,762.64 C 56.984,762.667 56.999,762.679 57.026,762.675 L 57.026,762.675 M 56.7,762.264 C 56.683,762.265 56.652,762.256 56.609,762.24 C 56.565,762.222 56.542,762.206 56.541,762.194 C 56.539,762.182 56.556,762.164 56.595,762.14 C 56.633,762.115 56.659,762.101 56.674,762.101 C 56.68,762.099 56.686,762.108 56.692,762.125 C 56.699,762.142 56.703,762.161 56.706,762.182 C 56.711,762.207 56.711,762.225 56.711,762.24 C 56.711,762.254 56.706,762.262 56.7,762.264 L 56.7,762.264 Z" marker-start="none" marker-end="none"/>
      <path d="M 56.809,763.626 C 56.849,763.629 56.888,763.624 56.93,763.611 C 56.975,763.596 57.002,763.576 57.006,763.55 C 57.011,763.534 57.011,763.523 57.011,763.516 C 57.013,763.509 57.011,763.494 57.002,763.472 L 57.082,763.064 C 57.091,763.027 57.088,762.999 57.078,762.981 C 57.069,762.97 57.058,762.964 57.042,762.96 C 57.028,762.958 57.006,762.967 56.975,762.992 C 56.944,763.016 56.907,763.025 56.864,763.016 L 56.698,762.986 C 56.641,762.977 56.598,762.966 56.563,762.958 C 56.529,762.95 56.499,762.939 56.47,762.925 C 56.47,762.906 56.468,762.888 56.459,762.872 C 56.45,762.857 56.439,762.848 56.422,762.845 C 56.389,762.839 56.36,762.859 56.336,762.907 C 56.319,762.94 56.306,762.986 56.294,763.043 C 56.282,763.104 56.278,763.151 56.278,763.186 C 56.28,763.241 56.295,763.271 56.326,763.277 C 56.347,763.28 56.368,763.271 56.389,763.248 C 56.396,763.243 56.405,763.23 56.414,763.213 C 56.42,763.212 56.446,763.213 56.492,763.221 C 56.537,763.228 56.584,763.236 56.635,763.246 C 56.68,763.255 56.723,763.263 56.762,763.271 C 56.8,763.279 56.832,763.286 56.861,763.292 C 56.881,763.297 56.892,763.306 56.895,763.324 C 56.896,763.333 56.895,763.351 56.89,763.378 C 56.878,763.438 56.846,763.474 56.795,763.492 C 56.746,763.509 56.718,763.523 56.716,763.536 C 56.711,763.559 56.719,763.579 56.74,763.596 C 56.761,763.613 56.784,763.623 56.809,763.626 L 56.809,763.626 Z" marker-start="none" marker-end="none"/>
      <path d="M 50.155,761.197 C 50.131,761.188 50.109,761.188 50.087,761.196 C 50.064,761.204 50.048,761.22 50.04,761.241 C 50.025,761.276 50.034,761.311 50.064,761.343 C 50.095,761.377 50.104,761.407 50.093,761.435 C 50.09,761.443 50.059,761.439 50.004,761.421 C 49.95,761.405 49.894,761.385 49.835,761.361 C 49.801,761.348 49.77,761.334 49.751,761.323 C 49.73,761.312 49.703,761.294 49.669,761.269 C 49.658,761.262 49.654,761.245 49.654,761.215 C 49.656,761.187 49.645,761.168 49.625,761.161 C 49.603,761.152 49.577,761.159 49.55,761.186 C 49.523,761.211 49.494,761.263 49.463,761.343 C 49.436,761.407 49.421,761.455 49.416,761.492 C 49.407,761.547 49.419,761.582 49.454,761.596 C 49.465,761.601 49.487,761.593 49.509,761.574 C 49.534,761.554 49.551,761.543 49.564,761.546 C 49.602,761.553 49.634,761.561 49.662,761.57 C 49.69,761.576 49.718,761.586 49.75,761.599 C 49.777,761.608 49.801,761.619 49.822,761.626 C 49.84,761.632 49.86,761.639 49.876,761.646 C 49.911,761.659 49.937,761.673 49.954,761.684 C 49.972,761.698 49.977,761.713 49.97,761.727 C 49.967,761.736 49.94,761.749 49.889,761.763 C 49.837,761.778 49.808,761.799 49.795,761.828 C 49.79,761.845 49.792,761.861 49.803,761.878 C 49.816,761.893 49.833,761.906 49.854,761.915 C 49.89,761.928 49.934,761.932 49.988,761.925 C 50.05,761.915 50.087,761.893 50.102,761.858 C 50.104,761.852 50.107,761.841 50.107,761.828 C 50.107,761.816 50.109,761.805 50.111,761.799 L 50.261,761.435 C 50.264,761.428 50.271,761.421 50.278,761.413 C 50.288,761.405 50.294,761.399 50.294,761.394 C 50.313,761.36 50.302,761.319 50.259,761.273 C 50.225,761.237 50.19,761.212 50.155,761.197 L 50.155,761.197 Z" marker-start="none" marker-end="none"/>
     </g>
     <g id="Group_9">
      <path d="M 52.257,760.468 C 52.12,760.78 52.112,760.94 52.123,761.289 C 52.135,761.707 52.136,762.315 52.124,762.736 C 52.122,762.785 52.177,762.837 52.76,763.276 L 53.174,763.595 L 53.186,763.597 C 53.227,763.605 53.227,763.605 53.74,762.474 L 54.402,761.022 C 54.463,760.889 54.469,760.611 54.379,760.43 C 54.68,760.578 54.95,760.777 55.18,761.016 C 55.135,761.012 55.109,761.024 55.089,761.04 C 55.008,761.083 54.918,761.257 54.913,761.267 L 54.669,761.798 C 54.351,762.487 53.99,763.268 53.716,763.924 L 53.704,763.952 L 53.723,763.973 C 53.761,764.019 53.956,764.175 54.271,764.424 C 54.503,764.61 54.745,764.802 54.847,764.893 L 54.852,764.898 L 54.858,764.902 C 54.927,764.932 54.998,764.939 55.071,764.921 C 54.828,765.149 54.546,765.333 54.233,765.464 C 54.236,765.446 54.239,765.429 54.243,765.41 L 54.248,765.372 L 54.252,765.357 C 54.261,765.318 54.274,765.264 54.257,765.212 L 54.213,765.125 C 54.213,765.125 54.124,765.046 54.122,765.044 L 53.182,764.303 L 52.181,763.511 L 52.154,763.523 C 52.122,763.537 52.122,763.537 52.119,764.295 C 52.119,764.295 52.123,765.288 52.123,765.292 C 52.138,765.385 52.184,765.462 52.248,765.529 C 51.932,765.421 51.642,765.256 51.388,765.05 C 51.392,765.05 51.394,765.05 51.396,765.049 C 51.443,765.033 51.502,764.988 51.516,764.865 C 51.556,764.541 51.569,764.298 51.565,763.999 C 51.565,763.977 51.582,761.57 51.562,761.157 C 51.562,761.034 51.529,760.944 51.465,760.889 C 51.414,760.847 51.354,760.836 51.313,760.842 C 51.652,760.547 52.064,760.329 52.517,760.224 C 52.395,760.309 52.281,760.413 52.257,760.468 Z" fill="#ffffff" marker-start="none" marker-end="none"/>
      <path d="M 55.789,761.634 C 56.179,762.418 56.142,763.506 55.727,764.26 C 55.295,765.098 54.415,765.696 53.511,765.784 C 52.924,765.843 52.386,765.74 51.885,765.516 C 51.185,765.217 50.646,764.581 50.412,763.887 C 50.193,763.234 50.175,762.411 50.449,761.798 C 50.693,761.204 51.141,760.71 51.691,760.391 C 51.695,760.391 51.697,760.388 51.699,760.387 C 51.753,760.355 51.808,760.327 51.864,760.3 C 51.885,760.289 51.907,760.278 51.928,760.27 C 51.961,760.255 51.993,760.24 52.027,760.226 C 52.065,760.21 52.105,760.195 52.144,760.181 C 52.146,760.18 52.148,760.179 52.15,760.178 C 52.374,760.098 52.61,760.044 52.856,760.017 L 52.856,760.017 C 52.888,760.015 52.922,760.012 52.955,760.009 C 53.011,760.007 53.067,760.004 53.123,760.004 C 54.25,759.988 55.308,760.668 55.789,761.634 M 55.386,764.56 C 55.511,764.403 55.64,764.182 55.74,763.952 C 55.872,763.632 55.945,763.281 55.945,762.915 C 55.945,762.274 55.723,761.684 55.353,761.214 C 55.288,761.161 55.216,761.116 55.169,761.11 C 55.158,761.109 55.15,761.11 55.148,761.114 L 55.142,761.12 L 55.135,761.123 C 55.103,761.137 55.037,761.233 55.001,761.307 L 54.756,761.836 C 54.444,762.516 54.09,763.284 53.817,763.932 C 53.889,763.999 54.122,764.184 54.33,764.35 C 54.561,764.532 54.797,764.719 54.902,764.817 C 55.089,764.898 55.285,764.691 55.386,764.56 M 52.57,765.617 C 52.76,765.656 52.954,765.679 53.155,765.679 C 53.473,765.679 53.78,765.625 54.066,765.526 C 54.086,765.516 54.106,765.507 54.126,765.495 C 54.133,765.475 54.142,765.421 54.146,765.394 L 54.154,765.351 C 54.154,765.351 54.158,765.336 54.158,765.336 C 54.162,765.316 54.17,765.284 54.17,765.263 C 54.17,765.256 54.17,765.251 54.169,765.247 C 54.166,765.247 54.144,765.202 54.137,765.185 C 54.124,765.174 54.058,765.116 54.058,765.116 C 54.06,765.118 53.122,764.377 53.122,764.377 C 53.122,764.377 52.351,763.769 52.22,763.665 C 52.217,763.86 52.214,764.333 52.214,764.732 C 52.214,764.966 52.215,765.176 52.22,765.283 C 52.245,765.44 52.393,765.55 52.57,765.617 M 51.115,761.033 C 50.65,761.526 50.367,762.187 50.367,762.915 C 50.367,763.714 50.71,764.437 51.261,764.941 C 51.302,764.959 51.338,764.968 51.366,764.959 C 51.394,764.949 51.413,764.913 51.42,764.853 C 51.459,764.533 51.472,764.295 51.467,764.001 C 51.467,763.976 51.486,761.572 51.465,761.159 C 51.465,761.064 51.443,760.997 51.402,760.962 C 51.372,760.935 51.336,760.934 51.322,760.935 C 51.258,760.947 51.187,760.981 51.115,761.033 L 51.115,761.033 M 51.313,760.842 C 51.354,760.836 51.414,760.847 51.465,760.889 C 51.529,760.944 51.562,761.034 51.562,761.157 C 51.582,761.57 51.565,763.977 51.565,763.999 C 51.569,764.298 51.556,764.541 51.516,764.865 C 51.502,764.988 51.443,765.033 51.396,765.049 C 51.394,765.05 51.392,765.05 51.388,765.05 C 51.642,765.256 51.932,765.421 52.248,765.529 C 52.184,765.462 52.138,765.385 52.123,765.292 C 52.123,765.288 52.119,764.295 52.119,764.295 C 52.122,763.537 52.122,763.537 52.154,763.523 L 52.181,763.511 L 53.182,764.303 L 54.122,765.044 C 54.124,765.046 54.213,765.125 54.213,765.125 L 54.257,765.212 C 54.274,765.264 54.261,765.318 54.252,765.357 L 54.248,765.372 L 54.243,765.41 C 54.239,765.429 54.236,765.446 54.233,765.464 C 54.546,765.333 54.828,765.149 55.071,764.921 C 54.998,764.939 54.927,764.932 54.858,764.902 L 54.852,764.898 L 54.847,764.893 C 54.745,764.802 54.503,764.61 54.271,764.424 C 53.956,764.175 53.761,764.019 53.723,763.973 L 53.704,763.952 L 53.716,763.924 C 53.99,763.268 54.351,762.487 54.669,761.798 L 54.913,761.267 C 54.918,761.257 55.008,761.083 55.089,761.04 C 55.109,761.024 55.135,761.012 55.18,761.016 C 54.95,760.777 54.68,760.578 54.379,760.43 C 54.469,760.611 54.463,760.889 54.402,761.022 L 53.74,762.474 C 53.227,763.605 53.227,763.605 53.186,763.597 L 53.174,763.595 L 52.76,763.276 C 52.177,762.837 52.122,762.785 52.124,762.736 C 52.136,762.315 52.135,761.707 52.123,761.289 C 52.112,760.94 52.12,760.78 52.257,760.468 C 52.281,760.413 52.395,760.309 52.517,760.224 C 52.064,760.329 51.652,760.547 51.313,760.842 M 52.797,760.185 C 52.654,760.218 52.372,760.445 52.346,760.506 C 52.244,760.738 52.215,760.873 52.215,761.116 C 52.215,761.168 52.217,761.222 52.22,761.286 C 52.226,761.502 52.231,761.772 52.231,762.04 C 52.231,762.283 52.226,762.525 52.22,762.726 C 52.263,762.781 52.596,763.032 52.818,763.199 C 52.818,763.199 53.103,763.418 53.179,763.477 C 53.245,763.336 53.444,762.898 53.653,762.435 L 54.314,760.983 C 54.338,760.93 54.351,760.851 54.351,760.767 C 54.351,760.604 54.303,760.423 54.206,760.374 C 54.062,760.305 53.719,760.201 53.379,760.16 C 53.305,760.155 53.231,760.15 53.155,760.15 C 53.063,760.15 52.971,760.155 52.879,760.164 C 52.851,760.17 52.823,760.177 52.797,760.185 Z" fill="#b99e76" marker-start="none" marker-end="none"/>
     </g>
    </g>
   </g>
  </g>
 </g>
 <g id="Content" transform="scale(1 -1)"/>
 <g id="Logo Vektor" transform="scale(1 -1)"/>
</svg>
