<?xml version="1.0" standalone="no"?>
<!DOCTYPE svg PUBLIC "-//W3C//DTD SVG 1.1//EN" "http://www.w3.org/Graphics/SVG/1.1/DTD/svg11.dtd">
<!--Generator: Xara Designer (www.xara.com), SVG filter version: 6.6.0.0-->
<svg fill="none" fill-rule="evenodd" stroke="black" stroke-width="0.501" stroke-linejoin="bevel" stroke-miterlimit="10" font-family="Times New Roman" font-size="16" style="font-variant-ligatures:none" xmlns:xlink="http://www.w3.org/1999/xlink" xmlns="http://www.w3.org/2000/svg" version="1.1" overflow="visible" width="49.162pt" height="21.954pt" viewBox="1.585 -295.015 49.162 21.954">
 <defs>
	</defs>
 <g id="Backdrop" transform="scale(1 -1)"/>
 <g id="Inserate" transform="scale(1 -1)"/>
 <g id="Grid" transform="scale(1 -1)"/>
 <g id="Content" transform="scale(1 -1)"/>
 <g id="Sponsoren" transform="scale(1 -1)"/>
 <g id="Layer 1" transform="scale(1 -1)">
  <g id="Group" fill-rule="nonzero" stroke-linejoin="miter" stroke="none" stroke-width="0.471" fill="#1d1d1b">
   <path d="M 1.585,295.015 L 6.058,295.015 L 6.058,283.103 L 12.159,289.77 L 17.466,289.77 L 10.493,282.27 L 17.654,273.409 L 12.437,273.409 L 7.838,279.398 L 6.076,277.486 L 6.076,273.409 L 1.585,273.409 Z" marker-start="none" marker-end="none"/>
   <path d="M 15.653,281.62 C 15.679,286.268 19.463,290.018 24.112,290.001 C 28.76,289.983 32.517,286.206 32.508,281.557 C 32.499,276.909 28.728,273.145 24.081,273.145 C 19.419,273.171 15.653,276.958 15.653,281.62 Z M 28.342,281.62 C 28.343,283.974 26.435,285.884 24.081,285.884 C 21.726,285.884 19.818,283.974 19.82,281.62 C 19.818,279.265 21.726,277.356 24.081,277.356 C 26.435,277.356 28.343,279.265 28.342,281.62 Z" marker-start="none" marker-end="none"/>
   <path d="M 33.741,295.015 L 38.214,295.015 L 38.214,273.409 L 33.741,273.409 Z" marker-start="none" marker-end="none"/>
   <path d="M 41.355,278.875 L 41.388,285.909 L 39.081,285.909 L 39.081,289.77 L 41.388,289.77 L 41.416,293.381 L 45.842,293.381 L 45.809,289.77 L 50.517,289.77 L 50.517,285.909 L 45.809,285.909 L 45.781,278.903 C 45.781,277.731 47.353,276.592 50.747,277.886 L 50.747,273.564 C 45.644,272.063 41.355,273.946 41.355,278.875 Z" marker-start="none" marker-end="none"/>
  </g>
 </g>
</svg>
