<?xml version="1.0" standalone="no"?>
<!DOCTYPE svg PUBLIC "-//W3C//DTD SVG 1.1//EN" "http://www.w3.org/Graphics/SVG/1.1/DTD/svg11.dtd">
<!--Generator: Xara Designer (www.xara.com), SVG filter version: 6.6.0.9-->
<svg fill="none" fill-rule="evenodd" stroke="black" stroke-width="0.501" stroke-linejoin="bevel" stroke-miterlimit="10" font-family="Times New Roman" font-size="16" style="font-variant-ligatures:none" xmlns:xlink="http://www.w3.org/1999/xlink" xmlns="http://www.w3.org/2000/svg" version="1.1" overflow="visible" width="481pt" height="189pt" viewBox="0 -189 481 189">
 <defs>
	</defs>
 <g id="Layer 1" transform="scale(1 -1)">
  <path d="M 22.639,56.26 C 23.058,55.293 23.477,54.357 23.929,53.455 C 24.413,52.584 24.896,51.714 25.347,50.843 C 25.799,49.972 26.218,49.038 26.702,48.167 C 27.217,47.136 27.83,46.168 28.378,45.137 C 28.862,44.265 29.281,43.395 29.765,42.524 C 30.216,41.783 30.635,41.074 31.054,40.332 C 31.473,39.558 31.893,38.753 32.279,37.978 C 33.859,40.752 35.439,43.524 36.987,46.329 C 38.76,49.554 40.533,52.809 42.307,56.034 L 42.79,56.034 C 43.177,52.1 43.532,48.135 44.016,44.201 C 44.467,40.461 45.015,36.689 45.531,32.949 C 44.531,33.046 44.08,33.11 42.274,33.013 C 42.113,35.883 41.952,38.785 41.694,41.622 C 41.404,44.459 41.017,47.264 40.598,50.069 C 39.082,47.361 37.535,44.652 36.02,41.944 C 35.02,40.106 34.02,38.236 33.086,36.366 C 32.602,35.335 32.15,34.303 31.699,33.239 L 31.409,33.239 C 31.054,34.045 30.7,34.851 30.345,35.625 C 29.99,36.302 29.603,37.012 29.281,37.688 C 28.862,38.558 28.475,39.397 28.023,40.267 C 27.508,41.203 26.959,42.138 26.476,43.105 C 25.895,44.137 25.379,45.169 24.832,46.2 C 24.09,47.522 23.316,48.876 22.575,50.166 C 22.156,47.103 21.769,44.008 21.447,40.913 C 21.188,38.333 20.995,35.722 20.801,33.142 L 18.48,33.142 C 18.738,34.174 18.996,35.238 19.189,36.269 C 19.48,37.753 19.705,39.236 19.931,40.72 C 20.124,41.944 20.286,43.202 20.479,44.427 C 21.027,48.36 21.511,52.326 21.994,56.26 L 22.639,56.26 Z" fill="#a1803b" stroke-linejoin="miter" fill-rule="nonzero" stroke-width="0.25" stroke="none" marker-start="none" marker-end="none"/>
  <path d="M 55.498,48.038 C 54.692,46.458 53.95,44.847 53.209,43.234 C 54.66,43.17 56.111,43.105 57.594,43.105 C 58.593,43.105 59.625,43.138 60.625,43.202 C 59.786,45.91 59.431,47.168 57.432,51.778 C 56.788,50.553 56.111,49.296 55.498,48.038 Z M 58.593,56.066 C 59.27,54.196 59.915,52.294 60.625,50.424 C 61.334,48.65 62.075,46.91 62.72,45.104 C 63.172,43.911 63.591,42.718 64.042,41.525 C 64.493,40.364 64.945,39.204 65.396,38.011 C 65.751,37.076 66.106,36.108 66.492,35.174 C 66.783,34.497 67.105,33.787 67.427,33.11 C 66.202,33.207 65.977,33.271 63.945,33.207 C 63.268,36.076 63.043,37.108 61.14,41.847 L 52.629,41.847 C 51.79,40.235 50.984,38.591 50.243,36.947 C 49.694,35.689 49.243,34.399 48.727,33.142 C 48.534,33.175 48.082,33.239 47.534,33.239 C 47.18,33.239 46.793,33.207 46.438,33.175 C 47.05,34.238 47.663,35.335 48.244,36.43 C 48.985,37.817 49.662,39.236 50.372,40.655 C 51.339,42.492 52.371,44.33 53.306,46.2 C 54.015,47.683 54.692,49.167 55.402,50.649 C 55.885,51.649 56.433,52.648 56.916,53.68 C 57.303,54.454 57.658,55.261 58.013,56.066 L 58.593,56.066 Z" fill="#a1803b" stroke-linejoin="miter" fill-rule="nonzero" stroke-width="0.25" stroke="none" marker-start="none" marker-end="none"/>
  <path d="M 73.459,55.776 C 73.33,54.744 73.234,53.68 73.201,52.616 C 73.137,50.875 73.169,49.102 73.137,47.361 C 73.105,45.04 73.04,42.718 73.04,40.364 C 73.04,37.914 73.137,35.496 73.266,33.046 C 72.75,33.11 72.266,33.175 71.718,33.175 C 71.396,33.175 70.912,33.142 70.138,33.046 C 70.267,34.497 70.365,35.979 70.429,37.463 C 70.493,39.043 70.493,40.655 70.493,42.299 C 70.493,44.62 70.461,46.974 70.493,49.328 C 70.493,50.456 70.525,51.617 70.493,52.745 C 70.461,53.777 70.396,54.776 70.332,55.776 C 71.75,55.712 72.073,55.712 73.459,55.776 Z M 72.395,61.387 C 74.072,59.839 74.523,59.452 76.425,58.194 L 74.749,57.388 C 74.265,57.872 73.814,58.388 73.298,58.871 C 72.782,59.323 72.266,59.774 71.718,60.225 L 68.816,57.421 L 67.398,58.291 C 68.688,59.161 69.236,59.516 71.17,61.387 L 72.395,61.387 Z" fill="#a1803b" stroke-linejoin="miter" fill-rule="nonzero" stroke-width="0.25" stroke="none" marker-start="none" marker-end="none"/>
  <path d="M 83.713,48.779 C 83.746,50.005 83.778,51.263 83.713,52.519 C 83.713,53.1 83.681,53.648 83.617,54.228 C 79.78,54.325 78.684,54.261 76.556,54.067 L 76.556,55.905 C 79.296,55.583 79.651,55.615 82.392,55.615 C 84.874,55.615 87.422,55.551 89.936,55.615 C 91.065,55.647 92.161,55.712 93.289,55.776 C 93.257,55.164 93.225,54.97 93.289,53.938 C 92.064,54.035 90.807,54.132 89.582,54.164 C 88.518,54.228 87.486,54.261 86.422,54.261 C 86.357,50.424 86.293,46.619 86.293,42.783 C 86.293,39.526 86.357,36.269 86.454,33.013 C 85.1,33.175 84.842,33.175 83.488,33.078 C 83.617,36.625 83.713,40.171 83.713,43.718 L 83.713,48.779 Z" fill="#a1803b" stroke-linejoin="miter" fill-rule="nonzero" stroke-width="0.25" stroke="none" marker-start="none" marker-end="none"/>
  <path d="M 99.224,48.457 C 99.192,47.393 99.192,46.297 99.224,45.233 C 99.837,45.201 100.449,45.137 101.094,45.137 C 101.513,45.137 102.448,45.137 103.544,45.491 C 105.608,46.168 106.64,48.006 106.64,50.166 C 106.64,50.746 106.607,52.423 105.221,53.616 C 103.964,54.68 102.48,54.615 101.965,54.615 C 101.094,54.615 100.256,54.551 99.418,54.486 C 99.321,52.455 99.256,50.456 99.224,48.457 Z M 99.74,55.712 C 100.836,55.712 101.9,55.744 102.964,55.744 C 105.125,55.583 107.124,55.422 108.574,53.584 C 108.929,53.1 109.542,52.1 109.542,50.553 C 109.542,49.618 109.284,48.876 109.187,48.586 C 108.542,46.91 106.995,45.652 105.35,45.04 C 104.351,44.652 103.577,44.555 102.513,44.394 C 102.771,44.137 103.061,43.943 103.287,43.685 C 104.061,42.944 104.608,42.138 105.253,41.267 C 105.737,40.655 106.253,40.074 106.769,39.462 C 107.22,38.914 107.639,38.365 108.091,37.785 C 108.574,37.205 109.09,36.593 109.606,36.012 C 110.122,35.399 110.605,34.755 111.154,34.174 C 111.508,33.755 111.928,33.368 112.314,32.981 C 111.605,33.078 111.089,33.142 110.348,33.142 C 109.735,33.142 109.155,33.078 108.542,33.013 C 108.059,33.69 107.607,34.367 107.124,35.013 C 106.64,35.657 106.156,36.269 105.64,36.883 C 105.06,37.624 104.512,38.397 103.932,39.107 C 103.48,39.623 103.029,40.138 102.61,40.687 C 102.126,41.267 101.643,41.88 101.159,42.492 C 100.546,43.202 99.869,43.847 99.192,44.523 C 99.16,42.46 99.127,40.364 99.192,38.301 C 99.224,36.56 99.353,34.819 99.482,33.046 C 98.998,33.11 98.483,33.142 97.999,33.142 C 97.418,33.142 96.903,33.078 96.355,33.046 C 96.484,34.819 96.613,36.593 96.645,38.397 C 96.677,40.655 96.677,42.944 96.677,45.233 C 96.677,48.779 96.581,52.326 96.484,55.873 C 97.58,55.808 98.676,55.744 99.74,55.712 Z" fill="#a1803b" stroke-linejoin="miter" fill-rule="nonzero" stroke-width="0.25" stroke="none" marker-start="none" marker-end="none"/>
  <path d="M 125.472,44.104 C 123.118,44.394 122.215,44.523 118.056,44.427 C 117.992,42.105 117.959,39.816 117.992,37.527 C 118.024,36.56 118.056,35.625 118.088,34.69 C 119.54,34.658 121.022,34.626 122.474,34.658 C 123.795,34.69 125.149,34.755 126.471,34.851 L 126.471,33.046 C 124.408,33.142 122.344,33.207 120.281,33.207 C 118.54,33.207 116.831,33.142 115.09,33.078 C 115.219,34.98 115.348,36.85 115.38,38.753 C 115.445,40.945 115.445,43.17 115.445,45.394 C 115.445,46.329 115.477,47.264 115.477,48.231 C 115.477,50.778 115.38,53.326 115.316,55.841 C 117.412,55.712 119.507,55.583 121.571,55.583 C 123.183,55.583 124.795,55.68 126.375,55.744 C 126.246,54.937 126.246,54.744 126.342,54.003 C 124.795,54.099 123.279,54.228 121.732,54.261 C 120.604,54.293 119.443,54.261 118.314,54.261 C 118.217,52.938 118.153,51.617 118.121,50.263 C 118.056,48.779 118.088,47.297 118.088,45.781 C 119.217,45.781 120.345,45.749 121.474,45.749 C 122.796,45.749 124.15,45.813 125.472,45.878 L 125.472,44.104 Z" fill="#a1803b" stroke-linejoin="miter" fill-rule="nonzero" stroke-width="0.25" stroke="none" marker-start="none" marker-end="none"/>
  <path d="M 157.491,51.843 C 156.975,52.519 156.717,52.809 156.427,53.1 C 155.653,53.809 153.848,54.97 151.075,54.97 C 149.011,54.97 147.625,54.389 146.916,54.003 C 144.884,52.906 142.208,50.166 142.208,44.588 C 142.208,43.75 142.273,40.461 143.853,37.946 C 144.401,37.108 145.11,36.366 145.916,35.754 C 146.787,35.077 148.818,33.755 151.784,33.755 C 152.526,33.755 154.654,33.884 156.491,35.109 C 156.911,35.335 157.265,35.657 157.942,36.302 L 158.329,36.302 L 157.717,33.916 C 155.459,33.142 153.654,32.53 151.268,32.53 C 149.882,32.53 146.432,32.788 143.337,35.238 C 141.692,36.56 139.178,39.172 139.178,44.491 C 139.178,45.491 139.242,48.425 140.886,50.907 C 141.08,51.23 141.435,51.714 142.047,52.39 C 142.241,52.584 142.982,53.39 143.756,53.971 C 144.949,54.905 147.432,56.292 151.397,56.292 C 152.139,56.292 154.525,56.227 156.685,55.389 C 157.136,55.196 157.652,54.937 158.587,54.389 C 158.232,53.519 158.168,53.39 157.813,51.843 L 157.491,51.843 Z" fill="#a1803b" stroke-linejoin="miter" fill-rule="nonzero" stroke-width="0.25" stroke="none" marker-start="none" marker-end="none"/>
  <path d="M 174.615,46.039 C 175.743,46.007 176.033,45.942 177.871,46.136 C 177.968,51.456 177.839,52.777 177.581,55.776 C 177.677,55.776 178.709,55.647 179.354,55.647 C 179.838,55.647 180.289,55.68 180.772,55.712 C 180.611,54.196 180.482,52.68 180.418,51.166 C 180.321,48.65 180.354,46.136 180.354,43.653 C 180.354,41.847 180.289,40.074 180.289,38.268 C 180.289,37.463 180.321,36.657 180.354,35.85 C 180.386,34.916 180.45,33.98 180.515,33.046 C 179.902,33.142 179.515,33.175 178.935,33.175 C 178.322,33.175 178,33.142 177.419,33.078 C 177.581,35.27 177.709,37.463 177.742,39.655 C 177.774,41.267 177.742,42.88 177.742,44.491 C 175.453,44.555 173.196,44.62 170.939,44.62 C 169.004,44.652 167.038,44.62 165.103,44.555 C 165.039,42.944 165.006,41.332 165.006,39.687 C 165.006,37.495 165.103,35.27 165.2,33.078 C 164.394,33.271 164.071,33.304 163.652,33.304 C 163.104,33.304 162.653,33.207 162.104,33.11 C 162.234,34.497 162.331,35.915 162.363,37.302 C 162.395,38.462 162.363,39.623 162.395,40.784 C 162.395,41.976 162.427,43.17 162.427,44.362 C 162.427,46.103 162.395,47.877 162.427,49.618 C 162.427,50.81 162.459,51.972 162.395,53.165 C 162.363,54.067 162.266,54.97 162.201,55.873 C 162.427,55.841 163.168,55.647 163.91,55.647 C 164.265,55.647 164.684,55.712 165.426,55.776 C 165.296,54.196 165.167,52.584 165.135,50.972 C 165.071,49.36 165.071,47.78 165.103,46.2 C 166.876,45.974 167.295,46.071 169.069,46.039 L 174.615,46.039 Z" fill="#a1803b" stroke-linejoin="miter" fill-rule="nonzero" stroke-width="0.25" stroke="none" marker-start="none" marker-end="none"/>
  <path d="M 190.996,35.464 C 191.77,34.948 193.672,33.755 196.251,33.755 C 196.993,33.755 198.67,33.884 200.443,34.819 C 202.603,35.979 205.408,38.688 205.408,44.491 C 205.408,48.231 204.248,50.359 203.28,51.617 C 202.765,52.294 202.184,52.874 201.539,53.358 C 199.992,54.486 197.896,55.098 195.929,55.098 C 192.415,55.098 189.255,52.745 187.965,49.36 C 187.289,47.651 187.192,45.749 187.192,45.169 C 186.998,41.267 187.772,37.753 190.996,35.464 Z M 185.225,49.554 C 187.16,53.906 191.609,56.227 196.187,56.227 C 196.832,56.227 198.154,56.195 199.798,55.744 C 203.216,54.744 206.311,52.326 207.601,48.876 C 208.31,46.974 208.342,45.169 208.342,44.427 C 208.342,43.138 208.246,40.074 206.085,37.205 C 203.764,34.109 200.056,32.562 196.284,32.562 C 194.897,32.562 191.287,32.788 188.126,35.399 C 185.322,37.721 184.226,40.752 184.226,44.394 C 184.226,46.942 184.806,48.618 185.225,49.554 Z" fill="#a1803b" stroke-linejoin="miter" fill-rule="nonzero" stroke-width="0.25" stroke="none" marker-start="none" marker-end="none"/>
  <path d="M 230.077,51.843 C 229.561,52.519 229.303,52.809 229.013,53.1 C 228.239,53.809 226.434,54.97 223.661,54.97 C 221.597,54.97 220.211,54.389 219.501,54.003 C 217.47,52.906 214.794,50.166 214.794,44.588 C 214.794,43.75 214.859,40.461 216.438,37.946 C 216.987,37.108 217.696,36.366 218.502,35.754 C 219.373,35.077 221.404,33.755 224.37,33.755 C 225.112,33.755 227.24,33.884 229.077,35.109 C 229.497,35.335 229.851,35.657 230.528,36.302 L 230.916,36.302 L 230.302,33.916 C 228.045,33.142 226.24,32.53 223.854,32.53 C 222.468,32.53 219.018,32.788 215.923,35.238 C 214.278,36.56 211.764,39.172 211.764,44.491 C 211.764,45.491 211.828,48.425 213.472,50.907 C 213.666,51.23 214.021,51.714 214.633,52.39 C 214.827,52.584 215.568,53.39 216.342,53.971 C 217.535,54.905 220.018,56.292 223.983,56.292 C 224.725,56.292 227.111,56.227 229.271,55.389 C 229.722,55.196 230.238,54.937 231.173,54.389 C 230.819,53.519 230.754,53.39 230.399,51.843 L 230.077,51.843 Z" fill="#a1803b" stroke-linejoin="miter" fill-rule="nonzero" stroke-width="0.25" stroke="none" marker-start="none" marker-end="none"/>
  <path d="M 240.719,35.464 C 241.493,34.948 243.395,33.755 245.975,33.755 C 246.716,33.755 248.393,33.884 250.167,34.819 C 252.327,35.979 255.131,38.688 255.131,44.491 C 255.131,48.231 253.971,50.359 253.003,51.617 C 252.488,52.294 251.908,52.874 251.262,53.358 C 249.714,54.486 247.619,55.098 245.653,55.098 C 242.138,55.098 238.978,52.745 237.689,49.36 C 237.011,47.651 236.915,45.749 236.915,45.169 C 236.721,41.267 237.496,37.753 240.719,35.464 Z M 234.948,49.554 C 236.882,53.906 241.332,56.227 245.911,56.227 C 246.555,56.227 247.877,56.195 249.521,55.744 C 252.939,54.744 256.035,52.326 257.324,48.876 C 258.034,46.974 258.066,45.169 258.066,44.427 C 258.066,43.138 257.968,40.074 255.808,37.205 C 253.487,34.109 249.78,32.562 246.007,32.562 C 244.621,32.562 241.009,32.788 237.85,35.399 C 235.044,37.721 233.949,40.752 233.949,44.394 C 233.949,46.942 234.529,48.618 234.948,49.554 Z" fill="#a1803b" stroke-linejoin="miter" fill-rule="nonzero" stroke-width="0.25" stroke="none" marker-start="none" marker-end="none"/>
  <path d="M 273.61,32.949 C 271.224,33.078 268.87,33.175 266.484,33.175 C 265.034,33.175 263.583,33.142 262.164,33.11 C 262.26,34.335 262.357,35.528 262.421,36.754 C 262.518,38.494 262.518,40.235 262.55,41.976 C 262.583,43.879 262.615,45.781 262.615,47.716 C 262.615,49.102 262.583,50.488 262.55,51.875 C 262.486,53.229 262.389,54.615 262.325,55.97 C 262.679,55.905 263.228,55.744 264.066,55.744 C 264.42,55.744 264.872,55.776 265.582,55.841 C 265.42,53.616 265.292,51.359 265.195,49.102 C 265.066,44.265 265.13,39.462 265.163,34.626 C 266.967,34.626 268.741,34.626 270.546,34.69 C 271.579,34.722 272.578,34.755 273.61,34.819 L 273.61,32.949 Z" fill="#a1803b" stroke-linejoin="miter" fill-rule="nonzero" stroke-width="0.25" stroke="none" marker-start="none" marker-end="none"/>
  <path d="M 283.478,48.038 C 282.672,46.458 281.931,44.847 281.189,43.234 C 282.64,43.17 284.091,43.105 285.574,43.105 C 286.574,43.105 287.605,43.138 288.605,43.202 C 287.766,45.91 287.412,47.168 285.413,51.778 C 284.768,50.553 284.091,49.296 283.478,48.038 Z M 286.574,56.066 C 287.25,54.196 287.895,52.294 288.605,50.424 C 289.314,48.65 290.056,46.91 290.701,45.104 C 291.152,43.911 291.571,42.718 292.022,41.525 C 292.474,40.364 292.925,39.204 293.376,38.011 C 293.731,37.076 294.085,36.108 294.473,35.174 C 294.763,34.497 295.085,33.787 295.408,33.11 C 294.183,33.207 293.957,33.271 291.925,33.207 C 291.249,36.076 291.023,37.108 289.121,41.847 L 280.609,41.847 C 279.771,40.235 278.964,38.591 278.223,36.947 C 277.675,35.689 277.223,34.399 276.708,33.142 C 276.514,33.175 276.063,33.239 275.514,33.239 C 275.16,33.239 274.773,33.207 274.418,33.175 C 275.031,34.238 275.644,35.335 276.224,36.43 C 276.965,37.817 277.643,39.236 278.352,40.655 C 279.319,42.492 280.351,44.33 281.286,46.2 C 281.996,47.683 282.672,49.167 283.381,50.649 C 283.866,51.649 284.414,52.648 284.897,53.68 C 285.284,54.454 285.638,55.261 285.994,56.066 L 286.574,56.066 Z" fill="#a1803b" stroke-linejoin="miter" fill-rule="nonzero" stroke-width="0.25" stroke="none" marker-start="none" marker-end="none"/>
  <path d="M 301.375,48.779 C 301.408,50.005 301.44,51.263 301.375,52.519 C 301.375,53.1 301.343,53.648 301.278,54.228 C 297.442,54.325 296.345,54.261 294.217,54.067 L 294.217,55.905 C 296.958,55.583 297.313,55.615 300.053,55.615 C 302.536,55.615 305.083,55.551 307.598,55.615 C 308.726,55.647 309.823,55.712 310.951,55.776 C 310.918,55.164 310.886,54.97 310.951,53.938 C 309.726,54.035 308.468,54.132 307.243,54.164 C 306.179,54.228 305.147,54.261 304.083,54.261 C 304.019,50.424 303.955,46.619 303.955,42.783 C 303.955,39.526 304.019,36.269 304.116,33.013 C 302.761,33.175 302.503,33.175 301.149,33.078 C 301.278,36.625 301.375,40.171 301.375,43.718 L 301.375,48.779 Z" fill="#a1803b" stroke-linejoin="miter" fill-rule="nonzero" stroke-width="0.25" stroke="none" marker-start="none" marker-end="none"/>
  <path d="M 317.274,55.776 C 317.145,54.744 317.048,53.68 317.016,52.616 C 316.952,50.875 316.984,49.102 316.952,47.361 C 316.919,45.04 316.855,42.718 316.855,40.364 C 316.855,37.914 316.952,35.496 317.081,33.046 C 316.564,33.11 316.081,33.175 315.533,33.175 C 315.21,33.175 314.727,33.142 313.953,33.046 C 314.082,34.497 314.178,35.979 314.243,37.463 C 314.307,39.043 314.307,40.655 314.307,42.299 C 314.307,44.62 314.275,46.974 314.307,49.328 C 314.307,50.456 314.339,51.617 314.307,52.745 C 314.275,53.777 314.21,54.776 314.146,55.776 C 315.565,55.712 315.887,55.712 317.274,55.776 Z" fill="#a1803b" stroke-linejoin="miter" fill-rule="nonzero" stroke-width="0.25" stroke="none" marker-start="none" marker-end="none"/>
  <path d="M 334.363,44.104 C 332.009,44.394 331.107,44.523 326.948,44.427 C 326.883,42.105 326.851,39.816 326.883,37.527 C 326.916,36.56 326.948,35.625 326.98,34.69 C 328.43,34.658 329.914,34.626 331.365,34.658 C 332.686,34.69 334.041,34.755 335.363,34.851 L 335.363,33.046 C 333.299,33.142 331.236,33.207 329.172,33.207 C 327.431,33.207 325.722,33.142 323.981,33.078 C 324.11,34.98 324.239,36.85 324.271,38.753 C 324.335,40.945 324.335,43.17 324.335,45.394 C 324.335,46.329 324.368,47.264 324.368,48.231 C 324.368,50.778 324.271,53.326 324.207,55.841 C 326.302,55.712 328.398,55.583 330.461,55.583 C 332.074,55.583 333.686,55.68 335.266,55.744 C 335.137,54.937 335.137,54.744 335.234,54.003 C 333.686,54.099 332.17,54.228 330.623,54.261 C 329.495,54.293 328.333,54.261 327.206,54.261 C 327.109,52.938 327.044,51.617 327.012,50.263 C 326.948,48.779 326.98,47.297 326.98,45.781 C 328.108,45.781 329.237,45.749 330.365,45.749 C 331.687,45.749 333.042,45.813 334.363,45.878 L 334.363,44.104 Z" fill="#a1803b" stroke-linejoin="miter" fill-rule="nonzero" stroke-width="0.25" stroke="none" marker-start="none" marker-end="none"/>
  <path d="M 344.263,48.457 C 344.231,47.393 344.231,46.297 344.263,45.233 C 344.875,45.201 345.488,45.137 346.133,45.137 C 346.552,45.137 347.487,45.137 348.583,45.491 C 350.647,46.168 351.678,48.006 351.678,50.166 C 351.678,50.746 351.646,52.423 350.26,53.616 C 349.002,54.68 347.519,54.615 347.003,54.615 C 346.133,54.615 345.294,54.551 344.457,54.486 C 344.36,52.455 344.295,50.456 344.263,48.457 Z M 344.779,55.712 C 345.875,55.712 346.939,55.744 348.002,55.744 C 350.163,55.583 352.162,55.422 353.613,53.584 C 353.967,53.1 354.581,52.1 354.581,50.553 C 354.581,49.618 354.322,48.876 354.225,48.586 C 353.581,46.91 352.033,45.652 350.389,45.04 C 349.389,44.652 348.616,44.555 347.551,44.394 C 347.809,44.137 348.099,43.943 348.326,43.685 C 349.099,42.944 349.647,42.138 350.292,41.267 C 350.776,40.655 351.292,40.074 351.807,39.462 C 352.258,38.914 352.678,38.365 353.129,37.785 C 353.613,37.205 354.128,36.593 354.645,36.012 C 355.161,35.399 355.644,34.755 356.192,34.174 C 356.547,33.755 356.966,33.368 357.353,32.981 C 356.644,33.078 356.127,33.142 355.386,33.142 C 354.774,33.142 354.193,33.078 353.581,33.013 C 353.097,33.69 352.646,34.367 352.162,35.013 C 351.678,35.657 351.195,36.269 350.679,36.883 C 350.098,37.624 349.55,38.397 348.97,39.107 C 348.519,39.623 348.067,40.138 347.648,40.687 C 347.165,41.267 346.681,41.88 346.198,42.492 C 345.584,43.202 344.908,43.847 344.231,44.523 C 344.199,42.46 344.167,40.364 344.231,38.301 C 344.263,36.56 344.392,34.819 344.521,33.046 C 344.038,33.11 343.521,33.142 343.038,33.142 C 342.458,33.142 341.941,33.078 341.393,33.046 C 341.522,34.819 341.651,36.593 341.683,38.397 C 341.715,40.655 341.715,42.944 341.715,45.233 C 341.715,48.779 341.619,52.326 341.522,55.873 C 342.619,55.808 343.714,55.744 344.779,55.712 Z" fill="#a1803b" stroke-linejoin="miter" fill-rule="nonzero" stroke-width="0.25" stroke="none" marker-start="none" marker-end="none"/>
  <path d="M 368.673,36.237 C 369.286,35.496 369.802,34.916 370.64,34.529 C 371.769,34.045 372.994,33.948 373.413,33.948 C 374.477,33.98 375.283,34.27 375.637,34.399 C 378.056,35.464 378.378,37.882 378.378,38.753 C 378.378,38.946 378.378,39.301 378.282,39.752 C 378.056,40.752 377.507,41.847 375.605,42.847 C 374.155,43.621 372.51,44.04 371.156,44.975 C 368.963,46.49 368.641,48.618 368.641,49.65 C 368.641,51.101 369.125,52.1 369.382,52.519 C 370.608,54.808 373.219,56.066 375.799,56.066 C 377.831,56.066 379.764,55.293 380.345,55.098 C 380.184,54.647 380.055,54.228 379.926,53.777 C 379.829,53.358 379.764,52.938 379.667,52.519 L 379.249,52.519 C 378.991,52.809 378.765,53.068 378.507,53.294 C 377.959,53.809 377.056,54.551 375.25,54.551 C 374.67,54.551 372.768,54.518 371.64,53.036 C 371.414,52.713 370.866,51.875 370.866,50.746 C 370.866,50.391 370.93,49.586 371.446,48.779 C 372.51,47.039 374.638,46.458 376.379,45.652 C 376.895,45.427 377.733,44.943 378.217,44.62 C 379.184,43.975 380.861,42.718 380.861,39.752 C 380.861,37.366 379.667,35.174 377.701,33.948 C 376.895,33.432 375.347,32.723 372.994,32.723 C 371.575,32.723 370.479,32.885 367.803,33.465 L 368.351,36.237 L 368.673,36.237 Z" fill="#a1803b" stroke-linejoin="miter" fill-rule="nonzero" stroke-width="0.25" stroke="none" marker-start="none" marker-end="none"/>
  <path d="M 404.044,42.524 C 404.012,41.944 403.948,41.364 403.883,40.784 C 403.754,39.881 403.432,37.495 401.755,35.431 C 400.853,34.303 399.917,33.722 399.466,33.497 C 398.242,32.885 396.855,32.691 396.436,32.659 C 396.114,32.627 395.468,32.53 394.566,32.53 C 393.501,32.53 387.633,32.595 385.861,37.592 C 385.441,38.817 385.409,40.042 385.376,41.332 C 385.409,43.847 385.441,46.361 385.441,48.876 C 385.441,51.198 385.409,53.519 385.344,55.841 C 386.183,55.712 386.441,55.68 386.892,55.68 C 387.182,55.68 387.633,55.712 388.311,55.776 C 388.182,52.455 388.085,49.135 388.053,45.813 C 388.053,44.362 388.053,42.944 388.021,41.493 C 388.053,40.461 388.085,39.558 388.408,38.591 C 388.956,36.85 390.793,34.045 395.307,34.045 C 397.757,34.045 399.112,34.884 399.917,35.528 C 401.175,36.593 401.659,37.785 401.852,38.365 C 402.24,39.43 402.304,40.396 402.369,41.525 C 402.401,43.363 402.465,45.201 402.465,47.071 C 402.465,49.972 402.272,52.874 402.11,55.744 C 402.981,55.615 403.239,55.551 404.69,55.647 C 404.497,54.003 404.303,52.39 404.239,50.714 C 404.141,49.102 404.173,47.458 404.141,45.813 L 404.044,42.524 Z" fill="#a1803b" stroke-linejoin="miter" fill-rule="nonzero" stroke-width="0.25" stroke="none" marker-start="none" marker-end="none"/>
  <path d="M 412.496,55.776 C 412.367,54.744 412.27,53.68 412.238,52.616 C 412.173,50.875 412.206,49.102 412.173,47.361 C 412.141,45.04 412.077,42.718 412.077,40.364 C 412.077,37.914 412.173,35.496 412.302,33.046 C 411.786,33.11 411.302,33.175 410.754,33.175 C 410.432,33.175 409.949,33.142 409.174,33.046 C 409.303,34.497 409.4,35.979 409.464,37.463 C 409.529,39.043 409.529,40.655 409.529,42.299 C 409.529,44.62 409.497,46.974 409.529,49.328 C 409.529,50.456 409.561,51.617 409.529,52.745 C 409.497,53.777 409.432,54.776 409.368,55.776 C 410.787,55.712 411.109,55.712 412.496,55.776 Z" fill="#a1803b" stroke-linejoin="miter" fill-rule="nonzero" stroke-width="0.25" stroke="none" marker-start="none" marker-end="none"/>
  <path d="M 417.042,36.237 C 417.655,35.496 418.171,34.916 419.009,34.529 C 420.138,34.045 421.363,33.948 421.782,33.948 C 422.846,33.98 423.652,34.27 424.006,34.399 C 426.425,35.464 426.748,37.882 426.748,38.753 C 426.748,38.946 426.748,39.301 426.651,39.752 C 426.425,40.752 425.876,41.847 423.974,42.847 C 422.524,43.621 420.879,44.04 419.525,44.975 C 417.333,46.49 417.01,48.618 417.01,49.65 C 417.01,51.101 417.494,52.1 417.751,52.519 C 418.977,54.808 421.588,56.066 424.168,56.066 C 426.2,56.066 428.133,55.293 428.714,55.098 C 428.553,54.647 428.424,54.228 428.295,53.777 C 428.198,53.358 428.133,52.938 428.037,52.519 L 427.618,52.519 C 427.36,52.809 427.134,53.068 426.876,53.294 C 426.329,53.809 425.425,54.551 423.62,54.551 C 423.04,54.551 421.137,54.518 420.009,53.036 C 419.783,52.713 419.235,51.875 419.235,50.746 C 419.235,50.391 419.299,49.586 419.815,48.779 C 420.879,47.039 423.007,46.458 424.749,45.652 C 425.264,45.427 426.102,44.943 426.586,44.62 C 427.553,43.975 429.23,42.718 429.23,39.752 C 429.23,37.366 428.037,35.174 426.07,33.948 C 425.264,33.432 423.716,32.723 421.363,32.723 C 419.944,32.723 418.848,32.885 416.172,33.465 L 416.72,36.237 L 417.042,36.237 Z" fill="#a1803b" stroke-linejoin="miter" fill-rule="nonzero" stroke-width="0.25" stroke="none" marker-start="none" marker-end="none"/>
  <path d="M 433.166,36.237 C 433.778,35.496 434.294,34.916 435.132,34.529 C 436.261,34.045 437.486,33.948 437.905,33.948 C 438.969,33.98 439.775,34.27 440.129,34.399 C 442.548,35.464 442.871,37.882 442.871,38.753 C 442.871,38.946 442.871,39.301 442.774,39.752 C 442.548,40.752 442,41.847 440.097,42.847 C 438.647,43.621 437.002,44.04 435.648,44.975 C 433.456,46.49 433.133,48.618 433.133,49.65 C 433.133,51.101 433.617,52.1 433.875,52.519 C 435.1,54.808 437.711,56.066 440.292,56.066 C 442.323,56.066 444.256,55.293 444.837,55.098 C 444.676,54.647 444.547,54.228 444.418,53.777 C 444.321,53.358 444.256,52.938 444.16,52.519 L 443.741,52.519 C 443.483,52.809 443.257,53.068 443,53.294 C 442.452,53.809 441.548,54.551 439.743,54.551 C 439.163,54.551 437.26,54.518 436.132,53.036 C 435.906,52.713 435.358,51.875 435.358,50.746 C 435.358,50.391 435.422,49.586 435.938,48.779 C 437.002,47.039 439.13,46.458 440.872,45.652 C 441.387,45.427 442.225,44.943 442.709,44.62 C 443.676,43.975 445.353,42.718 445.353,39.752 C 445.353,37.366 444.16,35.174 442.193,33.948 C 441.387,33.432 439.839,32.723 437.486,32.723 C 436.067,32.723 434.971,32.885 432.295,33.465 L 432.843,36.237 L 433.166,36.237 Z" fill="#a1803b" stroke-linejoin="miter" fill-rule="nonzero" stroke-width="0.25" stroke="none" marker-start="none" marker-end="none"/>
  <path d="M 459.896,44.104 C 457.542,44.394 456.64,44.523 452.481,44.427 C 452.417,42.105 452.384,39.816 452.417,37.527 C 452.449,36.56 452.481,35.625 452.513,34.69 C 453.963,34.658 455.447,34.626 456.898,34.658 C 458.219,34.69 459.574,34.755 460.896,34.851 L 460.896,33.046 C 458.833,33.142 456.769,33.207 454.706,33.207 C 452.964,33.207 451.255,33.142 449.514,33.078 C 449.643,34.98 449.772,36.85 449.804,38.753 C 449.869,40.945 449.869,43.17 449.869,45.394 C 449.869,46.329 449.901,47.264 449.901,48.231 C 449.901,50.778 449.804,53.326 449.74,55.841 C 451.835,55.712 453.931,55.583 455.995,55.583 C 457.607,55.583 459.219,55.68 460.799,55.744 C 460.67,54.937 460.67,54.744 460.767,54.003 C 459.219,54.099 457.704,54.228 456.156,54.261 C 455.028,54.293 453.867,54.261 452.739,54.261 C 452.642,52.938 452.578,51.617 452.545,50.263 C 452.481,48.779 452.513,47.297 452.513,45.781 C 453.641,45.781 454.77,45.749 455.898,45.749 C 457.22,45.749 458.575,45.813 459.896,45.878 L 459.896,44.104 Z" fill="#a1803b" stroke-linejoin="miter" fill-rule="nonzero" stroke-width="0.25" stroke="none" marker-start="none" marker-end="none"/>
  <path d="M 153.35,9.124 C 153.317,7.898 153.285,6.674 153.285,5.48 C 153.285,4.32 153.35,3.159 153.382,2.031 L 156.832,1.805 C 157.573,1.805 158.315,1.772 159.057,1.805 C 160.024,1.837 162.377,1.837 164.667,3.578 C 166.375,4.9 168.31,7.512 168.31,12.51 C 168.31,16.604 166.891,18.7 165.569,19.892 C 165.15,20.279 164.344,20.957 163.022,21.408 C 161.829,21.795 160.507,21.956 157.896,21.956 C 156.445,21.956 155.026,21.891 153.607,21.827 C 153.479,19.183 153.382,16.54 153.35,13.895 L 153.35,9.124 Z M 153.092,0.709 L 150.448,0.548 C 150.609,2.998 150.738,5.448 150.803,7.866 C 150.835,9.897 150.835,11.929 150.867,13.96 C 150.867,15.089 150.899,16.217 150.899,17.378 C 150.899,19.377 150.803,21.376 150.674,23.375 C 152.028,23.31 153.382,23.246 154.769,23.246 C 156.058,23.246 157.348,23.278 158.637,23.246 C 159.701,23.214 160.765,23.181 161.829,23.117 C 162.41,23.053 162.99,22.988 163.57,22.891 C 164.699,22.698 166.891,22.181 168.89,19.828 C 171.211,17.12 171.276,13.992 171.276,12.8 C 171.276,11.8 171.179,8.963 169.825,6.384 C 168.536,3.965 166.247,2.128 163.699,1.257 C 162.055,0.709 160.765,0.644 159.057,0.548 L 153.092,0.709 Z" fill="#a1803b" stroke-linejoin="miter" fill-rule="nonzero" stroke-width="0.25" stroke="none" marker-start="none" marker-end="none"/>
  <path d="M 185.724,11.574 C 183.371,11.864 182.468,11.993 178.309,11.896 C 178.244,9.575 178.212,7.286 178.244,4.997 C 178.276,4.03 178.309,3.095 178.341,2.16 C 179.792,2.128 181.275,2.096 182.726,2.128 C 184.048,2.16 185.402,2.224 186.724,2.321 L 186.724,0.515 C 184.66,0.612 182.597,0.677 180.533,0.677 C 178.792,0.677 177.083,0.612 175.342,0.548 C 175.472,2.45 175.601,4.32 175.633,6.222 C 175.697,8.415 175.697,10.639 175.697,12.864 C 175.697,13.799 175.729,14.734 175.729,15.701 C 175.729,18.248 175.633,20.796 175.568,23.31 C 177.664,23.181 179.76,23.053 181.823,23.053 C 183.435,23.053 185.047,23.149 186.627,23.214 C 186.498,22.407 186.498,22.214 186.595,21.472 C 185.047,21.569 183.532,21.698 181.984,21.73 C 180.856,21.763 179.695,21.73 178.567,21.73 C 178.47,20.408 178.405,19.087 178.373,17.732 C 178.309,16.249 178.341,14.766 178.341,13.251 C 179.469,13.251 180.598,13.219 181.727,13.219 C 183.048,13.219 184.402,13.283 185.724,13.347 L 185.724,11.574 Z" fill="#a1803b" stroke-linejoin="miter" fill-rule="nonzero" stroke-width="0.25" stroke="none" marker-start="none" marker-end="none"/>
  <path d="M 193.658,15.185 C 193.625,14.153 193.625,13.122 193.625,12.057 C 194.303,12.057 194.947,12.025 195.625,12.057 C 196.302,12.057 198.816,12.025 200.59,13.992 C 201.75,15.347 201.847,16.991 201.847,17.603 C 201.847,17.893 201.815,18.732 201.493,19.538 C 201.17,20.311 200.235,21.569 198.172,21.891 C 197.269,22.02 196.011,22.02 193.948,21.988 C 193.819,19.731 193.69,17.442 193.658,15.185 Z M 192.755,23.214 L 197.752,23.214 C 198.172,23.214 198.559,23.181 198.945,23.149 C 200.944,22.988 202.879,22.407 203.943,20.635 C 204.201,20.182 204.717,19.151 204.717,17.636 C 204.717,15.411 203.588,13.412 201.75,12.284 C 200.009,11.187 198.042,10.962 196.076,10.962 C 195.302,10.962 194.496,10.994 193.722,11.026 C 193.658,9.027 193.593,7.06 193.593,5.061 C 193.593,3.546 193.625,1.999 193.69,0.483 C 193.142,0.548 192.723,0.612 192.175,0.612 C 191.82,0.612 191.465,0.58 190.756,0.515 C 190.917,2.482 191.046,4.449 191.079,6.448 C 191.143,8.608 191.079,10.768 191.111,12.896 C 191.111,14.444 191.175,16.023 191.175,17.603 C 191.175,19.506 191.079,21.408 191.014,23.343 L 192.755,23.214 Z" fill="#a1803b" stroke-linejoin="miter" fill-rule="nonzero" stroke-width="0.25" stroke="none" marker-start="none" marker-end="none"/>
  <path d="M 225.935,9.994 C 225.902,9.414 225.838,8.834 225.773,8.254 C 225.645,7.35 225.322,4.965 223.646,2.901 C 222.743,1.772 221.808,1.192 221.356,0.967 C 220.131,0.354 218.745,0.161 218.325,0.129 C 218.003,0.097 217.358,0 216.456,0 C 215.392,0 209.523,0.064 207.75,5.061 C 207.331,6.287 207.299,7.512 207.267,8.802 C 207.299,11.316 207.331,13.831 207.331,16.346 C 207.331,18.668 207.299,20.989 207.234,23.31 C 208.073,23.181 208.331,23.149 208.782,23.149 C 209.072,23.149 209.523,23.181 210.201,23.246 C 210.071,19.925 209.975,16.604 209.942,13.283 C 209.942,11.832 209.942,10.414 209.91,8.963 C 209.942,7.93 209.975,7.028 210.297,6.061 C 210.845,4.32 212.683,1.514 217.197,1.514 C 219.647,1.514 221.001,2.353 221.808,2.998 C 223.065,4.062 223.549,5.255 223.742,5.835 C 224.129,6.899 224.193,7.866 224.258,8.995 C 224.29,10.833 224.354,12.671 224.354,14.541 C 224.354,17.442 224.161,20.344 224,23.214 C 224.871,23.085 225.128,23.02 226.579,23.117 C 226.386,21.472 226.192,19.86 226.128,18.183 C 226.031,16.572 226.063,14.928 226.031,13.283 L 225.935,9.994 Z" fill="#a1803b" stroke-linejoin="miter" fill-rule="nonzero" stroke-width="0.25" stroke="none" marker-start="none" marker-end="none"/>
  <path d="M 234.385,23.246 C 234.256,22.214 234.16,21.15 234.127,20.086 C 234.063,18.345 234.095,16.572 234.063,14.831 C 234.031,12.51 233.966,10.188 233.966,7.834 C 233.966,5.384 234.063,2.966 234.192,0.515 C 233.676,0.58 233.193,0.644 232.644,0.644 C 232.322,0.644 231.838,0.612 231.065,0.515 C 231.194,1.967 231.291,3.449 231.355,4.932 C 231.419,6.513 231.419,8.124 231.419,9.768 C 231.419,12.09 231.387,14.444 231.419,16.798 C 231.419,17.926 231.452,19.087 231.419,20.215 C 231.387,21.247 231.323,22.246 231.258,23.246 C 232.676,23.181 233,23.181 234.385,23.246 Z" fill="#a1803b" stroke-linejoin="miter" fill-rule="nonzero" stroke-width="0.25" stroke="none" marker-start="none" marker-end="none"/>
  <path d="M 238.933,3.707 C 239.545,2.966 240.062,2.386 240.9,1.999 C 242.029,1.514 243.253,1.418 243.672,1.418 C 244.737,1.45 245.542,1.74 245.897,1.869 C 248.316,2.933 248.638,5.351 248.638,6.222 C 248.638,6.416 248.638,6.77 248.542,7.222 C 248.316,8.222 247.767,9.317 245.865,10.317 C 244.415,11.091 242.77,11.51 241.416,12.445 C 239.223,13.96 238.901,16.088 238.901,17.12 C 238.901,18.571 239.384,19.57 239.642,19.989 C 240.868,22.278 243.479,23.536 246.059,23.536 C 248.09,23.536 250.024,22.763 250.605,22.569 C 250.444,22.117 250.315,21.698 250.186,21.247 C 250.088,20.828 250.024,20.408 249.927,19.989 L 249.508,19.989 C 249.25,20.279 249.025,20.538 248.767,20.763 C 248.219,21.279 247.316,22.02 245.51,22.02 C 244.93,22.02 243.028,21.988 241.9,20.505 C 241.673,20.182 241.125,19.345 241.125,18.216 C 241.125,17.861 241.19,17.055 241.706,16.249 C 242.77,14.509 244.898,13.928 246.639,13.122 C 247.155,12.896 247.993,12.413 248.477,12.09 C 249.444,11.445 251.121,10.188 251.121,7.222 C 251.121,4.836 249.927,2.643 247.96,1.418 C 247.155,0.902 245.607,0.193 243.253,0.193 C 241.834,0.193 240.739,0.354 238.063,0.934 L 238.611,3.707 L 238.933,3.707 Z" fill="#a1803b" stroke-linejoin="miter" fill-rule="nonzero" stroke-width="0.25" stroke="none" marker-start="none" marker-end="none"/>
  <path d="M 273.5,22.73 C 273.306,20.925 273.145,19.119 273.081,17.313 C 273.048,15.83 273.081,14.315 273.048,12.832 L 273.048,9.93 C 273.048,8.124 273.048,6.351 273.113,4.578 C 273.145,3.191 273.209,1.837 273.274,0.483 C 272.339,0.58 271.92,0.644 270.276,0.548 C 270.405,3.868 270.534,7.189 270.566,10.543 C 270.598,13.863 270.566,17.184 270.534,20.505 L 264.601,17.41 L 262.989,18.797 L 265.988,19.763 C 267.374,20.311 268.728,20.892 270.083,21.505 C 271.114,21.988 272.114,22.536 273.113,23.085 L 273.5,22.73 Z" fill="#a1803b" stroke-linejoin="miter" fill-rule="nonzero" stroke-width="0.25" stroke="none" marker-start="none" marker-end="none"/>
  <path d="M 286.592,14.185 C 286.915,13.992 287.528,13.67 288.462,13.67 C 288.914,13.67 290.075,13.766 290.913,14.67 C 291.719,15.508 292.042,16.862 292.042,18.055 C 292.042,19.377 291.59,20.15 291.268,20.538 C 290.623,21.376 289.656,21.924 288.559,21.924 C 288.237,21.924 287.592,21.859 286.882,21.472 C 285.174,20.538 285.045,18.539 285.013,17.926 C 284.917,16.378 285.271,14.992 286.592,14.185 Z M 285.851,2.16 C 286.238,1.901 287.173,1.321 288.495,1.321 C 288.881,1.321 289.688,1.386 290.59,1.869 C 292.042,2.676 292.654,3.932 292.912,5.545 C 292.944,5.674 293.073,6.706 293.073,7.447 C 293.073,8.608 292.783,9.672 292.074,10.639 C 291.655,11.22 290.526,12.445 288.495,12.445 C 287.947,12.445 286.915,12.381 285.819,11.51 C 284.464,10.414 283.981,8.737 283.981,7.028 C 283.949,5.351 284.464,3.256 285.851,2.16 Z M 284.271,13.96 C 282.465,15.218 282.208,17.12 282.208,17.861 C 282.208,18.539 282.369,19.796 283.562,21.054 C 284.335,21.891 285.787,22.988 288.366,22.988 C 288.656,22.988 289.269,22.988 290.01,22.859 C 292.718,22.375 293.75,21.021 294.266,19.925 C 294.395,19.57 294.717,18.861 294.717,17.926 C 294.717,17.313 294.556,16.152 293.557,14.96 C 292.783,14.089 291.945,13.67 290.913,13.122 C 292.203,12.703 292.847,12.445 293.364,12.09 C 294.169,11.574 295.846,10.058 295.846,7.254 C 295.846,6.899 295.814,5.996 295.524,4.997 C 294.588,1.74 291.751,0.29 288.527,0.29 C 285.819,0.29 283.884,1.321 283.079,1.999 C 281.789,3.127 281.144,5.029 281.144,6.835 C 281.144,8.254 281.531,9.639 282.336,10.768 C 282.562,11.091 282.95,11.542 283.691,12.09 C 284.207,12.477 284.625,12.703 285.787,13.219 C 285.625,13.283 284.852,13.573 284.271,13.96 Z" fill="#a1803b" stroke-linejoin="miter" fill-rule="nonzero" stroke-width="0.25" stroke="none" marker-start="none" marker-end="none"/>
  <path d="M 308.326,8.64 L 308.326,19.667 C 307.262,18.248 306.23,16.83 305.199,15.347 C 303.651,13.186 302.103,10.962 300.588,8.737 L 308.326,8.64 Z M 311.035,22.827 C 310.906,20.182 310.777,17.539 310.745,14.863 C 310.712,12.832 310.745,10.801 310.777,8.769 L 313.904,8.737 C 313.872,8.447 313.807,8.027 313.807,7.705 C 313.807,7.479 313.839,7.222 313.904,6.738 L 310.745,6.867 C 310.712,5.545 310.68,4.256 310.745,2.966 C 310.777,2.096 310.841,1.289 310.906,0.451 C 310.292,0.548 310.002,0.58 309.358,0.58 C 308.875,0.58 308.39,0.548 307.907,0.515 C 308.197,2.643 308.261,3.223 308.293,6.867 C 306.069,6.899 303.812,6.931 301.587,6.899 C 300.395,6.867 299.234,6.835 298.073,6.77 L 298.073,7.447 C 299.943,9.865 301.781,12.316 303.554,14.799 C 305.424,17.474 307.23,20.15 309.003,22.859 L 311.035,22.827 Z" fill="#a1803b" stroke-linejoin="miter" fill-rule="nonzero" stroke-width="0.25" stroke="none" marker-start="none" marker-end="none"/>
  <path d="M 317.13,3.61 C 317.808,2.805 318.839,1.321 321.418,1.321 C 323.16,1.321 324.256,2.031 324.772,2.45 C 326.191,3.642 326.868,5.835 326.868,7.64 C 326.835,8.479 326.739,10.897 324.514,12.186 C 323.772,12.606 322.87,12.832 322.032,12.832 C 320.677,12.832 319.677,12.316 318.549,11.703 L 318.034,12.186 C 318.453,13.702 318.485,14.024 318.517,15.572 C 318.549,16.701 318.549,17.797 318.517,18.893 C 318.485,20.215 318.356,21.537 318.259,22.859 C 319.742,22.73 321.257,22.601 322.773,22.601 C 324.869,22.601 326.964,22.698 329.028,22.763 C 328.867,21.891 328.802,21.698 328.899,20.247 C 327.125,20.376 325.352,20.538 323.579,20.57 C 322.418,20.602 321.225,20.57 320.065,20.538 C 319.936,18.861 319.807,17.217 319.742,15.54 C 319.709,14.863 319.709,14.185 319.709,13.509 C 320.967,13.895 322,14.218 323.289,14.218 C 323.804,14.218 325.159,14.153 326.513,13.444 C 328.77,12.251 329.576,10.317 329.576,7.834 C 329.576,7.35 329.543,6.19 329.028,4.965 C 327.706,1.901 324.74,0.354 321.58,0.354 C 319.742,0.354 318.098,0.87 317.549,1.128 C 317.195,1.257 316.937,1.418 316.325,1.805 L 316.744,3.61 L 317.13,3.61 Z" fill="#a1803b" stroke-linejoin="miter" fill-rule="nonzero" stroke-width="0.25" stroke="none" marker-start="none" marker-end="none"/>
  <path d="M 181.927,145.975 C 185.443,149.251 189.961,150.115 192.023,147.908 C 194.083,145.699 192.904,141.254 189.388,137.979 C 185.872,134.704 181.353,133.84 179.292,136.047 C 177.233,138.255 178.412,142.701 181.927,145.975 Z" fill="#a1803b" stroke-linejoin="miter" fill-rule="nonzero" stroke-width="0.25" stroke="none" marker-start="none" marker-end="none"/>
  <path d="M 151.108,102.636 L 151.098,102.636 L 151.108,102.636 Z" fill="#a1803b" stroke-linejoin="miter" fill-rule="nonzero" stroke-width="0.25" stroke="none" marker-start="none" marker-end="none"/>
  <path d="M 151.119,102.636 L 151.108,102.636 L 151.119,102.636 Z" fill="#a1803b" stroke-linejoin="miter" fill-rule="nonzero" stroke-width="0.25" stroke="none" marker-start="none" marker-end="none"/>
  <path d="M 181.927,145.975 C 185.443,149.251 189.961,150.115 192.023,147.908 C 194.083,145.699 192.904,141.254 189.388,137.979 C 185.872,134.704 181.353,133.84 179.292,136.047 C 177.233,138.255 178.412,142.701 181.927,145.975 Z" fill="#a1803b" stroke-linejoin="miter" fill-rule="nonzero" stroke-width="0.25" stroke="none" marker-start="none" marker-end="none"/>
  <path d="M 158.928,101.494 L 158.919,101.494 L 158.928,101.494 Z" fill="#a1803b" stroke-linejoin="miter" fill-rule="nonzero" stroke-width="0.25" stroke="none" marker-start="none" marker-end="none"/>
  <path d="M 158.938,101.494 L 158.928,101.494 L 158.938,101.494 Z" fill="#a1803b" stroke-linejoin="miter" fill-rule="nonzero" stroke-width="0.25" stroke="none" marker-start="none" marker-end="none"/>
  <path d="M 0,76.601 L 480.739,76.601 L 480.739,70.931 L 0,70.931 L 0,76.601 Z" fill="#a1803b" stroke-linejoin="miter" fill-rule="nonzero" stroke-width="0.25" stroke="none" marker-start="none" marker-end="none"/>
  <path d="M 152.653,103.19 C 142.083,94.776 129.839,89.896 115.773,91.368 C 111.056,92.125 106.425,93.135 101.876,94.397 C 92.232,91.66 80.945,89.811 70.459,92.085 C 67.848,92.84 64.395,94.185 63.805,97.299 C 63.596,100.118 66.08,102.432 68.354,103.568 C 80.568,109.5 95.727,104.829 107.603,101.17 C 112.318,104.618 116.404,109.247 120.028,113.705 L 127.719,123.252 C 128.94,125.02 131.733,128.679 131.733,128.679 C 119.224,129.313 105.574,130.745 97.994,141.599 C 94.328,147.489 94.75,155.776 98.372,161.583 C 105.994,172.731 118.586,176.055 131.304,176.813 C 139.223,177.021 146.591,175.465 153.454,172.982 C 153.454,172.982 153.286,171.721 153.16,171.09 C 143.18,173.614 131.051,174.371 121.113,171.006 C 112.859,168.608 103.172,161.204 102.246,151.906 C 101.362,145.721 104.52,139.958 109.953,136.678 C 116.733,132.514 124.904,131.631 133.326,131.377 C 143.853,145.219 159.066,163.559 173.551,172.939 C 179.406,176.389 185.428,179.882 192.713,179.587 C 194.481,179.5 196.673,178.746 197.893,176.811 C 200.252,173.318 198.23,168.942 196.545,165.787 C 189.092,152.83 173.713,140.043 161.204,134.238 C 156.065,132.05 150.718,130.409 145.244,129.104 C 139.054,119.639 134.416,113.068 125.375,106.388 C 121.449,103.486 117.162,101.17 112.656,99.488 C 121.08,95.913 133.166,95.869 141.419,99.95 C 148.2,103.147 154.686,108.238 159.737,114.591 L 172.521,130.746 L 185.764,130.743 L 158.349,95.913 C 157.873,95.287 157.75,94.713 158.002,94.206 C 159.004,92.293 162.463,94.206 162.463,94.206 C 162.463,94.206 166.138,95.612 179.532,107.648 C 183.786,111.477 187.575,115.263 191.155,119.68 L 200.157,130.958 L 212.634,130.958 C 209.642,127.086 206.949,123.425 204.293,119.723 C 210.696,124.939 217.055,130.155 224.93,131.713 C 227.919,132.134 230.783,131.207 232.468,128.682 C 234.658,125.192 233.268,120.598 231.205,117.494 L 228.551,114.17 L 213.012,96.121 C 212.549,95.556 212.597,95.02 213.058,94.63 C 214.195,93.842 215.792,95.156 216.971,95.532 C 222.782,98.309 227.534,101.906 232.501,106.619 C 233.892,108.175 235.207,110.719 236.509,112.318 C 244.47,122.332 255.253,129.229 267.128,131.544 C 270.408,132.006 274.455,132.511 276.895,129.945 C 277.612,129.061 277.78,127.925 277.74,126.749 L 279.631,128.936 L 295.008,148.539 L 309.811,167.662 L 322.444,167.662 L 285.742,120.143 L 267.041,96.038 C 266.833,95.616 266.651,95.092 266.86,94.67 C 267.36,93.6 269.361,94.185 270.408,94.397 C 278.246,96.794 284.981,102.477 290.585,109.165 L 310.546,134.53 L 302.731,134.538 L 305.532,137.895 L 313.242,137.895 C 313.242,137.895 335.96,167.278 336.38,167.699 L 349.016,167.699 L 326.254,138.063 L 344.973,138.096 L 341.977,134.587 L 323.557,134.574 L 293.488,96.164 C 293.058,95.577 293.019,94.998 293.162,94.624 C 293.55,93.842 293.988,93.609 295.015,93.635 C 299.083,93.691 302.507,96.415 306.128,99.277 C 310.129,102.411 316.678,108.814 316.678,108.814 L 318.696,106.711 C 312.131,100.823 305.708,93.794 298.759,91.511 C 296.692,90.712 292.329,89.74 289.034,91.663 C 285.791,93.562 285.352,96.973 287.675,101.591 L 287.425,101.549 C 280.435,96.164 273.656,89.602 264.095,91.157 C 262.242,91.492 260.512,93.051 259.712,94.776 C 258.915,96.67 258.832,99.109 259.419,101.086 C 257.609,99.867 255.798,98.184 253.949,96.922 C 248.597,93.179 241.919,88.503 235.054,91.531 C 232.234,93.004 231.247,96.502 231.332,99.573 C 231.416,100.33 231.5,101.17 231.625,101.845 C 226.488,97.638 221.33,94.167 215.476,91.728 C 213.021,90.826 206.954,89.534 203.934,92.599 C 202.441,94.417 202.121,95.974 202.751,98.835 C 203.593,102.369 211.244,110.301 211.244,110.301 L 226.107,127.043 C 226.107,127.043 226.771,127.788 226.14,128.662 C 225.382,129.716 223.825,128.827 222.865,128.473 C 215.792,125.527 207.787,119.005 198.549,109.778 C 192.989,104.643 182.859,91.949 182.859,91.949 L 170.256,91.94 L 179.828,104.115 C 179.532,104.492 179.068,103.948 179.068,103.948 C 179.068,103.948 169.427,94.363 162.982,91.756 L 162.868,91.712 C 160.417,90.809 154.336,89.518 151.317,92.583 C 149.824,94.399 149.504,95.958 150.134,98.819 C 150.831,101.663 152.653,103.19 152.653,103.19 Z M 195.324,175.127 L 194.608,175.97 C 191.492,177.778 187.997,175.8 185.258,174.37 C 170.816,165.829 156.482,145.987 147.428,132.526 C 149.702,132.905 158.548,135.828 164.573,139.622 C 175.228,145.555 188.882,158.554 194.608,169.701 C 195.24,171.341 196.25,173.276 195.324,175.127 Z M 95.606,96.055 C 90.132,98.159 84.615,100.136 78.593,100.977 C 74.593,101.356 70.002,101.61 67.011,98.833 C 66.398,98.18 66.369,97.612 66.638,97.014 C 67.902,94.532 70.758,94.498 73.118,93.953 C 80.782,92.984 88.531,94.161 95.606,96.055 Z M 274.79,127.254 C 273.154,129.182 270.245,127.378 268.35,126.58 C 260.599,121.91 253.567,115.557 247.166,108.407 C 243.795,104.45 240.243,100.609 238.601,95.856 C 238.475,95.098 238.96,94.115 239.505,93.738 C 241.531,93.149 243.206,94.228 244.972,94.86 C 255.253,99.78 264.599,109.879 271.757,119.177 C 273.235,121.658 276.205,124.805 274.79,127.254 Z" fill="#a1803b" stroke-linejoin="miter" fill-rule="nonzero" stroke-width="0.25" stroke="none" marker-start="none" marker-end="none"/>
  <path d="M 358.675,159.898 C 358.86,159.915 359.044,159.813 359.211,159.83 C 359.211,160.123 359.128,160.464 359.128,160.773 C 359.147,161.51 359.295,162.296 359.729,162.862 C 360.427,160.737 361.923,159.059 363.671,157.791 C 363.658,157.603 363.573,157.397 363.458,157.277 C 363.193,156.707 360.311,159.572 359.827,159.332 C 359.762,159.194 359.729,159.007 359.81,158.871 C 360.575,157.636 361.936,156.979 362.811,155.872 C 362.829,155.649 362.693,155.461 362.579,155.272 C 361.061,155.889 359.827,157.02 358.512,157.996 C 357.962,158.341 357.447,158.768 356.782,158.871 C 356.628,158.871 356.447,158.802 356.33,158.802 C 356.831,159.608 357.747,159.934 358.675,159.898 Z M 365.743,161.069 C 366.108,159.924 366.542,158.911 367.208,157.954 C 367.508,157.626 367.742,157.129 368.39,157.284 C 368.66,157.549 367.715,158.529 367.5,159.163 C 367.25,159.963 366.496,161.322 367.124,161.546 C 367.375,161.563 367.491,161.473 367.658,161.322 C 367.755,160.908 367.965,160.415 368.158,160.024 C 369.163,157.88 370.925,156.628 373.031,156.069 L 373.144,155.018 C 372.3,155.059 371.09,155.572 369.392,156.531 C 369.304,156.564 369.105,156.615 369.072,156.477 C 368.939,156.067 369.264,155.774 369.551,155.572 C 370.603,154.772 371.872,154.27 373.193,154.003 L 373.237,153.313 C 370.15,153.618 367.352,155.397 365.977,158.209 C 365.596,159.031 365.28,159.924 365.18,160.846 C 365.225,161.381 365.609,161.274 365.743,161.069 Z M 378.13,158.235 C 378.13,158.235 378.212,156.522 376.819,155.704 C 378.32,155.203 379.521,155.983 379.521,155.983 C 379.488,154.866 378.485,153.703 377.937,153.257 C 378.861,152.895 380.182,153.398 380.182,153.398 C 380.616,149.261 380.531,147.862 380.531,147.862 L 378.671,147.862 C 378.671,147.862 378.856,151.124 375.305,152.523 C 375.29,155.426 374.845,157.957 374.845,157.957 C 374.845,157.957 376.208,157.844 378.13,158.235 Z M 383.317,154.701 C 384.209,154.701 384.932,153.816 384.932,152.727 C 384.932,151.636 384.209,150.752 383.317,150.752 C 382.421,150.752 381.7,151.636 381.7,152.727 C 381.7,153.816 382.421,154.701 383.317,154.701 Z M 386.472,153.398 C 386.472,153.398 387.792,152.895 388.716,153.257 C 388.167,153.703 387.166,154.866 387.129,155.983 C 387.129,155.983 388.333,155.203 389.837,155.704 C 388.447,156.522 388.526,158.235 388.526,158.235 C 390.444,157.844 391.809,157.957 391.809,157.957 C 391.809,157.957 391.368,155.426 391.35,152.523 C 388.044,151.072 387.981,147.862 387.981,147.862 L 386.127,147.862 C 386.127,147.862 386.049,149.057 386.472,153.398 Z M 393.475,154.003 C 394.792,154.27 396.065,154.772 397.108,155.572 C 397.399,155.774 397.723,156.067 397.593,156.477 C 397.561,156.615 397.361,156.564 397.274,156.531 C 395.576,155.572 394.366,155.059 393.522,155.018 L 393.63,156.069 C 395.736,156.628 397.502,157.88 398.511,160.024 C 398.704,160.415 398.912,160.908 399.013,161.322 C 399.176,161.473 399.295,161.563 399.543,161.546 C 400.169,161.322 399.418,159.963 399.167,159.163 C 398.952,158.529 398.007,157.549 398.276,157.284 C 398.926,157.129 399.16,157.626 399.459,157.954 C 400.124,158.911 400.559,159.924 400.922,161.069 C 401.064,161.274 401.445,161.381 401.491,160.846 C 401.393,159.924 401.076,159.031 400.693,158.209 C 399.319,155.397 396.518,153.618 393.429,153.313 L 393.475,154.003 Z M 406.766,162.862 C 407.202,162.296 407.352,161.51 407.368,160.773 C 407.368,160.464 407.282,160.123 407.282,159.83 C 407.452,159.813 407.631,159.915 407.817,159.898 C 408.749,159.934 409.668,159.608 410.166,158.802 C 410.047,158.802 409.865,158.871 409.716,158.871 C 409.047,158.768 408.535,158.341 407.984,157.996 C 406.667,157.02 405.433,155.889 403.918,155.272 C 403.801,155.461 403.669,155.649 403.688,155.872 C 404.56,156.979 405.92,157.636 406.686,158.871 C 406.766,159.007 406.734,159.194 406.667,159.332 C 406.186,159.572 403.304,156.707 403.036,157.277 C 402.919,157.397 402.839,157.603 402.822,157.791 C 404.569,159.059 406.067,160.737 406.766,162.862 Z M 355.081,157.02 C 355.461,157.327 356.011,157.516 356.58,157.414 C 358.161,156.764 359.393,155.598 360.876,154.775 C 361.56,154.4 362.207,154.057 362.959,153.852 C 364.206,153.576 365.708,153.816 366.57,154.708 L 366.718,154.947 C 367.905,153.852 369.218,153.148 370.667,152.55 C 371.488,152.316 372.312,152.069 373.208,152.007 L 373.178,151.438 C 377.39,151.432 377.469,146.795 377.469,146.795 L 380.513,146.795 L 380.513,145.842 L 386.083,145.842 L 386.083,146.795 L 389.187,146.795 C 389.187,146.795 389.388,151.432 393.477,151.438 L 393.444,152.02 C 394.283,152.098 395.054,152.331 395.828,152.55 C 397.274,153.148 398.593,153.852 399.773,154.947 L 399.925,154.708 C 400.791,153.816 402.291,153.576 403.533,153.852 C 404.283,154.057 404.936,154.4 405.62,154.775 C 407.102,155.598 408.332,156.764 409.916,157.414 C 410.48,157.516 411.03,157.327 411.416,157.02 C 411.513,156.969 411.565,156.713 411.714,156.813 C 411.83,157.156 411.814,157.636 411.765,157.996 C 411.546,159.692 410.133,160.857 408.565,161.218 C 408.469,161.938 408.282,162.658 408.017,163.291 C 407.57,164.146 406.9,164.9 406.016,165.227 C 405.767,162.76 404.388,160.583 402.573,159.213 C 402.524,160.036 402.688,160.995 402.39,161.749 C 402.291,162.074 401.938,162.245 401.675,162.382 C 400.54,162.947 398.993,163.034 397.824,162.47 C 397.327,162.16 397.359,161.473 397.16,160.978 C 396.687,159.304 395.377,158.118 393.802,157.596 C 393.931,158.547 394.042,159.165 394.042,159.165 C 394.042,159.165 389.756,158.604 387.319,159.65 C 387.319,159.65 386.778,155.511 383.337,155.509 C 379.926,155.507 379.335,159.65 379.335,159.65 C 376.901,158.604 372.611,159.165 372.611,159.165 C 372.611,159.165 372.729,158.523 372.86,157.543 C 371.208,158.034 369.83,159.246 369.334,160.978 C 369.137,161.473 369.17,162.16 368.669,162.47 C 367.503,163.034 365.957,162.947 364.826,162.382 C 364.558,162.245 364.206,162.074 364.107,161.749 C 363.808,160.995 363.973,160.036 363.923,159.213 C 362.108,160.583 360.725,162.76 360.475,165.227 C 359.593,164.9 358.925,164.146 358.476,163.291 C 358.209,162.658 358.031,161.938 357.926,161.218 C 356.363,160.857 354.946,159.692 354.732,157.996 C 354.684,157.636 354.666,157.156 354.78,156.813 C 354.93,156.713 354.978,156.969 355.081,157.02 Z" fill="#a1803b" stroke-linejoin="miter" fill-rule="nonzero" stroke-width="0.25" stroke="none" marker-start="none" marker-end="none"/>
  <path d="M 375.05,181.883 C 375.288,182.715 376.086,183.258 376.982,183.325 C 378.332,183.407 379.44,182.607 379.977,181.46 C 380.583,180.366 380.626,179.05 380.687,177.75 C 380.667,175.882 380.716,173.995 381.243,172.249 C 380.073,172.807 380.22,174.373 379.996,175.53 C 379.833,177.428 379.959,179.575 378.967,181.235 C 378.544,181.958 377.765,182.409 376.871,182.275 C 376.215,182.218 375.77,181.703 375.554,181.133 C 375.559,180.995 375.513,180.84 375.475,180.699 C 375.117,180.926 374.949,181.418 375.05,181.883 Z M 380.675,185.27 C 381.058,186.138 381.82,186.719 382.781,186.917 C 383.906,187.064 384.889,186.585 385.55,185.842 C 385.918,185.336 386.107,184.815 386.213,184.176 C 386.377,182.686 385.489,181.314 385.172,179.936 C 384.784,178.486 384.814,177.1 384.622,175.602 C 384.564,174.627 384.462,172.694 384.483,171.694 C 384.43,171.577 384.439,171.416 384.283,171.389 C 384.147,171.33 384.072,171.471 384.018,171.565 C 383.678,173.831 383.768,177.499 384.263,179.651 C 384.51,181.107 385.134,182.029 385.218,183.552 C 385.225,184.619 384.855,185.486 383.985,185.859 C 383.419,186.108 382.606,186.098 382.078,185.77 C 381.453,185.483 381.198,184.802 381.213,184.124 C 381.258,183.998 381.265,183.854 381.336,183.746 C 381.691,184.061 381.915,184.192 382.2,184.213 C 382.496,184.217 382.774,184.059 382.972,183.864 C 383.375,183.311 383.358,182.616 383.375,181.924 C 383.285,180.206 382.895,178.557 382.803,176.798 C 382.755,175.391 382.74,173.057 383.091,171.596 C 383.048,171.513 383.044,171.369 382.917,171.36 C 382.734,171.346 382.644,171.484 382.571,171.624 C 382.322,172.301 382.265,173.103 382.165,173.889 C 382.096,174.898 382.056,176.697 382.081,177.748 C 382.136,179.236 382.583,180.85 382.45,182.343 C 382.434,182.549 382.356,182.77 382.21,182.889 C 381.993,183.034 381.765,183.164 381.523,183.051 C 381.326,182.97 381.268,182.811 381.238,182.566 C 380.516,183.273 380.278,184.418 380.675,185.27 Z M 386.814,181.46 C 387.351,182.607 388.463,183.407 389.81,183.325 C 390.706,183.258 391.506,182.715 391.745,181.883 C 391.845,181.418 391.679,180.926 391.323,180.699 C 391.274,180.84 391.232,180.995 391.237,181.133 C 391.019,181.703 390.571,182.218 389.923,182.275 C 389.028,182.409 388.247,181.958 387.821,181.235 C 386.831,179.575 386.96,177.428 386.796,175.53 C 386.575,174.373 386.721,172.807 385.548,172.249 C 386.077,173.995 386.125,175.882 386.107,177.75 C 386.165,179.05 386.21,180.366 386.814,181.46 Z M 386.349,168.379 C 386.57,168.43 386.751,168.275 386.834,168.103 C 386.751,167.727 386.333,167.66 386.084,167.488 C 387.064,166.58 387.451,164.953 387.015,163.496 C 386.801,162.862 386.467,162.194 385.784,161.955 L 385.448,161.921 C 385.865,163.153 386.067,164.782 385.649,166.083 C 385.516,166.461 385.415,166.854 385.2,167.18 C 384.766,167.146 384.319,167.093 383.89,167.025 C 384.206,165.156 384.239,163.17 383.824,161.355 C 383.469,161.305 383.085,161.322 382.753,161.406 C 382.488,162.743 382.404,164.284 382.556,165.688 C 382.624,166.135 382.72,166.563 382.806,167.007 C 382.503,167.111 382.122,167.077 381.804,167.162 C 381.657,167.162 381.371,167.371 381.357,167.077 C 380.754,165.483 380.541,163.46 381.154,161.833 C 380.972,161.801 380.841,161.955 380.655,162.005 C 379.573,162.554 379.455,163.873 379.523,165.055 C 379.621,165.964 379.957,166.785 380.472,167.488 C 380.189,167.66 379.791,167.66 379.671,168.001 C 379.655,168.156 379.639,168.344 379.807,168.395 C 380.206,168.448 380.472,168.189 380.821,168.12 C 382.537,167.592 384.718,167.677 386.349,168.379 Z M 382.27,157.467 C 381.97,157.672 381.77,158.014 381.49,158.236 L 381.404,160.205 L 382.286,160.001 L 382.335,159.915 C 382.301,159.094 382.286,158.29 382.27,157.467 Z M 375.388,179.298 C 375.807,179.247 376.155,179.436 376.54,179.503 C 377.087,179.227 377.321,178.475 377.622,177.945 L 377.204,178.15 C 376.621,178.389 375.885,178.305 375.323,178.662 C 375.323,178.237 375.475,177.823 375.605,177.446 C 376.024,176.315 377.239,176.076 378.24,175.511 C 377.772,175.598 377.254,175.563 376.823,175.735 C 376.572,175.837 376.339,175.973 376.106,176.025 C 376.252,175.288 376.734,174.554 377.289,174.073 C 377.672,173.73 378.189,173.611 378.654,173.457 C 378.803,173.421 378.919,173.37 378.967,173.198 C 378.487,173.317 377.921,173.216 377.455,173.285 C 377.971,171.83 379.707,171.116 380.907,170.346 C 380.86,170.157 380.722,170.036 380.558,169.969 C 380.207,169.831 379.972,169.4 379.558,169.521 C 379.125,169.591 378.695,169.349 378.477,169.009 C 378.359,168.768 378.311,168.53 378.391,168.254 C 377.527,167.125 377.079,165.429 377.444,163.92 C 377.778,162.415 378.874,161.352 380.109,160.682 L 380.109,159.746 C 380.114,157.403 382.286,156.231 383.252,156.223 C 384.526,156.223 386.564,157.45 386.572,159.746 L 386.572,160.682 C 387.798,161.352 388.901,162.415 389.233,163.92 C 389.601,165.429 389.153,167.125 388.283,168.254 C 388.367,168.53 388.316,168.768 388.198,169.009 C 387.983,169.349 387.549,169.591 387.114,169.521 C 386.703,169.4 386.47,169.831 386.12,169.969 C 385.95,170.036 385.819,170.157 385.767,170.346 C 386.967,171.116 388.696,171.83 389.213,173.285 C 388.744,173.216 388.177,173.317 387.699,173.198 C 387.745,173.37 387.86,173.421 388.015,173.457 C 388.478,173.611 388.996,173.73 389.377,174.073 C 389.929,174.554 390.414,175.288 390.559,176.025 C 390.327,175.973 390.091,175.837 389.845,175.735 C 389.411,175.563 388.898,175.598 388.431,175.511 C 389.425,176.076 390.644,176.315 391.059,177.446 C 391.191,177.823 391.344,178.237 391.344,178.662 C 390.777,178.305 390.043,178.389 389.462,178.15 L 389.046,177.945 C 389.344,178.475 389.578,179.227 390.125,179.503 C 390.508,179.436 390.86,179.247 391.278,179.298 C 392.111,179.332 392.825,180 393.075,180.772 C 393.477,182.159 392.857,183.563 391.863,184.42 C 391.075,185.054 390.027,185.363 388.914,185.259 C 388.293,185.156 387.534,184.85 387.534,184.85 C 387.534,184.85 386.949,188.321 383.331,188.326 C 380.044,188.321 379.131,184.85 379.131,184.85 C 379.131,184.85 378.371,185.156 377.757,185.259 C 376.636,185.363 375.588,185.054 374.808,184.42 C 373.807,183.563 373.191,182.159 373.59,180.772 C 373.839,180 374.557,179.332 375.388,179.298 Z" fill="#a1803b" stroke-linejoin="miter" fill-rule="nonzero" stroke-width="0.25" stroke="none" marker-start="none" marker-end="none"/>
  <path d="M 414.672,132.052 C 414.185,131.942 413.729,132.59 413.353,132.836 C 411.001,134.398 408.483,135.666 405.769,136.487 C 405.233,136.648 402.088,137.266 402.052,137.607 C 401.958,138.382 402.994,137.735 403.101,138.25 C 403.176,138.626 403.226,139.01 403.292,139.389 L 403.551,139.477 C 403.832,139.131 403.847,138.643 404.038,138.25 C 404.13,138.059 404.298,137.772 404.542,137.752 C 405.583,137.654 404.403,140.566 405.267,140.813 C 405.456,140.014 405.836,138.018 406.46,137.483 C 407.618,136.493 406.092,141.958 407.275,142.13 L 407.534,141.934 C 407.519,141.117 407.829,136.712 408.852,136.629 L 409.11,136.807 C 409.173,137.6 408.519,143.375 409.857,143.305 C 409.949,143.189 409.99,139.452 410.08,138.839 C 410.178,138.209 410.509,136.441 410.929,136.007 C 411.307,135.615 411.53,136.063 411.537,136.416 C 411.598,138.932 410.971,141.544 411.92,144.001 C 412.017,144.255 412.18,144.629 412.472,144.696 L 412.714,144.483 C 411.973,140.691 412.457,137.279 414.185,133.835 C 414.356,133.499 416.042,132.365 414.672,132.052 Z M 411.78,130.895 C 410.417,128.461 409.014,126.114 408.714,123.277 C 408.63,122.51 408.479,120.288 408.801,119.645 C 409.006,119.229 409.489,118.918 409.267,118.36 C 409.173,118.13 408.913,117.969 408.662,117.969 C 408.032,117.969 408.072,119.077 407.952,119.501 C 407.093,122.473 405.408,124.93 403.808,127.548 C 403.275,128.423 400.182,132.915 400.263,133.566 C 400.306,133.901 400.959,135.797 401.475,135.029 C 401.5,134.432 401.145,133.236 401.288,132.783 C 401.786,131.161 403.271,134.959 403.793,134.581 C 403.928,134.485 403.898,134.268 403.867,134.136 C 403.551,132.987 402.733,132.02 402.962,130.753 C 403.685,129.621 404.667,133.607 405.819,133.87 C 405.787,132.493 404.338,130.596 404.192,128.723 L 404.384,128.404 C 404.777,128.395 406.693,132.777 407.898,133.317 C 407.77,131.796 405.046,127.988 405.578,126.589 C 405.862,126.381 406.039,126.528 406.186,126.801 C 406.954,128.257 408.417,131.408 409.735,132.321 C 409.844,132.272 410.027,132.095 409.961,131.947 C 408.95,129.771 407.368,127.757 407.137,125.252 C 407.111,124.923 407.198,124.57 407.587,124.574 C 408.651,125.862 409.334,129.132 411.19,131.005 C 411.28,131.093 411.676,131.438 411.814,131.358 C 411.964,131.272 411.836,130.998 411.78,130.895 Z M 398.149,116.241 C 398.073,116.241 397.979,116.228 397.906,116.241 C 397.827,116.257 397.066,116.631 396.916,116.696 C 395.385,117.378 394.187,117.755 392.49,117.755 C 392.049,117.755 391.597,117.639 391.167,117.755 L 391.136,118.041 C 392.572,118.856 396.305,117.866 396.644,118.344 C 396.862,118.648 396.088,123.776 396.883,125.43 L 397.147,125.591 C 397.329,124.261 397.32,122.912 397.508,121.585 C 397.581,121.096 397.861,117.783 398.619,118.13 C 399.351,118.467 398.608,126.139 399.122,127.745 C 399.209,128.026 399.339,128.34 399.677,128.367 C 399.684,127.19 399.917,120.466 401.062,120.179 C 401.233,120.135 401.386,120.225 401.44,120.391 C 401.793,121.424 401.074,126.551 401.995,127.067 L 402.257,126.889 C 402.417,125.349 402.393,121.559 403.013,120.375 L 403.344,120.285 C 403.577,120.484 403.669,122.774 403.898,123.384 L 404.192,123.365 C 404.269,122.895 404.344,121.105 404.421,120.889 C 404.836,119.707 405.264,121.602 405.716,121.389 C 406.172,121.176 406.47,120.307 406.447,119.84 C 402.351,119.193 401.336,119.023 398.149,116.241 Z M 392.118,107.246 C 389.555,105.189 387.448,102.952 386.82,99.86 C 386.69,99.214 386.637,98.555 386.486,97.911 L 386.084,98.033 C 385.096,101.422 387.029,107.833 392.118,107.246 Z M 389.12,96.209 C 387.025,98.463 388.648,102.35 391.259,103.07 C 391.565,103.153 392.035,103.319 392.318,103.126 C 390.277,100.788 388.97,99.127 389.12,96.209 Z M 392.799,99.666 C 393.728,99.766 392.526,97.967 392.423,97.638 C 392.015,96.32 392.07,94.954 392.747,93.676 C 390.25,93.516 389.542,99.319 392.799,99.666 Z M 384.559,101.674 L 384.27,101.57 C 384.039,101.782 384.001,102.069 383.964,102.362 C 383.579,105.565 384.677,108.578 387.595,110.204 C 388.499,110.704 390.037,111.526 391.075,110.986 C 387.319,107.622 386.025,106.715 384.559,101.674 Z M 383.109,105.212 L 382.824,105.109 C 382.591,105.323 382.549,105.61 382.516,105.904 C 382.128,109.105 383.231,112.118 386.15,113.741 C 387.047,114.243 388.587,115.066 389.626,114.525 C 385.867,111.161 384.579,110.254 383.109,105.212 Z M 381.473,108.656 C 380.77,108.94 381.182,112.988 381.3,113.766 L 381.159,114.035 C 380.462,114.051 380.005,111.995 379.846,111.471 C 379.146,111.893 379.139,114.104 379.028,114.889 L 378.806,115.1 C 377.467,114.518 378.333,109.831 377.992,109.157 C 377.613,109.102 377.592,109.645 377.195,109.602 C 376.788,109.559 376.529,109.025 376.45,108.674 C 376.162,107.427 376.708,106.088 376.519,104.849 C 376.504,104.761 376.414,104.447 376.294,104.438 C 375.947,104.414 375.797,105.813 375.168,106.182 C 375.093,106.227 374.873,106.157 374.822,106.092 C 374.291,105.434 374.592,103.372 374.581,102.532 L 374.387,102.23 C 374.064,102.141 373.982,102.729 373.711,102.497 C 373.546,102.354 373.44,101.566 373.421,101.338 C 373.328,100.187 373.308,99.054 373.244,97.901 C 373.229,97.638 372.08,95.708 371.911,95.197 C 371.67,94.465 372.145,93.747 372.07,93.007 C 371.508,92.827 371.411,93.368 371.03,93.577 C 370.405,93.92 368.314,92.723 367.753,92.473 C 367.557,92.893 368.293,93.156 367.72,93.363 C 367.206,93.55 366.628,93.663 366.096,93.791 L 366.112,94.075 C 367.421,93.784 369.428,93.307 370.543,94.396 C 370.801,94.647 372.358,98.03 372.416,98.403 C 372.58,99.483 372.519,100.7 372.608,101.803 C 372.833,104.543 373.288,107.19 374.042,109.833 C 374.387,111.039 374.974,112.331 375.224,113.537 C 375.475,114.77 375.366,116.083 375.651,117.346 L 376.171,119.678 L 376,119.98 C 375.272,119.86 374.939,118.841 374.581,118.309 C 373.944,118.777 374.78,121.741 374.891,122.473 L 374.633,122.546 C 373.951,122.018 373.667,121.211 373.314,120.463 C 372.44,122.424 373.542,123.238 373.678,124.95 C 373.387,124.987 373.165,124.863 372.919,124.735 C 374.186,131.398 387.554,130.171 388.744,137.573 C 388.857,138.25 388.814,138.938 388.852,139.622 C 389.379,139.09 389.685,138.341 389.819,137.607 C 390.605,133.309 381.079,130.346 381.079,130.346 C 383.591,130.596 387.924,131.415 389.837,133.121 C 390.059,130.555 378.767,129.216 377.562,127.602 C 379.701,127.907 381.859,128.046 384.018,128.153 C 381.713,126.824 379.371,127.12 377.109,125.055 L 377.248,124.825 C 377.659,124.901 378.044,125.095 378.439,125.217 C 379.972,125.686 381.576,125.805 383.17,125.857 C 381.227,124.975 379.158,124.307 377.734,122.616 L 377.786,122.385 L 378.062,122.385 C 379.096,123.05 382.467,124 383.586,123.471 C 381.818,122.764 380.119,121.828 378.823,120.409 C 378.859,120.227 378.998,120.122 379.171,120.197 C 381.111,121.033 382.679,121.737 384.867,121.514 C 384.66,121 379.523,118.689 380.124,117.773 C 380.182,117.68 380.372,117.691 380.452,117.739 C 382.066,118.639 384.516,119.849 386.425,119.235 L 386.407,119.002 C 385.183,118.409 382.303,116.98 381.972,115.584 C 383.271,115.622 386.447,118.059 387.913,116.76 C 387.846,116.682 387.784,116.574 387.708,116.511 C 387.395,116.245 386.801,116.033 386.433,115.804 C 384.698,114.717 383.028,113.138 382.235,111.221 C 381.897,110.409 381.677,109.513 381.473,108.656 Z M 374.115,90.9 C 374.113,89.927 372.102,90.616 372.426,91.669 C 372.6,91.83 373.918,91.093 374.115,90.9 Z M 367.109,90.848 C 367.139,90.884 368.685,91.953 368.575,91.13 C 368.403,89.811 366.626,90.341 367.109,90.848 Z M 366.277,96.232 C 366.415,95.92 366.753,95.51 366.628,95.16 C 365.064,94.691 365.405,98.182 366.277,96.232 Z M 363.568,93.393 L 363.671,93.765 C 364.016,93.784 364.872,93.457 365.201,93.345 L 365.241,92.995 C 364.814,92.481 363.781,92.744 363.568,93.393 Z M 370.601,117.535 C 370.046,117.497 368.821,116.544 368.034,116.366 L 367.822,116.47 C 367.981,117.089 368.604,117.374 368.833,117.96 L 368.677,118.234 C 366.801,118.834 365.334,116.705 363.706,116.345 C 363.546,116.311 363.323,116.309 363.24,116.484 C 363.384,116.732 363.795,117.029 363.793,117.319 C 361.592,118.155 359.795,119.457 357.503,118.717 C 357.351,118.978 357.788,119.207 357.769,119.489 C 357.708,120.513 356.621,120.228 356.034,120.18 C 356.017,120.518 356.292,120.609 356.34,120.895 C 356.125,121.168 355.9,121.479 355.866,121.848 C 356.842,121.372 357.675,120.46 358.626,120.037 C 359.802,119.513 362.044,118.779 363.293,118.535 C 363.882,118.421 365.508,119.014 366.2,119.146 C 368.021,119.498 369.862,119.69 371.708,119.651 C 371.733,119.066 371.647,118.471 371.775,117.896 C 371.952,117.807 372.14,117.906 372.312,117.794 C 372.529,116.981 372.575,115.891 372.723,115.049 C 371.691,114.669 372.032,117.639 370.601,117.535 Z M 356.901,116.749 L 357.249,116.654 C 357.374,116.116 357.664,115.626 357.853,115.108 C 357.017,114.418 356.131,116.373 356.901,116.749 Z M 358.126,124.807 C 358.471,124.772 358.297,122.923 357.308,123.38 C 356.982,123.824 357.283,124.895 358.126,124.807 Z M 384.075,135.706 C 383.939,135.897 384.606,136.382 384.744,136.534 C 386.042,137.927 386.14,139.511 385.324,141.1 C 386.762,140.503 387.556,139.365 387.289,138.081 C 387.118,137.263 384.75,134.768 384.075,135.706 Z M 382.327,137.037 C 382.637,138.743 384.067,139.627 381.738,141.727 C 385.477,141.361 384.606,136.61 382.327,137.037 Z M 380.914,137.36 L 380.552,137.257 C 380.332,137.706 380.496,138.199 380.359,138.661 C 380.031,139.761 379.149,140.748 378.017,141.509 C 380.872,141.425 382.327,139.059 380.914,137.36 Z M 378.393,138.041 C 377.915,137.395 375.916,139.954 376.073,140.621 L 376.368,140.657 C 376.914,140.42 378.882,138.702 378.393,138.041 Z M 374.464,138.38 C 374.31,139.533 376.075,138.468 376.385,138.023 C 377.087,137.021 374.619,137.219 374.464,138.38 Z M 392.521,120.059 L 392.169,119.755 C 390.362,120.081 391.999,123.179 392.412,121.947 C 392.587,121.434 392.472,120.611 392.521,120.059 Z M 395.339,119.678 C 393.462,119.085 393.475,122.486 394.169,123.221 C 394.272,123.333 394.614,123.513 394.721,123.294 C 395.199,122.309 394.826,120.836 395.339,119.678 Z M 394.323,126.427 C 395.16,127.22 396.667,135.452 397.093,137.18 C 395.638,138.62 396.49,140.862 397.873,138.321 C 402.303,143.451 406.723,146.028 413.164,147.989 C 413.306,148.379 413.481,148.934 413.944,149.04 L 414.308,148.914 C 414.828,148.11 413.523,147.261 412.885,147.1 C 407.227,145.635 402.298,142.15 398.652,137.626 C 397.979,136.793 397.74,135.522 397.523,134.493 C 397.262,133.245 396.386,126.93 395,125.733 C 393.788,124.688 391.337,123.3 389.837,122.723 C 389.608,122.634 389.304,122.51 389.06,122.546 L 389.005,122.813 C 390.557,124.217 392.754,124.944 394.323,126.427 Z M 394.538,97.735 C 394.788,97.739 394.928,97.475 394.984,97.277 C 395.45,95.565 395.578,94.103 396.621,92.552 L 396.404,92.294 C 394.242,91.92 393.079,97.704 394.538,97.735 Z M 397.429,96.309 L 397.758,96.716 C 397.991,96.72 398.081,96.474 398.171,96.285 C 398.831,94.885 399.846,93.765 401.016,92.906 C 399.248,91.983 397.23,94.334 397.429,96.309 Z M 400.332,96.408 C 400.457,96.557 400.617,96.553 400.772,96.451 C 401.723,95.829 401.677,94.761 403.98,93.889 C 402.983,92.438 399.45,95.408 400.332,96.408 Z M 400.036,102.132 C 400.351,100.952 400.519,100.366 401.375,99.423 C 398.903,98.745 399.66,103.565 400.036,102.132 Z M 397.172,104.27 C 396.297,105.848 398.677,107.737 399.937,106.604 C 398.157,105.889 398.26,105.581 397.172,104.27 Z M 398.932,101.132 C 397.364,102.307 398.142,104.805 399.154,104.551 C 398.378,102.462 399.122,102.225 398.932,101.132 Z M 401.496,107.049 C 400.163,107.986 399.964,108.264 398.372,107.876 C 398.237,108.754 401.046,109.702 401.496,107.049 Z M 403.639,107.079 C 403.279,107.253 403.228,107.61 403.063,107.932 C 402.654,108.759 401.893,109.333 401.18,109.891 C 401.721,110.451 403.986,109.291 403.639,107.079 Z M 403.744,100.895 C 401.95,101.509 398.886,104.386 401.199,106.147 C 403.169,107.652 406.143,104.136 403.744,100.895 Z M 405.456,105.653 C 405.377,107.024 404.879,108.13 404.421,109.391 C 405.511,109.546 406.438,106.203 405.456,105.653 Z M 406.307,104.174 C 406.575,105.006 406.57,106.365 406.929,107.043 C 406.997,107.171 407.218,107.223 407.347,107.221 C 407.282,105.821 407.491,103.699 406.061,102.804 L 405.836,102.875 C 405.928,103.33 406.166,103.737 406.307,104.174 Z M 408.156,103.926 C 408.238,104.033 408.532,104.495 408.642,104.139 C 408.401,102.797 407.202,100.361 405.819,99.921 C 405.668,99.995 405.436,100.071 405.298,100.169 C 405.19,100.245 405.4,100.389 405.439,100.418 C 406.619,101.38 407.282,102.724 408.156,103.926 Z M 409.092,100.881 C 408.623,100.294 408.197,99.586 407.555,99.171 C 407.227,99.19 406.958,99.402 406.67,99.527 C 406.929,99.815 408.692,100.813 409.092,100.881 Z M 409.82,96.372 C 410.652,95.693 411.055,94.74 410.828,93.684 C 410.79,93.506 410.619,93.2 410.793,93.059 L 411.138,93.059 C 410.805,92.614 410.362,92.263 409.894,91.974 C 409.83,93.106 410.707,94.118 409.894,95.27 C 408.833,96.765 404.716,97.692 404.66,99.256 C 404.941,99.366 405.049,99.143 405.231,98.99 C 406.587,97.839 408.457,97.491 409.82,96.372 Z M 402.052,100.388 L 402.291,100.348 C 402.822,99.607 403.505,98.893 404.368,98.533 L 404.47,98.266 C 403.243,97.837 401.967,99.193 402.052,100.388 Z M 402.083,97.246 C 402.218,97.457 402.541,97.243 402.706,97.175 C 403.375,96.891 404.96,96.5 405.42,96.123 C 404.933,95.199 402.416,96.34 402.083,97.246 Z M 353.321,119.853 C 353.438,120.97 355.073,119.998 354.978,119.577 C 354.741,118.49 353.265,119.295 353.321,119.853 Z M 354.809,125.201 C 355.049,125.146 354.754,124.016 354.806,123.611 C 353.468,122.811 353.76,125.441 354.809,125.201 Z M 373.408,139.716 C 372.334,138.861 371.6,138.98 373.302,137.97 L 373.32,137.596 C 372.57,136.982 371.418,137.815 370.739,137.116 C 370.35,136.712 371.484,135.803 370.549,135.797 C 369.713,135.793 368.86,137.254 367.917,136.065 C 367.419,135.44 359.539,134.087 358.652,134.729 C 358.946,134.998 359.358,134.936 359.727,134.943 C 362.455,134.999 364.586,136.36 367.171,136.795 C 368.122,136.954 369.228,137.052 370.132,137.381 C 370.559,137.538 371.256,137.92 371.363,138.398 C 371.409,138.602 371.357,138.747 371.172,138.843 C 370.491,139.193 367.706,139.184 366.188,139.84 C 365.786,140.014 364.721,140.625 364.37,140.639 C 363.929,140.661 363.485,140.186 363.122,140.711 C 362.893,141.041 362.644,141.266 362.203,141.228 C 361.248,141.148 361.343,141.395 360.59,141.764 C 360.148,141.978 359.366,141.679 359.101,141.783 C 358.772,141.909 359.141,142.393 358.86,142.581 C 358.684,142.699 358.442,142.699 358.251,142.636 C 357.928,142.526 357.74,142.221 357.58,141.94 L 357.318,141.958 C 356.708,142.48 357.47,143.385 358.065,143.488 C 358.903,143.636 359.873,142.676 360.609,142.42 C 361.123,142.244 364.016,141.821 364.502,141.886 C 365.283,141.989 366.324,143.525 368.314,143.044 C 369.293,142.807 372.742,139.821 373.37,141.352 C 374.192,141.798 374.206,140.355 373.408,139.716 Z M 416.005,133.149 C 415.914,133.488 415.642,133.763 415.346,133.934 C 412.993,138.277 412.88,142.701 414.775,147.27 C 414.992,147.791 415.427,148.218 415.485,148.801 C 415.524,149.197 415.36,149.567 415.071,149.832 C 415.288,150.246 415.73,150.405 416.16,150.51 C 415.499,151.176 414.351,150.809 413.891,150.098 C 413.038,149.934 412.874,149.563 412.59,148.801 C 406.638,146.945 402.069,144.616 397.821,139.917 C 397.338,140.423 396.775,140.54 396.177,140.112 C 395.97,140.505 396.26,140.932 396.418,141.287 C 394.78,141.255 395.232,137.848 395.896,136.995 C 395.621,135.893 393.961,128.408 393.593,127.917 C 392.754,126.784 389.315,124.572 387.913,124.284 C 385.859,125.195 390.28,127.943 390.545,128.342 C 390.777,128.684 389.858,129.095 390.408,129.59 C 390.931,130.061 391.597,130.402 392.106,130.907 C 392.342,131.145 392.83,131.607 392.59,131.974 C 392.421,132.227 391.614,132.656 391.877,133.095 C 392.204,133.631 393.409,135.168 393.267,135.926 C 393.131,136.627 392.032,136.174 391.985,136.854 C 391.917,137.766 392.671,140.361 391.725,141.02 C 391.146,141.42 390.327,139.852 389.903,140.77 C 389.639,141.345 389.13,144.166 388.102,143.921 C 387.597,143.802 387.303,142.471 386.422,142.603 C 385.957,142.992 384.908,145.605 384.122,144.846 C 383.687,144.43 382.776,142.643 381.939,142.889 C 381.345,143.065 381.275,144.878 380.367,144.367 C 379.687,143.986 379.187,143.278 378.459,142.926 C 378.108,142.754 377.952,143.104 377.679,143.245 C 377.143,143.525 376.604,143.032 376.121,142.835 C 374.734,142.277 374.046,143.002 372.901,143.619 C 370.92,144.684 370.174,144.783 368.107,144.428 C 366.422,144.138 366,145.621 363.894,143.192 C 362.794,143.281 361.686,143.352 360.586,143.459 C 360.042,143.511 357.196,145.945 356.292,143.368 C 355.784,141.93 357.234,141.429 356.88,140.219 C 357.223,139.463 357.788,140.628 358.665,140.307 C 359.288,140.079 359.052,139.389 359.339,138.936 L 359.598,138.885 C 360.541,139.854 361.368,139.671 361.972,138.563 C 362.375,137.823 362.874,138.918 363.445,138.723 C 363.962,138.546 364.421,138.232 364.95,138.063 C 365.402,137.919 367.271,138.424 368.023,138.228 C 368.114,138.205 368.258,138.145 368.236,138.023 C 368.167,137.669 364.357,136.873 363.685,136.836 C 359.28,136.577 355.28,141.393 350.956,142.034 C 350.478,142.106 349.895,142.208 349.518,141.819 C 352.653,140.945 350.511,138.813 350.506,138.063 C 351.327,138.448 352.245,138.518 353.136,138.439 C 355.133,138.259 358.684,136.869 360.705,136.176 C 360.794,136.146 360.958,136.004 360.931,135.891 C 360.788,135.35 357.484,136.152 357.344,135.286 C 357.318,135.104 357.514,134.782 357.641,134.664 C 359.434,133.011 364.662,134.263 367.079,134.235 C 367.88,134.227 368.458,133.628 369,133.114 C 370.481,135.049 372.476,133.268 373.885,133.434 L 374.147,133.684 C 374.247,134.124 373.699,134.367 373.85,134.842 C 374.417,136.608 377.645,135.563 378.769,135.304 C 379.209,135.205 379.742,135.59 380.157,135.712 C 381.571,136.134 384.934,135.622 383.967,133.916 C 383.114,132.419 380.912,133.045 379.844,132.276 C 379.798,132.118 379.846,131.844 379.707,131.724 C 379.502,131.555 375.916,130.93 375.34,130.391 C 375.156,130.216 375.414,130.007 375.29,129.873 C 374.587,129.11 371.667,128.067 371.425,126.561 C 371.393,126.357 371.701,126.36 371.706,126.171 C 371.71,125.877 370.622,124.018 370.837,122.359 C 370.859,122.19 371.742,121.956 371.981,121.831 C 371.872,121.524 372.09,121.514 371.967,121.215 L 370.035,121.065 C 368.496,120.944 366.952,120.715 365.455,120.367 C 364.848,120.225 364.187,119.944 363.583,119.849 L 363.265,119.832 C 362.608,119.844 360.28,120.682 359.532,120.925 C 358.805,121.16 358.985,121.955 358.694,122.518 C 358.875,122.904 359.101,123.307 359.126,123.745 C 360.019,124.223 360.25,125.215 359.707,126.051 C 359.646,126.148 359.565,126.255 359.432,126.207 C 359.429,125.693 359.398,125.22 358.775,125.158 C 357.704,126.551 356.547,125.071 356.285,123.944 C 356.153,124.213 355.807,124.995 355.809,125.27 C 355.82,125.952 356.054,126.735 355.366,127.231 C 355.083,127.436 354.619,127.571 354.296,127.391 C 354.729,127.043 355.097,126.592 354.724,126.027 C 352.733,125.62 352.63,124.124 353.939,122.863 C 354.196,122.614 354.401,121.745 354.433,121.396 C 354.078,121.509 353.694,121.547 353.337,121.416 C 351.945,121.922 350.898,120.572 351.463,120.468 C 351.845,120.396 352.201,120.777 352.583,120.364 C 352.301,118.295 354.204,117.865 355.665,118.903 C 355.964,118.924 356.259,118.82 356.527,118.684 C 357.274,117.013 354.891,116.743 356.127,115.021 C 357.362,113.307 358.992,115.566 358.971,113.268 C 360.707,114.445 357.933,114.993 358.845,117.67 C 359.904,118.257 361.033,116.479 361.267,115.674 C 364.65,115.781 363.029,114.702 363.036,113.535 C 363.596,113.646 366.059,113.617 366.291,113.03 C 366.551,112.391 366.508,111.641 366.827,110.962 L 367.039,110.885 C 367.465,111.201 368.959,112.716 369.421,111.744 C 369.62,111.313 371.974,110.688 371.772,110.287 C 370.204,107.132 371.275,102.579 371.21,99.073 C 371.201,98.364 370.319,95.967 369.729,95.616 C 367.356,94.211 366.998,97.768 366.435,98.465 C 366.177,98.792 364.922,99.173 364.934,98.697 C 365.346,98.529 365.875,97.991 365.645,97.504 C 364.396,97.214 364.639,95.67 365.16,94.869 C 364.759,94.923 364.37,95.026 363.962,95.029 C 363.005,95.677 361.952,95.511 361.59,94.3 C 361.995,94.622 362.606,94.501 363.012,94.246 C 362.76,90.206 365.725,93.273 366.815,92.252 C 366.435,91.94 366.412,91.593 366.166,91.237 C 365.588,90.421 364.932,89.817 366.026,88.886 C 365.98,89.452 366.036,90 366.698,90.151 C 367.724,88.725 369.311,90.099 369.433,91.469 C 373.04,93.391 370.564,90.684 372.792,89.955 C 374.898,89.268 375.159,92.498 376.482,90.596 C 376.641,90.719 376.641,90.947 376.655,91.13 C 376.727,92.07 375.52,92.161 374.873,92.197 C 374.567,92.513 374.06,92.593 373.678,92.806 C 372.547,93.423 373.957,96.945 375.132,96.898 C 375.196,97.457 375.231,99.034 376.205,98.607 C 376.464,98.496 376.677,97.946 376.988,98.233 C 377.341,99.611 377.592,101.353 379.239,99.977 L 379.583,99.997 C 380.097,106.653 381.404,105.729 382.459,100.104 C 382.965,100.014 383.453,100.044 383.554,99.443 C 383.641,98.884 383.839,96.783 384.209,96.203 C 384.473,96.136 384.723,96.27 384.985,96.275 C 385.362,95.604 386.675,93.227 387.22,92.875 C 387.49,92.703 387.885,93.048 388.169,93.053 C 388.928,92.421 391.022,90.677 391.964,90.632 C 392.234,90.836 392.445,91.134 392.762,91.273 C 394.037,90.74 395.941,89.934 397.354,89.955 C 397.609,90.115 397.712,90.409 397.924,90.613 C 399.008,90.641 401.208,90.634 402.324,91.006 C 402.832,91.174 402.587,91.838 403.082,92.037 C 403.971,92.393 405.203,92.698 405.836,93.479 C 405.914,93.569 406.107,95.236 407.365,95.706 C 408.385,95.402 409.928,94.638 409.232,93.302 C 409.095,94.577 407.534,94.719 407.292,93.837 C 407.108,93.159 407.852,92.807 407.952,92.197 C 408.12,91.123 406.885,90.645 406.203,90.096 C 406.271,89.913 406.475,89.836 406.652,89.795 C 412.071,88.542 412.984,94.216 414.308,94.191 C 414.429,94.191 414.636,94.087 414.689,94.281 C 414.803,94.699 413.744,95.38 413.372,95.421 C 412.361,95.531 412.034,94.618 411.83,94.53 C 411.727,96.79 410.28,97.632 408.662,98.805 C 408.918,99.705 409.628,100.109 409.994,100.85 C 410.317,101.505 409.447,101.914 409.249,102.438 C 408.991,103.124 409.919,104.589 409.82,105.373 C 409.75,105.938 409.163,105.807 408.799,105.961 C 407.784,106.393 408.251,107.936 408.106,108.757 C 407.928,109.77 406.896,109.159 406.253,109.416 C 405.408,109.752 405.317,110.794 404.592,111.232 C 404.092,111.532 403.761,111.176 403.362,110.946 C 402.582,110.501 401.781,111.204 401.043,111.321 C 400.473,111.411 400.185,110.952 399.848,110.607 C 399.314,110.066 398.356,110.281 397.821,109.7 C 397.482,109.336 397.607,108.868 397.385,108.49 C 397.114,108.018 396.49,107.737 396.214,107.208 C 395.8,106.434 396.388,105.67 396.331,104.893 C 396.286,104.254 396.184,103.764 396.28,103.112 C 396.404,102.264 397.007,101.964 397.3,101.261 C 397.752,100.169 398.48,99.586 399.588,99.177 C 399.978,98.593 400.604,98.281 401.18,97.913 C 400.311,97.162 399.034,97.148 397.974,97.451 C 397.502,98.447 395.875,97.925 395.218,98.805 C 395.085,98.987 395.218,99.477 395.187,99.713 C 394.803,100.069 393.522,101.248 393.593,101.795 C 393.649,102.215 394.333,102.627 394.237,103.292 C 393.581,103.962 392.901,104.724 392.779,105.694 C 393.35,106.205 394.125,106.611 394.374,107.386 C 393.977,108.587 392.816,109.382 392.608,110.751 C 393.138,111.016 393.924,111.469 394.321,111.908 C 394.527,112.132 395.1,112.606 394.844,112.94 C 394.346,113.58 391.501,115.364 392.001,116.395 C 393.027,117.007 396.26,115.547 397.147,114.881 C 397.411,114.682 397.861,113.92 398.25,114.277 C 398.988,114.942 399.405,115.828 400.677,116.84 C 402.375,118.188 404.873,118.805 407.014,118.532 C 407.71,117.934 407.611,116.114 409.716,117.285 C 409.996,116.835 410.071,116.304 410.151,115.789 C 410.828,116.379 410.812,117.598 410.34,118.3 C 410.34,119.007 410.025,119.261 409.82,119.848 C 408.883,122.55 411.557,128.921 413.214,131.066 C 413.338,131.224 413.552,131.507 413.79,131.439 C 415.088,131.073 414.992,131.024 416.057,131.902 C 416.333,131.582 416.575,131.214 416.68,130.799 C 417.352,131.643 416.773,132.649 416.005,133.149 Z" fill="#a1803b" stroke-linejoin="miter" fill-rule="nonzero" stroke-width="0.25" stroke="none" marker-start="none" marker-end="none"/>
  <path d="M 369.08,140.102 C 369.273,140.177 369.453,140.649 369.316,141.061 C 369.718,140.919 370.026,140.733 370.511,140.305 C 370.094,140.139 369.524,140.069 369.08,140.102 Z M 367.424,140.386 C 366.978,140.545 366.483,140.882 366.236,141.295 C 366.626,141.439 367.278,141.557 367.704,141.484 C 367.375,141.221 367.278,140.74 367.424,140.386 Z M 371.65,140.492 C 369.637,141.934 367.849,143.063 365.437,141.632 L 365.47,141.276 C 365.908,141.09 366.063,140.639 366.386,140.334 C 367.281,139.49 371.527,139.077 372.33,140.136 L 372.242,140.439 L 371.65,140.492 Z" fill="#a1803b" stroke-linejoin="miter" fill-rule="nonzero" stroke-width="0.25" stroke="none" marker-start="none" marker-end="none"/>
 </g>
</svg>
