<?xml version="1.0" standalone="no"?>
<!DOCTYPE svg PUBLIC "-//W3C//DTD SVG 1.1//EN" "http://www.w3.org/Graphics/SVG/1.1/DTD/svg11.dtd">
<!--Generator: Xara Designer (www.xara.com), SVG filter version: 6.6.0.0-->
<svg fill="none" fill-rule="evenodd" stroke="black" stroke-width="0.501" stroke-linejoin="bevel" stroke-miterlimit="10" font-family="Times New Roman" font-size="16" style="font-variant-ligatures:none" xmlns:xlink="http://www.w3.org/1999/xlink" xmlns="http://www.w3.org/2000/svg" version="1.1" overflow="visible" width="170.077pt" height="71.641pt" viewBox="181.212 -206.821 170.077 71.641">
 <defs>
	</defs>
 <g id="Layer 1" transform="scale(1 -1)">
  <g id="Group" fill-rule="nonzero" stroke-linejoin="miter" stroke="none" stroke-width="0.25">
   <path d="M 201.337,139.778 C 201.563,139.778 201.791,139.745 202.023,139.683 C 202.256,139.62 202.465,139.536 202.649,139.433 L 202.399,138.932 C 202.209,139.024 202.029,139.099 201.86,139.157 C 201.691,139.214 201.51,139.243 201.321,139.243 C 201.073,139.243 200.876,139.178 200.73,139.049 C 200.583,138.92 200.509,138.747 200.509,138.536 C 200.509,138.368 200.555,138.235 200.647,138.133 C 200.739,138.033 200.901,137.96 201.13,137.915 L 201.397,137.854 L 201.7,137.794 C 202.465,137.632 202.848,137.233 202.848,136.593 C 202.848,136.386 202.81,136.198 202.73,136.025 C 202.654,135.852 202.542,135.705 202.399,135.58 C 202.256,135.456 202.084,135.36 201.886,135.291 C 201.687,135.222 201.467,135.188 201.225,135.188 C 200.95,135.188 200.672,135.227 200.393,135.305 C 200.113,135.381 199.864,135.486 199.647,135.619 L 199.905,136.12 C 200.348,135.849 200.803,135.714 201.269,135.714 C 201.532,135.714 201.744,135.78 201.902,135.912 C 202.06,136.044 202.14,136.226 202.14,136.456 C 202.14,136.651 202.084,136.805 201.972,136.917 C 201.86,137.031 201.68,137.112 201.432,137.163 L 201.157,137.224 L 200.897,137.275 C 200.536,137.351 200.263,137.491 200.083,137.698 C 199.902,137.905 199.811,138.159 199.811,138.458 C 199.811,138.653 199.848,138.831 199.923,138.993 C 199.997,139.153 200.102,139.292 200.238,139.407 C 200.373,139.522 200.534,139.613 200.721,139.678 C 200.908,139.745 201.114,139.778 201.337,139.778 Z" fill="#7d0a29" marker-start="none" marker-end="none"/>
   <path d="M 207.127,139.727 C 207.397,139.727 207.621,139.68 207.799,139.587 C 207.978,139.497 208.146,139.387 208.301,139.26 L 207.927,138.794 C 207.778,138.921 207.645,139.011 207.529,139.062 C 207.413,139.113 207.272,139.14 207.105,139.14 C 206.937,139.14 206.78,139.097 206.634,139.011 C 206.485,138.924 206.371,138.806 206.291,138.657 C 206.129,138.357 206.049,137.889 206.049,137.25 C 206.049,136.761 206.139,136.39 206.321,136.138 C 206.504,135.884 206.766,135.757 207.113,135.757 C 207.471,135.757 207.781,135.912 208.04,136.224 L 208.412,135.791 C 208.211,135.591 208.01,135.445 207.809,135.356 C 207.607,135.267 207.371,135.222 207.101,135.222 C 206.485,135.222 206.029,135.439 205.729,135.87 C 205.585,136.077 205.48,136.3 205.415,136.542 C 205.347,136.784 205.315,137.068 205.315,137.396 C 205.315,137.868 205.377,138.245 205.501,138.526 C 205.624,138.808 205.778,139.042 205.962,139.226 C 206.297,139.559 206.684,139.727 207.127,139.727 Z" fill="#7d0a29" marker-start="none" marker-end="none"/>
   <path d="M 211.035,140.616 C 211.035,140.909 211.012,141.158 210.966,141.365 C 210.96,141.4 210.945,141.444 210.923,141.495 L 211.596,141.624 C 211.619,141.526 211.636,141.441 211.648,141.365 C 211.687,141.113 211.708,140.86 211.708,140.607 L 211.708,139.606 C 211.708,139.456 211.706,139.341 211.704,139.261 C 211.7,139.181 211.693,139.099 211.682,139.019 C 211.894,139.22 212.113,139.378 212.338,139.494 C 212.603,139.632 212.861,139.701 213.115,139.701 C 213.373,139.701 213.607,139.637 213.814,139.511 C 214.021,139.384 214.156,139.22 214.218,139.019 C 214.253,138.909 214.273,138.806 214.279,138.708 C 214.285,138.611 214.288,138.507 214.288,138.398 L 214.288,135.318 L 213.623,135.318 L 213.623,138.285 C 213.623,138.601 213.567,138.815 213.455,138.928 C 213.343,139.041 213.177,139.097 212.959,139.097 C 212.516,139.097 212.099,138.855 211.708,138.371 L 211.708,135.318 L 211.035,135.318 L 211.035,140.616 Z" fill="#7d0a29" marker-start="none" marker-end="none"/>
   <path d="M 217.325,138.63 C 217.325,138.901 217.302,139.131 217.255,139.32 C 217.244,139.384 217.218,139.459 217.177,139.545 L 217.851,139.727 C 217.886,139.645 217.908,139.576 217.919,139.52 C 217.966,139.346 217.989,139.182 217.989,139.026 C 218.15,139.252 218.335,139.427 218.545,139.553 C 218.756,139.68 218.972,139.743 219.197,139.743 C 219.249,139.743 219.292,139.741 219.326,139.734 C 219.361,139.729 219.395,139.718 219.429,139.7 L 219.153,138.966 C 219.096,138.989 219.033,139.001 218.964,139.001 C 218.693,139.001 218.454,138.897 218.247,138.692 C 218.15,138.593 218.083,138.499 218.05,138.405 C 218.015,138.315 217.997,138.182 217.997,138.01 L 217.997,135.317 L 217.325,135.317 L 217.325,138.63 Z" fill="#7d0a29" marker-start="none" marker-end="none"/>
   <path d="M 223.226,139.2 C 222.599,139.2 222.269,138.755 222.234,137.863 L 224.202,137.863 C 224.196,138.103 224.176,138.299 224.145,138.445 C 224.114,138.592 224.066,138.717 224.003,138.82 C 223.929,138.936 223.821,139.027 223.683,139.097 C 223.546,139.165 223.393,139.2 223.226,139.2 Z M 223.507,135.784 C 223.911,135.784 224.263,135.919 224.563,136.189 L 224.823,135.757 C 224.632,135.585 224.412,135.453 224.161,135.361 C 223.91,135.269 223.646,135.222 223.369,135.222 C 223.07,135.222 222.801,135.275 222.565,135.377 C 222.328,135.482 222.128,135.633 221.964,135.831 C 221.799,136.03 221.674,136.269 221.587,136.552 C 221.501,136.833 221.458,137.152 221.458,137.509 C 221.458,137.871 221.497,138.178 221.579,138.428 C 221.659,138.678 221.793,138.913 221.978,139.132 C 222.313,139.527 222.744,139.727 223.27,139.727 C 223.743,139.727 224.134,139.571 224.44,139.261 C 224.533,139.162 224.611,139.062 224.674,138.958 C 224.738,138.855 224.788,138.734 224.826,138.596 C 224.864,138.458 224.891,138.296 224.909,138.113 C 224.926,137.929 224.935,137.708 224.935,137.448 L 224.935,137.354 L 222.234,137.354 L 222.234,137.25 C 222.234,137.049 222.249,136.87 222.278,136.715 C 222.306,136.56 222.358,136.425 222.433,136.31 C 222.555,136.126 222.71,135.991 222.897,135.908 C 223.084,135.826 223.288,135.784 223.507,135.784 Z" fill="#7d0a29" marker-start="none" marker-end="none"/>
   <path d="M 227.764,139.597 L 228.463,139.709 L 228.463,135.318 L 227.764,135.318 L 227.764,139.597 Z M 227.6,140.934 C 227.6,141.083 227.65,141.21 227.751,141.314 C 227.851,141.419 227.977,141.469 228.127,141.469 C 228.276,141.469 228.401,141.419 228.501,141.318 C 228.603,141.218 228.653,141.093 228.653,140.943 C 228.653,140.793 228.603,140.668 228.501,140.567 C 228.401,140.467 228.276,140.416 228.127,140.416 C 227.977,140.416 227.851,140.467 227.751,140.567 C 227.65,140.668 227.6,140.79 227.6,140.934 Z" fill="#7d0a29" marker-start="none" marker-end="none"/>
   <path d="M 231.561,138.63 C 231.561,138.894 231.535,139.122 231.483,139.312 C 231.466,139.376 231.437,139.45 231.397,139.536 L 232.053,139.718 C 232.087,139.636 232.113,139.571 232.13,139.52 C 232.182,139.352 232.208,139.194 232.208,139.044 C 232.651,139.487 233.102,139.708 233.563,139.708 C 233.792,139.708 234.004,139.653 234.197,139.541 C 234.39,139.429 234.529,139.275 234.615,139.079 C 234.684,138.924 234.719,138.757 234.719,138.579 L 234.719,135.317 L 234.037,135.317 L 234.037,138.224 C 234.037,138.461 234.028,138.617 234.011,138.695 C 233.994,138.773 233.951,138.855 233.881,138.941 C 233.778,139.061 233.62,139.122 233.407,139.122 C 233.229,139.122 233.027,139.064 232.799,138.95 C 232.572,138.833 232.377,138.692 232.217,138.518 L 232.217,135.317 L 231.561,135.317 L 231.561,138.63 Z" fill="#7d0a29" marker-start="none" marker-end="none"/>
   <path d="M 239.24,139.2 C 238.612,139.2 238.282,138.755 238.248,137.863 L 240.215,137.863 C 240.209,138.103 240.19,138.299 240.158,138.445 C 240.126,138.592 240.079,138.717 240.016,138.82 C 239.941,138.936 239.834,139.027 239.697,139.097 C 239.559,139.165 239.406,139.2 239.24,139.2 Z M 239.52,135.784 C 239.924,135.784 240.276,135.919 240.576,136.189 L 240.836,135.757 C 240.645,135.585 240.425,135.453 240.174,135.361 C 239.924,135.269 239.66,135.222 239.383,135.222 C 239.083,135.222 238.814,135.275 238.578,135.377 C 238.342,135.482 238.141,135.633 237.977,135.831 C 237.813,136.03 237.687,136.269 237.6,136.552 C 237.514,136.833 237.471,137.152 237.471,137.509 C 237.471,137.871 237.512,138.178 237.592,138.428 C 237.673,138.678 237.806,138.913 237.991,139.132 C 238.326,139.527 238.757,139.727 239.283,139.727 C 239.758,139.727 240.147,139.571 240.453,139.261 C 240.546,139.162 240.624,139.062 240.688,138.958 C 240.751,138.855 240.802,138.734 240.839,138.596 C 240.877,138.458 240.904,138.296 240.922,138.113 C 240.939,137.929 240.948,137.708 240.948,137.448 L 240.948,137.354 L 238.248,137.354 L 238.248,137.25 C 238.248,137.049 238.262,136.87 238.291,136.715 C 238.319,136.56 238.371,136.425 238.447,136.31 C 238.568,136.126 238.722,135.991 238.91,135.908 C 239.097,135.826 239.301,135.784 239.52,135.784 Z" fill="#7d0a29" marker-start="none" marker-end="none"/>
   <path d="M 243.786,138.63 C 243.786,138.901 243.763,139.131 243.716,139.32 C 243.705,139.384 243.679,139.459 243.64,139.545 L 244.312,139.727 C 244.347,139.645 244.369,139.576 244.38,139.52 C 244.427,139.346 244.45,139.182 244.45,139.026 C 244.611,139.252 244.797,139.427 245.006,139.553 C 245.217,139.68 245.433,139.743 245.658,139.743 C 245.71,139.743 245.753,139.741 245.788,139.734 C 245.821,139.729 245.856,139.718 245.891,139.7 L 245.614,138.966 C 245.557,138.989 245.493,139.001 245.425,139.001 C 245.154,139.001 244.915,138.897 244.708,138.692 C 244.611,138.593 244.544,138.499 244.511,138.405 C 244.476,138.315 244.458,138.182 244.458,138.01 L 244.458,135.317 L 243.786,135.317 L 243.786,138.63 Z" fill="#7d0a29" marker-start="none" marker-end="none"/>
   <path d="M 249.688,139.2 C 249.06,139.2 248.73,138.755 248.696,137.863 L 250.663,137.863 C 250.657,138.103 250.638,138.299 250.606,138.445 C 250.574,138.592 250.527,138.717 250.464,138.82 C 250.389,138.936 250.282,139.027 250.144,139.097 C 250.007,139.165 249.854,139.2 249.688,139.2 Z M 249.968,135.784 C 250.372,135.784 250.724,135.919 251.025,136.189 L 251.284,135.757 C 251.093,135.585 250.873,135.453 250.622,135.361 C 250.371,135.269 250.108,135.222 249.831,135.222 C 249.531,135.222 249.262,135.275 249.026,135.377 C 248.789,135.482 248.589,135.633 248.425,135.831 C 248.261,136.03 248.135,136.269 248.048,136.552 C 247.962,136.833 247.919,137.152 247.919,137.509 C 247.919,137.871 247.96,138.178 248.04,138.428 C 248.121,138.678 248.254,138.913 248.439,139.132 C 248.774,139.527 249.205,139.727 249.731,139.727 C 250.206,139.727 250.595,139.571 250.901,139.261 C 250.994,139.162 251.072,139.062 251.135,138.958 C 251.199,138.855 251.25,138.734 251.287,138.596 C 251.324,138.458 251.352,138.296 251.37,138.113 C 251.387,137.929 251.396,137.708 251.396,137.448 L 251.396,137.354 L 248.696,137.354 L 248.696,137.25 C 248.696,137.049 248.71,136.87 248.739,136.715 C 248.767,136.56 248.819,136.425 248.895,136.31 C 249.016,136.126 249.171,135.991 249.358,135.908 C 249.545,135.826 249.749,135.784 249.968,135.784 Z" fill="#7d0a29" marker-start="none" marker-end="none"/>
   <path d="M 254.225,139.597 L 254.924,139.709 L 254.924,135.318 L 254.225,135.318 L 254.225,139.597 Z M 254.061,140.934 C 254.061,141.083 254.111,141.21 254.212,141.314 C 254.312,141.419 254.438,141.469 254.588,141.469 C 254.737,141.469 254.863,141.419 254.962,141.318 C 255.064,141.218 255.114,141.093 255.114,140.943 C 255.114,140.793 255.064,140.668 254.962,140.567 C 254.863,140.467 254.737,140.416 254.588,140.416 C 254.438,140.416 254.312,140.467 254.212,140.567 C 254.111,140.668 254.061,140.79 254.061,140.934 Z" fill="#7d0a29" marker-start="none" marker-end="none"/>
   <path d="M 263.298,138.596 C 263.636,138.758 263.866,138.924 263.989,139.096 C 264.112,139.267 264.174,139.457 264.174,139.666 C 264.174,139.91 264.096,140.11 263.941,140.266 C 263.788,140.425 263.588,140.503 263.341,140.503 C 263.237,140.503 263.137,140.487 263.041,140.459 C 262.943,140.429 262.856,140.383 262.779,140.315 C 262.701,140.248 262.64,140.166 262.594,140.066 C 262.549,139.969 262.526,139.85 262.526,139.71 C 262.526,139.629 262.536,139.55 262.556,139.475 C 262.576,139.399 262.614,139.32 262.671,139.236 C 262.729,139.152 262.807,139.059 262.908,138.957 C 263.007,138.855 263.137,138.736 263.298,138.596 Z M 263.035,137.931 C 262.448,137.655 262.155,137.255 262.155,136.733 C 262.155,136.421 262.269,136.174 262.497,135.991 C 262.725,135.806 263.038,135.714 263.435,135.714 C 263.73,135.714 263.992,135.769 264.224,135.878 C 264.454,135.987 264.627,136.116 264.744,136.266 L 263.035,137.931 Z M 265.813,138.182 C 265.813,137.923 265.806,137.701 265.792,137.517 C 265.777,137.333 265.755,137.175 265.727,137.042 C 265.699,136.91 265.665,136.793 265.625,136.693 C 265.585,136.593 265.541,136.495 265.496,136.405 L 266.59,135.317 L 265.692,135.317 L 265.114,135.878 C 264.941,135.665 264.703,135.497 264.398,135.373 C 264.092,135.249 263.768,135.188 263.423,135.188 C 263.112,135.188 262.833,135.227 262.586,135.304 C 262.338,135.381 262.129,135.491 261.956,135.632 C 261.784,135.772 261.651,135.942 261.559,136.137 C 261.467,136.333 261.421,136.548 261.421,136.784 C 261.421,137.158 261.528,137.456 261.741,137.677 C 261.953,137.898 262.25,138.101 262.629,138.284 C 262.348,138.544 262.137,138.775 262,138.98 C 261.862,139.184 261.792,139.395 261.792,139.614 C 261.792,139.809 261.834,139.989 261.917,140.157 C 262,140.325 262.112,140.469 262.252,140.588 C 262.393,140.709 262.557,140.804 262.743,140.874 C 262.929,140.942 263.124,140.977 263.324,140.977 C 263.536,140.977 263.738,140.948 263.931,140.89 C 264.123,140.833 264.29,140.748 264.433,140.636 C 264.578,140.525 264.692,140.385 264.777,140.218 C 264.864,140.05 264.906,139.862 264.906,139.648 C 264.906,139.481 264.88,139.333 264.826,139.203 C 264.771,139.075 264.694,138.954 264.592,138.845 C 264.489,138.737 264.361,138.631 264.208,138.531 C 264.054,138.431 263.881,138.329 263.688,138.224 L 265.074,136.853 C 265.153,137.019 265.198,137.226 265.209,137.47 C 265.221,137.714 265.223,137.952 265.218,138.182 L 265.813,138.182 Z" fill="#7d0a29" marker-start="none" marker-end="none"/>
   <path d="M 274.034,139.778 C 274.259,139.778 274.488,139.745 274.721,139.683 C 274.954,139.62 275.162,139.536 275.346,139.433 L 275.097,138.932 C 274.905,139.024 274.726,139.099 274.557,139.157 C 274.387,139.214 274.208,139.243 274.017,139.243 C 273.77,139.243 273.573,139.178 273.426,139.049 C 273.279,138.92 273.206,138.747 273.206,138.536 C 273.206,138.368 273.253,138.235 273.345,138.133 C 273.436,138.033 273.597,137.96 273.828,137.915 L 274.095,137.854 L 274.398,137.794 C 275.162,137.632 275.545,137.233 275.545,136.593 C 275.545,136.386 275.505,136.198 275.428,136.025 C 275.35,135.852 275.24,135.705 275.097,135.58 C 274.952,135.456 274.781,135.36 274.582,135.291 C 274.384,135.222 274.165,135.188 273.922,135.188 C 273.646,135.188 273.369,135.227 273.09,135.305 C 272.811,135.381 272.562,135.486 272.344,135.619 L 272.603,136.12 C 273.046,135.849 273.5,135.714 273.966,135.714 C 274.23,135.714 274.442,135.78 274.6,135.912 C 274.758,136.044 274.837,136.226 274.837,136.456 C 274.837,136.651 274.781,136.805 274.668,136.917 C 274.557,137.031 274.377,137.112 274.13,137.163 L 273.854,137.224 L 273.595,137.275 C 273.232,137.351 272.961,137.491 272.78,137.698 C 272.598,137.905 272.507,138.159 272.507,138.458 C 272.507,138.653 272.544,138.831 272.62,138.993 C 272.694,139.153 272.8,139.292 272.935,139.407 C 273.07,139.522 273.231,139.613 273.418,139.678 C 273.605,139.745 273.81,139.778 274.034,139.778 Z" fill="#7d0a29" marker-start="none" marker-end="none"/>
   <path d="M 279.825,139.727 C 280.095,139.727 280.319,139.68 280.497,139.587 C 280.675,139.497 280.843,139.387 280.998,139.26 L 280.625,138.794 C 280.475,138.921 280.343,139.011 280.227,139.062 C 280.11,139.113 279.97,139.14 279.803,139.14 C 279.635,139.14 279.477,139.097 279.331,139.011 C 279.182,138.924 279.068,138.806 278.989,138.657 C 278.827,138.357 278.746,137.889 278.746,137.25 C 278.746,136.761 278.836,136.39 279.019,136.138 C 279.2,135.884 279.464,135.757 279.811,135.757 C 280.169,135.757 280.477,135.912 280.738,136.224 L 281.11,135.791 C 280.909,135.591 280.708,135.445 280.507,135.356 C 280.304,135.267 280.069,135.222 279.798,135.222 C 279.182,135.222 278.726,135.439 278.427,135.87 C 278.283,136.077 278.178,136.3 278.111,136.542 C 278.045,136.784 278.012,137.068 278.012,137.396 C 278.012,137.868 278.074,138.245 278.197,138.526 C 278.322,138.808 278.476,139.042 278.659,139.226 C 278.994,139.559 279.381,139.727 279.825,139.727 Z" fill="#7d0a29" marker-start="none" marker-end="none"/>
   <path d="M 283.733,140.616 C 283.733,140.909 283.71,141.158 283.663,141.365 C 283.657,141.4 283.643,141.444 283.62,141.495 L 284.293,141.624 C 284.316,141.526 284.333,141.441 284.345,141.365 C 284.385,141.113 284.405,140.86 284.405,140.607 L 284.405,139.606 C 284.405,139.456 284.404,139.341 284.401,139.261 C 284.398,139.181 284.391,139.099 284.38,139.019 C 284.592,139.22 284.811,139.378 285.035,139.494 C 285.299,139.632 285.559,139.701 285.811,139.701 C 286.071,139.701 286.303,139.637 286.51,139.511 C 286.717,139.384 286.852,139.22 286.916,139.019 C 286.95,138.909 286.97,138.806 286.976,138.708 C 286.983,138.611 286.985,138.507 286.985,138.398 L 286.985,135.318 L 286.32,135.318 L 286.32,138.285 C 286.32,138.601 286.265,138.815 286.152,138.928 C 286.04,139.041 285.875,139.097 285.656,139.097 C 285.214,139.097 284.797,138.855 284.405,138.371 L 284.405,135.318 L 283.733,135.318 L 283.733,140.616 Z" fill="#7d0a29" marker-start="none" marker-end="none"/>
   <path d="M 290.703,140.571 L 290.703,136.179 C 290.703,136.007 290.72,135.892 290.751,135.835 C 290.782,135.777 290.847,135.749 290.945,135.749 L 291.031,135.765 L 291.17,135.325 C 291.031,135.268 290.887,135.239 290.738,135.239 C 290.532,135.239 290.36,135.298 290.224,135.416 C 290.089,135.535 290.021,135.737 290.021,136.024 L 290.021,140.58 C 290.021,140.811 290.004,141.026 289.971,141.227 C 289.959,141.29 289.941,141.368 289.918,141.46 L 290.591,141.59 C 290.614,141.492 290.631,141.406 290.643,141.33 C 290.684,141.078 290.703,140.825 290.703,140.571 Z" fill="#7d0a29" marker-start="none" marker-end="none"/>
   <path d="M 293.801,139.597 L 294.5,139.709 L 294.5,135.318 L 293.801,135.318 L 293.801,139.597 Z M 293.637,140.934 C 293.637,141.083 293.687,141.21 293.788,141.314 C 293.888,141.419 294.014,141.469 294.163,141.469 C 294.313,141.469 294.439,141.419 294.538,141.318 C 294.64,141.218 294.69,141.093 294.69,140.943 C 294.69,140.793 294.64,140.668 294.538,140.567 C 294.439,140.467 294.313,140.416 294.163,140.416 C 294.014,140.416 293.888,140.467 293.788,140.567 C 293.687,140.668 293.637,140.79 293.637,140.934 Z" fill="#7d0a29" marker-start="none" marker-end="none"/>
   <path d="M 299.064,139.2 C 298.437,139.2 298.107,138.755 298.072,137.863 L 300.039,137.863 C 300.033,138.103 300.014,138.299 299.983,138.445 C 299.951,138.592 299.904,138.717 299.84,138.82 C 299.766,138.936 299.66,139.027 299.521,139.097 C 299.383,139.165 299.23,139.2 299.064,139.2 Z M 299.344,135.784 C 299.749,135.784 300.1,135.919 300.401,136.189 L 300.659,135.757 C 300.47,135.585 300.249,135.453 299.998,135.361 C 299.748,135.269 299.483,135.222 299.207,135.222 C 298.908,135.222 298.639,135.275 298.402,135.377 C 298.166,135.482 297.966,135.633 297.801,135.831 C 297.637,136.03 297.511,136.269 297.425,136.552 C 297.338,136.833 297.295,137.152 297.295,137.509 C 297.295,137.871 297.335,138.178 297.417,138.428 C 297.498,138.678 297.63,138.913 297.815,139.132 C 298.151,139.527 298.581,139.727 299.107,139.727 C 299.582,139.727 299.971,139.571 300.278,139.261 C 300.371,139.162 300.448,139.062 300.512,138.958 C 300.576,138.855 300.626,138.734 300.664,138.596 C 300.702,138.458 300.728,138.296 300.746,138.113 C 300.763,137.929 300.772,137.708 300.772,137.448 L 300.772,137.354 L 298.072,137.354 L 298.072,137.25 C 298.072,137.049 298.086,136.87 298.115,136.715 C 298.144,136.56 298.197,136.425 298.271,136.31 C 298.392,136.126 298.546,135.991 298.734,135.908 C 298.923,135.826 299.126,135.784 299.344,135.784 Z" fill="#7d0a29" marker-start="none" marker-end="none"/>
   <path d="M 304.897,139.778 C 305.121,139.778 305.349,139.745 305.583,139.683 C 305.816,139.62 306.024,139.536 306.209,139.433 L 305.957,138.932 C 305.768,139.024 305.589,139.099 305.419,139.157 C 305.249,139.214 305.07,139.243 304.88,139.243 C 304.632,139.243 304.435,139.178 304.288,139.049 C 304.142,138.92 304.069,138.747 304.069,138.536 C 304.069,138.368 304.114,138.235 304.207,138.133 C 304.299,138.033 304.459,137.96 304.69,137.915 L 304.957,137.854 L 305.259,137.794 C 306.024,137.632 306.406,137.233 306.406,136.593 C 306.406,136.386 306.368,136.198 306.29,136.025 C 306.212,135.852 306.101,135.705 305.957,135.58 C 305.814,135.456 305.644,135.36 305.445,135.291 C 305.246,135.222 305.026,135.188 304.785,135.188 C 304.508,135.188 304.231,135.227 303.952,135.305 C 303.673,135.381 303.424,135.486 303.205,135.619 L 303.465,136.12 C 303.908,135.849 304.362,135.714 304.828,135.714 C 305.092,135.714 305.303,135.78 305.462,135.912 C 305.62,136.044 305.699,136.226 305.699,136.456 C 305.699,136.651 305.644,136.805 305.53,136.917 C 305.419,137.031 305.238,137.112 304.992,137.163 L 304.716,137.224 L 304.457,137.275 C 304.094,137.351 303.823,137.491 303.641,137.698 C 303.461,137.905 303.37,138.159 303.37,138.458 C 303.37,138.653 303.406,138.831 303.482,138.993 C 303.557,139.153 303.661,139.292 303.796,139.407 C 303.932,139.522 304.093,139.613 304.28,139.678 C 304.466,139.745 304.672,139.778 304.897,139.778 Z" fill="#7d0a29" marker-start="none" marker-end="none"/>
   <path d="M 310.444,139.778 C 310.669,139.778 310.896,139.745 311.129,139.683 C 311.363,139.62 311.571,139.536 311.755,139.433 L 311.504,138.932 C 311.315,139.024 311.135,139.099 310.965,139.157 C 310.796,139.214 310.616,139.243 310.426,139.243 C 310.178,139.243 309.982,139.178 309.836,139.049 C 309.689,138.92 309.615,138.747 309.615,138.536 C 309.615,138.368 309.662,138.235 309.753,138.133 C 309.845,138.033 310.006,137.96 310.237,137.915 L 310.505,137.854 L 310.806,137.794 C 311.571,137.632 311.954,137.233 311.954,136.593 C 311.954,136.386 311.915,136.198 311.837,136.025 C 311.76,135.852 311.647,135.705 311.504,135.58 C 311.36,135.456 311.19,135.36 310.992,135.291 C 310.793,135.222 310.573,135.188 310.331,135.188 C 310.055,135.188 309.777,135.227 309.499,135.305 C 309.221,135.381 308.972,135.486 308.753,135.619 L 309.011,136.12 C 309.454,135.849 309.909,135.714 310.374,135.714 C 310.64,135.714 310.85,135.78 311.009,135.912 C 311.167,136.044 311.245,136.226 311.245,136.456 C 311.245,136.651 311.19,136.805 311.078,136.917 C 310.965,137.031 310.786,137.112 310.538,137.163 L 310.263,137.224 L 310.003,137.275 C 309.642,137.351 309.369,137.491 309.188,137.698 C 309.008,137.905 308.917,138.159 308.917,138.458 C 308.917,138.653 308.954,138.831 309.028,138.993 C 309.103,139.153 309.209,139.292 309.344,139.407 C 309.479,139.522 309.639,139.613 309.826,139.678 C 310.014,139.745 310.219,139.778 310.444,139.778 Z" fill="#7d0a29" marker-start="none" marker-end="none"/>
   <path d="M 316.544,139.632 L 316.337,139.122 L 315.44,139.122 L 315.44,136.339 C 315.44,136.096 315.479,135.928 315.556,135.836 C 315.633,135.744 315.778,135.698 315.991,135.698 C 316.089,135.698 316.168,135.705 316.229,135.719 C 316.289,135.733 316.351,135.754 316.415,135.784 L 316.509,135.352 C 316.29,135.238 316.038,135.18 315.749,135.18 C 315.635,135.18 315.533,135.19 315.444,135.21 C 315.354,135.231 315.27,135.261 315.189,135.301 C 315.04,135.376 314.933,135.483 314.87,135.622 C 314.806,135.761 314.775,135.939 314.775,136.159 L 314.775,139.122 L 314.215,139.122 L 314.215,139.632 L 314.775,139.632 C 314.775,139.734 314.778,139.847 314.784,139.972 C 314.79,140.097 314.797,140.214 314.805,140.32 C 314.815,140.429 314.822,140.519 314.832,140.593 C 314.84,140.667 315.079,140.756 315.552,140.857 C 315.534,140.709 315.52,140.576 315.509,140.457 C 315.497,140.337 315.487,140.206 315.479,140.061 C 315.47,139.916 315.465,139.774 315.465,139.632 L 316.544,139.632 Z" fill="#7d0a29" marker-start="none" marker-end="none"/>
   <path d="M 320.59,139.2 C 319.963,139.2 319.633,138.755 319.598,137.863 L 321.565,137.863 C 321.559,138.103 321.54,138.299 321.509,138.445 C 321.477,138.592 321.43,138.717 321.366,138.82 C 321.292,138.936 321.185,139.027 321.047,139.097 C 320.909,139.165 320.756,139.2 320.59,139.2 Z M 320.87,135.784 C 321.275,135.784 321.626,135.919 321.927,136.189 L 322.186,135.757 C 321.996,135.585 321.775,135.453 321.524,135.361 C 321.274,135.269 321.01,135.222 320.733,135.222 C 320.433,135.222 320.165,135.275 319.928,135.377 C 319.692,135.482 319.492,135.633 319.327,135.831 C 319.163,136.03 319.037,136.269 318.951,136.552 C 318.864,136.833 318.821,137.152 318.821,137.509 C 318.821,137.871 318.861,138.178 318.943,138.428 C 319.024,138.678 319.157,138.913 319.341,139.132 C 319.677,139.527 320.107,139.727 320.633,139.727 C 321.108,139.727 321.497,139.571 321.804,139.261 C 321.896,139.162 321.974,139.062 322.038,138.958 C 322.102,138.855 322.152,138.734 322.19,138.596 C 322.228,138.458 322.254,138.296 322.272,138.113 C 322.289,137.929 322.298,137.708 322.298,137.448 L 322.298,137.354 L 319.598,137.354 L 319.598,137.25 C 319.598,137.049 319.611,136.87 319.641,136.715 C 319.67,136.56 319.722,136.425 319.797,136.31 C 319.918,136.126 320.072,135.991 320.26,135.908 C 320.448,135.826 320.652,135.784 320.87,135.784 Z" fill="#7d0a29" marker-start="none" marker-end="none"/>
   <path d="M 326.664,139.727 C 326.935,139.727 327.158,139.68 327.336,139.587 C 327.515,139.497 327.682,139.387 327.837,139.26 L 327.465,138.794 C 327.314,138.921 327.182,139.011 327.067,139.062 C 326.951,139.113 326.81,139.14 326.642,139.14 C 326.474,139.14 326.318,139.097 326.17,139.011 C 326.022,138.924 325.909,138.806 325.828,138.657 C 325.666,138.357 325.585,137.889 325.585,137.25 C 325.585,136.761 325.677,136.39 325.858,136.138 C 326.04,135.884 326.304,135.757 326.65,135.757 C 327.009,135.757 327.316,135.912 327.577,136.224 L 327.95,135.791 C 327.748,135.591 327.547,135.445 327.346,135.356 C 327.144,135.267 326.909,135.222 326.639,135.222 C 326.022,135.222 325.565,135.439 325.266,135.87 C 325.122,136.077 325.017,136.3 324.951,136.542 C 324.885,136.784 324.852,137.068 324.852,137.396 C 324.852,137.868 324.914,138.245 325.038,138.526 C 325.161,138.808 325.315,139.042 325.499,139.226 C 325.833,139.559 326.221,139.727 326.664,139.727 Z" fill="#7d0a29" marker-start="none" marker-end="none"/>
   <path d="M 330.572,140.616 C 330.572,140.909 330.549,141.158 330.502,141.365 C 330.498,141.4 330.482,141.444 330.46,141.495 L 331.133,141.624 C 331.156,141.526 331.174,141.441 331.184,141.365 C 331.224,141.113 331.245,140.86 331.245,140.607 L 331.245,139.606 C 331.245,139.456 331.244,139.341 331.241,139.261 C 331.237,139.181 331.23,139.099 331.219,139.019 C 331.432,139.22 331.65,139.378 331.874,139.494 C 332.139,139.632 332.398,139.701 332.652,139.701 C 332.91,139.701 333.144,139.637 333.349,139.511 C 333.558,139.384 333.693,139.22 333.755,139.019 C 333.79,138.909 333.81,138.806 333.816,138.708 C 333.822,138.611 333.825,138.507 333.825,138.398 L 333.825,135.318 L 333.159,135.318 L 333.159,138.285 C 333.159,138.601 333.105,138.815 332.992,138.928 C 332.88,139.041 332.714,139.097 332.496,139.097 C 332.053,139.097 331.636,138.855 331.245,138.371 L 331.245,135.318 L 330.572,135.318 L 330.572,140.616 Z" fill="#7d0a29" marker-start="none" marker-end="none"/>
   <path d="M 336.862,138.63 C 336.862,138.894 336.835,139.122 336.785,139.312 C 336.767,139.376 336.738,139.45 336.698,139.536 L 337.353,139.718 C 337.388,139.636 337.414,139.571 337.431,139.52 C 337.483,139.352 337.509,139.194 337.509,139.044 C 337.952,139.487 338.403,139.708 338.863,139.708 C 339.093,139.708 339.305,139.653 339.498,139.541 C 339.69,139.429 339.829,139.275 339.916,139.079 C 339.985,138.924 340.02,138.757 340.02,138.579 L 340.02,135.317 L 339.338,135.317 L 339.338,138.224 C 339.338,138.461 339.329,138.617 339.311,138.695 C 339.294,138.773 339.251,138.855 339.182,138.941 C 339.079,139.061 338.921,139.122 338.708,139.122 C 338.53,139.122 338.327,139.064 338.1,138.95 C 337.872,138.833 337.678,138.692 337.517,138.518 L 337.517,135.317 L 336.862,135.317 L 336.862,138.63 Z" fill="#7d0a29" marker-start="none" marker-end="none"/>
   <path d="M 343.065,139.597 L 343.764,139.709 L 343.764,135.318 L 343.065,135.318 L 343.065,139.597 Z M 342.901,140.934 C 342.901,141.083 342.952,141.21 343.052,141.314 C 343.152,141.419 343.278,141.469 343.427,141.469 C 343.577,141.469 343.702,141.419 343.803,141.318 C 343.904,141.218 343.954,141.093 343.954,140.943 C 343.954,140.793 343.904,140.668 343.803,140.567 C 343.702,140.467 343.577,140.416 343.427,140.416 C 343.278,140.416 343.152,140.467 343.052,140.567 C 342.952,140.668 342.901,140.79 342.901,140.934 Z" fill="#7d0a29" marker-start="none" marker-end="none"/>
   <path d="M 347.552,137.76 L 349.192,139.631 L 350.036,139.631 L 348.347,137.76 L 350.425,135.317 L 349.528,135.317 L 347.552,137.76 Z M 346.853,140.616 C 346.853,140.908 346.83,141.157 346.784,141.364 C 346.778,141.399 346.765,141.443 346.741,141.495 L 347.414,141.624 C 347.436,141.526 347.454,141.44 347.466,141.364 C 347.506,141.112 347.526,140.86 347.526,140.606 L 347.526,135.317 L 346.853,135.317 L 346.853,140.616 Z" fill="#7d0a29" marker-start="none" marker-end="none"/>
   <path d="M 207.273,185.058 C 207.598,184.546 207.842,184.047 208.006,183.558 C 208.167,183.07 208.342,182.36 208.529,181.43 C 210.994,183.848 213.901,185.058 217.25,185.058 C 220.181,185.058 222.6,184.081 224.507,182.127 C 224.74,181.894 224.971,181.639 225.205,181.36 C 225.438,181.081 225.669,180.754 225.903,180.383 C 227.53,182.057 229.135,183.255 230.717,183.976 C 232.298,184.697 234.067,185.058 236.02,185.058 C 237.415,185.058 238.741,184.86 239.998,184.465 C 241.254,184.069 242.276,183.523 243.067,182.825 C 244.091,182.034 244.788,180.988 245.161,179.686 C 245.533,178.383 245.719,176.521 245.719,174.104 L 245.719,148.705 L 236.648,148.705 L 236.648,172.289 C 236.648,174.382 236.473,175.754 236.124,176.405 C 235.776,177.057 234.974,177.383 233.718,177.383 C 232.833,177.383 231.834,177.114 230.717,176.581 C 229.6,176.044 228.53,175.313 227.508,174.382 L 227.508,148.705 L 218.646,148.705 L 218.646,171.94 C 218.646,174.173 218.437,175.649 218.018,176.371 C 217.599,177.091 216.739,177.452 215.436,177.452 C 214.552,177.452 213.563,177.232 212.471,176.79 C 211.377,176.347 210.318,175.662 209.297,174.731 L 209.297,148.705 L 200.155,148.705 L 200.155,173.615 C 200.155,174.916 200.131,176.044 200.085,176.999 C 200.038,177.952 199.969,178.778 199.876,179.476 C 199.782,180.174 199.655,180.79 199.492,181.326 C 199.329,181.859 199.109,182.336 198.83,182.755 L 207.273,185.058 Z" fill="#231f20" marker-start="none" marker-end="none"/>
   <path d="M 271.746,164.334 C 268.489,164.334 266.222,163.959 264.943,163.21 C 263.662,162.46 263.024,161.01 263.024,158.856 C 263.024,157.448 263.408,156.313 264.175,155.448 C 264.943,154.58 265.93,154.147 267.14,154.147 C 269.001,154.147 270.629,154.966 272.024,156.606 L 272.165,164.334 L 271.746,164.334 Z M 253.813,180.174 C 254.744,180.778 255.627,181.29 256.465,181.709 C 257.302,182.127 258.349,182.592 259.605,183.104 C 261.372,183.848 263.035,184.383 264.594,184.71 C 266.152,185.034 267.745,185.198 269.374,185.198 C 272.444,185.198 274.956,184.661 276.909,183.589 C 278.863,182.518 280.189,180.981 280.886,178.977 C 281.119,178.464 281.282,177.917 281.374,177.335 C 281.467,176.752 281.514,175.972 281.514,174.992 L 281.514,172.547 L 281.306,160.525 L 281.306,159.897 C 281.306,158.965 281.351,158.149 281.446,157.449 C 281.537,156.752 281.712,156.122 281.969,155.563 C 282.224,155.003 282.561,154.49 282.98,154.026 C 283.398,153.559 283.957,153.07 284.654,152.559 L 279.7,146.891 C 278.63,147.352 277.642,147.951 276.735,148.689 C 275.829,149.425 275.142,150.254 274.677,151.177 C 274.303,150.809 273.943,150.463 273.594,150.14 C 273.246,149.818 272.885,149.541 272.514,149.313 C 270.745,148.025 268.35,147.379 265.327,147.379 C 261.279,147.379 258.22,148.334 256.151,150.239 C 254.08,152.147 253.047,154.915 253.047,158.544 C 253.047,162.775 254.464,165.881 257.302,167.858 C 260.139,169.835 264.441,170.824 270.211,170.824 L 271.257,170.824 C 271.722,170.824 272.071,170.8 272.304,170.754 L 272.304,172.219 C 272.304,174.218 272.036,175.603 271.502,176.371 C 270.967,177.139 269.839,177.522 268.117,177.522 C 266.629,177.522 265.023,177.173 263.303,176.475 C 261.582,175.777 259.745,174.777 257.791,173.476 L 253.813,180.174 Z" fill="#231f20" marker-start="none" marker-end="none"/>
   <path d="M 298.33,185.268 C 299.166,183.826 299.655,182.128 299.796,180.175 C 300.446,181.104 301.27,182 302.272,182.861 C 303.272,183.721 304.213,184.337 305.097,184.71 C 305.47,184.895 305.947,185.035 306.529,185.129 C 307.109,185.222 307.656,185.268 308.168,185.268 C 308.865,185.268 309.435,185.222 309.877,185.129 C 310.319,185.035 310.913,184.825 311.658,184.5 L 309.075,176.267 C 308.191,176.731 307.284,176.965 306.355,176.965 C 304.261,176.965 302.354,175.964 300.632,173.964 L 300.632,148.706 L 291.283,148.706 L 291.283,172.568 C 291.283,174.987 291.153,177.08 290.899,178.849 C 290.642,180.616 290.328,182.011 289.957,183.035 L 298.33,185.268 Z" fill="#231f20" marker-start="none" marker-end="none"/>
   <path d="M 332.24,178.011 L 326.24,178.011 L 326.24,160.078 C 326.24,158.961 326.298,158.031 326.414,157.286 C 326.529,156.543 326.739,155.95 327.042,155.508 C 327.343,155.066 327.751,154.762 328.264,154.601 C 328.774,154.437 329.449,154.357 330.286,154.357 C 330.705,154.357 331.158,154.413 331.647,154.531 C 332.135,154.647 332.798,154.822 333.636,155.054 L 334.821,149.471 C 332.17,148.402 329.635,147.866 327.217,147.866 C 324.844,147.866 322.785,148.346 321.04,149.297 C 319.297,150.251 318.145,151.519 317.587,153.1 C 317.448,153.472 317.33,153.809 317.238,154.112 C 317.145,154.413 317.087,154.762 317.063,155.159 C 317.039,155.553 317.017,156.02 316.994,156.555 C 316.971,157.089 316.959,157.776 316.959,158.614 L 316.959,178.011 L 313.4,178.011 L 313.4,184.43 L 316.959,184.43 C 316.959,186.197 316.971,187.709 316.994,188.965 C 317.017,190.222 317.122,191.523 317.308,192.873 L 326.798,195.246 C 326.612,193.617 326.472,191.862 326.379,189.977 C 326.285,188.094 326.24,186.244 326.24,184.43 L 334.613,184.43 L 332.24,178.011 Z" fill="#231f20" marker-start="none" marker-end="none"/>
   <path d="M 349.615,190.222 L 351.289,194.334 L 351.289,194.344 L 349.649,198.456 L 345.637,200.131 L 341.485,198.456 L 339.776,194.339 L 341.45,190.222 L 345.498,188.548 Z M 350.172,185.268 L 340.823,183.802 L 340.823,148.706 L 350.172,148.706 Z" fill="#231f20" marker-start="none" marker-end="none"/>
   <path d="M 187.789,197.709 L 189.298,198.733 L 190.323,200.27 L 190.701,202.13 L 189.298,205.446 L 185.902,206.821 L 182.586,205.446 L 181.212,202.132 L 181.212,202.128 L 182.586,198.733 L 185.956,197.331 Z" fill="#7d0a29" marker-start="none" marker-end="none"/>
   <path d="M 195.6,198.289 C 197.32,198.289 198.786,197.696 199.995,196.51 C 201.206,195.324 201.811,193.894 201.811,192.219 C 201.811,191.382 201.647,190.579 201.323,189.812 C 200.996,189.044 200.555,188.381 199.995,187.823 C 199.438,187.265 198.786,186.823 198.043,186.497 C 197.297,186.172 196.507,186.009 195.67,186.009 C 193.948,186.009 192.494,186.614 191.309,187.823 C 190.124,189.032 189.528,190.497 189.528,192.219 C 189.528,193.894 190.124,195.324 191.309,196.51 C 192.494,197.696 193.925,198.289 195.6,198.289 Z" fill="#7d0a29" marker-start="none" marker-end="none"/>
  </g>
 </g>
 <g id="Sponsoren" transform="scale(1 -1)"/>
 <g id="Content" transform="scale(1 -1)"/>
 <g id="Logo Vektor" transform="scale(1 -1)"/>
</svg>
