<?xml version="1.0" standalone="no"?>
<!DOCTYPE svg PUBLIC "-//W3C//DTD SVG 1.1//EN" "http://www.w3.org/Graphics/SVG/1.1/DTD/svg11.dtd">
<!--Generator: Xara Designer (www.xara.com), SVG filter version: 6.6.0.0-->
<svg fill="none" fill-rule="evenodd" stroke="black" stroke-width="0.501" stroke-linejoin="bevel" stroke-miterlimit="10" font-family="Times New Roman" font-size="16" style="font-variant-ligatures:none" xmlns:xlink="http://www.w3.org/1999/xlink" xmlns="http://www.w3.org/2000/svg" version="1.1" overflow="visible" width="154.184pt" height="36.021pt" viewBox="37.789 -369.22 154.184 36.021">
 <defs>
	</defs>
 <g id="Layer 1" transform="scale(1 -1)">
  <g id="Group" fill-rule="nonzero" stroke="none">
   <g id="Group_1" stroke-width="0">
    <path d="M 191.973,369.22 L 37.789,369.22 L 37.789,333.199 L 191.973,333.199 L 191.973,369.22 Z" marker-start="none" marker-end="none"/>
    <path d="M 37.789,336.319 L 37.789,366.1 C 37.789,366.1 37.789,369.22 40.909,369.22 L 70.69,369.22 C 70.69,369.22 73.81,369.22 73.81,366.1 L 73.81,336.319 C 73.81,336.319 73.81,333.199 70.69,333.199 L 40.909,333.199 C 40.909,333.199 37.789,333.199 37.789,336.319 Z" stroke-linejoin="miter" fill="#105330" marker-start="none" marker-end="none"/>
   </g>
   <path d="M 61.032,361.817 C 58.919,361.817 57.035,359.002 55.802,354.599 C 54.569,359.002 52.684,361.817 50.57,361.817 C 46.856,361.817 43.844,352.449 43.844,340.893 L 46.834,340.893 C 46.834,351.624 48.507,360.323 50.57,360.323 C 52.634,360.323 54.307,352.293 54.307,342.387 L 57.296,342.387 C 57.296,352.293 58.969,360.323 61.032,360.323 C 63.096,360.323 64.77,351.624 64.77,340.893 L 67.758,340.893 C 67.758,352.449 64.747,361.817 61.032,361.817 Z" fill="#fdbb20" stroke-width="0.033" stroke-linejoin="miter" marker-start="none" marker-end="none"/>
   <path d="M 110.326,356.681 C 110.307,357.483 109.583,358.052 108.786,358.052 C 107.024,358.052 106.746,356.57 106.746,355.256 C 106.746,354.031 107.283,352.771 108.619,352.771 C 109.714,352.771 110.27,353.391 110.419,354.397 L 113.48,354.397 C 113.201,351.857 111.199,350.395 108.637,350.395 C 105.743,350.395 103.59,352.35 103.59,355.256 C 103.59,358.27 105.539,360.427 108.637,360.427 C 111.032,360.427 113.165,359.184 113.386,356.681 L 110.326,356.681 Z" fill="#000000" stroke-width="0.033" stroke-linejoin="miter" marker-start="none" marker-end="none"/>
   <path d="M 136.443,360.152 L 139.502,360.152 L 139.502,358.814 L 139.541,358.814 C 140.115,359.809 141.075,360.427 142.441,360.427 C 145.65,360.427 146.033,358.126 146.033,356.755 L 146.033,350.669 L 142.879,350.669 L 142.879,355.256 C 142.879,356.553 142.938,357.87 141.302,357.87 C 140.202,357.87 139.596,356.977 139.596,355.593 L 139.596,350.669 L 136.443,350.669 L 136.443,360.152 Z" fill="#000000" stroke-width="0.033" stroke-linejoin="miter" marker-start="none" marker-end="none"/>
   <path d="M 151.164,352.314 C 152.667,352.314 153.168,353.154 153.095,355.109 C 152.649,354.834 151.833,354.781 151.146,354.598 C 150.441,354.434 149.847,354.141 149.847,353.391 C 149.847,352.625 150.46,352.314 151.164,352.314 Z M 147.083,357.229 C 147.137,358.471 147.732,359.275 148.585,359.767 C 149.439,360.243 150.552,360.427 151.647,360.427 C 153.928,360.427 156.137,359.933 156.137,357.248 L 156.137,353.1 C 156.137,352.296 156.137,351.418 156.508,350.669 L 153.335,350.669 C 153.224,350.962 153.188,351.254 153.149,351.564 C 152.334,350.725 151.128,350.396 149.976,350.396 C 148.14,350.396 146.693,351.308 146.693,353.265 C 146.693,356.352 150.106,356.115 152.296,356.553 C 152.834,356.663 153.13,356.845 153.13,357.43 C 153.13,358.144 152.26,358.416 151.61,358.416 C 150.738,358.416 150.182,358.033 150.033,357.229 L 147.083,357.229 Z" fill="#000000" stroke-width="0.033" stroke-linejoin="miter" marker-start="none" marker-end="none"/>
   <path d="M 157.167,362.267 L 160.319,362.267 L 160.319,350.669 L 157.167,350.669 L 157.167,362.267 Z" fill="#000000" stroke-width="0.033" stroke-linejoin="miter" marker-start="none" marker-end="none"/>
   <path d="M 164.134,355.512 C 164.134,354.215 164.616,352.771 166.063,352.771 C 167.603,352.771 167.937,354.215 167.937,355.42 C 167.937,356.79 167.436,358.052 166.063,358.052 C 164.616,358.052 164.134,356.718 164.134,355.512 Z M 170.98,350.669 L 167.973,350.669 L 167.973,351.767 L 167.937,351.767 C 167.326,350.871 166.398,350.395 165.284,350.395 C 162.261,350.395 160.98,352.954 160.98,355.622 C 160.98,358.088 162.315,360.427 165.043,360.427 C 166.23,360.427 167.14,359.988 167.788,359.13 L 167.827,359.13 L 167.827,362.267 L 170.98,362.267 L 170.98,350.669 Z" fill="#000000" stroke-width="0.033" stroke-linejoin="miter" marker-start="none" marker-end="none"/>
   <path d="M 173.114,359.13 L 171.639,359.13 L 171.639,362.267 L 174.588,362.267 L 173.114,359.13 Z" fill="#000000" stroke-width="0.033" stroke-linejoin="miter" marker-start="none" marker-end="none"/>
   <path d="M 118.918,353.356 L 117.5,353.356 L 117.5,359.578 L 118.918,359.578 C 120.75,359.578 121.572,358.372 121.572,356.525 C 121.572,354.492 120.909,353.356 118.918,353.356 Z M 119.203,362.267 L 114.139,362.267 L 114.139,350.669 L 119.203,350.669 C 122.781,350.669 124.974,352.716 124.974,356.516 C 124.974,360.107 122.813,362.267 119.203,362.267 Z" fill="#000000" stroke-width="0.033" stroke-linejoin="miter" marker-start="none" marker-end="none"/>
   <path d="M 97.583,350.669 L 98.844,355.317 C 98.987,355.861 99.129,356.497 99.183,356.817 L 99.219,356.817 C 99.25,356.57 99.347,355.875 99.463,355.282 L 100.359,350.669 L 103.831,350.669 L 101.399,362.284 L 97.718,362.284 L 96.243,356.45 C 96.119,355.998 95.967,355.266 95.875,354.884 L 95.84,354.884 L 95.875,354.884 L 95.84,354.884 C 95.747,355.266 95.595,355.998 95.472,356.45 L 93.997,362.284 L 90.315,362.284 L 87.883,350.669 L 91.357,350.669 L 92.252,355.282 C 92.368,355.875 92.464,356.57 92.496,356.817 L 92.531,356.817 C 92.586,356.497 92.727,355.861 92.869,355.317 L 94.132,350.669 L 97.583,350.669 Z" fill="#000000" stroke-width="0.033" stroke-linejoin="miter" marker-start="none" marker-end="none"/>
   <path d="M 130.699,352.753 C 129.334,352.753 128.788,353.883 128.788,355.403 C 128.788,356.921 129.334,358.053 130.699,358.053 C 132.062,358.053 132.609,356.921 132.609,355.403 C 132.609,353.883 132.062,352.753 130.699,352.753 Z M 130.699,360.427 C 127.59,360.427 125.633,358.252 125.633,355.403 C 125.633,352.553 127.59,350.378 130.699,350.378 C 133.808,350.378 135.764,352.553 135.764,355.403 C 135.764,358.252 133.808,360.427 130.699,360.427 Z" fill="#000000" stroke-width="0.033" stroke-linejoin="miter" marker-start="none" marker-end="none"/>
   <path d="M 176.843,353.795 C 176.843,353.32 177.045,352.973 177.356,352.735 C 177.648,352.515 178.028,352.406 178.468,352.406 C 179.072,352.406 179.933,352.661 179.933,353.411 C 179.933,354.142 178.962,354.289 178.413,354.416 C 176.454,354.909 173.918,354.964 173.918,357.522 C 173.918,359.807 176.473,360.427 178.34,360.427 C 180.428,360.427 182.606,359.825 182.717,357.359 L 179.801,357.359 C 179.801,357.76 179.654,358.016 179.398,358.18 C 179.141,358.344 178.835,358.418 178.45,358.418 C 177.938,358.418 177.114,358.363 177.114,357.705 C 177.114,356.809 179.283,356.645 180.711,356.335 C 182.634,355.951 183.128,354.562 183.128,353.776 C 183.128,351.237 180.629,350.395 178.487,350.395 C 176.234,350.395 173.927,351.145 173.835,353.795 L 176.843,353.795 Z" fill="#000000" stroke-width="0.033" stroke-linejoin="miter" marker-start="none" marker-end="none"/>
   <g id="Group_2" stroke-linejoin="miter" stroke-width="0.033" fill="#000000">
    <g id="Group_3">
     <path d="M 90.248,341.438 C 89.743,341.438 89.315,341.544 88.962,341.756 C 88.61,341.968 88.341,342.263 88.157,342.642 C 87.974,343.021 87.883,343.457 87.883,343.948 C 87.883,344.434 87.974,344.866 88.157,345.244 C 88.341,345.623 88.61,345.919 88.962,346.133 C 89.315,346.348 89.743,346.455 90.248,346.455 C 90.758,346.455 91.189,346.348 91.541,346.133 C 91.894,345.919 92.162,345.623 92.345,345.244 C 92.529,344.866 92.621,344.434 92.621,343.948 C 92.621,343.457 92.529,343.023 92.345,342.646 C 92.162,342.27 91.894,341.974 91.541,341.759 C 91.189,341.545 90.758,341.438 90.248,341.438 Z M 90.248,342.361 C 90.586,342.361 90.844,342.504 91.023,342.789 C 91.202,343.076 91.292,343.462 91.292,343.948 C 91.292,344.434 91.202,344.819 91.023,345.105 C 90.844,345.391 90.586,345.534 90.248,345.534 C 89.91,345.534 89.652,345.391 89.475,345.105 C 89.3,344.819 89.212,344.434 89.212,343.948 C 89.212,343.462 89.3,343.076 89.475,342.789 C 89.652,342.504 89.91,342.361 90.248,342.361 Z" marker-start="none" marker-end="none"/>
     <path d="M 93.306,341.553 L 93.306,346.556 L 94.522,346.556 L 94.522,341.553 L 93.306,341.553 Z" marker-start="none" marker-end="none"/>
     <path d="M 96.808,341.46 C 96.37,341.46 96.045,341.582 95.833,341.828 C 95.621,342.074 95.515,342.385 95.515,342.761 L 95.515,344.37 L 95.051,344.37 L 95.051,345.154 L 95.515,345.154 L 95.515,346.17 L 96.729,346.17 L 96.729,345.154 L 97.581,345.154 L 97.581,344.37 L 96.729,344.37 L 96.729,342.775 C 96.729,342.618 96.765,342.501 96.836,342.425 C 96.909,342.348 97.004,342.31 97.123,342.31 C 97.189,342.31 97.258,342.317 97.329,342.332 C 97.402,342.346 97.471,342.368 97.537,342.397 L 97.723,341.654 C 97.614,341.592 97.474,341.544 97.305,341.511 C 97.136,341.477 96.971,341.46 96.808,341.46 Z" marker-start="none" marker-end="none"/>
     <path d="M 99.754,341.46 C 99.416,341.46 99.108,341.529 98.831,341.666 C 98.555,341.805 98.336,342.013 98.173,342.291 C 98.012,342.571 97.931,342.925 97.931,343.354 C 97.931,343.739 98.006,344.074 98.156,344.357 C 98.306,344.641 98.516,344.861 98.784,345.015 C 99.054,345.17 99.368,345.247 99.726,345.247 C 100.102,345.247 100.422,345.168 100.686,345.008 C 100.95,344.849 101.152,344.626 101.289,344.34 C 101.428,344.055 101.497,343.721 101.497,343.34 L 101.497,343.104 L 99.132,343.104 C 99.161,342.78 99.231,342.55 99.343,342.414 C 99.454,342.278 99.594,342.211 99.761,342.211 C 99.913,342.211 100.032,342.251 100.118,342.332 C 100.204,342.413 100.263,342.528 100.296,342.674 L 101.455,342.674 C 101.36,342.27 101.158,341.967 100.85,341.764 C 100.543,341.561 100.178,341.46 99.754,341.46 Z M 99.726,344.497 C 99.563,344.497 99.428,344.426 99.321,344.286 C 99.214,344.146 99.151,343.945 99.132,343.683 L 100.296,343.683 C 100.278,343.94 100.221,344.14 100.126,344.283 C 100.031,344.425 99.897,344.497 99.726,344.497 Z" marker-start="none" marker-end="none"/>
     <path d="M 102.111,341.553 L 102.111,345.154 L 103.198,345.154 L 103.234,344.605 C 103.324,344.801 103.466,344.956 103.659,345.072 C 103.853,345.189 104.082,345.247 104.349,345.247 C 104.735,345.247 105.038,345.129 105.26,344.894 C 105.482,344.658 105.593,344.34 105.593,343.94 L 105.593,341.553 L 104.377,341.553 L 104.377,343.754 C 104.377,343.945 104.337,344.097 104.256,344.208 C 104.176,344.32 104.054,344.376 103.892,344.376 C 103.744,344.376 103.613,344.313 103.498,344.187 C 103.384,344.06 103.327,343.861 103.327,343.589 L 103.327,341.553 L 102.111,341.553 Z" marker-start="none" marker-end="none"/>
     <path d="M 107.408,342.854 L 107.408,343.783 L 110.982,343.783 L 110.982,342.854 L 107.408,342.854 Z" marker-start="none" marker-end="none"/>
     <path d="M 112.941,341.553 L 112.941,346.341 L 116.186,346.341 L 116.186,345.406 L 114.213,345.406 L 114.213,344.411 L 115.964,344.411 L 115.964,343.518 L 114.213,343.518 L 114.213,342.49 L 116.214,342.49 L 116.214,341.553 L 112.941,341.553 Z" marker-start="none" marker-end="none"/>
     <path d="M 118.559,339.959 C 118.111,339.959 117.731,340.06 117.419,340.263 C 117.106,340.465 116.915,340.769 116.843,341.175 L 117.986,341.175 C 118.021,341.022 118.087,340.902 118.186,340.817 C 118.287,340.731 118.411,340.688 118.559,340.688 C 118.968,340.688 119.173,340.955 119.173,341.49 L 119.173,342.032 C 119.063,341.875 118.925,341.752 118.759,341.663 C 118.592,341.575 118.404,341.531 118.194,341.531 C 117.894,341.531 117.636,341.612 117.419,341.775 C 117.202,341.937 117.034,342.157 116.915,342.436 C 116.796,342.715 116.736,343.035 116.736,343.397 C 116.736,343.759 116.799,344.079 116.926,344.357 C 117.052,344.636 117.23,344.854 117.461,345.012 C 117.692,345.169 117.965,345.247 118.279,345.247 C 118.466,345.247 118.651,345.195 118.836,345.091 C 119.022,344.986 119.166,344.827 119.266,344.611 L 119.302,345.154 L 120.389,345.154 L 120.389,341.854 C 120.389,340.591 119.779,339.959 118.559,339.959 Z M 118.587,342.367 C 118.763,342.367 118.908,342.451 119.019,342.617 C 119.132,342.785 119.188,343.023 119.188,343.332 L 119.188,343.461 C 119.188,343.762 119.132,343.995 119.019,344.162 C 118.908,344.328 118.763,344.411 118.587,344.411 C 118.392,344.411 118.245,344.316 118.145,344.126 C 118.044,343.936 117.994,343.693 117.994,343.397 C 117.994,343.097 118.044,342.851 118.145,342.657 C 118.245,342.464 118.392,342.367 118.587,342.367 Z" marker-start="none" marker-end="none"/>
     <path d="M 122.84,341.46 C 122.502,341.46 122.194,341.529 121.917,341.666 C 121.641,341.805 121.422,342.013 121.259,342.291 C 121.098,342.571 121.017,342.925 121.017,343.354 C 121.017,343.739 121.092,344.074 121.242,344.357 C 121.392,344.641 121.602,344.861 121.87,345.015 C 122.14,345.17 122.454,345.247 122.812,345.247 C 123.188,345.247 123.508,345.168 123.772,345.008 C 124.036,344.849 124.238,344.626 124.375,344.34 C 124.514,344.055 124.583,343.721 124.583,343.34 L 124.583,343.104 L 122.218,343.104 C 122.247,342.78 122.317,342.55 122.429,342.414 C 122.54,342.278 122.68,342.211 122.847,342.211 C 122.999,342.211 123.118,342.251 123.204,342.332 C 123.29,342.413 123.349,342.528 123.382,342.674 L 124.541,342.674 C 124.446,342.27 124.244,341.967 123.936,341.764 C 123.629,341.561 123.264,341.46 122.84,341.46 Z M 122.812,344.497 C 122.649,344.497 122.514,344.426 122.407,344.286 C 122.3,344.146 122.237,343.945 122.218,343.683 L 123.382,343.683 C 123.364,343.94 123.307,344.14 123.212,344.283 C 123.117,344.425 122.983,344.497 122.812,344.497 Z" marker-start="none" marker-end="none"/>
     <path d="M 125.197,341.553 L 125.197,345.154 L 126.263,345.154 L 126.32,344.526 C 126.382,344.698 126.489,344.855 126.641,344.998 C 126.794,345.14 126.997,345.212 127.249,345.212 C 127.297,345.212 127.337,345.209 127.37,345.204 C 127.404,345.2 127.435,345.195 127.463,345.19 L 127.463,344.069 C 127.435,344.078 127.392,344.086 127.334,344.093 C 127.278,344.101 127.223,344.104 127.17,344.104 C 126.951,344.104 126.77,344.036 126.627,343.9 C 126.485,343.764 126.413,343.556 126.413,343.276 L 126.413,341.553 L 125.197,341.553 Z" marker-start="none" marker-end="none"/>
     <path d="M 127.984,341.553 L 127.984,346.556 L 129.2,346.556 L 129.2,343.718 L 130.201,345.154 L 131.486,345.154 L 130.135,343.512 C 130.403,343.33 130.642,343.117 130.85,342.874 C 131.003,342.699 131.143,342.501 131.269,342.282 C 131.395,342.063 131.511,341.82 131.615,341.553 L 130.3,341.553 C 130.205,341.887 130.074,342.17 129.907,342.403 C 129.807,342.542 129.7,342.671 129.585,342.792 C 129.471,342.914 129.343,343.025 129.2,343.126 L 129.2,341.553 L 127.984,341.553 Z" marker-start="none" marker-end="none"/>
     <path d="M 132.666,345.562 C 132.476,345.562 132.315,345.625 132.184,345.751 C 132.053,345.878 131.987,346.031 131.987,346.212 C 131.987,346.394 132.053,346.548 132.184,346.674 C 132.315,346.8 132.476,346.863 132.666,346.863 C 132.857,346.863 133.017,346.8 133.149,346.674 C 133.28,346.548 133.346,346.394 133.346,346.212 C 133.346,346.031 133.28,345.878 133.149,345.751 C 133.017,345.625 132.857,345.562 132.666,345.562 Z M 132.058,341.553 L 132.058,345.154 L 133.274,345.154 L 133.274,341.553 L 132.058,341.553 Z" marker-start="none" marker-end="none"/>
     <path d="M 134.13,341.553 L 134.13,345.154 L 135.217,345.154 L 135.253,344.605 C 135.343,344.801 135.485,344.956 135.678,345.072 C 135.872,345.189 136.101,345.247 136.368,345.247 C 136.754,345.247 137.057,345.129 137.279,344.894 C 137.501,344.658 137.612,344.34 137.612,343.94 L 137.612,341.553 L 136.396,341.553 L 136.396,343.754 C 136.396,343.945 136.356,344.097 136.275,344.208 C 136.195,344.32 136.073,344.376 135.911,344.376 C 135.763,344.376 135.632,344.313 135.517,344.187 C 135.403,344.06 135.346,343.861 135.346,343.589 L 135.346,341.553 L 134.13,341.553 Z" marker-start="none" marker-end="none"/>
     <path d="M 140.02,339.959 C 139.572,339.959 139.192,340.06 138.88,340.263 C 138.567,340.465 138.376,340.769 138.304,341.175 L 139.447,341.175 C 139.482,341.022 139.548,340.902 139.647,340.817 C 139.748,340.731 139.872,340.688 140.02,340.688 C 140.429,340.688 140.634,340.955 140.634,341.49 L 140.634,342.032 C 140.524,341.875 140.386,341.752 140.22,341.663 C 140.053,341.575 139.865,341.531 139.655,341.531 C 139.355,341.531 139.097,341.612 138.88,341.775 C 138.663,341.937 138.495,342.157 138.376,342.436 C 138.257,342.715 138.197,343.035 138.197,343.397 C 138.197,343.759 138.26,344.079 138.387,344.357 C 138.513,344.636 138.691,344.854 138.922,345.012 C 139.153,345.169 139.426,345.247 139.74,345.247 C 139.927,345.247 140.112,345.195 140.297,345.091 C 140.483,344.986 140.627,344.827 140.727,344.611 L 140.763,345.154 L 141.85,345.154 L 141.85,341.854 C 141.85,340.591 141.24,339.959 140.02,339.959 Z M 140.048,342.367 C 140.224,342.367 140.369,342.451 140.48,342.617 C 140.593,342.785 140.649,343.023 140.649,343.332 L 140.649,343.461 C 140.649,343.762 140.593,343.995 140.48,344.162 C 140.369,344.328 140.224,344.411 140.048,344.411 C 139.853,344.411 139.706,344.316 139.606,344.126 C 139.505,343.936 139.455,343.693 139.455,343.397 C 139.455,343.097 139.505,342.851 139.606,342.657 C 139.706,342.464 139.853,342.367 140.048,342.367 Z" marker-start="none" marker-end="none"/>
     <path d="M 144.301,341.46 C 143.963,341.46 143.655,341.529 143.378,341.666 C 143.102,341.805 142.883,342.013 142.72,342.291 C 142.559,342.571 142.478,342.925 142.478,343.354 C 142.478,343.739 142.553,344.074 142.703,344.357 C 142.853,344.641 143.063,344.861 143.331,345.015 C 143.601,345.17 143.915,345.247 144.273,345.247 C 144.649,345.247 144.969,345.168 145.233,345.008 C 145.497,344.849 145.699,344.626 145.836,344.34 C 145.975,344.055 146.044,343.721 146.044,343.34 L 146.044,343.104 L 143.679,343.104 C 143.708,342.78 143.778,342.55 143.89,342.414 C 144.001,342.278 144.141,342.211 144.308,342.211 C 144.46,342.211 144.579,342.251 144.665,342.332 C 144.751,342.413 144.81,342.528 144.843,342.674 L 146.002,342.674 C 145.907,342.27 145.705,341.967 145.397,341.764 C 145.09,341.561 144.725,341.46 144.301,341.46 Z M 144.273,344.497 C 144.11,344.497 143.975,344.426 143.868,344.286 C 143.761,344.146 143.698,343.945 143.679,343.683 L 144.843,343.683 C 144.825,343.94 144.768,344.14 144.673,344.283 C 144.578,344.425 144.444,344.497 144.273,344.497 Z" marker-start="none" marker-end="none"/>
     <path d="M 146.658,341.553 L 146.658,345.154 L 147.745,345.154 L 147.781,344.605 C 147.871,344.801 148.013,344.956 148.206,345.072 C 148.4,345.189 148.629,345.247 148.896,345.247 C 149.282,345.247 149.585,345.129 149.807,344.894 C 150.029,344.658 150.14,344.34 150.14,343.94 L 150.14,341.553 L 148.924,341.553 L 148.924,343.754 C 148.924,343.945 148.884,344.097 148.803,344.208 C 148.723,344.32 148.601,344.376 148.439,344.376 C 148.291,344.376 148.16,344.313 148.045,344.187 C 147.931,344.06 147.874,343.861 147.874,343.589 L 147.874,341.553 L 146.658,341.553 Z" marker-start="none" marker-end="none"/>
     <path d="M 151.955,342.854 L 151.955,343.783 L 155.529,343.783 L 155.529,342.854 L 151.955,342.854 Z" marker-start="none" marker-end="none"/>
     <path d="M 157.245,341.553 L 157.245,342.26 L 159.431,345.42 L 157.296,345.42 L 157.296,346.341 L 161.012,346.341 L 161.012,345.634 L 158.817,342.474 L 161.061,342.474 L 161.061,341.553 L 157.245,341.553 Z" marker-start="none" marker-end="none"/>
     <path d="M 165.084,345.154 L 165.084,341.553 L 163.997,341.553 L 163.955,342.139 C 163.869,341.939 163.732,341.775 163.544,341.649 C 163.356,341.523 163.126,341.46 162.854,341.46 C 162.502,341.46 162.219,341.578 162.007,341.814 C 161.795,342.049 161.689,342.367 161.689,342.767 L 161.689,345.154 L 162.904,345.154 L 162.904,342.954 C 162.904,342.763 162.94,342.612 163.014,342.499 C 163.088,342.387 163.199,342.332 163.347,342.332 C 163.486,342.332 163.607,342.395 163.712,342.521 C 163.816,342.647 163.868,342.846 163.868,343.118 L 163.868,345.154 L 165.084,345.154 Z" marker-start="none" marker-end="none"/>
     <path d="M 167.542,341.46 C 167.199,341.46 166.889,341.531 166.612,341.674 C 166.336,341.818 166.117,342.031 165.954,342.315 C 165.793,342.598 165.712,342.944 165.712,343.354 C 165.712,343.75 165.793,344.089 165.954,344.373 C 166.117,344.656 166.336,344.873 166.612,345.022 C 166.889,345.172 167.199,345.247 167.542,345.247 C 167.818,345.247 168.076,345.196 168.316,345.094 C 168.557,344.991 168.757,344.838 168.916,344.633 C 169.077,344.428 169.176,344.171 169.214,343.861 L 168.014,343.861 C 167.976,344.076 167.916,344.229 167.834,344.321 C 167.753,344.415 167.656,344.461 167.542,344.461 C 167.389,344.461 167.255,344.378 167.141,344.211 C 167.027,344.045 166.97,343.759 166.97,343.354 C 166.97,342.954 167.027,342.669 167.141,342.499 C 167.255,342.331 167.389,342.246 167.542,342.246 C 167.665,342.246 167.769,342.294 167.853,342.389 C 167.936,342.484 167.997,342.653 168.036,342.896 L 169.228,342.896 C 169.176,342.563 169.066,342.291 168.9,342.079 C 168.733,341.867 168.532,341.711 168.296,341.61 C 168.06,341.51 167.809,341.46 167.542,341.46 Z" marker-start="none" marker-end="none"/>
     <path d="M 169.821,341.553 L 169.821,346.556 L 171.037,346.556 L 171.037,344.677 C 171.137,344.852 171.275,344.991 171.448,345.094 C 171.622,345.196 171.826,345.247 172.059,345.247 C 172.445,345.247 172.748,345.129 172.97,344.894 C 173.192,344.658 173.303,344.34 173.303,343.94 L 173.303,341.553 L 172.087,341.553 L 172.087,343.754 C 172.087,343.945 172.047,344.097 171.966,344.208 C 171.886,344.32 171.764,344.376 171.602,344.376 C 171.454,344.376 171.323,344.313 171.208,344.187 C 171.094,344.06 171.037,343.861 171.037,343.589 L 171.037,341.553 L 169.821,341.553 Z" marker-start="none" marker-end="none"/>
     <path d="M 174.76,341.553 L 173.71,345.154 L 174.968,345.154 L 175.467,342.69 L 176.075,345.154 L 177.119,345.154 L 177.755,342.682 L 178.24,345.154 L 179.385,345.154 L 178.333,341.553 L 177.105,341.553 L 176.547,343.518 L 175.99,341.553 L 174.76,341.553 Z" marker-start="none" marker-end="none"/>
     <path d="M 180.441,345.562 C 180.251,345.562 180.09,345.625 179.959,345.751 C 179.828,345.878 179.762,346.031 179.762,346.212 C 179.762,346.394 179.828,346.548 179.959,346.674 C 180.09,346.8 180.251,346.863 180.441,346.863 C 180.632,346.863 180.792,346.8 180.924,346.674 C 181.055,346.548 181.121,346.394 181.121,346.212 C 181.121,346.031 181.055,345.878 180.924,345.751 C 180.792,345.625 180.632,345.562 180.441,345.562 Z M 179.833,341.553 L 179.833,345.154 L 181.049,345.154 L 181.049,341.553 L 179.833,341.553 Z" marker-start="none" marker-end="none"/>
     <path d="M 181.912,341.553 L 181.912,346.556 L 183.128,346.556 L 183.128,341.553 L 181.912,341.553 Z" marker-start="none" marker-end="none"/>
    </g>
   </g>
  </g>
 </g>
 <g id="Sponsoren" transform="scale(1 -1)"/>
 <g id="Content" transform="scale(1 -1)"/>
 <g id="Logo Vektor" transform="scale(1 -1)"/>
</svg>
