<?xml version="1.0" standalone="no"?>
<!DOCTYPE svg PUBLIC "-//W3C//DTD SVG 1.1//EN" "http://www.w3.org/Graphics/SVG/1.1/DTD/svg11.dtd">
<!--Generator: Xara Designer (www.xara.com), SVG filter version: 6.6.0.0-->
<svg fill="none" fill-rule="evenodd" stroke="black" stroke-width="0.501" stroke-linejoin="bevel" stroke-miterlimit="10" font-family="Times New Roman" font-size="16" style="font-variant-ligatures:none" xmlns:xlink="http://www.w3.org/1999/xlink" xmlns="http://www.w3.org/2000/svg" version="1.1" overflow="visible" width="54.755pt" height="10.206pt" viewBox="48.225 -671.304 54.755 10.206">
 <defs>
	</defs>
 <g id="Layer 1" transform="scale(1 -1)"/>
 <g id="Sponsoren" transform="scale(1 -1)">
  <g id="Group" stroke-linejoin="miter" stroke="none" fill="#f79239">
   <path d="M 56.83,661.207 L 56.8,666.794 L 54.439,661.195 L 53.11,661.188 L 50.721,666.761 L 50.751,661.175 L 48.276,661.162 L 48.225,670.837 L 51.538,670.856 L 53.842,665.405 L 56.196,670.881 L 59.258,670.898 L 59.311,661.222 L 56.83,661.207 Z" marker-start="none" marker-end="none"/>
   <path d="M 61.214,661.231 L 61.163,670.908 L 63.275,670.921 C 63.462,670.921 63.645,670.735 63.646,670.533 L 63.697,661.246 L 61.214,661.231 Z" marker-start="none" marker-end="none"/>
   <path d="M 70.538,666.856 L 73.681,666.874 C 73.93,666.876 74.072,666.668 74.073,666.434 L 74.101,661.438 C 73.217,661.235 71.837,661.103 70.804,661.098 C 67.198,661.079 65.288,662.788 65.269,666.105 C 65.252,669.064 67.143,671.127 70.317,671.144 C 71.709,671.152 72.939,670.784 73.73,670.257 L 72.765,668.589 C 72.08,668.887 71.161,669.096 70.51,669.092 C 68.688,669.083 67.844,667.868 67.854,666.12 C 67.864,664.248 68.858,663.099 70.676,663.108 C 71.011,663.11 71.424,663.126 71.753,663.18 L 71.743,664.885 L 70.55,664.88 L 70.538,666.856 Z" marker-start="none" marker-end="none"/>
   <path d="M 81.452,661.341 L 80.291,664.001 C 80.053,664.539 79.89,664.809 79.391,664.806 L 78.383,664.8 L 78.403,661.326 L 75.976,661.312 L 75.924,670.6 C 75.924,670.802 76.141,670.99 76.295,670.99 L 79.728,671.009 C 81.595,671.019 83.198,670.639 83.212,668.231 C 83.217,667.152 82.624,666.046 81.506,665.818 C 82.063,665.63 82.631,664.918 82.936,664.143 L 84.061,661.356 L 81.452,661.341 M 79.578,669.14 L 78.36,669.134 L 78.373,666.708 L 79.591,666.715 C 80.321,666.72 80.888,667.111 80.883,668.034 C 80.877,668.965 80.308,669.147 79.578,669.14 Z" marker-start="none" marker-end="none"/>
   <path d="M 89.438,661.199 C 86.27,661.182 84.582,663.41 84.568,666.21 C 84.552,668.985 86.216,671.231 89.383,671.248 C 92.35,671.264 94.036,669.037 94.051,666.262 C 94.066,663.462 92.405,661.215 89.438,661.199 M 89.394,669.194 C 88.087,669.188 87.165,668.252 87.176,666.225 C 87.187,664.167 88.12,663.243 89.427,663.25 C 90.546,663.256 91.456,664.188 91.446,666.249 C 91.435,668.276 90.513,669.201 89.394,669.194 Z" marker-start="none" marker-end="none"/>
   <path d="M 98.847,661.251 C 97.21,661.242 95.686,661.818 95.007,662.283 L 96.099,664.242 C 96.715,663.871 97.914,663.307 99.019,663.313 C 99.644,663.317 100.434,663.445 100.43,664.136 C 100.427,664.791 99.542,664.981 98.386,665.308 C 96.988,665.699 95.357,666.247 95.347,668.121 C 95.336,670.147 97.13,671.289 99.469,671.304 C 101.013,671.311 102.211,670.77 102.827,670.188 L 101.492,668.654 C 100.824,669.044 100.146,669.352 99.383,669.347 C 98.471,669.342 97.955,668.989 97.958,668.484 C 97.961,667.982 98.624,667.729 99.465,667.48 C 100.945,667.034 102.969,666.578 102.98,664.64 C 102.99,662.644 101.401,661.264 98.847,661.251 Z" marker-start="none" marker-end="none"/>
  </g>
 </g>
 <g id="Content" transform="scale(1 -1)"/>
 <g id="Logo Vektor" transform="scale(1 -1)"/>
</svg>
