<?xml version="1.0" standalone="no"?>
<!DOCTYPE svg PUBLIC "-//W3C//DTD SVG 1.1//EN" "http://www.w3.org/Graphics/SVG/1.1/DTD/svg11.dtd">
<!--Generator: Xara Designer (www.xara.com), SVG filter version: 6.6.0.7-->
<svg fill="none" fill-rule="evenodd" stroke="black" stroke-width="0.501" stroke-linejoin="bevel" stroke-miterlimit="10" font-family="Times New Roman" font-size="16" style="font-variant-ligatures:none" xmlns:xlink="http://www.w3.org/1999/xlink" xmlns="http://www.w3.org/2000/svg" version="1.1" overflow="visible" width="127.663pt" height="23.81pt" viewBox="27.115 -1115.04 127.663 23.81">
 <defs>
  <style type="text/css">@import url('https://themes.googleusercontent.com/fonts/css?family=Open Sans:400,600');</style>
 </defs>
 <g id="Inserate" transform="scale(1 -1)">
  <g id="Group" fill="#ec6708" stroke-linejoin="miter" stroke="none">
   <path d="M 47.169,1091.53 L 47.105,1104.52 L 41.639,1091.46 L 38.5,1091.46 L 32.944,1104.4 L 33.032,1091.41 L 27.257,1091.41 L 27.115,1113.93 L 34.794,1113.99 L 40.21,1101.3 L 45.702,1114.09 L 52.842,1114.09 L 52.97,1091.53 L 47.169,1091.53 Z" marker-start="none" marker-end="none"/>
   <path d="M 57.355,1091.55 L 57.267,1114.11 L 62.166,1114.17 C 62.641,1114.17 63.04,1113.7 63.04,1113.25 L 63.183,1091.61 L 57.355,1091.55 Z" marker-start="none" marker-end="none"/>
   <path d="M 79.146,1104.69 L 86.489,1104.69 C 87.031,1104.69 87.365,1104.22 87.365,1103.68 L 87.455,1092 C 85.332,1091.55 82.192,1091.23 79.737,1091.23 C 71.351,1091.19 66.886,1095.16 66.835,1102.91 C 66.795,1109.82 71.26,1114.62 78.604,1114.68 C 81.859,1114.68 84.726,1113.79 86.579,1112.62 L 84.342,1108.71 C 82.735,1109.39 80.574,1109.87 79.056,1109.87 C 74.811,1109.87 72.843,1107.04 72.894,1102.93 C 72.894,1098.55 75.221,1095.91 79.441,1095.91 C 80.225,1095.95 81.202,1096 81.949,1096.09 L 81.949,1100.07 L 79.146,1100.07 L 79.146,1104.69 Z" marker-start="none" marker-end="none"/>
   <path d="M 104.574,1091.82 L 101.86,1098.01 C 101.32,1099.23 100.961,1099.88 99.765,1099.88 L 97.437,1099.83 L 97.462,1091.79 L 91.841,1091.73 L 91.7,1113.39 C 91.7,1113.88 92.2,1114.29 92.561,1114.29 L 100.573,1114.36 C 104.87,1114.38 108.639,1113.48 108.666,1107.83 C 108.666,1105.39 107.302,1102.75 104.689,1102.25 C 106.041,1101.8 107.302,1100.15 108.047,1098.34 L 110.646,1091.82 L 104.574,1091.82 M 100.213,1110 L 97.372,1110 L 97.437,1104.31 L 100.279,1104.31 C 101.951,1104.31 103.289,1105.3 103.289,1107.45 C 103.236,1109.61 101.912,1110 100.213,1110 Z" marker-start="none" marker-end="none"/>
   <path d="M 123.2,1091.53 C 115.816,1091.41 111.893,1096.63 111.842,1103.15 C 111.804,1109.63 115.689,1114.86 123.046,1114.9 C 129.979,1114.95 133.887,1109.78 133.953,1103.27 C 133.977,1096.79 130.094,1091.53 123.2,1091.53 M 123.11,1110.09 C 120.087,1110.09 117.937,1107.92 117.937,1103.24 C 117.937,1098.37 120.112,1096.22 123.135,1096.22 C 125.758,1096.27 127.919,1098.46 127.919,1103.24 C 127.856,1107.99 125.709,1110.14 123.11,1110.09 Z" marker-start="none" marker-end="none"/>
   <path d="M 145.13,1091.61 C 141.311,1091.61 137.747,1092.93 136.139,1093.97 L 138.766,1098.55 C 140.166,1097.67 142.983,1096.4 145.516,1096.4 C 146.984,1096.4 148.835,1096.72 148.835,1098.34 C 148.835,1099.83 146.776,1100.31 144.051,1101.08 C 140.822,1101.96 137.001,1103.24 136.974,1107.63 C 136.911,1112.32 141.129,1114.99 146.597,1115.04 C 150.211,1115.04 152.925,1113.79 154.393,1112.41 L 151.291,1108.85 C 149.736,1109.78 148.155,1110.47 146.392,1110.47 C 144.231,1110.47 143.073,1109.63 143.073,1108.44 C 143.073,1107.31 144.617,1106.7 146.597,1106.11 C 150.005,1105.09 154.727,1104.01 154.778,1099.54 C 154.778,1094.84 151.073,1091.64 145.13,1091.61 Z" marker-start="none" marker-end="none"/>
  </g>
 </g>
 <g id="Grid" transform="scale(1 -1)"/>
 <g id="Content" transform="scale(1 -1)"/>
 <g id="Ebene 1" transform="scale(1 -1)"/>
 <g id="Layer 1" transform="scale(1 -1)"/>
</svg>
