<?xml version="1.0" standalone="no"?>
<!DOCTYPE svg PUBLIC "-//W3C//DTD SVG 1.1//EN" "http://www.w3.org/Graphics/SVG/1.1/DTD/svg11.dtd">
<!--Generator: Xara Designer (www.xara.com), SVG filter version: 6.6.0.0-->
<svg fill="none" fill-rule="evenodd" stroke="black" stroke-width="0.501" stroke-linejoin="bevel" stroke-miterlimit="10" font-family="Times New Roman" font-size="16" style="font-variant-ligatures:none" xmlns:xlink="http://www.w3.org/1999/xlink" xmlns="http://www.w3.org/2000/svg" version="1.1" overflow="visible" width="76pt" height="91.509pt" viewBox="453.251 -775.5 76 91.509">
 <defs>
	</defs>
 <g id="Layer 1" transform="scale(1 -1)">
  <g id="Group" fill-rule="nonzero" stroke-linejoin="miter" stroke="none" stroke-width="0.172" fill="#bcd36c">
   <path d="M 453.251,775.5 L 490.833,775.5 C 490.833,774.475 490.834,773.451 490.833,772.427 C 479.335,772.424 467.836,772.427 456.336,772.424 C 456.334,743.976 456.336,715.526 456.336,687.076 C 479.616,687.076 502.897,687.076 526.176,687.076 C 526.178,702.505 526.175,717.935 526.178,733.365 C 527.202,733.367 528.226,733.365 529.251,733.365 L 529.251,683.991 L 453.251,683.991 C 453.268,714.494 453.27,744.997 453.251,775.5 Z" marker-start="none" marker-end="none"/>
   <path d="M 513.235,772.805 C 515.741,773.133 518.39,772.364 520.252,770.637 C 522.314,768.755 523.377,766.039 523.872,763.347 C 524.398,760.356 524.424,757.277 523.98,754.276 C 523.541,751.454 522.613,748.558 520.582,746.467 C 517.317,743.119 511.295,743.261 508.11,746.653 C 505.565,749.307 504.742,753.104 504.537,756.664 C 504.367,760.574 504.643,764.703 506.575,768.197 C 507.913,770.662 510.417,772.505 513.235,772.805 M 513.225,769.372 C 511.424,769.024 510.111,767.515 509.446,765.88 C 508.614,763.882 508.353,761.7 508.264,759.554 C 508.192,757.041 508.326,754.482 509.064,752.063 C 509.479,750.75 510.123,749.452 511.187,748.542 C 512.652,747.286 514.869,747.098 516.596,747.896 C 518.046,748.586 518.967,750.015 519.511,751.475 C 520.27,753.567 520.491,755.812 520.53,758.024 C 520.548,760.262 520.392,762.53 519.759,764.687 C 519.329,766.119 518.635,767.551 517.437,768.494 C 516.267,769.425 514.664,769.675 513.225,769.372 Z" marker-start="none" marker-end="none"/>
   <path d="M 468.228,763.151 C 469.81,763.138 471.392,763.179 472.973,763.129 C 474.608,759.104 476.303,755.101 477.97,751.088 C 479.645,755.108 481.315,759.132 482.991,763.151 C 484.564,763.15 486.136,763.151 487.709,763.151 C 488.083,753.862 488.459,744.572 488.831,735.282 C 487.562,735.282 486.293,735.282 485.024,735.282 C 484.786,742.824 484.57,750.366 484.317,757.906 C 484.27,757.831 484.176,757.68 484.127,757.605 C 482.069,752.782 480.032,747.953 477.962,743.138 C 475.996,747.774 474.02,752.403 472.052,757.039 C 471.928,757.335 471.817,757.642 471.63,757.906 C 471.354,750.368 471.159,742.826 470.914,735.284 C 469.644,735.282 468.374,735.281 467.104,735.286 C 467.479,744.574 467.851,753.862 468.228,763.151 Z" marker-start="none" marker-end="none"/>
   <path d="M 467.485,723.484 C 468.631,723.914 469.776,724.345 470.922,724.773 C 473.451,717.969 475.977,711.165 478.512,704.361 C 481.048,711.163 483.57,717.969 486.103,724.773 C 487.249,724.345 488.394,723.914 489.539,723.484 C 485.974,714.156 482.405,704.831 478.837,695.504 C 478.62,695.505 478.404,695.505 478.188,695.505 C 474.617,704.831 471.053,714.156 467.485,723.484 Z" marker-start="none" marker-end="none"/>
   <path d="M 499.39,723.576 C 505.188,723.576 510.987,723.576 516.784,723.576 C 516.784,722.502 516.784,721.427 516.784,720.353 C 512.186,720.352 507.589,720.353 502.991,720.352 C 502.99,717.576 502.99,714.798 502.99,712.022 C 506.788,712.018 510.586,712.023 514.385,712.018 C 514.385,710.945 514.385,709.871 514.384,708.796 C 510.586,708.794 506.788,708.798 502.991,708.796 C 502.99,705.505 502.99,702.212 502.99,698.923 C 507.587,698.921 512.185,698.923 516.784,698.921 C 516.784,697.848 516.782,696.774 516.784,695.701 C 510.987,695.695 505.188,695.695 499.39,695.701 C 499.393,704.992 499.39,714.283 499.39,723.576 Z" marker-start="none" marker-end="none"/>
  </g>
 </g>
 <g id="Sponsoren" transform="scale(1 -1)"/>
 <g id="Content" transform="scale(1 -1)"/>
 <g id="Logo Vektor" transform="scale(1 -1)"/>
</svg>
