<?xml version="1.0" standalone="no"?>
<!DOCTYPE svg PUBLIC "-//W3C//DTD SVG 1.1//EN" "http://www.w3.org/Graphics/SVG/1.1/DTD/svg11.dtd">
<!--Generator: Xara Designer (www.xara.com), SVG filter version: 6.6.0.7-->
<svg fill="none" fill-rule="evenodd" stroke="black" stroke-width="0.501" stroke-linejoin="bevel" stroke-miterlimit="10" font-family="Times New Roman" font-size="16" style="font-variant-ligatures:none" xmlns:xlink="http://www.w3.org/1999/xlink" xmlns="http://www.w3.org/2000/svg" version="1.1" overflow="visible" width="23.398pt" height="34.039pt" viewBox="147.607 -130.499 23.398 34.039">
 <defs>
	</defs>
 <g id="Layer 1" transform="scale(1 -1)">
  <path d="M 148.485,97.364 C 148.68,97.364 148.89,97.497 148.89,97.876 C 148.89,98.294 148.599,98.373 148.479,98.373 C 148.295,98.373 148.084,98.239 148.078,97.882 C 148.071,97.537 148.262,97.364 148.485,97.364 Z M 147.683,98.708 L 148.081,98.708 L 148.081,98.554 C 148.145,98.62 148.278,98.759 148.539,98.759 C 149.031,98.759 149.298,98.317 149.298,97.855 C 149.298,97.357 148.987,96.985 148.539,96.985 C 148.308,96.985 148.164,97.095 148.081,97.172 L 148.081,96.491 L 147.683,96.491 L 147.683,98.708 Z" stroke="none" fill="#424f82" stroke-width="0.25" fill-rule="nonzero" stroke-linejoin="miter" marker-start="none" marker-end="none"/>
  <path d="M 150.095,99.398 L 150.095,98.537 C 150.223,98.665 150.396,98.759 150.627,98.759 C 150.835,98.759 150.996,98.678 151.085,98.578 C 151.222,98.431 151.226,98.26 151.226,98.069 L 151.226,97.036 L 150.831,97.036 L 150.831,97.955 C 150.825,98.107 150.825,98.142 150.804,98.193 C 150.79,98.227 150.734,98.378 150.513,98.378 C 150.256,98.378 150.136,98.169 150.109,98.073 C 150.095,98.018 150.095,97.992 150.095,97.805 L 150.095,97.036 L 149.694,97.036 L 149.694,99.398 L 150.095,99.398 Z" stroke="none" fill="#424f82" stroke-width="0.25" fill-rule="nonzero" stroke-linejoin="miter" marker-start="none" marker-end="none"/>
  <path d="M 153.046,98.708 L 152.622,97.251 L 152.528,96.935 C 152.415,96.586 152.291,96.46 151.979,96.46 C 151.849,96.46 151.785,96.474 151.738,96.482 L 151.738,96.832 C 151.776,96.824 151.805,96.822 151.845,96.822 C 151.876,96.822 151.962,96.822 152.026,96.865 C 152.073,96.896 152.12,96.969 152.12,97.002 L 151.513,98.708 L 151.945,98.708 L 152.317,97.461 L 152.634,98.708 L 153.046,98.708 Z" stroke="none" fill="#424f82" stroke-width="0.25" fill-rule="nonzero" stroke-linejoin="miter" marker-start="none" marker-end="none"/>
  <path d="M 153.484,97.532 C 153.585,97.408 153.736,97.316 153.967,97.316 C 154.197,97.316 154.298,97.431 154.298,97.514 C 154.298,97.62 154.177,97.647 154.123,97.658 C 154.068,97.671 153.793,97.72 153.732,97.738 C 153.335,97.832 153.261,98.063 153.261,98.214 C 153.261,98.496 153.518,98.759 153.977,98.759 C 154.23,98.759 154.415,98.678 154.528,98.597 C 154.613,98.544 154.666,98.487 154.699,98.447 L 154.415,98.184 C 154.368,98.273 154.254,98.438 153.96,98.438 C 153.769,98.438 153.682,98.353 153.682,98.266 C 153.682,98.145 153.805,98.113 154.02,98.077 C 154.368,98.012 154.466,97.995 154.572,97.913 C 154.676,97.832 154.743,97.697 154.743,97.558 C 154.743,97.296 154.508,96.985 153.99,96.985 C 153.693,96.985 153.398,97.079 153.187,97.283 L 153.484,97.532 Z" stroke="none" fill="#424f82" stroke-width="0.25" fill-rule="nonzero" stroke-linejoin="miter" marker-start="none" marker-end="none"/>
  <path d="M 155.506,97.036 L 155.107,97.036 L 155.107,98.708 L 155.506,98.708 L 155.506,97.036 Z M 155.506,98.968 L 155.107,98.968 L 155.107,99.374 L 155.506,99.374 L 155.506,98.968 Z" stroke="none" fill="#424f82" stroke-width="0.25" fill-rule="nonzero" stroke-linejoin="miter" marker-start="none" marker-end="none"/>
  <path d="M 156.73,98.397 C 156.479,98.397 156.298,98.196 156.298,97.889 C 156.298,97.544 156.51,97.354 156.75,97.354 C 157.042,97.354 157.188,97.608 157.178,97.885 C 157.172,98.163 157.012,98.397 156.73,98.397 Z M 156.75,96.985 C 156.229,96.985 155.88,97.367 155.88,97.88 C 155.88,98.391 156.236,98.759 156.733,98.759 C 157.198,98.759 157.597,98.434 157.6,97.88 C 157.6,97.357 157.255,96.985 156.75,96.985 Z" stroke="none" fill="#424f82" stroke-width="0.25" fill-rule="nonzero" stroke-linejoin="miter" marker-start="none" marker-end="none"/>
  <path d="M 158.473,98.42 L 158.473,97.665 C 158.473,97.458 158.473,97.367 158.664,97.367 C 158.725,97.367 158.775,97.37 158.833,97.387 L 158.833,97.049 C 158.711,97.029 158.63,97.022 158.541,97.022 C 158.456,97.022 158.176,97.022 158.099,97.227 C 158.073,97.293 158.073,97.401 158.073,97.568 L 158.073,98.42 L 157.827,98.42 L 157.827,98.707 L 158.073,98.707 L 158.073,99.301 L 158.473,99.301 L 158.473,98.707 L 158.833,98.707 L 158.833,98.42 L 158.473,98.42 Z" stroke="none" fill="#424f82" stroke-width="0.25" fill-rule="nonzero" stroke-linejoin="miter" marker-start="none" marker-end="none"/>
  <path d="M 159.542,99.398 L 159.542,98.537 C 159.668,98.665 159.843,98.759 160.073,98.759 C 160.281,98.759 160.441,98.678 160.531,98.578 C 160.668,98.431 160.672,98.26 160.672,98.069 L 160.672,97.036 L 160.277,97.036 L 160.277,97.955 C 160.27,98.107 160.27,98.142 160.25,98.193 C 160.237,98.227 160.179,98.378 159.96,98.378 C 159.701,98.378 159.58,98.169 159.554,98.073 C 159.542,98.018 159.542,97.992 159.542,97.805 L 159.542,97.036 L 159.141,97.036 L 159.141,99.398 L 159.542,99.398 Z" stroke="none" fill="#424f82" stroke-width="0.25" fill-rule="nonzero" stroke-linejoin="miter" marker-start="none" marker-end="none"/>
  <path d="M 162.287,98.086 C 162.25,98.346 162.09,98.437 161.913,98.437 C 161.699,98.437 161.551,98.313 161.505,98.086 L 162.287,98.086 Z M 162.742,97.41 C 162.536,97.133 162.267,96.985 161.926,96.985 C 161.488,96.985 161.067,97.263 161.067,97.879 C 161.067,98.439 161.427,98.759 161.9,98.759 C 162.341,98.759 162.525,98.494 162.558,98.443 C 162.695,98.25 162.726,97.959 162.73,97.791 L 161.492,97.791 C 161.538,97.527 161.702,97.376 161.966,97.376 C 162.24,97.376 162.351,97.537 162.401,97.607 L 162.742,97.41 Z" stroke="none" fill="#424f82" stroke-width="0.25" fill-rule="nonzero" stroke-linejoin="miter" marker-start="none" marker-end="none"/>
  <path d="M 163.504,98.708 L 163.504,98.47 C 163.553,98.558 163.664,98.756 164.037,98.745 L 164.037,98.333 C 163.95,98.33 163.8,98.327 163.678,98.232 C 163.506,98.103 163.504,97.932 163.504,97.655 L 163.504,97.036 L 163.115,97.036 L 163.115,98.708 L 163.504,98.708 Z" stroke="none" fill="#424f82" stroke-width="0.25" fill-rule="nonzero" stroke-linejoin="miter" marker-start="none" marker-end="none"/>
  <path d="M 165.354,97.869 C 165.272,97.829 165.183,97.798 165.002,97.768 C 164.859,97.748 164.668,97.714 164.668,97.537 C 164.668,97.408 164.778,97.34 164.939,97.34 C 165.142,97.34 165.286,97.433 165.33,97.534 C 165.354,97.585 165.354,97.634 165.354,97.686 L 165.354,97.869 Z M 164.319,98.216 C 164.327,98.302 164.334,98.37 164.386,98.468 C 164.546,98.759 164.945,98.759 165.052,98.759 C 165.213,98.759 165.407,98.738 165.554,98.652 C 165.752,98.531 165.755,98.373 165.755,98.193 L 165.755,97.307 C 165.755,97.18 165.755,97.136 165.828,97.036 L 165.354,97.036 C 165.35,97.077 165.343,97.143 165.343,97.167 C 165.257,97.092 165.079,96.995 164.848,96.995 C 164.469,96.995 164.242,97.23 164.242,97.518 C 164.242,97.601 164.263,97.679 164.296,97.745 C 164.417,97.986 164.673,98.039 164.836,98.069 C 165.179,98.14 165.206,98.145 165.354,98.193 C 165.354,98.277 165.346,98.447 165.069,98.447 C 164.902,98.447 164.812,98.394 164.771,98.34 C 164.729,98.287 164.732,98.239 164.732,98.193 L 164.319,98.216 Z" stroke="none" fill="#424f82" stroke-width="0.25" fill-rule="nonzero" stroke-linejoin="miter" marker-start="none" marker-end="none"/>
  <path d="M 167.059,97.364 C 167.253,97.364 167.464,97.497 167.464,97.876 C 167.464,98.294 167.174,98.373 167.053,98.373 C 166.869,98.373 166.658,98.239 166.651,97.882 C 166.644,97.537 166.835,97.364 167.059,97.364 Z M 166.256,98.708 L 166.655,98.708 L 166.655,98.554 C 166.718,98.62 166.852,98.759 167.112,98.759 C 167.605,98.759 167.872,98.317 167.872,97.855 C 167.872,97.357 167.56,96.985 167.112,96.985 C 166.882,96.985 166.738,97.095 166.655,97.172 L 166.655,96.491 L 166.256,96.491 L 166.256,98.708 Z" stroke="none" fill="#424f82" stroke-width="0.25" fill-rule="nonzero" stroke-linejoin="miter" marker-start="none" marker-end="none"/>
  <path d="M 168.676,97.036 L 168.278,97.036 L 168.278,98.708 L 168.676,98.708 L 168.676,97.036 Z M 168.676,98.968 L 168.278,98.968 L 168.278,99.374 L 168.676,99.374 L 168.676,98.968 Z" stroke="none" fill="#424f82" stroke-width="0.25" fill-rule="nonzero" stroke-linejoin="miter" marker-start="none" marker-end="none"/>
  <path d="M 170.302,98.086 C 170.264,98.346 170.105,98.437 169.926,98.437 C 169.713,98.437 169.565,98.313 169.517,98.086 L 170.302,98.086 Z M 170.756,97.41 C 170.55,97.133 170.282,96.985 169.94,96.985 C 169.502,96.985 169.081,97.263 169.081,97.879 C 169.081,98.439 169.441,98.759 169.914,98.759 C 170.355,98.759 170.538,98.494 170.573,98.443 C 170.71,98.25 170.74,97.959 170.744,97.791 L 169.505,97.791 C 169.552,97.527 169.716,97.376 169.981,97.376 C 170.254,97.376 170.365,97.537 170.415,97.607 L 170.756,97.41 Z" stroke="none" fill="#424f82" stroke-width="0.25" fill-rule="nonzero" stroke-linejoin="miter" marker-start="none" marker-end="none"/>
  <path d="M 155.215,120.536 L 157.142,125.065 L 157.174,125.065 L 157.388,118.115 L 158.558,118.115 L 158.212,126.695 L 156.763,126.695 L 155.215,122.973 L 153.666,126.695 L 152.218,126.695 L 151.871,118.115 L 153.041,118.115 L 153.255,125.065 L 153.286,125.065 L 155.215,120.536 Z" stroke="none" fill="#424f82" stroke-width="0.25" fill-rule="nonzero" stroke-linejoin="miter" marker-start="none" marker-end="none"/>
  <path d="M 166.428,129.69 C 165.011,129.69 163.38,128.669 163.38,125.242 C 163.38,121.801 165.043,120.813 166.428,120.813 C 169.425,120.813 169.475,124.552 169.475,125.242 C 169.475,128.702 167.795,129.69 166.428,129.69 Z M 166.428,128.652 C 168.091,128.652 168.322,126.51 168.322,125.242 C 168.322,123.991 168.091,121.851 166.428,121.851 C 164.765,121.851 164.535,123.991 164.535,125.242 C 164.535,126.51 164.765,128.652 166.428,128.652 Z" stroke="none" fill="#424f82" stroke-width="0.25" fill-rule="nonzero" stroke-linejoin="miter" marker-start="none" marker-end="none"/>
  <path d="M 155.382,108.583 L 153.044,114.874 L 151.99,114.479 L 155.282,105.864 L 155.481,105.864 L 158.774,114.479 L 157.72,114.874 L 155.382,108.583 Z" stroke="none" fill="#424f82" stroke-width="0.25" fill-rule="nonzero" stroke-linejoin="miter" marker-start="none" marker-end="none"/>
  <path d="M 161.813,105.925 L 167.166,105.925 L 167.166,106.912 L 162.917,106.912 L 162.917,109.959 L 166.425,109.959 L 166.425,110.947 L 162.917,110.947 L 162.917,113.517 L 167.166,113.517 L 167.166,114.506 L 161.813,114.506 L 161.813,105.925 Z" stroke="none" fill="#424f82" stroke-width="0.25" fill-rule="nonzero" stroke-linejoin="miter" marker-start="none" marker-end="none"/>
  <path d="M 170.059,117.521 L 170.059,103.264 L 148.552,103.264 L 148.552,129.554 L 159.175,129.554 L 159.175,130.499 L 147.607,130.499 L 147.607,129.554 L 147.608,129.554 L 147.608,103.264 L 147.607,103.264 L 147.607,102.321 L 171.005,102.321 L 171.005,102.322 L 171.005,103.264 L 171.005,117.521 L 170.059,117.521 Z" stroke="none" fill="#424f82" stroke-width="0.25" fill-rule="nonzero" stroke-linejoin="miter" marker-start="none" marker-end="none"/>
 </g>
</svg>
