<?xml version="1.0" standalone="no"?>
<!DOCTYPE svg PUBLIC "-//W3C//DTD SVG 1.1//EN" "http://www.w3.org/Graphics/SVG/1.1/DTD/svg11.dtd">
<!--Generator: Xara Designer (www.xara.com), SVG filter version: 6.6.0.0-->
<svg fill="none" fill-rule="evenodd" stroke="black" stroke-width="0.501" stroke-linejoin="bevel" stroke-miterlimit="10" font-family="Times New Roman" font-size="16" style="font-variant-ligatures:none" xmlns:xlink="http://www.w3.org/1999/xlink" xmlns="http://www.w3.org/2000/svg" version="1.1" overflow="visible" width="53.93pt" height="18.303pt" viewBox="48.225 -263.392 53.93 18.303">
 <defs>
	</defs>
 <g id="Layer 1" transform="scale(1 -1)"/>
 <g id="Sponsoren" transform="scale(1 -1)">
  <g id="Group" stroke="none">
   <path d="M 71.656,251.175 L 72.459,251.154 L 72.459,251.299 L 72.801,251.321 L 72.838,251.161 L 73.835,251.199 L 73.866,250.811 L 72.902,250.702 L 73.079,248.175 L 72.533,248.324 L 72.482,250.665 L 71.623,250.565 L 71.656,251.175 Z" fill="#f7941d" fill-rule="nonzero" marker-start="none" marker-end="none"/>
   <path d="M 75.038,250.811 L 75.038,250.054 C 75.074,250.046 75.108,250.037 75.138,250.035 C 75.21,250.035 75.28,250.06 75.35,250.105 C 75.413,250.153 75.467,250.214 75.507,250.292 C 75.547,250.371 75.57,250.452 75.57,250.543 C 75.551,250.628 75.505,250.7 75.426,250.754 C 75.351,250.807 75.265,250.834 75.169,250.834 C 75.13,250.834 75.085,250.825 75.038,250.811 Z M 75.13,248.212 L 74.506,248.218 L 74.612,250.834 L 74.367,250.688 L 74.265,251.284 L 74.932,251.409 C 75.01,251.421 75.071,251.426 75.116,251.426 C 75.267,251.426 75.413,251.396 75.55,251.34 C 75.686,251.284 75.801,251.201 75.893,251.094 C 75.985,250.987 76.042,250.864 76.063,250.726 C 76.072,250.628 76.078,250.558 76.078,250.512 C 76.078,250.385 76.059,250.266 76.018,250.153 C 75.979,250.042 75.918,249.939 75.839,249.852 C 75.76,249.762 75.664,249.692 75.55,249.64 C 75.62,249.427 75.719,249.25 75.85,249.109 C 75.978,248.972 76.145,248.86 76.356,248.777 L 76.078,248.265 C 75.799,248.371 75.571,248.53 75.399,248.738 C 75.228,248.945 75.117,249.198 75.067,249.494 L 75.13,248.212 Z" fill="#f7941d" fill-rule="nonzero" marker-start="none" marker-end="none"/>
   <path d="M 76.934,251.284 L 77.365,251.267 L 77.449,248.156 L 76.886,248.28 L 76.934,251.284 Z" fill="#f7941d" fill-rule="nonzero" marker-start="none" marker-end="none"/>
   <path d="M 78.615,248.024 L 78.01,248.236 L 78.187,250.508 L 77.993,251.085 L 78.272,251.367 L 79.109,249.445 L 79.915,251.506 L 80.5,247.996 L 79.805,247.967 L 79.699,249.757 L 79.134,248.369 L 78.508,249.737 L 78.615,248.024 Z" fill="#f7941d" fill-rule="nonzero" marker-start="none" marker-end="none"/>
   <path d="M 81.563,249.519 L 81.581,248.731 C 81.664,248.671 81.763,248.639 81.888,248.631 C 81.964,248.633 82.034,248.649 82.102,248.674 C 82.172,248.698 82.228,248.735 82.277,248.781 C 82.326,248.828 82.359,248.882 82.373,248.944 C 82.384,248.986 82.39,249.017 82.39,249.03 C 82.39,249.116 82.356,249.201 82.292,249.289 C 82.229,249.375 82.148,249.444 82.05,249.498 C 81.951,249.554 81.857,249.582 81.762,249.582 C 81.68,249.582 81.615,249.56 81.563,249.519 Z M 81.532,251.041 L 81.546,250.046 C 81.68,250.054 81.792,250.109 81.882,250.212 C 81.97,250.315 82.014,250.439 82.014,250.587 C 82.012,250.67 81.986,250.744 81.942,250.813 C 81.897,250.882 81.838,250.935 81.768,250.976 C 81.696,251.015 81.616,251.035 81.532,251.041 Z M 82.049,248.09 L 81.02,248.22 L 81.097,251.041 L 80.897,251.018 L 80.919,251.526 L 81.449,251.572 C 81.456,251.572 81.47,251.572 81.489,251.573 C 81.503,251.575 81.516,251.576 81.524,251.576 C 81.653,251.576 81.783,251.554 81.91,251.515 C 82.037,251.475 82.148,251.419 82.25,251.345 C 82.351,251.273 82.429,251.184 82.49,251.076 C 82.55,250.971 82.58,250.858 82.58,250.733 C 82.58,250.537 82.531,250.36 82.427,250.204 C 82.328,250.046 82.189,249.934 82.014,249.86 C 82.032,249.864 82.059,249.865 82.093,249.865 C 82.246,249.865 82.392,249.824 82.531,249.742 C 82.668,249.66 82.777,249.549 82.86,249.411 C 82.945,249.272 82.986,249.123 82.986,248.961 L 82.986,248.954 C 82.983,248.803 82.942,248.658 82.866,248.524 C 82.787,248.392 82.68,248.285 82.553,248.205 C 82.422,248.127 82.285,248.087 82.136,248.087 C 82.099,248.087 82.068,248.087 82.049,248.09 L 82.049,248.09 Z" fill="#f7941d" fill-rule="nonzero" marker-start="none" marker-end="none"/>
   <path d="M 84.19,250.811 L 84.124,249.554 L 84.52,249.64 L 84.19,250.811 Z M 84.069,248.09 L 83.441,248.156 L 83.578,249.045 L 83.403,249 L 83.441,249.408 L 83.642,249.474 L 83.87,251.322 L 84.349,251.444 L 85.513,248.48 L 84.825,248.175 L 84.618,249.259 L 84.109,249.138 L 84.069,248.09 Z" fill="#f7941d" fill-rule="nonzero" marker-start="none" marker-end="none"/>
   <path d="M 87.728,251.199 L 87.588,250.587 C 87.471,250.66 87.337,250.696 87.187,250.696 C 87.025,250.696 86.864,250.653 86.707,250.561 C 86.547,250.474 86.419,250.358 86.32,250.214 C 86.222,250.071 86.173,249.923 86.173,249.772 C 86.173,249.739 86.177,249.701 86.184,249.663 C 86.209,249.537 86.264,249.427 86.352,249.33 C 86.443,249.232 86.55,249.158 86.68,249.103 C 86.804,249.053 86.937,249.024 87.072,249.019 C 87.281,249.028 87.45,249.083 87.584,249.187 L 87.997,248.649 C 87.717,248.392 87.426,248.265 87.125,248.265 C 87.045,248.265 86.949,248.278 86.832,248.303 C 86.613,248.357 86.418,248.452 86.255,248.591 C 86.09,248.728 85.964,248.896 85.876,249.094 C 85.785,249.29 85.74,249.505 85.734,249.735 C 85.734,249.988 85.78,250.214 85.876,250.412 C 85.968,250.609 86.094,250.769 86.248,250.896 C 86.406,251.02 86.575,251.114 86.758,251.175 C 86.942,251.237 87.126,251.267 87.308,251.267 C 87.449,251.267 87.588,251.244 87.728,251.199 L 87.728,251.199 Z" fill="#f7941d" fill-rule="nonzero" marker-start="none" marker-end="none"/>
   <path d="M 88.753,251.199 L 89.066,251.221 L 89.132,249.86 L 89.767,249.97 L 89.652,251.444 L 90.078,251.489 L 90.523,247.974 L 89.867,248.198 L 89.78,249.64 L 89.185,249.519 L 89.21,248.175 L 88.553,248.175 L 88.617,249.395 L 88.393,249.328 L 88.413,249.677 L 88.652,249.741 L 88.753,251.199 Z" fill="#f7941d" fill-rule="nonzero" marker-start="none" marker-end="none"/>
   <path d="M 49.899,253.341 L 49.899,253.341 C 49.589,253.531 49.438,253.795 49.438,254.147 C 49.438,254.459 49.583,254.729 49.884,254.977 C 50.183,255.222 50.499,255.349 50.818,255.349 C 51.174,255.349 51.496,255.236 51.766,255.012 C 52.056,254.78 52.198,254.497 52.198,254.147 C 52.198,253.826 52.065,253.57 51.793,253.375 C 51.544,253.189 51.243,253.098 50.896,253.098 C 50.501,253.098 50.167,253.179 49.899,253.341 Z M 52.098,256.677 C 51.901,256.636 51.697,256.531 51.495,256.363 L 51.01,255.97 C 50.887,255.875 50.607,255.753 50.175,255.603 C 49.788,255.468 49.52,255.326 49.359,255.172 C 49.115,254.931 48.989,254.586 48.989,254.147 C 48.989,253.159 49.655,252.658 50.968,252.658 C 51.361,252.658 51.787,252.716 52.228,252.815 C 52.509,252.248 52.655,251.617 52.655,250.939 C 52.655,250.266 52.423,249.675 51.966,249.189 C 51.526,248.723 50.955,248.427 50.268,248.312 C 50.161,248.296 50.05,248.288 49.932,248.288 C 49.162,248.288 48.79,248.638 48.79,249.358 C 48.79,249.632 48.871,249.858 49.037,250.046 C 49.203,250.237 49.41,250.327 49.672,250.327 C 49.862,250.327 50.025,250.267 50.176,250.141 C 50.322,250.022 50.392,249.878 50.392,249.701 C 50.392,249.564 50.309,249.451 50.136,249.359 C 49.807,249.181 49.734,249.128 49.701,249.097 L 49.604,249 L 49.727,248.935 C 49.903,248.841 50.093,248.821 50.287,248.868 C 50.466,248.911 50.625,249.01 50.762,249.162 C 50.901,249.317 50.97,249.487 50.97,249.665 C 50.97,250.049 50.851,250.329 50.619,250.498 C 50.428,250.64 50.142,250.71 49.752,250.71 C 49.316,250.71 48.947,250.573 48.66,250.297 C 48.37,250.022 48.225,249.658 48.225,249.22 C 48.225,248.884 48.411,248.546 48.776,248.217 C 49.141,247.889 49.492,247.722 49.825,247.722 C 50.337,247.722 50.951,247.918 51.643,248.303 C 52.416,248.731 52.888,249.207 53.043,249.714 C 53.24,250.358 53.337,250.823 53.337,251.132 C 53.337,251.609 53.263,252.189 53.117,252.859 L 52.736,254.545 C 52.691,254.747 52.575,255.006 52.379,255.329 C 52.204,255.62 52.089,255.842 52.034,255.999 C 52.107,256.073 52.511,256.479 52.511,256.479 L 52.137,256.685 L 52.098,256.677 Z" fill="#999999" fill-rule="nonzero" marker-start="none" marker-end="none"/>
   <path d="M 54.101,256.325 C 53.923,255.435 53.837,254.905 53.837,254.708 C 53.837,254.136 53.886,253.72 53.98,253.439 C 54.05,253.234 54.24,253.035 54.552,252.829 C 54.553,252.827 54.56,252.811 54.56,252.811 L 54.571,252.8 C 54.642,252.725 54.773,252.676 54.99,252.644 L 54.996,252.644 L 55.004,252.644 C 55.113,252.644 55.243,252.672 55.405,252.732 C 55.572,252.795 55.657,252.81 55.695,252.81 C 55.77,252.81 55.839,252.775 55.901,252.706 C 56.091,252.489 56.144,252.441 56.172,252.423 L 56.192,252.409 L 56.206,252.408 L 56.388,252.384 C 56.493,252.384 56.585,252.426 56.657,252.502 C 56.914,252.77 57.042,253.039 57.042,253.306 C 57.042,253.394 57.011,253.521 56.86,253.616 L 56.852,253.621 L 56.843,253.623 C 56.73,253.669 56.657,253.691 56.602,253.691 C 56.53,253.691 56.448,253.666 56.356,253.621 L 56.315,253.602 L 56.299,253.532 L 56.293,253.512 L 56.29,253.494 C 56.29,253.405 56.376,253.368 56.512,253.315 C 56.604,253.279 56.604,253.244 56.604,253.228 C 56.604,253.196 56.59,253.132 56.542,253.032 C 56.422,252.935 56.383,252.917 56.378,252.917 L 56.405,252.917 L 56.394,252.917 L 56.351,252.911 L 56.323,252.904 C 56.322,252.904 56.254,252.911 56.16,253.128 C 56.158,254.032 56.146,254.752 56.124,255.275 L 56.064,255.905 C 56.037,256.172 56.021,256.377 56.021,256.522 L 55.821,256.543 C 55.752,256.23 55.716,255.739 55.716,255.08 C 55.716,254.438 55.676,253.951 55.597,253.633 C 55.517,253.31 55.379,253.081 55.195,252.952 C 54.929,252.947 54.789,252.983 54.716,253.021 C 54.517,253.402 54.418,253.951 54.418,254.66 C 54.418,254.661 54.412,254.873 54.412,254.873 L 54.415,254.938 L 54.418,255.111 C 54.418,255.116 54.412,255.185 54.412,255.185 C 54.412,255.185 54.418,255.223 54.418,255.226 C 54.418,255.721 54.377,256.082 54.3,256.337 L 54.179,256.722 L 54.101,256.325 Z" fill="#999999" fill-rule="nonzero" marker-start="none" marker-end="none"/>
   <path d="M 58.274,253.341 L 58.274,253.341 C 57.962,253.531 57.811,253.795 57.811,254.147 C 57.811,254.459 57.957,254.729 58.256,254.977 C 58.556,255.222 58.871,255.349 59.191,255.349 C 59.55,255.349 59.867,255.236 60.141,255.012 C 60.429,254.78 60.568,254.497 60.568,254.147 C 60.568,253.826 60.439,253.57 60.167,253.375 C 59.915,253.189 59.614,253.098 59.27,253.098 C 58.871,253.098 58.538,253.179 58.274,253.341 Z M 60.471,256.677 C 60.274,256.636 60.07,256.531 59.867,256.363 L 59.382,255.97 C 59.26,255.875 58.979,255.753 58.545,255.603 C 58.159,255.468 57.893,255.326 57.732,255.172 C 57.486,254.931 57.363,254.586 57.363,254.147 C 57.363,253.159 58.029,252.658 59.341,252.658 C 59.732,252.658 60.159,252.716 60.603,252.815 C 60.883,252.248 61.028,251.617 61.028,250.939 C 61.028,250.266 60.794,249.675 60.336,249.189 C 59.9,248.723 59.328,248.427 58.64,248.312 C 58.535,248.296 58.422,248.288 58.304,248.288 C 57.536,248.288 57.161,248.638 57.161,249.358 C 57.161,249.632 57.244,249.858 57.41,250.046 C 57.575,250.237 57.78,250.327 58.047,250.327 C 58.236,250.327 58.401,250.267 58.55,250.141 C 58.695,250.022 58.763,249.878 58.763,249.701 C 58.763,249.564 58.681,249.451 58.509,249.359 C 58.181,249.181 58.105,249.128 58.076,249.097 L 57.976,249 L 58.097,248.935 C 58.274,248.841 58.464,248.821 58.661,248.868 C 58.84,248.911 59,249.01 59.135,249.162 C 59.273,249.317 59.342,249.487 59.342,249.665 C 59.342,250.049 59.225,250.329 58.993,250.498 C 58.801,250.64 58.517,250.71 58.128,250.71 C 57.688,250.71 57.321,250.573 57.034,250.297 C 56.744,250.022 56.599,249.658 56.599,249.22 C 56.599,248.884 56.784,248.546 57.15,248.217 C 57.513,247.889 57.864,247.722 58.195,247.722 C 58.713,247.722 59.323,247.918 60.016,248.303 C 60.789,248.731 61.259,249.207 61.415,249.714 C 61.611,250.358 61.708,250.823 61.708,251.132 C 61.708,251.609 61.635,252.189 61.49,252.859 L 61.108,254.545 C 61.064,254.747 60.945,255.006 60.752,255.329 C 60.576,255.62 60.462,255.842 60.409,255.999 C 60.483,256.073 60.883,256.479 60.883,256.479 L 60.51,256.685 L 60.471,256.677 Z" fill="#999999" fill-rule="nonzero" marker-start="none" marker-end="none"/>
   <path d="M 63.532,253.341 L 63.532,253.341 C 63.222,253.531 63.07,253.795 63.07,254.147 C 63.07,254.459 63.217,254.729 63.514,254.977 C 63.816,255.222 64.132,255.349 64.449,255.349 C 64.808,255.349 65.126,255.236 65.4,255.012 C 65.689,254.78 65.831,254.497 65.831,254.147 C 65.831,253.826 65.699,253.57 65.427,253.375 C 65.177,253.189 64.875,253.098 64.529,253.098 C 64.133,253.098 63.797,253.179 63.532,253.341 Z M 65.731,256.677 C 65.533,256.636 65.33,256.531 65.126,256.363 L 64.644,255.97 C 64.521,255.875 64.24,255.753 63.806,255.603 C 63.417,255.468 63.154,255.326 62.991,255.172 C 62.748,254.931 62.623,254.586 62.623,254.147 C 62.623,253.159 63.289,252.658 64.601,252.658 C 64.995,252.658 65.42,252.716 65.863,252.815 C 66.141,252.248 66.29,251.617 66.29,250.939 C 66.29,250.266 66.057,249.675 65.598,249.189 C 65.161,248.723 64.588,248.427 63.901,248.312 C 63.794,248.296 63.682,248.288 63.566,248.288 C 62.796,248.288 62.421,248.638 62.421,249.358 C 62.421,249.632 62.502,249.858 62.67,250.046 C 62.834,250.237 63.042,250.327 63.307,250.327 C 63.495,250.327 63.659,250.267 63.809,250.141 C 63.954,250.022 64.025,249.878 64.025,249.701 C 64.025,249.564 63.941,249.451 63.769,249.359 C 63.439,249.181 63.363,249.128 63.334,249.097 L 63.237,249 L 63.359,248.935 C 63.534,248.841 63.723,248.821 63.921,248.868 C 64.099,248.911 64.258,249.01 64.393,249.162 C 64.532,249.317 64.603,249.487 64.603,249.665 C 64.603,250.049 64.485,250.329 64.252,250.498 C 64.061,250.64 63.776,250.71 63.387,250.71 C 62.948,250.71 62.58,250.573 62.294,250.297 C 62.003,250.022 61.86,249.658 61.86,249.22 C 61.86,248.884 62.044,248.546 62.41,248.217 C 62.771,247.889 63.125,247.722 63.458,247.722 C 63.971,247.722 64.582,247.918 65.276,248.303 C 66.048,248.731 66.519,249.207 66.676,249.714 C 66.873,250.358 66.968,250.823 66.968,251.132 C 66.968,251.609 66.894,252.189 66.75,252.859 L 66.369,254.545 C 66.322,254.747 66.205,255.006 66.013,255.329 C 65.837,255.62 65.723,255.842 65.669,255.999 C 65.741,256.073 66.142,256.479 66.142,256.479 L 65.77,256.685 L 65.731,256.677 Z" fill="#999999" fill-rule="nonzero" marker-start="none" marker-end="none"/>
   <path d="M 67.265,255.365 C 67.265,255.483 67.369,255.603 67.574,255.721 C 67.775,255.844 67.952,255.904 68.098,255.904 C 68.163,255.904 68.26,255.886 68.331,255.738 C 68.383,255.636 68.406,255.517 68.406,255.378 C 68.349,255.374 68.144,255.367 68.144,255.367 C 68.132,255.367 67.286,255.273 67.286,255.273 C 67.287,255.273 67.29,255.273 67.29,255.273 C 67.29,255.273 67.275,255.275 67.265,255.277 L 67.265,255.365 Z M 66.992,255.767 C 66.779,255.46 66.672,255.159 66.672,254.876 C 66.672,254.255 66.992,253.704 67.621,253.24 C 68.192,252.815 68.683,252.601 69.317,252.601 C 69.904,252.601 69.933,252.661 70.355,252.776 C 71.056,252.971 71.414,253.318 71.414,253.804 C 71.414,254.016 71.353,254.209 71.227,254.374 L 71.198,254.416 L 70.781,254.416 L 70.924,254.248 C 71.014,254.142 71.061,254.043 71.061,253.954 C 71.061,253.537 70.776,253.271 70.191,253.148 C 69.951,253.098 69.94,253.072 69.212,253.072 C 68.749,253.072 68.385,253.25 67.894,253.604 C 67.369,253.978 67.102,254.383 67.102,254.813 C 67.102,254.813 67.129,254.852 67.272,254.92 C 67.421,254.989 67.504,255.003 67.548,255.003 L 67.804,255.003 C 67.804,255.003 68.23,254.989 68.23,254.989 C 68.529,254.989 68.87,255.019 68.87,255.25 C 68.87,255.618 68.78,255.889 68.6,256.053 C 68.422,256.212 68.145,256.294 67.775,256.294 C 67.493,256.294 67.228,256.118 66.992,255.767 L 66.992,255.767 Z" fill="#999999" fill-rule="nonzero" marker-start="none" marker-end="none"/>
   <path d="M 72.794,252.045 L 71.648,252.468 L 71.983,256.665 L 71.631,257.743 L 72.156,258.256 L 73.701,254.697 L 75.205,258.503 L 76.283,252.01 L 75.007,251.94 L 74.802,255.264 L 73.753,252.685 L 72.59,255.211 L 72.794,252.045 Z" fill="#f7941d" fill-rule="nonzero" marker-start="none" marker-end="none"/>
   <path d="M 80.59,259.907 C 80.59,259.708 80.5,259.555 80.315,259.447 C 80.134,259.344 79.93,259.277 79.707,259.254 C 79.565,259.261 79.441,259.297 79.341,259.364 C 79.238,259.427 79.189,259.514 79.189,259.625 C 79.189,259.816 79.279,259.969 79.461,260.077 C 79.643,260.189 79.84,260.245 80.052,260.245 C 80.216,260.245 80.346,260.214 80.444,260.156 C 80.539,260.095 80.59,260.012 80.59,259.907 Z M 78.432,259.945 C 78.414,259.744 78.318,259.595 78.138,259.49 C 77.96,259.389 77.761,259.326 77.539,259.305 C 77.198,259.326 77.026,259.445 77.026,259.659 C 77.026,259.865 77.121,260.021 77.311,260.127 C 77.501,260.229 77.709,260.281 77.934,260.281 C 78.266,260.281 78.432,260.17 78.432,259.945 Z M 77.348,258.103 L 78.328,257.973 L 77.862,254.68 C 77.836,254.504 77.818,254.369 77.809,254.277 C 77.818,254.023 77.887,253.783 78.01,253.561 C 78.132,253.338 78.31,253.21 78.534,253.179 C 78.725,253.186 78.914,253.301 79.098,253.532 C 79.281,253.763 79.432,254.043 79.548,254.375 C 79.665,254.707 79.724,255.006 79.724,255.271 L 79.594,258.39 L 80.639,258.934 L 80.639,252.512 L 79.915,252.512 L 79.847,253.058 C 79.693,252.837 79.496,252.655 79.259,252.52 C 79.019,252.384 78.773,252.318 78.517,252.318 C 78.335,252.318 78.143,252.367 77.938,252.46 C 77.705,252.576 77.52,252.725 77.383,252.912 C 77.243,253.1 77.148,253.311 77.089,253.549 C 77.032,253.783 76.998,254.043 76.99,254.331 C 76.996,254.4 77.005,254.493 77.009,254.62 C 77.015,254.746 77.02,254.84 77.026,254.903 L 77.348,258.103 Z" fill="#f7941d" fill-rule="nonzero" marker-start="none" marker-end="none"/>
   <path d="M 85.475,259.907 C 85.475,259.708 85.385,259.555 85.202,259.447 C 85.02,259.344 84.818,259.277 84.594,259.254 C 84.45,259.261 84.326,259.297 84.226,259.364 C 84.125,259.427 84.074,259.514 84.074,259.625 C 84.074,259.816 84.167,259.969 84.347,260.077 C 84.53,260.189 84.728,260.245 84.941,260.245 C 85.102,260.245 85.232,260.214 85.33,260.156 C 85.429,260.095 85.475,260.012 85.475,259.907 Z M 83.317,259.945 C 83.301,259.744 83.205,259.595 83.026,259.49 C 82.848,259.389 82.647,259.326 82.427,259.305 C 82.084,259.326 81.914,259.445 81.914,259.659 C 81.914,259.865 82.007,260.021 82.198,260.127 C 82.39,260.229 82.597,260.281 82.822,260.281 C 83.153,260.281 83.317,260.17 83.317,259.945 Z M 82.234,258.103 L 83.214,257.973 L 82.75,254.68 C 82.723,254.504 82.706,254.369 82.695,254.277 C 82.706,254.023 82.77,253.783 82.896,253.561 C 83.019,253.338 83.196,253.21 83.421,253.179 C 83.613,253.186 83.8,253.301 83.983,253.532 C 84.167,253.763 84.318,254.043 84.434,254.375 C 84.55,254.707 84.611,255.006 84.611,255.271 L 84.483,258.39 L 85.528,258.934 L 85.528,252.512 L 84.8,252.512 L 84.734,253.058 C 84.58,252.837 84.383,252.655 84.143,252.52 C 83.905,252.384 83.658,252.318 83.403,252.318 C 83.222,252.318 83.028,252.367 82.824,252.46 C 82.593,252.576 82.408,252.725 82.268,252.912 C 82.132,253.1 82.032,253.311 81.976,253.549 C 81.92,253.783 81.886,254.043 81.877,254.331 C 81.884,254.4 81.888,254.493 81.896,254.62 C 81.903,254.746 81.907,254.84 81.914,254.903 L 82.234,258.103 Z" fill="#f7941d" fill-rule="nonzero" marker-start="none" marker-end="none"/>
   <path d="M 89.591,257.047 L 88.939,256.372 C 88.898,256.509 88.792,256.625 88.622,256.722 C 88.453,256.819 88.277,256.867 88.095,256.867 C 87.881,256.867 87.736,256.791 87.66,256.641 C 87.584,256.488 87.532,256.282 87.51,256.02 C 87.53,255.648 87.66,255.46 87.9,255.46 L 89.027,255.649 C 89.354,255.649 89.607,255.546 89.786,255.342 C 89.966,255.139 90.055,254.867 90.055,254.52 C 90.055,254.207 89.975,253.881 89.812,253.542 C 89.652,253.207 89.408,252.895 89.08,252.612 C 88.919,252.482 88.727,252.416 88.501,252.416 C 88.272,252.416 88.035,252.489 87.792,252.635 C 87.55,252.781 87.344,252.971 87.174,253.207 C 87.008,253.441 86.911,253.677 86.887,253.916 L 87.917,254.252 C 87.917,254.211 87.904,254.135 87.88,254.027 C 87.89,253.836 87.942,253.669 88.035,253.521 C 88.128,253.372 88.259,253.263 88.43,253.189 C 88.491,253.169 88.532,253.157 88.562,253.157 C 88.698,253.157 88.835,253.24 88.972,253.404 C 89.113,253.573 89.224,253.772 89.314,254.009 C 89.402,254.244 89.449,254.455 89.449,254.64 C 89.449,254.898 89.345,255.028 89.138,255.028 L 87.741,254.769 C 87.413,254.769 87.166,254.92 86.998,255.222 C 86.831,255.525 86.742,255.88 86.733,256.289 C 86.803,256.784 86.923,257.181 87.1,257.479 C 87.276,257.781 87.575,257.931 88.001,257.931 C 88.207,257.931 88.418,257.893 88.627,257.811 C 88.837,257.729 89.027,257.624 89.197,257.487 C 89.368,257.353 89.501,257.206 89.591,257.047 L 89.591,257.047 Z" fill="#f7941d" fill-rule="nonzero" marker-start="none" marker-end="none"/>
   <path d="M 91.942,257.866 C 91.938,257.923 91.902,257.956 91.841,257.968 C 91.72,257.979 91.646,257.951 91.612,257.882 C 91.577,257.816 91.57,257.719 91.585,257.594 C 91.596,257.528 91.65,257.493 91.738,257.493 C 91.762,257.493 91.774,257.502 91.774,257.52 C 91.785,257.632 91.816,257.707 91.865,257.743 C 91.916,257.779 91.942,257.821 91.942,257.866 Z M 92.279,257.587 C 92.146,257.26 91.897,257.096 91.537,257.096 C 91.26,257.096 91.121,257.264 91.121,257.596 C 91.121,257.794 91.181,257.964 91.297,258.108 C 91.412,258.252 91.566,258.327 91.764,258.327 C 92.025,258.327 92.194,258.225 92.279,258.028 C 92.341,257.888 92.341,257.74 92.279,257.587 Z M 91.603,256.286 C 91.507,256.094 91.451,255.685 91.433,255.062 C 91.413,254.192 91.39,253.677 91.372,253.514 C 91.315,252.979 91.159,252.655 90.911,252.543 C 90.815,252.688 90.767,252.927 90.767,253.262 C 90.767,253.593 90.828,254.108 90.946,254.807 C 91.09,255.669 91.177,256.215 91.197,256.438 C 91.368,256.438 91.501,256.387 91.603,256.286 L 91.603,256.286 Z" fill="#999999" fill-rule="nonzero" marker-start="none" marker-end="none"/>
   <g id="Group_1" fill-rule="nonzero" fill="#999999">
    <path d="M 96.022,251.421 C 96.354,251.662 96.515,251.972 96.515,252.367 C 96.515,252.794 96.343,253.136 95.988,253.42 C 95.656,253.694 95.267,253.83 94.831,253.83 C 94.442,253.83 94.057,253.68 93.689,253.377 C 93.324,253.079 93.147,252.747 93.147,252.367 C 93.147,252.15 93.192,251.964 93.286,251.799 C 93.38,251.634 93.518,251.499 93.708,251.383 C 94.032,251.185 94.443,251.085 94.927,251.085 C 95.349,251.085 95.719,251.199 96.022,251.421 Z M 97.24,251.778 L 99.692,252.844 L 99.756,252.695 L 97.276,251.617 L 97.309,251.48 L 99.876,252.079 L 99.914,251.92 L 97.345,251.319 L 97.358,251.263 L 99.952,251.428 L 99.962,251.266 L 97.393,251.101 L 97.437,250.913 C 97.6,250.153 97.686,249.492 97.686,248.955 C 97.686,248.603 97.576,248.076 97.351,247.348 C 97.175,246.77 96.642,246.233 95.767,245.746 C 94.979,245.31 94.287,245.089 93.705,245.089 C 93.328,245.089 92.927,245.277 92.518,245.65 C 92.102,246.022 91.891,246.404 91.891,246.785 C 91.891,247.284 92.058,247.696 92.385,248.008 C 92.709,248.321 93.128,248.476 93.623,248.476 C 94.066,248.476 94.388,248.396 94.604,248.234 C 94.869,248.042 95.003,247.725 95.003,247.292 C 95.003,247.088 94.923,246.895 94.766,246.722 C 94.612,246.549 94.432,246.437 94.23,246.388 C 94.006,246.332 93.792,246.356 93.592,246.463 L 93.454,246.535 L 93.564,246.648 C 93.599,246.681 93.689,246.664 94.062,246.866 C 94.257,246.969 94.414,247.168 94.414,247.323 C 94.414,247.524 94.337,247.75 94.174,247.887 C 94.003,248.029 93.787,248.112 93.573,248.112 C 93.272,248.112 92.946,247.968 92.761,247.757 C 92.571,247.541 92.454,247.258 92.454,246.945 C 92.454,246.131 92.956,245.728 93.826,245.728 C 93.958,245.728 94.086,245.737 94.207,245.759 C 94.984,245.888 95.633,246.223 96.13,246.751 C 96.649,247.303 96.914,247.968 96.914,248.735 C 96.914,249.505 96.746,250.218 96.431,250.864 C 96.071,250.78 95.726,250.726 95.394,250.7 L 95.354,249.609 L 94.766,249.629 L 94.795,250.5 L 94.581,249.737 L 94.014,249.894 L 94.251,250.743 C 94.227,250.746 94.207,250.75 94.184,250.755 L 91.152,249.952 L 91.116,250.087 L 93.905,250.825 C 93.867,250.838 93.828,250.849 93.79,250.862 L 91.074,250.769 L 91.069,250.908 L 93.507,250.993 C 93.438,251.029 93.373,251.067 93.317,251.112 L 91.081,251.489 L 91.104,251.624 L 93.133,251.284 C 92.886,251.554 92.76,251.918 92.76,252.373 C 92.76,252.868 92.898,253.262 93.177,253.532 C 93.358,253.709 93.66,253.869 94.1,254.024 C 94.591,254.192 94.909,254.331 95.048,254.439 L 95.597,254.885 C 95.827,255.075 95.947,255.143 96.172,255.191 L 96.571,255.064 C 96.571,255.064 96.291,254.553 96.21,254.472 C 96.274,254.293 96.401,254.039 96.601,253.711 C 96.82,253.344 96.954,253.054 97.004,252.823 L 97.24,251.778 Z M 95.222,249.752 C 95.226,249.865 95.246,250.542 95.252,250.654 C 95.172,250.656 95.021,250.661 94.94,250.664 C 94.936,250.55 94.913,249.875 94.909,249.762 C 94.99,249.761 95.141,249.754 95.222,249.752 Z M 94.486,249.907 C 94.513,249.998 94.648,250.483 94.707,250.694 C 94.596,250.697 94.49,250.707 94.391,250.721 C 94.326,250.494 94.208,250.074 94.185,249.988 C 94.263,249.97 94.409,249.927 94.486,249.907 L 94.486,249.907 Z" marker-start="none" marker-end="none"/>
   </g>
   <path d="M 98.088,256.361 C 97.959,255.71 97.518,255.25 97.1,255.331 C 96.682,255.413 96.448,256.008 96.574,256.658 C 96.706,257.309 97.148,257.771 97.563,257.689 C 97.981,257.606 98.216,257.011 98.088,256.361 Z M 97.599,257.863 C 97.091,257.964 96.556,257.417 96.403,256.636 C 96.25,255.857 96.536,255.147 97.043,255.047 C 97.552,254.945 98.088,255.497 98.239,256.275 C 98.393,257.053 98.105,257.765 97.599,257.863 L 97.599,257.863 Z" fill="#999999" fill-rule="nonzero" marker-start="none" marker-end="none"/>
   <path d="M 97.303,257.212 C 97.285,257.119 97.195,257.057 97.103,257.077 C 97.01,257.096 96.95,257.186 96.968,257.278 C 96.987,257.37 97.076,257.43 97.167,257.413 C 97.264,257.394 97.325,257.304 97.303,257.212 Z M 97.309,257.587 C 97.049,257.639 96.778,257.367 96.701,256.98 C 96.626,256.595 96.774,256.242 97.037,256.192 C 97.298,256.137 97.571,256.41 97.648,256.796 C 97.723,257.181 97.572,257.536 97.309,257.587 L 97.309,257.587 Z" fill="#999999" fill-rule="nonzero" marker-start="none" marker-end="none"/>
   <path d="M 97.058,258.57 C 97.058,258.57 97.731,259.292 98.355,258.693 C 98.355,258.693 98.759,258.357 98.567,257.601 C 98.567,257.601 98.461,258.725 97.685,258.585 C 97.685,258.585 97.386,258.517 97.217,258.319 L 97.058,258.57 Z" fill="#999999" fill-rule="nonzero" marker-start="none" marker-end="none"/>
   <path d="M 96.256,256.722 C 96.126,256.072 95.686,255.609 95.268,255.692 C 94.849,255.775 94.616,256.368 94.742,257.02 C 94.873,257.669 95.313,258.131 95.732,258.048 C 96.149,257.968 96.384,257.372 96.256,256.722 Z M 95.765,258.225 C 95.257,258.327 94.722,257.774 94.568,256.998 C 94.416,256.217 94.704,255.506 95.21,255.406 C 95.719,255.304 96.253,255.857 96.408,256.636 C 96.562,257.414 96.274,258.126 95.765,258.225 L 95.765,258.225 Z" fill="#999999" fill-rule="nonzero" marker-start="none" marker-end="none"/>
   <path d="M 96.034,257.462 C 96.015,257.369 95.928,257.308 95.832,257.327 C 95.739,257.345 95.681,257.435 95.699,257.529 C 95.716,257.621 95.806,257.682 95.899,257.663 C 95.991,257.644 96.051,257.554 96.034,257.462 Z M 95.928,257.857 C 95.666,257.911 95.39,257.639 95.315,257.255 C 95.239,256.871 95.39,256.516 95.653,256.465 C 95.916,256.412 96.186,256.685 96.264,257.069 C 96.338,257.453 96.186,257.808 95.928,257.857 L 95.928,257.857 Z" fill="#999999" fill-rule="nonzero" marker-start="none" marker-end="none"/>
   <path d="M 96.536,258.673 C 96.536,258.673 96.184,259.597 95.379,259.281 C 95.379,259.281 94.876,259.121 94.77,258.348 C 94.77,258.348 95.293,259.347 95.961,258.924 C 95.961,258.924 96.21,258.749 96.291,258.503 L 96.536,258.673 Z" fill="#999999" fill-rule="nonzero" marker-start="none" marker-end="none"/>
   <g id="Group_2" fill-rule="nonzero" fill="#999999">
    <path d="M 94.518,252.889 C 94.865,252.889 95.151,252.606 95.151,252.26 C 95.151,251.911 94.865,251.631 94.518,251.631 C 94.171,251.631 93.89,251.911 93.89,252.26 C 93.89,252.606 94.171,252.889 94.518,252.889 Z M 94.64,252.47 C 94.64,252.603 94.533,252.71 94.398,252.71 C 94.268,252.71 94.159,252.603 94.159,252.47 C 94.159,252.336 94.268,252.229 94.398,252.229 C 94.533,252.229 94.64,252.336 94.64,252.47 L 94.64,252.47 Z" marker-start="none" marker-end="none"/>
   </g>
   <path d="M 100.07,257.282 L 99.71,257.282 C 99.431,257.363 98.947,257.296 98.937,257.605 C 98.929,257.973 99.38,257.774 99.619,257.748 C 100.201,257.684 100.646,257.875 100.859,258.016 C 101.739,258.603 102.081,260.745 101.022,261.394 C 100.021,262.007 98.202,261.547 97.913,260.712 C 97.861,260.561 97.85,260.315 97.913,260.1 C 97.964,259.927 98.301,259.413 97.861,259.419 C 97.552,259.424 97.496,259.996 97.41,260.262 L 97.41,260.531 C 97.562,261.536 98.674,262.084 99.657,262.149 C 100.477,262.203 101.145,261.971 101.525,261.592 C 102.52,260.596 102.238,258.664 101.363,257.838 C 101.031,257.528 100.709,257.389 100.07,257.282 L 100.07,257.282 Z" fill="#999999" marker-start="none" marker-end="none"/>
   <path d="M 92.832,258.752 C 92.942,258.701 93.05,258.655 93.16,258.607 C 93.449,258.567 93.866,258.31 93.996,258.589 C 94.156,258.924 93.66,258.924 93.429,258.998 C 92.872,259.174 92.544,259.529 92.408,259.744 C 91.839,260.637 92.391,262.733 93.625,262.896 C 94.787,263.056 96.264,261.898 96.189,261.018 C 96.177,260.858 96.087,260.629 95.943,260.46 C 95.827,260.322 95.312,259.985 95.716,259.813 C 96.002,259.694 96.282,260.193 96.469,260.405 C 96.507,260.487 96.54,260.567 96.576,260.651 C 96.845,261.629 96.05,262.58 95.178,263.037 C 94.449,263.419 93.745,263.478 93.245,263.283 C 91.931,262.776 91.406,260.894 91.872,259.785 C 92.05,259.364 92.292,259.109 92.832,258.752 L 92.832,258.752 Z" fill="#999999" marker-start="none" marker-end="none"/>
  </g>
 </g>
 <g id="Content" transform="scale(1 -1)"/>
 <g id="Logo Vektor" transform="scale(1 -1)"/>
</svg>
