<?xml version="1.0" standalone="no"?>
<!DOCTYPE svg PUBLIC "-//W3C//DTD SVG 1.1//EN" "http://www.w3.org/Graphics/SVG/1.1/DTD/svg11.dtd">
<!--Generator: Xara Designer (www.xara.com), SVG filter version: 6.6.0.0-->
<svg fill="none" fill-rule="evenodd" stroke="black" stroke-width="0.501" stroke-linejoin="bevel" stroke-miterlimit="10" font-family="Times New Roman" font-size="16" style="font-variant-ligatures:none" xmlns:xlink="http://www.w3.org/1999/xlink" xmlns="http://www.w3.org/2000/svg" version="1.1" overflow="visible" width="58.849pt" height="9.513pt" viewBox="318.002 -460.491 58.849 9.513">
 <defs>
	</defs>
 <g id="Layer 1" transform="scale(1 -1)">
  <g id="Group" fill-rule="nonzero" stroke-linejoin="miter" stroke="none" stroke-width="0.25">
   <path d="M 318.002,460.491 L 376.851,460.491 L 376.851,450.978 L 318.002,450.978 L 318.002,460.491 Z" fill="#005aa5" marker-start="none" marker-end="none"/>
   <path d="M 375.291,455.138 L 319.645,455.138 L 319.645,454.808 L 375.291,454.808 L 375.291,455.138 Z" fill="#ffffff" marker-start="none" marker-end="none"/>
   <path d="M 323.885,451.745 L 323.683,451.745 L 323.608,452.162 L 323.177,452.162 L 323.105,451.745 L 322.903,451.745 L 323.301,453.774 L 323.479,453.774 L 323.885,451.745 Z M 323.577,452.327 L 323.443,453.104 C 323.42,453.242 323.409,453.381 323.393,453.518 L 323.382,453.518 C 323.363,453.381 323.348,453.242 323.327,453.104 L 323.21,452.327 L 323.577,452.327 Z" fill="#ffffff" marker-start="none" marker-end="none"/>
   <path d="M 325.483,451.745 L 325.297,451.745 L 325.154,453.242 C 325.148,453.305 325.146,453.368 325.143,453.432 L 325.133,453.432 C 325.116,453.298 325.112,453.165 325.087,453.031 L 324.867,451.745 L 324.713,451.745 L 324.49,453.242 C 324.48,453.305 324.474,453.368 324.466,453.432 L 324.458,453.432 C 324.452,453.3 324.456,453.163 324.44,453.033 L 324.277,451.745 L 324.094,451.745 L 324.379,453.774 L 324.541,453.774 L 324.771,452.262 C 324.781,452.194 324.787,452.127 324.793,452.06 L 324.801,452.06 C 324.814,452.175 324.823,452.294 324.842,452.409 L 325.072,453.774 L 325.234,453.774 L 325.483,451.745 Z" fill="#ffffff" marker-start="none" marker-end="none"/>
   <path d="M 326.51,453.601 L 326.205,453.601 L 326.205,451.745 L 326.017,451.745 L 326.017,453.601 L 325.713,453.601 L 325.713,453.774 L 326.51,453.774 L 326.51,453.601 Z" fill="#ffffff" marker-start="none" marker-end="none"/>
   <path d="M 327.026,451.917 L 327.468,451.917 L 327.468,451.745 L 326.837,451.745 L 326.837,453.774 L 327.026,453.774 L 327.026,451.917 Z" fill="#ffffff" marker-start="none" marker-end="none"/>
   <path d="M 327.776,451.745 L 327.965,451.745 L 327.965,453.774 L 327.776,453.774 L 327.776,451.745 Z" fill="#ffffff" marker-start="none" marker-end="none"/>
   <path d="M 329.179,451.802 C 329.11,451.753 329.011,451.719 328.923,451.719 C 328.446,451.719 328.375,452.34 328.375,452.685 C 328.375,453.015 328.387,453.801 328.942,453.801 C 329.016,453.801 329.118,453.782 329.179,453.736 L 329.179,453.528 C 329.105,453.579 329.037,453.617 328.944,453.617 C 328.615,453.617 328.569,453.141 328.569,452.765 C 328.569,452.529 328.569,451.901 328.93,451.901 C 329.022,451.901 329.108,451.941 329.179,451.992 L 329.179,451.802 Z" fill="#ffffff" marker-start="none" marker-end="none"/>
   <path d="M 330.412,451.745 L 330.223,451.745 L 330.223,452.791 L 329.757,452.791 L 329.757,451.745 L 329.569,451.745 L 329.569,453.774 L 329.757,453.774 L 329.757,452.964 L 330.223,452.964 L 330.223,453.774 L 330.412,453.774 L 330.412,451.745 Z" fill="#ffffff" marker-start="none" marker-end="none"/>
   <path d="M 331.519,453.601 L 331.071,453.601 L 331.071,452.885 L 331.506,452.885 L 331.506,452.713 L 331.071,452.713 L 331.071,451.917 L 331.519,451.917 L 331.519,451.745 L 330.882,451.745 L 330.882,453.774 L 331.519,453.774 L 331.519,453.601 Z" fill="#ffffff" marker-start="none" marker-end="none"/>
   <path d="M 332.644,453.453 C 332.564,453.545 332.474,453.617 332.344,453.617 C 332.157,453.617 332.052,453.462 332.052,453.289 C 332.052,453.052 332.224,452.942 332.398,452.824 C 332.572,452.702 332.744,452.574 332.744,452.294 C 332.744,451.998 332.553,451.719 332.235,451.719 C 332.122,451.719 332.006,451.751 331.915,451.82 L 331.915,452.066 C 332,451.975 332.113,451.901 332.244,451.901 C 332.442,451.901 332.553,452.076 332.549,452.259 C 332.553,452.496 332.377,452.6 332.205,452.721 C 332.033,452.841 331.859,452.972 331.859,453.263 C 331.859,453.534 332.025,453.801 332.324,453.801 C 332.445,453.801 332.547,453.76 332.644,453.693 L 332.644,453.453 Z" fill="#ffffff" marker-start="none" marker-end="none"/>
   <path d="M 333.84,451.745 L 333.84,453.774 L 334.05,453.774 C 334.34,453.774 334.599,453.746 334.599,453.246 C 334.599,452.854 334.461,452.716 334.076,452.716 L 334.029,452.716 L 334.029,451.745 L 333.84,451.745 Z M 334.029,452.888 L 334.1,452.888 C 334.364,452.888 334.396,452.986 334.405,453.246 C 334.405,453.526 334.329,453.601 334.066,453.601 L 334.029,453.601 L 334.029,452.888 Z" fill="#ffffff" marker-start="none" marker-end="none"/>
   <path d="M 335.793,452.388 C 335.793,452.014 335.762,451.719 335.368,451.719 C 334.962,451.719 334.944,452.024 334.944,452.388 L 334.944,453.774 L 335.131,453.774 L 335.131,452.399 C 335.131,452.063 335.15,451.901 335.368,451.901 C 335.583,451.901 335.605,452.063 335.605,452.399 L 335.605,453.774 L 335.793,453.774 L 335.793,452.388 Z" fill="#ffffff" marker-start="none" marker-end="none"/>
   <path d="M 336.519,453.774 C 336.784,453.774 337.007,453.741 337.007,453.271 C 337.007,453.071 336.971,452.902 336.77,452.793 C 337.011,452.716 337.054,452.528 337.054,452.303 C 337.054,451.88 336.91,451.745 336.5,451.745 L 336.255,451.745 L 336.255,453.774 L 336.519,453.774 Z M 336.444,453.613 L 336.444,452.878 L 336.494,452.878 C 336.648,452.878 336.812,452.85 336.812,453.258 C 336.812,453.577 336.737,453.613 336.494,453.613 L 336.444,453.613 Z M 336.444,452.716 L 336.444,451.907 L 336.494,451.907 C 336.776,451.907 336.86,451.998 336.86,452.289 C 336.86,452.63 336.739,452.716 336.5,452.716 L 336.444,452.716 Z" fill="#ffffff" marker-start="none" marker-end="none"/>
   <path d="M 337.662,451.917 L 338.103,451.917 L 338.103,451.745 L 337.472,451.745 L 337.472,453.774 L 337.662,453.774 L 337.662,451.917 Z" fill="#ffffff" marker-start="none" marker-end="none"/>
   <path d="M 338.413,451.745 L 338.6,451.745 L 338.6,453.774 L 338.413,453.774 L 338.413,451.745 Z" fill="#ffffff" marker-start="none" marker-end="none"/>
   <path d="M 339.425,452.807 L 339.882,451.745 L 339.668,451.745 L 339.265,452.767 L 339.259,452.767 L 339.259,451.745 L 339.071,451.745 L 339.071,453.774 L 339.259,453.774 L 339.259,452.853 L 339.265,452.853 L 339.668,453.774 L 339.878,453.774 L 339.425,452.807 Z" fill="#ffffff" marker-start="none" marker-end="none"/>
   <path d="M 341.032,451.745 L 340.83,451.745 L 340.755,452.162 L 340.325,452.162 L 340.251,451.745 L 340.051,451.745 L 340.448,453.774 L 340.626,453.774 L 341.032,451.745 Z M 340.725,452.327 L 340.591,453.104 C 340.567,453.242 340.555,453.381 340.539,453.518 L 340.529,453.518 C 340.51,453.381 340.497,453.242 340.475,453.104 L 340.356,452.327 L 340.725,452.327 Z" fill="#ffffff" marker-start="none" marker-end="none"/>
   <path d="M 341.997,453.601 L 341.693,453.601 L 341.693,451.745 L 341.505,451.745 L 341.505,453.601 L 341.202,453.601 L 341.202,453.774 L 341.997,453.774 L 341.997,453.601 Z" fill="#ffffff" marker-start="none" marker-end="none"/>
   <path d="M 342.325,451.745 L 342.512,451.745 L 342.512,453.774 L 342.325,453.774 L 342.325,451.745 Z" fill="#ffffff" marker-start="none" marker-end="none"/>
   <path d="M 343.921,452.76 C 343.921,452.381 343.893,451.719 343.423,451.719 C 342.978,451.719 342.925,452.286 342.925,452.76 C 342.925,453.274 342.992,453.801 343.423,453.801 C 343.88,453.801 343.921,453.205 343.921,452.76 Z M 343.118,452.76 C 343.118,452.403 343.132,451.901 343.423,451.901 C 343.713,451.901 343.726,452.403 343.726,452.76 C 343.726,453.117 343.713,453.617 343.423,453.617 C 343.132,453.631 343.118,453.117 343.118,452.76 Z" fill="#ffffff" marker-start="none" marker-end="none"/>
   <path d="M 345.177,451.745 L 345.013,451.745 L 344.555,453.11 C 344.525,453.193 344.509,453.284 344.485,453.37 L 344.475,453.37 C 344.482,453.239 344.496,453.11 344.496,452.977 L 344.496,451.745 L 344.331,451.745 L 344.331,453.774 L 344.496,453.774 L 344.961,452.364 C 344.985,452.294 345.005,452.224 345.023,452.154 L 345.03,452.154 C 345.026,452.242 345.013,452.333 345.013,452.422 L 345.013,453.774 L 345.177,453.774 L 345.177,451.745 Z" fill="#ffffff" marker-start="none" marker-end="none"/>
   <path d="M 346.353,453.453 C 346.272,453.545 346.184,453.617 346.055,453.617 C 345.867,453.617 345.762,453.462 345.762,453.289 C 345.762,453.052 345.934,452.942 346.109,452.824 C 346.282,452.702 346.454,452.574 346.454,452.294 C 346.454,451.998 346.262,451.719 345.945,451.719 C 345.831,451.719 345.715,451.751 345.625,451.82 L 345.625,452.066 C 345.711,451.975 345.823,451.901 345.953,451.901 C 346.151,451.901 346.262,452.076 346.26,452.259 C 346.262,452.496 346.087,452.6 345.915,452.721 C 345.743,452.841 345.568,452.972 345.568,453.263 C 345.568,453.534 345.733,453.801 346.034,453.801 C 346.154,453.801 346.257,453.76 346.353,453.693 L 346.353,453.453 Z" fill="#ffffff" marker-start="none" marker-end="none"/>
   <path d="M 347.78,452.76 C 347.78,452.381 347.752,451.719 347.281,451.719 C 346.838,451.719 346.784,452.286 346.784,452.76 C 346.784,453.274 346.85,453.801 347.281,453.801 C 347.738,453.801 347.78,453.205 347.78,452.76 Z M 346.978,452.76 C 346.978,452.403 346.991,451.901 347.281,451.901 C 347.572,451.901 347.586,452.403 347.586,452.76 C 347.586,453.117 347.572,453.617 347.281,453.617 C 346.991,453.631 346.978,453.117 346.978,452.76 Z" fill="#ffffff" marker-start="none" marker-end="none"/>
   <path d="M 348.19,451.745 L 348.19,453.774 L 348.392,453.774 C 348.673,453.774 348.946,453.753 348.946,453.258 C 348.946,452.999 348.89,452.747 348.565,452.735 L 349.014,451.745 L 348.814,451.745 L 348.384,452.738 L 348.379,452.738 L 348.379,451.745 L 348.19,451.745 Z M 348.379,452.892 L 348.446,452.892 C 348.709,452.892 348.753,452.983 348.753,453.249 C 348.753,453.569 348.656,453.601 348.416,453.601 L 348.379,453.601 L 348.379,452.892 Z" fill="#ffffff" marker-start="none" marker-end="none"/>
   <path d="M 349.745,452.815 L 350.207,452.815 L 350.207,452.442 C 350.207,452.122 350.191,451.719 349.772,451.719 C 349.344,451.719 349.303,452.167 349.303,452.807 C 349.303,453.286 349.361,453.801 349.791,453.801 C 350.032,453.801 350.153,453.638 350.205,453.419 L 350.019,453.346 C 349.998,453.467 349.946,453.617 349.798,453.617 C 349.52,453.615 349.498,453.182 349.498,452.824 C 349.498,452.073 349.591,451.901 349.789,451.901 C 350,451.901 350.019,452.058 350.019,452.491 L 350.019,452.643 L 349.745,452.643 L 349.745,452.815 Z" fill="#ffffff" marker-start="none" marker-end="none"/>
   <path d="M 351.44,451.745 L 351.237,451.745 L 351.162,452.162 L 350.731,452.162 L 350.66,451.745 L 350.457,451.745 L 350.855,453.774 L 351.033,453.774 L 351.44,451.745 Z M 351.132,452.327 L 350.998,453.104 C 350.974,453.242 350.962,453.381 350.946,453.518 L 350.936,453.518 C 350.917,453.381 350.904,453.242 350.882,453.104 L 350.763,452.327 L 351.132,452.327 Z" fill="#ffffff" marker-start="none" marker-end="none"/>
   <path d="M 352.593,451.745 L 352.429,451.745 L 351.972,453.11 C 351.942,453.193 351.927,453.284 351.901,453.37 L 351.89,453.37 C 351.898,453.239 351.912,453.11 351.912,452.977 L 351.912,451.745 L 351.748,451.745 L 351.748,453.774 L 351.912,453.774 L 352.378,452.364 C 352.401,452.294 352.419,452.224 352.439,452.154 L 352.448,452.154 C 352.442,452.242 352.429,452.333 352.429,452.422 L 352.429,453.774 L 352.593,453.774 L 352.593,451.745 Z" fill="#ffffff" marker-start="none" marker-end="none"/>
   <path d="M 354.42,453.601 L 353.962,453.601 L 353.962,452.885 L 354.397,452.885 L 354.397,452.713 L 353.962,452.713 L 353.962,451.745 L 353.773,451.745 L 353.773,453.774 L 354.42,453.774 L 354.42,453.601 Z" fill="#ffffff" marker-start="none" marker-end="none"/>
   <path d="M 355.685,452.388 C 355.685,452.014 355.655,451.719 355.259,451.719 C 354.854,451.719 354.834,452.024 354.834,452.388 L 354.834,453.774 L 355.023,453.774 L 355.023,452.399 C 355.023,452.063 355.042,451.901 355.259,451.901 C 355.475,451.901 355.497,452.063 355.497,452.399 L 355.497,453.774 L 355.685,453.774 L 355.685,452.388 Z M 355.071,454.22 C 355.138,454.22 355.195,454.163 355.195,454.096 C 355.195,454.029 355.138,453.972 355.071,453.972 C 355.005,453.972 354.948,454.029 354.948,454.096 C 354.948,454.163 355.005,454.22 355.071,454.22 Z M 355.447,454.22 C 355.515,454.22 355.571,454.163 355.571,454.096 C 355.571,454.029 355.515,453.972 355.447,453.972 C 355.381,453.972 355.324,454.029 355.324,454.096 C 355.324,454.163 355.381,454.22 355.447,454.22 Z" fill="#ffffff" marker-start="none" marker-end="none"/>
   <path d="M 356.147,451.745 L 356.147,453.774 L 356.349,453.774 C 356.632,453.774 356.903,453.753 356.903,453.258 C 356.903,452.999 356.847,452.747 356.521,452.735 L 356.971,451.745 L 356.771,451.745 L 356.341,452.738 L 356.336,452.738 L 356.336,451.745 L 356.147,451.745 Z M 356.336,452.892 L 356.402,452.892 C 356.667,452.892 356.709,452.983 356.709,453.249 C 356.709,453.569 356.612,453.601 356.374,453.601 L 356.336,453.601 L 356.336,452.892 Z" fill="#ffffff" marker-start="none" marker-end="none"/>
   <path d="M 358.027,453.774 L 358.23,453.774 C 358.618,453.774 358.871,453.724 358.871,452.76 C 358.871,451.966 358.741,451.745 358.244,451.745 L 358.027,451.745 L 358.027,453.774 Z M 358.215,451.917 L 358.269,451.917 C 358.632,451.917 358.677,452.173 358.677,452.76 C 358.677,453.456 358.604,453.601 358.247,453.601 L 358.215,453.601 L 358.215,451.917 Z" fill="#ffffff" marker-start="none" marker-end="none"/>
   <path d="M 359.282,451.745 L 359.471,451.745 L 359.471,453.774 L 359.282,453.774 L 359.282,451.745 Z" fill="#ffffff" marker-start="none" marker-end="none"/>
   <path d="M 360.578,453.601 L 360.13,453.601 L 360.13,452.885 L 360.565,452.885 L 360.565,452.713 L 360.13,452.713 L 360.13,451.917 L 360.578,451.917 L 360.578,451.745 L 359.943,451.745 L 359.943,453.774 L 360.578,453.774 L 360.578,453.601 Z" fill="#ffffff" marker-start="none" marker-end="none"/>
   <path d="M 362.088,452.815 L 362.55,452.815 L 362.55,452.442 C 362.55,452.122 362.533,451.719 362.114,451.719 C 361.687,451.719 361.646,452.167 361.646,452.807 C 361.646,453.286 361.702,453.801 362.133,453.801 C 362.375,453.801 362.496,453.638 362.548,453.419 L 362.361,453.346 C 362.34,453.467 362.29,453.617 362.141,453.617 C 361.862,453.615 361.84,453.182 361.84,452.824 C 361.84,452.073 361.935,451.901 362.13,451.901 C 362.343,451.901 362.361,452.058 362.361,452.491 L 362.361,452.643 L 362.088,452.643 L 362.088,452.815 Z" fill="#ffffff" marker-start="none" marker-end="none"/>
   <path d="M 363.599,453.601 L 363.149,453.601 L 363.149,452.885 L 363.586,452.885 L 363.586,452.713 L 363.149,452.713 L 363.149,451.917 L 363.599,451.917 L 363.599,451.745 L 362.96,451.745 L 362.96,453.774 L 363.599,453.774 L 363.599,453.601 Z" fill="#ffffff" marker-start="none" marker-end="none"/>
   <path d="M 365.307,451.745 L 365.121,451.745 L 364.979,453.242 C 364.974,453.305 364.971,453.368 364.969,453.432 L 364.957,453.432 C 364.94,453.298 364.935,453.165 364.91,453.031 L 364.69,451.745 L 364.537,451.745 L 364.313,453.242 C 364.303,453.305 364.297,453.368 364.291,453.432 L 364.282,453.432 C 364.276,453.3 364.279,453.163 364.263,453.033 L 364.102,451.745 L 363.919,451.745 L 364.204,453.774 L 364.366,453.774 L 364.594,452.262 C 364.604,452.194 364.61,452.127 364.618,452.06 L 364.626,452.06 C 364.64,452.175 364.647,452.294 364.665,452.409 L 364.898,453.774 L 365.06,453.774 L 365.307,451.745 Z" fill="#ffffff" marker-start="none" marker-end="none"/>
   <path d="M 366.315,453.601 L 365.865,453.601 L 365.865,452.885 L 366.301,452.885 L 366.301,452.713 L 365.865,452.713 L 365.865,451.917 L 366.315,451.917 L 366.315,451.745 L 365.678,451.745 L 365.678,453.774 L 366.315,453.774 L 366.315,453.601 Z" fill="#ffffff" marker-start="none" marker-end="none"/>
   <path d="M 366.733,451.745 L 366.921,451.745 L 366.921,453.774 L 366.733,453.774 L 366.733,451.745 Z" fill="#ffffff" marker-start="none" marker-end="none"/>
   <path d="M 368.237,451.745 L 368.073,451.745 L 367.615,453.11 C 367.586,453.193 367.57,453.284 367.546,453.37 L 367.535,453.37 C 367.544,453.239 367.557,453.11 367.557,452.977 L 367.557,451.745 L 367.393,451.745 L 367.393,453.774 L 367.557,453.774 L 368.023,452.364 C 368.045,452.294 368.065,452.224 368.083,452.154 L 368.092,452.154 C 368.087,452.242 368.073,452.333 368.073,452.422 L 368.073,453.774 L 368.237,453.774 L 368.237,451.745 Z" fill="#ffffff" marker-start="none" marker-end="none"/>
   <path d="M 368.711,453.774 L 368.915,453.774 C 369.302,453.774 369.556,453.724 369.556,452.76 C 369.556,451.966 369.425,451.745 368.927,451.745 L 368.711,451.745 L 368.711,453.774 Z M 368.899,451.917 L 368.953,451.917 C 369.316,451.917 369.361,452.173 369.361,452.76 C 369.361,453.456 369.289,453.601 368.931,453.601 L 368.899,453.601 L 368.899,451.917 Z" fill="#ffffff" marker-start="none" marker-end="none"/>
   <path d="M 370.604,453.601 L 370.155,453.601 L 370.155,452.885 L 370.59,452.885 L 370.59,452.713 L 370.155,452.713 L 370.155,451.917 L 370.604,451.917 L 370.604,451.745 L 369.967,451.745 L 369.967,453.774 L 370.604,453.774 L 370.604,453.601 Z" fill="#ffffff" marker-start="none" marker-end="none"/>
   <path d="M 371.868,451.745 L 371.704,451.745 L 371.246,453.11 C 371.217,453.193 371.2,453.284 371.176,453.37 L 371.165,453.37 C 371.173,453.239 371.187,453.11 371.187,452.977 L 371.187,451.745 L 371.023,451.745 L 371.023,453.774 L 371.187,453.774 L 371.653,452.364 C 371.677,452.294 371.696,452.224 371.714,452.154 L 371.722,452.154 C 371.717,452.242 371.704,452.333 371.704,452.422 L 371.704,453.774 L 371.868,453.774 L 371.868,451.745 Z" fill="#ffffff" marker-start="none" marker-end="none"/>
   <path d="M 319.462,456.006 L 319.462,459.561 C 319.586,459.436 320.994,458.003 321.146,457.857 L 321.146,459.493 L 321.917,459.493 L 321.917,455.939 C 321.764,456.09 320.366,457.512 320.237,457.642 L 320.237,456.006 L 319.462,456.006 Z" fill="#ffffff" marker-start="none" marker-end="none"/>
   <path d="M 322.558,459.493 L 323.358,459.493 L 323.358,456.006 L 322.558,456.006 L 322.558,459.493 Z" fill="#ffffff" marker-start="none" marker-end="none"/>
   <path d="M 323.967,456.006 L 323.967,459.493 L 326.414,459.493 L 326.414,458.631 L 324.741,458.631 L 324.741,458.176 L 326.03,458.176 L 326.03,457.319 L 324.741,457.319 L 324.741,456.869 L 326.414,456.869 L 326.414,456.006 L 323.967,456.006 Z" fill="#ffffff" marker-start="none" marker-end="none"/>
   <path d="M 326.917,456.006 L 326.917,459.493 L 328.205,459.493 C 329.115,459.493 329.779,458.72 329.779,457.747 C 329.779,456.712 329.041,456.006 328.21,456.006 L 326.917,456.006 Z M 327.697,458.641 L 327.697,456.869 L 328.201,456.869 C 328.611,456.869 328.995,457.251 328.995,457.747 C 328.995,458.271 328.644,458.641 328.186,458.641 L 327.697,458.641 Z" fill="#ffffff" marker-start="none" marker-end="none"/>
   <path d="M 330.053,456.006 L 330.053,459.493 L 332.501,459.493 L 332.501,458.631 L 330.829,458.631 L 330.829,458.176 L 332.117,458.176 L 332.117,457.319 L 330.829,457.319 L 330.829,456.869 L 332.501,456.869 L 332.501,456.006 L 330.053,456.006 Z" fill="#ffffff" marker-start="none" marker-end="none"/>
   <path d="M 333.003,456.006 L 333.003,459.493 L 334.642,459.493 C 335.201,459.493 335.677,459.028 335.677,458.317 C 335.677,457.836 335.399,457.408 335.072,457.277 C 335.145,457.136 335.672,456.122 335.736,456.006 L 334.762,456.006 C 334.706,456.111 334.254,457.021 334.185,457.157 L 333.784,457.157 L 333.784,456.006 L 333.003,456.006 Z M 333.784,458.003 L 334.568,458.003 C 334.734,458.003 334.887,458.118 334.887,458.317 C 334.887,458.526 334.744,458.635 334.568,458.635 L 333.784,458.635 L 333.784,458.003 Z" fill="#ffffff" marker-start="none" marker-end="none"/>
   <path d="M 337.025,456.006 L 336.185,456.006 C 336.209,456.08 337.275,459.425 337.293,459.493 L 338.096,459.493 C 338.114,459.436 339.227,456.09 339.255,456.006 L 338.406,456.006 C 338.382,456.08 338.235,456.535 338.217,456.592 L 337.205,456.592 C 337.193,456.545 337.04,456.054 337.025,456.006 Z M 337.695,458.197 C 337.676,458.135 337.482,457.496 337.468,457.45 L 337.936,457.45 C 337.92,457.491 337.713,458.14 337.695,458.197 Z M 336.68,459.88 C 336.873,459.88 337.021,459.712 337.021,459.493 C 337.021,459.279 336.873,459.106 336.684,459.106 C 336.491,459.106 336.338,459.274 336.338,459.493 C 336.338,459.707 336.494,459.88 336.68,459.88 Z M 338.691,459.88 C 338.886,459.88 339.043,459.712 339.043,459.493 C 339.043,459.279 338.895,459.106 338.701,459.106 C 338.511,459.106 338.359,459.279 338.359,459.493 C 338.359,459.707 338.511,459.88 338.691,459.88 Z" fill="#ffffff" marker-start="none" marker-end="none"/>
   <path d="M 339.699,456.006 L 339.699,459.55 C 339.911,459.394 341.015,458.568 341.158,458.459 C 341.305,458.574 342.464,459.425 342.626,459.55 L 342.626,456.006 L 341.855,456.006 L 341.855,457.878 C 341.739,457.79 341.25,457.445 341.158,457.381 C 341.057,457.45 340.576,457.799 340.466,457.878 L 340.466,456.006 L 339.699,456.006 Z" fill="#ffffff" marker-start="none" marker-end="none"/>
   <path d="M 343.707,456.006 L 343.707,458.631 L 342.954,458.631 L 342.954,459.493 L 345.254,459.493 L 345.254,458.631 L 344.5,458.631 L 344.5,456.006 L 343.707,456.006 Z" fill="#ffffff" marker-start="none" marker-end="none"/>
   <path d="M 345.581,456.006 L 345.581,459.493 L 348.028,459.493 L 348.028,458.631 L 346.356,458.631 L 346.356,458.176 L 347.643,458.176 L 347.643,457.319 L 346.356,457.319 L 346.356,456.869 L 348.028,456.869 L 348.028,456.006 L 345.581,456.006 Z" fill="#ffffff" marker-start="none" marker-end="none"/>
   <path d="M 348.531,456.006 L 348.531,459.493 L 350.17,459.493 C 350.728,459.493 351.204,459.028 351.204,458.317 C 351.204,457.836 350.928,457.408 350.599,457.277 C 350.672,457.136 351.2,456.122 351.265,456.006 L 350.29,456.006 C 350.234,456.111 349.783,457.021 349.713,457.157 L 349.312,457.157 L 349.312,456.006 L 348.531,456.006 Z M 349.312,458.003 L 350.096,458.003 C 350.262,458.003 350.414,458.118 350.414,458.317 C 350.414,458.526 350.271,458.635 350.096,458.635 L 349.312,458.635 L 349.312,458.003 Z" fill="#ffffff" marker-start="none" marker-end="none"/>
   <path d="M 353.431,456.006 L 352.591,456.006 C 352.614,456.08 353.68,459.425 353.699,459.493 L 354.502,459.493 C 354.52,459.436 355.633,456.09 355.661,456.006 L 354.812,456.006 C 354.787,456.08 354.64,456.535 354.621,456.592 L 353.612,456.592 C 353.598,456.545 353.444,456.054 353.431,456.006 Z M 354.1,458.197 C 354.081,458.135 353.887,457.496 353.874,457.45 L 354.34,457.45 C 354.325,457.491 354.118,458.14 354.1,458.197 Z" fill="#ffffff" marker-start="none" marker-end="none"/>
   <path d="M 356.065,456.006 L 356.065,459.561 C 356.191,459.436 357.599,458.003 357.752,457.857 L 357.752,459.493 L 358.522,459.493 L 358.522,455.939 C 358.369,456.09 356.971,457.512 356.841,457.642 L 356.841,456.006 L 356.065,456.006 Z" fill="#ffffff" marker-start="none" marker-end="none"/>
   <path d="M 358.854,456.006 C 358.966,456.184 360.466,458.641 360.466,458.641 L 358.993,458.641 L 358.993,459.493 L 361.887,459.493 C 361.777,459.315 360.277,456.859 360.277,456.859 L 361.78,456.859 L 361.78,456.006 L 358.854,456.006 Z" fill="#ffffff" marker-start="none" marker-end="none"/>
   <path d="M 362.248,456.006 L 362.248,459.493 L 364.695,459.493 L 364.695,458.631 L 363.023,458.631 L 363.023,458.176 L 364.311,458.176 L 364.311,457.319 L 363.023,457.319 L 363.023,456.869 L 364.695,456.869 L 364.695,456.006 L 362.248,456.006 Z" fill="#ffffff" marker-start="none" marker-end="none"/>
   <path d="M 365.222,459.493 L 366.021,459.493 L 366.021,456.006 L 365.222,456.006 L 365.222,459.493 Z" fill="#ffffff" marker-start="none" marker-end="none"/>
   <path d="M 369.09,458.981 C 369.016,458.891 368.614,458.431 368.54,458.344 C 368.421,458.52 368.199,458.708 367.898,458.708 C 367.409,458.708 367.068,458.265 367.068,457.747 C 367.068,457.204 367.446,456.77 367.889,456.77 C 368.157,456.77 368.405,456.9 368.54,457.141 L 367.848,457.141 L 367.848,457.935 L 369.492,457.935 C 369.496,457.898 369.496,457.825 369.496,457.79 C 369.496,456.759 368.79,455.923 367.884,455.923 C 366.989,455.923 366.283,456.749 366.283,457.747 C 366.283,458.694 366.956,459.577 367.912,459.577 C 368.421,459.577 368.831,459.295 369.09,458.981 Z" fill="#ffffff" marker-start="none" marker-end="none"/>
   <path d="M 369.922,456.006 L 369.922,459.493 L 372.368,459.493 L 372.368,458.631 L 370.698,458.631 L 370.698,458.176 L 371.986,458.176 L 371.986,457.319 L 370.698,457.319 L 370.698,456.869 L 372.368,456.869 L 372.368,456.006 L 369.922,456.006 Z" fill="#ffffff" marker-start="none" marker-end="none"/>
   <path d="M 372.78,456.006 L 372.78,459.493 L 374.418,459.493 C 374.978,459.493 375.453,459.028 375.453,458.317 C 375.453,457.836 375.175,457.408 374.848,457.277 C 374.921,457.136 375.447,456.122 375.512,456.006 L 374.54,456.006 C 374.484,456.111 374.03,457.021 373.962,457.157 L 373.561,457.157 L 373.561,456.006 L 372.78,456.006 Z M 373.561,458.003 L 374.345,458.003 C 374.51,458.003 374.664,458.118 374.664,458.317 C 374.664,458.526 374.521,458.635 374.345,458.635 L 373.561,458.635 L 373.561,458.003 Z" fill="#ffffff" marker-start="none" marker-end="none"/>
  </g>
 </g>
 <g id="Sponsoren" transform="scale(1 -1)"/>
 <g id="Content" transform="scale(1 -1)"/>
 <g id="Logo Vektor" transform="scale(1 -1)"/>
</svg>
