<?xml version="1.0" standalone="no"?>
<!DOCTYPE svg PUBLIC "-//W3C//DTD SVG 1.1//EN" "http://www.w3.org/Graphics/SVG/1.1/DTD/svg11.dtd">
<!--Generator: Xara Designer (www.xara.com), SVG filter version: 6.6.0.0-->
<svg fill="none" fill-rule="evenodd" stroke="black" stroke-width="0.501" stroke-linejoin="bevel" stroke-miterlimit="10" font-family="Times New Roman" font-size="16" style="font-variant-ligatures:none" xmlns:xlink="http://www.w3.org/1999/xlink" xmlns="http://www.w3.org/2000/svg" version="1.1" overflow="visible" width="81.099pt" height="14.371pt" viewBox="0 -329.166 81.099 14.371">
 <defs>
	</defs>
 <g id="Backdrop" transform="scale(1 -1)"/>
 <g id="Inserate" transform="scale(1 -1)">
  <g id="Group" fill-rule="nonzero" stroke-linejoin="miter" stroke="none" stroke-width="0.048">
   <g id="Group_1" fill="#ffffff">
    <path d="M 75.857,328.256 C 76.628,328.391 77.398,328.54 78.172,328.658 C 78.193,328.465 78.254,328.277 78.26,328.083 C 78.007,327.123 77.734,326.167 77.483,325.206 C 77.895,325.269 78.305,325.348 78.715,325.421 C 78.77,325.14 78.826,324.859 78.862,324.575 C 78.044,324.446 77.232,324.284 76.415,324.153 C 76.386,324.342 76.338,324.529 76.321,324.72 C 76.573,325.686 76.852,326.645 77.102,327.611 C 76.732,327.554 76.367,327.472 75.996,327.425 C 75.96,327.704 75.897,327.978 75.857,328.256 Z" marker-start="none" marker-end="none"/>
    <path d="M 74.194,328.046 C 74.498,328.102 74.829,328.07 75.094,327.9 C 75.466,327.667 75.691,327.264 75.834,326.86 C 76.021,326.315 76.107,325.733 76.063,325.158 C 76.028,324.805 75.92,324.442 75.672,324.179 C 75.371,323.855 74.891,323.734 74.464,323.815 C 74.088,323.887 73.788,324.164 73.595,324.483 C 73.342,324.904 73.217,325.387 73.147,325.869 C 73.085,326.37 73.078,326.904 73.3,327.37 C 73.464,327.725 73.809,327.982 74.194,328.046 M 74.29,327.189 C 74.109,327.099 74.111,326.863 74.116,326.69 C 74.155,326.237 74.247,325.791 74.333,325.346 C 74.388,325.125 74.425,324.877 74.592,324.708 C 74.749,324.565 75.031,324.679 75.052,324.89 C 75.11,325.301 74.99,325.709 74.931,326.113 C 74.861,326.44 74.834,326.791 74.656,327.083 C 74.584,327.213 74.42,327.243 74.29,327.189 Z" marker-start="none" marker-end="none"/>
    <path d="M 71.735,327.529 C 72.005,327.578 72.275,327.627 72.546,327.672 C 72.777,326.311 73.034,324.954 73.256,323.592 C 72.996,323.543 72.734,323.504 72.475,323.45 C 72.029,324.072 71.594,324.704 71.15,325.328 C 71.252,324.642 71.392,323.962 71.5,323.277 C 71.23,323.242 70.963,323.181 70.692,323.143 C 70.48,324.34 70.271,325.538 70.059,326.735 C 70.028,326.898 69.997,327.06 69.992,327.226 C 70.263,327.264 70.53,327.328 70.803,327.358 C 71.227,326.753 71.654,326.15 72.083,325.549 C 71.967,326.209 71.848,326.869 71.735,327.529 Z" marker-start="none" marker-end="none"/>
    <path d="M 73.058,323.09 C 73.423,323.135 73.781,323.223 74.145,323.275 C 73.653,323.147 73.363,322.698 73.061,322.327 C 73.057,322.582 73.062,322.836 73.058,323.09 Z" marker-start="none" marker-end="none"/>
   </g>
   <g id="Group_2" fill="#fe0000">
    <path d="M 69.274,327.504 C 72.421,328.05 75.565,328.612 78.711,329.166 C 79.006,327.522 79.296,325.877 79.581,324.232 C 78.336,324.017 77.093,323.793 75.848,323.576 C 75.4,323.488 74.945,323.433 74.501,323.325 C 74.403,323.318 74.302,323.329 74.21,323.293 C 74.194,323.288 74.162,323.279 74.145,323.275 C 73.781,323.223 73.423,323.135 73.058,323.09 C 73.054,323.195 73.043,323.299 73.035,323.403 C 72.961,323.391 72.884,323.38 72.832,323.324 C 72.677,323.18 72.512,323.046 72.327,322.944 C 71.725,322.861 71.13,322.735 70.529,322.639 C 70.538,322.813 70.531,322.988 70.485,323.156 C 70.331,323.165 70.177,323.169 70.023,323.171 C 69.805,324.409 69.587,325.647 69.368,326.884 C 69.334,327.091 69.285,327.295 69.274,327.504 M 75.857,328.256 C 75.897,327.978 75.96,327.704 75.996,327.425 C 76.367,327.472 76.732,327.554 77.102,327.611 C 76.852,326.645 76.573,325.686 76.321,324.72 C 76.338,324.529 76.386,324.342 76.415,324.153 C 77.232,324.284 78.044,324.446 78.862,324.575 C 78.826,324.859 78.77,325.14 78.715,325.421 C 78.305,325.348 77.895,325.269 77.483,325.206 C 77.734,326.167 78.007,327.123 78.26,328.083 C 78.254,328.277 78.193,328.465 78.172,328.658 C 77.398,328.54 76.628,328.391 75.857,328.256 M 74.194,328.046 C 73.809,327.982 73.464,327.725 73.3,327.37 C 73.078,326.904 73.085,326.37 73.147,325.869 C 73.217,325.387 73.342,324.904 73.595,324.483 C 73.788,324.164 74.088,323.887 74.464,323.815 C 74.891,323.734 75.371,323.855 75.672,324.179 C 75.92,324.442 76.028,324.805 76.063,325.158 C 76.107,325.733 76.021,326.315 75.834,326.86 C 75.691,327.264 75.466,327.667 75.094,327.9 C 74.829,328.07 74.498,328.102 74.194,328.046 M 71.735,327.529 C 71.848,326.869 71.967,326.209 72.083,325.549 C 71.654,326.15 71.227,326.753 70.803,327.358 C 70.53,327.328 70.263,327.264 69.992,327.226 C 69.997,327.06 70.028,326.898 70.059,326.735 C 70.271,325.538 70.48,324.34 70.692,323.143 C 70.963,323.181 71.23,323.242 71.5,323.277 C 71.392,323.962 71.252,324.642 71.15,325.328 C 71.594,324.704 72.029,324.072 72.475,323.45 C 72.734,323.504 72.996,323.543 73.256,323.592 C 73.034,324.954 72.777,326.311 72.546,327.672 C 72.275,327.627 72.005,327.578 71.735,327.529 Z" marker-start="none" marker-end="none"/>
    <path d="M 74.29,327.189 C 74.42,327.243 74.584,327.213 74.656,327.083 C 74.834,326.791 74.861,326.44 74.931,326.113 C 74.99,325.709 75.11,325.301 75.052,324.89 C 75.031,324.679 74.749,324.565 74.592,324.708 C 74.425,324.877 74.388,325.125 74.333,325.346 C 74.247,325.791 74.155,326.237 74.116,326.69 C 74.111,326.863 74.109,327.099 74.29,327.189 Z" marker-start="none" marker-end="none"/>
    <path d="M 0,316.345 C 0.111,316.364 0.223,316.371 0.336,316.366 C 25.745,316.367 51.154,316.365 76.563,316.367 C 76.538,315.864 76.768,315.343 77.217,315.09 C 77.521,314.927 77.88,314.788 78.228,314.856 C 78.456,314.864 78.685,314.873 78.914,314.853 C 78.535,314.825 78.156,314.795 77.776,314.797 C 64.74,314.795 51.704,314.797 38.668,314.796 C 25.779,314.799 12.889,314.79 0,314.801 L 0,316.345 Z" marker-start="none" marker-end="none"/>
   </g>
   <g id="Group_3" fill="#000000">
    <path d="M 31.106,326.28 C 31.187,326.341 31.252,326.237 31.236,326.162 C 31.239,323.584 31.236,321.005 31.237,318.427 C 31.238,318.254 31.263,318.053 31.413,317.942 C 31.593,317.816 31.817,317.789 32.022,317.726 C 32.127,317.699 32.109,317.512 31.994,317.515 C 31.481,317.494 30.969,317.568 30.456,317.539 C 30.152,317.534 29.847,317.489 29.544,317.52 C 29.429,317.527 29.409,317.688 29.51,317.733 C 29.718,317.842 29.993,317.825 30.159,318.012 C 30.289,318.185 30.264,318.417 30.276,318.622 C 30.276,320.718 30.278,322.813 30.275,324.909 C 30.286,325.106 30.18,325.323 29.974,325.368 C 29.858,325.417 29.661,325.382 29.62,325.534 C 29.603,325.677 29.773,325.698 29.87,325.74 C 30.3,325.875 30.729,326.029 31.106,326.28 Z" marker-start="none" marker-end="none"/>
    <path d="M 51.697,325.778 C 51.816,325.793 51.868,325.667 51.927,325.588 C 52.014,325.451 52.127,325.285 52.309,325.287 C 53.492,325.282 54.676,325.293 55.858,325.281 C 56.051,325.269 55.951,325.046 55.894,324.942 C 54.923,322.979 53.947,321.02 52.978,319.056 C 52.816,318.723 52.64,318.395 52.498,318.053 C 52.468,317.989 52.449,317.868 52.553,317.867 C 53.002,317.826 53.456,317.846 53.906,317.885 C 54.347,317.93 54.829,318.045 55.12,318.408 C 55.434,318.797 55.471,319.311 55.603,319.774 C 55.635,319.876 55.69,320.023 55.824,320.001 C 55.954,319.992 55.944,319.818 55.962,319.725 C 55.993,319.133 55.968,318.539 55.977,317.947 C 55.971,317.819 55.991,317.675 55.92,317.561 C 55.838,317.496 55.727,317.513 55.631,317.509 C 54.876,317.515 54.122,317.558 53.367,317.54 C 52.663,317.539 51.96,317.499 51.257,317.512 C 51.164,317.507 51.042,317.547 51.05,317.661 C 51.075,317.827 51.172,317.971 51.236,318.124 C 52.196,320.11 53.218,322.066 54.178,324.052 C 54.297,324.32 54.446,324.579 54.529,324.862 C 54.463,324.973 54.297,324.927 54.187,324.944 C 53.621,324.932 52.985,324.986 52.505,324.627 C 52.09,324.28 51.85,323.777 51.635,323.292 C 51.594,323.22 51.549,323.111 51.451,323.114 C 51.358,323.094 51.277,323.19 51.3,323.279 C 51.386,324.001 51.507,324.719 51.591,325.442 C 51.616,325.553 51.596,325.702 51.697,325.778 Z" marker-start="none" marker-end="none"/>
    <path d="M 25.824,325.454 C 26.401,325.538 27.003,325.392 27.48,325.057 C 28.093,324.63 28.512,323.973 28.771,323.282 C 29.213,322.104 29.217,320.768 28.782,319.587 C 28.514,318.859 28.07,318.164 27.409,317.737 C 26.857,317.374 26.146,317.267 25.513,317.454 C 24.875,317.635 24.355,318.1 23.994,318.643 C 22.913,320.309 22.926,322.625 24.044,324.27 C 24.459,324.868 25.087,325.357 25.824,325.454 M 25.898,325.101 C 25.476,324.968 25.207,324.577 25.021,324.198 C 24.682,323.476 24.543,322.676 24.486,321.885 C 24.431,320.932 24.542,319.963 24.849,319.057 C 25.019,318.594 25.247,318.107 25.68,317.836 C 26.015,317.623 26.474,317.677 26.767,317.939 C 27.192,318.308 27.4,318.857 27.556,319.384 C 27.909,320.664 27.92,322.035 27.592,323.322 C 27.493,323.7 27.364,324.074 27.166,324.412 C 27.028,324.647 26.851,324.868 26.614,325.009 C 26.401,325.135 26.136,325.173 25.898,325.101 Z" marker-start="none" marker-end="none"/>
    <path d="M 61.938,325.37 C 62.171,325.485 62.462,325.365 62.576,325.139 C 62.752,324.81 62.716,324.33 62.4,324.097 C 62.176,323.939 61.844,324.033 61.715,324.267 C 61.508,324.612 61.558,325.166 61.938,325.37 Z" marker-start="none" marker-end="none"/>
    <path d="M 0.24,325.084 C 0.135,325.136 0.179,325.301 0.285,325.318 C 0.396,325.345 0.51,325.324 0.622,325.316 C 0.991,325.283 1.364,325.294 1.733,325.331 C 1.889,325.342 1.947,325.167 2.013,325.058 C 2.844,323.438 3.682,321.822 4.515,320.204 C 4.59,320.066 4.65,319.915 4.764,319.802 C 4.805,319.934 4.79,320.072 4.792,320.207 C 4.791,321.505 4.793,322.803 4.791,324.101 C 4.778,324.347 4.776,324.62 4.623,324.826 C 4.481,325 4.237,324.99 4.036,325.028 C 3.912,325.042 3.908,325.233 3.998,325.293 C 4.095,325.348 4.213,325.331 4.319,325.326 C 4.72,325.292 5.125,325.283 5.526,325.325 C 5.62,325.33 5.722,325.347 5.811,325.304 C 5.902,325.238 5.879,325.07 5.769,325.037 C 5.615,324.981 5.432,325.01 5.297,324.902 C 5.168,324.806 5.133,324.633 5.134,324.481 C 5.133,322.207 5.135,319.933 5.133,317.658 C 5.137,317.537 5.1,317.368 4.951,317.361 C 4.79,317.33 4.704,317.491 4.64,317.608 C 3.55,319.652 2.457,321.696 1.367,323.74 C 1.348,323.784 1.315,323.809 1.268,323.817 C 1.265,322.102 1.268,320.387 1.267,318.671 C 1.273,318.443 1.279,318.177 1.457,318.009 C 1.637,317.843 1.896,317.846 2.119,317.786 C 2.262,317.775 2.271,317.511 2.12,317.513 C 1.734,317.5 1.348,317.559 0.961,317.542 C 0.705,317.537 0.448,317.49 0.192,317.518 C 0.072,317.517 0.035,317.664 0.084,317.754 C 0.259,317.892 0.512,317.807 0.694,317.932 C 0.808,318.01 0.849,318.151 0.876,318.28 C 0.928,318.567 0.926,318.86 0.925,319.151 C 0.925,320.96 0.925,322.769 0.925,324.578 C 0.921,324.692 0.916,324.833 0.809,324.902 C 0.632,324.999 0.416,324.988 0.24,325.084 Z" marker-start="none" marker-end="none"/>
    <path d="M 33.49,324.669 C 33.586,324.766 33.708,324.637 33.692,324.531 C 33.696,324.06 33.69,323.589 33.694,323.118 C 33.959,323.117 34.224,323.123 34.488,323.116 C 34.581,323.124 34.594,323.012 34.595,322.944 C 34.592,322.865 34.608,322.73 34.5,322.715 C 34.236,322.703 33.972,322.714 33.708,322.71 C 33.683,322.549 33.693,322.385 33.693,322.223 C 33.693,321.087 33.692,319.951 33.693,318.815 C 33.702,318.62 33.704,318.411 33.804,318.238 C 33.879,318.101 34.075,318.062 34.199,318.153 C 34.374,318.273 34.434,318.491 34.564,318.649 C 34.602,318.721 34.749,318.712 34.749,318.618 C 34.778,318.477 34.717,318.339 34.666,318.211 C 34.53,317.904 34.323,317.608 34.018,317.452 C 33.704,317.292 33.268,317.327 33.035,317.61 C 32.787,317.919 32.746,318.335 32.732,318.717 C 32.731,319.981 32.733,321.246 32.731,322.51 C 32.726,322.577 32.731,322.658 32.669,322.7 C 32.513,322.728 32.352,322.692 32.196,322.723 C 32.103,322.816 32.202,322.941 32.284,323 C 32.691,323.329 33.053,323.728 33.269,324.21 C 33.344,324.362 33.386,324.532 33.49,324.669 Z" marker-start="none" marker-end="none"/>
    <path d="M 64.863,324.671 C 64.963,324.763 65.078,324.633 65.064,324.527 C 65.072,324.058 65.064,323.588 65.068,323.118 C 65.335,323.116 65.602,323.125 65.868,323.115 C 65.957,323.116 65.962,323.007 65.964,322.942 C 65.962,322.863 65.978,322.722 65.867,322.714 C 65.604,322.703 65.34,322.714 65.078,322.709 C 65.054,321.459 65.075,320.207 65.067,318.956 C 65.069,318.712 65.053,318.448 65.18,318.229 C 65.257,318.101 65.441,318.066 65.563,318.149 C 65.768,318.278 65.806,318.554 65.994,318.696 C 66.15,318.723 66.143,318.527 66.112,318.427 C 66.014,318.089 65.825,317.767 65.545,317.549 C 65.298,317.354 64.945,317.3 64.654,317.423 C 64.434,317.518 64.292,317.732 64.22,317.953 C 64.084,318.353 64.1,318.781 64.101,319.197 C 64.1,320.301 64.101,321.406 64.1,322.511 C 64.094,322.573 64.104,322.668 64.036,322.698 C 63.883,322.732 63.722,322.688 63.57,322.724 C 63.485,322.789 63.551,322.925 63.628,322.975 C 64.026,323.3 64.391,323.683 64.613,324.154 C 64.703,324.323 64.745,324.518 64.863,324.671 Z" marker-start="none" marker-end="none"/>
    <path d="M 36.217,323.334 C 36.268,323.399 36.398,323.438 36.43,323.33 C 36.448,323.005 36.428,322.678 36.439,322.353 C 36.666,322.568 36.822,322.851 37.074,323.042 C 37.618,323.505 38.601,323.396 38.946,322.741 C 39.095,322.467 39.148,322.15 39.151,321.841 C 39.15,320.671 39.151,319.502 39.15,318.333 C 39.151,318.191 39.153,318.027 39.265,317.921 C 39.404,317.783 39.625,317.82 39.78,317.713 C 39.864,317.637 39.798,317.496 39.686,317.511 C 39.283,317.519 38.881,317.561 38.478,317.54 C 38.223,317.531 37.966,317.497 37.71,317.513 C 37.632,317.508 37.542,317.581 37.575,317.665 C 37.59,317.773 37.725,317.773 37.805,317.809 C 37.967,317.856 38.187,317.932 38.185,318.137 C 38.198,319.307 38.186,320.477 38.191,321.647 C 38.191,321.938 38.161,322.257 37.965,322.488 C 37.746,322.734 37.361,322.749 37.079,322.612 C 36.77,322.464 36.579,322.153 36.463,321.843 C 36.424,321.751 36.438,321.65 36.436,321.553 C 36.438,320.497 36.436,319.44 36.437,318.383 C 36.442,318.233 36.447,318.065 36.553,317.948 C 36.69,317.797 36.918,317.806 37.08,317.695 C 37.146,317.631 37.085,317.499 36.992,317.511 C 36.48,317.516 35.967,317.573 35.455,317.529 C 35.242,317.53 35.015,317.465 34.812,317.555 C 34.822,317.624 34.801,317.719 34.88,317.755 C 35.029,317.841 35.222,317.83 35.356,317.946 C 35.47,318.057 35.47,318.23 35.476,318.378 C 35.476,319.547 35.476,320.718 35.476,321.887 C 35.469,322 35.476,322.127 35.405,322.222 C 35.279,322.346 35.086,322.327 34.926,322.366 C 34.819,322.418 34.883,322.573 34.981,322.597 C 35.428,322.773 35.872,322.99 36.217,323.334 Z" marker-start="none" marker-end="none"/>
    <path d="M 46.241,323.346 C 46.315,323.415 46.384,323.328 46.379,323.248 C 46.403,322.851 46.368,322.453 46.397,322.056 C 46.591,322.352 46.743,322.679 46.996,322.933 C 47.213,323.166 47.521,323.361 47.853,323.314 C 48.184,323.276 48.443,322.978 48.484,322.654 C 48.518,322.377 48.449,322.073 48.257,321.863 C 48.092,321.681 47.772,321.654 47.589,321.822 C 47.422,321.996 47.447,322.257 47.372,322.47 C 47.311,322.593 47.141,322.553 47.048,322.491 C 46.817,322.333 46.714,322.054 46.638,321.797 C 46.496,321.311 46.536,320.801 46.531,320.301 C 46.531,319.678 46.53,319.055 46.531,318.431 C 46.534,318.238 46.57,318.012 46.742,317.895 C 46.956,317.755 47.231,317.811 47.458,317.707 C 47.553,317.645 47.477,317.484 47.366,317.51 C 46.837,317.523 46.308,317.56 45.779,317.541 C 45.458,317.542 45.138,317.499 44.818,317.515 C 44.707,317.524 44.714,317.685 44.805,317.718 C 44.98,317.801 45.19,317.786 45.355,317.894 C 45.479,317.982 45.488,318.148 45.492,318.285 C 45.492,319.487 45.492,320.689 45.492,321.891 C 45.496,321.991 45.469,322.104 45.381,322.164 C 45.218,322.276 44.997,322.225 44.832,322.33 C 44.765,322.413 44.828,322.526 44.922,322.549 C 45.4,322.74 45.888,322.959 46.241,323.346 Z" marker-start="none" marker-end="none"/>
    <path d="M 72.832,323.324 C 72.884,323.38 72.961,323.391 73.035,323.403 C 73.043,323.299 73.054,323.195 73.058,323.09 C 73.062,322.836 73.057,322.582 73.061,322.327 C 73.363,322.698 73.653,323.147 74.145,323.275 C 74.162,323.279 74.194,323.288 74.21,323.293 C 74.531,323.322 74.874,323.337 75.16,323.16 C 75.607,322.911 75.761,322.365 75.772,321.885 C 75.777,320.668 75.772,319.451 75.774,318.234 C 75.772,318.112 75.808,317.983 75.906,317.903 C 76.05,317.777 76.272,317.822 76.416,317.698 C 76.484,317.603 76.395,317.492 76.288,317.51 C 75.839,317.525 75.389,317.567 74.939,317.532 C 74.718,317.523 74.494,317.488 74.275,317.524 C 74.161,317.539 74.163,317.73 74.27,317.754 C 74.468,317.842 74.798,317.862 74.806,318.142 C 74.823,319.278 74.808,320.415 74.813,321.551 C 74.812,321.863 74.806,322.208 74.604,322.465 C 74.402,322.722 74.019,322.751 73.735,322.628 C 73.414,322.492 73.212,322.179 73.091,321.865 C 73.044,321.75 73.061,321.624 73.059,321.503 C 73.061,320.447 73.059,319.392 73.06,318.336 C 73.061,318.184 73.086,318.008 73.215,317.907 C 73.372,317.792 73.583,317.79 73.738,317.668 C 73.732,317.433 73.457,317.524 73.305,317.517 C 72.727,317.572 72.15,317.526 71.573,317.511 C 71.44,317.484 71.381,317.675 71.484,317.744 C 71.64,317.851 71.863,317.822 71.997,317.968 C 72.102,318.095 72.089,318.271 72.098,318.426 C 72.099,319.565 72.1,320.704 72.098,321.843 C 72.087,321.974 72.107,322.125 72.017,322.231 C 71.88,322.352 71.684,322.319 71.523,322.377 C 71.452,322.449 71.506,322.564 71.593,322.592 C 71.84,322.703 72.099,322.793 72.327,322.944 C 72.512,323.046 72.677,323.18 72.832,323.324 Z" marker-start="none" marker-end="none"/>
    <path d="M 8.194,323.287 C 8.682,323.373 9.219,323.27 9.597,322.937 C 10.049,322.545 10.254,321.939 10.293,321.357 C 10.299,321.176 10.317,320.987 10.259,320.812 C 10.226,320.7 10.107,320.649 9.999,320.652 C 9.18,320.645 8.361,320.659 7.543,320.646 C 7.386,320.648 7.376,320.463 7.372,320.349 C 7.357,319.781 7.441,319.195 7.711,318.689 C 7.892,318.35 8.203,318.049 8.596,317.994 C 9.02,317.941 9.507,318.048 9.779,318.403 C 9.918,318.564 9.969,318.78 10.1,318.944 C 10.221,319.042 10.345,318.888 10.297,318.766 C 10.197,318.311 9.881,317.922 9.5,317.665 C 8.909,317.278 8.098,317.252 7.485,317.603 C 7.103,317.82 6.814,318.174 6.629,318.567 C 6.358,319.135 6.277,319.774 6.287,320.398 C 6.305,321.123 6.495,321.863 6.924,322.458 C 7.225,322.878 7.678,323.202 8.194,323.287 M 8.315,322.987 C 7.997,322.885 7.789,322.593 7.663,322.299 C 7.513,321.942 7.429,321.555 7.418,321.168 C 7.411,321.043 7.529,320.97 7.639,320.958 C 7.931,320.923 8.229,320.944 8.522,320.967 C 8.761,320.997 9.032,321.043 9.192,321.243 C 9.34,321.438 9.343,321.698 9.333,321.933 C 9.307,322.261 9.228,322.614 8.986,322.854 C 8.812,323.027 8.541,323.061 8.315,322.987 Z" marker-start="none" marker-end="none"/>
    <path d="M 18.087,323.295 C 18.551,323.365 19.056,323.266 19.421,322.959 C 19.839,322.614 20.053,322.081 20.123,321.555 C 20.148,321.316 20.176,321.068 20.116,320.832 C 20.09,320.723 19.984,320.653 19.875,320.654 C 19.047,320.643 18.218,320.66 17.39,320.646 C 17.256,320.65 17.227,320.499 17.225,320.395 C 17.201,319.792 17.289,319.164 17.593,318.634 C 17.782,318.303 18.106,318.022 18.498,317.986 C 18.885,317.957 19.318,318.046 19.584,318.35 C 19.738,318.512 19.805,318.731 19.925,318.915 C 19.965,318.997 20.109,318.992 20.139,318.905 C 20.172,318.795 20.13,318.681 20.094,318.576 C 19.878,318.027 19.399,317.584 18.827,317.429 C 18.289,317.284 17.683,317.356 17.219,317.675 C 16.661,318.053 16.35,318.701 16.224,319.347 C 16.047,320.278 16.118,321.285 16.569,322.131 C 16.872,322.714 17.42,323.203 18.087,323.295 M 18.165,322.986 C 17.881,322.899 17.684,322.651 17.557,322.394 C 17.376,322.013 17.279,321.59 17.27,321.169 C 17.258,321.044 17.378,320.971 17.487,320.959 C 17.779,320.923 18.076,320.944 18.369,320.967 C 18.619,320.999 18.909,321.048 19.062,321.27 C 19.206,321.494 19.195,321.775 19.174,322.029 C 19.138,322.336 19.049,322.665 18.809,322.877 C 18.636,323.033 18.379,323.056 18.165,322.986 Z" marker-start="none" marker-end="none"/>
    <path d="M 42.247,323.295 C 42.72,323.367 43.235,323.261 43.601,322.94 C 44.029,322.571 44.238,322.007 44.292,321.457 C 44.308,321.239 44.333,321.012 44.262,320.802 C 44.219,320.676 44.075,320.644 43.957,320.651 C 43.187,320.651 42.416,320.65 41.646,320.651 C 41.556,320.651 41.432,320.65 41.407,320.543 C 41.352,320.275 41.381,319.997 41.407,319.727 C 41.472,319.224 41.625,318.705 41.98,318.328 C 42.179,318.118 42.461,317.981 42.754,317.98 C 43.102,317.976 43.478,318.063 43.721,318.329 C 43.891,318.493 43.959,318.727 44.086,318.92 C 44.141,319.015 44.307,318.976 44.308,318.862 C 44.315,318.736 44.269,318.616 44.221,318.502 C 44.005,318.02 43.588,317.628 43.085,317.459 C 42.478,317.258 41.765,317.352 41.262,317.759 C 40.733,318.179 40.461,318.84 40.355,319.491 C 40.206,320.439 40.31,321.464 40.821,322.294 C 41.131,322.803 41.645,323.213 42.247,323.295 M 42.329,322.989 C 42.103,322.92 41.924,322.747 41.802,322.55 C 41.573,322.176 41.473,321.738 41.43,321.307 C 41.423,321.199 41.408,321.051 41.527,320.997 C 41.716,320.918 41.929,320.944 42.129,320.943 C 42.449,320.958 42.793,320.958 43.075,321.129 C 43.296,321.268 43.345,321.55 43.343,321.792 C 43.339,322.154 43.272,322.549 43.02,322.826 C 42.85,323.019 42.566,323.066 42.329,322.989 Z" marker-start="none" marker-end="none"/>
    <path d="M 58.491,323.291 C 59.011,323.379 59.586,323.244 59.961,322.858 C 60.443,322.366 60.612,321.641 60.57,320.97 C 60.566,320.826 60.49,320.656 60.324,320.655 C 59.496,320.642 58.666,320.658 57.837,320.648 C 57.675,320.66 57.65,320.475 57.651,320.354 C 57.635,319.769 57.722,319.161 58.014,318.645 C 58.199,318.317 58.512,318.035 58.898,317.99 C 59.287,317.952 59.725,318.035 59.999,318.336 C 60.157,318.496 60.23,318.713 60.343,318.902 C 60.387,319.012 60.581,318.99 60.575,318.862 C 60.586,318.669 60.491,318.491 60.402,318.326 C 60.102,317.802 59.548,317.425 58.942,317.37 C 58.431,317.31 57.895,317.452 57.499,317.786 C 57.018,318.186 56.755,318.791 56.643,319.395 C 56.488,320.261 56.546,321.187 56.925,321.991 C 57.218,322.625 57.778,323.183 58.491,323.291 M 58.68,323.009 C 58.445,322.966 58.25,322.806 58.116,322.615 C 57.832,322.19 57.717,321.67 57.696,321.165 C 57.692,321.016 57.851,320.955 57.977,320.95 C 58.248,320.929 58.521,320.944 58.792,320.966 C 59.018,320.994 59.266,321.035 59.436,321.203 C 59.597,321.372 59.615,321.622 59.615,321.843 C 59.602,322.188 59.53,322.556 59.296,322.822 C 59.145,322.993 58.9,323.058 58.68,323.009 Z" marker-start="none" marker-end="none"/>
    <path d="M 62.47,323.311 C 62.549,323.35 62.619,323.265 62.605,323.187 C 62.607,321.584 62.605,319.981 62.606,318.377 C 62.611,318.213 62.61,318.019 62.746,317.902 C 62.902,317.767 63.141,317.838 63.299,317.709 C 63.362,317.623 63.273,317.501 63.174,317.513 C 62.755,317.505 62.337,317.562 61.919,317.543 C 61.597,317.544 61.276,317.501 60.955,317.513 C 60.835,317.5 60.795,317.676 60.887,317.735 C 61.084,317.863 61.344,317.855 61.533,318 C 61.639,318.095 61.64,318.248 61.645,318.38 C 61.645,319.566 61.644,320.752 61.646,321.938 C 61.642,322.056 61.642,322.197 61.541,322.277 C 61.402,322.377 61.218,322.358 61.066,322.424 C 60.947,322.488 61.01,322.693 61.145,322.694 C 61.625,322.804 62.077,323.016 62.47,323.311 Z" marker-start="none" marker-end="none"/>
    <path d="M 78.154,323.208 C 78.638,323.383 79.202,323.348 79.652,323.092 C 79.775,323.029 79.891,322.943 80.03,322.916 C 80.376,322.883 80.729,322.942 81.072,322.889 C 81.099,322.767 81.153,322.488 80.946,322.524 C 80.751,322.522 80.556,322.526 80.362,322.525 C 80.562,322.031 80.685,321.485 80.573,320.954 C 80.478,320.467 80.215,320.001 79.802,319.715 C 79.437,319.456 78.983,319.355 78.542,319.353 C 78.291,319.353 78.029,319.247 77.877,319.043 C 77.783,318.923 77.837,318.738 77.964,318.665 C 78.136,318.561 78.345,318.554 78.541,318.538 C 79.116,318.506 79.714,318.541 80.26,318.322 C 80.609,318.187 80.895,317.893 81.003,317.532 C 81.223,316.801 81.066,315.911 80.454,315.413 C 80.026,315.053 79.463,314.892 78.914,314.853 C 78.685,314.873 78.456,314.864 78.228,314.856 C 77.855,314.921 77.472,315.036 77.196,315.307 C 76.861,315.627 76.716,316.137 76.839,316.584 C 76.949,316.957 77.264,317.211 77.565,317.433 C 77.635,317.499 77.743,317.555 77.756,317.66 C 77.559,317.988 77.211,318.201 77.034,318.545 C 76.967,318.664 77.051,318.792 77.138,318.873 C 77.406,319.133 77.756,319.281 78.055,319.5 C 77.871,319.661 77.662,319.793 77.501,319.98 C 76.951,320.573 76.848,321.497 77.153,322.231 C 77.337,322.673 77.701,323.044 78.154,323.208 M 78.567,322.961 C 78.274,322.78 78.162,322.423 78.093,322.104 C 77.991,321.54 77.992,320.951 78.122,320.391 C 78.195,320.113 78.311,319.811 78.571,319.657 C 78.755,319.546 79.002,319.594 79.15,319.744 C 79.371,319.96 79.461,320.272 79.519,320.568 C 79.603,321.069 79.603,321.586 79.513,322.086 C 79.451,322.383 79.355,322.699 79.118,322.904 C 78.969,323.036 78.738,323.064 78.567,322.961 M 78.278,317.576 C 77.998,317.485 77.78,317.257 77.666,316.991 C 77.497,316.612 77.546,316.161 77.736,315.798 C 77.93,315.427 78.326,315.187 78.738,315.144 C 79.151,315.099 79.604,315.18 79.923,315.463 C 80.191,315.699 80.316,316.061 80.326,316.411 C 80.34,316.708 80.275,317.034 80.052,317.248 C 79.78,317.509 79.388,317.577 79.026,317.607 C 78.777,317.62 78.52,317.654 78.278,317.576 Z" marker-start="none" marker-end="none"/>
    <path d="M 10.681,322.92 C 10.545,322.979 10.613,323.211 10.761,323.192 C 11.208,323.201 11.656,323.197 12.104,323.195 C 12.198,323.207 12.29,323.137 12.278,323.037 C 12.283,321.711 12.277,320.383 12.281,319.056 C 12.285,318.739 12.335,318.369 12.61,318.166 C 12.957,317.932 13.467,318.003 13.751,318.308 C 13.942,318.505 14.035,318.781 14.033,319.052 C 14.033,320.173 14.032,321.295 14.033,322.416 C 14.034,322.543 14.016,322.692 13.904,322.772 C 13.749,322.886 13.537,322.819 13.374,322.908 C 13.261,322.978 13.331,323.176 13.462,323.167 C 13.921,323.177 14.383,323.175 14.842,323.169 C 14.938,323.177 15.006,323.088 14.993,322.996 C 14.995,321.505 14.994,320.014 14.994,318.523 C 14.995,318.411 14.993,318.279 15.087,318.2 C 15.23,318.078 15.434,318.106 15.597,318.027 C 15.675,317.996 15.633,317.873 15.562,317.863 C 15.233,317.768 14.901,317.674 14.594,317.517 C 14.484,317.462 14.388,317.37 14.262,317.356 C 14.174,317.355 14.165,317.456 14.162,317.52 C 14.147,317.742 14.177,317.966 14.148,318.187 C 14.13,318.206 14.095,318.244 14.078,318.263 C 13.748,317.986 13.454,317.644 13.039,317.491 C 12.567,317.313 11.957,317.406 11.635,317.818 C 11.397,318.126 11.33,318.528 11.319,318.908 C 11.318,320.094 11.32,321.281 11.319,322.467 C 11.32,322.594 11.287,322.742 11.168,322.812 C 11.019,322.899 10.837,322.856 10.681,322.92 Z" marker-start="none" marker-end="none"/>
    <path d="M 66.193,322.93 C 66.072,323.004 66.153,323.213 66.293,323.193 C 66.74,323.2 67.188,323.198 67.635,323.194 C 67.754,323.214 67.823,323.101 67.811,322.996 C 67.814,321.649 67.809,320.302 67.813,318.956 C 67.824,318.688 67.882,318.393 68.089,318.205 C 68.32,318.008 68.662,317.987 68.94,318.085 C 69.315,318.219 69.558,318.613 69.559,319.005 C 69.561,320.142 69.558,321.278 69.56,322.414 C 69.563,322.54 69.545,322.685 69.438,322.767 C 69.282,322.888 69.065,322.818 68.899,322.909 C 68.792,322.985 68.86,323.178 68.994,323.168 C 69.337,323.179 69.68,323.171 70.023,323.171 C 70.177,323.169 70.331,323.165 70.485,323.156 C 70.531,322.988 70.538,322.813 70.529,322.639 C 70.521,321.251 70.528,319.862 70.525,318.474 C 70.521,318.365 70.543,318.235 70.646,318.175 C 70.799,318.071 71.011,318.112 71.157,317.999 L 71.168,317.946 C 71.157,317.929 71.136,317.894 71.126,317.877 C 70.735,317.754 70.327,317.656 69.978,317.432 C 69.903,317.39 69.8,317.319 69.72,317.385 C 69.643,317.648 69.734,317.934 69.67,318.199 C 69.627,318.301 69.534,318.209 69.487,318.166 C 69.169,317.857 68.826,317.536 68.382,317.433 C 67.974,317.356 67.502,317.439 67.214,317.758 C 66.924,318.082 66.853,318.537 66.845,318.957 C 66.844,320.127 66.845,321.296 66.845,322.465 C 66.848,322.583 66.822,322.716 66.723,322.792 C 66.57,322.911 66.357,322.844 66.193,322.93 Z" marker-start="none" marker-end="none"/>
   </g>
  </g>
 </g>
 <g id="Grid" transform="scale(1 -1)"/>
 <g id="Content" transform="scale(1 -1)"/>
 <g id="Sponsoren" transform="scale(1 -1)"/>
 <g id="Layer 1" transform="scale(1 -1)"/>
</svg>
