<?xml version="1.0" standalone="no"?>
<!DOCTYPE svg PUBLIC "-//W3C//DTD SVG 1.1//EN" "http://www.w3.org/Graphics/SVG/1.1/DTD/svg11.dtd">
<!--Generator: Xara Designer (www.xara.com), SVG filter version: 6.6.0.0-->
<svg fill="none" fill-rule="evenodd" stroke="black" stroke-width="0.501" stroke-linejoin="bevel" stroke-miterlimit="10" font-family="Times New Roman" font-size="16" style="font-variant-ligatures:none" xmlns:xlink="http://www.w3.org/1999/xlink" xmlns="http://www.w3.org/2000/svg" version="1.1" overflow="visible" width="82.295pt" height="13.862pt" viewBox="0 -327.389 82.295 13.862">
 <defs>
	</defs>
 <g id="Backdrop" transform="scale(1 -1)"/>
 <g id="Inserate" transform="scale(1 -1)">
  <path d="M 0,313.527 L 82.295,313.527 L 82.295,314.966 L 0,314.966 L 0,313.527 Z" stroke="none" fill="#ed1c24" stroke-width="0.025" fill-rule="nonzero" stroke-linejoin="miter" marker-start="none" marker-end="none"/>
  <g id="Group" fill-rule="nonzero" stroke-linejoin="miter" stroke="none" stroke-width="0.025" fill="#231f20">
   <g id="Group_1">
    <path d="M 0.899,317.391 C 0.899,317.042 0.861,316.83 0.623,316.741 C 0.474,316.679 0.1,316.654 0.1,316.481 C 0.1,316.405 0.149,316.356 0.263,316.356 C 0.45,316.356 0.637,316.405 1.211,316.405 C 1.834,316.405 1.91,316.356 2.059,316.356 C 2.197,316.356 2.273,316.381 2.273,316.492 C 2.273,316.717 1.973,316.668 1.661,316.741 C 1.384,316.803 1.298,317.153 1.298,318.191 L 1.298,322.71 C 1.298,322.897 1.322,322.935 1.384,322.935 C 1.46,322.935 1.536,322.786 1.661,322.523 C 2.571,320.713 3.557,318.952 4.495,317.166 C 4.582,317.028 4.658,316.879 4.731,316.73 C 5.007,316.194 5.032,316.142 5.219,316.142 C 5.468,316.142 5.468,316.167 5.468,316.467 L 5.468,323.285 C 5.468,323.659 5.557,323.835 5.807,323.884 C 6.094,323.921 6.243,323.946 6.243,324.108 C 6.243,324.233 6.194,324.271 6.031,324.271 C 5.817,324.271 5.582,324.222 5.294,324.222 C 4.769,324.222 4.571,324.271 4.433,324.271 C 4.332,324.271 4.257,324.195 4.257,324.098 C 4.257,323.97 4.419,323.921 4.696,323.884 C 4.945,323.846 5.08,323.672 5.08,323.06 L 5.08,318.752 C 5.08,318.651 5.07,318.602 5.018,318.602 C 4.994,318.602 4.969,318.616 4.782,318.939 C 4.156,320.076 2.734,322.786 2.246,323.759 C 2.048,324.16 2.021,324.271 1.834,324.271 C 1.647,324.271 1.374,324.247 1.162,324.247 C 0.948,324.247 0.699,324.271 0.512,324.271 C 0.387,324.271 0.2,324.257 0.2,324.098 C 0.2,323.935 0.312,323.935 0.599,323.884 C 0.824,323.846 0.899,323.683 0.899,323.298 L 0.899,317.391 Z" marker-start="none" marker-end="none"/>
    <path d="M 10.001,319.451 C 10.35,319.451 10.361,319.502 10.361,320.201 C 10.361,321.461 9.637,322.212 8.64,322.212 C 7.44,322.212 6.392,321.163 6.392,319.101 C 6.392,317.44 7.239,316.243 8.651,316.243 C 9.364,316.243 9.938,316.644 10.187,317.18 C 10.299,317.391 10.361,317.616 10.361,317.803 C 10.361,317.941 10.312,317.979 10.236,317.979 C 10.139,317.979 10.112,317.817 10.011,317.592 C 9.838,317.166 9.502,316.879 8.928,316.879 C 8.066,316.879 7.516,317.879 7.516,319.163 C 7.516,319.364 7.603,319.451 7.827,319.451 L 10.001,319.451 Z M 7.54,320.15 C 7.54,321.025 7.99,321.849 8.627,321.849 C 9.114,321.849 9.45,321.399 9.45,320.662 C 9.45,320.375 9.413,320.239 9.312,320.139 C 9.25,320.039 9.001,319.938 8.627,319.889 C 8.451,319.863 8.253,319.838 8.014,319.838 C 7.578,319.838 7.54,319.9 7.54,320.139 L 7.54,320.15 Z" marker-start="none" marker-end="none"/>
    <path d="M 12.299,321.648 C 12.299,321.973 12.275,322.098 12.098,322.098 C 11.96,322.098 11.711,322.073 11.548,322.073 C 11.313,322.073 11.074,322.098 10.839,322.098 C 10.676,322.098 10.6,321.998 10.6,321.911 C 10.6,321.786 10.676,321.738 10.901,321.71 C 11.15,321.686 11.25,321.599 11.25,321.35 L 11.25,317.692 C 11.25,317.191 11.437,316.855 11.686,316.63 C 11.949,316.405 12.323,316.318 12.711,316.318 C 13.459,316.318 13.908,316.803 14.171,317.028 C 14.247,317.091 14.296,317.128 14.347,317.128 C 14.396,317.128 14.434,317.104 14.434,316.966 L 14.434,316.392 C 14.434,316.294 14.459,316.243 14.496,316.243 C 14.545,316.243 14.583,316.256 14.659,316.281 C 14.832,316.356 15.171,316.492 15.694,316.679 C 15.97,316.779 16.033,316.817 16.043,316.917 C 16.043,317.018 15.981,317.055 15.746,317.08 C 15.521,317.104 15.431,317.218 15.431,317.63 L 15.431,321.336 L 15.431,321.811 C 15.431,322.06 15.345,322.098 15.22,322.098 C 14.971,322.098 14.759,322.073 14.534,322.073 C 14.32,322.073 14.109,322.098 13.933,322.098 C 13.773,322.098 13.684,322.025 13.684,321.925 C 13.684,321.748 13.773,321.762 14.06,321.724 C 14.347,321.675 14.382,321.575 14.382,321.236 L 14.382,317.952 C 14.382,317.727 14.282,317.516 14.133,317.343 C 13.908,317.091 13.559,316.941 13.223,316.941 C 12.659,316.941 12.299,317.253 12.299,317.879 L 12.299,321.648 Z" marker-start="none" marker-end="none"/>
    <path d="M 19.865,319.451 C 20.214,319.451 20.225,319.502 20.225,320.201 C 20.225,321.461 19.502,322.212 18.504,322.212 C 17.304,322.212 16.256,321.163 16.256,319.101 C 16.256,317.44 17.104,316.243 18.515,316.243 C 19.228,316.243 19.802,316.644 20.052,317.18 C 20.163,317.391 20.225,317.616 20.225,317.803 C 20.225,317.941 20.176,317.979 20.101,317.979 C 20.003,317.979 19.976,317.817 19.876,317.592 C 19.702,317.166 19.366,316.879 18.792,316.879 C 17.93,316.879 17.38,317.879 17.38,319.163 C 17.38,319.364 17.467,319.451 17.692,319.451 L 19.865,319.451 Z M 17.405,320.15 C 17.405,321.025 17.854,321.849 18.491,321.849 C 18.979,321.849 19.315,321.399 19.315,320.662 C 19.315,320.375 19.277,320.239 19.176,320.139 C 19.114,320.039 18.865,319.938 18.491,319.889 C 18.315,319.863 18.117,319.838 17.879,319.838 C 17.442,319.838 17.405,319.9 17.405,320.139 L 17.405,320.15 Z" marker-start="none" marker-end="none"/>
    <path d="M 23.586,320.35 C 23.586,318.053 24.897,316.205 26.507,316.205 C 28.081,316.205 29.43,317.979 29.43,320.274 C 29.43,322.572 28.119,324.42 26.52,324.42 C 24.935,324.42 23.586,322.648 23.586,320.364 L 23.586,320.35 Z M 28.081,320.052 C 28.081,317.467 27.282,316.554 26.545,316.554 C 25.797,316.554 24.946,317.554 24.946,320.575 C 24.946,323.16 25.745,324.071 26.469,324.071 C 27.233,324.071 28.081,323.073 28.081,320.063 L 28.081,320.052 Z" marker-start="none" marker-end="none"/>
    <path d="M 30.441,317.218 C 30.441,316.893 30.378,316.768 29.953,316.706 C 29.853,316.679 29.742,316.616 29.742,316.516 C 29.742,316.392 29.853,316.356 29.94,316.356 C 30.078,316.356 30.216,316.405 30.978,316.405 C 31.801,316.405 31.939,316.356 32.064,316.356 C 32.164,316.356 32.251,316.419 32.251,316.516 C 32.251,316.644 32.137,316.668 32.002,316.706 C 31.614,316.803 31.49,316.83 31.49,317.142 L 31.49,324.956 C 31.49,325.133 31.476,325.208 31.4,325.208 C 31.338,325.208 31.275,325.17 31.102,325.084 C 30.877,324.984 30.538,324.859 30.04,324.696 C 29.866,324.645 29.815,324.607 29.815,324.509 C 29.815,324.396 29.877,324.385 30.102,324.333 C 30.378,324.284 30.441,324.209 30.441,323.97 L 30.441,317.218 Z" marker-start="none" marker-end="none"/>
    <path d="M 33.91,321.326 C 33.91,321.523 33.961,321.575 34.11,321.575 L 34.698,321.575 C 34.947,321.575 34.996,321.648 34.996,321.835 C 34.996,322.011 34.934,322.049 34.723,322.049 L 34.159,322.049 C 33.972,322.049 33.91,322.122 33.91,322.323 L 33.91,323.534 C 33.91,323.783 33.861,323.81 33.785,323.81 C 33.698,323.81 33.674,323.735 33.549,323.509 C 33.11,322.759 32.823,322.423 32.474,322.111 C 32.311,321.949 32.238,321.862 32.238,321.786 C 32.238,321.648 32.325,321.637 32.436,321.624 C 32.525,321.624 32.65,321.624 32.723,321.613 C 32.799,321.586 32.861,321.537 32.861,321.423 L 32.861,317.416 C 32.861,317.018 32.948,316.717 33.137,316.53 C 33.311,316.343 33.574,316.256 33.91,316.256 C 34.91,316.256 35.159,317.291 35.159,317.454 C 35.159,317.54 35.11,317.578 35.034,317.578 C 34.921,317.578 34.858,317.416 34.761,317.253 C 34.66,317.091 34.522,316.917 34.297,316.917 C 34.059,316.917 33.91,317.018 33.91,317.478 L 33.91,321.326 Z" marker-start="none" marker-end="none"/>
    <path d="M 35.933,317.315 C 35.933,316.866 35.857,316.741 35.47,316.706 C 35.359,316.679 35.272,316.616 35.272,316.516 C 35.272,316.419 35.359,316.356 35.508,316.356 C 35.684,316.356 35.782,316.405 36.445,316.405 C 37.244,316.405 37.404,316.356 37.505,316.356 C 37.605,316.356 37.692,316.392 37.692,316.505 C 37.692,316.616 37.643,316.616 37.318,316.679 C 37.069,316.741 36.982,316.83 36.982,317.091 L 36.982,320.488 C 36.982,320.762 37.131,321.011 37.342,321.198 C 37.556,321.388 37.868,321.499 38.155,321.499 C 38.456,321.499 38.691,321.399 38.854,321.187 C 38.992,321.025 39.065,320.786 39.065,320.499 L 39.065,317.091 C 39.065,316.803 38.941,316.73 38.653,316.668 C 38.529,316.644 38.456,316.592 38.456,316.516 C 38.456,316.392 38.518,316.356 38.667,316.356 C 38.83,316.356 38.992,316.405 39.577,316.405 C 40.203,316.405 40.477,316.356 40.564,316.356 C 40.716,316.356 40.802,316.392 40.802,316.505 C 40.802,316.616 40.726,316.654 40.491,316.679 C 40.266,316.717 40.114,316.817 40.114,317.218 L 40.114,320.638 C 40.103,321.125 39.941,321.499 39.691,321.748 C 39.428,322.011 39.065,322.136 38.667,322.136 C 38.204,322.136 37.843,321.911 37.567,321.71 C 37.293,321.499 37.106,321.298 36.993,321.298 C 36.957,321.298 36.944,321.326 36.93,321.513 L 36.93,321.998 C 36.93,322.111 36.906,322.212 36.844,322.212 C 36.795,322.212 36.732,322.16 36.619,322.087 C 36.445,321.962 36.158,321.786 35.695,321.613 C 35.407,321.513 35.296,321.475 35.296,321.374 C 35.296,321.274 35.359,321.25 35.584,321.225 C 35.871,321.198 35.933,321.15 35.933,320.786 L 35.933,317.315 Z" marker-start="none" marker-end="none"/>
    <path d="M 44.51,319.451 C 44.86,319.451 44.871,319.502 44.871,320.201 C 44.871,321.461 44.147,322.212 43.15,322.212 C 41.95,322.212 40.901,321.163 40.901,319.101 C 40.901,317.44 41.749,316.243 43.161,316.243 C 43.873,316.243 44.448,316.644 44.697,317.18 C 44.808,317.391 44.871,317.616 44.871,317.803 C 44.871,317.941 44.822,317.979 44.746,317.979 C 44.648,317.979 44.621,317.817 44.521,317.592 C 44.348,317.166 44.011,316.879 43.437,316.879 C 42.576,316.879 42.026,317.879 42.026,319.163 C 42.026,319.364 42.112,319.451 42.337,319.451 L 44.51,319.451 Z M 42.05,320.15 C 42.05,321.025 42.5,321.849 43.136,321.849 C 43.624,321.849 43.96,321.399 43.96,320.662 C 43.96,320.375 43.922,320.239 43.822,320.139 C 43.76,320.039 43.51,319.938 43.136,319.889 C 42.96,319.863 42.762,319.838 42.524,319.838 C 42.088,319.838 42.05,319.9 42.05,320.139 L 42.05,320.15 Z" marker-start="none" marker-end="none"/>
    <path d="M 45.91,317.291 C 45.91,316.803 45.847,316.741 45.547,316.706 C 45.346,316.654 45.235,316.63 45.235,316.505 C 45.235,316.392 45.335,316.356 45.498,316.356 C 45.634,316.356 45.81,316.405 46.447,316.405 C 47.246,316.405 47.419,316.356 47.557,316.356 C 47.769,316.356 47.856,316.381 47.856,316.505 C 47.856,316.616 47.731,316.644 47.408,316.706 C 47.007,316.768 46.959,316.917 46.959,317.467 L 46.959,320.039 C 46.959,320.25 47.021,320.537 47.132,320.838 C 47.246,321.125 47.408,321.361 47.633,321.361 C 47.782,321.361 47.807,321.15 47.831,320.949 C 47.869,320.689 47.983,320.464 48.319,320.464 C 48.731,320.464 48.907,320.813 48.907,321.274 C 48.907,321.835 48.63,322.212 48.156,322.212 C 47.706,322.212 47.457,321.925 47.281,321.662 C 47.094,321.374 47.032,321.112 46.921,321.112 C 46.869,321.112 46.869,321.236 46.869,321.399 C 46.869,321.648 46.869,321.862 46.858,322.025 C 46.858,322.149 46.807,322.212 46.758,322.212 C 46.658,322.212 46.582,322.122 46.422,321.962 C 46.121,321.71 45.81,321.613 45.56,321.523 C 45.371,321.475 45.298,321.437 45.298,321.312 C 45.298,321.212 45.36,321.187 45.46,321.174 C 45.785,321.174 45.91,321.087 45.91,320.675 L 45.91,317.291 Z" marker-start="none" marker-end="none"/>
    <path d="M 52.89,316.792 C 52.589,316.792 52.54,316.803 52.54,316.879 C 52.54,316.941 52.641,317.128 52.79,317.467 C 53.751,319.488 54.7,321.513 55.675,323.523 C 55.898,324.008 55.935,324.06 55.935,324.122 C 55.935,324.195 55.898,324.233 55.8,324.233 C 55.274,324.233 54.762,324.222 54.239,324.222 C 53.676,324.222 53.126,324.233 52.589,324.233 C 52.253,324.233 52.139,324.347 52.077,324.471 C 52.015,324.583 51.979,324.696 51.828,324.696 C 51.741,324.696 51.665,324.634 51.616,324.333 C 51.554,323.935 51.516,323.298 51.467,322.797 C 51.44,322.624 51.429,322.461 51.429,322.323 C 51.429,322.122 51.467,321.973 51.592,321.973 C 51.904,321.973 51.917,322.537 52.104,322.949 C 52.302,323.371 52.616,323.672 53.101,323.797 C 53.378,323.873 53.689,323.873 53.987,323.873 C 54.437,323.873 54.513,323.81 54.513,323.721 C 54.513,323.672 54.426,323.461 54.274,323.122 L 51.315,317.042 C 51.191,316.768 51.118,316.606 51.118,316.543 C 51.118,316.481 51.167,316.356 51.267,316.356 C 51.492,316.356 51.952,316.405 53.226,316.405 C 54.9,316.405 55.375,316.356 55.7,316.356 C 55.835,316.356 55.898,316.392 55.925,316.768 C 55.962,317.242 55.949,317.765 55.949,318.364 C 55.949,318.865 55.911,318.903 55.762,318.903 C 55.637,318.903 55.599,318.79 55.475,318.239 C 55.274,317.467 55.001,317.042 54.226,316.879 C 53.914,316.817 53.464,316.792 52.903,316.792 L 52.89,316.792 Z" marker-start="none" marker-end="none"/>
    <path d="M 59.945,319.451 C 60.295,319.451 60.305,319.502 60.305,320.201 C 60.305,321.461 59.582,322.212 58.585,322.212 C 57.385,322.212 56.336,321.163 56.336,319.101 C 56.336,317.44 57.184,316.243 58.596,316.243 C 59.308,316.243 59.883,316.644 60.132,317.18 C 60.243,317.391 60.305,317.616 60.305,317.803 C 60.305,317.941 60.257,317.979 60.181,317.979 C 60.083,317.979 60.056,317.817 59.956,317.592 C 59.783,317.166 59.446,316.879 58.872,316.879 C 58.011,316.879 57.46,317.879 57.46,319.163 C 57.46,319.364 57.547,319.451 57.772,319.451 L 59.945,319.451 Z M 57.485,320.15 C 57.485,321.025 57.934,321.849 58.571,321.849 C 59.059,321.849 59.395,321.399 59.395,320.662 C 59.395,320.375 59.357,320.239 59.257,320.139 C 59.194,320.039 58.945,319.938 58.571,319.889 C 58.395,319.863 58.197,319.838 57.959,319.838 C 57.523,319.838 57.485,319.9 57.485,320.139 L 57.485,320.15 Z" marker-start="none" marker-end="none"/>
    <path d="M 61.869,322.96 C 62.205,322.96 62.481,323.222 62.481,323.696 C 62.481,324.184 62.205,324.447 61.869,324.447 C 61.544,324.447 61.27,324.184 61.27,323.696 C 61.27,323.222 61.544,322.96 61.855,322.96 L 61.869,322.96 Z M 61.333,317.28 C 61.333,316.83 61.281,316.779 60.856,316.706 C 60.682,316.668 60.634,316.606 60.634,316.505 C 60.634,316.405 60.707,316.356 60.821,316.356 C 61.018,316.356 61.257,316.405 61.855,316.405 C 62.43,316.405 62.655,316.356 62.893,316.356 C 63.056,316.356 63.105,316.405 63.105,316.505 C 63.105,316.616 63.029,316.644 62.804,316.706 C 62.392,316.792 62.381,316.955 62.381,317.329 L 62.381,321.423 L 62.381,322.025 C 62.381,322.16 62.354,322.212 62.281,322.212 C 62.243,322.212 62.156,322.16 62.042,322.087 C 61.793,321.973 61.495,321.811 61.094,321.686 C 60.793,321.586 60.696,321.537 60.696,321.437 C 60.696,321.361 60.744,321.312 60.869,321.288 C 61.243,321.198 61.333,321.112 61.333,320.786 L 61.333,317.28 Z" marker-start="none" marker-end="none"/>
    <path d="M 64.776,321.326 C 64.776,321.523 64.828,321.575 64.977,321.575 L 65.564,321.575 C 65.814,321.575 65.863,321.648 65.863,321.835 C 65.863,322.011 65.8,322.049 65.589,322.049 L 65.026,322.049 C 64.839,322.049 64.776,322.122 64.776,322.323 L 64.776,323.534 C 64.776,323.783 64.727,323.81 64.651,323.81 C 64.565,323.81 64.54,323.735 64.416,323.509 C 63.977,322.759 63.69,322.423 63.34,322.111 C 63.178,321.949 63.104,321.862 63.104,321.786 C 63.104,321.648 63.191,321.637 63.302,321.624 C 63.391,321.624 63.516,321.624 63.589,321.613 C 63.665,321.586 63.728,321.537 63.728,321.423 L 63.728,317.416 C 63.728,317.018 63.814,316.717 64.004,316.53 C 64.177,316.343 64.44,316.256 64.776,316.256 C 65.776,316.256 66.025,317.291 66.025,317.454 C 66.025,317.54 65.976,317.578 65.901,317.578 C 65.787,317.578 65.724,317.416 65.627,317.253 C 65.527,317.091 65.389,316.917 65.164,316.917 C 64.925,316.917 64.776,317.018 64.776,317.478 L 64.776,321.326 Z" marker-start="none" marker-end="none"/>
    <path d="M 67.898,321.648 C 67.898,321.973 67.874,322.098 67.697,322.098 C 67.559,322.098 67.31,322.073 67.147,322.073 C 66.912,322.073 66.673,322.098 66.438,322.098 C 66.275,322.098 66.199,321.998 66.199,321.911 C 66.199,321.786 66.275,321.738 66.5,321.71 C 66.749,321.686 66.85,321.599 66.85,321.35 L 66.85,317.692 C 66.85,317.191 67.036,316.855 67.286,316.63 C 67.548,316.405 67.922,316.318 68.31,316.318 C 69.058,316.318 69.508,316.803 69.77,317.028 C 69.846,317.091 69.895,317.128 69.946,317.128 C 69.995,317.128 70.033,317.104 70.033,316.966 L 70.033,316.392 C 70.033,316.294 70.058,316.243 70.095,316.243 C 70.144,316.243 70.182,316.256 70.258,316.281 C 70.432,316.356 70.77,316.492 71.293,316.679 C 71.569,316.779 71.632,316.817 71.643,316.917 C 71.643,317.018 71.58,317.055 71.345,317.08 C 71.12,317.104 71.03,317.218 71.03,317.63 L 71.03,321.336 L 71.03,321.811 C 71.03,322.06 70.944,322.098 70.819,322.098 C 70.57,322.098 70.358,322.073 70.133,322.073 C 69.919,322.073 69.708,322.098 69.532,322.098 C 69.372,322.098 69.283,322.025 69.283,321.925 C 69.283,321.748 69.372,321.762 69.659,321.724 C 69.946,321.675 69.982,321.575 69.982,321.236 L 69.982,317.952 C 69.982,317.727 69.881,317.516 69.732,317.343 C 69.508,317.091 69.158,316.941 68.822,316.941 C 68.259,316.941 67.898,317.253 67.898,317.879 L 67.898,321.648 Z" marker-start="none" marker-end="none"/>
    <path d="M 72.655,317.315 C 72.655,316.866 72.579,316.741 72.191,316.706 C 72.08,316.679 71.994,316.616 71.994,316.516 C 71.994,316.419 72.08,316.356 72.23,316.356 C 72.406,316.356 72.503,316.405 73.167,316.405 C 73.966,316.405 74.126,316.356 74.226,316.356 C 74.327,316.356 74.413,316.392 74.413,316.505 C 74.413,316.616 74.364,316.616 74.039,316.679 C 73.79,316.741 73.703,316.83 73.703,317.091 L 73.703,320.488 C 73.703,320.762 73.852,321.011 74.064,321.198 C 74.278,321.388 74.589,321.499 74.877,321.499 C 75.178,321.499 75.413,321.399 75.576,321.187 C 75.714,321.025 75.787,320.786 75.787,320.499 L 75.787,317.091 C 75.787,316.803 75.662,316.73 75.375,316.668 C 75.25,316.644 75.178,316.592 75.178,316.516 C 75.178,316.392 75.24,316.356 75.389,316.356 C 75.551,316.356 75.714,316.405 76.299,316.405 C 76.925,316.405 77.199,316.356 77.286,316.356 C 77.437,316.356 77.524,316.392 77.524,316.505 C 77.524,316.616 77.448,316.654 77.212,316.679 C 76.987,316.717 76.836,316.817 76.836,317.218 L 76.836,320.638 C 76.825,321.125 76.662,321.499 76.413,321.748 C 76.15,322.011 75.787,322.136 75.389,322.136 C 74.925,322.136 74.565,321.911 74.289,321.71 C 74.015,321.499 73.828,321.298 73.714,321.298 C 73.679,321.298 73.666,321.326 73.652,321.513 L 73.652,321.998 C 73.652,322.111 73.628,322.212 73.565,322.212 C 73.516,322.212 73.454,322.16 73.34,322.087 C 73.167,321.962 72.88,321.786 72.416,321.613 C 72.129,321.513 72.018,321.475 72.018,321.374 C 72.018,321.274 72.08,321.25 72.305,321.225 C 72.592,321.198 72.655,321.15 72.655,320.786 L 72.655,317.315 Z" marker-start="none" marker-end="none"/>
    <path d="M 77.861,320.274 C 77.861,319.564 78.059,318.966 78.658,318.527 C 78.858,318.378 79.021,318.34 79.021,318.277 C 79.021,318.215 78.533,317.966 78.346,317.865 C 77.986,317.654 77.799,317.567 77.799,317.343 C 77.799,317.229 78.021,317.004 78.26,316.779 C 78.471,316.568 78.71,316.367 78.71,316.305 C 78.71,316.243 78.46,316.18 78.197,316.018 C 77.935,315.855 77.685,315.592 77.685,315.132 C 77.685,314.007 78.848,313.658 79.658,313.658 C 81.018,313.658 82.281,314.446 82.281,315.63 C 82.281,316.654 81.744,317.18 80.295,317.204 C 79.983,317.204 79.72,317.18 79.422,317.191 C 79.135,317.204 78.81,317.291 78.81,317.592 C 78.81,317.879 78.997,317.99 80.232,318.315 C 81.118,318.502 81.557,319.315 81.557,320.201 C 81.557,320.499 81.519,320.738 81.468,320.949 C 81.43,321.112 81.381,321.212 81.381,321.263 C 81.381,321.312 81.468,321.312 81.592,321.312 L 81.88,321.312 C 82.132,321.312 82.167,321.388 82.167,321.575 C 82.167,321.786 82.018,321.835 81.768,321.835 L 81.107,321.835 C 80.907,321.835 80.769,321.873 80.644,321.935 C 80.395,322.073 80.083,322.212 79.709,322.212 C 78.56,322.212 77.861,321.25 77.861,320.288 L 77.861,320.274 Z M 79.772,318.516 C 79.246,318.516 78.883,319.226 78.883,320.364 C 78.883,321.475 79.246,321.925 79.647,321.925 C 80.17,321.925 80.533,321.212 80.533,320.076 C 80.533,318.952 80.17,318.516 79.782,318.516 L 79.772,318.516 Z M 79.845,314.032 C 79.097,314.032 78.571,314.481 78.571,315.232 C 78.571,315.544 78.71,315.993 79.035,316.167 C 79.146,316.229 79.533,316.267 79.959,316.267 C 80.769,316.267 81.319,316.094 81.319,315.381 C 81.319,314.969 81.17,314.633 80.907,314.395 C 80.658,314.159 80.295,314.032 79.858,314.032 L 79.845,314.032 Z" marker-start="none" marker-end="none"/>
   </g>
  </g>
  <path d="M 68.214,325.109 L 69.029,320.485 L 81.96,322.765 L 81.144,327.389 L 68.214,325.109 Z" stroke="none" fill="#ed1c24" stroke-width="0.025" fill-rule="nonzero" stroke-linejoin="miter" marker-start="none" marker-end="none"/>
  <g id="Group_2" fill-rule="nonzero" stroke-linejoin="miter" stroke="none" stroke-width="0.025" fill="#ffffff">
   <g id="Group_3">
    <path d="M 69.278,320.821 L 70.04,320.955 L 69.523,323.891 L 69.533,323.893 L 71.114,321.145 L 72.14,321.325 L 71.425,325.383 L 70.664,325.248 L 71.16,322.435 L 71.148,322.433 L 69.579,325.057 L 68.563,324.878 L 69.278,320.821 Z" marker-start="none" marker-end="none"/>
    <path d="M 72.122,323.414 C 72.331,322.223 72.994,321.405 74.057,321.592 C 75.12,321.78 75.469,322.776 75.259,323.967 C 75.049,325.159 74.38,325.976 73.317,325.789 C 72.254,325.602 71.911,324.606 72.122,323.414 Z M 73.01,323.57 C 72.873,324.35 72.935,325.014 73.438,325.103 C 73.941,325.191 74.232,324.59 74.369,323.81 C 74.506,323.032 74.439,322.366 73.936,322.277 C 73.434,322.189 73.147,322.792 73.01,323.57 Z" marker-start="none" marker-end="none"/>
    <path d="M 75.695,321.952 L 78.122,322.381 L 77.993,323.113 L 76.539,322.857 L 77.517,325.691 L 77.386,326.434 L 75.016,326.016 L 75.145,325.284 L 76.542,325.53 L 75.557,322.731 L 75.695,321.952 Z" marker-start="none" marker-end="none"/>
    <path d="M 78.364,322.423 L 78.779,322.496 L 78.695,322.97 L 78.281,322.897 L 78.364,322.423 Z" marker-start="none" marker-end="none"/>
    <path d="M 79.975,323.141 C 79.899,323.091 79.819,323.038 79.724,323.021 C 79.551,322.991 79.336,323.067 79.275,323.415 C 79.263,323.478 79.19,323.895 79.535,323.956 C 79.63,323.972 79.723,323.953 79.812,323.933 L 79.769,324.313 C 79.63,324.328 79.542,324.355 79.393,324.329 C 78.915,324.244 78.714,323.837 78.803,323.331 C 78.856,323.031 79.079,322.523 79.657,322.625 C 79.801,322.65 79.93,322.706 80.056,322.767 L 79.975,323.141 Z" marker-start="none" marker-end="none"/>
    <path d="M 80.257,322.757 L 80.712,322.837 L 80.549,323.76 C 80.511,323.971 80.538,324.12 80.685,324.146 C 80.777,324.162 80.87,324.123 80.907,323.917 L 81.085,322.903 L 81.54,322.983 L 81.35,324.061 C 81.292,324.39 81.136,324.636 80.805,324.578 C 80.641,324.549 80.489,324.434 80.47,324.241 L 80.464,324.24 L 80.294,325.207 L 79.839,325.127 L 80.257,322.757 Z" marker-start="none" marker-end="none"/>
   </g>
  </g>
 </g>
 <g id="Grid" transform="scale(1 -1)"/>
 <g id="Content" transform="scale(1 -1)"/>
 <g id="Sponsoren" transform="scale(1 -1)"/>
 <g id="Layer 1" transform="scale(1 -1)"/>
</svg>
