<?xml version="1.0" standalone="no"?>
<!DOCTYPE svg PUBLIC "-//W3C//DTD SVG 1.1//EN" "http://www.w3.org/Graphics/SVG/1.1/DTD/svg11.dtd">
<!--Generator: Xara Designer (www.xara.com), SVG filter version: 6.6.0.0-->
<svg fill="none" fill-rule="evenodd" stroke="black" stroke-width="0.501" stroke-linejoin="bevel" stroke-miterlimit="10" font-family="Times New Roman" font-size="16" style="font-variant-ligatures:none" xmlns:xlink="http://www.w3.org/1999/xlink" xmlns="http://www.w3.org/2000/svg" version="1.1" overflow="visible" width="23.051pt" height="30.602pt" viewBox="48.225 -309.011 23.051 30.602">
 <defs>
	</defs>
 <g id="Layer 1" transform="scale(1 -1)"/>
 <g id="Sponsoren" transform="scale(1 -1)">
  <g id="Group" fill-rule="nonzero" stroke="none" fill="#009b7c">
   <path d="M 52.309,286.676 C 51.827,287.642 51.697,289.417 51.734,289.714 C 51.771,290.011 51.753,291.274 53.144,291.943 C 54.537,292.612 56.098,292.616 56.283,293.47 C 56.547,294.682 55.643,297.173 54.779,298.983 C 53.608,301.433 51.153,305.108 49.784,306.94 C 49.16,307.778 48.325,308.951 48.225,309.009 C 48.727,308.871 49.588,308.24 50.395,307.464 C 52.246,305.686 55.338,300.951 56.334,298.611 C 56.586,298.016 57.414,296.303 57.666,294.258 C 57.972,291.79 54.723,291.54 53.757,291.014 C 52.286,290.215 52.291,287.55 52.403,286.693 L 52.309,286.676 Z" marker-start="none" marker-end="none"/>
   <path d="M 59.1,286.678 C 58.618,287.643 58.487,289.418 58.525,289.714 C 58.563,290.012 58.544,291.276 59.936,291.945 C 61.329,292.612 62.89,292.616 63.075,293.47 C 63.339,294.683 62.434,297.174 61.569,298.983 C 60.399,301.434 57.943,305.109 56.576,306.943 C 55.951,307.779 55.117,308.951 55.017,309.011 C 55.517,308.872 56.378,308.241 57.187,307.464 C 59.038,305.687 62.131,300.952 63.126,298.614 C 63.379,298.018 64.205,296.303 64.458,294.259 C 64.763,291.791 61.515,291.54 60.549,291.015 C 59.076,290.215 59.082,287.55 59.193,286.696 L 59.1,286.678 Z" marker-start="none" marker-end="none"/>
   <path d="M 65.899,286.676 C 65.416,287.643 65.287,289.418 65.323,289.714 C 65.359,290.011 65.342,291.274 66.734,291.943 C 68.125,292.612 69.688,292.616 69.873,293.47 C 70.135,294.683 69.234,297.173 68.369,298.983 C 67.197,301.434 64.743,305.109 63.374,306.94 C 62.75,307.778 61.916,308.951 61.815,309.009 C 62.318,308.871 63.176,308.24 63.985,307.464 C 65.835,305.686 68.929,300.951 69.924,298.611 C 70.177,298.018 71.003,296.303 71.256,294.258 C 71.563,291.79 68.314,291.54 67.347,291.014 C 65.875,290.215 65.88,287.55 65.991,286.696 L 65.899,286.676 Z" marker-start="none" marker-end="none"/>
   <path d="M 49.034,285.889 L 49.034,285.362 L 70.918,285.362 L 70.918,285.889 L 49.034,285.889 Z" marker-start="none" marker-end="none"/>
   <path d="M 51.475,279.012 C 52.515,279.012 52.681,280.241 52.681,281.092 C 52.681,281.945 52.515,283.174 51.475,283.174 C 50.434,283.174 50.277,281.945 50.277,281.092 C 50.277,280.241 50.434,279.012 51.475,279.012 L 51.475,279.012 Z M 49.449,281.092 C 49.449,282.503 49.878,283.777 51.475,283.777 C 53.072,283.777 53.507,282.503 53.507,281.092 C 53.507,279.69 53.072,278.409 51.475,278.409 C 49.878,278.409 49.449,279.69 49.449,281.092 L 49.449,281.092 Z" marker-start="none" marker-end="none"/>
   <path d="M 55.83,283.694 L 55.83,278.492 L 56.506,278.492 L 56.506,283.694 L 55.83,283.694 Z" marker-start="none" marker-end="none"/>
   <path d="M 60.961,278.461 C 60.788,278.424 60.606,278.409 60.426,278.409 C 59.559,278.409 59.349,278.793 59.349,279.283 L 59.349,281.552 L 58.707,281.552 L 58.707,282.08 L 59.349,282.08 L 59.349,282.925 L 60.026,283.348 L 60.026,282.08 L 61.021,282.08 L 61.021,281.552 L 60.026,281.552 L 60.026,279.637 C 60.026,279.314 60.072,278.935 60.598,278.935 C 60.718,278.935 60.863,278.958 60.961,278.989 L 60.961,278.461 L 60.961,278.461 Z" marker-start="none" marker-end="none"/>
   <path d="M 64.879,281.001 C 64.879,281.228 64.743,281.636 64.222,281.636 C 63.666,281.636 63.508,281.16 63.508,281.001 L 64.879,281.001 L 64.879,281.001 Z M 65.474,278.529 C 65.18,278.461 64.969,278.409 64.577,278.409 C 63.493,278.409 62.799,279.049 62.799,280.458 C 62.799,281.996 63.801,282.163 64.26,282.163 C 65.134,282.163 65.556,281.567 65.556,280.723 L 65.556,280.55 L 63.477,280.55 C 63.477,279.879 63.816,278.935 64.796,278.935 C 65.104,278.935 65.315,279.012 65.474,279.065 L 65.474,278.529 L 65.474,278.529 Z" marker-start="none" marker-end="none"/>
   <path d="M 67.749,282.08 L 68.427,282.08 L 68.427,281.31 L 68.441,281.31 C 68.562,281.613 68.849,282.163 69.58,282.163 C 70.408,282.163 70.544,281.424 70.544,280.978 L 70.544,278.492 L 69.867,278.492 L 69.867,280.452 C 69.867,281.116 69.867,281.485 69.377,281.485 C 68.819,281.485 68.427,280.731 68.427,280.015 L 68.427,278.492 L 67.749,278.492 L 67.749,282.08 L 67.749,282.08 Z" marker-start="none" marker-end="none"/>
  </g>
 </g>
 <g id="Content" transform="scale(1 -1)"/>
 <g id="Logo Vektor" transform="scale(1 -1)"/>
</svg>
