<?xml version="1.0" standalone="no"?>
<!DOCTYPE svg PUBLIC "-//W3C//DTD SVG 1.1//EN" "http://www.w3.org/Graphics/SVG/1.1/DTD/svg11.dtd">
<!--Generator: Xara Designer (www.xara.com), SVG filter version: 6.6.0.9-->
<svg fill="none" fill-rule="evenodd" stroke="black" stroke-width="0.501" stroke-linejoin="bevel" stroke-miterlimit="10" font-family="Times New Roman" font-size="16" style="font-variant-ligatures:none" xmlns:xlink="http://www.w3.org/1999/xlink" xmlns="http://www.w3.org/2000/svg" version="1.1" overflow="visible" width="44.607pt" height="21.442pt" viewBox="0 -21.441 44.607 21.442">
 <defs>
	</defs>
 <g id="Layer 1" transform="scale(1 -1)">
  <g id="Group" fill="#c01f10" stroke-linejoin="miter" stroke="none" stroke-width="0.136">
   <g id="Group_1">
    <path d="M 43.066,10.11 L 42.977,10.11 C 42.312,9.345 41.048,8.48 40.15,8.137 L 40.15,7.937 L 40.748,7.937 L 40.748,4.222 C 40.748,3.015 41.447,2.36 42.511,2.36 C 43.443,2.36 44.174,2.892 44.607,3.568 L 44.563,3.624 C 44.352,3.49 44.075,3.435 43.875,3.435 C 43.364,3.435 43.066,3.679 43.066,4.267 L 43.066,7.937 L 44.397,7.937 L 44.397,8.381 L 43.066,8.381 L 43.066,10.11 M 38.782,10.11 L 38.694,10.11 C 38.028,9.345 36.764,8.48 35.866,8.137 L 35.866,7.937 L 36.465,7.937 L 36.465,4.222 C 36.465,3.015 37.163,2.36 38.228,2.36 C 39.159,2.36 39.891,2.892 40.323,3.568 L 40.279,3.624 C 40.068,3.49 39.792,3.435 39.592,3.435 C 39.082,3.435 38.782,3.679 38.782,4.267 L 38.782,7.937 L 40.112,7.937 L 40.112,8.381 L 38.782,8.381 L 38.782,10.11 M 32.975,3.291 C 32.474,3.291 32.197,3.779 32.197,4.533 C 32.197,5.253 32.431,5.543 32.908,5.731 L 33.241,5.864 L 33.241,3.369 C 33.197,3.325 33.085,3.291 32.975,3.291 M 35.48,6.628 C 35.48,8.127 34.482,8.602 32.864,8.602 C 31.566,8.602 30.324,8.059 30.324,7.095 C 30.324,6.674 30.591,6.385 30.901,6.286 L 32.342,6.463 C 32.276,6.684 32.21,7.118 32.21,7.427 C 32.21,8.026 32.376,8.437 32.764,8.437 C 33.13,8.437 33.241,8.081 33.241,7.559 L 33.241,6.063 L 31.677,5.543 C 30.668,5.209 30.002,4.756 30.002,3.868 C 30.002,2.914 30.757,2.404 31.622,2.404 C 32.342,2.404 32.941,2.804 33.252,3.236 C 33.429,2.714 33.961,2.36 34.638,2.36 C 35.303,2.36 35.913,2.737 36.211,3.226 L 36.168,3.28 C 36.113,3.258 36.012,3.226 35.88,3.226 C 35.624,3.226 35.48,3.381 35.48,3.679 L 35.48,6.628 M 29.492,11.153 L 29.446,11.153 L 26.62,10.487 L 26.62,10.443 L 27.208,9.766 L 27.208,3.025 C 27.208,2.692 27.03,2.659 26.62,2.627 L 26.62,2.47 L 30.08,2.47 L 30.08,2.627 C 29.669,2.659 29.492,2.692 29.492,3.025 L 29.492,11.153 M 23.15,2.549 C 22.674,2.549 22.474,3.058 22.474,3.791 L 22.474,7.295 C 22.652,7.382 22.807,7.404 22.984,7.404 C 23.727,7.404 24.26,6.696 24.26,5.132 C 24.26,3.679 23.894,2.549 23.15,2.549 M 20.19,9.766 L 20.19,3.114 C 20.944,2.537 22.131,2.36 23.162,2.36 C 24.969,2.36 26.589,3.635 26.589,5.864 C 26.589,7.537 25.723,8.602 24.382,8.602 C 23.461,8.602 22.762,7.97 22.474,7.394 L 22.474,11.153 L 22.43,11.153 L 19.603,10.487 L 19.603,10.443 L 20.19,9.766 M 17.652,1.994 C 18.162,1.994 18.473,1.805 18.473,1.329 C 18.473,0.497 17.541,0.153 16.621,0.153 C 15.568,0.153 14.747,0.653 14.747,1.439 C 14.747,1.717 14.814,1.894 14.958,1.994 L 17.652,1.994 M 19.936,2.438 C 19.936,3.49 19.216,4.023 17.83,4.023 L 15.302,4.023 C 15.068,4.023 14.958,4.157 14.958,4.322 C 14.958,4.533 15.102,4.733 15.257,4.865 C 15.667,4.71 16.122,4.644 16.543,4.644 C 18.041,4.644 19.293,5.409 19.293,6.73 C 19.293,7.261 18.96,7.715 18.495,8.037 L 19.669,7.737 L 19.748,7.737 L 19.748,8.58 L 17.64,8.447 C 17.307,8.547 16.964,8.602 16.642,8.602 C 15.147,8.602 13.893,7.838 13.893,6.519 C 13.893,5.709 14.437,5.187 15.147,4.899 C 14.414,4.622 13.805,4.112 13.805,3.302 C 13.805,2.605 14.348,2.237 14.858,2.028 C 14.292,2.028 13.572,1.728 13.572,1.174 C 13.572,0.386 14.88,-0.001 16.366,-0.001 C 18.539,-0.001 19.936,0.996 19.936,2.438 M 16.642,4.788 C 16.2,4.788 15.978,5.641 15.978,6.839 C 15.978,7.849 16.099,8.459 16.543,8.459 C 16.987,8.459 17.209,7.605 17.209,6.451 C 17.209,5.398 17.086,4.788 16.642,4.788 M 10.575,3.291 C 10.076,3.291 9.799,3.779 9.799,4.533 C 9.799,5.253 10.032,5.543 10.508,5.731 L 10.841,5.864 L 10.841,3.369 C 10.797,3.325 10.686,3.291 10.575,3.291 M 13.081,6.628 C 13.081,8.127 12.083,8.602 10.464,8.602 C 9.167,8.602 7.924,8.059 7.924,7.095 C 7.924,6.674 8.191,6.385 8.501,6.286 L 9.943,6.463 C 9.876,6.684 9.81,7.118 9.81,7.427 C 9.81,8.026 9.976,8.437 10.364,8.437 C 10.73,8.437 10.841,8.081 10.841,7.559 L 10.841,6.063 L 9.277,5.543 C 8.268,5.209 7.603,4.756 7.603,3.868 C 7.603,2.914 8.357,2.404 9.222,2.404 C 9.943,2.404 10.542,2.804 10.852,3.236 C 11.029,2.714 11.562,2.36 12.238,2.36 C 12.904,2.36 13.513,2.737 13.812,3.226 L 13.768,3.28 C 13.713,3.258 13.613,3.226 13.48,3.226 C 13.225,3.226 13.081,3.381 13.081,3.679 L 13.081,6.628 M 0.166,10.254 L 0,7.36 L 0.123,7.36 C 0.887,9.489 1.641,10.033 2.362,10.033 L 2.628,10.033 L 2.628,3.335 C 2.628,2.77 2.473,2.726 1.752,2.648 L 1.752,2.47 L 5.933,2.47 L 5.933,2.648 C 5.212,2.726 5.057,2.77 5.057,3.335 L 5.057,10.033 L 5.322,10.033 C 6.043,10.033 6.797,9.489 7.562,7.36 L 7.684,7.36 L 7.518,10.254 L 0.166,10.254 Z" marker-start="none" marker-end="none"/>
    <path d="M 31.433,16.739 L 31.479,18.89 L 31.433,18.89 L 28.563,18.226 L 28.563,18.18 L 29.15,17.504 L 29.15,13.313 C 29.15,12.98 28.973,12.947 28.563,12.913 L 28.563,12.76 L 32.265,12.76 L 32.265,12.913 C 31.711,12.969 31.433,13.036 31.433,13.368 L 31.433,16.606 C 31.911,16.895 32.565,16.917 33.275,16.917 L 33.563,16.917 L 33.563,18.747 C 33.441,18.825 33.253,18.89 33.008,18.89 C 32.154,18.89 31.645,17.981 31.433,16.739 M 25.802,18.713 C 26.334,18.713 26.556,17.848 26.556,16.65 L 24.947,16.65 C 24.97,17.748 25.224,18.713 25.802,18.713 M 28.507,14.843 L 28.452,14.865 C 28.042,14.344 27.443,14.135 26.821,14.135 C 25.702,14.135 24.992,14.933 24.947,16.417 L 28.496,16.417 L 28.496,16.484 C 28.496,17.792 27.654,18.89 25.989,18.89 C 24.349,18.89 22.918,17.482 22.918,15.641 C 22.918,13.723 24.261,12.648 25.846,12.648 C 27.232,12.648 28.274,13.502 28.507,14.843 M 20.066,13.313 C 20.066,12.98 19.889,12.947 19.478,12.913 L 19.478,12.76 L 22.937,12.76 L 22.937,12.913 C 22.527,12.947 22.349,12.98 22.349,13.313 L 22.349,17.072 C 22.349,18.191 21.729,18.89 20.654,18.89 C 19.71,18.89 18.878,18.158 18.557,17.637 L 18.602,18.89 L 18.557,18.89 L 15.686,18.226 L 15.686,18.18 L 16.274,17.504 L 16.274,13.313 C 16.274,12.98 16.096,12.947 15.686,12.913 L 15.686,12.76 L 19.146,12.76 L 19.146,12.913 C 18.735,12.947 18.557,12.98 18.557,13.313 L 18.557,17.56 C 18.813,17.648 19.034,17.704 19.345,17.704 C 19.9,17.704 20.066,17.394 20.066,16.984 L 20.066,13.313 M 14.254,20.398 L 14.165,20.398 C 13.5,19.633 12.236,18.769 11.337,18.425 L 11.337,18.226 L 11.936,18.226 L 11.936,14.51 C 11.936,13.301 12.635,12.648 13.699,12.648 C 14.631,12.648 15.362,13.18 15.794,13.856 L 15.75,13.912 C 15.54,13.778 15.263,13.723 15.063,13.723 C 14.553,13.723 14.254,13.967 14.254,14.555 L 14.254,18.226 L 15.584,18.226 L 15.584,18.668 L 14.254,18.668 L 14.254,20.398 M 10.922,21.441 L 10.878,21.441 L 8.05,20.775 L 8.05,20.731 L 8.638,20.054 L 8.638,13.313 C 8.638,12.98 8.46,12.947 8.05,12.913 L 8.05,12.76 L 11.509,12.76 L 11.509,12.913 C 11.099,12.947 10.922,12.98 10.922,13.313 L 10.922,21.441 M 3.981,20.498 C 5.034,20.498 5.411,18.757 5.411,16.484 C 5.411,14.743 5.134,12.803 4.092,12.803 C 3.039,12.803 2.662,14.545 2.662,16.816 C 2.662,18.558 2.937,20.498 3.981,20.498 M 4.147,20.653 C 1.895,20.653 0.111,18.934 0.111,16.495 C 0.111,14.421 1.519,12.648 3.925,12.648 C 6.177,12.648 7.961,14.366 7.961,16.805 C 7.961,18.879 6.553,20.653 4.147,20.653"/>
   </g>
  </g>
 </g>
</svg>
