<?xml version="1.0" standalone="no"?>
<!DOCTYPE svg PUBLIC "-//W3C//DTD SVG 1.1//EN" "http://www.w3.org/Graphics/SVG/1.1/DTD/svg11.dtd">
<!--Generator: Xara Designer (www.xara.com), SVG filter version: 6.6.0.0-->
<svg fill="none" fill-rule="evenodd" stroke="black" stroke-width="0.501" stroke-linejoin="bevel" stroke-miterlimit="10" font-family="Times New Roman" font-size="16" style="font-variant-ligatures:none" xmlns:xlink="http://www.w3.org/1999/xlink" xmlns="http://www.w3.org/2000/svg" version="1.1" overflow="visible" width="44.607pt" height="21.442pt" viewBox="48.225 -473.678 44.607 21.442">
 <defs>
	</defs>
 <g id="Layer 1" transform="scale(1 -1)"/>
 <g id="Sponsoren" transform="scale(1 -1)"/>
 <g id="Content" transform="scale(1 -1)">
  <g id="Group" stroke-linejoin="miter" stroke="none" stroke-width="0.136" fill="#7c281f">
   <path d="M 91.291,462.348 L 91.202,462.348 C 90.537,461.583 89.273,460.718 88.375,460.375 L 88.375,460.175 L 88.973,460.175 L 88.973,456.46 C 88.973,455.252 89.672,454.598 90.736,454.598 C 91.668,454.598 92.399,455.13 92.832,455.806 L 92.788,455.862 C 92.577,455.728 92.3,455.673 92.1,455.673 C 91.59,455.673 91.291,455.917 91.291,456.505 L 91.291,460.175 L 92.622,460.175 L 92.622,460.618 L 91.291,460.618 L 91.291,462.348 M 87.007,462.348 L 86.919,462.348 C 86.253,461.583 84.989,460.718 84.091,460.375 L 84.091,460.175 L 84.69,460.175 L 84.69,456.46 C 84.69,455.252 85.388,454.598 86.453,454.598 C 87.384,454.598 88.116,455.13 88.548,455.806 L 88.504,455.862 C 88.293,455.728 88.017,455.673 87.817,455.673 C 87.307,455.673 87.007,455.917 87.007,456.505 L 87.007,460.175 L 88.337,460.175 L 88.337,460.618 L 87.007,460.618 L 87.007,462.348 M 81.2,455.529 C 80.7,455.529 80.423,456.017 80.423,456.771 C 80.423,457.491 80.656,457.781 81.133,457.969 L 81.466,458.101 L 81.466,455.607 C 81.422,455.562 81.31,455.529 81.2,455.529 M 83.705,458.866 C 83.705,460.364 82.707,460.84 81.089,460.84 C 79.791,460.84 78.549,460.297 78.549,459.333 C 78.549,458.911 78.816,458.623 79.126,458.523 L 80.567,458.7 C 80.501,458.922 80.435,459.355 80.435,459.665 C 80.435,460.264 80.601,460.674 80.989,460.674 C 81.355,460.674 81.466,460.319 81.466,459.797 L 81.466,458.301 L 79.902,457.781 C 78.893,457.447 78.228,456.993 78.228,456.105 C 78.228,455.152 78.982,454.642 79.847,454.642 C 80.567,454.642 81.166,455.042 81.477,455.474 C 81.654,454.952 82.187,454.598 82.863,454.598 C 83.528,454.598 84.138,454.975 84.437,455.463 L 84.393,455.518 C 84.338,455.496 84.237,455.463 84.105,455.463 C 83.849,455.463 83.705,455.618 83.705,455.917 L 83.705,458.866 M 77.717,463.391 L 77.672,463.391 L 74.845,462.725 L 74.845,462.681 L 75.433,462.004 L 75.433,455.263 C 75.433,454.93 75.256,454.897 74.845,454.864 L 74.845,454.708 L 78.305,454.708 L 78.305,454.864 C 77.895,454.897 77.717,454.93 77.717,455.263 L 77.717,463.391 M 71.375,454.786 C 70.899,454.786 70.7,455.296 70.7,456.028 L 70.7,459.532 C 70.877,459.62 71.032,459.642 71.209,459.642 C 71.952,459.642 72.485,458.933 72.485,457.37 C 72.485,455.917 72.119,454.786 71.375,454.786 M 68.415,462.004 L 68.415,455.351 C 69.169,454.775 70.356,454.598 71.387,454.598 C 73.194,454.598 74.814,455.873 74.814,458.101 C 74.814,459.775 73.948,460.84 72.607,460.84 C 71.687,460.84 70.987,460.208 70.7,459.632 L 70.7,463.391 L 70.655,463.391 L 67.828,462.725 L 67.828,462.681 L 68.415,462.004 M 65.877,454.232 C 66.387,454.232 66.698,454.043 66.698,453.566 C 66.698,452.735 65.766,452.391 64.846,452.391 C 63.793,452.391 62.972,452.891 62.972,453.677 C 62.972,453.954 63.039,454.132 63.183,454.232 L 65.877,454.232 M 68.161,454.676 C 68.161,455.728 67.441,456.261 66.055,456.261 L 63.527,456.261 C 63.293,456.261 63.183,456.394 63.183,456.56 C 63.183,456.771 63.327,456.971 63.482,457.103 C 63.892,456.948 64.347,456.881 64.769,456.881 C 66.266,456.881 67.518,457.647 67.518,458.967 C 67.518,459.499 67.185,459.953 66.72,460.275 L 67.895,459.975 L 67.973,459.975 L 67.973,460.818 L 65.866,460.685 C 65.533,460.785 65.189,460.84 64.868,460.84 C 63.372,460.84 62.118,460.075 62.118,458.756 C 62.118,457.946 62.662,457.425 63.372,457.137 C 62.639,456.859 62.03,456.35 62.03,455.54 C 62.03,454.842 62.573,454.475 63.083,454.265 C 62.517,454.265 61.797,453.966 61.797,453.411 C 61.797,452.624 63.105,452.236 64.591,452.236 C 66.764,452.236 68.161,453.234 68.161,454.676 M 64.868,457.026 C 64.425,457.026 64.203,457.879 64.203,459.077 C 64.203,460.087 64.325,460.696 64.769,460.696 C 65.212,460.696 65.434,459.842 65.434,458.689 C 65.434,457.636 65.312,457.026 64.868,457.026 M 58.8,455.529 C 58.301,455.529 58.024,456.017 58.024,456.771 C 58.024,457.491 58.257,457.781 58.733,457.969 L 59.066,458.101 L 59.066,455.607 C 59.022,455.562 58.911,455.529 58.8,455.529 M 61.306,458.866 C 61.306,460.364 60.308,460.84 58.689,460.84 C 57.392,460.84 56.149,460.297 56.149,459.333 C 56.149,458.911 56.416,458.623 56.726,458.523 L 58.168,458.7 C 58.101,458.922 58.035,459.355 58.035,459.665 C 58.035,460.264 58.201,460.674 58.589,460.674 C 58.955,460.674 59.066,460.319 59.066,459.797 L 59.066,458.301 L 57.502,457.781 C 56.493,457.447 55.828,456.993 55.828,456.105 C 55.828,455.152 56.582,454.642 57.447,454.642 C 58.168,454.642 58.767,455.042 59.077,455.474 C 59.254,454.952 59.787,454.598 60.463,454.598 C 61.129,454.598 61.738,454.975 62.037,455.463 L 61.993,455.518 C 61.938,455.496 61.838,455.463 61.705,455.463 C 61.45,455.463 61.306,455.618 61.306,455.917 L 61.306,458.866 M 48.392,462.492 L 48.225,459.598 L 48.348,459.598 C 49.112,461.727 49.866,462.271 50.587,462.271 L 50.853,462.271 L 50.853,455.573 C 50.853,455.008 50.698,454.963 49.977,454.886 L 49.977,454.708 L 54.158,454.708 L 54.158,454.886 C 53.437,454.963 53.282,455.008 53.282,455.573 L 53.282,462.271 L 53.547,462.271 C 54.268,462.271 55.022,461.727 55.787,459.598 L 55.909,459.598 L 55.743,462.492 L 48.392,462.492 Z" marker-start="none" marker-end="none"/>
   <path d="M 79.659,468.977 L 79.704,471.128 L 79.659,471.128 L 76.788,470.463 L 76.788,470.418 L 77.375,469.742 L 77.375,465.551 C 77.375,465.218 77.198,465.185 76.788,465.151 L 76.788,464.997 L 80.491,464.997 L 80.491,465.151 C 79.937,465.207 79.659,465.274 79.659,465.606 L 79.659,468.844 C 80.136,469.133 80.79,469.155 81.5,469.155 L 81.788,469.155 L 81.788,470.984 C 81.666,471.062 81.478,471.128 81.233,471.128 C 80.38,471.128 79.87,470.219 79.659,468.977 M 74.027,470.951 C 74.559,470.951 74.781,470.086 74.781,468.888 L 73.173,468.888 C 73.195,469.986 73.45,470.951 74.027,470.951 M 76.732,467.081 L 76.677,467.103 C 76.267,466.582 75.668,466.372 75.047,466.372 C 73.927,466.372 73.217,467.17 73.173,468.655 L 76.721,468.655 L 76.721,468.722 C 76.721,470.03 75.879,471.128 74.215,471.128 C 72.574,471.128 71.144,469.72 71.144,467.879 C 71.144,465.961 72.486,464.886 74.071,464.886 C 75.457,464.886 76.499,465.739 76.732,467.081 M 68.291,465.551 C 68.291,465.218 68.114,465.185 67.703,465.151 L 67.703,464.997 L 71.162,464.997 L 71.162,465.151 C 70.752,465.185 70.575,465.218 70.575,465.551 L 70.575,469.31 C 70.575,470.429 69.954,471.128 68.879,471.128 C 67.936,471.128 67.104,470.396 66.783,469.875 L 66.827,471.128 L 66.783,471.128 L 63.911,470.463 L 63.911,470.418 L 64.499,469.742 L 64.499,465.551 C 64.499,465.218 64.321,465.185 63.911,465.151 L 63.911,464.997 L 67.371,464.997 L 67.371,465.151 C 66.96,465.185 66.783,465.218 66.783,465.551 L 66.783,469.798 C 67.038,469.886 67.259,469.942 67.57,469.942 C 68.125,469.942 68.291,469.631 68.291,469.221 L 68.291,465.551 M 62.479,472.636 L 62.39,472.636 C 61.725,471.871 60.461,471.006 59.562,470.663 L 59.562,470.463 L 60.161,470.463 L 60.161,466.748 C 60.161,465.539 60.86,464.886 61.924,464.886 C 62.856,464.886 63.587,465.418 64.02,466.094 L 63.975,466.15 C 63.765,466.016 63.488,465.961 63.288,465.961 C 62.778,465.961 62.479,466.205 62.479,466.793 L 62.479,470.463 L 63.809,470.463 L 63.809,470.906 L 62.479,470.906 L 62.479,472.636 M 59.147,473.678 L 59.103,473.678 L 56.275,473.013 L 56.275,472.969 L 56.863,472.292 L 56.863,465.551 C 56.863,465.218 56.685,465.185 56.275,465.151 L 56.275,464.997 L 59.734,464.997 L 59.734,465.151 C 59.324,465.185 59.147,465.218 59.147,465.551 L 59.147,473.678 M 52.206,472.736 C 53.259,472.736 53.636,470.995 53.636,468.722 C 53.636,466.981 53.359,465.041 52.317,465.041 C 51.264,465.041 50.887,466.782 50.887,469.054 C 50.887,470.795 51.163,472.736 52.206,472.736 M 52.372,472.891 C 50.121,472.891 48.336,471.172 48.336,468.733 C 48.336,466.659 49.744,464.886 52.15,464.886 C 54.402,464.886 56.186,466.604 56.186,469.043 C 56.186,471.117 54.778,472.891 52.372,472.891"/>
  </g>
 </g>
 <g id="Logo Vektor" transform="scale(1 -1)"/>
</svg>
