<?xml version="1.0" standalone="no"?>
<!DOCTYPE svg PUBLIC "-//W3C//DTD SVG 1.1//EN" "http://www.w3.org/Graphics/SVG/1.1/DTD/svg11.dtd">
<!--Generator: Xara Designer (www.xara.com), SVG filter version: 6.6.0.0-->
<svg fill="none" fill-rule="evenodd" stroke="black" stroke-width="0.501" stroke-linejoin="bevel" stroke-miterlimit="10" font-family="Times New Roman" font-size="16" style="font-variant-ligatures:none" xmlns:xlink="http://www.w3.org/1999/xlink" xmlns="http://www.w3.org/2000/svg" version="1.1" overflow="visible" width="218.942pt" height="40.652pt" viewBox="32.278 -71.326 218.942 40.652">
 <defs>
	</defs>
 <g id="Layer 1" transform="scale(1 -1)">
  <g id="Group" stroke-linecap="round" stroke="none">
   <g id="Group_1" fill-rule="nonzero" stroke-linejoin="round" stroke-width="0.394" fill="#000000">
    <g id="Group_2">
     <path d="M 105.543,36.217 C 105.548,35.437 105.691,34.712 105.973,34.042 C 106.254,33.372 106.647,32.786 107.149,32.282 C 107.652,31.779 108.237,31.386 108.905,31.104 C 109.573,30.822 110.295,30.679 111.071,30.674 C 111.836,30.679 112.55,30.823 113.214,31.106 C 113.879,31.388 114.463,31.78 114.967,32.28 C 115.471,32.781 115.865,33.362 116.149,34.022 C 116.433,34.683 116.578,35.393 116.583,36.154 C 116.578,36.915 116.433,37.625 116.149,38.286 C 115.865,38.946 115.471,39.527 114.967,40.028 C 114.463,40.528 113.879,40.92 113.214,41.203 C 112.55,41.485 111.836,41.629 111.071,41.634 C 110.31,41.628 109.597,41.484 108.931,41.201 C 108.266,40.918 107.68,40.528 107.173,40.03 C 106.666,39.531 106.269,38.957 105.981,38.306 C 105.694,37.655 105.548,36.958 105.543,36.217 Z M 107.496,36.185 C 107.499,36.685 107.594,37.153 107.78,37.589 C 107.966,38.024 108.223,38.408 108.551,38.741 C 108.879,39.073 109.258,39.333 109.688,39.521 C 110.118,39.708 110.579,39.804 111.071,39.807 C 111.566,39.804 112.028,39.708 112.457,39.52 C 112.886,39.332 113.263,39.071 113.589,38.737 C 113.914,38.403 114.168,38.016 114.351,37.575 C 114.534,37.135 114.627,36.661 114.63,36.154 C 114.627,35.647 114.534,35.173 114.351,34.733 C 114.168,34.293 113.915,33.905 113.591,33.571 C 113.267,33.237 112.891,32.976 112.464,32.788 C 112.037,32.6 111.578,32.504 111.087,32.501 C 110.584,32.504 110.115,32.6 109.682,32.788 C 109.248,32.977 108.868,33.24 108.541,33.575 C 108.214,33.911 107.959,34.301 107.776,34.746 C 107.592,35.191 107.499,35.67 107.496,36.185 Z" marker-start="none" marker-end="none"/>
     <path d="M 118.163,30.878 L 123.849,30.878 L 123.849,32.704 L 120.116,32.704 L 120.116,35.208 L 123.691,35.208 L 123.691,37.034 L 120.116,37.034 L 120.116,39.604 L 123.849,39.604 L 123.849,41.43 L 118.163,41.43 L 118.163,30.878 Z" marker-start="none" marker-end="none"/>
     <path d="M 126.653,30.878 L 128.606,30.878 L 128.606,39.604 L 130.559,39.604 L 130.559,41.43 L 124.7,41.43 L 124.7,39.604 L 126.653,39.604 L 126.653,30.878 Z" marker-start="none" marker-end="none"/>
     <path d="M 131.694,30.878 L 133.647,30.878 L 133.647,41.43 L 131.694,41.43 L 131.694,30.878 Z" marker-start="none" marker-end="none"/>
     <path d="M 135.854,30.878 L 137.807,30.878 L 137.807,35.508 L 141.13,30.878 L 143.43,30.878 L 139.445,36.248 L 143.43,41.43 L 141.13,41.43 L 137.807,36.863 L 137.807,41.43 L 135.854,41.43 L 135.854,30.878 Z" marker-start="none" marker-end="none"/>
     <path d="M 144.314,30.878 L 150,30.878 L 150,32.704 L 146.267,32.704 L 146.267,35.208 L 149.842,35.208 L 149.842,37.034 L 146.267,37.034 L 146.267,39.604 L 150,39.604 L 150,41.43 L 144.314,41.43 L 144.314,30.878 Z" marker-start="none" marker-end="none"/>
     <path d="M 151.59,30.878 L 153.543,30.878 L 153.543,34.91 L 156.363,30.878 L 158.725,30.878 L 155.874,34.784 C 156.134,34.846 156.36,34.912 156.552,34.981 C 156.743,35.051 156.917,35.133 157.071,35.227 C 157.226,35.322 157.378,35.437 157.528,35.572 C 157.755,35.774 157.951,36.014 158.115,36.291 C 158.279,36.568 158.406,36.868 158.495,37.189 C 158.584,37.51 158.629,37.837 158.631,38.171 C 158.629,38.647 158.533,39.096 158.343,39.517 C 158.153,39.938 157.876,40.308 157.512,40.627 C 157.299,40.815 157.064,40.969 156.807,41.087 C 156.55,41.205 156.259,41.292 155.934,41.347 C 155.609,41.403 155.237,41.43 154.819,41.43 L 151.59,41.43 L 151.59,30.878 Z M 153.543,36.391 L 153.543,39.604 L 154.803,39.604 C 155.183,39.602 155.513,39.535 155.793,39.405 C 156.073,39.274 156.29,39.09 156.444,38.852 C 156.597,38.615 156.675,38.335 156.678,38.013 C 156.673,37.504 156.505,37.108 156.176,36.824 C 155.846,36.54 155.383,36.395 154.787,36.391 L 153.543,36.391 Z" marker-start="none" marker-end="none"/>
     <path d="M 162.396,32.785 L 163.814,32.785 L 163.814,35.447 L 166.492,35.447 L 166.492,36.865 L 163.814,36.865 L 163.814,39.542 L 162.396,39.542 L 162.396,36.865 L 159.734,36.865 L 159.734,35.447 L 162.396,35.447 L 162.396,32.785 Z" marker-start="none" marker-end="none"/>
     <path d="M 168.049,30.878 L 170.002,30.878 L 170.002,34.912 L 170.679,34.912 C 171.085,34.911 171.428,34.918 171.707,34.931 C 171.986,34.944 172.223,34.969 172.417,35.005 C 172.612,35.04 172.785,35.091 172.936,35.158 C 173.087,35.224 173.238,35.31 173.388,35.416 C 173.678,35.618 173.927,35.865 174.136,36.157 C 174.345,36.449 174.506,36.772 174.619,37.125 C 174.731,37.479 174.788,37.848 174.79,38.234 C 174.788,38.805 174.666,39.32 174.423,39.779 C 174.181,40.238 173.831,40.615 173.372,40.91 C 173.214,41.016 173.054,41.103 172.894,41.171 C 172.734,41.239 172.556,41.292 172.36,41.329 C 172.164,41.367 171.933,41.393 171.667,41.408 C 171.4,41.423 171.082,41.43 170.711,41.43 L 168.049,41.43 L 168.049,30.878 Z M 170.002,36.738 L 170.002,39.604 L 170.711,39.604 C 170.968,39.604 171.166,39.601 171.306,39.595 C 171.445,39.59 171.56,39.578 171.649,39.559 C 171.737,39.541 171.834,39.514 171.939,39.478 C 172.218,39.379 172.436,39.218 172.595,38.996 C 172.753,38.773 172.834,38.514 172.837,38.218 C 172.835,38.022 172.796,37.835 172.719,37.658 C 172.643,37.481 172.537,37.326 172.403,37.193 C 172.268,37.06 172.114,36.961 171.939,36.896 C 171.791,36.841 171.611,36.801 171.398,36.776 C 171.185,36.75 170.929,36.738 170.632,36.738 L 170.002,36.738 Z" marker-start="none" marker-end="none"/>
     <path d="M 174.284,30.878 L 176.442,30.878 L 177.607,33.605 L 181.355,33.605 L 182.474,30.878 L 184.632,30.878 L 180.206,41.43 L 178.678,41.43 L 174.284,30.878 Z M 178.316,35.431 L 179.45,38.674 L 180.584,35.431 L 178.316,35.431 Z" marker-start="none" marker-end="none"/>
     <path d="M 185.59,30.878 L 187.543,30.878 L 187.543,34.91 L 190.363,30.878 L 192.725,30.878 L 189.874,34.784 C 190.134,34.846 190.36,34.912 190.552,34.981 C 190.743,35.051 190.917,35.133 191.071,35.227 C 191.226,35.322 191.378,35.437 191.528,35.572 C 191.755,35.774 191.951,36.014 192.115,36.291 C 192.279,36.568 192.406,36.868 192.495,37.189 C 192.584,37.51 192.629,37.837 192.631,38.171 C 192.629,38.647 192.533,39.096 192.343,39.517 C 192.153,39.938 191.876,40.308 191.512,40.627 C 191.299,40.815 191.064,40.969 190.807,41.087 C 190.55,41.205 190.259,41.292 189.934,41.347 C 189.609,41.403 189.237,41.43 188.819,41.43 L 185.59,41.43 L 185.59,30.878 Z M 187.543,36.391 L 187.543,39.604 L 188.803,39.604 C 189.183,39.602 189.513,39.535 189.793,39.405 C 190.073,39.274 190.29,39.09 190.444,38.852 C 190.597,38.615 190.675,38.335 190.678,38.013 C 190.673,37.504 190.505,37.108 190.176,36.824 C 189.846,36.54 189.383,36.395 188.787,36.391 L 187.543,36.391 Z" marker-start="none" marker-end="none"/>
     <path d="M 195.246,30.878 L 197.199,30.878 L 197.199,39.604 L 199.152,39.604 L 199.152,41.43 L 193.293,41.43 L 193.293,39.604 L 195.246,39.604 L 195.246,30.878 Z" marker-start="none" marker-end="none"/>
     <path d="M 200.287,30.878 L 202.24,30.878 L 202.24,38.548 L 206.665,30.878 L 208.854,30.878 L 208.854,41.43 L 206.901,41.43 L 206.901,33.744 L 202.508,41.43 L 200.287,41.43 L 200.287,30.878 Z" marker-start="none" marker-end="none"/>
     <path d="M 210.808,30.878 L 216.494,30.878 L 216.494,32.704 L 212.761,32.704 L 212.761,35.208 L 216.336,35.208 L 216.336,37.034 L 212.761,37.034 L 212.761,39.604 L 216.494,39.604 L 216.494,41.43 L 210.808,41.43 L 210.808,30.878 Z" marker-start="none" marker-end="none"/>
     <path d="M 218.084,30.878 L 220.037,30.878 L 220.037,34.91 L 222.857,30.878 L 225.219,30.878 L 222.368,34.784 C 222.628,34.846 222.854,34.912 223.046,34.981 C 223.237,35.051 223.411,35.133 223.565,35.227 C 223.72,35.322 223.872,35.437 224.022,35.572 C 224.249,35.774 224.445,36.014 224.609,36.291 C 224.773,36.568 224.9,36.868 224.989,37.189 C 225.078,37.51 225.123,37.837 225.125,38.171 C 225.123,38.647 225.027,39.096 224.837,39.517 C 224.647,39.938 224.37,40.308 224.006,40.627 C 223.793,40.815 223.558,40.969 223.301,41.087 C 223.044,41.205 222.753,41.292 222.428,41.347 C 222.103,41.403 221.731,41.43 221.313,41.43 L 218.084,41.43 L 218.084,30.878 Z M 220.037,36.391 L 220.037,39.604 L 221.297,39.604 C 221.677,39.602 222.007,39.535 222.287,39.405 C 222.567,39.274 222.784,39.09 222.938,38.852 C 223.091,38.615 223.169,38.335 223.172,38.013 C 223.167,37.504 222.999,37.108 222.67,36.824 C 222.34,36.54 221.877,36.395 221.281,36.391 L 220.037,36.391 Z" marker-start="none" marker-end="none"/>
     <path d="M 229.582,30.878 L 231.74,30.878 L 232.905,33.605 L 236.653,33.605 L 237.772,30.878 L 239.93,30.878 L 235.504,41.43 L 233.976,41.43 L 229.582,30.878 Z M 233.614,35.431 L 234.748,38.674 L 235.882,35.431 L 233.614,35.431 Z" marker-start="none" marker-end="none"/>
     <path d="M 239.958,36.155 C 239.963,35.39 240.111,34.678 240.403,34.016 C 240.695,33.355 241.1,32.775 241.618,32.275 C 242.136,31.775 242.736,31.384 243.42,31.103 C 244.103,30.822 244.84,30.679 245.628,30.674 C 246.231,30.677 246.816,30.77 247.384,30.956 C 247.951,31.142 248.477,31.407 248.96,31.752 C 249.444,32.097 249.861,32.51 250.212,32.989 C 250.557,33.466 250.812,33.97 250.976,34.502 C 251.14,35.034 251.221,35.616 251.22,36.25 L 244.337,36.25 L 244.337,34.424 L 248.763,34.424 C 248.561,34.028 248.302,33.686 247.986,33.4 C 247.67,33.113 247.313,32.892 246.915,32.736 C 246.517,32.581 246.093,32.502 245.644,32.501 C 245.117,32.503 244.628,32.597 244.177,32.781 C 243.726,32.965 243.331,33.222 242.992,33.55 C 242.653,33.879 242.389,34.263 242.2,34.701 C 242.01,35.139 241.914,35.613 241.911,36.124 C 241.912,36.431 241.955,36.743 242.04,37.06 C 242.125,37.376 242.243,37.677 242.396,37.964 C 242.549,38.251 242.729,38.503 242.935,38.721 C 243.264,39.07 243.654,39.337 244.104,39.524 C 244.555,39.711 245.032,39.806 245.534,39.807 C 245.919,39.806 246.288,39.747 246.64,39.631 C 246.992,39.514 247.315,39.347 247.609,39.129 C 247.904,38.911 248.157,38.649 248.369,38.344 L 250.7,38.344 C 250.527,38.814 250.27,39.249 249.929,39.648 C 249.588,40.047 249.187,40.394 248.725,40.691 C 248.264,40.988 247.765,41.218 247.229,41.383 C 246.693,41.547 246.144,41.631 245.581,41.634 C 244.804,41.629 244.077,41.484 243.4,41.2 C 242.723,40.917 242.127,40.524 241.612,40.022 C 241.097,39.52 240.694,38.939 240.402,38.28 C 240.111,37.62 239.963,36.912 239.958,36.155 Z" marker-start="none" marker-end="none"/>
    </g>
   </g>
   <path d="M 44.717,32.274 C 42.215,33.297 40.036,34.734 38.177,36.583 C 36.319,38.434 34.874,40.607 33.845,43.102 C 32.815,45.597 32.293,48.323 32.278,51.283 C 32.296,54.098 32.828,56.717 33.876,59.137 C 34.926,61.558 36.386,63.678 38.257,65.502 C 40.127,67.324 42.305,68.747 44.791,69.768 C 47.275,70.79 49.962,71.309 52.852,71.326 C 55.77,71.309 58.481,70.786 60.982,69.755 C 63.481,68.725 65.671,67.287 67.55,65.443 C 69.427,63.599 70.892,61.448 71.943,58.989 C 72.825,56.922 73.342,54.711 73.495,52.352 L 77.998,52.352 L 77.998,70.514 L 90.764,70.514 C 92.828,70.518 94.601,70.422 96.081,70.226 C 97.561,70.031 98.836,69.718 99.907,69.29 C 100.979,68.861 101.933,68.299 102.774,67.604 C 104.24,66.389 105.372,64.887 106.169,63.096 C 106.965,61.306 107.369,59.349 107.378,57.228 C 107.37,55.222 107.008,53.341 106.292,51.585 C 105.578,49.829 104.561,48.329 103.24,47.085 C 102.395,46.291 101.438,45.645 100.372,45.148 C 99.305,44.651 98.076,44.285 96.685,44.053 C 95.295,43.82 93.69,43.704 91.872,43.707 L 87.556,43.707 L 87.556,31.47 L 77.998,31.47 L 77.998,43.818 L 72.26,43.818 C 72.161,43.552 72.055,43.288 71.943,43.028 C 70.894,40.577 69.431,38.432 67.557,36.591 C 65.682,34.75 63.499,33.314 61.006,32.285 C 58.513,31.255 55.814,30.732 52.91,30.715 C 49.95,30.731 47.22,31.25 44.717,32.274 Z M 58.425,41.044 C 60.001,42.048 61.25,43.407 62.172,45.121 C 63.093,46.837 63.563,48.774 63.584,50.933 C 63.563,53.132 63.086,55.101 62.151,56.842 C 61.219,58.583 59.949,59.961 58.347,60.977 C 56.746,61.992 54.933,62.511 52.91,62.534 C 50.887,62.512 49.076,62.005 47.474,61.013 C 45.872,60.022 44.603,58.678 43.67,56.981 C 42.735,55.284 42.257,53.365 42.237,51.225 C 42.256,48.97 42.732,46.964 43.663,45.207 C 44.595,43.451 45.873,42.068 47.5,41.056 C 49.124,40.045 50.986,39.529 53.085,39.509 C 55.069,39.53 56.849,40.042 58.425,41.044 Z M 94.467,52.748 C 95.21,52.918 95.822,53.204 96.303,53.608 C 96.775,54.028 97.145,54.546 97.411,55.162 C 97.679,55.779 97.814,56.429 97.82,57.112 C 97.814,57.859 97.651,58.567 97.331,59.234 C 97.011,59.902 96.572,60.42 96.012,60.788 C 95.555,61.109 94.939,61.344 94.168,61.497 C 93.396,61.648 92.418,61.723 91.23,61.722 L 87.556,61.722 L 87.556,52.5 L 91.579,52.5 C 92.761,52.496 93.723,52.579 94.467,52.748 Z" fill="#49b700" stroke-width="1.485" stroke-linejoin="miter" marker-start="none" marker-end="none"/>
  </g>
 </g>
 <g id="Sponsoren" transform="scale(1 -1)"/>
 <g id="Content" transform="scale(1 -1)"/>
 <g id="Logo Vektor" transform="scale(1 -1)"/>
</svg>
