<?xml version="1.0" standalone="no"?>
<!DOCTYPE svg PUBLIC "-//W3C//DTD SVG 1.1//EN" "http://www.w3.org/Graphics/SVG/1.1/DTD/svg11.dtd">
<!--Generator: Xara Designer (www.xara.com), SVG filter version: 6.6.0.1-->
<svg fill="none" fill-rule="evenodd" stroke="black" stroke-width="0.501" stroke-linejoin="bevel" stroke-miterlimit="10" font-family="Times New Roman" font-size="16" style="font-variant-ligatures:none" xmlns:xlink="http://www.w3.org/1999/xlink" xmlns="http://www.w3.org/2000/svg" version="1.1" overflow="visible" width="451.468pt" height="226.798pt" viewBox="71.904 -616.773 451.468 226.798">
 <defs>
	</defs>
 <g id="Layer 1" transform="scale(1 -1)">
  <path d="M 473.504,391.66 L 479.681,391.66 L 479.681,442.511 C 487.971,450.939 493.729,455.153 501.738,455.153 C 512.693,455.153 517.19,448.411 517.19,434.083 L 517.19,391.66 L 523.372,391.66 L 523.372,434.926 C 523.372,452.344 516.909,460.772 503.004,460.772 C 493.729,460.772 486.706,455.575 479.824,448.692 L 479.401,448.692 L 478.84,459.086 L 473.504,459.086 L 473.504,391.66 Z M 403.55,429.306 C 404.955,445.461 415.209,455.434 426.728,455.434 C 438.809,455.434 446.532,446.585 446.532,429.306 L 403.55,429.306 Z M 397.229,425.233 C 397.229,403.179 411.136,389.975 428.414,389.975 C 438.247,389.975 444.286,393.347 449.625,396.577 L 447.098,401.353 C 442.04,397.701 436.28,395.312 428.975,395.312 C 413.805,395.312 403.832,407.534 403.55,424.531 L 452.152,424.531 C 452.433,426.217 452.433,427.902 452.433,429.587 C 452.433,449.394 442.602,460.772 426.588,460.772 C 411.557,460.772 397.229,447.287 397.229,425.233 Z M 336.546,391.66 L 342.727,391.66 L 342.727,410.063 L 357.897,427.762 L 380.232,391.66 L 387.116,391.66 L 361.55,432.397 L 383.463,459.086 L 376.3,459.086 L 343.008,418.21 L 342.727,418.21 L 342.727,492.659 L 336.546,492.659 L 336.546,391.66 Z M 301.57,391.66 L 307.751,391.66 L 307.751,459.086 L 301.57,459.086 L 301.57,391.66 Z M 304.802,475.381 C 307.891,475.381 310.421,477.628 310.421,480.86 C 310.421,484.372 307.891,486.478 304.802,486.478 C 301.711,486.478 299.183,484.372 299.183,480.86 C 299.183,477.628 301.711,475.381 304.802,475.381 Z M 224.031,391.66 L 230.211,391.66 L 230.211,442.511 C 238.5,450.939 244.259,455.153 252.266,455.153 C 263.223,455.153 267.718,448.411 267.718,434.083 L 267.718,391.66 L 273.898,391.66 L 273.898,434.926 C 273.898,452.344 267.436,460.772 253.53,460.772 C 244.259,460.772 237.235,455.575 230.352,448.692 L 229.931,448.692 L 229.369,459.086 L 224.031,459.086 L 224.031,391.66 Z M 189.055,391.66 L 195.236,391.66 L 195.236,459.086 L 189.055,459.086 L 189.055,391.66 Z M 192.286,475.381 C 195.376,475.381 197.905,477.628 197.905,480.86 C 197.905,484.372 195.376,486.478 192.286,486.478 C 189.196,486.478 186.667,484.372 186.667,480.86 C 186.667,477.628 189.196,475.381 192.286,475.381 Z M 152.955,400.651 C 152.955,393.347 155.764,389.975 161.242,389.975 C 163.209,389.975 164.473,390.256 165.737,390.677 L 164.613,395.734 C 163.209,395.453 162.647,395.453 162.084,395.453 C 160.399,395.453 159.135,396.858 159.135,399.808 L 159.135,492.659 L 152.955,492.659 L 152.955,400.651 Z M 72.464,391.66 L 78.926,391.66 L 78.926,423.547 L 97.749,445.04 L 128.372,391.66 L 135.817,391.66 L 102.245,449.956 L 131.744,484.231 L 124.018,484.231 L 79.207,432.819 L 78.926,432.819 L 78.926,484.231 L 72.464,484.231 L 72.464,391.66 Z" fill="#b51d22" stroke="none" stroke-width="0.184" fill-rule="nonzero" stroke-linejoin="miter" marker-start="none" marker-end="none"/>
  <path d="M 148.179,536.142 C 148.179,550.892 160.541,558.617 188.775,561.708 C 188.635,569.013 185.544,575.194 176.273,575.194 C 169.39,575.194 162.928,572.103 156.888,568.451 L 150.989,579.267 C 158.573,584.043 168.266,588.257 179.223,588.257 C 196.501,588.257 204.93,577.722 204.93,558.478 L 204.93,517.601 L 191.725,517.601 L 190.461,525.186 L 190.039,525.186 C 183.859,519.988 176.835,515.915 168.688,515.915 C 156.607,515.915 148.179,524.062 148.179,536.142 Z M 227.404,535.299 L 227.404,616.773 L 243.558,616.773 L 243.558,534.457 C 243.558,530.524 245.385,529.119 247.07,529.119 C 247.772,529.119 248.335,529.119 249.598,529.399 L 251.705,517.32 C 249.739,516.476 246.93,515.915 243.137,515.915 C 231.619,515.915 227.404,523.36 227.404,535.299 Z M 268.28,535.299 L 268.28,616.773 L 284.434,616.773 L 284.434,534.457 C 284.434,530.524 286.261,529.119 287.946,529.119 C 288.649,529.119 289.211,529.119 290.475,529.399 L 292.582,517.32 C 290.615,516.476 287.806,515.915 284.014,515.915 C 272.495,515.915 268.28,523.36 268.28,535.299 Z M 306.207,536.142 C 306.207,550.892 318.568,558.617 346.803,561.708 C 346.662,569.013 343.573,575.194 334.302,575.194 C 327.418,575.194 320.957,572.103 314.916,568.451 L 309.016,579.267 C 316.602,584.043 326.294,588.257 337.251,588.257 C 354.529,588.257 362.957,577.722 362.957,558.478 L 362.957,517.601 L 349.753,517.601 L 348.489,525.186 L 348.068,525.186 C 341.887,519.988 334.864,515.915 326.716,515.915 C 314.635,515.915 306.207,524.062 306.207,536.142 Z M 378.549,525.467 L 386.134,535.861 C 392.315,531.085 398.215,528.135 405.239,528.135 C 412.684,528.135 416.196,531.647 416.196,536.424 C 416.196,542.183 408.75,544.712 401.446,547.52 C 392.315,550.892 382.061,556.09 382.061,567.608 C 382.061,579.688 391.753,588.257 407.205,588.257 C 416.757,588.257 424.483,584.324 430.102,579.97 L 422.657,570.136 C 417.881,573.648 412.964,576.036 407.486,576.036 C 400.602,576.036 397.372,572.806 397.372,568.451 C 397.372,562.973 404.255,560.866 411.7,558.197 C 421.112,554.685 431.507,550.19 431.507,537.267 C 431.507,525.467 422.096,515.915 404.677,515.915 C 395.265,515.915 385.291,519.988 378.549,525.467 Z M 71.904,517.601 L 71.904,609.468 L 102.807,609.468 C 122.894,609.468 137.785,602.445 137.785,581.093 C 137.785,560.725 122.614,551.313 102.807,551.313 L 88.198,551.313 L 88.198,517.601 L 71.904,517.601 Z M 188.775,536.142 L 188.775,551.595 C 170.093,549.206 163.912,544.29 163.912,537.407 C 163.912,531.226 167.985,528.557 173.744,528.557 C 179.364,528.557 183.719,531.367 188.775,536.142 Z M 346.803,536.142 L 346.803,551.595 C 328.121,549.206 321.94,544.29 321.94,537.407 C 321.94,531.226 326.014,528.557 331.773,528.557 C 337.391,528.557 341.746,531.367 346.803,536.142 Z M 121.771,581.093 C 121.771,592.612 114.887,596.405 101.543,596.405 L 88.198,596.405 L 88.198,564.377 L 101.543,564.377 C 115.169,564.377 121.771,569.856 121.771,581.093 Z" fill="#b51d22" fill-rule="nonzero" stroke="none" stroke-width="0" stroke-linejoin="miter" marker-start="none" marker-end="none"/>
 </g>
</svg>
