<?xml version="1.0" standalone="no"?>
<!DOCTYPE svg PUBLIC "-//W3C//DTD SVG 1.1//EN" "http://www.w3.org/Graphics/SVG/1.1/DTD/svg11.dtd">
<!--Generator: Xara Designer (www.xara.com), SVG filter version: 6.6.0.7-->
<svg fill="none" fill-rule="evenodd" stroke="black" stroke-width="0.501" stroke-linejoin="bevel" stroke-miterlimit="10" font-family="Times New Roman" font-size="16" style="font-variant-ligatures:none" xmlns:xlink="http://www.w3.org/1999/xlink" xmlns="http://www.w3.org/2000/svg" version="1.1" overflow="visible" width="69.409pt" height="57.696pt" viewBox="0.729 -58.612 69.409 57.696">
 <defs>
  <style type="text/css">@import url('https://themes.googleusercontent.com/fonts/css?family=Open Sans:400,600');</style>
 </defs>
 <g id="Layer 1" transform="scale(1 -1)">
  <g id="Group" stroke-width="0.155" stroke-linejoin="miter" stroke="none">
   <path d="M 33.322,9.92 C 31.835,9.92 31.316,8.327 31.316,7.093 C 31.316,5.857 31.835,4.262 33.322,4.262 C 34.917,4.262 35.33,5.777 35.33,7.093 C 35.33,8.406 34.917,9.92 33.322,9.92 Z M 30.48,10.479 L 31.316,10.479 L 31.265,9.245 L 31.291,9.245 C 31.503,9.615 32.02,10.639 33.456,10.639 C 35.449,10.639 36.244,9.15 36.244,7.093 C 36.244,5.087 35.317,3.544 33.456,3.544 C 32.393,3.544 31.755,3.983 31.345,4.86 L 31.316,4.86 L 31.316,0.916 L 30.48,0.916 L 30.48,10.479 Z" fill="#3f90c8" fill-rule="nonzero" marker-start="none" marker-end="none"/>
   <path d="M 33.322,9.92 C 31.835,9.92 31.316,8.327 31.316,7.093 C 31.316,5.857 31.835,4.262 33.322,4.262 C 34.917,4.262 35.33,5.777 35.33,7.093 C 35.33,8.406 34.917,9.92 33.322,9.92 Z M 30.48,10.479 L 31.316,10.479 L 31.265,9.245 L 31.291,9.245 C 31.503,9.615 32.02,10.639 33.456,10.639 C 35.449,10.639 36.244,9.15 36.244,7.093 C 36.244,5.087 35.317,3.544 33.456,3.544 C 32.393,3.544 31.755,3.983 31.345,4.86 L 31.316,4.86 L 31.316,0.916 L 30.48,0.916 L 30.48,10.479 Z" fill="#0089cf" fill-rule="nonzero" marker-start="none" marker-end="none"/>
   <g id="Group_1">
    <path d="M 56.065,21.412 C 54.591,21.412 54.078,19.818 54.078,18.582 C 54.078,17.347 54.591,15.753 56.065,15.753 C 57.641,15.753 58.05,17.269 58.05,18.582 C 58.05,19.897 57.641,21.412 56.065,21.412 Z M 53.249,21.969 L 54.078,21.969 L 54.025,20.734 L 54.052,20.734 C 54.261,21.107 54.775,22.129 56.196,22.129 C 58.169,22.129 58.959,20.641 58.959,18.582 C 58.959,16.577 58.038,15.036 56.196,15.036 C 55.145,15.036 54.512,15.475 54.105,16.351 L 54.078,16.351 L 54.078,12.407 L 53.249,12.407 L 53.249,21.969 Z" fill="#3f90c8" fill-rule="nonzero" marker-start="none" marker-end="none"/>
    <path d="M 60.573,20.454 C 60.573,21.2 60.573,21.478 60.521,21.969 L 61.349,21.969 L 61.349,20.67 L 61.376,20.67 C 61.679,21.427 62.243,22.129 63.099,22.129 C 63.299,22.129 63.534,22.089 63.677,22.05 L 63.677,21.173 C 63.508,21.226 63.283,21.253 63.074,21.253 C 61.759,21.253 61.403,19.765 61.403,18.543 L 61.403,15.195 L 60.573,15.195 L 60.573,20.454 Z" fill="#3f90c8" fill-rule="nonzero" marker-start="none" marker-end="none"/>
    <path d="M 67.008,15.753 C 68.455,15.753 69.23,17.015 69.23,18.582 C 69.23,20.15 68.455,21.412 67.008,21.412 C 65.561,21.412 64.783,20.15 64.783,18.582 C 64.783,17.015 65.561,15.753 67.008,15.753 Z M 67.008,22.129 C 69.179,22.129 70.138,20.429 70.138,18.582 C 70.138,16.738 69.179,15.036 67.008,15.036 C 64.837,15.036 63.875,16.738 63.875,18.582 C 63.875,20.429 64.837,22.129 67.008,22.129 Z" fill="#3f90c8" fill-rule="nonzero" marker-start="none" marker-end="none"/>
    <path d="M 41.618,7.117 L 41.38,7.117 C 39.931,7.117 38.204,6.972 38.204,5.484 C 38.204,4.595 38.842,4.262 39.612,4.262 C 41.578,4.262 41.618,5.976 41.618,6.707 L 41.618,7.117 Z M 41.697,4.793 L 41.671,4.793 C 41.298,3.983 40.356,3.544 39.519,3.544 C 37.592,3.544 37.287,4.846 37.287,5.457 C 37.287,7.728 39.704,7.836 41.459,7.836 L 41.618,7.836 L 41.618,8.181 C 41.618,9.337 41.205,9.92 40.077,9.92 C 39.373,9.92 38.709,9.761 38.085,9.364 L 38.085,10.173 C 38.601,10.425 39.479,10.639 40.077,10.639 C 41.75,10.639 42.454,9.88 42.454,8.115 L 42.454,5.127 C 42.454,4.581 42.454,4.169 42.522,3.705 L 41.697,3.705 L 41.697,4.793 Z" fill="#3f90c8" fill-rule="nonzero" marker-start="none" marker-end="none"/>
    <path d="M 44.416,13.667 L 45.251,13.667 L 45.251,3.705 L 44.416,3.705 L 44.416,13.667 Z" fill="#3f90c8" fill-rule="nonzero" marker-start="none" marker-end="none"/>
    <path d="M 47.365,13.667 L 48.201,13.667 L 48.201,3.705 L 47.365,3.705 L 47.365,13.667 Z" fill="#3f90c8" fill-rule="nonzero" marker-start="none" marker-end="none"/>
    <path d="M 50.313,10.479 L 51.15,10.479 L 51.15,3.705 L 50.313,3.705 L 50.313,10.479 Z M 50.313,13.71 L 51.15,13.71 L 51.15,12.404 L 50.313,12.404 L 50.313,13.71 Z" fill="#3f90c8" fill-rule="nonzero" marker-start="none" marker-end="none"/>
    <path d="M 58.549,5.298 C 58.549,4.782 58.549,4.25 58.602,3.705 L 57.792,3.705 L 57.792,4.913 L 57.764,4.913 C 57.488,4.303 56.981,3.544 55.572,3.544 C 53.899,3.544 53.262,4.661 53.262,6.149 L 53.262,10.479 L 54.098,10.479 L 54.098,6.362 C 54.098,5.087 54.551,4.262 55.705,4.262 C 57.235,4.262 57.711,5.605 57.711,6.733 L 57.711,10.479 L 58.549,10.479 L 58.549,5.298 Z" fill="#3f90c8" fill-rule="nonzero" marker-start="none" marker-end="none"/>
    <path d="M 68.83,3.705 L 68.83,8.208 C 68.83,9.163 68.472,9.92 67.395,9.92 C 66.479,9.92 65.574,9.137 65.574,7.451 L 65.574,3.705 L 64.74,3.705 L 64.74,8.208 C 64.74,9.163 64.381,9.92 63.303,9.92 C 62.388,9.92 61.484,9.137 61.484,7.451 L 61.484,3.705 L 60.648,3.705 L 60.648,8.885 C 60.648,9.403 60.648,9.935 60.595,10.479 L 61.403,10.479 L 61.403,9.337 L 61.431,9.324 C 61.696,9.79 62.096,10.639 63.544,10.639 C 64.14,10.639 65.124,10.385 65.336,9.203 L 65.363,9.203 C 65.669,10.001 66.465,10.639 67.528,10.639 C 68.896,10.639 69.668,9.681 69.668,8.366 L 69.668,3.705 L 68.83,3.705 Z" fill="#3f90c8" fill-rule="nonzero" marker-start="none" marker-end="none"/>
    <path d="M 56.065,21.412 C 54.591,21.412 54.078,19.818 54.078,18.582 C 54.078,17.347 54.591,15.753 56.065,15.753 C 57.641,15.753 58.05,17.269 58.05,18.582 C 58.05,19.897 57.641,21.412 56.065,21.412 Z M 53.249,21.969 L 54.078,21.969 L 54.025,20.734 L 54.052,20.734 C 54.261,21.107 54.775,22.129 56.196,22.129 C 58.169,22.129 58.959,20.641 58.959,18.582 C 58.959,16.577 58.038,15.036 56.196,15.036 C 55.145,15.036 54.512,15.475 54.105,16.351 L 54.078,16.351 L 54.078,12.407 L 53.249,12.407 L 53.249,21.969 Z" fill="#0089cf" fill-rule="nonzero" marker-start="none" marker-end="none"/>
    <path d="M 60.573,20.454 C 60.573,21.2 60.573,21.478 60.521,21.969 L 61.349,21.969 L 61.349,20.67 L 61.376,20.67 C 61.679,21.427 62.243,22.129 63.099,22.129 C 63.299,22.129 63.534,22.089 63.677,22.05 L 63.677,21.173 C 63.508,21.226 63.283,21.253 63.074,21.253 C 61.759,21.253 61.403,19.765 61.403,18.543 L 61.403,15.195 L 60.573,15.195 L 60.573,20.454 Z" fill="#0089cf" fill-rule="nonzero" marker-start="none" marker-end="none"/>
    <path d="M 67.008,15.753 C 68.455,15.753 69.23,17.015 69.23,18.582 C 69.23,20.15 68.455,21.412 67.008,21.412 C 65.561,21.412 64.783,20.15 64.783,18.582 C 64.783,17.015 65.561,15.753 67.008,15.753 Z M 67.008,22.129 C 69.179,22.129 70.138,20.429 70.138,18.582 C 70.138,16.738 69.179,15.036 67.008,15.036 C 64.837,15.036 63.875,16.738 63.875,18.582 C 63.875,20.429 64.837,22.129 67.008,22.129 Z" fill="#0089cf" fill-rule="nonzero" marker-start="none" marker-end="none"/>
    <path d="M 41.618,7.117 L 41.38,7.117 C 39.931,7.117 38.204,6.972 38.204,5.484 C 38.204,4.595 38.842,4.262 39.612,4.262 C 41.578,4.262 41.618,5.976 41.618,6.707 L 41.618,7.117 Z M 41.697,4.793 L 41.671,4.793 C 41.298,3.983 40.356,3.544 39.519,3.544 C 37.592,3.544 37.287,4.846 37.287,5.457 C 37.287,7.728 39.704,7.836 41.459,7.836 L 41.618,7.836 L 41.618,8.181 C 41.618,9.337 41.205,9.92 40.077,9.92 C 39.373,9.92 38.709,9.761 38.085,9.364 L 38.085,10.173 C 38.601,10.425 39.479,10.639 40.077,10.639 C 41.75,10.639 42.454,9.88 42.454,8.115 L 42.454,5.127 C 42.454,4.581 42.454,4.169 42.522,3.705 L 41.697,3.705 L 41.697,4.793 Z" fill="#0089cf" fill-rule="nonzero" marker-start="none" marker-end="none"/>
    <path d="M 44.416,13.667 L 45.251,13.667 L 45.251,3.705 L 44.416,3.705 L 44.416,13.667 Z" fill="#0089cf" fill-rule="nonzero" marker-start="none" marker-end="none"/>
    <path d="M 47.365,13.667 L 48.201,13.667 L 48.201,3.705 L 47.365,3.705 L 47.365,13.667 Z" fill="#0089cf" fill-rule="nonzero" marker-start="none" marker-end="none"/>
    <path d="M 50.313,10.479 L 51.15,10.479 L 51.15,3.705 L 50.313,3.705 L 50.313,10.479 Z M 50.313,13.71 L 51.15,13.71 L 51.15,12.404 L 50.313,12.404 L 50.313,13.71 Z" fill="#0089cf" fill-rule="nonzero" marker-start="none" marker-end="none"/>
    <path d="M 58.549,5.298 C 58.549,4.782 58.549,4.25 58.602,3.705 L 57.792,3.705 L 57.792,4.913 L 57.764,4.913 C 57.488,4.303 56.981,3.544 55.572,3.544 C 53.899,3.544 53.262,4.661 53.262,6.149 L 53.262,10.479 L 54.098,10.479 L 54.098,6.362 C 54.098,5.087 54.551,4.262 55.705,4.262 C 57.235,4.262 57.711,5.605 57.711,6.733 L 57.711,10.479 L 58.549,10.479 L 58.549,5.298 Z" fill="#0089cf" fill-rule="nonzero" marker-start="none" marker-end="none"/>
    <path d="M 68.83,3.705 L 68.83,8.208 C 68.83,9.163 68.472,9.92 67.395,9.92 C 66.479,9.92 65.574,9.137 65.574,7.451 L 65.574,3.705 L 64.74,3.705 L 64.74,8.208 C 64.74,9.163 64.381,9.92 63.303,9.92 C 62.388,9.92 61.484,9.137 61.484,7.451 L 61.484,3.705 L 60.648,3.705 L 60.648,8.885 C 60.648,9.403 60.648,9.935 60.595,10.479 L 61.403,10.479 L 61.403,9.337 L 61.431,9.324 C 61.696,9.79 62.096,10.639 63.544,10.639 C 64.14,10.639 65.124,10.385 65.336,9.203 L 65.363,9.203 C 65.669,10.001 66.465,10.639 67.528,10.639 C 68.896,10.639 69.668,9.681 69.668,8.366 L 69.668,3.705 L 68.83,3.705 Z" fill="#0089cf" fill-rule="nonzero" marker-start="none" marker-end="none"/>
    <path d="M 31.934,58.612 C 31.974,58.612 32.016,58.612 32.059,58.612 C 33.919,58.555 34.167,56.887 34.839,55.643 C 33.818,52.39 32.258,49.674 30.922,46.736 C 30.185,46.56 29.574,46.945 28.965,46.862 C 28.258,46.766 27.971,46.236 27.322,45.914 C 27.633,45.665 27.636,45.484 27.637,44.968 C 27.402,44.846 27.121,44.769 26.816,44.716 C 26.834,44.481 27.296,44.689 27.322,44.463 C 27.176,44.332 26.953,44.286 26.754,44.211 C 24.028,41.841 21.979,38.793 19.237,36.441 C 19.225,36.093 19.026,35.937 18.795,35.808 C 19.029,35.57 18.841,35.284 18.667,35.114 C 18.343,34.977 18.36,35.23 18.036,35.24 C 18.676,34.655 18.795,33.951 18.226,33.22 C 17.773,33.396 17.669,33.925 17.216,34.103 C 17.373,35.359 18.755,35.489 18.795,36.628 C 18.804,36.889 18.584,37.241 18.541,37.578 C 18.504,37.865 18.623,38.199 18.541,38.46 C 18.233,39.452 16.35,39.951 15.384,40.231 C 15.398,40.434 15.272,40.498 15.319,40.736 C 14.57,40.882 14.294,40.047 13.741,39.789 C 13.65,40.3 13.385,39.57 13.301,40.103 C 13.077,39.947 12.946,39.7 12.604,39.662 C 12.198,39.3 12.019,38.849 11.782,38.272 C 11.576,37.768 11.219,37.431 11.151,37.009 C 10.867,35.213 12.218,34.473 13.236,33.663 C 11.455,32.302 9.875,30.748 8.185,29.304 C 8.057,29.304 7.93,29.304 7.803,29.304 C 7.039,27.94 5.505,27.348 5.151,25.576 C 4.801,25.358 4.629,24.961 4.329,24.693 C 4.008,23.726 3.429,23.319 3.697,22.228 C 3.903,21.395 5.743,20.998 6.602,21.534 C 7.028,21.796 7.101,22.579 7.423,23.05 C 7.703,23.454 8.321,24.042 8.816,24.502 C 9.23,24.891 9.719,25.272 10.33,25.261 C 10.47,24.475 9.993,23.815 9.699,23.176 C 9.082,21.841 8.46,20.575 7.866,19.322 C 7.878,19.269 7.842,19.264 7.803,19.257 C 6.262,19.17 5.025,19.386 4.077,19.891 C 3.675,20.245 3.413,20.744 2.877,20.963 C 2.256,22.176 1.885,23.259 1.675,24.376 C 1.74,24.459 1.781,24.567 1.865,24.63 C 1.807,24.78 1.751,24.934 1.675,25.07 C 1.687,25.144 1.777,25.14 1.865,25.133 C 1.664,26.182 2.065,27.083 2.118,28.038 C 2.217,29.852 1.446,32.004 1.865,33.724 C 1.761,35.535 1.615,37.565 1.675,39.346 C 1.721,40.691 1.688,42.144 1.551,43.451 C 1.4,44.878 1.434,45.873 0.854,46.736 C 0.868,47.044 0.871,47.34 0.729,47.496 C 0.851,48.084 0.709,48.465 0.981,49.138 C 1.245,49.232 1.419,49.414 1.614,49.578 C 4.445,49.753 6.651,50.669 8.434,52.043 C 8.466,52.263 8.529,52.453 8.497,52.737 C 8.982,52.82 8.971,53.402 9.191,53.747 C 11.332,54.388 13.395,55.105 15.004,56.275 C 16.451,56.484 18.178,57.475 19.49,56.526 C 19.581,56.288 19.315,56.406 19.361,56.211 C 19.585,56.191 20.146,56.497 20.247,56.086 C 20.419,56.17 20.332,56.704 20.184,56.843 C 20.348,56.932 20.581,56.952 20.752,57.032 C 20.51,56.72 20.728,56.179 20.438,55.832 C 20.805,55.672 21.158,55.498 21.574,55.706 C 21.578,55.937 21.221,56.014 21.386,56.211 C 21.523,56.162 21.726,56.173 21.763,56.02 C 21.972,56.083 21.741,56.33 22.08,56.338 C 22.136,56.05 21.974,55.98 21.952,55.769 C 21.991,55.491 22.627,55.547 22.837,55.643 C 22.984,55.892 22.718,55.836 22.711,56.086 C 22.888,56.033 22.874,56.173 23.028,56.148 C 23.319,56.148 22.934,55.967 23.028,55.769 C 23.326,55.617 24.101,55.603 24.228,55.832 C 24.163,55.568 24.539,55.918 24.351,55.643 C 24.983,55.859 25.575,55.508 26.185,55.643 C 26.585,55.73 26.816,56.211 27.26,56.591 C 27.596,56.882 28.199,57.233 28.52,57.412 C 28.787,57.558 29.134,57.718 29.407,57.852 C 30.25,58.274 30.843,58.536 31.934,58.612 Z" fill="#fdb913" marker-start="none" marker-end="none"/>
    <path d="M 15.384,16.48 C 15.384,16.438 15.384,16.397 15.384,16.354 C 14.928,15.504 14.845,14.28 13.868,13.954 C 14.436,13.088 16.194,12.769 15.889,11.238 C 15.778,10.682 15.157,10.436 14.816,9.973 C 13.012,10.171 11.828,10.986 11.024,12.184 C 11.266,12.599 10.85,13.115 10.961,13.383 C 11.082,13.541 11.544,13.446 11.531,13.889 C 10.539,14.143 9.822,12.86 8.753,13.575 C 8.279,13.392 8.132,12.89 7.866,12.5 C 7.6,12.495 7.426,12.396 7.109,12.437 C 6.92,11.932 7.317,11.016 6.919,10.543 C 6.301,9.807 4.454,10.326 4.329,11.238 C 4.212,12.095 5.299,12.402 5.592,13.069 C 5.687,13.284 5.696,13.797 5.656,14.078 C 5.635,14.24 5.541,14.402 5.466,14.586 C 6.567,15.71 7.151,17.519 7.803,19.257 C 7.842,19.264 7.878,19.269 7.866,19.322 C 8.466,19.472 8.892,19.155 9.445,18.945 C 9.597,18.274 9.667,17.74 9.95,17.237 C 10.684,15.938 13.989,15.861 15.384,16.48 Z" fill="#0089cf" marker-start="none" marker-end="none"/>
    <path d="M 3.192,10.732 C 3.909,10.081 5.002,9.803 5.592,9.026 C 5.739,8.005 5.504,7.967 4.772,7.636 C 4.567,7.546 4.154,7.292 3.697,7.446 C 2.941,7.704 3.029,8.887 2.877,9.532 C 2.862,9.824 3.101,9.47 3.192,9.659 C 2.941,10.14 3.508,10.368 3.192,10.732 Z" fill="#0089cf" marker-start="none" marker-end="none"/>
    <path d="M 42.101,51.284 C 42.043,51.403 42.292,51.496 42.101,51.538 C 42.084,51.498 41.945,51.293 42.101,51.284 Z M 41.912,52.106 C 41.975,52.106 41.988,52.055 42.04,52.043 C 42.031,52.142 42.048,52.261 41.912,52.233 C 41.912,52.19 41.912,52.149 41.912,52.106 Z M 42.101,52.423 C 42.12,52.46 42.261,52.665 42.101,52.673 C 42.084,52.635 41.945,52.431 42.101,52.423 Z M 41.786,52.864 C 41.828,52.864 41.871,52.864 41.912,52.864 C 41.912,52.907 41.912,52.947 41.912,52.99 C 41.871,52.99 41.828,52.99 41.786,52.99 C 41.786,52.947 41.786,52.907 41.786,52.864 Z M 15.384,16.48 C 15.423,17.474 15.539,18.173 15.889,18.945 C 16.16,19.22 16.578,19.349 16.773,19.702 C 17.119,20.414 16.783,21.11 16.899,21.785 C 16.963,22.152 17.259,22.459 17.404,22.797 C 17.543,23.118 17.57,23.504 17.721,23.807 C 17.945,24.264 18.412,24.783 18.732,25.261 C 19.063,25.76 19.363,26.291 19.68,26.776 C 20.838,28.563 22.334,30.173 22.269,32.586 C 22.475,32.949 22.691,33.303 22.9,33.663 C 23.944,34.319 24.468,35.4 25.111,36.377 C 25.382,36.788 25.752,37.11 26.059,37.514 C 26.669,38.318 27.114,39.273 27.763,40.04 C 27.726,41.03 28.635,41.067 29.219,41.431 C 29.392,41.81 29.186,42.2 29.154,42.567 C 30.531,42.522 31.259,43.488 32.248,43.451 C 31.963,44.243 32.522,45.236 31.996,46.231 C 32.399,46.984 32.562,47.979 33.576,48.127 C 34.246,48.93 34.713,49.933 35.344,50.778 C 35.874,52.278 36.785,53.922 37.681,55.264 C 38.782,54.912 39.898,54.626 41.027,54.569 C 41.172,54.127 41.582,53.747 41.849,53.621 C 41.545,53.217 41.974,53.38 41.974,52.926 C 42.351,52.982 42.397,53.084 42.669,53.306 C 42.969,52.546 42.311,52.626 42.163,52.106 C 42.226,51.859 42.481,52.196 42.481,51.916 C 42.435,51.615 42.358,51.185 42.418,50.969 C 42.587,50.857 42.54,51.248 42.608,51.032 C 42.481,50.871 42.421,50.646 42.669,50.59 C 42.212,49.558 42.384,46.895 42.608,45.853 C 42.696,45.427 42.643,44.853 42.735,44.399 C 42.843,43.85 43.142,43.619 42.986,43.073 C 43.152,42.945 43.21,42.706 43.366,42.567 C 43.244,38.328 44.308,34.005 45.074,30.504 C 45.373,29.12 45.855,28.088 46.017,26.648 C 46.059,26.542 46.208,26.547 46.271,26.462 C 46.165,25.552 46.896,25.123 46.776,23.997 C 46.745,23.797 47.091,23.973 47.028,23.745 C 46.989,23.593 46.938,23.455 46.966,23.24 C 47.454,22.728 47.449,22.026 47.536,21.659 C 47.27,21.27 47.223,20.956 47.156,20.46 C 46.713,20.298 46.512,19.859 46.08,19.639 C 45.802,19.494 45.399,19.467 45.074,19.322 C 44.773,19.191 44.537,18.936 44.252,18.818 C 42.89,18.264 41,18.165 39.386,17.932 C 38.898,17.39 38.006,17.247 37.616,16.605 C 36.865,16.342 36.114,16.008 35.344,15.721 C 34.578,15.438 33.767,15.293 32.944,15.026 C 32.617,14.923 32.339,14.681 31.996,14.586 C 31.108,14.338 29.579,14.414 28.773,14.078 C 27.105,13.383 25.36,12.021 23.344,11.678 C 22.04,11.459 21.313,11.896 20.627,12.689 C 19.807,13.64 19.338,14.741 18.732,15.786 C 17.685,15.849 16.36,16.063 15.384,16.354 C 15.384,16.397 15.384,16.438 15.384,16.48 Z" fill="#fdb913" marker-start="none" marker-end="none"/>
   </g>
  </g>
 </g>
</svg>
