<?xml version="1.0" standalone="no"?>
<!DOCTYPE svg PUBLIC "-//W3C//DTD SVG 1.1//EN" "http://www.w3.org/Graphics/SVG/1.1/DTD/svg11.dtd">
<!--Generator: Xara Designer (www.xara.com), SVG filter version: 6.6.0.0-->
<svg fill="none" fill-rule="evenodd" stroke="black" stroke-width="0.501" stroke-linejoin="bevel" stroke-miterlimit="10" font-family="Times New Roman" font-size="16" style="font-variant-ligatures:none" xmlns:xlink="http://www.w3.org/1999/xlink" xmlns="http://www.w3.org/2000/svg" version="1.1" overflow="visible" width="54.755pt" height="8.018pt" viewBox="48.225 -694.339 54.755 8.018">
 <defs>
	</defs>
 <g id="Layer 1" transform="scale(1 -1)"/>
 <g id="Sponsoren" transform="scale(1 -1)">
  <path d="M 85.937,687.986 C 85.937,687.986 86.419,687.566 87.378,687.566 C 88.15,687.566 88.524,688.019 88.524,688.575 C 88.524,689.11 88.053,689.421 87.628,689.653 L 87.022,689.978 C 86.052,690.511 85.637,691.16 85.637,691.978 C 85.637,693.434 86.616,694.339 88.018,694.339 C 89.158,694.339 89.83,693.955 89.83,693.955 L 89.535,692.674 C 89.158,692.997 88.707,693.107 88.215,693.107 C 87.543,693.107 87.162,692.683 87.162,692.151 C 87.162,691.721 87.395,691.473 87.779,691.275 L 88.523,690.884 C 89.701,690.273 90.103,689.629 90.103,688.72 C 90.103,687.235 89.039,686.321 87.435,686.321 C 86.244,686.321 85.623,686.673 85.623,686.673 L 85.937,687.986 M 58.318,688.999 L 57.618,691.444 C 57.52,691.788 57.408,692.329 57.408,692.329 C 57.408,692.329 57.297,691.788 57.199,691.444 L 56.502,688.999 L 58.318,688.999 M 60.701,686.427 L 58.999,686.427 L 58.589,687.876 L 56.228,687.876 L 55.826,686.427 L 54.402,686.427 L 56.457,693.209 C 56.515,693.399 56.544,693.509 56.544,693.618 C 56.544,693.932 56.329,694.202 56.329,694.202 L 58.206,694.202 L 60.701,686.427 M 80.715,687.725 L 80.404,686.427 L 76.525,686.427 L 76.525,694.202 L 80.625,694.202 L 80.316,692.922 L 78.053,692.922 L 78.053,690.98 L 80.229,690.98 L 79.929,689.731 L 78.053,689.731 L 78.053,687.725 L 80.715,687.725 M 61.766,694.202 L 63.305,694.202 L 63.305,686.427 L 61.766,686.427 L 61.766,694.202 M 72.489,689.731 L 72.489,686.427 L 70.942,686.427 L 70.942,694.202 L 75.044,694.202 L 74.76,692.922 L 72.489,692.922 L 72.489,690.98 L 74.658,690.98 L 74.37,689.731 L 72.489,689.731 M 66.934,689.731 L 66.934,686.427 L 65.406,686.427 L 65.406,694.202 L 69.505,694.202 L 69.217,692.922 L 66.934,692.922 L 66.934,690.98 L 69.105,690.98 L 68.819,689.731 L 66.934,689.731 M 95.873,687.725 L 95.56,686.427 L 91.684,686.427 L 91.684,694.201 L 95.783,694.201 L 95.488,692.922 L 93.21,692.922 L 93.21,690.98 L 95.388,690.98 L 95.09,689.731 L 93.21,689.731 L 93.21,687.725 L 95.873,687.725 M 82.416,694.202 L 83.952,694.202 L 83.952,686.427 L 82.416,686.427 L 82.416,694.202 M 49.759,686.427 L 48.225,686.427 L 48.225,694.273 C 49.46,694.273 50.203,694.339 50.788,694.339 C 52.381,694.339 53.542,693.654 53.542,691.954 C 53.542,690.938 52.922,690.141 52.015,689.898 C 52.015,689.898 52.249,689.617 52.393,689.298 L 53.729,686.427 L 52.004,686.427 L 50.522,689.617 C 50.146,690.426 49.904,690.594 49.904,690.594 C 50.06,690.58 50.203,690.58 50.324,690.58 C 51.441,690.58 51.97,691.09 51.97,691.912 C 51.97,692.735 51.383,693.099 50.522,693.099 C 50.07,693.099 49.759,693.064 49.759,693.064 L 49.759,686.427 M 102.98,686.427 L 102.362,686.427 L 99.842,690.173 C 99.366,690.882 98.877,691.671 98.877,691.671 C 98.877,691.671 98.902,690.882 98.902,690.173 L 98.902,686.427 L 97.619,686.427 L 97.619,692.922 C 97.619,693.256 97.585,693.443 97.487,693.676 C 97.343,693.984 97.121,694.202 97.121,694.202 L 98.912,694.202 L 100.728,691.559 C 101.212,690.859 101.732,690.038 101.732,690.038 C 101.732,690.038 101.702,690.859 101.702,691.559 L 101.702,694.202 L 102.98,694.202 L 102.98,686.427 Z" stroke="none" fill="#dd5b36" stroke-width="0.549" stroke-linejoin="miter" marker-start="none" marker-end="none"/>
 </g>
 <g id="Content" transform="scale(1 -1)"/>
 <g id="Logo Vektor" transform="scale(1 -1)"/>
</svg>
