<?xml version="1.0" encoding="utf-8"?>
<!-- Generator: Adobe Illustrator 25.2.3, SVG Export Plug-In . SVG Version: 6.00 Build 0)  -->
<svg version="1.1" id="Ebene_1" xmlns="http://www.w3.org/2000/svg" xmlns:xlink="http://www.w3.org/1999/xlink" x="0px" y="0px"
	 viewBox="0 0 147.3 34.12" style="enable-background:new 0 0 147.3 34.12;" xml:space="preserve">
<style type="text/css">
	.st0{fill:#181815;}
	.st1{fill:#0079C0;}
</style>
<g>
	<polygon class="st0" points="28.77,31.9 28.77,26.17 29.43,26.17 29.43,31.35 31.55,31.35 31.55,31.9 	"/>
	<path class="st0" d="M35.2,31.9c0-0.27,0.03-0.68,0.07-0.93l-0.02-0.01c-0.24,0.61-0.77,1.03-1.51,1.03
		c-0.97,0-1.27-0.61-1.27-1.36v-2.95h0.64v2.74c0,0.66,0.18,1.04,0.79,1.04c0.76,0,1.29-0.75,1.29-1.75v-2.03h0.64v4.22H35.2z
		 M33.32,26.73c-0.23,0-0.41-0.18-0.41-0.41c0-0.22,0.18-0.4,0.41-0.4c0.23,0,0.41,0.18,0.41,0.4
		C33.73,26.55,33.55,26.73,33.32,26.73 M34.92,26.73c-0.23,0-0.41-0.18-0.41-0.41c0-0.22,0.18-0.4,0.41-0.4
		c0.22,0,0.41,0.18,0.41,0.4C35.33,26.55,35.14,26.73,34.92,26.73"/>
	<path class="st0" d="M39.9,26.27c-0.21-0.07-0.44-0.09-0.66-0.09c-0.65,0-0.94,0.37-0.94,1.19v0.31h1.25v0.5H38.3v3.72h-0.64v-3.72
		h-0.92v-0.5h0.92v-0.3c0-1.18,0.59-1.73,1.6-1.73c0.24,0,0.47,0.03,0.7,0.08L39.9,26.27z"/>
	<path class="st0" d="M41.59,31.97c-0.85,0-1.1-0.37-1.1-1.25v-2.54h-0.92v-0.5h0.92v-1.4l0.64-0.18v1.58h1.24v0.5h-1.24v2.28
		c0,0.76,0.14,0.95,0.64,0.95c0.21,0,0.43-0.03,0.6-0.08v0.55C42.15,31.94,41.85,31.97,41.59,31.97"/>
	<path class="st0" d="M46.29,31.9c0-0.27,0.02-0.68,0.07-0.93l-0.02-0.01c-0.24,0.61-0.77,1.03-1.51,1.03
		c-0.97,0-1.27-0.61-1.27-1.36v-2.95h0.64v2.74c0,0.66,0.18,1.05,0.79,1.05c0.76,0,1.29-0.75,1.29-1.75v-2.03h0.64v4.22H46.29z"/>
	<path class="st0" d="M51.27,31.9v-2.74c0-0.66-0.18-1.05-0.79-1.05c-0.76,0-1.29,0.75-1.29,1.75v2.03h-0.64v-4.22h0.63
		c0,0.27-0.03,0.68-0.07,0.94l0.02,0.01c0.24-0.61,0.77-1.03,1.51-1.03c0.97,0,1.27,0.61,1.27,1.36v2.95H51.27z"/>
	<path class="st0" d="M54.89,34.12c-1.07,0-1.76-0.43-1.76-1.24c0-0.53,0.33-0.92,0.73-1.12c-0.26-0.12-0.43-0.34-0.43-0.61
		c0-0.29,0.17-0.55,0.47-0.69c-0.43-0.25-0.63-0.68-0.63-1.22c0-0.88,0.69-1.63,1.84-1.63c0.24,0,0.42,0.03,0.64,0.08h1.44v0.5
		h-0.76c0.25,0.2,0.41,0.53,0.41,0.93c0,0.9-0.62,1.59-1.84,1.59c-0.19,0-0.42-0.03-0.58-0.06c-0.21,0.08-0.32,0.23-0.32,0.38
		c0,0.25,0.24,0.36,0.77,0.36h0.82c0.92,0,1.42,0.45,1.42,1.19C57.11,33.46,56.19,34.12,54.89,34.12 M55.51,31.93h-0.87
		c-0.08,0-0.19,0-0.27-0.01c-0.37,0.19-0.6,0.49-0.6,0.85c0,0.54,0.53,0.83,1.23,0.83c0.93,0,1.47-0.39,1.47-0.95
		C56.47,32.2,56.16,31.93,55.51,31.93 M55.08,28.1c-0.73,0-1.16,0.45-1.16,1.07c0,0.69,0.42,1.05,1.13,1.05
		c0.7,0,1.15-0.37,1.15-1.05S55.78,28.1,55.08,28.1"/>
	<path class="st0" d="M58.99,31.98c-0.31,0-0.64-0.03-0.89-0.08l0.02-0.59c0.27,0.08,0.61,0.14,0.94,0.14
		c0.61,0,1.04-0.27,1.04-0.71c0-1.02-2.06-0.38-2.06-1.89c0-0.7,0.58-1.24,1.65-1.24c0.26,0,0.56,0.04,0.82,0.09l-0.02,0.55
		c-0.28-0.09-0.59-0.15-0.88-0.15c-0.62,0-0.93,0.26-0.93,0.67c0,1.01,2.07,0.43,2.07,1.87C60.76,31.39,60.09,31.98,58.99,31.98"/>
	<rect x="61.71" y="29.53" class="st0" width="1.97" height="0.51"/>
	<path class="st0" d="M69.61,31.9c0-0.27,0.02-0.68,0.07-0.93l-0.02-0.01c-0.24,0.61-0.77,1.03-1.51,1.03
		c-0.97,0-1.27-0.61-1.27-1.36v-2.95h0.64v2.74c0,0.66,0.18,1.05,0.79,1.05c0.76,0,1.29-0.75,1.29-1.75v-2.03h0.64v4.22H69.61z"/>
	<path class="st0" d="M74.59,31.9v-2.74c0-0.66-0.18-1.05-0.79-1.05c-0.76,0-1.29,0.75-1.29,1.75v2.03h-0.64v-4.22h0.63
		c0,0.27-0.03,0.68-0.07,0.94l0.02,0.01c0.24-0.61,0.77-1.03,1.51-1.03c0.97,0,1.27,0.61,1.27,1.36v2.95H74.59z"/>
	<path class="st0" d="M79.41,31.9c0-0.26,0.02-0.66,0.08-0.92l-0.02-0.01c-0.24,0.6-0.77,1-1.45,1c-1.04,0-1.56-0.77-1.56-2
		c0-1.5,0.85-2.35,2.17-2.35c0.25,0,0.49,0.02,0.78,0.04V25.7h0.63v6.2H79.41z M79.41,28.23c-0.29-0.07-0.56-0.1-0.83-0.1
		c-0.87,0-1.45,0.53-1.45,1.8c0,0.95,0.32,1.52,1.02,1.52c0.84,0,1.26-0.99,1.26-1.73V28.23z"/>
	<polygon class="st0" points="86.71,31.9 84.28,29.02 84.28,31.9 83.62,31.9 83.62,26.17 84.28,26.17 84.28,28.91 86.72,26.17 
		87.53,26.17 84.98,28.95 87.61,31.9 	"/>
	<rect x="88.63" y="25.7" class="st0" width="0.64" height="6.2"/>
	<path class="st0" d="M91.22,26.91c-0.25,0-0.44-0.19-0.44-0.43c0-0.24,0.2-0.43,0.44-0.43c0.24,0,0.44,0.2,0.44,0.43
		C91.66,26.73,91.46,26.91,91.22,26.91 M90.9,27.68h0.64v4.22H90.9V27.68z"/>
	<path class="st0" d="M98.5,31.9v-2.73c0-0.64-0.15-1.05-0.77-1.05c-0.65,0-1.27,0.67-1.27,1.77v2.01h-0.63v-2.74
		c0-0.58-0.12-1.05-0.77-1.05c-0.7,0-1.26,0.73-1.26,1.77v2.01h-0.64v-4.22h0.63c0,0.27-0.02,0.67-0.07,0.94l0.02,0.01
		c0.24-0.62,0.79-1.03,1.49-1.03c0.96,0,1.16,0.69,1.18,1.01c0.15-0.4,0.61-1.01,1.47-1.01c0.79,0,1.25,0.42,1.25,1.38v2.93H98.5z"
		/>
	<path class="st0" d="M103.02,31.9c0-0.32,0-0.65,0.04-0.89h-0.02c-0.2,0.54-0.75,0.97-1.47,0.97c-0.67,0-1.16-0.36-1.16-1.03
		c0-0.88,0.92-1.49,2.57-1.49v-0.35c0-0.64-0.23-1-0.96-1c-0.41,0-0.92,0.13-1.29,0.37l-0.06-0.56c0.4-0.18,0.89-0.31,1.46-0.31
		c1.17,0,1.5,0.58,1.5,1.38v1.66c0,0.42,0,0.89,0.02,1.27H103.02z M102.98,29.92c-1.59,0-1.93,0.5-1.93,0.91
		c0,0.38,0.27,0.63,0.69,0.63c0.75,0,1.24-0.74,1.24-1.47V29.92z"/>
	<path class="st0" d="M106.42,31.97c-0.85,0-1.1-0.37-1.1-1.25v-2.54h-0.92v-0.5h0.92v-1.4l0.64-0.18v1.58h1.24v0.5h-1.24v2.28
		c0,0.76,0.14,0.95,0.64,0.95c0.21,0,0.43-0.03,0.6-0.08v0.55C106.98,31.94,106.68,31.97,106.42,31.97"/>
	<path class="st0" d="M111.47,29.66h-2.82c-0.04,1.27,0.46,1.79,1.4,1.79c0.44,0,0.91-0.11,1.22-0.27l0.06,0.54
		c-0.39,0.16-0.87,0.26-1.39,0.26c-1.28,0-1.96-0.69-1.96-2.17c0-1.27,0.68-2.21,1.85-2.21c1.16,0,1.65,0.81,1.65,1.74
		C111.49,29.42,111.49,29.53,111.47,29.66 M109.81,28.09c-0.6,0-1.02,0.43-1.12,1.1h2.14C110.84,28.53,110.45,28.09,109.81,28.09"/>
	<path class="st0" d="M114.19,31.95c-0.94,0-1.83-0.42-1.83-2.01c0-1.39,0.7-2.32,2.07-2.32c0.35,0,0.7,0.05,0.99,0.15l-0.07,0.56
		c-0.28-0.11-0.61-0.19-0.97-0.19c-0.91,0-1.36,0.67-1.36,1.69c0,0.87,0.27,1.58,1.29,1.58c0.37,0,0.78-0.09,1.06-0.24l0.06,0.55
		C115.17,31.84,114.71,31.95,114.19,31.95"/>
	<path class="st0" d="M119.31,31.9v-2.74c0-0.66-0.18-1.05-0.79-1.05c-0.76,0-1.29,0.75-1.29,1.75v2.03h-0.64v-6.2h0.64v2.07
		c0,0.28-0.02,0.63-0.07,0.84l0.02,0.01c0.25-0.62,0.77-1.02,1.5-1.02c0.97,0,1.27,0.61,1.27,1.36v2.95H119.31z"/>
	<path class="st0" d="M124.3,31.9v-2.74c0-0.66-0.18-1.05-0.79-1.05c-0.76,0-1.29,0.75-1.29,1.75v2.03h-0.64v-4.22h0.63
		c0,0.27-0.03,0.68-0.07,0.94l0.02,0.01c0.24-0.61,0.77-1.03,1.51-1.03c0.97,0,1.27,0.61,1.27,1.36v2.95H124.3z"/>
	<path class="st0" d="M126.89,26.91c-0.25,0-0.44-0.19-0.44-0.43c0-0.24,0.2-0.43,0.44-0.43c0.24,0,0.44,0.2,0.44,0.43
		C127.33,26.73,127.13,26.91,126.89,26.91 M126.57,27.68h0.64v4.22h-0.64V27.68z"/>
	<polygon class="st0" points="131.14,31.9 129.48,29.68 129.48,31.9 128.84,31.9 128.84,25.7 129.48,25.7 129.48,29.57 
		131.06,27.68 131.84,27.68 130.16,29.6 131.97,31.9 	"/>
	<path class="st0" d="M147.3,19.16V6.42h-2.45v5.1h-5.4v-5.1H137v12.74h2.45v-5.53h5.4v5.53H147.3z M133.62,18.76l-0.28-2.19
		c-0.66,0.3-1.7,0.53-2.47,0.53c-2.57,0-3.72-1.54-3.72-4.32c0-2.47,1.17-4.27,3.55-4.27c0.87,0,1.74,0.13,2.57,0.38l0.26-2.23
		c-0.83-0.23-1.79-0.34-2.7-0.34c-4.26,0-6.38,2.83-6.38,6.87c0,3.17,1.43,6.13,5.88,6.13C131.53,19.33,132.68,19.1,133.62,18.76
		 M119.02,14.61h-3.55l1.15-3.24c0.25-0.74,0.46-1.47,0.6-2.13h0.02c0.15,0.72,0.34,1.34,0.58,2.04L119.02,14.61z M123.27,19.16
		l-4.55-12.74h-2.77l-4.45,12.74h2.47l0.89-2.6h4.81l0.89,2.6H123.27z M106.78,15.29c0,1.15-0.81,1.9-2.42,1.9
		c-0.57,0-1.04-0.04-1.34-0.08v-3.57c0.26-0.02,0.89-0.02,1.07-0.02C105.7,13.54,106.78,14.05,106.78,15.29 M106.57,9.89
		c0,1.14-0.87,1.81-2.55,1.81c-0.4,0-0.7,0-1-0.02V8.37c0.43-0.02,0.92-0.04,1.43-0.04C106,8.33,106.57,8.95,106.57,9.89
		 M109.4,15.23c0-1.28-0.75-2.53-2.26-2.85v-0.04c1.21-0.47,2.02-1.59,2.02-2.85c0-2.04-1.53-3.15-4.28-3.15
		c-1.57,0-3.23,0.04-4.3,0.09v12.72c1.6,0,2.94,0.04,3.72,0.04C108.14,19.2,109.4,17.08,109.4,15.23 M96.06,19.16V6.42h-2.38v3.96
		c0,1.56,0.04,3.83,0.13,5.11c-0.47-0.96-0.98-2.02-1.57-3l-3.55-6.08h-3.19v12.74h2.38v-4.55c0-1.53-0.04-3.53-0.11-4.62
		c0.38,0.83,0.81,1.77,1.38,2.73l3.74,6.44H96.06z M81.63,19.16v-2.1h-4.47v-3.45h4.25v-2h-4.25V8.48h4.47V6.42H74.7v12.74H81.63z
		 M70.93,6.78c-1.09-0.32-2.34-0.55-3.6-0.55c-4.42,0-7.13,2.85-7.13,6.85c0,3.89,2.4,6.27,6.43,6.27c1.53,0,3.09-0.28,4.36-0.79
		v-6.07h-2.45v4.43c-0.49,0.15-1.02,0.23-1.62,0.23c-2.58,0-4.06-1.58-4.06-4.28c0-2.85,1.81-4.43,4.32-4.43
		c1.19,0,2.36,0.25,3.38,0.64L70.93,6.78z M57.06,6.78c-1.09-0.32-2.34-0.55-3.6-0.55c-4.42,0-7.13,2.85-7.13,6.85
		c0,3.89,2.4,6.27,6.44,6.27c1.53,0,3.09-0.28,4.36-0.79v-6.07h-2.45v4.43c-0.49,0.15-1.02,0.23-1.62,0.23
		c-2.59,0-4.06-1.58-4.06-4.28c0-2.85,1.81-4.43,4.32-4.43c1.19,0,2.36,0.25,3.38,0.64L57.06,6.78z M43.19,6.42h-2.45v12.74h2.45
		V6.42z M34.5,10.18c0,1.19-0.91,1.95-2.38,1.95c-0.38,0-0.72-0.02-0.89-0.04V8.4c0.24-0.04,0.6-0.06,0.96-0.06
		C33.74,8.35,34.5,8.95,34.5,10.18 M37.91,19.16l-3.06-4.28c-0.32-0.43-0.68-0.92-1.04-1.4c1.92-0.3,3.24-1.66,3.24-3.55
		c0-2.6-1.81-3.59-4.62-3.59c-1.47,0-2.66,0.02-3.66,0.07v12.74h2.45v-5.27h0.09l3.55,5.27H37.91z"/>
	<path class="st1" d="M2.63,9.61c0-0.37,0.03-0.73,0.09-1.09L0.09,7.81C0.05,8.13,0,8.5,0,9.61c0,3.29,1.71,6.44,4.11,7.73
		l-4.01,0.32v1.52l5.75-0.06L6.78,16C4.33,14.91,2.63,12.46,2.63,9.61"/>
	<path class="st1" d="M9.61,16.62c-0.37,0-0.74-0.03-1.09-0.09l-0.71,2.62c0.31,0.05,0.69,0.1,1.8,0.1c3.29,0,6.43-1.71,7.73-4.11
		l0.32,4.01h1.53l-0.06-5.74L16,12.48C14.91,14.92,12.46,16.62,9.61,16.62"/>
	<path class="st1" d="M16.62,9.64c0,0.37-0.03,0.74-0.09,1.09l2.62,0.71c0.05-0.31,0.09-0.69,0.09-1.8c0-3.29-1.71-6.43-4.11-7.73
		l4.01-0.32V0.06l-5.75,0.06l-0.93,3.13C14.92,4.34,16.62,6.79,16.62,9.64"/>
	<path class="st1" d="M9.64,2.63c0.37,0,0.73,0.03,1.09,0.08l0.71-2.62C11.13,0.05,10.75,0,9.64,0C6.35,0,3.21,1.71,1.91,4.11
		L1.59,0.1H0.06l0.06,5.74l3.13,0.94C4.34,4.33,6.79,2.63,9.64,2.63"/>
</g>
</svg>
