<?xml version="1.0" standalone="no"?>
<!DOCTYPE svg PUBLIC "-//W3C//DTD SVG 1.1//EN" "http://www.w3.org/Graphics/SVG/1.1/DTD/svg11.dtd">
<!--Generator: Xara Designer (www.xara.com), SVG filter version: 6.6.0.0-->
<svg fill="none" fill-rule="evenodd" stroke="black" stroke-width="0.501" stroke-linejoin="bevel" stroke-miterlimit="10" font-family="Times New Roman" font-size="16" style="font-variant-ligatures:none" xmlns:xlink="http://www.w3.org/1999/xlink" xmlns="http://www.w3.org/2000/svg" version="1.1" overflow="visible" width="157.499pt" height="37.994pt" viewBox="388.101 -51.398 157.499 37.994">
 <defs>
	</defs>
 <g id="Layer 1" transform="scale(1 -1)">
  <path d="M 388.101,51.398 L 388.101,13.404 L 545.6,13.404 L 545.6,51.398 L 388.101,51.398 Z" stroke="none" fill="#5d5d5d" stroke-width="0.778" stroke-linejoin="miter" marker-start="none" marker-end="none"/>
  <g id="Group" fill-rule="nonzero" stroke-linejoin="miter" stroke="none" stroke-width="0.145">
   <g id="Group_1" fill="#eae869">
    <path d="M 506.384,45.317 L 509.715,45.317 C 509.722,44.486 509.716,43.656 509.719,42.825 C 508.607,42.825 507.493,42.824 506.381,42.825 C 506.383,43.656 506.379,44.486 506.384,45.317 Z" marker-start="none" marker-end="none"/>
   </g>
   <g id="Group_2" fill="#ffffff">
    <path d="M 394.702,44.397 C 397.492,44.395 400.283,44.4 403.073,44.395 C 404.524,44.378 406.04,44.135 407.262,43.302 C 408.114,42.74 408.719,41.836 408.947,40.844 C 409.306,39.344 409.074,37.641 408.065,36.433 C 407.418,35.623 406.474,35.11 405.486,34.84 C 406.978,32.548 408.445,30.242 409.935,27.95 C 408.636,27.948 407.334,27.954 406.035,27.947 C 404.754,30.021 403.488,32.103 402.215,34.181 C 400.875,34.177 399.533,34.177 398.192,34.181 C 398.189,32.106 398.192,30.03 398.19,27.954 C 397.028,27.947 395.864,27.951 394.702,27.95 L 394.702,44.397 M 398.189,41.273 C 398.194,39.809 398.19,38.346 398.19,36.883 C 399.725,36.88 401.259,36.885 402.794,36.88 C 403.377,36.876 403.974,36.981 404.49,37.263 C 405.945,38.03 406.057,40.53 404.55,41.301 C 403.659,41.796 402.611,41.673 401.633,41.696 C 400.508,41.715 399.375,41.629 398.255,41.744 C 398.202,41.591 398.18,41.435 398.189,41.273 Z" marker-start="none" marker-end="none"/>
    <path d="M 462.473,44.4 C 464.595,44.388 466.716,44.41 468.837,44.39 C 471.077,44.326 473.467,43.744 475.077,42.086 C 476.612,40.566 477.188,38.327 477.135,36.218 C 477.168,34.073 476.511,31.854 475.022,30.269 C 473.786,28.94 472.018,28.193 470.231,28.012 C 469.558,27.924 468.877,27.954 468.202,27.95 C 466.293,27.95 464.382,27.951 462.473,27.95 C 462.47,33.433 462.47,38.916 462.473,44.4 M 465.939,41.73 C 465.929,38.028 465.936,34.327 465.935,30.625 C 467.12,30.652 468.312,30.583 469.496,30.662 C 470.777,30.802 471.998,31.51 472.691,32.607 C 473.637,34.055 473.788,35.874 473.571,37.55 C 473.377,39.008 472.566,40.449 471.21,41.109 C 469.581,41.943 467.699,41.685 465.939,41.73 Z" marker-start="none" marker-end="none"/>
    <path d="M 416.309,40.71 C 418.122,40.948 420.106,40.829 421.668,39.785 C 422.906,38.973 423.657,37.584 423.911,36.15 C 424.251,34.252 424.141,32.177 423.159,30.476 C 422.321,29.024 420.766,28.086 419.13,27.832 C 417.329,27.564 415.356,27.721 413.821,28.784 C 412.423,29.712 411.637,31.334 411.417,32.963 C 411.199,34.776 411.373,36.737 412.395,38.3 C 413.249,39.644 414.756,40.475 416.309,40.71 M 416.871,38.428 C 415.619,38.109 414.994,36.799 414.873,35.611 C 414.729,34.083 414.693,32.402 415.534,31.052 C 416.492,29.532 419.054,29.64 419.96,31.159 C 420.586,32.196 420.649,33.455 420.628,34.636 C 420.588,35.675 420.467,36.794 419.814,37.646 C 419.133,38.518 417.889,38.717 416.871,38.428 Z" marker-start="none" marker-end="none"/>
    <path d="M 430.895,40.707 C 432.708,40.948 434.695,40.833 436.261,39.792 C 437.486,38.994 438.242,37.627 438.503,36.21 C 438.846,34.382 438.758,32.395 437.897,30.717 C 437.176,29.302 435.781,28.298 434.247,27.938 C 433.118,27.67 431.931,27.659 430.788,27.839 C 429.245,28.098 427.78,28.97 426.952,30.317 C 426.02,31.804 425.817,33.634 425.993,35.351 C 426.156,36.856 426.766,38.373 427.935,39.376 C 428.768,40.092 429.814,40.535 430.895,40.707 M 431.453,38.423 C 430.217,38.094 429.603,36.796 429.478,35.618 C 429.326,34.098 429.301,32.43 430.122,31.078 C 431.065,29.532 433.664,29.627 434.568,31.166 C 435.235,32.287 435.267,33.647 435.221,34.914 C 435.158,35.901 435.008,36.974 434.331,37.745 C 433.63,38.545 432.435,38.704 431.453,38.423 Z" marker-start="none" marker-end="none"/>
    <path d="M 446.146,40.26 C 447.169,40.928 448.511,40.956 449.65,40.602 C 450.765,40.248 451.491,39.181 451.719,38.07 C 452.248,39.076 452.876,40.174 454.019,40.568 C 455.441,41.041 457.257,40.937 458.298,39.735 C 459.332,38.534 459.404,36.859 459.413,35.351 C 459.382,32.882 459.472,30.405 459.367,27.94 C 458.285,27.962 457.205,27.944 456.125,27.95 C 456.121,30.417 456.131,32.883 456.119,35.35 C 456.07,36.219 455.995,37.186 455.384,37.865 C 454.779,38.541 453.632,38.485 453.015,37.854 C 452.206,37.06 452.01,35.862 451.979,34.776 C 451.973,32.502 451.979,30.226 451.976,27.95 C 450.892,27.95 449.807,27.95 448.724,27.95 C 448.722,30.227 448.726,32.505 448.722,34.782 C 448.674,35.787 448.713,36.905 448.073,37.747 C 447.531,38.483 446.372,38.538 445.705,37.945 C 444.862,37.192 444.607,35.997 444.574,34.911 C 444.568,32.59 444.572,30.271 444.572,27.95 C 443.475,27.95 442.378,27.951 441.28,27.948 C 441.244,32.16 441.358,36.372 441.203,40.58 C 442.246,40.58 443.289,40.581 444.332,40.58 C 444.421,39.753 444.453,38.921 444.48,38.089 C 444.902,38.901 445.348,39.756 446.146,40.26 Z" marker-start="none" marker-end="none"/>
    <path d="M 481.208,39.672 C 482.507,40.674 484.234,40.912 485.828,40.773 C 487.262,40.659 488.65,39.895 489.434,38.677 C 490.407,37.197 490.631,35.361 490.619,33.628 C 487.925,33.64 485.23,33.63 482.535,33.633 C 482.534,32.62 482.655,31.507 483.34,30.705 C 484.395,29.425 486.908,29.716 487.347,31.43 C 488.38,31.344 489.411,31.241 490.444,31.169 C 490.061,30.191 489.456,29.267 488.563,28.685 C 487.094,27.685 485.21,27.566 483.503,27.848 C 482.089,28.085 480.768,28.912 480.039,30.158 C 479.083,31.761 478.973,33.702 479.122,35.517 C 479.272,37.09 479.926,38.691 481.208,39.672 M 483.164,37.871 C 482.716,37.238 482.575,36.449 482.543,35.69 C 484.177,35.693 485.812,35.685 487.448,35.695 C 487.354,36.583 487.186,37.566 486.482,38.19 C 485.56,39.026 483.891,38.906 483.164,37.871 Z" marker-start="none" marker-end="none"/>
    <path d="M 493.513,39.21 C 494.38,40.255 495.775,40.654 497.079,40.779 C 498.646,40.882 500.332,40.827 501.71,39.981 C 502.635,39.427 503.272,38.467 503.479,37.415 C 502.505,37.29 501.528,37.202 500.552,37.106 C 500.442,37.901 499.747,38.515 498.956,38.576 C 498.103,38.645 497.187,38.697 496.39,38.333 C 495.813,38.088 495.648,37.318 495.934,36.796 C 496.234,36.362 496.772,36.203 497.255,36.066 C 498.531,35.759 499.828,35.525 501.08,35.119 C 502.124,34.764 503.141,34.077 503.541,33.006 C 504.021,31.673 503.753,30.014 502.646,29.066 C 501.449,28.021 499.788,27.736 498.247,27.722 C 496.758,27.722 495.163,27.823 493.888,28.675 C 493.04,29.227 492.514,30.145 492.254,31.104 C 493.22,31.263 494.189,31.4 495.157,31.547 C 495.336,30.72 496.018,30.051 496.875,29.977 C 497.958,29.888 499.137,29.777 500.143,30.274 C 500.959,30.694 500.921,32.05 500.055,32.396 C 498.273,33.172 496.209,33.105 494.485,34.055 C 493.662,34.504 492.98,35.292 492.83,36.236 C 492.67,37.262 492.822,38.397 493.513,39.21 Z" marker-start="none" marker-end="none"/>
    <path d="M 515.997,40.698 C 517.29,40.951 518.734,40.852 519.843,40.079 C 520.412,39.695 520.793,39.106 521.09,38.501 C 521.13,39.195 521.141,39.894 521.262,40.581 C 522.3,40.58 523.336,40.583 524.373,40.58 C 524.252,36.349 524.353,32.117 524.308,27.885 C 524.256,26.518 523.776,25.091 522.701,24.191 C 521.534,23.2 519.95,22.913 518.462,22.887 C 517.021,22.877 515.49,23.105 514.305,23.981 C 513.542,24.532 513.062,25.394 512.861,26.301 C 513.961,26.423 515.06,26.565 516.161,26.682 C 516.318,26.034 516.774,25.452 517.417,25.23 C 518.181,24.967 519.063,25.004 519.792,25.361 C 520.663,25.845 520.972,26.902 521.022,27.833 C 521.04,28.663 521.027,29.494 521.086,30.323 C 520.648,29.361 519.843,28.554 518.816,28.246 C 517.358,27.8 515.611,27.822 514.366,28.801 C 513.196,29.703 512.665,31.182 512.47,32.6 C 512.241,34.392 512.291,36.277 512.95,37.978 C 513.454,39.301 514.585,40.414 515.997,40.698 M 517.905,38.513 C 516.608,38.32 516.006,36.951 515.878,35.786 C 515.72,34.294 515.672,32.658 516.435,31.311 C 517.17,30.001 519.242,29.917 520.159,31.065 C 520.935,32.018 521.056,33.304 521.078,34.486 C 521.05,35.595 520.91,36.779 520.222,37.692 C 519.703,38.398 518.746,38.681 517.905,38.513 Z" marker-start="none" marker-end="none"/>
    <path d="M 533.621,40.655 C 535.03,40.993 536.707,40.88 537.805,39.832 C 538.753,38.947 539.036,37.601 539.108,36.356 L 539.108,27.954 C 538.016,27.946 536.926,27.954 535.836,27.95 C 535.83,30.32 535.842,32.688 535.83,35.058 C 535.797,35.974 535.732,36.989 535.105,37.715 C 534.318,38.609 532.795,38.527 531.986,37.702 C 531.15,36.87 530.91,35.63 530.936,34.489 C 530.939,32.31 530.935,30.129 530.938,27.95 C 529.839,27.95 528.74,27.95 527.642,27.95 C 527.606,32.16 527.723,36.372 527.567,40.58 C 528.608,40.581 529.649,40.58 530.691,40.581 C 530.795,39.737 530.821,38.886 530.847,38.035 C 531.381,39.224 532.308,40.332 533.621,40.655 Z" marker-start="none" marker-end="none"/>
    <path d="M 506.4,40.581 C 507.499,40.58 508.598,40.581 509.697,40.58 C 509.697,36.371 509.697,32.16 509.697,27.95 C 508.598,27.951 507.499,27.95 506.4,27.95 C 506.401,32.161 506.401,36.371 506.4,40.581 Z" marker-start="none" marker-end="none"/>
    <path d="M 395.045,24.616 C 395.826,24.59 396.614,24.662 397.391,24.566 C 397.964,24.487 398.437,23.946 398.357,23.354 C 398.374,22.785 397.906,22.341 397.379,22.221 C 397.776,21.641 398.139,21.036 398.527,20.448 C 398.315,20.449 398.103,20.451 397.89,20.454 C 397.548,21.029 397.193,21.595 396.855,22.171 C 396.436,22.178 396.017,22.177 395.597,22.178 C 395.596,21.603 395.597,21.027 395.596,20.451 C 395.459,20.451 395.184,20.449 395.045,20.449 C 395.043,21.839 395.043,23.227 395.045,24.616 M 395.596,24.153 C 395.597,23.64 395.596,23.126 395.599,22.613 C 396.194,22.653 396.817,22.515 397.391,22.714 C 397.987,22.947 397.952,23.974 397.298,24.106 C 396.738,24.206 396.162,24.128 395.596,24.153 Z" marker-start="none" marker-end="none"/>
    <path d="M 399.383,20.449 C 399.938,21.837 400.482,23.228 401.037,24.616 C 401.242,24.614 401.446,24.614 401.651,24.613 C 402.192,23.225 402.723,21.833 403.277,20.449 C 403.138,20.449 402.862,20.447 402.723,20.447 C 402.556,20.851 402.404,21.261 402.25,21.671 C 401.64,21.671 401.032,21.667 400.425,21.674 C 400.262,21.267 400.107,20.857 399.948,20.448 C 399.807,20.449 399.525,20.449 399.383,20.449 M 401.339,24.184 C 401.11,23.484 400.842,22.796 400.582,22.107 C 401.086,22.107 401.59,22.104 402.094,22.113 C 401.824,22.796 401.552,23.48 401.339,24.184 Z" marker-start="none" marker-end="none"/>
    <path d="M 404.307,24.616 C 404.49,24.616 404.671,24.614 404.855,24.613 C 404.858,23.763 404.849,22.911 404.856,22.059 C 404.855,21.699 404.929,21.292 405.235,21.062 C 405.83,20.626 406.908,20.85 407.055,21.646 C 407.132,22.633 407.064,23.627 407.089,24.614 C 407.27,24.616 407.45,24.617 407.632,24.617 C 407.636,23.716 407.636,22.815 407.633,21.915 C 407.637,21.349 407.308,20.779 406.779,20.556 C 406.237,20.331 405.591,20.337 405.061,20.594 C 404.587,20.833 404.321,21.36 404.316,21.879 C 404.293,22.791 404.313,23.703 404.307,24.616 Z" marker-start="none" marker-end="none"/>
    <path d="M 409.177,24.614 C 409.414,24.614 409.65,24.614 409.888,24.614 C 410.306,23.432 410.803,22.276 411.156,21.072 C 411.479,22.282 411.98,23.439 412.399,24.617 C 412.63,24.616 412.861,24.616 413.091,24.616 C 413.095,23.227 413.095,21.837 413.091,20.448 C 412.967,20.449 412.715,20.452 412.591,20.454 C 412.572,21.661 412.634,22.871 412.545,24.077 C 412.315,22.815 411.72,21.657 411.326,20.442 C 411.236,20.445 411.056,20.454 410.966,20.459 C 410.507,21.649 409.993,22.831 409.682,24.073 C 409.626,22.867 409.687,21.657 409.664,20.449 C 409.541,20.449 409.298,20.449 409.177,20.449 C 409.174,21.839 409.174,23.227 409.177,24.614 Z" marker-start="none" marker-end="none"/>
    <path d="M 418.972,24.614 C 419.925,24.613 420.88,24.613 421.833,24.614 C 421.924,24.148 421.537,23.833 421.3,23.488 C 420.665,22.633 420.016,21.789 419.394,20.925 C 420.247,20.929 421.099,20.926 421.952,20.929 C 421.957,20.809 421.964,20.569 421.967,20.449 C 420.898,20.449 419.829,20.451 418.759,20.449 C 418.759,20.558 418.76,20.778 418.761,20.887 C 419.584,21.972 420.389,23.071 421.222,24.148 C 420.472,24.156 419.723,24.151 418.972,24.151 C 418.972,24.305 418.972,24.46 418.972,24.614 Z" marker-start="none" marker-end="none"/>
    <path d="M 423.184,24.616 C 423.36,24.616 423.535,24.614 423.712,24.613 C 423.726,23.71 423.687,22.805 423.73,21.902 C 423.739,21.509 423.928,21.084 424.318,20.939 C 424.966,20.653 425.912,21 425.947,21.783 C 425.976,22.727 425.947,23.673 425.96,24.617 C 426.142,24.616 426.326,24.614 426.509,24.611 C 426.505,23.712 426.515,22.813 426.507,21.912 C 426.5,21.367 426.203,20.812 425.696,20.58 C 424.817,20.143 423.45,20.449 423.229,21.52 C 423.127,22.547 423.205,23.584 423.184,24.616 Z" marker-start="none" marker-end="none"/>
    <path d="M 428.037,24.613 C 428.279,24.613 428.52,24.611 428.763,24.609 C 429.147,23.427 429.714,22.304 429.982,21.09 C 430.389,22.269 430.838,23.433 431.253,24.609 C 431.493,24.611 431.735,24.61 431.977,24.607 C 431.974,23.222 431.976,21.837 431.976,20.454 C 431.849,20.452 431.595,20.449 431.468,20.448 C 431.449,21.658 431.507,22.87 431.436,24.077 C 431.277,23.208 430.893,22.402 430.608,21.57 C 430.453,21.203 430.376,20.794 430.161,20.457 C 430.077,20.451 429.911,20.441 429.829,20.435 C 429.413,21.645 428.834,22.81 428.578,24.065 C 428.477,22.866 428.566,21.656 428.535,20.451 C 428.411,20.451 428.163,20.449 428.038,20.449 C 428.037,21.837 428.037,23.225 428.037,24.613 Z" marker-start="none" marker-end="none"/>
    <path d="M 441.755,24.613 C 442.769,24.613 443.783,24.613 444.798,24.614 C 444.798,24.46 444.8,24.307 444.801,24.153 C 443.969,24.154 443.137,24.148 442.306,24.156 C 442.302,23.706 442.302,23.255 442.307,22.805 C 443.082,22.821 443.858,22.81 444.633,22.814 C 444.633,22.702 444.632,22.48 444.632,22.369 C 443.856,22.379 443.081,22.372 442.307,22.375 C 442.302,21.889 442.302,21.404 442.307,20.919 C 442.756,20.933 443.205,20.929 443.655,20.922 C 444.074,20.926 444.493,20.932 444.913,20.929 C 444.916,20.809 444.923,20.569 444.927,20.449 C 443.869,20.451 442.812,20.449 441.755,20.451 C 441.754,21.839 441.754,23.225 441.755,24.613 Z" marker-start="none" marker-end="none"/>
    <path d="M 446.27,24.614 C 447.055,24.566 447.889,24.74 448.639,24.441 C 449.419,24.096 449.244,22.821 448.424,22.639 C 449.355,22.614 449.718,21.328 449.007,20.778 C 448.206,20.227 447.175,20.528 446.27,20.449 C 446.266,21.839 446.265,23.227 446.27,24.614 M 446.806,24.153 C 446.805,23.715 446.805,23.279 446.806,22.841 C 447.247,22.854 447.695,22.803 448.132,22.885 C 448.672,22.984 448.79,23.865 448.268,24.064 C 447.802,24.229 447.29,24.125 446.806,24.153 M 446.806,22.399 C 446.805,21.897 446.804,21.394 446.806,20.89 C 447.339,20.903 447.887,20.839 448.408,20.984 C 448.97,21.167 448.973,22.116 448.414,22.307 C 447.899,22.483 447.339,22.367 446.806,22.399 Z" marker-start="none" marker-end="none"/>
    <path d="M 450.758,24.614 C 451.774,24.611 452.789,24.613 453.806,24.613 C 453.806,24.46 453.806,24.307 453.807,24.153 C 452.967,24.151 452.127,24.155 451.287,24.149 C 451.287,23.706 451.287,23.261 451.286,22.818 C 452.069,22.808 452.851,22.815 453.634,22.813 C 453.634,22.668 453.635,22.522 453.635,22.376 C 452.85,22.328 452.044,22.463 451.273,22.309 C 451.295,21.851 451.289,21.393 451.283,20.935 C 452.072,20.91 452.86,20.936 453.65,20.929 C 453.969,21.014 453.952,20.654 453.934,20.451 C 452.876,20.448 451.816,20.451 450.756,20.449 C 450.755,21.837 450.753,23.227 450.758,24.614 Z" marker-start="none" marker-end="none"/>
    <path d="M 455.241,24.616 C 455.449,24.614 455.66,24.614 455.871,24.611 C 456.587,23.425 457.324,22.249 458.032,21.059 C 458.002,22.244 458.018,23.43 458.017,24.616 C 458.177,24.616 458.34,24.614 458.503,24.613 C 458.503,23.227 458.505,21.839 458.502,20.452 C 458.29,20.449 458.077,20.447 457.867,20.442 C 457.135,21.617 456.412,22.796 455.711,23.989 C 455.738,22.81 455.731,21.63 455.728,20.449 C 455.606,20.449 455.363,20.449 455.241,20.451 C 455.241,21.839 455.241,23.227 455.241,24.616 Z" marker-start="none" marker-end="none"/>
    <path d="M 437.923,20.449 C 437.923,21.84 437.917,23.231 437.925,24.622 C 438.063,24.617 438.337,24.609 438.474,24.606 C 438.474,23.378 438.472,22.152 438.477,20.925 C 439.111,20.924 439.745,20.939 440.38,20.924 C 440.588,20.853 440.479,20.611 440.506,20.451 C 439.644,20.448 438.783,20.451 437.923,20.449 Z" marker-start="none" marker-end="none"/>
    <path d="M 459.774,20.135 C 486.136,20.128 512.496,20.135 538.857,20.132 C 538.857,20.038 538.857,19.851 538.857,19.756 L 459.778,19.756 C 459.777,19.852 459.776,20.041 459.774,20.135 Z" marker-start="none" marker-end="none"/>
   </g>
  </g>
 </g>
 <g id="Sponsoren" transform="scale(1 -1)"/>
 <g id="Content" transform="scale(1 -1)"/>
 <g id="Logo Vektor" transform="scale(1 -1)"/>
</svg>
