<?xml version="1.0" standalone="no"?>
<!DOCTYPE svg PUBLIC "-//W3C//DTD SVG 1.1//EN" "http://www.w3.org/Graphics/SVG/1.1/DTD/svg11.dtd">
<!--Generator: Xara Designer (www.xara.com), SVG filter version: 6.6.0.7-->
<svg fill="none" fill-rule="evenodd" stroke="black" stroke-width="0.501" stroke-linejoin="bevel" stroke-miterlimit="10" font-family="Times New Roman" font-size="16" style="font-variant-ligatures:none" xmlns:xlink="http://www.w3.org/1999/xlink" xmlns="http://www.w3.org/2000/svg" version="1.1" overflow="visible" width="149.168pt" height="30.339pt" viewBox="812.551 -255.668 149.168 30.339">
 <defs>
  <style type="text/css">@import url('https://themes.googleusercontent.com/fonts/css?family=Noto Serif:400');
@import url('https://themes.googleusercontent.com/fonts/css?family=Open Sans:400,600');
@import url('https://themes.googleusercontent.com/fonts/css?family=Open Sans Condensed:700');</style>
 </defs>
 <g id="Ad Grid" transform="scale(1 -1)">
  <g id="Group" stroke-linejoin="miter" stroke="none">
   <path d="M 871.995,248.313 C 871.995,248.814 871.951,249.38 871.734,249.859 C 871.669,249.99 871.538,250.207 871.298,250.469 C 871.124,250.643 870.863,250.882 870.341,251.122 C 869.232,251.6 867.665,251.579 867.426,251.579 C 865.271,251.579 864.183,250.99 863.53,250.185 C 862.855,249.38 862.812,248.445 862.812,248.053 C 862.812,245.855 864.683,245.289 865.337,245.093 C 865.598,245.007 865.881,244.941 866.163,244.854 L 867.315,244.571 C 868.122,244.375 869.101,244.158 869.101,243.092 C 869.101,242.178 868.426,241.764 867.599,241.764 C 866.424,241.764 866.011,242.351 865.881,242.852 C 865.836,243.048 865.816,243.222 865.816,243.614 L 862.572,243.679 C 862.551,243.549 862.551,243.44 862.551,243.309 C 862.551,241.699 863.53,240.981 864.075,240.698 C 865.25,240.109 867.098,240.132 867.295,240.132 C 869.645,240.132 870.82,240.741 871.538,241.656 C 872.016,242.265 872.191,243.005 872.191,243.789 C 872.191,245.159 871.538,245.92 871.081,246.269 C 870.428,246.79 869.449,247.007 868.688,247.204 L 867.816,247.4 C 867.295,247.552 866.467,247.77 866.141,248.249 C 865.989,248.467 865.967,248.728 865.967,248.814 C 865.967,249.641 866.729,250.012 867.448,250.012 C 868.905,250.012 868.97,248.858 868.949,248.38 L 871.995,248.313 Z" fill="#020304" stroke-width="0.228" fill-rule="nonzero" marker-start="none" marker-end="none"/>
   <path d="M 880.875,244.136 C 880.875,243.744 880.855,243.527 880.81,243.353 C 880.614,242.418 879.918,241.981 878.981,241.981 C 877.546,241.981 877.503,243.288 877.503,243.679 C 877.503,245.136 878.744,245.419 879.178,245.529 C 879.634,245.616 879.983,245.659 880.875,245.726 L 880.875,244.136 Z M 884.835,240.415 L 884.835,240.546 C 884.791,240.589 884.727,240.632 884.662,240.719 C 884.422,241.067 884.378,241.699 884.378,242.613 L 884.378,247.836 C 884.378,248.684 884.378,249.468 883.856,250.207 C 883.508,250.709 883.007,251.165 881.724,251.405 C 880.766,251.579 879.896,251.579 879.591,251.579 C 877.263,251.579 875.935,251.121 875.108,250.36 C 874.391,249.663 874.259,248.837 874.259,247.879 L 877.655,247.879 C 877.655,248.553 877.72,249.293 878.394,249.685 C 878.808,249.947 879.22,249.947 879.374,249.947 C 880.265,249.947 880.614,249.49 880.744,249.119 C 880.896,248.706 880.875,248.074 880.875,248.009 L 880.875,247.118 L 879.156,246.964 C 876.675,246.682 875.478,246.464 874.608,245.419 C 873.955,244.615 873.955,243.744 873.955,243.396 C 873.955,242.569 874.151,241.611 874.782,240.981 C 875.609,240.132 876.806,240.132 877.132,240.132 C 878.633,240.132 879.657,240.719 880.135,241.09 C 880.417,241.307 880.679,241.568 880.744,241.656 C 880.722,240.981 880.855,240.611 881.223,240.48 C 881.506,240.394 881.898,240.415 881.941,240.415 L 884.835,240.415 Z" fill="#020304" stroke-width="0.228" marker-start="none" marker-end="none"/>
   <path d="M 903.826,240.415 L 903.826,248.206 C 903.781,249.01 903.739,249.314 903.608,249.729 C 903.564,249.881 903.433,250.229 903.149,250.577 C 902.781,251.013 902.062,251.513 900.756,251.513 C 899.43,251.513 898.515,250.968 898.101,250.708 C 897.535,250.36 897.253,250.054 897.036,249.859 C 896.903,250.142 896.817,250.272 896.73,250.403 C 896.142,251.23 895.12,251.513 894.163,251.513 C 892.29,251.513 891.181,250.49 890.659,250.033 L 890.659,251.296 L 887.133,251.296 L 887.133,240.415 L 890.659,240.415 L 890.659,247.312 C 890.659,248.184 890.703,248.619 890.942,248.989 C 891.246,249.423 891.791,249.685 892.335,249.685 C 893.161,249.685 893.466,249.163 893.575,248.88 C 893.75,248.467 893.728,247.901 893.728,247.465 L 893.728,240.415 L 897.231,240.415 L 897.231,247.77 C 897.275,248.509 897.362,249.053 898.036,249.446 C 898.34,249.598 898.602,249.685 898.928,249.685 C 899.167,249.685 899.843,249.62 900.126,248.923 C 900.255,248.64 900.3,248.206 900.3,247.509 L 900.3,240.415 L 903.826,240.415 Z" fill="#020304" stroke-width="0.228" fill-rule="nonzero" marker-start="none" marker-end="none"/>
   <path d="M 913.035,244.136 C 913.035,243.744 913.013,243.527 912.968,243.353 C 912.773,242.418 912.076,241.981 911.141,241.981 C 909.705,241.981 909.662,243.288 909.662,243.679 C 909.662,245.136 910.902,245.419 911.336,245.529 C 911.794,245.616 912.141,245.659 913.035,245.726 L 913.035,244.136 Z M 916.994,240.415 L 916.994,240.546 C 916.951,240.589 916.885,240.632 916.82,240.719 C 916.581,241.067 916.538,241.699 916.538,242.613 L 916.538,247.836 C 916.538,248.684 916.538,249.468 916.016,250.207 C 915.667,250.709 915.166,251.165 913.883,251.405 C 912.925,251.579 912.054,251.579 911.751,251.579 C 909.423,251.579 908.095,251.121 907.267,250.36 C 906.551,249.663 906.418,248.837 906.418,247.879 L 909.814,247.879 C 909.814,248.553 909.879,249.293 910.553,249.685 C 910.967,249.947 911.38,249.947 911.533,249.947 C 912.424,249.947 912.773,249.49 912.903,249.119 C 913.055,248.706 913.035,248.074 913.035,248.009 L 913.035,247.118 L 911.316,246.964 C 908.834,246.682 907.637,246.464 906.768,245.419 C 906.113,244.615 906.113,243.744 906.113,243.396 C 906.113,242.569 906.311,241.611 906.941,240.981 C 907.768,240.132 908.965,240.132 909.292,240.132 C 910.792,240.132 911.815,240.719 912.294,241.09 C 912.576,241.307 912.837,241.568 912.903,241.656 C 912.882,240.981 913.013,240.611 913.382,240.48 C 913.666,240.394 914.058,240.415 914.101,240.415 L 916.994,240.415 Z" fill="#020304" stroke-width="0.228" marker-start="none" marker-end="none"/>
   <path d="M 922.797,240.415 L 922.797,246.551 C 922.797,246.9 922.71,248.03 923.755,248.619 C 924.059,248.791 924.451,248.902 924.82,248.902 C 925.561,248.902 926.213,248.532 926.409,248.423 L 926.43,251.274 C 926.257,251.36 925.995,251.491 925.539,251.491 C 925.038,251.491 923.927,251.274 923.189,250.12 C 923.079,249.989 922.949,249.75 922.797,249.358 L 922.797,251.296 L 919.271,251.296 L 919.271,240.415 L 922.797,240.415 Z" fill="#020304" stroke-width="0.228" fill-rule="nonzero" marker-start="none" marker-end="none"/>
   <path d="M 937.959,249.75 L 939.786,249.75 L 939.786,251.295 L 937.959,251.295 L 937.959,254.146 L 934.455,253.427 L 934.455,251.295 L 933.063,251.295 L 933.063,249.75 L 934.455,249.75 L 934.455,244.113 C 934.433,242.612 934.564,241.785 935.042,241.198 C 935.433,240.719 936.282,240.262 937.72,240.262 C 938.807,240.262 939.655,240.479 940.048,240.588 L 940.069,242.481 C 939.895,242.439 939.633,242.373 939.199,242.351 C 938.458,242.351 938.176,242.765 938.067,243.069 C 937.981,243.374 937.959,243.874 937.959,244.55 L 937.959,249.75 Z" fill="#020304" stroke-width="0.228" fill-rule="nonzero" marker-start="none" marker-end="none"/>
   <path d="M 927.891,240.415 L 927.891,251.296 L 931.438,251.296 L 931.438,240.415 L 927.891,240.415 Z M 927.891,252.948 L 927.891,255.668 L 931.438,255.668 L 931.438,252.948 L 927.891,252.948 Z" stroke-width="0" fill="#020304" marker-start="none" marker-end="none"/>
   <path d="M 945.123,247.118 C 945.188,249.097 945.994,249.925 947.082,249.925 C 948.627,249.925 948.801,248.228 948.801,247.118 L 945.123,247.118 Z M 952.26,245.617 C 952.26,245.856 952.282,246.095 952.282,246.335 C 952.282,246.508 952.304,248.902 951.259,250.121 C 950.955,250.469 950.541,250.73 950.41,250.795 C 949.106,251.579 947.538,251.579 947.125,251.579 C 946.015,251.579 944.971,251.425 943.948,250.903 C 943.143,250.469 942.032,249.62 941.641,247.487 C 941.511,246.725 941.511,245.878 941.511,245.659 C 941.511,245.246 941.381,242.613 943.055,241.241 C 944.427,240.133 946.625,240.133 946.972,240.133 C 948.735,240.133 950.977,240.523 951.868,242.308 C 952.065,242.656 952.217,243.092 952.282,243.897 L 948.844,243.919 C 948.822,243.7 948.844,242.505 947.931,242.025 C 947.799,241.938 947.473,241.808 947.037,241.808 C 945.21,241.808 945.144,243.897 945.123,244.179 C 945.079,244.658 945.059,245.137 945.079,245.617 L 952.26,245.617 Z" fill="#020304" stroke-width="0.228" marker-start="none" marker-end="none"/>
   <path d="M 958.084,240.415 L 958.084,246.551 C 958.084,246.9 957.997,248.03 959.042,248.619 C 959.346,248.791 959.739,248.902 960.107,248.902 C 960.848,248.902 961.5,248.532 961.696,248.423 L 961.719,251.274 C 961.545,251.36 961.283,251.491 960.827,251.491 C 960.326,251.491 959.217,251.274 958.477,250.12 C 958.366,249.989 958.237,249.75 958.084,249.358 L 958.084,251.296 L 954.559,251.296 L 954.559,240.415 L 958.084,240.415 Z" fill="#020304" stroke-width="0.228" fill-rule="nonzero" marker-start="none" marker-end="none"/>
   <path d="M 853.272,245.894 L 853.272,251.677 L 847.494,251.677 L 847.494,245.894 L 841.677,245.894 L 841.677,240.125 L 847.494,240.127 L 847.494,234.341 L 853.272,234.341 L 853.272,240.127 L 859.047,240.125 L 859.047,245.894 L 853.272,245.894 Z" fill="#ed1c24" stroke-width="0.228" fill-rule="nonzero" marker-start="none" marker-end="none"/>
   <path d="M 812.556,231.043 L 833.589,231.043 C 834.224,231.043 834.442,231.565 834.442,231.914 C 834.442,232.258 834.221,232.787 833.59,232.787 L 820.077,232.792 C 817.029,232.786 813.055,234.428 813.055,239.299 C 813.055,245.023 818.053,245.786 820.074,245.807 L 838.064,245.807 L 838.064,240.191 L 820.077,240.187 C 819.436,240.187 819.227,239.663 819.227,239.324 C 819.227,238.964 819.436,238.449 820.077,238.449 C 822.186,238.449 833.589,238.449 833.589,238.449 C 836.697,238.449 840.609,236.989 840.609,231.907 C 840.609,227.059 836.697,225.492 833.589,225.492 L 812.551,225.49 L 812.556,231.043 Z" fill="#ed1c24" stroke-width="0.228" fill-rule="nonzero" marker-start="none" marker-end="none"/>
   <path d="M 833.589,237.479 L 820.101,237.478 C 818.992,237.478 818.186,238.245 818.186,239.299 C 818.186,240.381 818.974,241.137 820.101,241.137 L 837.125,241.137 L 837.125,244.792 L 820.077,244.792 C 817.837,244.792 814.078,244.08 814.078,239.299 C 814.078,234.142 818.669,233.743 820.077,233.743 L 833.589,233.743 C 834.698,233.743 835.504,232.972 835.504,231.913 C 835.502,230.859 834.696,230.092 833.589,230.092 L 813.642,230.092 L 813.634,226.373 L 833.589,226.372 C 835.002,226.372 839.611,226.776 839.611,231.975 C 839.611,236.764 835.839,237.479 833.589,237.479 Z" fill="#e5eff9" stroke-width="0.228" fill-rule="nonzero" marker-start="none" marker-end="none"/>
   <g id="Group_1" fill-rule="nonzero" stroke-width="0.228" fill="#231f20">
    <g id="Group_2">
     <path d="M 863,227.155 C 862.941,225.884 863.845,225.329 865.08,225.329 C 866.927,225.329 867.073,226.461 867.073,226.819 C 867.073,227.673 866.46,227.994 865.724,228.191 L 864.452,228.504 C 864.03,228.607 863.664,228.812 863.664,229.302 C 863.664,230.075 864.293,230.338 864.971,230.338 C 865.707,230.338 866.365,229.937 866.395,229.14 L 866.891,229.14 C 866.899,230.206 865.993,230.761 864.963,230.761 C 863.496,230.761 863.167,229.806 863.167,229.294 C 863.167,228.484 863.73,228.191 864.343,228.037 L 865.503,227.754 C 865.986,227.636 866.577,227.404 866.577,226.811 C 866.577,226.052 865.744,225.753 865.197,225.753 C 864.248,225.753 863.473,226.082 863.496,227.155 L 863,227.155 Z" marker-start="none" marker-end="none"/>
     <path d="M 870.183,226.9 C 870.192,226.162 869.57,225.716 868.87,225.716 C 868.439,225.716 868.03,226.001 868.03,226.461 C 868.03,227.199 869.002,227.191 869.783,227.329 C 869.906,227.352 870.11,227.387 870.169,227.497 L 870.183,227.497 L 870.183,226.9 Z M 868.19,228.054 C 868.204,228.667 868.629,228.93 869.198,228.93 C 869.738,228.93 870.183,228.775 870.183,228.155 C 870.183,227.74 869.971,227.688 869.592,227.645 C 868.599,227.527 867.569,227.49 867.569,226.432 C 867.569,225.672 868.139,225.329 868.834,225.329 C 869.556,225.329 869.884,225.607 870.205,226.096 L 870.22,226.096 C 870.22,225.702 870.293,225.439 870.76,225.439 C 870.883,225.439 870.958,225.447 871.06,225.467 L 871.06,225.856 C 871.023,225.84 870.965,225.826 870.914,225.826 C 870.732,225.826 870.643,225.928 870.643,226.102 L 870.643,228.104 C 870.643,229.111 869.921,229.316 869.256,229.316 C 868.395,229.316 867.773,228.936 867.73,228.054 L 868.19,228.054 Z" marker-start="none" marker-end="none"/>
     <path d="M 871.563,225.439 L 872.024,225.439 L 872.024,227.542 C 872.031,228.33 872.353,228.93 873.148,228.93 C 873.733,228.93 873.945,228.504 873.937,227.994 L 873.937,225.439 L 874.396,225.439 L 874.396,227.572 C 874.396,228.272 874.623,228.93 875.42,228.93 C 876.076,228.93 876.311,228.594 876.311,227.972 L 876.311,225.439 L 876.77,225.439 L 876.77,227.994 C 876.77,228.885 876.347,229.316 875.521,229.316 C 875.026,229.316 874.55,229.075 874.324,228.577 C 874.185,229.075 873.741,229.316 873.243,229.316 C 872.644,229.316 872.251,229.025 872.011,228.571 L 871.988,228.571 L 871.988,229.207 L 871.563,229.207 L 871.563,225.439 Z" marker-start="none" marker-end="none"/>
     <path d="M 880.054,226.9 C 880.062,226.162 879.441,225.716 878.741,225.716 C 878.309,225.716 877.9,226.001 877.9,226.461 C 877.9,227.199 878.872,227.191 879.654,227.329 C 879.777,227.352 879.981,227.387 880.04,227.497 L 880.054,227.497 L 880.054,226.9 Z M 878.061,228.054 C 878.075,228.667 878.5,228.93 879.069,228.93 C 879.609,228.93 880.054,228.775 880.054,228.155 C 880.054,227.74 879.842,227.688 879.463,227.645 C 878.47,227.527 877.44,227.49 877.44,226.432 C 877.44,225.672 878.01,225.329 878.704,225.329 C 879.426,225.329 879.755,225.607 880.076,226.096 L 880.091,226.096 C 880.091,225.702 880.164,225.439 880.631,225.439 C 880.754,225.439 880.829,225.447 880.93,225.467 L 880.93,225.856 C 880.894,225.84 880.835,225.826 880.784,225.826 C 880.603,225.826 880.513,225.928 880.513,226.102 L 880.513,228.104 C 880.513,229.111 879.791,229.316 879.127,229.316 C 878.265,229.316 877.644,228.936 877.601,228.054 L 878.061,228.054 Z" marker-start="none" marker-end="none"/>
     <path d="M 881.434,225.439 L 881.895,225.439 L 881.895,227.447 C 881.895,228.228 882.464,228.84 883.298,228.798 L 883.298,229.257 C 882.618,229.286 882.106,228.93 881.873,228.323 L 881.858,228.323 L 881.858,229.207 L 881.434,229.207 L 881.434,225.439 Z" marker-start="none" marker-end="none"/>
     <path d="M 883.743,225.439 L 884.202,225.439 L 884.202,229.207 L 883.743,229.207 L 883.743,225.439 Z M 883.743,229.915 L 884.202,229.915 L 884.202,230.652 L 883.743,230.652 L 883.743,229.915 Z" marker-start="none" marker-end="none"/>
     <path d="M 885.814,230.338 L 885.355,230.338 L 885.355,229.207 L 884.698,229.207 L 884.698,228.82 L 885.355,228.82 L 885.355,226.242 C 885.347,225.599 885.56,225.394 886.173,225.394 C 886.313,225.394 886.444,225.411 886.582,225.411 L 886.582,225.803 C 886.451,225.789 886.319,225.783 886.187,225.783 C 885.859,225.803 885.814,225.979 885.814,226.279 L 885.814,228.82 L 886.582,228.82 L 886.582,229.207 L 885.814,229.207 L 885.814,230.338 Z" marker-start="none" marker-end="none"/>
     <path d="M 890.414,227.199 C 890.45,228.258 889.97,229.316 888.757,229.316 C 887.561,229.316 887.057,228.316 887.057,227.323 C 887.057,226.248 887.561,225.329 888.757,225.329 C 889.706,225.329 890.204,225.826 890.4,226.679 L 889.94,226.679 C 889.795,226.111 889.429,225.716 888.757,225.716 C 887.874,225.716 887.525,226.528 887.516,227.199 L 890.414,227.199 Z M 887.516,227.585 C 887.589,228.272 888.006,228.93 888.757,228.93 C 889.501,228.93 889.933,228.28 889.955,227.585 L 887.516,227.585 Z" marker-start="none" marker-end="none"/>
     <path d="M 891.035,225.439 L 891.496,225.439 L 891.496,227.447 C 891.496,228.228 892.066,228.84 892.899,228.798 L 892.899,229.257 C 892.219,229.286 891.707,228.93 891.474,228.323 L 891.46,228.323 L 891.46,229.207 L 891.035,229.207 L 891.035,225.439 Z" marker-start="none" marker-end="none"/>
     <path d="M 894.366,225.439 L 894.856,225.439 L 896.265,229.207 L 895.79,229.207 L 894.621,225.898 L 894.607,225.898 L 893.425,229.207 L 892.914,229.207 L 894.366,225.439 Z" marker-start="none" marker-end="none"/>
     <path d="M 899.886,227.199 C 899.922,228.258 899.441,229.316 898.229,229.316 C 897.033,229.316 896.529,228.316 896.529,227.323 C 896.529,226.248 897.033,225.329 898.229,225.329 C 899.178,225.329 899.676,225.826 899.872,226.679 L 899.412,226.679 C 899.267,226.111 898.901,225.716 898.229,225.716 C 897.346,225.716 896.997,226.528 896.988,227.199 L 899.886,227.199 Z M 896.988,227.585 C 897.061,228.272 897.478,228.93 898.229,228.93 C 898.973,228.93 899.405,228.28 899.427,227.585 L 896.988,227.585 Z" marker-start="none" marker-end="none"/>
     <path d="M 900.507,225.439 L 900.968,225.439 L 900.968,227.447 C 900.968,228.228 901.538,228.84 902.371,228.798 L 902.371,229.257 C 901.691,229.286 901.179,228.93 900.946,228.323 L 900.932,228.323 L 900.932,229.207 L 900.507,229.207 L 900.507,225.439 Z" marker-start="none" marker-end="none"/>
     <path d="M 905.977,227.199 C 906.013,228.258 905.532,229.316 904.319,229.316 C 903.124,229.316 902.62,228.316 902.62,227.323 C 902.62,226.248 903.124,225.329 904.319,225.329 C 905.268,225.329 905.767,225.826 905.963,226.679 L 905.503,226.679 C 905.358,226.111 904.992,225.716 904.319,225.716 C 903.437,225.716 903.087,226.528 903.079,227.199 L 905.977,227.199 Z M 903.079,227.585 C 903.152,228.272 903.568,228.93 904.319,228.93 C 905.064,228.93 905.496,228.28 905.518,227.585 L 903.079,227.585 Z" marker-start="none" marker-end="none"/>
     <path d="M 906.606,225.439 L 907.065,225.439 L 907.065,229.207 L 906.606,229.207 L 906.606,225.439 Z M 906.606,229.915 L 907.065,229.915 L 907.065,230.652 L 906.606,230.652 L 906.606,229.915 Z" marker-start="none" marker-end="none"/>
     <path d="M 907.941,225.439 L 908.401,225.439 L 908.401,227.636 C 908.415,228.373 908.854,228.93 909.585,228.93 C 910.33,228.93 910.54,228.44 910.54,227.79 L 910.54,225.439 L 911.001,225.439 L 911.001,227.863 C 911.001,228.762 910.679,229.316 909.621,229.316 C 909.087,229.316 908.583,229.009 908.415,228.557 L 908.401,228.557 L 908.401,229.207 L 907.941,229.207 L 907.941,225.439 Z" marker-start="none" marker-end="none"/>
     <path d="M 914.482,230.228 L 915.541,230.228 C 917.037,230.235 917.687,229.601 917.687,228.045 C 917.687,226.491 917.037,225.856 915.541,225.861 L 914.482,225.861 L 914.482,230.228 Z M 913.986,225.439 L 915.789,225.439 C 917.359,225.475 918.183,226.337 918.183,228.045 C 918.183,229.753 917.359,230.615 915.789,230.652 L 913.986,230.652 L 913.986,225.439 Z" marker-start="none" marker-end="none"/>
     <path d="M 921.951,229.207 L 921.49,229.207 L 921.49,227.228 C 921.49,226.461 921.148,225.716 920.358,225.716 C 919.627,225.716 919.373,226.074 919.351,226.752 L 919.351,229.207 L 918.891,229.207 L 918.891,226.76 C 918.891,225.884 919.263,225.329 920.212,225.329 C 920.775,225.329 921.271,225.615 921.512,226.119 L 921.525,226.119 L 921.525,225.439 L 921.951,225.439 L 921.951,229.207 Z" marker-start="none" marker-end="none"/>
     <path d="M 922.825,225.439 L 923.284,225.439 L 923.284,230.652 L 922.825,230.652 L 922.825,225.439 Z" marker-start="none" marker-end="none"/>
     <path d="M 924.175,225.439 L 924.634,225.439 L 924.634,230.652 L 924.175,230.652 L 924.175,225.439 Z" marker-start="none" marker-end="none"/>
     <path d="M 925.524,225.439 L 925.983,225.439 L 925.983,229.207 L 925.524,229.207 L 925.524,225.439 Z M 925.524,229.915 L 925.983,229.915 L 925.983,230.652 L 925.524,230.652 L 925.524,229.915 Z" marker-start="none" marker-end="none"/>
     <path d="M 926.866,225.439 L 927.327,225.439 L 927.327,226.87 L 928.072,227.49 L 929.561,225.439 L 930.138,225.439 L 928.422,227.813 L 930.029,229.207 L 929.416,229.207 L 927.327,227.382 L 927.327,230.652 L 926.866,230.652 L 926.866,225.439 Z" marker-start="none" marker-end="none"/>
     <path d="M 933.685,227.199 C 933.721,228.258 933.24,229.316 932.028,229.316 C 930.832,229.316 930.328,228.316 930.328,227.323 C 930.328,226.248 930.832,225.329 932.028,225.329 C 932.977,225.329 933.475,225.826 933.671,226.679 L 933.211,226.679 C 933.066,226.111 932.7,225.716 932.028,225.716 C 931.145,225.716 930.796,226.528 930.787,227.199 L 933.685,227.199 Z M 930.787,227.585 C 930.86,228.272 931.277,228.93 932.028,228.93 C 932.772,228.93 933.204,228.28 933.226,227.585 L 930.787,227.585 Z" marker-start="none" marker-end="none"/>
     <path d="M 934.3,225.439 L 934.76,225.439 L 934.76,227.636 C 934.774,228.373 935.213,228.93 935.944,228.93 C 936.688,228.93 936.899,228.44 936.899,227.79 L 936.899,225.439 L 937.36,225.439 L 937.36,227.863 C 937.36,228.762 937.038,229.316 935.98,229.316 C 935.445,229.316 934.942,229.009 934.774,228.557 L 934.76,228.557 L 934.76,229.207 L 934.3,229.207 L 934.3,225.439 Z" marker-start="none" marker-end="none"/>
    </g>
   </g>
  </g>
 </g>
 <g id="Content" transform="scale(1 -1)"/>
 <g id="Layer 1" transform="scale(1 -1)"/>
 <g id="Layer_3" transform="scale(1 -1)"/>
</svg>
