<?xml version="1.0" encoding="utf-8"?>
<!-- Generator: Adobe Illustrator 25.1.0, SVG Export Plug-In . SVG Version: 6.00 Build 0)  -->
<svg version="1.1" id="Ebene_1" xmlns="http://www.w3.org/2000/svg" xmlns:xlink="http://www.w3.org/1999/xlink" x="0px" y="0px"
	 viewBox="0 0 281.7 52.6" style="enable-background:new 0 0 281.7 52.6;" xml:space="preserve">
<style type="text/css">
	.st0{fill-rule:evenodd;clip-rule:evenodd;fill:#F68C36;}
</style>
<polygon class="st0" points="256.5,0 270.7,0 281.7,28.4 267.5,28.4 "/>
<g>
	<path d="M4.4,23.3c0.1,1.8,1.2,2.3,2.8,2.3c1.2,0,2.4-0.4,2.4-1.5c0-1.3-2.1-1.6-4.3-2.2c-2.1-0.6-4.4-1.6-4.4-4.3
		c0-3.3,3.3-4.6,6.1-4.6c3,0,6,1.4,6,4.8H9.1c0.1-1.4-1.2-1.8-2.4-1.8c-0.8,0-1.9,0.3-1.9,1.3c0,1.2,2.2,1.4,4.3,2
		c2.2,0.6,4.3,1.6,4.3,4.3c0,3.8-3.2,5-6.5,5c-3.4,0-6.5-1.5-6.5-5.4H4.4z"/>
	<path d="M15.3,13.4h3.9v15h-3.9V13.4z"/>
	<path d="M22,13.4h11.9v3.1h-8v2.6h7.3v3h-7.3V25h8.2v3.4H22V13.4z"/>
	<path d="M50.2,28.4h-2.5l-0.2-1.6c-1,1.4-2.8,2-4.2,2c-4.5,0-7.5-3.5-7.5-7.8c0-4.3,2.9-7.8,7.5-7.8c3.1,0,6.4,1.7,6.8,5.4h-3.9
		c-0.1-1.3-1.4-2.1-3-2.1c-2.5,0-3.5,2.2-3.5,4.4s1,4.4,3.5,4.4c1.9,0,3.2-0.9,3.4-2.3h-2.7v-2.9h6.3V28.4z"/>
	<path d="M52.7,13.4h7.6c2.6,0,5.2,1.2,5.2,4.2c0,1.6-0.8,3.1-2.4,3.8v0c1.6,0.4,2.1,2.2,2.2,3.6c0,0.6,0.1,2.8,0.6,3.4h-3.9
		c-0.3-0.5-0.4-2-0.4-2.4c-0.1-1.5-0.4-3.1-2.2-3.1h-3v5.5h-3.9V13.4z M56.6,19.9h3.3c1.2,0,1.8-0.6,1.8-1.8c0-1.1-0.9-1.6-2-1.6
		h-3.1V19.9z"/>
	<path d="M67.8,13.4h3.9v15h-3.9V13.4z"/>
	<path d="M77.5,23.3c0.1,1.8,1.2,2.3,2.8,2.3c1.2,0,2.4-0.4,2.4-1.5c0-1.3-2.1-1.6-4.3-2.2c-2.1-0.6-4.4-1.6-4.4-4.3
		c0-3.3,3.3-4.6,6.1-4.6c3,0,6,1.4,6,4.8h-3.9c0.1-1.4-1.2-1.8-2.4-1.8c-0.8,0-1.9,0.3-1.9,1.3c0,1.2,2.2,1.4,4.3,2
		c2.2,0.6,4.3,1.6,4.3,4.3c0,3.8-3.2,5-6.5,5c-3.4,0-6.5-1.5-6.5-5.4H77.5z"/>
	<path d="M100.3,16.7h-4.5v11.6h-3.9V16.7h-4.5v-3.4h12.8V16.7z"/>
	<path d="M108.5,28.1c-0.8,0.4-1.6,0.6-2.5,0.6c-0.6,0-1.2-0.1-1.8-0.3s-1-0.4-1.4-0.8s-0.7-0.8-1-1.3c-0.2-0.5-0.3-1.1-0.3-1.8
		c0-0.5,0.1-1,0.3-1.5c0.2-0.4,0.5-0.9,0.9-1.2c0.4-0.4,0.8-0.7,1.2-1c0.4-0.3,0.9-0.6,1.3-0.8c-0.2-0.3-0.4-0.5-0.6-0.8
		c-0.2-0.3-0.4-0.6-0.6-0.9c-0.2-0.3-0.3-0.6-0.4-0.9c-0.1-0.3-0.2-0.7-0.2-1c0-0.5,0.1-0.9,0.3-1.2c0.2-0.4,0.4-0.7,0.7-1
		s0.7-0.5,1-0.6c0.4-0.1,0.8-0.2,1.3-0.2c0.5,0,0.9,0.1,1.3,0.2s0.7,0.4,1,0.6s0.5,0.6,0.7,1c0.2,0.4,0.3,0.8,0.3,1.2
		c0,0.5-0.1,0.9-0.3,1.3s-0.4,0.7-0.7,1c-0.3,0.3-0.6,0.6-0.9,0.9s-0.7,0.5-1.1,0.7l3.3,3.9c0.2-0.4,0.3-0.7,0.4-1.1
		c0.1-0.4,0.1-0.8,0.1-1.4h1.3c0,0.4-0.1,1-0.2,1.6c-0.1,0.7-0.4,1.3-0.7,2l2.5,3H112l-1.6-2C109.9,27.1,109.2,27.6,108.5,28.1z
		 M104.8,21.5c-0.4,0.2-0.7,0.5-1,0.8c-0.3,0.3-0.5,0.6-0.7,1c-0.2,0.4-0.3,0.8-0.3,1.2c0,0.4,0.1,0.8,0.3,1.2
		c0.2,0.4,0.4,0.7,0.7,0.9c0.3,0.3,0.6,0.5,1,0.6s0.8,0.2,1.2,0.2c0.8,0,1.4-0.2,2-0.6c0.6-0.4,1.1-0.9,1.5-1.5l-3.7-4.5
		C105.5,21.1,105.2,21.3,104.8,21.5z M105.2,15c-0.4,0.3-0.6,0.8-0.6,1.4c0,0.3,0.1,0.5,0.2,0.8s0.3,0.5,0.4,0.8
		c0.2,0.3,0.3,0.5,0.5,0.8c0.2,0.2,0.4,0.5,0.5,0.7c0.3-0.2,0.5-0.3,0.8-0.5c0.3-0.2,0.5-0.4,0.7-0.7c0.2-0.2,0.4-0.5,0.5-0.8
		c0.1-0.3,0.2-0.6,0.2-1c0-0.6-0.2-1.1-0.6-1.4s-0.9-0.5-1.4-0.5C106.1,14.5,105.6,14.7,105.2,15z"/>
	<path d="M126.7,16.7h-4.5v11.6h-3.9V16.7h-4.5v-3.4h12.8V16.7z"/>
	<path d="M131.5,23.3c0.1,1.8,1.2,2.3,2.8,2.3c1.2,0,2.4-0.4,2.4-1.5c0-1.3-2.1-1.6-4.3-2.2c-2.1-0.6-4.4-1.6-4.4-4.3
		c0-3.3,3.3-4.6,6.1-4.6c3,0,6,1.4,6,4.8h-3.9c0.1-1.4-1.2-1.8-2.4-1.8c-0.8,0-1.9,0.3-1.9,1.3c0,1.2,2.2,1.4,4.3,2
		c2.2,0.6,4.3,1.6,4.3,4.3c0,3.8-3.2,5-6.5,5c-3.4,0-6.5-1.5-6.5-5.4H131.5z"/>
	<path d="M152.4,18.7c-0.2-1.5-1.4-2.3-3-2.3c-2.5,0-3.5,2.2-3.5,4.4s1,4.4,3.5,4.4c1.8,0,2.9-1,3-2.8h3.9c-0.2,3.9-3,6.1-6.8,6.1
		c-4.5,0-7.5-3.5-7.5-7.8c0-4.3,2.9-7.8,7.5-7.8c3.2,0,6.7,2.1,6.8,5.7H152.4z"/>
	<path d="M158.3,13.4h3.9v5.5h5.1v-5.5h3.9v15h-3.9v-6.2h-5.1v6.2h-3.9V13.4z"/>
	<path d="M186.9,22.2c0,4.3-2,6.5-6.5,6.5c-4.5,0-6.5-2.2-6.5-6.5v-8.8h3.9v9c0,1.9,0.7,2.9,2.6,2.9c1.9,0,2.6-1,2.6-2.9v-9h3.9
		V22.2z"/>
	<path d="M196.3,13.1c4.7,0,7.4,3.5,7.4,7.8c0,4.3-2.7,7.8-7.4,7.8s-7.4-3.5-7.4-7.8C188.9,16.5,191.6,13.1,196.3,13.1z M196.3,25.3
		c2.5,0,3.5-2.2,3.5-4.4s-1-4.4-3.5-4.4s-3.5,2.2-3.5,4.4S193.8,25.3,196.3,25.3z"/>
	<path d="M205.8,13.4h7.6c2.6,0,5.2,1.2,5.2,4.2c0,1.6-0.8,3.1-2.3,3.8v0c1.6,0.4,2.1,2.2,2.2,3.6c0,0.6,0.1,2.8,0.6,3.4h-3.9
		c-0.3-0.5-0.4-2-0.4-2.4c-0.1-1.5-0.4-3.1-2.2-3.1h-3v5.5h-3.9V13.4z M209.7,19.9h3.3c1.2,0,1.8-0.6,1.8-1.8c0-1.1-0.9-1.6-2-1.6
		h-3.1V19.9z"/>
	<path d="M231.6,13.4h4l5.6,15h-4.1l-0.9-2.7H231l-0.9,2.7h-4L231.6,13.4z M231.9,22.8h3.4l-1.7-5.2h0L231.9,22.8z"/>
	<path d="M255.3,28.4h-2.5l-0.2-1.6c-1,1.4-2.8,2-4.2,2c-4.5,0-7.5-3.5-7.5-7.8c0-4.3,2.9-7.8,7.5-7.8c3.1,0,6.4,1.7,6.8,5.4h-3.9
		c-0.1-1.3-1.4-2.1-3-2.1c-2.5,0-3.5,2.2-3.5,4.4s1,4.4,3.5,4.4c1.9,0,3.2-0.9,3.4-2.3H249v-2.9h6.3V28.4z"/>
	<path d="M25.5,37.2l3.6,9.4l3.7-9.4h1.5V48h-1v-9.3h0L29.6,48h-1l-3.5-9.3h0V48h-1V37.2H25.5z"/>
	<path d="M41,37.2L45.2,48h-1.1l-1.3-3.3h-4.9L36.6,48h-1.1l4.3-10.7H41z M42.4,43.8l-2.1-5.5l-2.1,5.5H42.4z"/>
	<path d="M47.5,37.2v9.9h6V48h-7V37.2H47.5z"/>
	<path d="M62.2,37.2v0.9h-6.4V42h6v0.9h-6v4.2h6.5V48h-7.5V37.2H62.2z"/>
	<path d="M65.2,37.2l6.3,9.1h0v-9.1h1V48h-1.1l-6.3-9.1h0V48h-1V37.2H65.2z"/>
	<path d="M80.7,36.2v15h-0.8v-15H80.7z"/>
	<path d="M95.4,48l-0.1-2h0c-0.2,0.4-0.4,0.7-0.7,1s-0.6,0.5-0.9,0.7c-0.3,0.2-0.7,0.3-1,0.4c-0.4,0.1-0.7,0.1-1.1,0.1
		c-0.8,0-1.6-0.2-2.2-0.5c-0.6-0.3-1.2-0.7-1.6-1.2s-0.7-1.1-0.9-1.8c-0.2-0.7-0.3-1.4-0.3-2.1c0-0.7,0.1-1.4,0.3-2.1
		s0.5-1.3,0.9-1.8c0.4-0.5,0.9-0.9,1.6-1.2c0.6-0.3,1.4-0.5,2.2-0.5c0.6,0,1.1,0.1,1.6,0.2c0.5,0.2,0.9,0.4,1.3,0.7
		c0.4,0.3,0.7,0.7,1,1.1c0.3,0.4,0.5,1,0.6,1.5h-1c0-0.3-0.1-0.6-0.3-0.9c-0.2-0.3-0.4-0.6-0.7-0.9c-0.3-0.3-0.6-0.5-1.1-0.6
		c-0.4-0.2-0.9-0.2-1.4-0.2c-0.7,0-1.3,0.1-1.8,0.4s-0.9,0.6-1.3,1.1s-0.6,0.9-0.7,1.5c-0.2,0.6-0.2,1.1-0.2,1.7
		c0,0.6,0.1,1.2,0.2,1.7c0.2,0.6,0.4,1.1,0.7,1.5c0.3,0.4,0.7,0.8,1.3,1.1s1.1,0.4,1.8,0.4c0.6,0,1.1-0.1,1.6-0.3
		c0.5-0.2,0.9-0.5,1.2-0.8c0.3-0.4,0.6-0.8,0.7-1.2c0.2-0.5,0.2-1,0.2-1.6h-3.7v-0.9h4.6V48H95.4z"/>
	<path d="M99.5,37.2V48h-1V37.2H99.5z"/>
	<path d="M106.8,37.2c0.5,0,0.9,0.1,1.3,0.2c0.4,0.1,0.7,0.3,1,0.6c0.3,0.3,0.5,0.6,0.6,1s0.2,0.8,0.2,1.3s-0.1,0.9-0.2,1.3
		s-0.4,0.7-0.6,1c-0.3,0.3-0.6,0.5-1,0.6c-0.4,0.1-0.8,0.2-1.3,0.2h-3.7V48h-1V37.2H106.8z M106.6,42.5c0.7,0,1.3-0.2,1.7-0.5
		c0.4-0.4,0.7-0.9,0.7-1.7c0-0.7-0.2-1.3-0.7-1.7c-0.4-0.4-1-0.5-1.7-0.5h-3.5v4.4H106.6z"/>
	<path d="M112.6,45.8c0.2,0.4,0.4,0.7,0.7,0.9c0.3,0.2,0.7,0.4,1.1,0.5c0.4,0.1,0.9,0.1,1.4,0.1c0.3,0,0.6,0,0.9-0.1
		c0.3-0.1,0.6-0.2,0.9-0.4c0.3-0.2,0.5-0.4,0.7-0.7c0.2-0.3,0.3-0.6,0.3-1c0-0.3-0.1-0.6-0.2-0.8s-0.3-0.4-0.5-0.6
		c-0.2-0.2-0.5-0.3-0.7-0.4c-0.3-0.1-0.5-0.2-0.8-0.2l-2.4-0.6c-0.3-0.1-0.6-0.2-0.9-0.3c-0.3-0.1-0.6-0.3-0.8-0.5
		c-0.2-0.2-0.4-0.4-0.5-0.7s-0.2-0.6-0.2-1.1c0-0.3,0-0.6,0.1-0.9s0.3-0.7,0.6-1c0.3-0.3,0.7-0.6,1.1-0.8c0.5-0.2,1.1-0.3,1.8-0.3
		c0.5,0,1,0.1,1.5,0.2c0.5,0.1,0.9,0.4,1.3,0.6c0.4,0.3,0.6,0.6,0.9,1s0.3,0.9,0.3,1.5h-1c0-0.4-0.1-0.8-0.3-1.1
		c-0.2-0.3-0.4-0.6-0.6-0.8c-0.3-0.2-0.6-0.4-0.9-0.5s-0.7-0.2-1.1-0.2c-0.4,0-0.7,0-1,0.1s-0.6,0.2-0.9,0.4
		c-0.2,0.2-0.4,0.4-0.6,0.7s-0.2,0.6-0.2,1c0,0.3,0,0.5,0.1,0.7c0.1,0.2,0.2,0.3,0.4,0.5c0.1,0.1,0.3,0.2,0.5,0.3
		c0.2,0.1,0.4,0.1,0.6,0.2l2.6,0.6c0.4,0.1,0.7,0.2,1.1,0.4s0.6,0.3,0.9,0.5s0.5,0.5,0.6,0.8c0.1,0.3,0.2,0.7,0.2,1.1
		c0,0.1,0,0.3,0,0.5c0,0.2-0.1,0.4-0.2,0.6c-0.1,0.2-0.2,0.5-0.4,0.7c-0.2,0.2-0.4,0.4-0.7,0.6c-0.3,0.2-0.7,0.3-1.1,0.5
		c-0.5,0.1-1,0.2-1.6,0.2c-0.6,0-1.2-0.1-1.8-0.2c-0.5-0.1-1-0.4-1.4-0.7s-0.7-0.7-0.9-1.2c-0.2-0.5-0.3-1-0.3-1.7h1
		C112.3,45,112.4,45.5,112.6,45.8z"/>
	<path d="M129,37.2v0.9h-6.4V42h6v0.9h-6v4.2h6.5V48h-7.5V37.2H129z"/>
	<path d="M132,37.2l6.3,9.1h0v-9.1h1V48h-1.1l-6.3-9.1h0V48h-1V37.2H132z"/>
	<path d="M146.9,36.2v15h-0.8v-15H146.9z"/>
	<path d="M159.9,37.2v0.9h-3.7V48h-1v-9.9h-3.7v-0.9H159.9z"/>
	<path d="M166.1,37.2c0.4,0,0.9,0.1,1.3,0.2s0.7,0.3,1,0.5c0.3,0.2,0.5,0.5,0.7,0.9c0.2,0.4,0.3,0.8,0.3,1.3c0,0.7-0.2,1.3-0.5,1.8
		c-0.4,0.5-0.9,0.8-1.6,1v0c0.3,0,0.6,0.1,0.9,0.3c0.2,0.1,0.4,0.3,0.6,0.5c0.1,0.2,0.2,0.5,0.3,0.7c0.1,0.3,0.1,0.6,0.1,0.9
		c0,0.2,0,0.4,0,0.7s0,0.5,0.1,0.8s0.1,0.5,0.1,0.8c0.1,0.2,0.2,0.4,0.3,0.5h-1.1c-0.1-0.1-0.1-0.2-0.1-0.4c0-0.1-0.1-0.3-0.1-0.5
		s0-0.3,0-0.5c0-0.2,0-0.3,0-0.4c0-0.4-0.1-0.8-0.1-1.1c0-0.4-0.1-0.7-0.3-1c-0.1-0.3-0.4-0.5-0.6-0.7c-0.3-0.2-0.7-0.3-1.1-0.2
		h-3.9V48h-1V37.2H166.1z M166.1,42.3c0.3,0,0.6,0,0.9-0.1c0.3-0.1,0.5-0.2,0.7-0.4s0.4-0.4,0.5-0.7s0.2-0.5,0.2-0.9
		c0-0.7-0.2-1.2-0.6-1.6c-0.4-0.4-1-0.6-1.7-0.6h-3.8v4.2H166.1z"/>
	<path d="M171.3,40.5c0.2-0.7,0.5-1.3,0.9-1.8c0.4-0.5,1-0.9,1.6-1.2c0.6-0.3,1.4-0.5,2.2-0.5s1.6,0.2,2.2,0.5
		c0.6,0.3,1.2,0.7,1.6,1.2c0.4,0.5,0.7,1.1,0.9,1.8s0.3,1.4,0.3,2.1c0,0.7-0.1,1.4-0.3,2.1c-0.2,0.7-0.5,1.3-0.9,1.8
		s-0.9,0.9-1.6,1.2c-0.6,0.3-1.4,0.5-2.2,0.5s-1.6-0.2-2.2-0.5c-0.6-0.3-1.2-0.7-1.6-1.2c-0.4-0.5-0.7-1.1-0.9-1.8
		c-0.2-0.7-0.3-1.4-0.3-2.1C171,41.9,171.1,41.2,171.3,40.5z M172.2,44.3c0.2,0.6,0.4,1.1,0.7,1.5c0.3,0.4,0.7,0.8,1.3,1.1
		c0.5,0.3,1.1,0.4,1.8,0.4c0.7,0,1.3-0.1,1.8-0.4s0.9-0.6,1.2-1.1c0.3-0.4,0.6-1,0.7-1.5c0.2-0.6,0.2-1.1,0.2-1.7
		c0-0.6-0.1-1.2-0.2-1.7c-0.2-0.6-0.4-1.1-0.7-1.5c-0.3-0.4-0.7-0.8-1.2-1.1s-1.1-0.4-1.8-0.4c-0.7,0-1.3,0.1-1.8,0.4
		c-0.5,0.3-0.9,0.6-1.3,1.1c-0.3,0.4-0.6,0.9-0.7,1.5S172,42,172,42.6C172,43.2,172.1,43.8,172.2,44.3z"/>
	<path d="M190.4,39.4c-0.2-0.3-0.5-0.6-0.8-0.8s-0.6-0.4-1-0.5c-0.4-0.1-0.7-0.2-1.1-0.2c-0.7,0-1.3,0.1-1.8,0.4
		c-0.5,0.3-0.9,0.6-1.3,1.1s-0.6,0.9-0.7,1.5c-0.2,0.6-0.2,1.1-0.2,1.7c0,0.6,0.1,1.2,0.2,1.7c0.2,0.6,0.4,1.1,0.7,1.5
		c0.3,0.4,0.7,0.8,1.3,1.1c0.5,0.3,1.1,0.4,1.8,0.4c0.5,0,1-0.1,1.4-0.3c0.4-0.2,0.7-0.4,1-0.7s0.5-0.7,0.7-1.1
		c0.2-0.4,0.3-0.9,0.3-1.3h1c-0.1,0.7-0.2,1.3-0.5,1.8c-0.2,0.5-0.6,1-0.9,1.4s-0.8,0.7-1.3,0.9c-0.5,0.2-1.1,0.3-1.7,0.3
		c-0.8,0-1.6-0.2-2.2-0.5s-1.2-0.7-1.6-1.2c-0.4-0.5-0.7-1.1-0.9-1.8c-0.2-0.7-0.3-1.4-0.3-2.1c0-0.7,0.1-1.4,0.3-2.1
		s0.5-1.3,0.9-1.8c0.4-0.5,0.9-0.9,1.6-1.2s1.4-0.5,2.2-0.5c0.5,0,1,0.1,1.5,0.2s0.9,0.4,1.3,0.7c0.4,0.3,0.7,0.7,1,1.1
		c0.3,0.4,0.4,0.9,0.5,1.5h-1C190.8,40.1,190.6,39.7,190.4,39.4z"/>
	<path d="M194.9,37.2V43l6.2-5.8h1.4l-4.8,4.4l5,6.3h-1.3l-4.5-5.6l-2.1,1.9V48h-1V37.2H194.9z"/>
	<path d="M205.1,37.2l6.3,9.1h0v-9.1h1V48h-1.1l-6.3-9.1h0V48h-1V37.2H205.1z"/>
	<path d="M222.2,37.2v0.9h-6.4V42h6v0.9h-6v4.2h6.5V48h-7.5V37.2H222.2z"/>
	<path d="M225.1,37.2l6.3,9.1h0v-9.1h1V48h-1.1l-6.3-9.1h0V48h-1V37.2H225.1z"/>
</g>
</svg>
