<?xml version="1.0" standalone="no"?>
<!DOCTYPE svg PUBLIC "-//W3C//DTD SVG 1.1//EN" "http://www.w3.org/Graphics/SVG/1.1/DTD/svg11.dtd">
<!--Generator: Xara Designer (www.xara.com), SVG filter version: 6.6.0.0-->
<svg fill="none" fill-rule="evenodd" stroke="black" stroke-width="0.501" stroke-linejoin="bevel" stroke-miterlimit="10" font-family="Times New Roman" font-size="16" style="font-variant-ligatures:none" xmlns:xlink="http://www.w3.org/1999/xlink" xmlns="http://www.w3.org/2000/svg" version="1.1" overflow="visible" width="188.712pt" height="80.071pt" viewBox="373.552 -355.468 188.712 80.071">
 <defs>
	</defs>
 <g id="Layer 1" transform="scale(1 -1)"/>
 <g id="Sponsoren" transform="scale(1 -1)"/>
 <g id="Content" transform="scale(1 -1)"/>
 <g id="Logo Vektor" transform="scale(1 -1)">
  <path d="M 439.719,348.514 C 440.056,343.353 435.916,306.018 398.147,275.572 C 434.947,300.967 436.027,302.805 466.03,297.762 C 447.742,308.988 439.719,348.514 439.719,348.514 Z" stroke="none" fill="#fbd9e8" stroke-width="0.104" fill-rule="nonzero" stroke-linejoin="miter" marker-start="none" marker-end="none"/>
  <path d="M 435.549,337.638 C 435.549,337.638 431.086,308.465 404.673,288.891 C 407.007,289.88 410.808,290.453 414.042,290.693 C 421.49,298.148 433.887,312.958 437.855,334.726 C 438.047,335.573 439.245,342.813 439.408,343.678 C 437.871,340.369 435.549,337.638 435.549,337.638 Z" stroke="none" fill="#de2f92" stroke-width="0.104" fill-rule="nonzero" stroke-linejoin="miter" marker-start="none" marker-end="none"/>
  <path d="M 439.739,349.325 C 439.739,349.325 438.088,325.026 462.831,299.468 C 464.462,302.864 462.935,301.011 466.114,304.192 C 459.863,307.728 439.739,328.391 443.004,355.468 C 441.1,351.027 439.739,349.325 439.739,349.325 Z" stroke="none" fill="#de2f92" stroke-width="0.104" fill-rule="nonzero" stroke-linejoin="miter" marker-start="none" marker-end="none"/>
  <path d="M 397.066,275.397 C 397.066,275.397 425.887,309.992 466.674,298.407 C 463.326,295.058 462.051,292.798 462.051,292.798 C 462.051,292.798 441.93,309.924 402.233,275.939 C 400.059,275.939 397.066,275.397 397.066,275.397 Z" stroke="none" fill="#de2f92" stroke-width="0.104" fill-rule="nonzero" stroke-linejoin="miter" marker-start="none" marker-end="none"/>
  <path d="M 374.413,308.541 C 376.217,307.564 378.729,306.815 381.619,306.815 C 383.834,306.815 385.934,307.265 385.934,309.366 C 385.934,314.246 373.552,311.168 373.552,320.7 C 373.552,327 379.706,328.73 384.959,328.73 C 387.473,328.73 389.949,328.353 391.713,327.751 L 391.262,322.349 C 389.461,323.175 387.435,323.549 385.446,323.549 C 383.682,323.549 380.756,323.398 380.756,321.113 C 380.756,316.87 393.14,319.722 393.14,310.268 C 393.14,303.475 387.435,301.633 381.619,301.633 C 379.181,301.633 376.139,302.011 373.813,302.761 L 374.413,308.541 Z" stroke="none" fill="#231f20" stroke-width="0.104" fill-rule="nonzero" stroke-linejoin="miter" marker-start="none" marker-end="none"/>
  <path d="M 409.802,306.815 C 414.041,306.815 415.729,310.865 415.729,315.179 C 415.729,319.722 414.041,323.549 409.802,323.549 C 405.562,323.549 403.87,319.722 403.87,315.179 C 403.87,310.865 405.562,306.815 409.802,306.815 Z M 409.802,328.73 C 418.43,328.73 422.935,323.585 422.935,315.179 C 422.935,306.851 418.356,301.632 409.802,301.632 C 401.242,301.632 396.668,306.851 396.668,315.179 C 396.668,323.585 401.171,328.73 409.802,328.73 Z" stroke="none" fill="#231f20" stroke-width="0.104" fill-rule="nonzero" stroke-linejoin="miter" marker-start="none" marker-end="none"/>
  <path d="M 457.346,328.278 L 475.805,328.278 L 475.805,323.325 L 464.324,323.325 L 464.324,317.923 L 475.169,317.923 L 475.169,312.967 L 464.324,312.967 L 464.324,307.039 L 476.218,307.039 L 476.218,302.083 L 457.346,302.083 L 457.346,328.278 Z" stroke="none" fill="#231f20" stroke-width="0.104" fill-rule="nonzero" stroke-linejoin="miter" marker-start="none" marker-end="none"/>
  <path d="M 487.627,317.394 L 489.465,317.394 C 491.716,317.394 494.568,317.473 494.568,320.436 C 494.568,322.874 492.131,323.325 489.465,323.325 L 487.627,323.325 L 487.627,317.394 Z M 480.647,328.278 L 493.105,328.278 C 497.76,328.278 501.551,326.177 501.551,321.676 C 501.551,318.183 499.896,315.858 496.522,315.068 L 496.522,314.992 C 498.772,314.393 498.919,312.404 500.235,309.215 L 502.786,302.083 L 495.507,302.083 L 494.006,306.816 C 492.581,311.316 491.68,312.444 489.091,312.444 L 487.627,312.444 L 487.627,302.083 L 480.647,302.083 L 480.647,328.278 Z" stroke="none" fill="#231f20" stroke-width="0.104" fill-rule="nonzero" stroke-linejoin="miter" marker-start="none" marker-end="none"/>
  <path d="M 506.348,328.278 L 515.244,328.278 L 524.101,310.491 L 524.175,310.491 L 524.063,328.278 L 530.444,328.278 L 530.444,302.083 L 521.774,302.083 L 512.617,319.985 L 512.543,319.985 L 512.767,302.083 L 506.348,302.083 L 506.348,328.278 Z" stroke="none" fill="#231f20" stroke-width="0.104" fill-rule="nonzero" stroke-linejoin="miter" marker-start="none" marker-end="none"/>
  <path d="M 547.893,322.874 L 547.818,322.874 L 544.438,312.631 L 551.004,312.631 L 547.893,322.874 Z M 543.615,328.277 L 552.17,328.277 L 562.264,302.083 L 554.607,302.083 L 552.656,307.68 L 542.825,307.68 L 540.761,302.083 L 533.67,302.083 L 543.615,328.277 Z" stroke="none" fill="#231f20" stroke-width="0.104" fill-rule="nonzero" stroke-linejoin="miter" marker-start="none" marker-end="none"/>
  <path d="M 452.841,340.933 C 450.635,339.905 448.659,337.777 447.381,335.748 C 445.917,333.424 446.54,330.716 449.471,330.235 C 455.151,329.306 458.14,337.446 454.654,341.365 C 453.369,342.809 451.261,340.685 452.538,339.249 C 453.282,338.414 453.064,336.605 452.86,335.625 C 452.539,334.074 451.615,332.9 449.916,333.178 C 449.382,333.265 449.491,333.12 449.623,333.568 C 449.836,334.295 450.449,334.977 450.933,335.539 C 451.877,336.632 453.028,337.734 454.351,338.35 C 456.099,339.163 454.578,341.742 452.841,340.933 Z" stroke="none" fill="#231f20" stroke-width="0.104" fill-rule="nonzero" stroke-linejoin="miter" marker-start="none" marker-end="none"/>
  <path d="M 426.323,331.979 C 427.079,320.674 431.056,310.245 438.89,301.948 C 440.615,300.121 443.361,302.877 441.641,304.698 C 434.538,312.22 430.898,321.725 430.212,331.979 C 430.046,334.468 426.156,334.484 426.323,331.979 Z" stroke="none" fill="#231f20" stroke-width="0.104" fill-rule="nonzero" stroke-linejoin="miter" marker-start="none" marker-end="none"/>
  <path d="M 446.054,325.498 C 443.522,318.128 438.171,311 437.985,302.988 C 437.927,300.478 441.817,300.484 441.875,302.988 C 441.959,306.649 443.66,310.28 445.111,313.574 C 446.702,317.187 448.52,320.724 449.804,324.464 C 450.621,326.843 446.864,327.855 446.054,325.498 Z" stroke="none" fill="#231f20" stroke-width="0.104" fill-rule="nonzero" stroke-linejoin="miter" marker-start="none" marker-end="none"/>
  <path d="M 443.65,328.851 C 441.101,329.68 438.421,330.883 436.342,332.603 C 434.425,334.188 431.657,331.452 433.592,329.852 C 436.213,327.684 439.391,326.149 442.617,325.101 C 445.008,324.323 446.025,328.079 443.65,328.851 Z" stroke="none" fill="#231f20" stroke-width="0.104" fill-rule="nonzero" stroke-linejoin="miter" marker-start="none" marker-end="none"/>
 </g>
</svg>
