<?xml version="1.0" standalone="no"?>
<!DOCTYPE svg PUBLIC "-//W3C//DTD SVG 1.1//EN" "http://www.w3.org/Graphics/SVG/1.1/DTD/svg11.dtd">
<!--Generator: Xara Designer (www.xara.com), SVG filter version: 6.6.0.0-->
<svg fill="none" fill-rule="evenodd" stroke="black" stroke-width="0.501" stroke-linejoin="bevel" stroke-miterlimit="10" font-family="Times New Roman" font-size="16" style="font-variant-ligatures:none" xmlns:xlink="http://www.w3.org/1999/xlink" xmlns="http://www.w3.org/2000/svg" version="1.1" overflow="visible" width="379pt" height="187pt" viewBox="0 -187 379 187">
 <defs>
	</defs>
 <g id="Layer 1" transform="scale(1 -1)">
  <g id="Group" fill-rule="nonzero" stroke-linejoin="miter" stroke="none" stroke-width="1" fill="#ffffff">
   <path d="M 0,187 L 379,187 L 379,0 L 0,0 L 0,187 M 247.63,178.16 C 247.6,170.65 247.62,163.14 247.62,155.63 C 243.13,158.74 237.61,161.05 232.07,159.66 C 224.6,158.48 219.14,152.11 216.9,145.2 C 213.96,135.7 213.94,125.3 216.71,115.75 C 218.63,109.2 223.89,103.13 231.02,102.43 C 237.86,101.15 244.09,104.82 249.64,108.29 C 250,106.71 250.37,105.12 250.74,103.52 C 255.9,103.53 261.07,103.53 266.24,103.53 C 266.17,129.41 266.24,155.29 266.21,181.16 C 260.1,179.69 253.85,178.96 247.63,178.16 M 129.83,173.08 C 129.81,168.25 129.81,163.42 129.82,158.59 C 127.73,158.6 125.64,158.61 123.55,158.62 C 123.57,154.25 123.57,149.88 123.55,145.52 C 125.64,145.53 127.73,145.54 129.83,145.54 C 129.85,136.02 129.729,126.5 129.86,116.98 C 129.88,111.58 132.18,105.51 137.62,103.49 C 144.38,101.17 151.67,102.77 158.49,104.05 C 158.32,108.47 157.8,112.85 157.46,117.25 C 154.49,117.06 148.37,115.41 148.51,120.14 C 148.26,128.6 148.51,137.07 148.41,145.54 C 151.76,145.53 155.11,145.53 158.46,145.51 C 158.45,149.88 158.44,154.25 158.46,158.62 C 155.11,158.6 151.76,158.6 148.42,158.6 C 148.42,164.21 148.41,169.82 148.43,175.44 C 142.24,174.57 136.04,173.77 129.83,173.08 M 275.42,173.14 C 275.42,168.3 275.42,163.45 275.41,158.6 C 273.32,158.6 271.23,158.61 269.15,158.61 C 269.16,154.25 269.16,149.88 269.14,145.52 C 271.23,145.52 273.32,145.53 275.42,145.53 C 275.45,135.69 275.37,125.84 275.44,116 C 275.47,110.74 278.14,104.9 283.53,103.31 C 290.19,101.31 297.23,102.74 303.88,104.06 C 303.6,108.4 303.54,112.77 302.77,117.06 C 300.08,117.21 297.12,116.17 294.65,117.61 C 293.77,119.63 293.93,121.89 293.87,124.04 C 293.95,131.2 293.82,138.36 293.99,145.52 C 297.36,145.53 300.74,145.53 304.11,145.56 C 304.1,149.9 304.11,154.25 304.05,158.59 C 300.72,158.6 297.39,158.6 294.06,158.6 C 293.77,164.21 293.91,169.83 294.15,175.44 C 287.91,174.65 281.68,173.71 275.42,173.14 M 90.26,156.79 C 81.27,151.89 79.97,138.19 87.15,131.19 C 91.49,126.57 98.12,125.69 103.14,122.15 C 105.66,120.7 104.85,116.45 101.94,116.09 C 96.88,114.93 91.95,117.48 87.29,119.13 C 85.53,115.07 83.73,111.04 81.99,106.98 C 92.02,102.14 104.45,100.15 114.76,105.22 C 125.02,109.96 126.81,126.05 117.88,132.92 C 113.12,137.01 106.46,137.7 101.57,141.54 C 99.88,142.87 101.24,144.86 101.48,146.53 C 106.76,148.11 111.99,145.95 116.9,144.16 C 118.51,148.03 120.29,151.82 121.9,155.69 C 112.22,160.31 100.01,162.19 90.26,156.79 M 161.99,154.64 C 163.14,150.88 164.35,147.13 165.56,143.38 C 173.03,145.38 180.85,147.85 188.64,146.43 C 192.28,145.55 192.6,141.32 192.84,138.27 C 186.2,137.78 179.38,137.93 172.97,135.86 C 167.92,134.36 162.9,131.29 160.75,126.27 C 157.43,117.71 161.64,106.51 170.54,103.33 C 178.77,100.49 187.97,103.12 194.42,108.71 C 194.85,106.98 195.29,105.25 195.72,103.51 C 200.89,103.55 206.06,103.52 211.23,103.53 C 211.14,117.04 211.28,130.55 211.17,144.06 C 211.25,150.28 207.59,156.65 201.34,158.33 C 188.33,161.98 174.38,159.4 161.99,154.64 M 8.06,158.94 C 7.83,146.29 8.01,133.63 7.96,120.98 C 7.92,112.32 11.22,103.58 17.58,97.6 C 24.92,90.43 35.9,87.31 45.91,89.54 C 59.3,92.24 70.05,104.64 70.47,118.35 C 70.7,131.88 70.55,145.43 70.54,158.97 C 49.71,159.07 28.89,159.12 8.06,158.94 M 212.41,102.11 C 212.4,97.16 212.42,92.21 212.38,87.26 C 218.55,87.3 224.72,87.28 230.9,87.28 C 230.86,92.25 230.9,97.23 230.85,102.21 C 224.7,102.04 218.55,102.13 212.41,102.11 M 8.51,76.48 C 9.73,72.74 10.94,69 12.04,65.23 C 19.46,67.15 27.13,69.55 34.86,68.4 C 38.86,67.58 39.1,63.019 39.5,59.75 C 29.57,59.78 18.19,59.68 10.42,52.539 C 1.15,43.839 7.58,26.199 19.83,24.41 C 27.5,22.869 35.03,25.86 41.12,30.35 C 41.43,28.77 41.74,27.179 42.04,25.6 C 47.32,25.509 52.6,25.57 57.88,25.539 C 57.81,37.699 57.88,49.85 57.84,62.01 C 57.73,66.65 57.59,71.74 54.6,75.58 C 52.02,79.09 47.62,80.48 43.5,81.18 C 31.67,82.96 19.58,80.77 8.51,76.48 M 81.05,75.6 C 80.71,77.17 80.37,78.74 80.03,80.31 C 74.87,80.33 69.71,80.3 64.55,80.34 C 64.58,62.07 64.589,43.8 64.55,25.529 C 70.75,25.58 76.95,25.539 83.16,25.55 C 83.14,38.03 83.14,50.52 83.16,63 C 85.56,64.5 88.03,66.25 90.96,66.42 C 94.58,66.11 95.82,62.07 95.77,58.99 C 95.79,47.85 95.77,36.69 95.76,25.539 C 101.96,25.55 108.15,25.559 114.35,25.539 C 114.28,38.69 114.36,51.839 114.31,64.989 C 114.19,71.12 111.56,78.05 105.48,80.48 C 97.17,83.78 87.9,80.73 81.05,75.6 M 166.44,75.56 C 160.19,69.91 158.71,61.01 158.55,52.99 C 158.65,46.339 159.12,39.32 162.49,33.41 C 165.47,28.169 171.33,25.33 177.15,24.61 C 187.9,23.279 198.95,24.85 209.05,28.729 C 207.9,32.49 206.86,36.289 205.73,40.05 C 197.94,38.86 189.95,36.63 182.07,38.229 C 178.06,39.35 177.39,44.009 176.96,47.509 C 187.66,47.61 198.35,47.479 209.05,47.58 C 209.56,55.039 210.16,62.94 206.93,69.92 C 203.87,76.87 196.52,81.16 189.09,81.63 C 181.23,82.2 172.39,81.29 166.44,75.56 M 236.73,71.48 C 232.18,62.82 231.99,52.52 233.47,43.05 C 234.63,35.47 239.14,27.33 247.13,25.5 C 253.7,23.66 260.39,26.429 265.72,30.179 C 265.67,26.509 266.43,21.279 262.16,19.589 C 254.97,17.61 247.36,19 240,18.58 C 240.83,14.789 241.7,11 242.6,7.22 C 253.1,5.52 264.6,4.58 274.43,9.47 C 281.23,12.869 284.12,20.789 284.21,27.99 C 284.27,45.44 284.19,62.879 284.24,80.33 C 279.1,80.31 273.96,80.31 268.82,80.32 C 268.4,78.72 267.97,77.12 267.55,75.51 C 263.69,78.69 259.25,82.01 253.98,81.77 C 246.82,82.13 239.93,77.81 236.73,71.48 M 298.54,78.27 C 291.02,74.14 287.74,65.22 287.29,57.07 C 287,48.99 286.9,40.28 291.18,33.1 C 294.26,27.97 300.14,25.3 305.9,24.57 C 316.59,23.3 327.51,24.91 337.57,28.669 C 336.43,32.52 335.28,36.36 334.18,40.22 C 326.58,38.61 318.65,36.85 310.9,38.149 C 306.71,39.13 305.82,43.869 305.42,47.49 C 316.1,47.61 326.78,47.52 337.46,47.539 C 337.76,54 338.47,60.69 336.55,66.98 C 334.68,73.83 328.86,79.23 321.98,80.84 C 314.23,82.55 305.59,82.19 298.54,78.27 M 365.35,80.58 C 362.46,78.92 360.11,76.51 357.68,74.26 C 357.2,76.29 356.71,78.31 356.24,80.34 C 351.26,80.3 346.28,80.31 341.31,80.34 C 341.35,62.07 341.35,43.8 341.31,25.529 C 347.49,25.57 353.67,25.55 359.86,25.55 C 359.75,37.11 359.86,48.67 359.8,60.23 C 363.76,63.58 368.96,64.41 374,64.23 C 373.99,70.08 374.01,75.94 373.99,81.79 C 371.1,81.68 367.99,82.03 365.35,80.58 M 118.41,66.4 C 123.79,66.43 129.17,66.43 134.56,66.4 C 129.179,56.429 124.09,46.32 118.75,36.339 C 116.73,33.1 117.83,29.119 117.56,25.529 C 130.899,25.57 144.24,25.559 157.59,25.539 C 157.56,30.179 157.56,34.82 157.59,39.46 C 151.79,39.44 145.98,39.42 140.18,39.47 C 145.41,49.38 150.51,59.36 155.76,69.25 C 157.77,72.6 156.94,76.62 157.1,80.31 C 144.2,80.33 131.31,80.29 118.41,80.34 C 118.45,75.69 118.44,71.04 118.41,66.4 M 212.37,25.529 C 218.55,25.57 224.73,25.539 230.91,25.55 C 230.86,43.809 230.86,62.059 230.91,80.31 C 224.73,80.33 218.56,80.3 212.38,80.34 C 212.41,62.07 212.43,43.8 212.37,25.529 M 11.38,16.479 C 9.9,13.3 8.67,10 7.77,6.61 C 8.66,7.559 9.54,8.52 10.42,9.479 C 11.87,9.05 13.32,8.58 14.75,8.089 L 13.06,7 C 14.65,7.149 16.24,7.27 17.83,7.35 C 17.81,9.419 17.85,11.5 17.96,13.57 C 19.22,11.32 20.35,8.99 21.59,6.72 C 22.66,9.029 23.68,11.369 24.75,13.679 C 25.23,11.22 24.92,8.49 26.31,6.279 C 26.69,9.77 26.25,13.289 25.28,16.649 C 23.73,14.309 22.65,11.71 21.61,9.11 C 20.5,11.71 19.39,14.33 17.76,16.649 C 17.11,13.929 16.71,11.16 16.61,8.369 C 16.26,8.36 15.58,8.339 15.24,8.33 C 14.12,11.119 13,13.929 11.38,16.479 M 26.72,15.539 C 27.65,15.3 29.51,14.83 30.44,14.6 C 30.43,12.139 30.43,9.679 30.42,7.21 C 30.71,7.229 31.28,7.259 31.56,7.27 C 31.56,9.72 31.56,12.16 31.54,14.61 C 32.369,14.82 34.03,15.25 34.86,15.46 C 32.16,15.77 29.43,15.779 26.72,15.539 M 35.61,7.139 C 37.2,7.24 38.8,7.339 40.4,7.479 C 40.97,7.36 42.11,7.11 42.68,6.99 C 42.73,9.919 42.74,12.839 42.74,15.77 C 42.45,15.759 41.86,15.74 41.57,15.729 C 41.6,13.35 41.63,10.979 41.74,8.6 C 40.31,8.08 38.8,7.899 37.28,7.889 C 36.21,10.63 36.99,13.75 36.36,16.61 C 35.1,13.619 35.7,10.3 35.61,7.139 M 45.91,7.85 C 47.38,6.699 49.43,7.339 50.95,8.039 C 51.89,7.69 52.81,7.309 53.76,6.949 C 53.81,8.41 53.86,9.86 53.9,11.3 C 55.48,11.309 57.05,11.32 58.63,11.32 C 58.76,9.649 58.95,7.979 59.19,6.32 C 60.31,9.649 59.96,13.25 59.52,16.66 C 59.06,15.16 58.8,13.61 58.51,12.059 C 57.03,12.1 55.56,12.139 54.08,12.169 C 53.9,13.289 53.53,15.539 53.35,16.66 C 52.57,14.009 52.77,11.22 52.85,8.49 C 52.22,8.55 50.97,8.66 50.35,8.72 C 49.51,8.619 47.82,8.429 46.98,8.33 C 45.1,10.49 46.06,13.19 47.65,15.139 C 48.99,14.679 50.34,14.25 51.7,13.83 C 50.54,15.179 48.96,16.27 47.1,15.639 C 44.22,14.369 43.97,10.039 45.91,7.85 M 62.24,15.729 C 62.24,12.91 62.24,10.089 62.23,7.27 C 64.1,7.21 65.96,7.13 67.83,7.16 C 66.37,7.589 64.9,7.96 63.42,8.279 C 63.39,8.979 63.34,10.369 63.32,11.07 C 64.68,11.229 66.05,11.41 67.41,11.61 C 66.41,11.75 64.42,12.029 63.42,12.169 C 63.4,12.789 63.37,14.05 63.35,14.669 C 64.86,15.009 66.37,15.389 67.86,15.82 C 65.98,15.86 64.11,15.779 62.24,15.729 M 68.48,12.83 C 70,11.66 71.75,10.85 73.33,9.77 C 73.32,7.16 69.93,8.63 68.31,8.22 C 68.5,7.97 68.87,7.479 69.06,7.229 C 71.19,7.32 74.82,6.72 74.68,9.899 C 73.43,11.779 70.99,12.289 69.26,13.58 C 70.7,14.809 72.61,14.85 74.38,15.13 C 72.85,15.449 71.31,15.699 69.77,15.949 C 69.26,14.949 68.57,13.979 68.48,12.83 M 81.49,16 C 81.43,13.089 81.44,10.169 81.41,7.259 C 81.7,7.24 82.27,7.22 82.56,7.21 C 82.56,7.91 82.56,9.3 82.56,10 C 84.44,10.449 86.8,10.72 87.35,12.979 C 87.02,16.02 83.73,15.61 81.49,16 M 88.57,15.71 C 88.59,13.61 88.49,11.5 88.68,9.399 C 88.86,6.32 93.01,6.97 94.96,7.96 C 96.14,10.369 95.62,13.149 95.78,15.729 C 95.41,15.74 94.68,15.75 94.32,15.759 C 94.33,13.309 94.33,10.86 94.28,8.399 C 92.9,8.289 91.52,8.21 90.14,8.149 C 89.73,10.69 89.69,13.259 89.66,15.82 C 89.38,15.789 88.84,15.74 88.57,15.71 M 98.18,15.97 C 98.1,13.009 98.1,10.05 98.16,7.08 C 100.52,7.13 103.11,7.229 104.38,9.57 C 104.05,10.089 103.39,11.139 103.06,11.669 C 103.03,12.74 103.65,13.929 103.08,14.94 C 101.63,15.86 99.8,15.679 98.18,15.97 M 105.79,7.259 C 107.29,7.25 108.8,7.229 110.3,7.199 C 111.46,6.97 112.38,7.22 113.07,7.97 C 113.04,10.889 113.08,13.889 112.16,16.69 C 111.67,14.029 111.78,11.309 111.87,8.61 C 110.38,8.059 108.82,7.74 107.24,7.919 C 106.75,10.809 106.93,13.759 106.5,16.66 C 105.36,13.66 105.84,10.399 105.79,7.259 M 115.51,15.71 C 115.61,12.6 115.2,9.38 116.14,6.36 C 116.31,7.44 116.63,9.6 116.8,10.679 C 118.17,9.089 119.6,7.5 121.53,6.58 C 120.44,8.399 119.07,10.02 117.67,11.61 C 118.94,13.179 120.19,14.759 121.24,16.479 C 119.56,15.389 118.12,13.99 116.64,12.639 C 116.64,13.44 116.65,15.02 116.65,15.82 C 116.36,15.789 115.79,15.74 115.51,15.71 M 125.33,15.74 C 123.84,12.97 123,9.91 122.01,6.929 C 123.51,8 124.99,9.119 126.77,9.669 C 127.66,8.57 128.57,7.479 129.5,6.41 C 128.85,9.63 127.91,12.83 126.32,15.72 C 126.07,15.72 125.58,15.729 125.33,15.74 M 128.179,15.429 C 129.039,15.229 130.75,14.82 131.6,14.619 C 131.57,11.88 131.54,9.139 131.86,6.41 C 133.74,8.71 132.9,11.86 133.04,14.58 C 134.12,14.94 135.2,15.309 136.27,15.69 C 133.57,15.77 130.869,15.75 128.179,15.429 M 137.54,16.699 C 136.88,13.289 136.93,9.779 137.44,6.35 C 138.55,9.669 138.46,13.35 137.54,16.699 M 142.41,15.539 C 139.75,14.58 139.91,11.3 140.33,9.02 C 141.22,6.91 143.78,7.119 145.65,7.36 C 148.31,8.729 148.58,12.699 146.89,14.91 C 145.69,16.039 143.88,15.839 142.41,15.539 M 149.81,16.5 C 149.6,13.429 149.61,10.36 149.59,7.289 C 149.88,7.27 150.44,7.22 150.72,7.199 C 150.74,9.49 150.74,11.779 150.78,14.059 C 152.6,11.49 154.35,8.85 156.48,6.509 C 156.68,9.899 157.29,13.46 156.02,16.72 C 155.65,14.369 155.61,11.99 155.53,9.61 C 153.8,12.039 152.14,14.589 149.81,16.5 M 158.53,14.58 C 157.24,10.929 163.97,11.71 162.99,8.399 C 161.39,8.19 159.77,8.229 158.17,8.22 C 158.39,7.97 158.84,7.47 159.06,7.22 C 161.31,7.24 164.06,6.979 164.82,9.77 C 166.76,9.179 167.58,6.33 170.05,7.27 C 174.77,7.059 174.71,16.119 169.96,15.759 C 166.59,16.229 165.38,12.69 164.26,10.27 C 162.57,11.52 160.79,12.649 159.09,13.869 C 160.77,14.58 162.57,14.869 164.36,15.19 C 162.42,15.509 159.99,16.44 158.53,14.58 M 175.44,15.919 C 175.4,13.039 175.4,10.16 175.37,7.279 C 175.66,7.259 176.22,7.22 176.5,7.199 C 176.52,8.24 176.57,10.33 176.6,11.38 C 178.24,9.639 179.79,7.75 181.87,6.49 C 180.99,8.08 179.91,9.539 178.8,10.96 C 179.62,11.83 182.16,12.36 181.02,14.02 C 180.5,16.309 177.2,15.38 175.44,15.919 M 184.44,15.44 C 181.77,13.85 181.75,9.759 183.69,7.58 C 185.32,6.949 187.14,7.49 188.84,7.57 C 188.85,8.97 188.85,10.36 188.84,11.75 C 187.99,11.74 186.28,11.699 185.43,11.69 C 186.17,11.289 187.64,10.49 188.37,10.089 C 187.74,8.22 186.27,7.669 184.51,8.399 C 183.29,10.309 183.25,12.979 184.91,14.66 C 186.39,14.699 187.86,14.71 189.34,14.71 C 187.8,15.24 186.05,16.309 184.44,15.44 M 193.27,15.83 C 191.74,13.07 190.95,9.99 189.85,7.05 C 191.39,8.13 193.06,8.96 194.92,9.33 C 195.68,7.139 197.78,7.169 199.71,7.089 C 199.66,9.479 199.65,11.88 199.66,14.27 C 201.53,11.63 203.34,8.94 205.49,6.52 C 205.79,9.88 205.95,13.289 205.37,16.63 C 204.47,14.419 204.64,11.99 204.5,9.66 C 202.86,12.05 201.24,14.52 198.98,16.38 C 198.86,13.38 198.85,10.369 198.63,7.369 C 197.06,8.869 195.83,10.649 195.86,12.929 C 195.34,11.86 194.87,10.77 194.41,9.669 L 192.08,9.679 C 192.39,10.809 193,13.07 193.31,14.199 L 194.18,11.99 C 195.16,13.339 195.65,15.86 193.27,15.83 M 213.8,15.929 C 213.8,12.979 213.8,10.02 213.8,7.07 C 215.36,7.25 217.01,7.13 218.49,7.729 C 220.76,9.309 220.99,13.02 219.02,14.929 C 217.43,15.83 215.54,15.72 213.8,15.929 M 222.15,15.809 C 222.14,12.94 222.13,10.059 222.15,7.179 C 224,7.279 225.85,7.369 227.69,7.58 C 226.19,7.94 224.66,8.149 223.14,8.38 C 223.17,9.08 223.22,10.479 223.25,11.179 C 224.23,11.259 226.18,11.419 227.16,11.49 C 225.83,11.839 224.49,12.13 223.16,12.41 L 223.13,14.61 C 224.65,14.86 226.2,15.059 227.7,15.419 C 225.85,15.639 224,15.72 222.15,15.809 M 228.71,15.88 C 228.75,12.71 228.33,9.429 229.35,6.369 C 229.51,7.589 229.83,10.05 229.99,11.279 C 231.56,9.5 233.11,7.61 235.28,6.529 C 234.35,8 233.32,9.389 232.25,10.759 C 234.07,11.619 234.48,13.369 234.47,15.19 C 232.56,15.479 230.63,15.699 228.71,15.88 M 284.29,12.99 C 286.1,11.869 288,10.889 289.75,9.669 C 289.25,7.199 285.88,8.69 284.2,7.919 C 286.15,7.55 289.32,6.32 290.53,8.339 C 292.42,11.649 286.45,11.509 285.9,14.27 C 287.44,14.639 288.99,14.97 290.55,15.25 C 288.09,16.02 285.1,16.009 284.29,12.99 M 290.54,15.66 C 291.78,15.289 293.03,14.929 294.29,14.589 C 294.29,12.139 294.28,9.669 294.29,7.21 C 294.58,7.229 295.15,7.259 295.44,7.27 C 295.42,9.72 295.41,12.169 295.38,14.619 C 296.29,14.82 298.11,15.21 299.02,15.41 C 296.21,15.779 293.36,15.77 290.54,15.66 M 297.64,6.47 C 298.28,7.27 299.55,8.86 300.19,9.649 C 301.98,9.029 303.6,8.02 305.16,6.949 C 304.04,10.229 302.96,13.55 301.17,16.539 C 299.54,13.36 298.28,9.99 297.64,6.47 M 306.39,15.99 C 306.3,13.02 306.3,10.039 306.37,7.059 C 309.42,6.72 313.41,8.199 312.65,11.979 C 312.88,15.41 308.96,15.96 306.39,15.99 M 312.45,15.66 C 313.55,15.279 314.67,14.919 315.8,14.57 C 315.77,11.82 315.51,8.97 316.53,6.339 C 316.94,9.089 316.88,11.88 316.9,14.649 C 318.12,14.85 319.33,15.08 320.54,15.339 C 317.87,15.779 315.14,15.77 312.45,15.66 M 327.46,15.55 C 324.05,14.6 323.91,8.699 327.06,7.3 C 329.01,7.139 331.9,7.02 332.5,9.44 C 332.83,11.399 333.12,14.009 331.29,15.33 C 330.09,15.899 328.71,15.839 327.46,15.55 M 334.68,7.33 C 336.42,7.22 338.15,7.08 339.9,6.96 C 338.57,7.52 337.21,7.97 335.93,8.6 C 335.73,11.279 335.85,13.979 335.44,16.64 C 334.25,13.679 334.77,10.44 334.68,7.33 M 338.17,15.789 C 338.99,15.449 340.64,14.77 341.46,14.419 C 341.67,12.039 341.57,9.63 341.57,7.229 C 341.85,7.229 342.41,7.229 342.69,7.229 C 342.69,9.919 342.69,12.6 342.76,15.279 C 344.11,15.059 345.49,14.789 346.83,14.419 C 346.74,12.009 346.72,9.589 346.7,7.179 C 348.59,7.279 350.48,7.369 352.36,7.58 C 350.87,7.94 349.33,8.139 347.82,8.36 C 347.82,9.089 347.84,10.559 347.85,11.289 C 348.63,11.3 350.18,11.339 350.96,11.35 L 350.98,12.13 C 350.19,12.13 348.62,12.13 347.83,12.13 C 347.84,12.82 347.85,14.19 347.85,14.88 C 349.07,14.869 350.29,14.85 351.52,14.83 C 351.54,15.05 351.59,15.479 351.61,15.699 C 349.19,15.729 346.77,15.729 344.36,15.699 C 342.29,15.74 340.23,15.77 338.17,15.789 M 353.57,16.509 C 353.27,13.419 353.28,10.3 353.3,7.199 C 353.58,7.22 354.16,7.259 354.44,7.289 C 354.43,9.529 354.41,11.779 354.43,14.009 C 356.24,11.419 357.99,8.75 360.25,6.509 C 360.46,9.589 360.46,12.679 360.47,15.77 C 360.19,15.759 359.62,15.75 359.34,15.75 C 359.32,13.639 359.3,11.539 359.29,9.429 C 357.54,11.91 355.84,14.47 353.57,16.509 Z" marker-start="none" marker-end="none"/>
   <path d="M 9.53,157.47 C 29.35,157.5 49.17,157.47 68.99,157.48 C 68.94,144.62 68.99,131.76 68.96,118.9 C 68.98,111.28 65.32,104.14 60.21,98.66 C 61.05,102.62 58.78,105.83 56.55,108.82 C 56.4,109.11 56.12,109.7 55.97,109.99 L 55.72,110.7 C 55.42,112.24 55.23,113.79 55.15,115.36 C 57.72,114.52 60.32,113.71 62.99,113.21 C 61.23,116.28 59.22,119.22 57.82,122.49 C 58.62,122.22 60.22,121.68 61.02,121.41 C 59.98,123.93 58.76,126.36 57.47,128.75 C 57.94,128.75 58.86,128.75 59.33,128.75 C 58.09,131.34 57.01,133.99 56.01,136.68 L 57.91,136.59 C 57.05,138.8 56.16,140.99 55.23,143.16 C 55.53,143.21 56.15,143.3 56.46,143.34 C 54.77,147.48 55.79,152.33 53.17,156.21 C 52.37,153.84 51.72,151.41 51.18,148.96 C 51.95,147.11 50.93,145.35 50.3,143.64 C 50.54,143.37 51.02,142.83 51.26,142.56 C 50.37,140.61 49.57,138.63 48.76,136.66 C 49.24,136.65 50.19,136.63 50.67,136.62 C 49.64,133.96 48.56,131.31 47.37,128.71 C 47.83,128.72 48.75,128.75 49.21,128.76 C 48.08,126.58 46.96,124.38 45.81,122.2 C 45.39,122.86 44.55,124.18 44.13,124.83 C 44.69,124.78 45.81,124.67 46.38,124.61 C 45.4,126.61 44.46,128.62 43.53,130.64 C 44.03,130.67 45.03,130.74 45.53,130.77 C 44.69,132.46 43.86,134.15 43.08,135.87 C 44.27,138.32 42.23,140.59 41.6,142.87 C 42.02,142.84 42.86,142.79 43.29,142.76 C 42.47,144.59 41.69,146.43 40.92,148.28 C 41.17,148.66 41.66,149.41 41.91,149.79 C 41.07,152.03 40.27,154.29 39.17,156.43 C 38.36,154.37 37.65,152.27 37.04,150.14 C 38.01,147.91 36.56,145.8 35.79,143.77 C 37.4,141.97 35.71,139.97 35.17,137.98 C 36.19,135.34 34.01,133.05 33.1,130.71 L 35.09,130.68 C 34.17,128.67 33.24,126.66 32.279,124.66 C 32.83,124.68 33.94,124.71 34.5,124.72 C 34.06,124.1 33.18,122.85 32.74,122.23 C 31.63,124.42 30.52,126.6 29.35,128.76 C 29.81,128.76 30.75,128.75 31.22,128.74 C 30.03,131.33 28.96,133.97 27.96,136.63 C 28.43,136.63 29.39,136.61 29.87,136.6 C 28.99,138.8 28.09,140.98 27.14,143.14 C 27.44,143.19 28.04,143.29 28.34,143.34 C 26.8,147.51 27.67,152.34 25.05,156.2 C 24.23,153.83 23.62,151.4 23.18,148.93 C 23.59,146.6 22.35,144.38 22.78,142.05 C 22.13,140.24 21.44,138.44 20.72,136.66 C 21.2,136.64 22.15,136.62 22.62,136.6 C 21.56,133.94 20.47,131.29 19.29,128.68 L 21.16,128.82 C 19.91,126.41 18.67,123.98 17.48,121.53 C 18.3,121.73 19.93,122.11 20.74,122.31 C 19.27,119.13 17.35,116.2 15.59,113.19 C 18.3,113.7 20.93,114.54 23.52,115.44 C 24.28,108.92 16.89,105.01 18.44,98.49 C 13.37,104.1 9.7,111.21 9.55,118.89 C 9.49,131.75 9.54,144.61 9.53,157.47 Z" marker-start="none" marker-end="none"/>
   <path d="M 235.99,142 C 238.69,146.39 245,144.14 247.47,140.69 C 247.87,134.2 247.48,127.67 247.63,121.17 C 244.96,119.6 242.21,117.3 238.91,117.77 C 235.02,118.93 234.28,123.58 233.9,127.03 C 233.6,132.04 233.49,137.49 235.99,142 Z" marker-start="none" marker-end="none"/>
   <path d="M 179.75,124.22 C 183.5,126.72 188.34,126 192.62,126.2 C 192.6,124.15 192.57,122.1 192.52,120.05 C 189.65,118.09 186.73,115.43 183.02,115.59 C 178.97,115.74 176.5,121.53 179.75,124.22 Z" marker-start="none" marker-end="none"/>
   <path d="M 30.45,122.24 C 31.74,122.78 32.82,120.68 31.9,119.77 C 30.64,119.2 29.68,121.37 30.45,122.24 Z" marker-start="none" marker-end="none"/>
   <path d="M 47.38,119.6 C 45.37,119.63 46.49,123.26 48.12,121.85 C 48.12,121.4 48.12,120.5 48.12,120.06 L 47.38,119.6 Z" marker-start="none" marker-end="none"/>
   <path d="M 31.5,118.56 C 33.5,118.87 35.48,119.24 37.47,119.6 C 37.25,117.29 37.51,114.79 36.29,112.7 C 34.96,109.46 32.029,107.33 30.44,104.23 C 29.22,107.93 27.01,111.35 27.03,115.37 C 29.63,114.5 32.25,113.66 34.96,113.21 C 33.93,115.08 32.74,116.84 31.5,118.56 Z" marker-start="none" marker-end="none"/>
   <path d="M 41.23,119.59 C 43.19,119.21 45.14,118.85 47.11,118.55 C 45.87,116.81 44.66,115.05 43.58,113.21 C 46.32,113.65 48.98,114.51 51.61,115.39 C 51.5,111.48 49.52,108.05 48.23,104.46 C 46.9,106.36 45.52,108.23 43.83,109.84 C 43.08,111.32 42.28,112.78 41.43,114.2 C 41.35,116 41.29,117.79 41.23,119.59 Z" marker-start="none" marker-end="none"/>
   <path d="M 179.24,66.65 C 181.75,69.75 187.28,69.82 189.67,66.55 C 191.27,64.58 191.29,61.89 191.74,59.5 C 186.75,59.4 181.76,59.41 176.77,59.51 C 177.33,61.94 177.46,64.71 179.24,66.65 Z" marker-start="none" marker-end="none"/>
   <path d="M 308.49,67.48 C 311.16,69.64 315.53,69.39 317.96,66.98 C 319.68,64.879 319.72,62.059 320.03,59.5 C 315.07,59.41 310.12,59.41 305.17,59.5 C 305.82,62.29 306.19,65.489 308.49,67.48 Z" marker-start="none" marker-end="none"/>
   <path d="M 255.48,65.46 C 258.93,67.92 262.7,64.71 265.61,62.9 C 265.75,56.57 265.67,50.25 265.66,43.92 C 262.73,41.78 258.76,38.759 255.07,41 C 251.77,43.96 251.88,48.869 251.61,52.949 C 251.86,57.24 251.77,62.54 255.48,65.46 Z" marker-start="none" marker-end="none"/>
   <path d="M 26.55,46.33 C 30.47,48.35 35.07,47.92 39.35,48.229 C 39.36,46.21 39.36,44.199 39.35,42.179 C 36.34,39.96 33.1,36.96 29.07,37.479 C 25.16,38.05 23.19,43.92 26.55,46.33 Z" marker-start="none" marker-end="none"/>
   <path d="M 82.66,15.44 C 83.95,14.589 86.63,14.369 85.73,12.199 C 84.81,11.49 83.66,11.24 82.6,10.809 C 82.62,11.97 82.64,14.279 82.66,15.44 Z" marker-start="none" marker-end="none"/>
   <path d="M 99.21,15.429 C 100.32,14.949 101.4,14.419 102.47,13.85 C 101.82,12.729 100.69,11.8 99.32,12.119 C 99.29,12.949 99.24,14.61 99.21,15.429 Z" marker-start="none" marker-end="none"/>
   <path d="M 143.22,14.8 C 147.37,16.05 148.12,7.85 143.98,8.1 C 140.48,7.789 140.29,14.05 143.22,14.8 Z" marker-start="none" marker-end="none"/>
   <path d="M 169.05,14.85 C 172.92,15.75 173.56,8.419 169.95,8.1 C 166.17,7.47 165.74,14.039 169.05,14.85 Z" marker-start="none" marker-end="none"/>
   <path d="M 177.11,12.389 C 175.54,13.589 177.78,15.619 179.07,14.35 C 180.8,13.22 178.35,11.289 177.11,12.389 Z" marker-start="none" marker-end="none"/>
   <path d="M 230.18,14.44 C 231.46,15.77 233.9,13.679 232.48,12.3 C 231.15,10.8 228.86,13.029 230.18,14.44 Z" marker-start="none" marker-end="none"/>
   <path d="M 307.55,15.5 C 309.34,14.63 312.06,13.619 311.5,11.08 C 311.61,8.679 309.28,8.25 307.52,7.6 C 307.44,10.24 307.44,12.869 307.55,15.5 Z" marker-start="none" marker-end="none"/>
   <path d="M 11.29,13.36 C 12.49,13.22 12.97,11.08 12.42,10.11 C 11.99,10.11 11.12,10.119 10.69,10.13 C 10.03,11.119 10.59,12.539 11.29,13.36 Z" marker-start="none" marker-end="none"/>
   <path d="M 215.3,15.419 C 216.65,14.509 219.24,14.179 218.92,11.97 C 219.56,9.47 217.42,8.059 215.33,7.5 C 215.18,10.139 215.18,12.789 215.3,15.419 Z" marker-start="none" marker-end="none"/>
   <path d="M 326.77,14.13 C 330.83,17.57 333.71,9.69 329.77,8.179 C 326.25,7.08 325.29,11.8 326.77,14.13 Z" marker-start="none" marker-end="none"/>
   <path d="M 124.99,10.3 C 124.31,11.539 124.58,12.419 125.79,12.94 C 126.05,12.419 126.58,11.38 126.84,10.86 L 126.44,10.139 C 126.08,10.179 125.35,10.259 124.99,10.3 Z" marker-start="none" marker-end="none"/>
   <path d="M 301.19,12.85 C 303.91,12.38 301.22,7.979 300.11,10.91 C 300.38,11.399 300.92,12.36 301.19,12.85 Z" marker-start="none" marker-end="none"/>
   <path d="M 99.19,7.619 C 98.63,9.19 98.91,10.36 100.01,11.13 C 100.82,10.85 102.43,10.279 103.24,10 C 102.3,8.589 100.72,8.11 99.19,7.619 Z" marker-start="none" marker-end="none"/>
  </g>
  <g id="Group_1" fill-rule="nonzero" stroke-linejoin="miter" stroke="none" stroke-width="1" fill="#d9373b">
   <path d="M 247.63,178.16 C 253.85,178.96 260.1,179.69 266.21,181.16 C 266.24,155.29 266.17,129.41 266.24,103.53 C 261.07,103.53 255.9,103.53 250.74,103.52 C 250.37,105.12 250,106.71 249.64,108.29 C 244.09,104.82 237.86,101.15 231.02,102.43 C 223.89,103.13 218.63,109.2 216.71,115.75 C 213.94,125.3 213.96,135.7 216.9,145.2 C 219.14,152.11 224.6,158.48 232.07,159.66 C 237.61,161.05 243.13,158.74 247.62,155.63 C 247.62,163.14 247.6,170.65 247.63,178.16 M 235.99,142 C 233.49,137.49 233.6,132.04 233.9,127.03 C 234.28,123.58 235.02,118.93 238.91,117.77 C 242.21,117.3 244.96,119.6 247.63,121.17 C 247.48,127.67 247.87,134.2 247.47,140.69 C 245,144.14 238.69,146.39 235.99,142 Z" marker-start="none" marker-end="none"/>
   <path d="M 129.83,173.08 C 136.04,173.77 142.24,174.57 148.43,175.44 C 148.41,169.82 148.42,164.21 148.42,158.6 C 151.76,158.6 155.11,158.6 158.46,158.62 C 158.44,154.25 158.45,149.88 158.46,145.51 C 155.11,145.53 151.76,145.53 148.41,145.54 C 148.51,137.07 148.26,128.6 148.51,120.14 C 148.37,115.41 154.49,117.06 157.46,117.25 C 157.8,112.85 158.32,108.47 158.49,104.05 C 151.67,102.77 144.38,101.17 137.62,103.49 C 132.18,105.51 129.88,111.58 129.86,116.98 C 129.729,126.5 129.85,136.02 129.83,145.54 C 127.73,145.54 125.64,145.53 123.55,145.52 C 123.57,149.88 123.57,154.25 123.55,158.62 C 125.64,158.61 127.73,158.6 129.82,158.59 C 129.81,163.42 129.81,168.25 129.83,173.08 Z" marker-start="none" marker-end="none"/>
   <path d="M 275.42,173.14 C 281.68,173.71 287.91,174.65 294.15,175.44 C 293.91,169.83 293.77,164.21 294.06,158.6 C 297.39,158.6 300.72,158.6 304.05,158.59 C 304.11,154.25 304.1,149.9 304.11,145.56 C 300.74,145.53 297.36,145.53 293.99,145.52 C 293.82,138.36 293.95,131.2 293.87,124.04 C 293.93,121.89 293.77,119.63 294.65,117.61 C 297.12,116.17 300.08,117.21 302.77,117.06 C 303.54,112.77 303.6,108.4 303.88,104.06 C 297.23,102.74 290.19,101.31 283.53,103.31 C 278.14,104.9 275.47,110.74 275.44,116 C 275.37,125.84 275.45,135.69 275.42,145.53 C 273.32,145.53 271.23,145.52 269.14,145.52 C 269.16,149.88 269.16,154.25 269.15,158.61 C 271.23,158.61 273.32,158.6 275.41,158.6 C 275.42,163.45 275.42,168.3 275.42,173.14 Z" marker-start="none" marker-end="none"/>
   <path d="M 90.26,156.79 C 100.01,162.19 112.22,160.31 121.9,155.69 C 120.29,151.82 118.51,148.03 116.9,144.16 C 111.99,145.95 106.76,148.11 101.48,146.53 C 101.24,144.86 99.88,142.87 101.57,141.54 C 106.46,137.7 113.12,137.01 117.88,132.92 C 126.81,126.05 125.02,109.96 114.76,105.22 C 104.45,100.15 92.02,102.14 81.99,106.98 C 83.73,111.04 85.53,115.07 87.29,119.13 C 91.95,117.48 96.88,114.93 101.94,116.09 C 104.85,116.45 105.66,120.7 103.14,122.15 C 98.12,125.69 91.49,126.57 87.15,131.19 C 79.97,138.19 81.27,151.89 90.26,156.79 Z" marker-start="none" marker-end="none"/>
   <path d="M 161.99,154.64 C 174.38,159.4 188.33,161.98 201.34,158.33 C 207.59,156.65 211.25,150.28 211.17,144.06 C 211.28,130.55 211.14,117.04 211.23,103.53 C 206.06,103.52 200.89,103.55 195.72,103.51 C 195.29,105.25 194.85,106.98 194.42,108.71 C 187.97,103.12 178.77,100.49 170.54,103.33 C 161.64,106.51 157.43,117.71 160.75,126.27 C 162.9,131.29 167.92,134.36 172.97,135.86 C 179.38,137.93 186.2,137.78 192.84,138.27 C 192.6,141.32 192.28,145.55 188.64,146.43 C 180.85,147.85 173.03,145.38 165.56,143.38 C 164.35,147.13 163.14,150.88 161.99,154.64 M 179.75,124.22 C 176.5,121.53 178.97,115.74 183.02,115.59 C 186.73,115.43 189.65,118.09 192.52,120.05 C 192.57,122.1 192.6,124.15 192.62,126.2 C 188.34,126 183.5,126.72 179.75,124.22 Z" marker-start="none" marker-end="none"/>
   <path d="M 36.15,109.7 C 37.98,113.31 37.4,117.54 39.03,121.18 L 40.15,120.11 C 40.61,116.59 40.76,112.97 42.38,109.72 C 41.36,110.05 40.34,110.37 39.32,110.7 C 38.26,110.37 37.21,110.04 36.15,109.7 Z" marker-start="none" marker-end="none"/>
   <path d="M 24.5,116.45 C 24.86,116.62 25.58,116.95 25.94,117.12 C 26.53,113.81 26.8,110.42 28.15,107.28 C 26.27,107.38 24.4,107.39 22.53,107.26 C 23.53,110.25 23.76,113.41 24.5,116.45 Z" marker-start="none" marker-end="none"/>
   <path d="M 53.2,116.8 C 54.94,116.05 54.35,113.4 55.09,111.89 C 55.25,111.59 55.56,111 55.72,110.7 L 55.97,109.99 C 56.12,109.25 56.4,107.75 56.54,107.01 C 55.45,107.29 54.36,107.58 53.28,107.87 C 52.34,107.61 51.4,107.35 50.47,107.09 C 51.84,110.19 51.4,113.95 53.2,116.8 Z" marker-start="none" marker-end="none"/>
  </g>
  <path d="M 8.06,158.94 C 28.89,159.12 49.71,159.07 70.54,158.97 C 70.55,145.43 70.7,131.88 70.47,118.35 C 70.05,104.64 59.3,92.24 45.91,89.54 C 35.9,87.31 24.92,90.43 17.58,97.6 C 11.22,103.58 7.92,112.32 7.96,120.98 C 8.01,133.63 7.83,146.29 8.06,158.94 M 9.53,157.47 C 9.54,144.61 9.49,131.75 9.55,118.89 C 9.7,111.21 13.37,104.1 18.44,98.49 C 16.89,105.01 24.28,108.92 23.52,115.44 C 20.93,114.54 18.3,113.7 15.59,113.19 C 17.35,116.2 19.27,119.13 20.74,122.31 C 19.93,122.11 18.3,121.73 17.48,121.53 C 18.67,123.98 19.91,126.41 21.16,128.82 L 19.29,128.68 C 20.47,131.29 21.56,133.94 22.62,136.6 C 22.15,136.62 21.2,136.64 20.72,136.66 C 21.44,138.44 22.13,140.24 22.78,142.05 C 22.35,144.38 23.59,146.6 23.18,148.93 C 23.62,151.4 24.23,153.83 25.05,156.2 C 27.67,152.34 26.8,147.51 28.34,143.34 C 28.04,143.29 27.44,143.19 27.14,143.14 C 28.09,140.98 28.99,138.8 29.87,136.6 C 29.39,136.61 28.43,136.63 27.96,136.63 C 28.96,133.97 30.03,131.33 31.22,128.74 C 30.75,128.75 29.81,128.76 29.35,128.76 C 30.52,126.6 31.63,124.42 32.74,122.23 C 33.18,122.85 34.06,124.1 34.5,124.72 C 33.94,124.71 32.83,124.68 32.279,124.66 C 33.24,126.66 34.17,128.67 35.09,130.68 L 33.1,130.71 C 34.01,133.05 36.19,135.34 35.17,137.98 C 35.71,139.97 37.4,141.97 35.79,143.77 C 36.56,145.8 38.01,147.91 37.04,150.14 C 37.65,152.27 38.36,154.37 39.17,156.43 C 40.27,154.29 41.07,152.03 41.91,149.79 C 41.66,149.41 41.17,148.66 40.92,148.28 C 41.69,146.43 42.47,144.59 43.29,142.76 C 42.86,142.79 42.02,142.84 41.6,142.87 C 42.23,140.59 44.27,138.32 43.08,135.87 C 43.86,134.15 44.69,132.46 45.53,130.77 C 45.03,130.74 44.03,130.67 43.53,130.64 C 44.46,128.62 45.4,126.61 46.38,124.61 C 45.81,124.67 44.69,124.78 44.13,124.83 C 44.55,124.18 45.39,122.86 45.81,122.2 C 46.96,124.38 48.08,126.58 49.21,128.76 C 48.75,128.75 47.83,128.72 47.37,128.71 C 48.56,131.31 49.64,133.96 50.67,136.62 C 50.19,136.63 49.24,136.65 48.76,136.66 C 49.57,138.63 50.37,140.61 51.26,142.56 C 51.02,142.83 50.54,143.37 50.3,143.64 C 50.93,145.35 51.95,147.11 51.18,148.96 C 51.72,151.41 52.37,153.84 53.17,156.21 C 55.79,152.33 54.77,147.48 56.46,143.34 C 56.15,143.3 55.53,143.21 55.23,143.16 C 56.16,140.99 57.05,138.8 57.91,136.59 L 56.01,136.68 C 57.01,133.99 58.09,131.34 59.33,128.75 C 58.86,128.75 57.94,128.75 57.47,128.75 C 58.76,126.36 59.98,123.93 61.02,121.41 C 60.22,121.68 58.62,122.22 57.82,122.49 C 59.22,119.22 61.23,116.28 62.99,113.21 C 60.32,113.71 57.72,114.52 55.15,115.36 C 55.23,113.79 55.42,112.24 55.72,110.7 C 55.56,111 55.25,111.59 55.09,111.89 C 54.35,113.4 54.94,116.05 53.2,116.8 C 51.4,113.95 51.84,110.19 50.47,107.09 C 51.4,107.35 52.34,107.61 53.28,107.87 C 54.36,107.58 55.45,107.29 56.54,107.01 C 56.4,107.75 56.12,109.25 55.97,109.99 C 56.12,109.7 56.4,109.11 56.55,108.82 C 58.78,105.83 61.05,102.62 60.21,98.66 C 65.32,104.14 68.98,111.28 68.96,118.9 C 68.99,131.76 68.94,144.62 68.99,157.48 C 49.17,157.47 29.35,157.5 9.53,157.47 M 39.2,153.91 C 38.15,148.02 37.81,142.02 36.69,136.13 C 35.49,130.53 35.97,124.48 32.89,119.4 C 35.04,120.18 37.19,120.97 39.33,121.8 C 41.45,120.96 43.58,120.16 45.73,119.39 C 44.92,121.21 44.09,123.02 43.31,124.86 C 43.23,131.06 41.57,137.07 40.8,143.19 C 40.45,146.79 40.31,150.44 39.2,153.91 M 25.01,152.8 C 24.35,148.39 24.53,143.87 23.24,139.57 C 23.41,138.77 23.59,137.97 23.77,137.17 C 23.17,135.44 22.57,133.71 21.97,131.97 C 22.18,131.45 22.59,130.42 22.79,129.9 C 21.87,127.95 20.94,126.01 20,124.06 C 20.54,123.92 21.61,123.64 22.14,123.5 C 20.9,120.42 19.51,117.4 18,114.44 C 20.44,115.53 22.86,116.68 25.23,117.91 C 27.58,116.74 29.96,115.64 32.36,114.58 C 31.02,117.45 29.7,120.33 28.42,123.24 C 28.9,123.53 29.85,124.12 30.32,124.42 C 27.96,128.23 28.39,132.84 27.23,137.03 C 26.4,142.27 26.91,147.79 25.01,152.8 M 51.47,139.43 C 51.7,136.83 50.96,134.32 50.14,131.88 C 50.32,131.4 50.67,130.43 50.85,129.94 C 50.04,128.22 49.23,126.5 48.44,124.78 C 48.75,124.35 49.39,123.49 49.7,123.05 C 49.3,119.92 47.36,117.24 46.01,114.45 C 48.47,115.34 50.64,116.86 53.03,117.85 C 55.69,117.02 58.02,115.4 60.63,114.42 C 59.21,117.26 57.84,120.13 56.58,123.05 C 57.03,123.42 57.94,124.16 58.4,124.53 C 57.15,126.82 56.05,129.27 56.34,131.94 C 55.74,134.3 55.28,136.71 55.22,139.15 C 54.19,143.85 54.29,148.68 53.65,153.42 C 51.88,148.94 52.89,144 51.47,139.43 M 30.45,122.24 C 29.68,121.37 30.64,119.2 31.9,119.77 C 32.82,120.68 31.74,122.78 30.45,122.24 M 47.38,119.6 L 48.12,120.06 C 48.12,120.5 48.12,121.4 48.12,121.85 C 46.49,123.26 45.37,119.63 47.38,119.6 M 36.15,109.7 C 37.21,110.04 38.26,110.37 39.32,110.7 C 40.34,110.37 41.36,110.05 42.38,109.72 C 40.76,112.97 40.61,116.59 40.15,120.11 L 39.03,121.18 C 37.4,117.54 37.98,113.31 36.15,109.7 M 31.5,118.56 C 32.74,116.84 33.93,115.08 34.96,113.21 C 32.25,113.66 29.63,114.5 27.03,115.37 C 27.01,111.35 29.22,107.93 30.44,104.23 C 32.029,107.33 34.96,109.46 36.29,112.7 C 37.51,114.79 37.25,117.29 37.47,119.6 C 35.48,119.24 33.5,118.87 31.5,118.56 M 41.23,119.59 C 41.29,117.79 41.35,116 41.43,114.2 C 42.28,112.78 43.08,111.32 43.83,109.84 C 45.52,108.23 46.9,106.36 48.23,104.46 C 49.52,108.05 51.5,111.48 51.61,115.39 C 48.98,114.51 46.32,113.65 43.58,113.21 C 44.66,115.05 45.87,116.81 47.11,118.55 C 45.14,118.85 43.19,119.21 41.23,119.59 M 24.5,116.45 C 23.76,113.41 23.53,110.25 22.53,107.26 C 24.4,107.39 26.27,107.38 28.15,107.28 C 26.8,110.42 26.53,113.81 25.94,117.12 C 25.58,116.95 24.86,116.62 24.5,116.45 M 34.92,108.12 C 32.86,106.78 32.11,104.28 30.99,102.22 C 29.95,103.5 29.01,104.88 27.76,105.98 C 24.21,108.16 18.67,104.94 19.35,100.63 C 19.42,96.73 23.27,94.88 26.27,93.34 C 34.45,89.24 44.47,89.3 52.6,93.5 C 55.31,94.96 58.85,96.49 59.26,99.96 C 60.46,104.36 55,108.11 51.19,106.13 C 49.77,105.05 48.7,103.61 47.54,102.28 C 46.63,104.08 45.97,106.09 44.54,107.57 C 41.84,109.62 37.84,109.88 34.92,108.12 Z" fill="#2e2a2b" fill-rule="nonzero" stroke-linejoin="miter" stroke="none" stroke-width="1" marker-start="none" marker-end="none"/>
  <path d="M 212.41,102.11 C 218.55,102.13 224.7,102.04 230.85,102.21 C 230.9,97.23 230.86,92.25 230.9,87.28 C 224.72,87.28 218.55,87.3 212.38,87.26 C 212.42,92.21 212.4,97.16 212.41,102.11 Z" fill="#2e2a2b" fill-rule="nonzero" stroke-linejoin="miter" stroke="none" stroke-width="1" marker-start="none" marker-end="none"/>
  <path d="M 8.51,76.48 C 19.58,80.77 31.67,82.96 43.5,81.18 C 47.62,80.48 52.02,79.09 54.6,75.58 C 57.59,71.74 57.73,66.65 57.84,62.01 C 57.88,49.85 57.81,37.699 57.88,25.539 C 52.6,25.57 47.32,25.509 42.04,25.6 C 41.74,27.179 41.43,28.77 41.12,30.35 C 35.03,25.86 27.5,22.869 19.83,24.41 C 7.58,26.199 1.15,43.839 10.42,52.539 C 18.19,59.68 29.57,59.78 39.5,59.75 C 39.1,63.019 38.86,67.58 34.86,68.4 C 27.13,69.55 19.46,67.15 12.04,65.23 C 10.94,69 9.73,72.74 8.51,76.48 M 26.55,46.33 C 23.19,43.92 25.16,38.05 29.07,37.479 C 33.1,36.96 36.34,39.96 39.35,42.179 C 39.36,44.199 39.36,46.21 39.35,48.229 C 35.07,47.92 30.47,48.35 26.55,46.33 Z" fill="#2e2a2b" fill-rule="nonzero" stroke-linejoin="miter" stroke="none" stroke-width="1" marker-start="none" marker-end="none"/>
  <path d="M 81.05,75.6 C 87.9,80.73 97.17,83.78 105.48,80.48 C 111.56,78.05 114.19,71.12 114.31,64.989 C 114.36,51.839 114.28,38.69 114.35,25.539 C 108.15,25.559 101.96,25.55 95.76,25.539 C 95.77,36.69 95.79,47.85 95.77,58.99 C 95.82,62.07 94.58,66.11 90.96,66.42 C 88.03,66.25 85.56,64.5 83.16,63 C 83.14,50.52 83.14,38.03 83.16,25.55 C 76.95,25.539 70.75,25.58 64.55,25.529 C 64.589,43.8 64.58,62.07 64.55,80.34 C 69.71,80.3 74.87,80.33 80.03,80.31 C 80.37,78.74 80.71,77.17 81.05,75.6 Z" fill="#2e2a2b" fill-rule="nonzero" stroke-linejoin="miter" stroke="none" stroke-width="1" marker-start="none" marker-end="none"/>
  <path d="M 166.44,75.56 C 172.39,81.29 181.23,82.2 189.09,81.63 C 196.52,81.16 203.87,76.87 206.93,69.92 C 210.16,62.94 209.56,55.039 209.05,47.58 C 198.35,47.479 187.66,47.61 176.96,47.509 C 177.39,44.009 178.06,39.35 182.07,38.229 C 189.95,36.63 197.94,38.86 205.73,40.05 C 206.86,36.289 207.9,32.49 209.05,28.729 C 198.95,24.85 187.9,23.279 177.15,24.61 C 171.33,25.33 165.47,28.169 162.49,33.41 C 159.12,39.32 158.65,46.339 158.55,52.99 C 158.71,61.01 160.19,69.91 166.44,75.56 M 179.24,66.65 C 177.46,64.71 177.33,61.94 176.77,59.51 C 181.76,59.41 186.75,59.4 191.74,59.5 C 191.29,61.89 191.27,64.58 189.67,66.55 C 187.28,69.82 181.75,69.75 179.24,66.65 Z" fill="#2e2a2b" fill-rule="nonzero" stroke-linejoin="miter" stroke="none" stroke-width="1" marker-start="none" marker-end="none"/>
  <path d="M 236.73,71.48 C 239.93,77.81 246.82,82.13 253.98,81.77 C 259.25,82.01 263.69,78.69 267.55,75.51 C 267.97,77.12 268.4,78.72 268.82,80.32 C 273.96,80.31 279.1,80.31 284.24,80.33 C 284.19,62.879 284.27,45.44 284.21,27.99 C 284.12,20.789 281.23,12.869 274.43,9.47 C 264.6,4.58 253.1,5.52 242.6,7.22 C 241.7,11 240.83,14.789 240,18.58 C 247.36,19 254.97,17.61 262.16,19.589 C 266.43,21.279 265.67,26.509 265.72,30.179 C 260.39,26.429 253.7,23.66 247.13,25.5 C 239.14,27.33 234.63,35.47 233.47,43.05 C 231.99,52.52 232.18,62.82 236.73,71.48 M 255.48,65.46 C 251.77,62.54 251.86,57.24 251.61,52.949 C 251.88,48.869 251.77,43.96 255.07,41 C 258.76,38.759 262.73,41.78 265.66,43.92 C 265.67,50.25 265.75,56.57 265.61,62.9 C 262.7,64.71 258.93,67.92 255.48,65.46 Z" fill="#2e2a2b" fill-rule="nonzero" stroke-linejoin="miter" stroke="none" stroke-width="1" marker-start="none" marker-end="none"/>
  <path d="M 298.54,78.27 C 305.59,82.19 314.23,82.55 321.98,80.84 C 328.86,79.23 334.68,73.83 336.55,66.98 C 338.47,60.69 337.76,54 337.46,47.539 C 326.78,47.52 316.1,47.61 305.42,47.49 C 305.82,43.869 306.71,39.13 310.9,38.149 C 318.65,36.85 326.58,38.61 334.18,40.22 C 335.28,36.36 336.43,32.52 337.57,28.669 C 327.51,24.91 316.59,23.3 305.9,24.57 C 300.14,25.3 294.26,27.97 291.18,33.1 C 286.9,40.28 287,48.99 287.29,57.07 C 287.74,65.22 291.02,74.14 298.54,78.27 M 308.49,67.48 C 306.19,65.489 305.82,62.29 305.17,59.5 C 310.12,59.41 315.07,59.41 320.03,59.5 C 319.72,62.059 319.68,64.879 317.96,66.98 C 315.53,69.39 311.16,69.64 308.49,67.48 Z" fill="#2e2a2b" fill-rule="nonzero" stroke-linejoin="miter" stroke="none" stroke-width="1" marker-start="none" marker-end="none"/>
  <path d="M 365.35,80.58 C 367.99,82.03 371.1,81.68 373.99,81.79 C 374.01,75.94 373.99,70.08 374,64.23 C 368.96,64.41 363.76,63.58 359.8,60.23 C 359.86,48.67 359.75,37.11 359.86,25.55 C 353.67,25.55 347.49,25.57 341.31,25.529 C 341.35,43.8 341.35,62.07 341.31,80.34 C 346.28,80.31 351.26,80.3 356.24,80.34 C 356.71,78.31 357.2,76.29 357.68,74.26 C 360.11,76.51 362.46,78.92 365.35,80.58 Z" fill="#2e2a2b" fill-rule="nonzero" stroke-linejoin="miter" stroke="none" stroke-width="1" marker-start="none" marker-end="none"/>
  <path d="M 118.41,66.4 C 118.44,71.04 118.45,75.69 118.41,80.34 C 131.31,80.29 144.2,80.33 157.1,80.31 C 156.94,76.62 157.77,72.6 155.76,69.25 C 150.51,59.36 145.41,49.38 140.18,39.47 C 145.98,39.42 151.79,39.44 157.59,39.46 C 157.56,34.82 157.56,30.179 157.59,25.539 C 144.24,25.559 130.899,25.57 117.56,25.529 C 117.83,29.119 116.73,33.1 118.75,36.339 C 124.09,46.32 129.179,56.429 134.56,66.4 C 129.17,66.43 123.79,66.43 118.41,66.4 Z" fill="#2e2a2b" fill-rule="nonzero" stroke-linejoin="miter" stroke="none" stroke-width="1" marker-start="none" marker-end="none"/>
  <path d="M 212.37,25.529 C 212.43,43.8 212.41,62.07 212.38,80.34 C 218.56,80.3 224.73,80.33 230.91,80.31 C 230.86,62.059 230.86,43.809 230.91,25.55 C 224.73,25.539 218.55,25.57 212.37,25.529 Z" fill="#2e2a2b" fill-rule="nonzero" stroke-linejoin="miter" stroke="none" stroke-width="1" marker-start="none" marker-end="none"/>
  <g id="Group_2" fill-rule="nonzero" stroke-linejoin="miter" stroke="none" stroke-width="1" fill="#19b271">
   <path d="M 39.2,153.91 C 40.31,150.44 40.45,146.79 40.8,143.19 C 41.57,137.07 43.23,131.06 43.31,124.86 C 44.09,123.02 44.92,121.21 45.73,119.39 C 43.58,120.16 41.45,120.96 39.33,121.8 C 37.19,120.97 35.04,120.18 32.89,119.4 C 35.97,124.48 35.49,130.53 36.69,136.13 C 37.81,142.02 38.15,148.02 39.2,153.91 Z" marker-start="none" marker-end="none"/>
   <path d="M 25.01,152.8 C 26.91,147.79 26.4,142.27 27.23,137.03 C 28.39,132.84 27.96,128.23 30.32,124.42 C 29.85,124.12 28.9,123.53 28.42,123.24 C 29.7,120.33 31.02,117.45 32.36,114.58 C 29.96,115.64 27.58,116.74 25.23,117.91 C 22.86,116.68 20.44,115.53 18,114.44 C 19.51,117.4 20.9,120.42 22.14,123.5 C 21.61,123.64 20.54,123.92 20,124.06 C 20.94,126.01 21.87,127.95 22.79,129.9 C 22.59,130.42 22.18,131.45 21.97,131.97 C 22.57,133.71 23.17,135.44 23.77,137.17 C 23.59,137.97 23.41,138.77 23.24,139.57 C 24.53,143.87 24.35,148.39 25.01,152.8 Z" marker-start="none" marker-end="none"/>
   <path d="M 51.47,139.43 C 52.89,144 51.88,148.94 53.65,153.42 C 54.29,148.68 54.19,143.85 55.22,139.15 C 55.28,136.71 55.74,134.3 56.34,131.94 C 56.05,129.27 57.15,126.82 58.4,124.53 C 57.94,124.16 57.03,123.42 56.58,123.05 C 57.84,120.13 59.21,117.26 60.63,114.42 C 58.02,115.4 55.69,117.02 53.03,117.85 C 50.64,116.86 48.47,115.34 46.01,114.45 C 47.36,117.24 49.3,119.92 49.7,123.05 C 49.39,123.49 48.75,124.35 48.44,124.78 C 49.23,126.5 50.04,128.22 50.85,129.94 C 50.67,130.43 50.32,131.4 50.14,131.88 C 50.96,134.32 51.7,136.83 51.47,139.43 Z" marker-start="none" marker-end="none"/>
   <path d="M 34.92,108.12 C 37.84,109.88 41.84,109.62 44.54,107.57 C 45.97,106.09 46.63,104.08 47.54,102.28 C 48.7,103.61 49.77,105.05 51.19,106.13 C 55,108.11 60.46,104.36 59.26,99.96 C 58.85,96.49 55.31,94.96 52.6,93.5 C 44.47,89.3 34.45,89.24 26.27,93.34 C 23.27,94.88 19.42,96.73 19.35,100.63 C 18.67,104.94 24.21,108.16 27.76,105.98 C 29.01,104.88 29.95,103.5 30.99,102.22 C 32.11,104.28 32.86,106.78 34.92,108.12 Z" marker-start="none" marker-end="none"/>
  </g>
  <g id="Group_3" fill-rule="nonzero" stroke-linejoin="round" stroke-linecap="round" stroke="none" stroke-width="0.317" fill="#000000">
   <g id="Group_4">
    <path d="M 13.162,10.673 L 14.075,7.984 L 15.255,7.984 L 12.337,16.536 L 11.018,16.536 L 8.1,7.984 L 9.242,7.984 L 10.13,10.673 L 13.162,10.673 Z M 10.358,11.536 L 11.195,14.011 C 11.283,14.273 11.361,14.534 11.43,14.796 C 11.499,15.057 11.564,15.312 11.627,15.561 L 11.652,15.561 C 11.714,15.314 11.78,15.061 11.85,14.804 C 11.92,14.546 12.002,14.278 12.096,13.999 L 12.946,11.536 L 10.358,11.536 Z" marker-start="none" marker-end="none"/>
    <path d="M 24.277,7.984 L 25.369,7.984 L 24.836,16.536 L 23.427,16.536 L 21.905,12.401 C 21.715,11.863 21.544,11.355 21.391,10.879 C 21.239,10.403 21.106,9.95 20.992,9.52 L 20.966,9.52 C 20.853,9.963 20.725,10.422 20.583,10.898 C 20.44,11.374 20.281,11.875 20.104,12.401 L 18.645,16.536 L 17.237,16.536 L 16.64,7.984 L 17.693,7.984 L 17.922,11.652 C 17.947,12.086 17.971,12.526 17.993,12.971 C 18.014,13.416 18.033,13.848 18.05,14.267 C 18.066,14.686 18.078,15.075 18.087,15.433 L 18.112,15.433 C 18.233,14.927 18.375,14.398 18.539,13.847 C 18.702,13.296 18.886,12.717 19.089,12.109 L 20.484,8.035 L 21.322,8.035 L 22.831,12.185 C 23.046,12.775 23.241,13.34 23.418,13.881 C 23.594,14.421 23.758,14.939 23.91,15.433 L 23.935,15.433 C 23.935,15.078 23.943,14.692 23.957,14.273 C 23.971,13.855 23.989,13.428 24.01,12.994 C 24.031,12.56 24.053,12.142 24.074,11.741 L 24.277,7.984 Z" marker-start="none" marker-end="none"/>
    <path d="M 28.977,7.984 L 30.091,7.984 L 30.091,15.598 L 32.705,15.598 L 32.705,16.536 L 26.376,16.536 L 26.376,15.598 L 28.977,15.598 L 28.977,7.984 Z" marker-start="none" marker-end="none"/>
    <path d="M 34.052,7.984 L 38.821,7.984 L 38.821,8.91 L 35.167,8.91 L 35.167,16.536 L 34.052,16.536 L 34.052,7.984 Z" marker-start="none" marker-end="none"/>
    <path d="M 40.45,16.536 L 40.45,7.984 L 41.565,7.984 L 41.565,16.536 L 40.45,16.536 Z" marker-start="none" marker-end="none"/>
    <path d="M 49.646,9.138 C 49.419,9.029 49.147,8.943 48.829,8.88 C 48.512,8.816 48.18,8.784 47.832,8.783 C 47.141,8.786 46.551,8.927 46.064,9.206 C 45.577,9.485 45.205,9.881 44.948,10.394 C 44.691,10.907 44.561,11.516 44.559,12.222 C 44.563,12.973 44.703,13.61 44.978,14.135 C 45.254,14.659 45.641,15.059 46.139,15.334 C 46.638,15.609 47.223,15.747 47.895,15.749 C 48.252,15.747 48.576,15.714 48.866,15.648 C 49.156,15.582 49.404,15.498 49.608,15.394 L 49.887,16.291 C 49.79,16.345 49.649,16.401 49.465,16.46 C 49.282,16.519 49.055,16.569 48.787,16.61 C 48.518,16.652 48.208,16.673 47.857,16.675 C 47.192,16.673 46.586,16.565 46.041,16.352 C 45.496,16.138 45.025,15.834 44.63,15.438 C 44.235,15.043 43.931,14.57 43.716,14.02 C 43.502,13.471 43.394,12.859 43.391,12.184 C 43.395,11.479 43.501,10.857 43.711,10.317 C 43.92,9.778 44.215,9.325 44.594,8.958 C 44.973,8.591 45.418,8.314 45.929,8.127 C 46.44,7.939 46.998,7.846 47.604,7.845 C 48.128,7.849 48.586,7.891 48.975,7.972 C 49.365,8.052 49.661,8.145 49.862,8.25 L 49.646,9.138 Z" marker-start="none" marker-end="none"/>
    <path d="M 51.655,16.536 L 51.655,7.984 L 52.77,7.984 L 52.77,11.992 L 56.908,11.992 L 56.908,7.984 L 58.023,7.984 L 58.023,16.536 L 56.908,16.536 L 56.908,12.955 L 52.77,12.955 L 52.77,16.536 L 51.655,16.536 Z" marker-start="none" marker-end="none"/>
    <path d="M 64.759,12.906 L 61.448,12.906 L 61.448,15.61 L 64.962,15.61 L 64.962,16.536 L 60.333,16.536 L 60.333,7.984 L 65.152,7.984 L 65.152,8.91 L 61.448,8.91 L 61.448,11.992 L 64.759,11.992 L 64.759,12.906 Z" marker-start="none" marker-end="none"/>
    <path d="M 66.569,8.403 C 66.724,8.3 66.919,8.207 67.154,8.123 C 67.388,8.039 67.643,7.972 67.919,7.922 C 68.195,7.872 68.471,7.846 68.75,7.845 C 69.254,7.848 69.693,7.914 70.067,8.046 C 70.44,8.177 70.75,8.357 70.996,8.587 C 71.243,8.816 71.426,9.079 71.548,9.375 C 71.669,9.672 71.73,9.986 71.73,10.319 C 71.73,10.735 71.65,11.097 71.489,11.404 C 71.329,11.712 71.088,11.98 70.767,12.211 C 70.446,12.441 70.044,12.647 69.562,12.831 C 69.169,12.98 68.848,13.131 68.596,13.284 C 68.345,13.437 68.16,13.608 68.04,13.799 C 67.92,13.99 67.86,14.217 67.861,14.48 C 67.86,14.68 67.912,14.877 68.02,15.072 C 68.127,15.267 68.299,15.429 68.536,15.559 C 68.773,15.689 69.086,15.757 69.473,15.762 C 69.732,15.76 69.966,15.737 70.176,15.693 C 70.385,15.649 70.567,15.596 70.72,15.534 C 70.873,15.472 70.995,15.413 71.084,15.356 L 71.388,16.254 C 71.203,16.367 70.952,16.464 70.635,16.546 C 70.319,16.628 69.944,16.671 69.511,16.675 C 68.954,16.671 68.468,16.569 68.055,16.369 C 67.643,16.169 67.322,15.895 67.094,15.547 C 66.866,15.2 66.75,14.802 66.747,14.353 C 66.749,13.957 66.84,13.608 67.022,13.305 C 67.203,13.001 67.462,12.736 67.798,12.509 C 68.134,12.282 68.536,12.085 69.003,11.917 C 69.387,11.775 69.697,11.624 69.935,11.463 C 70.172,11.302 70.345,11.121 70.454,10.921 C 70.563,10.721 70.617,10.49 70.615,10.23 C 70.614,9.94 70.543,9.686 70.402,9.468 C 70.262,9.25 70.058,9.08 69.792,8.957 C 69.526,8.835 69.203,8.773 68.826,8.771 C 68.442,8.774 68.081,8.827 67.743,8.931 C 67.405,9.034 67.111,9.167 66.861,9.329 L 66.569,8.403 Z" marker-start="none" marker-end="none"/>
    <path d="M 76.759,7.984 L 77.862,7.984 L 77.862,11.412 C 77.989,11.381 78.128,11.361 78.278,11.35 C 78.427,11.34 78.585,11.335 78.751,11.336 C 79.295,11.336 79.791,11.415 80.24,11.572 C 80.688,11.73 81.064,11.964 81.366,12.275 C 81.582,12.497 81.745,12.759 81.857,13.064 C 81.968,13.368 82.024,13.713 82.025,14.1 C 82.022,14.481 81.954,14.824 81.822,15.126 C 81.689,15.429 81.508,15.682 81.277,15.887 C 81.024,16.116 80.697,16.292 80.297,16.414 C 79.897,16.535 79.424,16.596 78.878,16.597 C 78.434,16.596 78.036,16.58 77.685,16.548 C 77.333,16.517 77.025,16.478 76.759,16.433 L 76.759,7.984 Z M 77.862,15.633 C 77.958,15.659 78.096,15.68 78.273,15.697 C 78.451,15.713 78.661,15.721 78.903,15.722 C 79.308,15.722 79.661,15.661 79.963,15.538 C 80.264,15.416 80.499,15.23 80.667,14.98 C 80.835,14.731 80.92,14.416 80.922,14.036 C 80.921,13.651 80.834,13.324 80.662,13.054 C 80.491,12.785 80.245,12.579 79.925,12.438 C 79.605,12.296 79.223,12.225 78.776,12.224 C 78.592,12.224 78.424,12.231 78.271,12.245 C 78.119,12.259 77.982,12.281 77.862,12.313 L 77.862,15.633 Z" marker-start="none" marker-end="none"/>
    <path d="M 83.907,16.536 L 83.907,11.499 C 83.909,10.835 83.987,10.27 84.14,9.804 C 84.294,9.338 84.509,8.961 84.785,8.673 C 85.062,8.384 85.386,8.174 85.758,8.041 C 86.131,7.909 86.537,7.843 86.977,7.845 C 87.443,7.844 87.873,7.913 88.265,8.052 C 88.658,8.192 89,8.41 89.291,8.706 C 89.581,9.002 89.807,9.384 89.968,9.852 C 90.129,10.32 90.211,10.882 90.213,11.537 L 90.213,16.536 L 89.098,16.536 L 89.098,11.461 C 89.096,10.836 89.009,10.323 88.838,9.922 C 88.667,9.521 88.425,9.225 88.114,9.032 C 87.803,8.84 87.437,8.745 87.016,8.746 C 86.631,8.744 86.289,8.838 85.991,9.027 C 85.692,9.216 85.457,9.511 85.285,9.911 C 85.113,10.312 85.025,10.828 85.022,11.461 L 85.022,16.536 L 83.907,16.536 Z" marker-start="none" marker-end="none"/>
    <path d="M 92.535,8.009 C 92.72,7.982 92.956,7.959 93.243,7.939 C 93.531,7.919 93.866,7.908 94.247,7.907 C 94.944,7.906 95.536,7.971 96.024,8.102 C 96.512,8.233 96.901,8.435 97.192,8.707 C 97.417,8.91 97.595,9.154 97.726,9.44 C 97.858,9.725 97.925,10.052 97.928,10.42 C 97.925,10.737 97.871,11.017 97.766,11.261 C 97.662,11.506 97.523,11.715 97.35,11.89 C 97.178,12.065 96.988,12.207 96.782,12.316 C 96.576,12.425 96.37,12.504 96.164,12.551 L 96.164,12.589 C 96.462,12.696 96.719,12.843 96.934,13.031 C 97.15,13.217 97.317,13.433 97.434,13.678 C 97.551,13.923 97.61,14.186 97.612,14.467 C 97.609,14.804 97.544,15.098 97.416,15.351 C 97.289,15.604 97.113,15.812 96.888,15.977 C 96.632,16.192 96.316,16.349 95.939,16.449 C 95.562,16.549 95.1,16.599 94.552,16.598 C 94.296,16.598 94.045,16.59 93.797,16.574 C 93.55,16.558 93.319,16.536 93.103,16.508 C 92.887,16.479 92.698,16.446 92.535,16.408 L 92.535,8.009 Z M 93.638,15.673 C 93.725,15.693 93.846,15.711 94.003,15.726 C 94.159,15.741 94.363,15.749 94.615,15.749 C 94.99,15.751 95.317,15.703 95.596,15.607 C 95.875,15.512 96.092,15.361 96.246,15.155 C 96.401,14.949 96.48,14.682 96.482,14.353 C 96.48,14.075 96.407,13.828 96.261,13.611 C 96.116,13.394 95.906,13.223 95.632,13.097 C 95.358,12.972 95.027,12.908 94.641,12.906 L 93.638,12.906 L 93.638,15.673 Z M 93.638,12.082 L 94.552,12.082 C 94.959,12.083 95.328,12.026 95.66,11.911 C 95.993,11.796 96.258,11.617 96.456,11.373 C 96.654,11.13 96.756,10.816 96.76,10.433 C 96.758,10.123 96.697,9.861 96.578,9.648 C 96.459,9.435 96.296,9.264 96.091,9.135 C 95.885,9.006 95.652,8.913 95.39,8.855 C 95.128,8.798 94.853,8.769 94.564,8.77 C 94.368,8.77 94.193,8.774 94.039,8.781 C 93.886,8.789 93.752,8.802 93.638,8.821 L 93.638,12.082 Z" marker-start="none" marker-end="none"/>
    <path d="M 99.807,7.984 L 104.576,7.984 L 104.576,8.91 L 100.922,8.91 L 100.922,16.536 L 99.807,16.536 L 99.807,7.984 Z" marker-start="none" marker-end="none"/>
    <path d="M 106.205,16.536 L 106.205,7.984 L 107.32,7.984 L 107.32,16.536 L 106.205,16.536 Z" marker-start="none" marker-end="none"/>
    <path d="M 109.654,7.984 L 110.757,7.984 L 110.757,11.245 L 111.581,12.184 L 114.385,7.984 L 115.692,7.984 L 112.355,12.907 L 115.451,16.536 L 114.081,16.536 L 111.467,13.326 C 111.359,13.186 111.249,13.04 111.136,12.888 C 111.023,12.736 110.909,12.577 110.795,12.412 L 110.757,12.412 L 110.757,16.536 L 109.654,16.536 L 109.654,7.984 Z" marker-start="none" marker-end="none"/>
    <path d="M 121.48,10.673 L 122.393,7.984 L 123.573,7.984 L 120.655,16.536 L 119.336,16.536 L 116.418,7.984 L 117.56,7.984 L 118.448,10.673 L 121.48,10.673 Z M 118.676,11.536 L 119.513,14.011 C 119.601,14.273 119.679,14.534 119.748,14.796 C 119.817,15.057 119.882,15.312 119.945,15.561 L 119.97,15.561 C 120.032,15.314 120.098,15.061 120.168,14.804 C 120.238,14.546 120.32,14.278 120.414,13.999 L 121.264,11.536 L 118.676,11.536 Z" marker-start="none" marker-end="none"/>
    <path d="M 125.885,7.984 L 126.999,7.984 L 126.999,15.598 L 129.613,15.598 L 129.613,16.536 L 123.284,16.536 L 123.284,15.598 L 125.885,15.598 L 125.885,7.984 Z" marker-start="none" marker-end="none"/>
    <path d="M 130.96,16.536 L 130.96,7.984 L 132.075,7.984 L 132.075,16.536 L 130.96,16.536 Z" marker-start="none" marker-end="none"/>
    <path d="M 137.861,16.688 C 137.287,16.685 136.76,16.579 136.279,16.368 C 135.797,16.156 135.38,15.854 135.025,15.46 C 134.67,15.066 134.394,14.594 134.199,14.044 C 134.003,13.493 133.904,12.877 133.901,12.197 C 133.904,11.547 133.998,10.956 134.183,10.425 C 134.368,9.893 134.631,9.435 134.972,9.05 C 135.313,8.666 135.718,8.369 136.187,8.161 C 136.657,7.953 137.176,7.848 137.747,7.845 C 138.296,7.846 138.81,7.943 139.288,8.136 C 139.767,8.33 140.188,8.618 140.551,8.998 C 140.915,9.378 141.2,9.849 141.405,10.409 C 141.611,10.969 141.715,11.616 141.719,12.349 C 141.717,12.989 141.626,13.573 141.446,14.102 C 141.266,14.631 141.008,15.089 140.671,15.474 C 140.333,15.86 139.928,16.158 139.454,16.368 C 138.981,16.578 138.45,16.685 137.861,16.688 Z M 137.823,15.787 C 138.283,15.782 138.684,15.681 139.026,15.482 C 139.368,15.284 139.652,15.018 139.877,14.685 C 140.103,14.351 140.272,13.978 140.384,13.566 C 140.496,13.153 140.552,12.731 140.552,12.298 C 140.551,11.809 140.49,11.351 140.37,10.924 C 140.249,10.497 140.072,10.12 139.838,9.794 C 139.604,9.468 139.317,9.212 138.978,9.028 C 138.638,8.843 138.249,8.749 137.81,8.746 C 137.372,8.75 136.983,8.844 136.643,9.03 C 136.303,9.216 136.017,9.471 135.783,9.794 C 135.549,10.117 135.372,10.487 135.251,10.903 C 135.13,11.318 135.069,11.758 135.069,12.222 C 135.069,12.692 135.126,13.14 135.24,13.566 C 135.355,13.991 135.526,14.371 135.756,14.704 C 135.985,15.037 136.272,15.3 136.616,15.492 C 136.961,15.685 137.363,15.783 137.823,15.787 Z" marker-start="none" marker-end="none"/>
    <path d="M 144.599,7.984 L 144.599,11.638 C 144.599,12.11 144.597,12.545 144.593,12.945 C 144.589,13.346 144.582,13.727 144.571,14.089 C 144.56,14.451 144.544,14.81 144.523,15.167 L 144.561,15.18 C 144.773,14.715 145.015,14.242 145.287,13.761 C 145.56,13.281 145.846,12.802 146.147,12.324 L 148.863,7.984 L 149.979,7.984 L 149.979,16.536 L 148.939,16.536 L 148.939,12.959 C 148.938,12.517 148.942,12.1 148.949,11.708 C 148.956,11.317 148.969,10.936 148.987,10.566 C 149.006,10.195 149.032,9.821 149.066,9.443 L 149.027,9.43 C 148.831,9.867 148.606,10.314 148.352,10.772 C 148.098,11.231 147.816,11.71 147.505,12.209 L 144.776,16.536 L 143.558,16.536 L 143.558,7.984 L 144.599,7.984 Z" marker-start="none" marker-end="none"/>
    <path d="M 151.889,8.403 C 152.044,8.3 152.239,8.207 152.474,8.123 C 152.708,8.039 152.963,7.972 153.239,7.922 C 153.515,7.872 153.791,7.846 154.07,7.845 C 154.574,7.848 155.013,7.914 155.387,8.046 C 155.76,8.177 156.07,8.357 156.316,8.587 C 156.563,8.816 156.746,9.079 156.868,9.375 C 156.989,9.672 157.05,9.986 157.05,10.319 C 157.05,10.735 156.97,11.097 156.809,11.404 C 156.649,11.712 156.408,11.98 156.087,12.211 C 155.766,12.441 155.364,12.647 154.882,12.831 C 154.489,12.98 154.168,13.131 153.916,13.284 C 153.665,13.437 153.48,13.608 153.36,13.799 C 153.24,13.99 153.18,14.217 153.181,14.48 C 153.18,14.68 153.232,14.877 153.34,15.072 C 153.447,15.267 153.619,15.429 153.856,15.559 C 154.093,15.689 154.406,15.757 154.793,15.762 C 155.052,15.76 155.286,15.737 155.496,15.693 C 155.705,15.649 155.887,15.596 156.04,15.534 C 156.193,15.472 156.315,15.413 156.404,15.356 L 156.708,16.254 C 156.523,16.367 156.272,16.464 155.955,16.546 C 155.639,16.628 155.264,16.671 154.831,16.675 C 154.274,16.671 153.788,16.569 153.375,16.369 C 152.963,16.169 152.642,15.895 152.414,15.547 C 152.186,15.2 152.07,14.802 152.067,14.353 C 152.069,13.957 152.16,13.608 152.342,13.305 C 152.523,13.001 152.782,12.736 153.118,12.509 C 153.454,12.282 153.856,12.085 154.323,11.917 C 154.707,11.775 155.017,11.624 155.255,11.463 C 155.492,11.302 155.665,11.121 155.774,10.921 C 155.883,10.721 155.937,10.49 155.935,10.23 C 155.934,9.94 155.863,9.686 155.722,9.468 C 155.582,9.25 155.378,9.08 155.112,8.957 C 154.846,8.835 154.523,8.773 154.146,8.771 C 153.762,8.774 153.401,8.827 153.063,8.931 C 152.725,9.034 152.431,9.167 152.181,9.329 L 151.889,8.403 Z" marker-start="none" marker-end="none"/>
    <path d="M 162.434,16.688 C 161.86,16.685 161.333,16.579 160.852,16.368 C 160.37,16.156 159.953,15.854 159.598,15.46 C 159.243,15.066 158.967,14.594 158.772,14.044 C 158.576,13.493 158.477,12.877 158.474,12.197 C 158.477,11.547 158.571,10.956 158.756,10.425 C 158.941,9.893 159.204,9.435 159.545,9.05 C 159.886,8.666 160.291,8.369 160.76,8.161 C 161.23,7.953 161.749,7.848 162.32,7.845 C 162.869,7.846 163.383,7.943 163.861,8.136 C 164.34,8.33 164.761,8.618 165.124,8.998 C 165.488,9.378 165.773,9.849 165.978,10.409 C 166.184,10.969 166.288,11.616 166.292,12.349 C 166.29,12.989 166.199,13.573 166.019,14.102 C 165.839,14.631 165.581,15.089 165.244,15.474 C 164.906,15.86 164.501,16.158 164.027,16.368 C 163.554,16.578 163.023,16.685 162.434,16.688 Z M 162.396,15.787 C 162.856,15.782 163.257,15.681 163.599,15.482 C 163.941,15.284 164.225,15.018 164.45,14.685 C 164.676,14.351 164.845,13.978 164.957,13.566 C 165.069,13.153 165.125,12.731 165.125,12.298 C 165.124,11.809 165.063,11.351 164.943,10.924 C 164.822,10.497 164.645,10.12 164.411,9.794 C 164.177,9.468 163.89,9.212 163.551,9.028 C 163.211,8.843 162.822,8.749 162.383,8.746 C 161.945,8.75 161.556,8.844 161.216,9.03 C 160.876,9.216 160.59,9.471 160.356,9.794 C 160.122,10.117 159.945,10.487 159.824,10.903 C 159.703,11.318 159.642,11.758 159.642,12.222 C 159.642,12.692 159.699,13.14 159.813,13.566 C 159.928,13.991 160.099,14.371 160.329,14.704 C 160.558,15.037 160.845,15.3 161.189,15.492 C 161.534,15.685 161.936,15.783 162.396,15.787 Z" marker-start="none" marker-end="none"/>
    <path d="M 168.131,7.984 L 169.234,7.984 L 169.234,11.689 L 170.275,11.689 C 170.608,11.678 170.887,11.616 171.112,11.503 C 171.338,11.39 171.522,11.213 171.665,10.974 C 171.807,10.734 171.92,10.418 172.002,10.027 C 172.117,9.491 172.221,9.049 172.315,8.701 C 172.409,8.353 172.491,8.114 172.56,7.984 L 173.701,7.984 C 173.614,8.152 173.516,8.435 173.409,8.834 C 173.303,9.233 173.18,9.732 173.042,10.331 C 172.942,10.777 172.79,11.147 172.587,11.441 C 172.384,11.735 172.122,11.94 171.799,12.056 L 171.799,12.094 C 172.098,12.196 172.368,12.346 172.608,12.543 C 172.848,12.741 173.039,12.984 173.18,13.272 C 173.321,13.56 173.393,13.89 173.397,14.263 C 173.395,14.601 173.335,14.91 173.218,15.19 C 173.1,15.47 172.936,15.707 172.725,15.899 C 172.469,16.134 172.138,16.309 171.735,16.424 C 171.332,16.54 170.837,16.598 170.25,16.597 C 169.998,16.597 169.745,16.589 169.491,16.574 C 169.238,16.559 168.994,16.538 168.762,16.511 C 168.529,16.484 168.319,16.454 168.131,16.42 L 168.131,7.984 Z M 169.234,15.645 C 169.329,15.671 169.469,15.692 169.651,15.709 C 169.834,15.725 170.059,15.734 170.326,15.734 C 170.718,15.735 171.061,15.68 171.356,15.568 C 171.65,15.457 171.879,15.284 172.044,15.05 C 172.208,14.816 172.292,14.516 172.294,14.149 C 172.292,13.821 172.213,13.536 172.056,13.293 C 171.9,13.051 171.677,12.863 171.389,12.729 C 171.101,12.595 170.76,12.527 170.364,12.525 L 169.234,12.525 L 169.234,15.645 Z" marker-start="none" marker-end="none"/>
    <path d="M 181.927,12.475 L 179.111,12.475 L 179.111,11.587 L 180.837,11.587 L 180.837,9.036 C 180.71,8.971 180.523,8.917 180.277,8.874 C 180.031,8.831 179.727,8.809 179.365,8.808 C 178.692,8.81 178.11,8.948 177.617,9.22 C 177.125,9.493 176.743,9.886 176.474,10.4 C 176.204,10.914 176.067,11.533 176.064,12.259 C 176.068,12.977 176.211,13.592 176.493,14.105 C 176.775,14.617 177.173,15.011 177.687,15.285 C 178.201,15.559 178.806,15.697 179.504,15.7 C 179.932,15.698 180.298,15.664 180.602,15.597 C 180.906,15.53 181.171,15.442 181.395,15.332 L 181.674,16.229 C 181.55,16.291 181.384,16.352 181.175,16.412 C 180.966,16.473 180.722,16.523 180.444,16.563 C 180.166,16.603 179.861,16.624 179.53,16.626 C 178.811,16.623 178.166,16.512 177.595,16.294 C 177.025,16.076 176.539,15.77 176.137,15.374 C 175.736,14.978 175.429,14.512 175.217,13.975 C 175.005,13.438 174.898,12.85 174.896,12.208 C 174.9,11.537 175.007,10.929 175.217,10.383 C 175.427,9.837 175.718,9.384 176.089,9.024 C 176.508,8.627 176.984,8.339 177.517,8.159 C 178.051,7.98 178.641,7.891 179.288,7.894 C 179.676,7.897 180.038,7.923 180.376,7.974 C 180.714,8.025 181.016,8.086 181.28,8.157 C 181.545,8.229 181.761,8.298 181.927,8.364 L 181.927,12.475 Z" marker-start="none" marker-end="none"/>
    <path d="M 188.423,10.673 L 189.336,7.984 L 190.516,7.984 L 187.598,16.536 L 186.279,16.536 L 183.361,7.984 L 184.503,7.984 L 185.391,10.673 L 188.423,10.673 Z M 185.619,11.536 L 186.456,14.011 C 186.544,14.273 186.622,14.534 186.691,14.796 C 186.76,15.057 186.825,15.312 186.888,15.561 L 186.913,15.561 C 186.975,15.314 187.041,15.061 187.111,14.804 C 187.181,14.546 187.263,14.278 187.357,13.999 L 188.207,11.536 L 185.619,11.536 Z" marker-start="none" marker-end="none"/>
    <path d="M 193.219,7.984 L 193.219,11.638 C 193.219,12.11 193.217,12.545 193.213,12.945 C 193.209,13.346 193.202,13.727 193.191,14.089 C 193.18,14.451 193.164,14.81 193.143,15.167 L 193.181,15.18 C 193.393,14.715 193.635,14.242 193.907,13.761 C 194.18,13.281 194.466,12.802 194.767,12.324 L 197.483,7.984 L 198.599,7.984 L 198.599,16.536 L 197.559,16.536 L 197.559,12.959 C 197.558,12.517 197.562,12.1 197.569,11.708 C 197.576,11.317 197.589,10.936 197.607,10.566 C 197.626,10.195 197.652,9.821 197.686,9.443 L 197.647,9.43 C 197.451,9.867 197.226,10.314 196.972,10.772 C 196.718,11.231 196.436,11.71 196.125,12.209 L 193.396,16.536 L 192.178,16.536 L 192.178,7.984 L 193.219,7.984 Z" marker-start="none" marker-end="none"/>
    <path d="M 204.034,8.009 C 204.312,7.976 204.615,7.952 204.945,7.934 C 205.275,7.916 205.64,7.907 206.038,7.907 C 206.873,7.908 207.612,8.013 208.255,8.223 C 208.898,8.432 209.425,8.737 209.834,9.138 C 210.23,9.533 210.533,10.011 210.745,10.571 C 210.956,11.132 211.063,11.762 211.065,12.462 C 211.063,13.151 210.957,13.748 210.746,14.253 C 210.536,14.759 210.237,15.185 209.847,15.532 C 209.474,15.876 209.001,16.139 208.428,16.322 C 207.855,16.504 207.173,16.596 206.381,16.597 C 205.942,16.597 205.525,16.579 205.131,16.545 C 204.737,16.511 204.371,16.465 204.034,16.407 L 204.034,8.009 Z M 205.137,15.608 C 205.283,15.64 205.464,15.667 205.68,15.689 C 205.895,15.71 206.146,15.721 206.432,15.722 C 207.21,15.719 207.857,15.583 208.372,15.315 C 208.886,15.047 209.27,14.667 209.524,14.175 C 209.778,13.683 209.902,13.099 209.898,12.423 C 209.897,11.652 209.758,10.996 209.481,10.457 C 209.204,9.917 208.795,9.506 208.254,9.223 C 207.713,8.94 207.046,8.797 206.254,8.795 C 206.036,8.795 205.831,8.799 205.638,8.806 C 205.446,8.814 205.279,8.827 205.137,8.846 L 205.137,15.608 Z" marker-start="none" marker-end="none"/>
    <path d="M 217.306,12.906 L 213.995,12.906 L 213.995,15.61 L 217.509,15.61 L 217.509,16.536 L 212.88,16.536 L 212.88,7.984 L 217.699,7.984 L 217.699,8.91 L 213.995,8.91 L 213.995,11.992 L 217.306,11.992 L 217.306,12.906 Z" marker-start="none" marker-end="none"/>
    <path d="M 219.544,7.984 L 220.647,7.984 L 220.647,11.689 L 221.688,11.689 C 222.021,11.678 222.3,11.616 222.525,11.503 C 222.751,11.39 222.935,11.213 223.078,10.974 C 223.22,10.734 223.333,10.418 223.415,10.027 C 223.53,9.491 223.634,9.049 223.728,8.701 C 223.822,8.353 223.904,8.114 223.973,7.984 L 225.114,7.984 C 225.027,8.152 224.929,8.435 224.822,8.834 C 224.716,9.233 224.593,9.732 224.455,10.331 C 224.355,10.777 224.203,11.147 224,11.441 C 223.797,11.735 223.535,11.94 223.212,12.056 L 223.212,12.094 C 223.511,12.196 223.781,12.346 224.021,12.543 C 224.261,12.741 224.452,12.984 224.593,13.272 C 224.734,13.56 224.806,13.89 224.81,14.263 C 224.808,14.601 224.748,14.91 224.631,15.19 C 224.513,15.47 224.349,15.707 224.138,15.899 C 223.882,16.134 223.551,16.309 223.148,16.424 C 222.745,16.54 222.25,16.598 221.663,16.597 C 221.411,16.597 221.158,16.589 220.904,16.574 C 220.651,16.559 220.407,16.538 220.175,16.511 C 219.942,16.484 219.732,16.454 219.544,16.42 L 219.544,7.984 Z M 220.647,15.645 C 220.742,15.671 220.882,15.692 221.064,15.709 C 221.247,15.725 221.472,15.734 221.739,15.734 C 222.131,15.735 222.474,15.68 222.769,15.568 C 223.063,15.457 223.292,15.284 223.457,15.05 C 223.621,14.816 223.705,14.516 223.707,14.149 C 223.705,13.821 223.626,13.536 223.469,13.293 C 223.313,13.051 223.09,12.863 222.802,12.729 C 222.514,12.595 222.173,12.527 221.777,12.525 L 220.647,12.525 L 220.647,15.645 Z" marker-start="none" marker-end="none"/>
   </g>
  </g>
  <g id="Group_5" fill-rule="nonzero" stroke-linejoin="round" stroke-linecap="round" stroke="none" stroke-width="0.317" fill="#000000">
   <g id="Group_6">
    <path d="M 287.196,9.541 C 287.352,9.438 287.547,9.345 287.781,9.261 C 288.016,9.177 288.271,9.11 288.547,9.06 C 288.822,9.01 289.099,8.984 289.377,8.983 C 289.881,8.986 290.32,9.053 290.694,9.184 C 291.068,9.315 291.378,9.496 291.624,9.725 C 291.87,9.954 292.054,10.217 292.175,10.514 C 292.297,10.81 292.358,11.124 292.357,11.457 C 292.357,11.873 292.277,12.235 292.117,12.542 C 291.956,12.85 291.715,13.119 291.394,13.349 C 291.073,13.579 290.671,13.786 290.189,13.969 C 289.797,14.118 289.475,14.269 289.224,14.422 C 288.973,14.575 288.787,14.746 288.667,14.937 C 288.547,15.128 288.488,15.355 288.489,15.618 C 288.487,15.818 288.54,16.015 288.647,16.21 C 288.754,16.405 288.927,16.567 289.164,16.697 C 289.401,16.827 289.713,16.895 290.101,16.9 C 290.359,16.898 290.593,16.875 290.803,16.831 C 291.013,16.787 291.194,16.735 291.348,16.673 C 291.501,16.61 291.622,16.551 291.711,16.494 L 292.015,17.392 C 291.83,17.505 291.58,17.603 291.263,17.684 C 290.946,17.766 290.572,17.809 290.139,17.813 C 289.581,17.809 289.096,17.707 288.683,17.507 C 288.27,17.307 287.95,17.034 287.721,16.686 C 287.493,16.338 287.377,15.94 287.374,15.492 C 287.376,15.095 287.468,14.746 287.649,14.443 C 287.83,14.14 288.089,13.875 288.426,13.648 C 288.762,13.421 289.164,13.223 289.631,13.055 C 290.014,12.913 290.325,12.762 290.562,12.601 C 290.799,12.44 290.972,12.26 291.081,12.059 C 291.19,11.859 291.244,11.628 291.243,11.368 C 291.241,11.078 291.171,10.824 291.03,10.606 C 290.889,10.388 290.686,10.218 290.419,10.095 C 290.153,9.973 289.831,9.911 289.453,9.909 C 289.069,9.912 288.708,9.966 288.37,10.069 C 288.033,10.172 287.739,10.305 287.488,10.467 L 287.196,9.541 Z" marker-start="none" marker-end="none"/>
    <path d="M 295.916,9.122 L 297.031,9.122 L 297.031,16.736 L 299.644,16.736 L 299.644,17.674 L 293.315,17.674 L 293.315,16.736 L 295.916,16.736 L 295.916,9.122 Z" marker-start="none" marker-end="none"/>
    <path d="M 304.466,11.811 L 305.379,9.122 L 306.559,9.122 L 303.642,17.674 L 302.322,17.674 L 299.405,9.122 L 300.546,9.122 L 301.434,11.811 L 304.466,11.811 Z M 301.663,12.674 L 302.5,15.149 C 302.588,15.411 302.666,15.672 302.735,15.934 C 302.803,16.195 302.869,16.45 302.931,16.699 L 302.957,16.699 C 303.019,16.452 303.085,16.2 303.155,15.942 C 303.225,15.684 303.307,15.416 303.4,15.137 L 304.25,12.674 L 301.663,12.674 Z" marker-start="none" marker-end="none"/>
    <path d="M 308.222,9.147 C 308.499,9.115 308.803,9.09 309.133,9.072 C 309.463,9.054 309.827,9.045 310.226,9.045 C 311.061,9.046 311.8,9.152 312.443,9.361 C 313.086,9.57 313.612,9.875 314.022,10.276 C 314.417,10.671 314.721,11.149 314.932,11.709 C 315.144,12.27 315.251,12.9 315.253,13.6 C 315.25,14.289 315.144,14.886 314.934,15.391 C 314.724,15.897 314.424,16.323 314.035,16.67 C 313.662,17.014 313.189,17.277 312.616,17.46 C 312.043,17.642 311.361,17.734 310.569,17.736 C 310.129,17.735 309.713,17.717 309.319,17.683 C 308.924,17.649 308.559,17.603 308.222,17.545 L 308.222,9.147 Z M 309.324,16.746 C 309.47,16.778 309.651,16.805 309.867,16.827 C 310.083,16.848 310.334,16.859 310.619,16.86 C 311.398,16.857 312.044,16.721 312.559,16.453 C 313.074,16.185 313.458,15.805 313.712,15.313 C 313.965,14.821 314.09,14.237 314.085,13.562 C 314.084,12.79 313.945,12.134 313.668,11.595 C 313.391,11.055 312.982,10.644 312.441,10.361 C 311.901,10.078 311.234,9.935 310.441,9.933 C 310.224,9.933 310.018,9.937 309.826,9.944 C 309.633,9.952 309.466,9.965 309.324,9.984 L 309.324,16.746 Z" marker-start="none" marker-end="none"/>
    <path d="M 318.389,9.122 L 319.504,9.122 L 319.504,16.736 L 322.117,16.736 L 322.117,17.674 L 315.788,17.674 L 315.788,16.736 L 318.389,16.736 L 318.389,9.122 Z" marker-start="none" marker-end="none"/>
    <path d="M 330.026,17.826 C 329.452,17.823 328.924,17.717 328.443,17.506 C 327.962,17.295 327.544,16.992 327.189,16.598 C 326.834,16.204 326.559,15.732 326.363,15.182 C 326.168,14.631 326.069,14.015 326.066,13.335 C 326.068,12.685 326.162,12.094 326.347,11.563 C 326.533,11.031 326.796,10.573 327.137,10.188 C 327.478,9.804 327.883,9.507 328.352,9.299 C 328.821,9.091 329.341,8.986 329.911,8.983 C 330.461,8.984 330.974,9.081 331.453,9.275 C 331.931,9.468 332.352,9.756 332.716,10.136 C 333.08,10.516 333.364,10.987 333.57,11.547 C 333.775,12.107 333.88,12.754 333.883,13.487 C 333.882,14.127 333.791,14.712 333.611,15.24 C 333.431,15.769 333.172,16.227 332.835,16.612 C 332.498,16.998 332.092,17.296 331.619,17.506 C 331.145,17.716 330.614,17.823 330.026,17.826 Z M 329.987,16.925 C 330.447,16.92 330.848,16.819 331.19,16.621 C 331.532,16.422 331.816,16.156 332.042,15.823 C 332.268,15.489 332.437,15.116 332.549,14.704 C 332.661,14.292 332.716,13.869 332.716,13.436 C 332.716,12.947 332.655,12.49 332.534,12.062 C 332.413,11.635 332.236,11.258 332.002,10.932 C 331.768,10.606 331.482,10.351 331.142,10.166 C 330.802,9.981 330.413,9.887 329.975,9.884 C 329.536,9.888 329.147,9.982 328.807,10.168 C 328.468,10.354 328.181,10.609 327.947,10.932 C 327.713,11.255 327.536,11.625 327.415,12.041 C 327.294,12.457 327.234,12.896 327.233,13.36 C 327.233,13.83 327.29,14.278 327.405,14.704 C 327.519,15.129 327.691,15.509 327.92,15.842 C 328.149,16.175 328.436,16.438 328.781,16.63 C 329.125,16.823 329.527,16.921 329.987,16.925 Z" marker-start="none" marker-end="none"/>
    <path d="M 335.711,9.122 L 340.479,9.122 L 340.479,10.048 L 336.825,10.048 L 336.825,17.674 L 335.711,17.674 L 335.711,9.122 Z" marker-start="none" marker-end="none"/>
    <path d="M 342.631,9.122 L 343.746,9.122 L 343.746,16.736 L 346.359,16.736 L 346.359,17.674 L 340.03,17.674 L 340.03,16.736 L 342.631,16.736 L 342.631,9.122 Z" marker-start="none" marker-end="none"/>
    <path d="M 352.132,14.044 L 348.821,14.044 L 348.821,16.748 L 352.335,16.748 L 352.335,17.674 L 347.707,17.674 L 347.707,9.122 L 352.526,9.122 L 352.526,10.048 L 348.821,10.048 L 348.821,13.13 L 352.132,13.13 L 352.132,14.044 Z" marker-start="none" marker-end="none"/>
    <path d="M 355.411,9.122 L 355.411,12.776 C 355.412,13.248 355.41,13.683 355.406,14.083 C 355.402,14.484 355.394,14.865 355.383,15.227 C 355.372,15.589 355.356,15.948 355.335,16.305 L 355.373,16.318 C 355.585,15.853 355.827,15.38 356.1,14.9 C 356.372,14.419 356.659,13.94 356.959,13.462 L 359.675,9.122 L 360.791,9.122 L 360.791,17.674 L 359.751,17.674 L 359.751,14.097 C 359.751,13.655 359.754,13.238 359.762,12.847 C 359.769,12.455 359.782,12.074 359.8,11.704 C 359.818,11.334 359.844,10.959 359.878,10.581 L 359.84,10.568 C 359.643,11.005 359.418,11.452 359.164,11.91 C 358.91,12.369 358.628,12.848 358.317,13.347 L 355.589,17.674 L 354.371,17.674 L 354.371,9.122 L 355.411,9.122 Z" marker-start="none" marker-end="none"/>
   </g>
  </g>
 </g>
</svg>
