<?xml version="1.0" standalone="no"?>
<!DOCTYPE svg PUBLIC "-//W3C//DTD SVG 1.1//EN" "http://www.w3.org/Graphics/SVG/1.1/DTD/svg11.dtd">
<!--Generator: Xara Designer (www.xara.com), SVG filter version: 6.6.0.0-->
<svg fill="none" fill-rule="evenodd" stroke="black" stroke-width="0.501" stroke-linejoin="bevel" stroke-miterlimit="10" font-family="Times New Roman" font-size="16" style="font-variant-ligatures:none" xmlns:xlink="http://www.w3.org/1999/xlink" xmlns="http://www.w3.org/2000/svg" version="1.1" overflow="visible" width="79pt" height="37.581pt" viewBox="2.272 -480.615 79 37.581">
 <defs>
	</defs>
 <g id="Backdrop" transform="scale(1 -1)"/>
 <g id="Inserate" transform="scale(1 -1)"/>
 <g id="Grid" transform="scale(1 -1)"/>
 <g id="Content" transform="scale(1 -1)"/>
 <g id="Sponsoren" transform="scale(1 -1)"/>
 <g id="Ebene 1" transform="scale(1 -1)">
  <g id="Group" fill-rule="nonzero" stroke-linejoin="miter" stroke="none">
   <g id="Group_1" stroke-width="0.061">
    <g id="Group_2" fill="#040404">
     <path d="M 2.686,475.914 L 16.088,475.914 L 16.088,467.197 C 16.007,466.871 16.017,466.532 15.947,466.204 C 15.676,464.904 15.031,463.67 14.059,462.758 C 13.202,461.888 12.081,461.29 10.895,461.012 C 10.581,460.928 10.253,460.928 9.938,460.852 L 8.838,460.852 C 8.441,460.936 8.029,460.947 7.64,461.075 C 5.388,461.662 3.523,463.519 2.933,465.771 C 2.776,466.232 2.782,466.724 2.686,467.196 L 2.686,475.914 M 2.99,475.609 C 2.988,472.8 2.992,469.991 2.988,467.181 C 3.098,465.574 3.792,463.98 5.001,462.898 C 4.962,463.156 4.868,463.41 4.894,463.675 C 4.93,463.97 5.036,464.276 5.272,464.473 C 5.394,464.574 5.486,464.707 5.518,464.864 C 5.584,465.202 5.901,465.425 5.941,465.772 C 5.957,466.043 5.945,466.315 5.944,466.587 C 5.756,466.498 5.572,466.398 5.371,466.342 C 5.041,466.252 4.714,466.103 4.364,466.129 C 4.42,466.286 4.477,466.446 4.578,466.581 C 4.941,467.023 5.233,467.54 5.354,468.103 C 5.186,468.029 5.025,467.939 4.86,467.862 C 4.837,467.895 4.793,467.959 4.771,467.991 C 5.02,468.494 5.274,468.992 5.52,469.495 C 5.388,469.464 5.26,469.42 5.13,469.38 C 5.163,469.727 5.417,469.996 5.515,470.323 C 5.602,470.619 5.712,470.907 5.812,471.2 C 5.687,471.154 5.565,471.105 5.439,471.068 C 5.54,471.615 5.824,472.103 6.013,472.621 C 5.929,472.578 5.846,472.529 5.765,472.481 C 5.746,472.508 5.708,472.561 5.69,472.589 C 5.866,472.907 5.994,473.249 6.11,473.593 C 6.021,473.573 5.929,473.555 5.838,473.54 C 5.831,473.78 5.995,473.977 6.034,474.209 C 6.117,474.516 6.086,474.872 6.295,475.134 C 6.341,475.205 6.455,475.171 6.486,475.1 C 6.666,474.756 6.643,474.348 6.784,473.99 C 6.837,473.843 6.921,473.703 6.914,473.541 C 6.825,473.545 6.736,473.603 6.647,473.576 C 6.756,473.235 6.889,472.904 7.06,472.59 C 7.042,472.563 7.003,472.508 6.984,472.481 C 6.903,472.529 6.822,472.578 6.738,472.62 C 6.923,472.102 7.212,471.616 7.31,471.068 C 7.185,471.105 7.063,471.153 6.939,471.199 C 7.036,470.91 7.146,470.626 7.233,470.335 C 7.328,470.001 7.588,469.728 7.621,469.375 C 7.493,469.417 7.365,469.464 7.234,469.496 C 7.47,468.985 7.74,468.491 7.98,467.981 C 8.104,468.196 8.274,468.389 8.327,468.638 C 8.182,468.589 8.04,468.533 7.887,468.518 C 7.958,468.701 8.043,468.878 8.137,469.05 C 8.294,469.328 8.375,469.639 8.479,469.939 C 8.354,469.876 8.225,469.823 8.083,469.83 C 8.224,470.322 8.586,470.726 8.672,471.238 C 8.576,471.219 8.48,471.198 8.383,471.182 C 8.456,471.476 8.646,471.723 8.739,472.011 C 8.799,472.189 8.851,472.369 8.906,472.548 C 8.783,472.504 8.662,472.456 8.533,472.43 C 8.62,472.673 8.771,472.886 8.853,473.13 C 8.928,473.346 9.005,473.559 9.076,473.777 C 8.979,473.808 8.882,473.841 8.786,473.874 C 8.891,474.081 9.021,474.283 9.061,474.516 C 9.118,474.758 9.16,475.035 9.344,475.218 C 9.366,475.218 9.409,475.219 9.431,475.219 C 9.619,475.025 9.662,474.743 9.718,474.489 C 9.762,474.266 9.887,474.074 9.991,473.874 C 9.894,473.841 9.796,473.807 9.699,473.775 C 9.837,473.31 10.026,472.866 10.24,472.433 C 10.111,472.457 9.988,472.504 9.865,472.546 C 9.934,472.337 9.991,472.124 10.068,471.917 C 10.168,471.669 10.324,471.444 10.39,471.182 C 10.293,471.198 10.196,471.218 10.101,471.237 C 10.188,470.726 10.55,470.321 10.691,469.83 C 10.549,469.824 10.42,469.876 10.296,469.938 C 10.37,469.711 10.442,469.484 10.532,469.264 C 10.648,469.013 10.792,468.778 10.887,468.518 C 10.735,468.533 10.591,468.588 10.446,468.636 C 10.5,468.388 10.67,468.197 10.794,467.983 C 11.035,468.493 11.303,468.989 11.541,469.499 C 11.41,469.466 11.284,469.419 11.156,469.376 C 11.182,469.727 11.443,469.995 11.538,470.323 C 11.625,470.619 11.736,470.907 11.834,471.2 C 11.711,471.154 11.59,471.106 11.465,471.068 C 11.563,471.617 11.848,472.105 12.039,472.622 C 11.949,472.576 11.861,472.526 11.773,472.476 C 11.726,472.545 11.722,472.614 11.761,472.684 C 11.9,472.98 12.062,473.278 12.113,473.604 C 12.03,473.581 11.946,473.559 11.862,473.538 C 11.849,473.718 11.954,473.873 12.009,474.038 C 12.109,474.344 12.122,474.673 12.231,474.976 C 12.265,475.07 12.323,475.203 12.448,475.168 C 12.678,474.924 12.654,474.567 12.728,474.261 C 12.76,474.009 12.939,473.796 12.938,473.538 C 12.862,473.522 12.712,473.658 12.68,473.559 C 12.778,473.222 12.92,472.899 13.084,472.59 C 13.065,472.563 13.027,472.508 13.007,472.481 C 12.927,472.529 12.845,472.579 12.761,472.621 C 12.95,472.104 13.225,471.615 13.341,471.071 C 13.212,471.106 13.087,471.153 12.962,471.199 C 13.064,470.907 13.171,470.619 13.259,470.323 C 13.356,469.995 13.612,469.725 13.644,469.377 C 13.515,469.418 13.386,469.464 13.254,469.495 C 13.485,469.018 13.728,468.548 13.963,468.072 C 14.013,468 13.957,467.927 13.93,467.858 C 13.757,467.933 13.593,468.029 13.421,468.105 C 13.487,467.724 13.671,467.383 13.854,467.048 C 14.044,466.739 14.333,466.486 14.409,466.115 C 13.856,466.156 13.324,466.348 12.828,466.585 C 12.847,466.169 12.734,465.697 13.014,465.341 C 13.181,465.148 13.238,464.897 13.329,464.666 C 13.476,464.466 13.705,464.323 13.781,464.074 C 13.958,463.693 13.861,463.274 13.765,462.887 C 14.976,463.973 15.677,465.568 15.785,467.181 C 15.782,469.991 15.788,472.8 15.783,475.609 C 11.518,475.611 7.255,475.611 2.99,475.609 M 6.357,474.937 C 6.287,474.604 6.235,474.267 6.139,473.94 C 6.093,473.804 6.241,473.703 6.248,473.571 C 6.246,473.333 6.115,473.118 6.086,472.884 C 6.088,472.735 6.203,472.596 6.153,472.446 C 6.055,472.081 5.818,471.77 5.748,471.394 C 5.862,471.43 5.975,471.464 6.09,471.496 C 6.067,471.222 5.913,470.986 5.845,470.724 C 5.751,470.385 5.624,470.056 5.474,469.738 C 5.606,469.792 5.737,469.852 5.87,469.904 C 5.724,469.307 5.358,468.799 5.135,468.233 C 5.305,468.289 5.475,468.35 5.646,468.4 C 5.491,467.64 5.144,466.928 4.663,466.321 C 5.183,466.471 5.727,466.624 6.153,466.976 C 6.266,467.078 6.444,467.118 6.562,467.002 C 6.989,466.645 7.53,466.474 8.06,466.336 C 7.929,466.554 7.77,466.754 7.639,466.971 C 7.386,467.41 7.213,467.891 7.104,468.384 C 7.276,468.344 7.445,468.29 7.613,468.237 C 7.4,468.804 7.009,469.302 6.899,469.907 C 7.02,469.852 7.137,469.788 7.254,469.725 C 7.034,470.307 6.834,470.896 6.655,471.491 C 6.771,471.46 6.888,471.424 7.004,471.39 C 6.944,471.633 6.849,471.865 6.733,472.087 C 6.648,472.283 6.526,472.504 6.624,472.717 C 6.726,472.953 6.56,473.182 6.517,473.411 C 6.463,473.577 6.573,473.728 6.602,473.887 C 6.582,474.07 6.521,474.244 6.492,474.425 C 6.455,474.597 6.453,474.783 6.357,474.937 M 9.104,473.998 C 9.162,473.956 9.222,473.912 9.28,473.869 C 9.21,473.497 9.041,473.155 8.964,472.785 C 9.03,472.74 9.097,472.696 9.161,472.652 C 9.034,472.271 8.896,471.894 8.763,471.516 C 8.848,471.52 8.933,471.525 9.019,471.528 C 8.934,471.344 8.855,471.157 8.799,470.962 C 8.717,470.675 8.562,470.418 8.451,470.144 C 8.54,470.18 8.63,470.218 8.72,470.255 C 8.744,470.243 8.792,470.218 8.815,470.206 C 8.594,469.791 8.514,469.318 8.292,468.903 C 8.398,468.925 8.504,468.948 8.61,468.969 C 8.554,468.677 8.482,468.381 8.318,468.128 C 8.175,467.909 8.043,467.683 7.955,467.435 C 8.46,467.524 9.013,467.605 9.388,467.992 C 9.769,467.595 10.333,467.525 10.845,467.428 C 10.62,467.944 10.214,468.385 10.157,468.967 C 10.265,468.948 10.373,468.926 10.48,468.905 C 10.259,469.319 10.181,469.791 9.962,470.207 C 9.986,470.221 10.033,470.247 10.056,470.261 C 10.145,470.221 10.234,470.18 10.323,470.143 C 10.095,470.589 9.952,471.07 9.749,471.527 C 9.836,471.525 9.923,471.521 10.01,471.518 C 9.881,471.896 9.736,472.266 9.618,472.647 C 9.686,472.697 9.753,472.748 9.82,472.799 C 9.734,473.126 9.591,473.436 9.52,473.766 C 9.474,473.882 9.599,473.935 9.665,474.002 C 9.587,474.316 9.504,474.63 9.386,474.93 C 9.265,474.628 9.187,474.311 9.104,473.998 M 12.182,473.977 C 12.143,473.799 12.303,473.643 12.265,473.462 C 12.234,473.285 12.153,473.12 12.115,472.945 C 12.065,472.775 12.243,472.622 12.177,472.454 C 12.073,472.087 11.842,471.77 11.77,471.393 C 11.886,471.427 12.002,471.461 12.12,471.491 C 11.941,470.896 11.739,470.307 11.519,469.726 C 11.637,469.789 11.754,469.851 11.875,469.905 C 11.77,469.296 11.368,468.802 11.159,468.232 C 11.328,468.29 11.495,468.352 11.665,468.403 C 11.584,467.959 11.423,467.53 11.222,467.127 C 11.086,466.841 10.868,466.606 10.707,466.335 C 11.128,466.443 11.549,466.574 11.926,466.798 C 12.067,466.886 12.188,467.01 12.344,467.071 C 12.465,467.1 12.569,467.016 12.66,466.95 C 13.067,466.617 13.586,466.466 14.087,466.336 C 13.969,466.528 13.831,466.705 13.709,466.894 C 13.439,467.356 13.24,467.859 13.13,468.383 C 13.306,468.36 13.474,468.296 13.638,468.231 C 13.428,468.802 13.033,469.299 12.924,469.906 C 13.044,469.852 13.161,469.789 13.277,469.727 C 13.05,470.307 12.876,470.906 12.657,471.489 C 12.781,471.461 12.906,471.428 13.03,471.395 C 12.959,471.752 12.748,472.055 12.631,472.396 C 12.556,472.564 12.678,472.726 12.685,472.893 C 12.659,473.106 12.542,473.3 12.527,473.517 C 12.522,473.676 12.657,473.817 12.614,473.978 C 12.552,474.262 12.503,474.55 12.399,474.822 C 12.298,474.548 12.239,474.262 12.182,473.977 M 7.397,468.103 C 7.47,467.711 7.657,467.356 7.853,467.013 C 8.044,466.724 8.306,466.474 8.385,466.124 C 7.83,466.136 7.302,466.356 6.805,466.587 C 6.805,466.315 6.795,466.043 6.808,465.772 C 6.838,465.523 7.01,465.329 7.135,465.122 C 7.25,464.933 7.24,464.701 7.318,464.498 C 7.382,464.361 7.473,464.238 7.541,464.104 C 7.708,464.392 7.762,464.752 8.03,464.974 C 8.154,465.101 8.338,465.155 8.449,465.296 C 8.556,465.508 8.541,465.774 8.715,465.953 C 8.877,466.111 8.971,466.338 8.96,466.565 C 8.96,466.871 8.96,467.177 8.959,467.483 C 8.56,467.404 8.14,467.152 7.736,467.339 C 7.752,467.522 7.824,467.692 7.911,467.853 C 7.739,467.933 7.572,468.028 7.397,468.103 M 10.864,467.853 C 10.948,467.692 11.02,467.522 11.037,467.34 C 10.633,467.151 10.214,467.404 9.815,467.483 C 9.82,467.119 9.803,466.755 9.823,466.392 C 9.853,466.087 10.169,465.929 10.218,465.633 C 10.265,465.484 10.274,465.295 10.42,465.204 C 10.539,465.119 10.674,465.053 10.775,464.945 C 11.02,464.722 11.075,464.38 11.233,464.103 C 11.319,464.279 11.456,464.434 11.497,464.63 C 11.537,464.81 11.555,465.003 11.661,465.159 C 11.795,465.364 11.96,465.573 11.97,465.828 C 11.977,466.081 11.972,466.334 11.968,466.587 C 11.473,466.348 10.944,466.148 10.391,466.115 C 10.462,466.487 10.755,466.739 10.943,467.05 C 11.128,467.383 11.309,467.724 11.378,468.103 C 11.203,468.027 11.036,467.933 10.864,467.853 M 9.111,467.526 C 9.102,467.124 9.118,466.721 9.109,466.319 C 9.111,465.936 8.674,465.725 8.7,465.336 C 8.946,465.368 9.175,465.464 9.393,465.575 C 9.607,465.462 9.833,465.373 10.063,465.3 C 10.123,465.712 9.656,465.927 9.664,466.322 C 9.658,466.714 9.664,467.106 9.665,467.497 C 9.576,467.562 9.504,467.67 9.391,467.693 C 9.294,467.644 9.203,467.584 9.111,467.526 M 6.11,466.601 C 6.064,466.245 6.131,465.883 6.083,465.527 C 5.982,465.255 5.778,465.036 5.684,464.761 C 5.937,464.748 6.171,464.85 6.382,464.978 C 6.586,464.845 6.812,464.732 7.064,464.764 C 6.969,465.03 6.763,465.239 6.674,465.506 C 6.616,465.857 6.687,466.217 6.637,466.57 C 6.624,466.669 6.578,466.76 6.495,466.818 C 6.344,466.981 6.161,466.744 6.11,466.601 M 12.141,466.65 C 12.081,466.278 12.155,465.898 12.108,465.526 C 12.027,465.245 11.788,465.045 11.701,464.766 C 11.956,464.738 12.186,464.856 12.401,464.976 C 12.617,464.865 12.844,464.762 13.093,464.76 C 12.999,465.028 12.79,465.237 12.696,465.506 C 12.643,465.856 12.701,466.215 12.665,466.569 C 12.646,466.697 12.552,466.803 12.446,466.872 C 12.306,466.899 12.205,466.756 12.141,466.65 M 8.09,464.732 C 7.856,464.442 7.771,464.071 7.639,463.729 C 7.275,463.94 7.244,464.499 6.803,464.608 C 6.403,464.775 5.958,464.649 5.59,464.46 C 5.231,464.217 4.969,463.756 5.09,463.318 C 5.166,463.004 5.213,462.635 5.505,462.441 C 6.438,461.749 7.55,461.268 8.713,461.162 C 10.323,460.961 11.98,461.47 13.271,462.437 C 13.539,462.625 13.595,462.969 13.672,463.264 C 13.859,463.842 13.401,464.486 12.827,464.606 C 12.477,464.745 12.079,464.696 11.758,464.51 C 11.548,464.295 11.417,464.015 11.256,463.764 C 11.205,463.768 11.154,463.774 11.103,463.782 C 10.994,464.109 10.905,464.458 10.682,464.729 C 10.363,465.103 9.854,465.219 9.387,465.269 C 8.919,465.221 8.413,465.098 8.09,464.732 Z" marker-start="none" marker-end="none"/>
    </g>
    <g id="Group_3" fill="#0da758">
     <path d="M 6.357,474.937 C 6.453,474.783 6.455,474.597 6.492,474.425 C 6.521,474.244 6.582,474.07 6.602,473.887 C 6.573,473.728 6.463,473.577 6.517,473.411 C 6.56,473.182 6.726,472.953 6.624,472.717 C 6.526,472.504 6.648,472.283 6.733,472.087 C 6.849,471.865 6.944,471.633 7.004,471.39 C 6.888,471.424 6.771,471.46 6.655,471.491 C 6.834,470.896 7.034,470.307 7.254,469.725 C 7.137,469.788 7.02,469.852 6.899,469.907 C 7.009,469.302 7.4,468.804 7.613,468.237 C 7.445,468.29 7.276,468.344 7.104,468.384 C 7.213,467.891 7.386,467.41 7.639,466.971 C 7.77,466.754 7.929,466.554 8.06,466.336 C 7.53,466.474 6.989,466.645 6.562,467.002 C 6.444,467.118 6.266,467.078 6.153,466.976 C 5.727,466.624 5.183,466.471 4.663,466.321 C 5.144,466.928 5.491,467.64 5.646,468.4 C 5.475,468.35 5.305,468.289 5.135,468.233 C 5.358,468.799 5.724,469.307 5.87,469.904 C 5.737,469.852 5.606,469.792 5.474,469.738 C 5.624,470.056 5.751,470.385 5.845,470.724 C 5.913,470.986 6.067,471.222 6.09,471.496 C 5.975,471.464 5.862,471.43 5.748,471.394 C 5.818,471.77 6.055,472.081 6.153,472.446 C 6.203,472.596 6.088,472.735 6.086,472.884 C 6.115,473.118 6.246,473.333 6.248,473.571 C 6.241,473.703 6.093,473.804 6.139,473.94 C 6.235,474.267 6.287,474.604 6.357,474.937 Z" marker-start="none" marker-end="none"/>
     <path d="M 9.104,473.998 C 9.187,474.311 9.265,474.628 9.386,474.93 C 9.504,474.63 9.587,474.316 9.665,474.002 C 9.599,473.935 9.474,473.882 9.52,473.766 C 9.591,473.436 9.734,473.126 9.82,472.799 C 9.753,472.748 9.686,472.697 9.618,472.647 C 9.736,472.266 9.881,471.896 10.01,471.518 C 9.923,471.521 9.836,471.525 9.749,471.527 C 9.952,471.07 10.095,470.589 10.323,470.143 C 10.234,470.18 10.145,470.221 10.056,470.261 C 10.033,470.247 9.986,470.221 9.962,470.207 C 10.181,469.791 10.259,469.319 10.48,468.905 C 10.373,468.926 10.265,468.948 10.157,468.967 C 10.214,468.385 10.62,467.944 10.845,467.428 C 10.333,467.525 9.769,467.595 9.388,467.992 C 9.013,467.605 8.46,467.524 7.955,467.435 C 8.043,467.683 8.175,467.909 8.318,468.128 C 8.482,468.381 8.554,468.677 8.61,468.969 C 8.504,468.948 8.398,468.925 8.292,468.903 C 8.514,469.318 8.594,469.791 8.815,470.206 C 8.792,470.218 8.744,470.243 8.72,470.255 C 8.63,470.218 8.54,470.18 8.451,470.144 C 8.562,470.418 8.717,470.675 8.799,470.962 C 8.855,471.157 8.934,471.344 9.019,471.528 C 8.933,471.525 8.848,471.52 8.763,471.516 C 8.896,471.894 9.034,472.271 9.161,472.652 C 9.097,472.696 9.03,472.74 8.964,472.785 C 9.041,473.155 9.21,473.497 9.28,473.869 C 9.222,473.912 9.162,473.956 9.104,473.998 Z" marker-start="none" marker-end="none"/>
     <path d="M 12.182,473.977 C 12.239,474.262 12.298,474.548 12.399,474.822 C 12.503,474.55 12.552,474.262 12.614,473.978 C 12.657,473.817 12.522,473.676 12.527,473.517 C 12.542,473.3 12.659,473.106 12.685,472.893 C 12.678,472.726 12.556,472.564 12.631,472.396 C 12.748,472.055 12.959,471.752 13.03,471.395 C 12.906,471.428 12.781,471.461 12.657,471.489 C 12.876,470.906 13.05,470.307 13.277,469.727 C 13.161,469.789 13.044,469.852 12.924,469.906 C 13.033,469.299 13.428,468.802 13.638,468.231 C 13.474,468.296 13.306,468.36 13.13,468.383 C 13.24,467.859 13.439,467.356 13.709,466.894 C 13.831,466.705 13.969,466.528 14.087,466.336 C 13.586,466.466 13.067,466.617 12.66,466.95 C 12.569,467.016 12.465,467.1 12.344,467.071 C 12.188,467.01 12.067,466.886 11.926,466.798 C 11.549,466.574 11.128,466.443 10.707,466.335 C 10.868,466.606 11.086,466.841 11.222,467.127 C 11.423,467.53 11.584,467.959 11.665,468.403 C 11.495,468.352 11.328,468.29 11.159,468.232 C 11.368,468.802 11.77,469.296 11.875,469.905 C 11.754,469.851 11.637,469.789 11.519,469.726 C 11.739,470.307 11.941,470.896 12.12,471.491 C 12.002,471.461 11.886,471.427 11.77,471.393 C 11.842,471.77 12.073,472.087 12.177,472.454 C 12.243,472.622 12.065,472.775 12.115,472.945 C 12.153,473.12 12.234,473.285 12.265,473.462 C 12.303,473.643 12.143,473.799 12.182,473.977 Z" marker-start="none" marker-end="none"/>
     <path d="M 8.09,464.732 C 8.413,465.098 8.919,465.221 9.387,465.269 C 9.854,465.219 10.363,465.103 10.682,464.729 C 10.905,464.458 10.994,464.109 11.103,463.782 C 11.154,463.774 11.205,463.768 11.256,463.764 C 11.417,464.015 11.548,464.295 11.758,464.51 C 12.079,464.696 12.477,464.745 12.827,464.606 C 13.401,464.486 13.859,463.842 13.672,463.264 C 13.595,462.969 13.539,462.625 13.271,462.437 C 11.98,461.47 10.323,460.961 8.713,461.162 C 7.55,461.268 6.438,461.749 5.505,462.441 C 5.213,462.635 5.166,463.004 5.09,463.318 C 4.969,463.756 5.231,464.217 5.59,464.46 C 5.958,464.649 6.403,464.775 6.803,464.608 C 7.244,464.499 7.275,463.94 7.639,463.729 C 7.771,464.071 7.856,464.442 8.09,464.732 Z" marker-start="none" marker-end="none"/>
    </g>
    <g id="Group_4" fill="#ee3129">
     <path d="M 9.111,467.526 C 9.203,467.584 9.294,467.644 9.391,467.693 C 9.504,467.67 9.576,467.562 9.665,467.497 C 9.664,467.106 9.658,466.714 9.664,466.322 C 9.656,465.927 10.123,465.712 10.063,465.3 C 9.833,465.373 9.607,465.462 9.393,465.575 C 9.175,465.464 8.946,465.368 8.7,465.336 C 8.674,465.725 9.111,465.936 9.109,466.319 C 9.118,466.721 9.102,467.124 9.111,467.526 Z" marker-start="none" marker-end="none"/>
     <path d="M 6.11,466.601 C 6.161,466.744 6.344,466.981 6.495,466.818 C 6.578,466.76 6.624,466.669 6.637,466.57 C 6.687,466.217 6.616,465.857 6.674,465.506 C 6.763,465.239 6.969,465.03 7.064,464.764 C 6.812,464.732 6.586,464.845 6.382,464.978 C 6.171,464.85 5.937,464.748 5.684,464.761 C 5.778,465.036 5.982,465.255 6.083,465.527 C 6.131,465.883 6.064,466.245 6.11,466.601 Z" marker-start="none" marker-end="none"/>
     <path d="M 12.141,466.65 C 12.205,466.756 12.306,466.899 12.446,466.872 C 12.552,466.803 12.646,466.697 12.665,466.569 C 12.701,466.215 12.643,465.856 12.696,465.506 C 12.79,465.237 12.999,465.028 13.093,464.76 C 12.844,464.762 12.617,464.865 12.401,464.976 C 12.186,464.856 11.956,464.738 11.701,464.766 C 11.788,465.045 12.027,465.245 12.108,465.526 C 12.155,465.898 12.081,466.278 12.141,466.65 Z" marker-start="none" marker-end="none"/>
    </g>
   </g>
   <path d="M 66.262,464.164 L 66.036,466.929 C 65.609,466.86 65.256,466.814 65.005,466.814 C 64.226,466.814 64.101,467.089 64.101,467.728 L 64.101,473.053 L 66.262,473.053 L 66.262,475.84 L 64.101,475.84 L 64.101,479.45 L 60.154,478.947 L 60.154,475.84 L 58.798,475.84 L 58.798,473.053 L 60.154,473.053 L 60.154,467.135 C 60.154,464.325 61.738,463.753 63.397,463.753 C 64.402,463.753 65.508,463.959 66.262,464.164 Z M 54.208,467.82 C 53.605,467.318 53.003,467.021 52.524,467.021 C 51.645,467.021 51.168,467.82 51.168,469.854 C 51.168,472.047 51.72,472.847 52.625,472.847 C 53.103,472.847 53.631,472.549 54.208,472.07 L 54.208,467.82 Z M 58.154,464.027 L 58.154,480.615 L 54.208,480.043 L 54.208,475.085 C 53.303,475.794 52.55,476.137 51.62,476.137 C 49.182,476.137 47.121,474.127 47.121,469.762 C 47.121,465.604 48.83,463.73 51.168,463.73 C 52.148,463.73 53.128,464.05 54.611,465.124 L 54.862,464.027 L 58.154,464.027 Z M 42.746,465.17 L 43.022,464.027 L 46.314,464.027 L 46.314,472.207 C 46.314,474.948 45.133,476.137 41.313,476.137 C 39.529,476.137 37.568,475.68 35.784,474.994 L 36.538,472.618 C 37.92,473.029 39.453,473.372 40.66,473.372 C 42.042,473.372 42.369,472.778 42.369,471.682 L 42.369,471.384 L 41.665,471.384 C 37.343,471.384 35.281,469.899 35.281,467.637 C 35.281,465.261 36.89,463.73 39.027,463.73 C 40.509,463.73 41.54,464.21 42.746,465.17 Z M 42.369,468.894 L 42.369,467.592 C 41.564,466.884 40.961,466.563 40.358,466.563 C 39.705,466.563 39.227,467.089 39.227,467.751 C 39.227,468.437 39.679,468.894 41.615,468.894 L 42.369,468.894 Z M 34.977,464.164 L 34.752,466.929 C 34.324,466.86 33.972,466.814 33.721,466.814 C 32.942,466.814 32.817,467.089 32.817,467.728 L 32.817,473.053 L 34.977,473.053 L 34.977,475.84 L 32.817,475.84 L 32.817,479.45 L 28.871,478.947 L 28.871,475.84 L 27.514,475.84 L 27.514,473.053 L 28.871,473.053 L 28.871,467.135 C 28.871,464.325 30.454,463.753 32.113,463.753 C 33.118,463.753 34.224,463.959 34.977,464.164 Z M 27.463,467.592 C 27.463,469.191 26.709,470.447 24.322,471.316 C 22.863,471.91 22.537,472.161 22.537,472.664 C 22.537,473.121 22.863,473.418 23.543,473.418 C 24.346,473.418 25.151,473.121 26.006,472.778 L 27.086,475.2 C 25.854,475.817 24.623,476.137 23.19,476.137 C 20.376,476.137 18.692,474.629 18.692,472.481 C 18.692,470.859 19.547,469.58 21.657,468.78 C 23.19,468.14 23.441,467.888 23.441,467.409 C 23.441,466.975 23.19,466.609 22.311,466.609 C 21.632,466.609 20.753,466.837 19.722,467.34 L 18.591,464.782 C 19.948,464.097 21.054,463.753 22.813,463.753 C 25.452,463.753 27.463,465.124 27.463,467.592 Z" fill="#d2232a" stroke-width="0.047" marker-start="none" marker-end="none"/>
   <path d="M 81.272,455.486 L 81.272,459.279 L 80.744,459.279 C 79.689,459.279 79.211,458.959 77.829,457.611 L 77.503,458.982 L 74.335,458.982 L 74.335,447.17 L 78.281,447.17 L 78.281,454.664 C 79.036,455.235 79.538,455.486 80.418,455.486 L 81.272,455.486 Z M 69.746,454.436 L 66.579,454.436 C 66.605,455.6 67.057,456.561 68.189,456.561 C 69.345,456.561 69.746,455.738 69.746,454.595 L 69.746,454.436 Z M 73.466,447.878 L 72.763,450.3 C 71.23,449.934 69.671,449.752 68.615,449.752 C 67.209,449.752 66.63,450.391 66.63,451.944 L 73.441,451.944 C 73.542,452.607 73.567,453.362 73.567,453.932 C 73.567,457.748 71.28,459.279 68.464,459.279 C 64.569,459.279 62.685,457.131 62.685,453.018 C 62.685,448.975 63.966,446.896 68.088,446.896 C 69.873,446.896 71.581,447.147 73.466,447.878 Z M 58.057,451.122 C 57.454,450.597 56.851,450.3 56.373,450.3 C 55.494,450.3 55.016,451.122 55.016,453.088 C 55.016,455.166 55.57,455.989 56.474,455.989 C 56.951,455.989 57.479,455.692 58.057,455.189 L 58.057,451.122 Z M 62.003,447.923 L 62.003,458.982 L 58.761,458.982 L 58.46,457.885 C 57.278,458.89 56.525,459.279 55.469,459.279 C 53.031,459.279 50.971,457.268 50.971,453.018 C 50.971,448.975 52.679,447.078 55.016,447.078 C 56.022,447.078 56.977,447.421 58.083,448.267 L 58.083,447.398 C 58.083,446.302 57.781,445.661 55.921,445.661 L 52.553,445.661 L 53.106,443.239 C 54.062,443.08 55.217,443.034 56.625,443.034 C 59.012,443.034 62.003,443.743 62.003,447.923 Z M 50.538,458.982 L 46.593,458.982 L 46.593,447.17 L 50.538,447.17 L 50.538,458.982 Z M 50.538,463.666 L 46.593,463.666 L 46.593,460.513 L 50.538,460.513 L 50.538,463.666 Z M 42.109,454.436 L 38.943,454.436 C 38.967,455.6 39.42,456.561 40.551,456.561 C 41.707,456.561 42.109,455.738 42.109,454.595 L 42.109,454.436 Z M 45.828,447.878 L 45.125,450.3 C 43.592,449.934 42.034,449.752 40.978,449.752 C 39.571,449.752 38.993,450.391 38.993,451.944 L 45.804,451.944 C 45.904,452.607 45.929,453.362 45.929,453.932 C 45.929,457.748 43.642,459.279 40.827,459.279 C 36.932,459.279 35.047,457.131 35.047,453.018 C 35.047,448.975 36.328,446.896 40.45,446.896 C 42.235,446.896 43.943,447.147 45.828,447.878 Z M 34.788,447.17 L 34.788,450.163 L 31.018,450.163 L 34.638,457.131 L 34.638,458.982 L 26.394,458.982 L 26.394,456.012 L 29.887,456.012 L 26.243,449.02 L 26.243,447.17 L 34.788,447.17 Z M 25.479,447.17 L 25.479,455.235 C 25.479,458.068 24.072,459.279 22.061,459.279 C 20.804,459.279 19.824,458.982 18.341,457.885 L 18.065,458.982 L 14.798,458.982 L 14.798,447.17 L 18.744,447.17 L 18.744,455.212 C 19.347,455.715 19.95,455.989 20.428,455.989 C 21.207,455.989 21.534,455.257 21.534,454.298 L 21.534,447.17 L 25.479,447.17 Z M 9.737,448.312 L 10.012,447.17 L 13.306,447.17 L 13.306,455.349 C 13.306,458.091 12.124,459.279 8.304,459.279 C 6.519,459.279 4.559,458.822 2.774,458.137 L 3.529,455.761 C 4.911,456.172 6.444,456.514 7.651,456.514 C 9.033,456.514 9.36,455.92 9.36,454.824 L 9.36,454.527 L 8.655,454.527 C 4.333,454.527 2.272,453.042 2.272,450.779 C 2.272,448.404 3.88,446.872 6.017,446.872 C 7.499,446.872 8.53,447.353 9.737,448.312 Z M 9.36,452.037 L 9.36,450.734 C 8.555,450.026 7.952,449.706 7.349,449.706 C 6.696,449.706 6.218,450.231 6.218,450.894 C 6.218,451.579 6.67,452.037 8.605,452.037 L 9.36,452.037 Z" fill="#231f20" stroke-width="0.047" marker-start="none" marker-end="none"/>
   <path d="M 3.782,443.771 L 2.994,443.771 C 3.109,444.138 3.251,444.528 3.372,444.849 C 3.519,444.489 3.659,444.122 3.782,443.771 Z M 4.156,443.239 C 3.982,443.808 3.77,444.38 3.504,445.018 L 3.279,445.018 C 3.046,444.449 2.812,443.787 2.646,443.239 L 2.843,443.239 C 2.877,443.374 2.916,443.513 2.957,443.642 L 3.824,443.642 C 3.868,443.502 3.912,443.363 3.947,443.239 L 4.156,443.239 Z" fill="#231f20" stroke-width="0.047" marker-start="none" marker-end="none"/>
   <path d="M 6.592,443.239 C 6.576,443.798 6.507,444.451 6.421,445.018 L 6.181,445.018 L 5.545,443.518 L 5.541,443.518 L 4.908,445.018 L 4.662,445.018 C 4.573,444.451 4.517,443.798 4.501,443.239 L 4.697,443.239 C 4.707,443.822 4.744,444.42 4.789,444.818 L 4.792,444.818 L 5.456,443.239 L 5.589,443.239 L 6.25,444.818 L 6.254,444.818 C 6.314,444.46 6.371,443.822 6.386,443.239 L 6.592,443.239 Z" fill="#231f20" stroke-width="0.047" marker-start="none" marker-end="none"/>
   <path d="M 8.234,444.887 L 8.234,445.018 L 6.861,445.018 L 6.861,444.887 L 7.449,444.887 L 7.449,443.239 L 7.643,443.239 L 7.643,444.887 L 8.234,444.887 Z" fill="#231f20" stroke-width="0.047" marker-start="none" marker-end="none"/>
   <path d="M 9.547,443.239 L 9.547,443.371 L 8.781,443.371 L 8.781,445.018 L 8.589,445.018 L 8.589,443.239 L 9.547,443.239 Z" fill="#231f20" stroke-width="0.047" marker-start="none" marker-end="none"/>
   <path d="M 10.097,445.018 L 9.905,445.018 L 9.905,443.239 L 10.097,443.239 L 10.097,445.018 Z" fill="#231f20" stroke-width="0.047" marker-start="none" marker-end="none"/>
   <path d="M 11.904,443.481 L 11.812,443.56 C 11.664,443.418 11.521,443.355 11.338,443.355 C 10.968,443.355 10.765,443.613 10.765,444.141 C 10.765,444.531 10.936,444.905 11.341,444.905 C 11.525,444.905 11.657,444.831 11.762,444.681 L 11.866,444.744 C 11.737,444.965 11.547,445.037 11.335,445.037 C 10.866,445.037 10.56,444.686 10.56,444.101 C 10.56,443.518 10.832,443.22 11.294,443.22 C 11.563,443.22 11.752,443.321 11.904,443.481 Z" fill="#231f20" stroke-width="0.047" marker-start="none" marker-end="none"/>
   <path d="M 13.752,443.239 L 13.752,445.018 L 13.559,445.018 L 13.559,444.254 L 12.489,444.254 L 12.489,445.018 L 12.296,445.018 L 12.296,443.239 L 12.489,443.239 L 12.489,444.114 L 13.559,444.114 L 13.559,443.239 L 13.752,443.239 Z" fill="#231f20" stroke-width="0.047" marker-start="none" marker-end="none"/>
   <path d="M 15.308,443.239 L 15.308,443.371 L 14.515,443.371 L 14.515,444.088 L 15.157,444.088 L 15.157,444.217 L 14.515,444.217 L 14.515,444.887 L 15.295,444.887 L 15.295,445.018 L 14.321,445.018 L 14.321,443.239 L 15.308,443.239 Z" fill="#231f20" stroke-width="0.047" marker-start="none" marker-end="none"/>
   <path d="M 16.909,443.711 C 16.909,444.27 15.881,444.156 15.881,444.618 C 15.881,444.778 16.014,444.911 16.289,444.911 C 16.46,444.911 16.609,444.87 16.719,444.831 L 16.77,444.923 C 16.641,444.992 16.47,445.037 16.283,445.037 C 15.926,445.037 15.679,444.852 15.679,444.594 C 15.679,444.032 16.7,444.151 16.7,443.69 C 16.7,443.476 16.501,443.35 16.198,443.35 C 16.062,443.35 15.865,443.397 15.729,443.466 L 15.663,443.371 C 15.821,443.289 16.011,443.22 16.222,443.22 C 16.625,443.22 16.909,443.418 16.909,443.711 Z" fill="#231f20" stroke-width="0.047" marker-start="none" marker-end="none"/>
   <path d="M 19.406,444.475 C 19.406,444.217 19.225,444.046 18.817,444.046 L 18.621,444.046 L 18.621,444.894 L 18.81,444.894 C 19.244,444.894 19.406,444.736 19.406,444.475 Z M 19.611,444.499 C 19.611,444.805 19.421,445.021 18.849,445.021 C 18.64,445.021 18.545,445.018 18.428,445.018 L 18.428,443.239 L 18.621,443.239 L 18.621,443.916 L 18.745,443.916 C 19.38,443.916 19.611,444.188 19.611,444.499 Z" fill="#231f20" stroke-width="0.047" marker-start="none" marker-end="none"/>
   <path d="M 21.437,443.898 L 21.437,445.018 L 21.244,445.018 L 21.244,443.882 C 21.244,443.476 21.042,443.347 20.722,443.347 C 20.348,443.347 20.181,443.49 20.181,443.892 L 20.181,445.018 L 19.988,445.018 L 19.988,443.866 C 19.988,443.413 20.212,443.22 20.678,443.22 C 21.139,443.22 21.437,443.426 21.437,443.898 Z" fill="#231f20" stroke-width="0.047" marker-start="none" marker-end="none"/>
   <path d="M 23.019,443.751 C 23.019,443.523 22.861,443.363 22.506,443.363 C 22.383,443.363 22.256,443.371 22.189,443.376 L 22.189,444.114 L 22.474,444.114 C 22.861,444.114 23.019,443.972 23.019,443.751 Z M 22.915,444.597 C 22.915,444.422 22.791,444.239 22.433,444.239 L 22.189,444.239 L 22.189,444.894 L 22.491,444.894 C 22.781,444.894 22.915,444.765 22.915,444.597 Z M 23.224,443.771 C 23.224,444.038 22.997,444.183 22.772,444.201 C 22.958,444.264 23.111,444.402 23.111,444.62 C 23.111,444.842 22.943,445.018 22.545,445.018 L 21.999,445.018 L 21.999,443.239 C 22.117,443.239 22.25,443.234 22.437,443.234 C 22.971,443.234 23.224,443.458 23.224,443.771 Z" fill="#231f20" stroke-width="0.047" marker-start="none" marker-end="none"/>
   <path d="M 24.641,443.239 L 24.641,443.371 L 23.876,443.371 L 23.876,445.018 L 23.683,445.018 L 23.683,443.239 L 24.641,443.239 Z" fill="#231f20" stroke-width="0.047" marker-start="none" marker-end="none"/>
   <path d="M 25.192,445.018 L 24.999,445.018 L 24.999,443.239 L 25.192,443.239 L 25.192,445.018 Z" fill="#231f20" stroke-width="0.047" marker-start="none" marker-end="none"/>
   <path d="M 26.971,443.239 L 26.129,444.201 L 26.914,445.018 L 26.673,445.018 L 25.952,444.212 L 25.952,445.018 L 25.759,445.018 L 25.759,443.239 L 25.952,443.239 L 25.952,444.135 L 26.724,443.239 L 26.971,443.239 Z" fill="#231f20" stroke-width="0.047" marker-start="none" marker-end="none"/>
   <path d="M 28.356,443.771 L 27.568,443.771 C 27.682,444.138 27.825,444.528 27.945,444.849 C 28.093,444.489 28.233,444.122 28.356,443.771 Z M 28.73,443.239 C 28.556,443.808 28.344,444.38 28.078,445.018 L 27.853,445.018 C 27.619,444.449 27.385,443.787 27.22,443.239 L 27.417,443.239 C 27.451,443.374 27.49,443.513 27.531,443.642 L 28.398,443.642 C 28.441,443.502 28.486,443.363 28.521,443.239 L 28.73,443.239 Z" fill="#231f20" stroke-width="0.047" marker-start="none" marker-end="none"/>
   <path d="M 30.042,444.887 L 30.042,445.018 L 28.67,445.018 L 28.67,444.887 L 29.258,444.887 L 29.258,443.239 L 29.45,443.239 L 29.45,444.887 L 30.042,444.887 Z" fill="#231f20" stroke-width="0.047" marker-start="none" marker-end="none"/>
   <path d="M 30.59,445.018 L 30.397,445.018 L 30.397,443.239 L 30.59,443.239 L 30.59,445.018 Z" fill="#231f20" stroke-width="0.047" marker-start="none" marker-end="none"/>
   <path d="M 32.475,444.12 C 32.475,443.576 32.235,443.347 31.874,443.347 C 31.467,443.347 31.258,443.597 31.258,444.144 C 31.258,444.681 31.494,444.911 31.859,444.911 C 32.267,444.911 32.475,444.66 32.475,444.12 Z M 32.681,444.159 C 32.681,444.795 32.368,445.037 31.897,445.037 C 31.429,445.037 31.052,444.765 31.052,444.101 C 31.052,443.46 31.368,443.22 31.837,443.22 C 32.304,443.22 32.681,443.492 32.681,444.159 Z" fill="#231f20" stroke-width="0.047" marker-start="none" marker-end="none"/>
   <path d="M 34.579,443.239 L 34.579,445.018 L 34.406,445.018 L 34.406,443.589 L 33.397,445.018 L 33.144,445.018 L 33.144,443.239 L 33.314,443.239 L 33.314,444.799 L 34.408,443.239 L 34.579,443.239 Z" fill="#231f20" stroke-width="0.047" marker-start="none" marker-end="none"/>
   <path d="M 36.247,443.711 C 36.247,444.27 35.218,444.156 35.218,444.618 C 35.218,444.778 35.352,444.911 35.627,444.911 C 35.797,444.911 35.946,444.87 36.057,444.831 L 36.108,444.923 C 35.978,444.992 35.807,445.037 35.62,445.037 C 35.263,445.037 35.016,444.852 35.016,444.594 C 35.016,444.032 36.038,444.151 36.038,443.69 C 36.038,443.476 35.838,443.35 35.535,443.35 C 35.399,443.35 35.203,443.397 35.067,443.466 L 35,443.371 C 35.158,443.289 35.348,443.22 35.56,443.22 C 35.962,443.22 36.247,443.418 36.247,443.711 Z" fill="#231f20" stroke-width="0.047" marker-start="none" marker-end="none"/>
   <path d="M 37.99,444.12 C 37.99,443.576 37.75,443.347 37.389,443.347 C 36.981,443.347 36.772,443.597 36.772,444.144 C 36.772,444.681 37.009,444.911 37.374,444.911 C 37.782,444.911 37.99,444.66 37.99,444.12 Z M 38.196,444.159 C 38.196,444.795 37.883,445.037 37.411,445.037 C 36.943,445.037 36.566,444.765 36.566,444.101 C 36.566,443.46 36.883,443.22 37.351,443.22 C 37.819,443.22 38.196,443.492 38.196,444.159 Z" fill="#231f20" stroke-width="0.047" marker-start="none" marker-end="none"/>
   <path d="M 39.636,444.544 C 39.636,444.314 39.446,444.183 39.132,444.183 L 38.85,444.183 L 38.85,444.897 L 39.091,444.897 C 39.49,444.897 39.636,444.765 39.636,444.544 Z M 39.971,443.239 L 39.234,444.08 C 39.515,444.103 39.837,444.219 39.837,444.573 C 39.837,444.842 39.601,445.021 39.145,445.021 C 38.921,445.021 38.785,445.018 38.658,445.018 L 38.658,443.239 L 38.85,443.239 L 38.85,444.056 L 39.031,444.056 L 39.727,443.239 L 39.971,443.239 Z" fill="#231f20" stroke-width="0.047" marker-start="none" marker-end="none"/>
   <path d="M 41.492,443.418 L 41.492,444.183 L 40.97,444.183 L 40.97,444.056 L 41.302,444.056 L 41.302,443.455 C 41.237,443.407 41.11,443.355 40.932,443.355 C 40.591,443.355 40.369,443.586 40.369,444.145 C 40.369,444.631 40.604,444.905 40.952,444.905 C 41.119,444.905 41.271,444.834 41.382,444.76 L 41.464,444.842 C 41.341,444.942 41.157,445.037 40.932,445.037 C 40.524,445.037 40.164,444.712 40.164,444.114 C 40.164,443.486 40.461,443.22 40.889,443.22 C 41.167,443.22 41.36,443.31 41.492,443.418 Z" fill="#231f20" stroke-width="0.047" marker-start="none" marker-end="none"/>
   <path d="M 42.957,443.771 L 42.169,443.771 C 42.283,444.138 42.426,444.528 42.546,444.849 C 42.695,444.489 42.834,444.122 42.957,443.771 Z M 43.331,443.239 C 43.157,443.808 42.945,444.38 42.679,445.018 L 42.454,445.018 C 42.22,444.449 41.986,443.787 41.822,443.239 L 42.017,443.239 C 42.052,443.374 42.09,443.513 42.132,443.642 L 42.998,443.642 C 43.043,443.502 43.088,443.363 43.121,443.239 L 43.331,443.239 Z" fill="#231f20" stroke-width="0.047" marker-start="none" marker-end="none"/>
   <path d="M 45.128,443.239 L 45.128,445.018 L 44.953,445.018 L 44.953,443.589 L 43.944,445.018 L 43.691,445.018 L 43.691,443.239 L 43.862,443.239 L 43.862,444.799 L 44.957,443.239 L 45.128,443.239 Z" fill="#231f20" stroke-width="0.047" marker-start="none" marker-end="none"/>
   <path d="M 48.048,444.144 C 48.048,443.611 47.808,443.365 47.368,443.365 C 47.292,443.365 47.213,443.368 47.137,443.374 L 47.137,444.89 C 47.204,444.892 47.273,444.892 47.34,444.892 C 47.887,444.892 48.048,444.546 48.048,444.144 Z M 48.254,444.17 C 48.254,444.61 48.026,445.021 47.383,445.021 C 47.219,445.021 47.087,445.018 46.944,445.018 L 46.944,443.239 C 47.033,443.239 47.172,443.236 47.292,443.236 C 47.951,443.236 48.254,443.595 48.254,444.17 Z" fill="#231f20" stroke-width="0.047" marker-start="none" marker-end="none"/>
   <path d="M 49.697,443.239 L 49.697,443.371 L 48.902,443.371 L 48.902,444.088 L 49.544,444.088 L 49.544,444.217 L 48.902,444.217 L 48.902,444.887 L 49.684,444.887 L 49.684,445.018 L 48.709,445.018 L 48.709,443.239 L 49.697,443.239 Z" fill="#231f20" stroke-width="0.047" marker-start="none" marker-end="none"/>
   <path d="M 51.095,444.544 C 51.095,444.314 50.905,444.183 50.592,444.183 L 50.31,444.183 L 50.31,444.897 L 50.551,444.897 C 50.95,444.897 51.095,444.765 51.095,444.544 Z M 51.431,443.239 L 50.693,444.08 C 50.975,444.103 51.298,444.219 51.298,444.573 C 51.298,444.842 51.06,445.021 50.604,445.021 C 50.38,445.021 50.244,445.018 50.118,445.018 L 50.118,443.239 L 50.31,443.239 L 50.31,444.056 L 50.49,444.056 L 51.186,443.239 L 51.431,443.239 Z" fill="#231f20" stroke-width="0.047" marker-start="none" marker-end="none"/>
   <path d="M 63.434,443.711 C 63.434,444.27 62.405,444.156 62.405,444.618 C 62.405,444.778 62.538,444.911 62.814,444.911 C 62.984,444.911 63.133,444.87 63.244,444.831 L 63.295,444.923 C 63.165,444.992 62.994,445.037 62.808,445.037 C 62.45,445.037 62.203,444.852 62.203,444.594 C 62.203,444.032 63.225,444.151 63.225,443.69 C 63.225,443.476 63.026,443.35 62.722,443.35 C 62.586,443.35 62.39,443.397 62.253,443.466 L 62.188,443.371 C 62.346,443.289 62.536,443.22 62.748,443.22 C 63.149,443.22 63.434,443.418 63.434,443.711 Z" fill="#231f20" stroke-width="0.047" marker-start="none" marker-end="none"/>
   <path d="M 65.007,444.887 L 65.007,445.018 L 63.633,445.018 L 63.633,444.887 L 64.222,444.887 L 64.222,443.239 L 64.414,443.239 L 64.414,444.887 L 65.007,444.887 Z" fill="#231f20" stroke-width="0.047" marker-start="none" marker-end="none"/>
   <path d="M 66.092,443.771 L 65.304,443.771 C 65.418,444.138 65.56,444.528 65.68,444.849 C 65.829,444.489 65.968,444.122 66.092,443.771 Z M 66.465,443.239 C 66.291,443.808 66.079,444.38 65.813,445.018 L 65.589,445.018 C 65.355,444.449 65.121,443.787 64.956,443.239 L 65.152,443.239 C 65.187,443.374 65.224,443.513 65.265,443.642 L 66.133,443.642 C 66.177,443.502 66.221,443.363 66.256,443.239 L 66.465,443.239 Z" fill="#231f20" stroke-width="0.047" marker-start="none" marker-end="none"/>
   <path d="M 67.93,444.144 C 67.93,443.611 67.689,443.365 67.25,443.365 C 67.173,443.365 67.094,443.368 67.019,443.374 L 67.019,444.89 C 67.085,444.892 67.155,444.892 67.221,444.892 C 67.768,444.892 67.93,444.546 67.93,444.144 Z M 68.136,444.17 C 68.136,444.61 67.908,445.021 67.265,445.021 C 67.101,445.021 66.968,445.018 66.826,445.018 L 66.826,443.239 C 66.915,443.239 67.053,443.236 67.173,443.236 C 67.831,443.236 68.136,443.595 68.136,444.17 Z" fill="#231f20" stroke-width="0.047" marker-start="none" marker-end="none"/>
   <path d="M 69.661,444.887 L 69.661,445.018 L 68.287,445.018 L 68.287,444.887 L 68.876,444.887 L 68.876,443.239 L 69.069,443.239 L 69.069,444.887 L 69.661,444.887 Z" fill="#231f20" stroke-width="0.047" marker-start="none" marker-end="none"/>
   <path d="M 72.249,444.12 C 72.249,443.576 72.009,443.347 71.648,443.347 C 71.24,443.347 71.03,443.597 71.03,444.144 C 71.03,444.681 71.268,444.911 71.631,444.911 C 72.04,444.911 72.249,444.66 72.249,444.12 Z M 72.454,444.159 C 72.454,444.795 72.141,445.037 71.67,445.037 C 71.201,445.037 70.824,444.765 70.824,444.101 C 70.824,443.46 71.141,443.22 71.609,443.22 C 72.078,443.22 72.454,443.492 72.454,444.159 Z" fill="#231f20" stroke-width="0.047" marker-start="none" marker-end="none"/>
   <path d="M 73.874,443.239 L 73.874,443.371 L 73.109,443.371 L 73.109,445.018 L 72.916,445.018 L 72.916,443.239 L 73.874,443.239 Z" fill="#231f20" stroke-width="0.047" marker-start="none" marker-end="none"/>
   <path d="M 75.178,444.887 L 75.178,445.018 L 73.805,445.018 L 73.805,444.887 L 74.394,444.887 L 74.394,443.239 L 74.587,443.239 L 74.587,444.887 L 75.178,444.887 Z" fill="#231f20" stroke-width="0.047" marker-start="none" marker-end="none"/>
   <path d="M 76.52,443.239 L 76.52,443.371 L 75.725,443.371 L 75.725,444.088 L 76.367,444.088 L 76.367,444.217 L 75.725,444.217 L 75.725,444.887 L 76.507,444.887 L 76.507,445.018 L 75.533,445.018 L 75.533,443.239 L 76.52,443.239 Z" fill="#231f20" stroke-width="0.047" marker-start="none" marker-end="none"/>
   <path d="M 78.376,443.239 L 78.376,445.018 L 78.203,445.018 L 78.203,443.589 L 77.194,445.018 L 76.941,445.018 L 76.941,443.239 L 77.112,443.239 L 77.112,444.799 L 78.207,443.239 L 78.376,443.239 Z" fill="#231f20" stroke-width="0.047" marker-start="none" marker-end="none"/>
  </g>
 </g>
 <g id="Layer 1" transform="scale(1 -1)"/>
</svg>
