<?xml version="1.0" standalone="no"?>
<!DOCTYPE svg PUBLIC "-//W3C//DTD SVG 1.1//EN" "http://www.w3.org/Graphics/SVG/1.1/DTD/svg11.dtd">
<!--Generator: Xara Designer (www.xara.com), SVG filter version: 6.6.0.7-->
<svg fill="none" fill-rule="evenodd" stroke="black" stroke-width="0.501" stroke-linejoin="bevel" stroke-miterlimit="10" font-family="Times New Roman" font-size="16" style="font-variant-ligatures:none" xmlns:xlink="http://www.w3.org/1999/xlink" xmlns="http://www.w3.org/2000/svg" version="1.1" overflow="visible" width="137.561pt" height="47.86pt" viewBox="149.115 -79.053 137.561 47.86">
 <defs>
	</defs>
 <g id="Layer 1" transform="scale(1 -1)">
  <rect x="-68.7805" y="-23.93" width="137.561" height="47.86" rx="0" ry="0" transform="matrix(1 0 0 1 217.895 55.123)" fill="#ffffff" fill-rule="nonzero" stroke-linejoin="miter" stroke="none" stroke-width="0.25"/>
  <path d="M 174.169,63.732 L 178.162,63.732 L 178.162,49.667 L 182.993,49.667 L 182.993,63.732 L 186.985,63.732 L 186.985,67.702 L 174.169,67.702 L 174.169,63.732 Z" fill="#e30613" stroke="none" stroke-width="0.25" fill-rule="nonzero" stroke-linejoin="miter" marker-start="none" marker-end="none"/>
  <path d="M 227.819,53.255 L 227.203,53.255 L 227.203,57.129 L 227.696,57.129 C 229.273,57.129 231.664,57.345 231.664,55.168 C 231.664,53.183 229.249,53.255 227.819,53.255 Z M 227.203,64.114 L 227.548,64.114 C 228.854,64.114 230.357,64.018 230.357,62.368 C 230.357,60.837 229.027,60.622 227.745,60.622 L 227.203,60.622 L 227.203,64.114 Z M 232.748,59.282 L 232.748,59.33 C 234.251,60.072 234.793,61.387 234.793,63.014 C 234.793,66.458 232.575,67.702 229.273,67.702 L 222.373,67.702 L 222.373,49.667 L 229.815,49.667 C 233.216,49.667 236.543,50.911 236.543,54.69 C 236.543,57.202 235.409,58.947 232.748,59.282 Z" fill="#e30613" stroke="none" stroke-width="0.25" fill-rule="nonzero" stroke-linejoin="miter" marker-start="none" marker-end="none"/>
  <path d="M 169.586,60.67 L 168.354,61.029 C 167.516,61.292 166.21,61.699 166.21,62.751 C 166.21,63.756 167.393,64.258 168.28,64.258 C 169.463,64.258 170.597,63.78 171.484,63.062 L 173.406,66.698 C 171.755,67.607 169.463,68.181 167.59,68.181 C 163.869,68.181 161.183,65.789 161.183,62.129 C 161.183,58.637 163.179,57.872 166.21,57.034 C 167.245,56.747 169.142,56.293 169.142,54.977 C 169.142,53.709 167.935,53.159 166.801,53.159 C 165.15,53.159 163.721,53.997 162.513,55.025 L 160.443,51.246 C 162.341,49.954 164.633,49.189 166.974,49.189 C 168.847,49.189 170.794,49.691 172.248,50.887 C 173.726,52.107 174.17,53.949 174.17,55.743 C 174.17,58.661 172.174,59.928 169.586,60.67 Z" fill="#e30613" stroke="none" stroke-width="0.25" fill-rule="nonzero" stroke-linejoin="miter" marker-start="none" marker-end="none"/>
  <path d="M 265.77,59.737 L 265.77,56.053 L 269.713,56.053 C 269.516,53.972 267.914,52.92 265.819,52.92 C 262.64,52.92 260.915,55.766 260.915,58.565 C 260.915,61.316 262.567,64.258 265.745,64.258 C 267.692,64.258 269.097,63.11 269.763,61.387 L 274.347,63.253 C 272.744,66.626 269.787,68.3 265.967,68.3 C 259.979,68.3 255.888,64.449 255.888,58.589 C 255.888,52.92 259.954,49.069 265.795,49.069 C 268.9,49.069 271.636,50.145 273.459,52.609 C 275.11,54.857 275.307,57.106 275.357,59.737 L 265.77,59.737 Z" fill="#e30613" stroke="none" stroke-width="0.25" fill-rule="nonzero" stroke-linejoin="miter" marker-start="none" marker-end="none"/>
  <path d="M 244.38,56.389 L 246.376,62.129 L 246.426,62.129 L 248.397,56.389 L 244.38,56.389 Z M 243.788,67.703 L 236.642,49.668 L 241.768,49.668 L 243.049,52.801 L 249.703,52.801 L 250.911,49.668 L 256.061,49.668 L 249.062,67.703 L 243.788,67.703 Z" fill="#e30613" stroke="none" stroke-width="0.25" fill-rule="nonzero" stroke-linejoin="miter" marker-start="none" marker-end="none"/>
  <path d="M 210.002,56.389 L 211.998,62.129 L 212.047,62.129 L 214.019,56.389 L 210.002,56.389 Z M 193.293,59.618 L 192.825,59.618 L 192.825,64.115 L 193.293,64.115 C 194.871,64.115 196.645,63.828 196.645,61.866 C 196.645,59.905 194.871,59.618 193.293,59.618 Z M 209.41,67.703 L 202.659,50.665 L 197.606,57.059 C 200.243,57.513 201.672,59.666 201.672,62.153 C 201.672,66.005 198.888,67.703 195.216,67.703 L 187.995,67.703 L 187.995,49.668 L 192.825,49.668 L 192.825,56.604 L 192.874,56.604 L 197.433,49.668 L 207.39,49.668 L 208.671,52.801 L 215.325,52.801 L 216.533,49.668 L 221.683,49.668 L 214.684,67.703 L 209.41,67.703 Z" fill="#e30613" stroke="none" stroke-width="0.25" fill-rule="nonzero" stroke-linejoin="miter" marker-start="none" marker-end="none"/>
  <path d="M 177.332,43.725 L 179.406,43.725 L 179.406,44.721 L 174.169,44.721 L 174.169,43.725 L 176.243,43.725 L 176.243,35.985 L 177.332,35.985 L 177.332,43.725 Z M 181.77,35.985 L 186.462,35.985 L 186.462,36.981 L 182.859,36.981 L 182.859,40.283 L 186.358,40.283 L 186.358,41.28 L 182.859,41.28 L 182.859,43.725 L 186.462,43.725 L 186.462,44.721 L 181.77,44.721 L 181.77,35.985 Z M 194.562,38.175 L 195.558,35.985 L 196.728,35.985 L 192.557,45.092 L 188.386,35.985 L 189.556,35.985 L 190.552,38.175 L 194.562,38.175 Z M 194.11,39.171 L 191.004,39.171 L 192.557,42.705 L 194.11,39.171 Z M 203.298,35.8 L 205.916,41.755 L 205.939,41.755 L 206.959,35.985 L 208.083,35.985 L 206.299,45.092 L 203.298,38.209 L 200.297,45.092 L 198.512,35.985 L 199.636,35.985 L 200.656,41.755 L 200.679,41.755 L 203.298,35.8 Z M 215.313,43.586 C 214.838,44.432 214.039,44.907 213.066,44.907 C 211.745,44.907 210.493,44.061 210.493,42.647 C 210.493,41.431 211.397,40.863 212.394,40.434 L 212.996,40.179 C 213.749,39.867 214.502,39.461 214.502,38.522 C 214.502,37.607 213.83,36.819 212.892,36.819 C 211.953,36.819 211.188,37.514 211.2,38.476 L 210.099,38.244 C 210.285,36.842 211.385,35.8 212.799,35.8 C 214.363,35.8 215.592,36.935 215.592,38.522 C 215.592,39.983 214.665,40.666 213.425,41.152 L 212.799,41.396 C 212.254,41.604 211.582,41.964 211.582,42.647 C 211.582,43.412 212.347,43.887 213.042,43.887 C 213.703,43.887 214.12,43.609 214.444,43.064 L 215.313,43.586 Z M 222.659,44.721 L 221.477,44.721 L 225.104,35.637 L 227.572,42.045 L 230.04,35.637 L 233.667,44.721 L 232.485,44.721 L 230.04,38.464 L 227.572,44.907 L 225.104,38.464 L 222.659,44.721 Z M 239.124,44.907 C 236.621,44.907 234.547,42.856 234.547,40.353 C 234.547,37.758 236.598,35.8 239.124,35.8 C 241.649,35.8 243.701,37.758 243.701,40.353 C 243.701,42.856 241.626,44.907 239.124,44.907 Z M 239.124,36.819 C 237.235,36.819 235.636,38.36 235.636,40.353 C 235.636,42.277 237.073,43.887 239.124,43.887 C 241.175,43.887 242.612,42.277 242.612,40.353 C 242.612,38.36 241.012,36.819 239.124,36.819 Z M 248.706,39.785 C 249.969,39.936 250.803,40.979 250.803,42.23 C 250.803,43.064 250.386,43.887 249.656,44.316 C 248.961,44.71 248.127,44.721 247.35,44.721 L 246.029,44.721 L 246.029,35.985 L 247.119,35.985 L 247.119,39.681 L 247.571,39.681 L 250.143,35.985 L 251.464,35.985 L 248.706,39.785 Z M 247.119,43.748 L 247.408,43.748 C 248.486,43.748 249.784,43.551 249.784,42.184 C 249.784,40.793 248.579,40.585 247.466,40.585 L 247.119,40.585 L 247.119,43.748 Z M 254.453,40.932 L 254.453,44.721 L 253.364,44.721 L 253.364,35.985 L 254.453,35.985 L 254.453,39.635 L 254.893,40.052 L 258.184,35.985 L 259.656,35.985 L 255.658,40.793 L 259.586,44.721 L 258.161,44.721 L 254.453,40.932 Z M 262.204,37.144 C 261.834,37.144 261.533,36.831 261.533,36.471 C 261.533,36.1 261.834,35.8 262.204,35.8 C 262.575,35.8 262.877,36.1 262.877,36.471 C 262.877,36.831 262.575,37.144 262.204,37.144 Z" fill="#000000" stroke="none" stroke-width="0.25" fill-rule="nonzero" stroke-linejoin="miter" marker-start="none" marker-end="none"/>
 </g>
</svg>
