<?xml version="1.0" standalone="no"?>
<!DOCTYPE svg PUBLIC "-//W3C//DTD SVG 1.1//EN" "http://www.w3.org/Graphics/SVG/1.1/DTD/svg11.dtd">
<!--Generator: Xara Designer (www.xara.com), SVG filter version: 6.6.0.0-->
<svg fill="none" fill-rule="evenodd" stroke="black" stroke-width="0.501" stroke-linejoin="bevel" stroke-miterlimit="10" font-family="Times New Roman" font-size="16" style="font-variant-ligatures:none" xmlns:xlink="http://www.w3.org/1999/xlink" xmlns="http://www.w3.org/2000/svg" version="1.1" overflow="visible" width="43.26pt" height="10.763pt" viewBox="48.225 -646.081 43.26 10.763">
 <defs>
	</defs>
 <g id="Layer 1" transform="scale(1 -1)"/>
 <g id="Sponsoren" transform="scale(1 -1)">
  <g id="Group" stroke-linejoin="miter" stroke="none" stroke-width="0.587" fill="#676767">
   <g id="Group_1">
    <path d="M 48.225,638.964 L 51.401,638.964 C 51.401,638.455 51.618,638.08 51.956,637.827 C 52.267,637.594 52.72,637.476 53.187,637.476 C 53.834,637.476 54.757,637.748 54.757,638.552 C 54.757,639.332 53.716,639.493 53.129,639.631 C 51.031,640.162 48.401,640.22 48.401,642.959 C 48.401,645.415 51.054,646.081 53.049,646.081 C 55.287,646.081 57.623,645.431 57.737,642.788 L 54.66,642.788 C 54.66,643.217 54.503,643.493 54.229,643.668 C 53.954,643.851 53.577,643.923 53.168,643.923 C 52.617,643.923 51.738,643.864 51.738,643.161 C 51.738,642.196 53.972,642.021 55.501,641.689 C 57.565,641.274 58.088,639.789 58.088,638.942 C 58.088,636.222 55.501,635.318 53.21,635.318 C 50.795,635.318 48.322,636.122 48.225,638.964 Z" marker-start="none" marker-end="none"/>
    <path d="M 59.385,639.672 L 59.385,645.784 L 62.721,645.784 L 62.721,639.888 C 62.721,638.537 63.308,638.063 64.366,638.063 C 65.09,638.063 66.189,638.537 66.189,640.337 L 66.189,645.784 L 69.52,645.784 L 69.52,635.608 L 66.287,635.608 L 66.257,637.003 C 65.617,635.97 64.328,635.318 63.15,635.318 C 60.229,635.318 59.385,637.003 59.385,639.672 Z" marker-start="none" marker-end="none"/>
    <path d="M 73.661,635.608 L 70.263,645.784 L 73.738,645.784 L 75.62,639.061 L 77.522,645.784 L 80.913,645.784 L 77.506,635.608 L 73.661,635.608 Z" marker-start="none" marker-end="none"/>
    <path d="M 81.108,638.396 C 81.108,641.705 84.72,641.455 87.033,641.922 C 87.6,642.043 87.913,642.238 87.913,642.865 C 87.913,643.626 86.993,643.923 86.305,643.923 C 85.387,643.923 84.8,643.515 84.642,642.651 L 81.525,642.651 C 81.583,643.984 82.206,644.849 83.111,645.377 C 84.012,645.886 85.189,646.081 86.345,646.081 C 88.755,646.081 91.091,645.554 91.091,642.669 L 91.091,638.22 C 91.091,637.358 91.091,636.417 91.485,635.608 L 88.128,635.608 C 88.014,635.923 87.972,636.238 87.94,636.569 C 87.072,635.671 85.795,635.318 84.583,635.318 C 82.64,635.318 81.108,636.297 81.108,638.396 Z M 87.877,640.375 C 87.402,640.086 86.543,640.023 85.821,639.824 C 85.073,639.652 84.447,639.332 84.447,638.537 C 84.447,637.709 85.092,637.376 85.838,637.376 C 87.424,637.376 87.951,638.276 87.877,640.375 Z" marker-start="none" marker-end="none"/>
   </g>
  </g>
 </g>
 <g id="Content" transform="scale(1 -1)"/>
 <g id="Logo Vektor" transform="scale(1 -1)"/>
</svg>
