<?xml version="1.0" standalone="no"?>
<!DOCTYPE svg PUBLIC "-//W3C//DTD SVG 1.1//EN" "http://www.w3.org/Graphics/SVG/1.1/DTD/svg11.dtd">
<!--Generator: Xara Designer (www.xara.com), SVG filter version: 6.6.0.8-->
<svg fill="none" fill-rule="evenodd" stroke="black" stroke-width="0.501" stroke-linejoin="bevel" stroke-miterlimit="10" font-family="Times New Roman" font-size="16" style="font-variant-ligatures:none" xmlns:xlink="http://www.w3.org/1999/xlink" xmlns="http://www.w3.org/2000/svg" version="1.1" overflow="visible" width="130.15pt" height="41.549pt" viewBox="13.474 -96.024 130.15 41.549">
 <defs>
	</defs>
 <g id="Layer 1" transform="scale(1 -1)">
  <g id="Group" fill-rule="nonzero" stroke-linejoin="miter" stroke="none" stroke-width="0.25" fill="#2b456b">
   <path d="M 103.784,75.493 C 103.784,75.493 103.873,95.902 123.757,96.024 C 144.06,94.82 143.623,75.493 143.623,75.493 C 142.924,62.139 133.835,56.466 127.109,56.498 C 123.303,56.516 120.478,56.516 120.478,56.516 L 120.478,75.493 L 114.757,75.493 L 114.757,81.354 L 132.827,81.354 L 132.827,75.493 L 127.106,75.493 L 127.106,63.37 C 127.106,63.37 136.424,64.887 136.997,75.493 C 136.997,75.493 137.084,89.345 123.757,89.256 C 110.43,89.168 110.342,75.493 110.342,75.493 L 103.784,75.493 Z" marker-start="none" marker-end="none"/>
   <path d="M 15.311,66.479 L 15.311,72.108 L 13.474,72.108 L 13.474,72.828 L 17.92,72.828 L 17.92,72.108 L 16.092,72.108 L 16.092,66.479 L 15.311,66.479 Z M 20.417,66.479 L 20.417,72.828 L 21.944,72.828 C 22.379,72.828 22.697,72.804 22.9,72.756 C 23.103,72.709 23.281,72.627 23.435,72.511 C 23.627,72.364 23.776,72.166 23.883,71.92 C 23.989,71.672 24.043,71.398 24.043,71.098 C 24.043,70.577 23.894,70.182 23.597,69.911 C 23.299,69.641 22.864,69.506 22.29,69.506 L 22.152,69.506 L 24.633,66.479 L 23.652,66.479 L 21.282,69.506 L 21.172,69.506 L 21.172,66.479 L 20.417,66.479 Z M 21.172,72.19 L 21.172,70.066 L 21.762,70.066 C 22.365,70.066 22.769,70.142 22.973,70.293 C 23.177,70.445 23.279,70.71 23.279,71.089 C 23.279,71.497 23.174,71.782 22.964,71.946 C 22.754,72.109 22.354,72.19 21.762,72.19 L 21.172,72.19 Z M 33.336,69.64 C 33.336,69.186 33.25,68.758 33.078,68.356 C 32.907,67.954 32.657,67.597 32.328,67.285 C 31.999,66.973 31.621,66.732 31.193,66.563 C 30.766,66.394 30.322,66.309 29.863,66.309 C 29.405,66.309 28.963,66.394 28.538,66.563 C 28.113,66.732 27.737,66.973 27.408,67.285 C 27.076,67.6 26.824,67.959 26.651,68.361 C 26.478,68.763 26.391,69.189 26.391,69.64 C 26.391,70.094 26.478,70.523 26.651,70.926 C 26.824,71.329 27.076,71.688 27.408,72.003 C 27.734,72.313 28.11,72.551 28.536,72.719 C 28.962,72.887 29.405,72.971 29.863,72.971 C 30.325,72.971 30.77,72.887 31.198,72.719 C 31.626,72.551 32.002,72.313 32.328,72.003 C 32.657,71.691 32.907,71.333 33.078,70.93 C 33.25,70.527 33.336,70.097 33.336,69.64 Z M 29.863,67.021 C 30.219,67.021 30.557,67.086 30.879,67.218 C 31.2,67.349 31.489,67.541 31.747,67.793 C 32.001,68.041 32.195,68.323 32.328,68.638 C 32.462,68.953 32.528,69.287 32.528,69.64 C 32.528,69.996 32.461,70.334 32.326,70.655 C 32.191,70.976 31.998,71.259 31.747,71.505 C 31.492,71.753 31.204,71.943 30.883,72.073 C 30.562,72.203 30.222,72.268 29.863,72.268 C 29.502,72.268 29.16,72.203 28.838,72.073 C 28.515,71.943 28.229,71.753 27.98,71.505 C 27.726,71.253 27.532,70.969 27.399,70.65 C 27.266,70.332 27.199,69.996 27.199,69.64 C 27.199,69.287 27.265,68.955 27.397,68.643 C 27.528,68.33 27.723,68.047 27.98,67.793 C 28.241,67.538 28.53,67.346 28.849,67.216 C 29.167,67.086 29.505,67.021 29.863,67.021 Z M 16.487,56.161 L 13.74,62.757 L 14.579,62.757 L 16.487,57.9 L 18.386,62.757 L 19.221,62.757 L 16.487,56.161 Z M 24.413,58.291 L 21.196,58.291 L 21.196,58.23 C 21.196,57.805 21.32,57.462 21.568,57.2 C 21.817,56.939 22.141,56.808 22.54,56.808 C 22.812,56.808 23.058,56.88 23.277,57.022 C 23.496,57.166 23.69,57.381 23.858,57.671 L 24.386,57.324 C 24.182,56.965 23.922,56.695 23.605,56.513 C 23.289,56.331 22.922,56.24 22.505,56.24 C 21.886,56.24 21.387,56.439 21.005,56.838 C 20.623,57.237 20.433,57.76 20.433,58.408 C 20.433,59.03 20.622,59.539 21.001,59.935 C 21.379,60.331 21.866,60.529 22.46,60.529 C 23.061,60.529 23.536,60.341 23.887,59.965 C 24.238,59.589 24.413,59.076 24.413,58.425 L 24.413,58.291 Z M 23.667,58.842 C 23.644,59.192 23.525,59.461 23.31,59.65 C 23.096,59.84 22.802,59.935 22.429,59.935 C 22.092,59.935 21.811,59.835 21.586,59.638 C 21.361,59.439 21.231,59.174 21.196,58.842 L 23.667,58.842 Z M 26.923,56.409 L 26.923,60.377 L 27.54,60.377 L 27.54,59.553 C 27.726,59.897 27.924,60.143 28.134,60.29 C 28.344,60.438 28.6,60.511 28.902,60.511 C 28.985,60.511 29.065,60.505 29.142,60.492 C 29.219,60.479 29.295,60.459 29.372,60.433 L 29.142,59.822 C 29.062,59.848 28.986,59.867 28.915,59.881 C 28.844,59.893 28.776,59.9 28.711,59.9 C 28.344,59.9 28.069,59.771 27.886,59.512 C 27.702,59.253 27.611,58.864 27.611,58.343 L 27.611,56.409 L 26.923,56.409 Z M 34.048,60.52 L 35.264,57.671 L 36.356,60.377 L 37.137,60.377 L 35.331,56.161 L 33.995,59.206 L 32.659,56.161 L 30.849,60.377 L 31.621,60.377 L 32.704,57.671 L 33.937,60.52 L 34.048,60.52 Z M 43.082,60.377 L 43.082,56.409 L 42.407,56.409 L 42.407,57.129 C 42.245,56.84 42.037,56.619 41.784,56.467 C 41.531,56.316 41.248,56.24 40.934,56.24 C 40.351,56.24 39.882,56.435 39.525,56.828 C 39.169,57.219 38.99,57.737 38.99,58.382 C 38.99,59.035 39.164,59.555 39.51,59.941 C 39.856,60.327 40.319,60.52 40.899,60.52 C 41.239,60.52 41.534,60.446 41.784,60.297 C 42.034,60.148 42.236,59.926 42.39,59.631 L 42.39,60.377 L 43.082,60.377 Z M 42.407,58.356 C 42.407,58.804 42.283,59.165 42.033,59.438 C 41.782,59.711 41.456,59.848 41.054,59.848 C 40.637,59.848 40.311,59.722 40.078,59.471 C 39.844,59.219 39.727,58.868 39.727,58.417 C 39.727,57.937 39.845,57.567 40.08,57.306 C 40.315,57.046 40.649,56.917 41.081,56.917 C 41.495,56.917 41.819,57.043 42.055,57.296 C 42.29,57.549 42.407,57.902 42.407,58.356 Z M 45.96,56.409 L 46.669,56.409 L 46.669,63.13 L 45.96,63.13 L 45.96,56.409 Z M 49.686,59.817 L 48.941,59.817 L 48.941,60.377 L 49.686,60.377 L 49.686,61.977 L 50.396,61.977 L 50.396,60.377 L 51.142,60.377 L 51.142,59.817 L 50.396,59.817 L 50.396,56.408 L 49.686,56.408 L 49.686,59.817 Z M 53.947,60.377 L 53.947,58.425 C 53.947,57.856 54.033,57.458 54.207,57.231 C 54.38,57.004 54.672,56.89 55.083,56.89 C 55.494,56.89 55.785,57.002 55.955,57.227 C 56.125,57.45 56.21,57.85 56.21,58.425 L 56.21,60.377 L 56.92,60.377 L 56.92,58.061 C 56.92,57.462 56.763,57.01 56.45,56.701 C 56.136,56.394 55.675,56.24 55.065,56.24 C 54.462,56.24 54.003,56.394 53.69,56.704 C 53.376,57.013 53.219,57.465 53.219,58.061 L 53.219,60.377 L 53.947,60.377 Z M 59.719,56.409 L 59.719,60.377 L 60.398,60.377 L 60.398,59.766 C 60.572,60.02 60.782,60.209 61.028,60.334 C 61.274,60.458 61.557,60.52 61.88,60.52 C 62.359,60.52 62.734,60.396 63.003,60.147 C 63.272,59.899 63.407,59.553 63.407,59.111 L 63.407,56.409 L 62.697,56.409 L 62.697,58.747 C 62.697,59.148 62.61,59.447 62.437,59.642 C 62.264,59.837 61.997,59.935 61.636,59.935 C 61.429,59.935 61.24,59.898 61.07,59.824 C 60.9,59.751 60.759,59.646 60.646,59.51 C 60.561,59.406 60.499,59.287 60.462,59.154 C 60.425,59.021 60.407,58.79 60.407,58.46 L 60.407,56.409 L 59.719,56.409 Z M 70.017,60.377 L 70.017,56.478 C 70.017,56.048 69.988,55.741 69.928,55.559 C 69.869,55.377 69.772,55.214 69.635,55.069 C 69.446,54.87 69.214,54.72 68.941,54.622 C 68.667,54.524 68.353,54.475 67.998,54.475 C 67.383,54.475 66.903,54.612 66.558,54.887 C 66.213,55.162 66.034,55.55 66.019,56.053 L 66.8,56.053 L 66.8,56.001 C 66.8,55.703 66.905,55.474 67.115,55.311 C 67.325,55.15 67.622,55.069 68.007,55.069 C 68.285,55.069 68.522,55.113 68.719,55.201 C 68.916,55.29 69.066,55.42 69.169,55.594 C 69.231,55.692 69.276,55.806 69.303,55.936 C 69.329,56.067 69.342,56.253 69.342,56.496 L 69.342,56.808 L 69.342,57.163 C 69.186,56.88 68.98,56.663 68.726,56.511 C 68.471,56.359 68.186,56.283 67.869,56.283 C 67.286,56.283 66.817,56.477 66.46,56.865 C 66.104,57.251 65.925,57.767 65.925,58.408 C 65.925,59.056 66.099,59.569 66.445,59.95 C 66.791,60.33 67.254,60.52 67.834,60.52 C 68.171,60.52 68.467,60.446 68.721,60.297 C 68.976,60.148 69.177,59.929 69.325,59.64 L 69.325,60.377 L 70.017,60.377 Z M 69.342,58.382 C 69.342,58.827 69.218,59.186 68.97,59.458 C 68.721,59.729 68.394,59.865 67.989,59.865 C 67.572,59.865 67.246,59.739 67.013,59.488 C 66.779,59.236 66.662,58.885 66.662,58.434 C 66.662,57.954 66.78,57.584 67.015,57.324 C 67.25,57.063 67.584,56.934 68.016,56.934 C 68.43,56.934 68.754,57.062 68.99,57.317 C 69.225,57.573 69.342,57.928 69.342,58.382 Z M 76.503,58.291 L 73.286,58.291 L 73.286,58.23 C 73.286,57.805 73.41,57.462 73.658,57.2 C 73.907,56.939 74.231,56.808 74.63,56.808 C 74.902,56.808 75.148,56.88 75.367,57.022 C 75.586,57.166 75.78,57.381 75.948,57.671 L 76.476,57.324 C 76.272,56.965 76.012,56.695 75.695,56.513 C 75.379,56.331 75.012,56.24 74.595,56.24 C 73.976,56.24 73.477,56.439 73.095,56.838 C 72.713,57.237 72.522,57.76 72.522,58.408 C 72.522,59.03 72.712,59.539 73.091,59.935 C 73.469,60.331 73.956,60.529 74.55,60.529 C 75.151,60.529 75.626,60.341 75.977,59.965 C 76.328,59.589 76.503,59.076 76.503,58.425 L 76.503,58.291 Z M 75.757,58.842 C 75.734,59.192 75.615,59.461 75.4,59.65 C 75.186,59.84 74.892,59.935 74.519,59.935 C 74.182,59.935 73.901,59.835 73.676,59.638 C 73.451,59.439 73.321,59.174 73.286,58.842 L 75.757,58.842 Z M 79.004,56.409 L 79.004,60.377 L 79.683,60.377 L 79.683,59.766 C 79.857,60.02 80.067,60.209 80.313,60.334 C 80.559,60.458 80.842,60.52 81.165,60.52 C 81.644,60.52 82.019,60.396 82.288,60.147 C 82.557,59.899 82.692,59.553 82.692,59.111 L 82.692,56.409 L 81.982,56.409 L 81.982,58.747 C 81.982,59.148 81.895,59.447 81.722,59.642 C 81.549,59.837 81.282,59.935 80.921,59.935 C 80.714,59.935 80.525,59.898 80.355,59.824 C 80.185,59.751 80.044,59.646 79.931,59.51 C 79.846,59.406 79.784,59.287 79.747,59.154 C 79.71,59.021 79.692,58.79 79.692,58.46 L 79.692,56.409 L 79.004,56.409 Z M 91.781,63.009 L 94.736,56.409 L 93.898,56.409 L 93.054,58.355 L 90.516,58.355 L 89.673,56.409 L 88.834,56.409 L 91.781,63.009 Z M 91.781,61.339 L 90.747,59.002 L 92.815,59.002 L 91.781,61.339 Z M 100.261,59.687 L 102.941,59.687 L 102.941,59.474 C 102.941,58.475 102.651,57.685 102.071,57.107 C 101.492,56.528 100.7,56.24 99.698,56.24 C 99.393,56.24 99.102,56.271 98.826,56.334 C 98.549,56.399 98.294,56.491 98.06,56.612 C 97.527,56.899 97.116,57.294 96.826,57.799 C 96.536,58.303 96.391,58.876 96.391,59.518 C 96.391,60.047 96.478,60.525 96.651,60.951 C 96.824,61.377 97.085,61.753 97.434,62.077 C 97.727,62.348 98.068,62.554 98.455,62.692 C 98.843,62.831 99.271,62.901 99.742,62.901 C 100.366,62.901 100.907,62.79 101.366,62.569 C 101.824,62.347 102.205,62.014 102.507,61.569 L 101.859,61.062 C 101.625,61.446 101.333,61.734 100.984,61.927 C 100.635,62.119 100.23,62.215 99.768,62.215 C 99.014,62.215 98.402,61.967 97.931,61.469 C 97.461,60.972 97.226,60.322 97.226,59.518 C 97.226,58.76 97.465,58.139 97.942,57.653 C 98.42,57.167 99.029,56.924 99.768,56.924 C 100.419,56.924 100.962,57.117 101.395,57.504 C 101.828,57.889 102.069,58.392 102.116,59.01 L 100.261,59.01 L 100.261,59.687 Z" marker-start="none" marker-end="none"/>
  </g>
 </g>
</svg>
