<?xml version="1.0" standalone="no"?>
<!DOCTYPE svg PUBLIC "-//W3C//DTD SVG 1.1//EN" "http://www.w3.org/Graphics/SVG/1.1/DTD/svg11.dtd">
<!--Generator: Xara Designer (www.xara.com), SVG filter version: 6.6.0.0-->
<svg fill="none" fill-rule="evenodd" stroke="black" stroke-width="0.501" stroke-linejoin="bevel" stroke-miterlimit="10" font-family="Times New Roman" font-size="16" style="font-variant-ligatures:none" xmlns:xlink="http://www.w3.org/1999/xlink" xmlns="http://www.w3.org/2000/svg" version="1.1" overflow="visible" width="166.633pt" height="37.79pt" viewBox="322.327 -246.052 166.633 37.79">
 <defs>
	</defs>
 <g id="Layer 1" transform="scale(1 -1)">
  <g id="Group" fill-rule="nonzero" stroke-linejoin="miter" stroke="none" stroke-width="0.086" fill="#000000">
   <path d="M 322.656,245.324 C 322.82,245.605 323.001,245.896 323.299,246.052 C 323.171,245.64 322.926,245.255 322.926,244.811 C 322.924,244.476 322.922,244.129 323.031,243.807 C 323.349,243.061 323.931,242.479 324.455,241.875 C 324.9,241.386 325.552,241.185 326.112,240.864 C 326.324,240.755 326.532,240.603 326.778,240.59 C 326.949,240.6 326.98,240.802 326.988,240.937 C 327.007,241.603 326.854,242.259 326.839,242.924 C 326.828,243.257 327.026,243.542 327.163,243.831 C 327.488,244.492 327.94,245.113 328.568,245.516 C 328.708,245.611 328.882,245.627 329.045,245.659 C 328.72,245.132 328.166,244.75 327.972,244.145 C 327.874,243.398 327.983,242.644 328.036,241.896 C 328.059,241.492 328.207,241.112 328.366,240.743 C 328.956,240.541 329.071,239.833 329.572,239.518 C 329.969,239.261 330.403,239.065 330.841,238.887 C 331.254,238.728 331.699,238.558 332.147,238.674 C 333.095,238.902 334.077,239.2 334.808,239.878 C 335.454,240.561 336.071,241.35 336.209,242.308 C 336.285,242.947 336.425,243.643 336.114,244.243 C 335.875,244.782 335.374,245.127 335.023,245.584 C 335.274,245.63 335.553,245.62 335.727,245.406 C 336.214,244.886 336.744,244.377 337.043,243.719 C 337.378,242.961 337.396,242.086 337.183,241.293 C 337.114,241.02 336.848,240.765 336.972,240.47 C 337.178,240.361 337.421,240.413 337.63,240.487 C 338.041,240.635 338.433,240.83 338.829,241.016 C 339.729,241.411 340.327,242.237 340.893,243.005 C 341.388,243.69 341.108,244.561 341.249,245.335 C 341.355,245.286 341.519,245.288 341.543,245.144 C 341.732,244.566 341.842,243.947 341.743,243.342 C 341.65,242.447 341.193,241.631 340.606,240.964 C 340.184,240.446 339.525,240.235 338.943,239.954 C 337.997,239.507 336.986,239.235 336.012,238.863 C 335.498,238.634 334.933,238.545 334.432,238.287 C 334.119,238.13 333.8,237.985 333.476,237.85 C 334.985,237.213 336.494,236.576 338.002,235.939 C 338.003,234.975 338.002,234.011 338.003,233.047 C 336.64,233.048 335.276,233.048 333.913,233.048 C 333.995,230.793 334.08,228.538 334.165,226.284 C 337.209,226.293 340.253,226.311 343.296,226.286 C 343.41,226.29 343.533,226.282 343.568,226.15 C 343.309,225.704 342.9,225.371 342.567,224.982 C 341.989,224.981 341.411,224.982 340.833,224.981 C 340.85,219.514 340.872,214.047 340.891,208.58 C 340.459,208.58 340.027,208.58 339.595,208.58 C 339.58,212.592 339.568,216.603 339.552,220.614 C 338.867,220.615 338.18,220.615 337.494,220.614 C 337.284,216.603 337.078,212.592 336.864,208.58 C 336.433,208.58 336,208.58 335.568,208.581 C 335.777,212.593 335.988,216.604 336.196,220.615 C 335.589,220.615 334.981,220.615 334.375,220.615 C 334.522,216.604 334.674,212.593 334.821,208.58 C 334.388,208.58 333.957,208.58 333.525,208.58 C 333.375,212.592 333.227,216.603 333.077,220.614 C 332.505,220.616 331.932,220.615 331.36,220.614 C 331.3,216.603 331.246,212.592 331.187,208.58 C 330.761,208.58 330.334,208.58 329.909,208.58 C 330.04,217.84 330.175,227.1 330.311,236.358 C 329.269,236.336 328.313,236.798 327.418,237.279 C 327.26,237.341 327.294,237.537 327.25,237.67 C 328.193,237.684 329.136,237.671 330.079,237.678 C 330.08,237.798 330.081,237.92 330.082,238.041 C 329.466,238.332 328.918,238.753 328.277,238.989 C 327.674,239.216 327.065,239.425 326.479,239.691 C 325.993,239.913 325.449,239.989 324.983,240.257 C 324.556,240.504 324.101,240.725 323.751,241.08 C 323.334,241.498 322.963,241.96 322.594,242.42 C 322.338,242.724 322.334,243.138 322.327,243.514 C 322.339,244.125 322.34,244.78 322.656,245.324 M 331.611,237.212 C 331.598,236.256 331.583,235.299 331.569,234.343 C 333.281,234.343 334.994,234.343 336.708,234.343 C 336.708,234.581 336.707,234.818 336.706,235.055 C 335.007,235.771 333.31,236.493 331.611,237.212 M 331.549,233.048 C 331.514,230.793 331.48,228.539 331.445,226.284 C 331.919,226.284 332.393,226.284 332.867,226.284 C 332.782,228.539 332.701,230.794 332.615,233.048 C 332.259,233.048 331.904,233.048 331.549,233.048 M 331.426,224.981 C 331.409,223.958 331.394,222.935 331.379,221.912 C 331.929,221.911 332.479,221.912 333.029,221.912 C 332.991,222.935 332.954,223.958 332.914,224.981 C 332.418,224.982 331.922,224.981 331.426,224.981 M 334.212,224.981 C 334.249,223.958 334.289,222.935 334.326,221.912 C 336.067,221.912 337.808,221.912 339.549,221.911 C 339.543,222.935 339.542,223.958 339.535,224.981 C 337.761,224.981 335.986,224.982 334.212,224.981 Z" marker-start="none" marker-end="none"/>
   <path d="M 369.376,241.838 C 369.797,241.953 370.274,241.882 370.625,241.613 C 371.49,240.978 371.521,239.494 370.658,238.845 C 369.959,238.329 368.851,238.574 368.438,239.342 C 367.894,240.229 368.363,241.548 369.376,241.838 Z" marker-start="none" marker-end="none"/>
   <path d="M 375.643,241.443 C 375.871,241.514 376.068,241.662 376.299,241.723 C 376.635,241.75 376.973,241.727 377.31,241.732 C 377.31,238.258 377.31,234.784 377.31,231.311 C 377.306,230.177 377.334,229.041 377.229,227.909 C 377.668,227.943 378.107,227.964 378.546,227.97 C 378.546,227.455 378.547,226.942 378.546,226.428 C 376.775,226.428 375.005,226.427 373.235,226.428 C 373.235,226.864 373.235,227.3 373.235,227.736 C 373.554,227.77 373.922,227.792 374.139,228.063 C 374.446,228.442 374.399,228.964 374.428,229.422 C 374.439,232.203 374.429,234.983 374.433,237.763 C 374.432,238.392 374.458,239.019 374.513,239.645 C 374.04,239.624 373.566,239.604 373.093,239.585 C 373.093,240.097 373.093,240.61 373.093,241.123 C 373.95,241.136 374.823,241.17 375.643,241.443 Z" marker-start="none" marker-end="none"/>
   <path d="M 385.174,241.124 C 386.22,241.144 387.323,241.172 388.263,241.687 C 388.628,241.784 389.017,241.713 389.393,241.73 C 389.393,238.287 389.393,234.843 389.393,231.398 C 389.389,230.235 389.416,229.069 389.311,227.909 C 389.75,227.944 390.189,227.965 390.63,227.97 C 390.63,227.455 390.629,226.942 390.63,226.428 C 389.345,226.428 388.061,226.428 386.777,226.428 C 386.742,226.743 386.708,227.059 386.675,227.373 C 386.117,226.806 385.421,226.349 384.631,226.192 C 383.536,225.974 382.312,226.174 381.439,226.902 C 380.449,227.696 379.933,228.945 379.775,230.177 C 379.579,231.739 379.793,233.417 380.679,234.75 C 381.437,235.922 382.736,236.726 384.128,236.855 C 384.944,236.964 385.765,236.796 386.533,236.526 C 386.533,237.565 386.517,238.608 386.614,239.645 C 386.136,239.607 385.655,239.588 385.175,239.584 C 385.173,240.097 385.174,240.61 385.174,241.124 M 383.965,235.084 C 383.285,234.662 383.01,233.85 382.843,233.109 C 382.619,231.984 382.613,230.793 382.951,229.69 C 383.143,229.1 383.424,228.474 383.994,228.16 C 384.861,227.675 386.05,228.072 386.519,228.927 C 386.555,230.954 386.521,232.985 386.535,235.013 C 385.76,235.434 384.746,235.551 383.965,235.084 Z" marker-start="none" marker-end="none"/>
   <path d="M 423.792,241.124 C 424.847,241.155 425.988,241.152 426.914,241.729 C 427.278,241.734 427.643,241.732 428.009,241.732 C 428.008,238.651 428.008,235.571 428.009,232.49 C 428.333,232.491 428.658,232.491 428.982,232.491 C 429.733,233.345 430.455,234.226 431.246,235.043 C 430.882,235.036 430.52,235.03 430.157,235.023 C 430.157,235.537 430.156,236.052 430.16,236.565 C 431.679,236.562 433.198,236.565 434.718,236.564 C 434.718,236.133 434.718,235.701 434.718,235.27 C 434.12,235.189 433.518,235.034 433.012,234.691 C 432.026,234.044 431.344,233.058 430.536,232.218 C 431.26,231.827 431.719,231.126 432.209,230.491 C 432.759,229.779 433.277,229.037 433.901,228.385 C 434.2,228.027 434.608,227.761 435.084,227.731 C 435.083,227.297 435.083,226.862 435.083,226.428 C 434.266,226.436 433.449,226.414 432.633,226.438 C 432.099,226.455 431.658,226.802 431.321,227.187 C 430.257,228.395 429.414,229.771 428.473,231.07 C 428.317,231.064 428.162,231.057 428.008,231.049 C 428.008,230.002 428.024,228.953 427.926,227.909 C 428.364,227.944 428.804,227.964 429.245,227.97 C 429.245,227.455 429.245,226.942 429.245,226.427 C 427.467,226.429 425.69,226.427 423.913,226.428 C 423.912,226.864 423.912,227.3 423.913,227.736 C 424.274,227.772 424.728,227.816 424.909,228.185 C 425.188,228.815 425.115,229.524 425.129,230.194 C 425.129,232.743 425.127,235.291 425.13,237.839 C 425.132,238.442 425.158,239.044 425.211,239.645 C 424.737,239.624 424.265,239.604 423.792,239.584 C 423.792,240.097 423.792,240.611 423.792,241.124 Z" marker-start="none" marker-end="none"/>
   <path d="M 346.274,240.618 C 348.268,240.619 350.262,240.619 352.255,240.619 C 352.255,240.175 352.255,239.732 352.255,239.289 C 351.835,239.263 351.282,239.28 351.038,238.863 C 350.81,238.385 351.052,237.857 351.16,237.377 C 351.764,234.997 352.471,232.64 352.953,230.23 C 353.353,231.639 353.736,233.054 354.136,234.464 C 354.757,236.516 355.382,238.568 356.006,240.619 C 356.613,240.619 357.221,240.619 357.829,240.619 C 358.508,238.431 359.185,236.243 359.863,234.054 C 360.278,232.793 360.579,231.499 360.88,230.208 C 361.442,232.216 361.981,234.23 362.52,236.244 C 362.804,237.235 362.974,238.309 363.635,239.139 C 363.113,239.108 362.59,239.076 362.067,239.056 C 362.069,239.577 362.067,240.098 362.068,240.619 C 363.588,240.618 365.108,240.62 366.628,240.618 C 366.628,240.175 366.628,239.733 366.628,239.29 C 366.08,239.231 365.553,238.979 365.209,238.54 C 364.694,237.896 364.468,237.087 364.233,236.31 C 363.214,232.976 362.195,229.642 361.174,226.307 C 360.572,226.306 359.971,226.307 359.37,226.307 C 358.728,228.258 358.084,230.206 357.441,232.157 C 356.937,233.608 356.508,235.086 356.218,236.595 C 355.9,234.541 355.197,232.578 354.612,230.591 C 354.176,229.163 353.746,227.733 353.307,226.306 C 352.72,226.308 352.133,226.306 351.547,226.307 C 350.468,229.567 349.393,232.828 348.315,236.088 C 348.142,236.598 347.993,237.117 347.783,237.615 C 347.583,238.098 347.411,238.597 347.34,239.117 C 346.985,239.096 346.63,239.077 346.275,239.058 C 346.272,239.578 346.273,240.098 346.274,240.618 Z" marker-start="none" marker-end="none"/>
   <path d="M 395.758,235.783 C 396.386,236.317 397.135,236.739 397.961,236.848 C 398.971,236.976 400.059,236.753 400.851,236.089 C 401.895,235.256 402.405,233.921 402.54,232.623 C 402.695,231.084 402.451,229.445 401.552,228.155 C 400.8,227.047 399.558,226.287 398.223,226.145 C 397.389,226.024 396.545,226.188 395.757,226.465 C 395.753,225.224 395.777,223.98 395.696,222.739 C 397.62,222.785 399.545,222.769 401.47,222.775 C 402.491,220.158 403.513,217.542 404.532,214.923 C 404.929,213.857 405.343,212.796 405.675,211.706 C 406.982,215.419 408.41,219.086 409.78,222.776 C 411.341,222.775 412.902,222.776 414.464,222.776 C 414.464,222.33 414.463,221.886 414.465,221.441 C 414.06,221.389 413.561,221.413 413.284,221.058 C 412.996,220.675 413.006,220.166 413.004,219.709 C 413.087,217.473 413.179,215.237 413.265,213.001 C 413.295,212.031 413.392,211.051 413.231,210.086 C 413.741,210.126 414.255,210.142 414.767,210.147 C 414.766,209.627 414.767,209.106 414.767,208.586 C 412.888,208.586 411.01,208.585 409.132,208.586 C 409.132,209.03 409.131,209.474 409.132,209.919 C 409.548,209.972 410.078,209.952 410.331,210.355 C 410.612,210.807 410.57,211.368 410.564,211.876 C 410.474,214.426 410.364,216.975 410.244,219.523 C 408.846,215.813 407.462,212.097 406.073,208.384 C 405.443,208.382 404.814,208.384 404.184,208.383 C 403.269,210.621 402.347,212.856 401.432,215.094 C 400.83,216.576 400.381,218.115 400.014,219.671 C 400.068,217.708 400.083,215.743 400.06,213.779 C 400.038,212.548 400.097,211.311 399.949,210.086 C 400.462,210.126 400.976,210.143 401.49,210.146 C 401.49,209.626 401.49,209.106 401.49,208.585 C 399.949,208.586 398.409,208.585 396.869,208.586 C 396.867,209.03 396.867,209.476 396.869,209.92 C 397.227,209.966 397.643,209.95 397.928,210.209 C 398.265,210.561 398.286,211.08 398.303,211.539 C 398.339,213.632 398.369,215.726 398.403,217.82 C 398.422,218.971 398.428,220.124 398.509,221.275 C 396.233,221.271 393.958,221.263 391.683,221.26 C 391.683,221.697 391.682,222.133 391.683,222.568 C 392.028,222.604 392.449,222.638 392.651,222.967 C 392.886,223.414 392.886,223.937 392.898,224.43 C 392.898,226.695 392.898,228.96 392.898,231.224 C 392.902,232.375 392.872,233.53 392.979,234.678 C 392.5,234.659 392.02,234.638 391.541,234.618 C 391.539,235.131 391.54,235.645 391.54,236.159 C 392.585,236.177 393.688,236.204 394.627,236.721 C 394.958,236.817 395.314,236.75 395.655,236.765 C 395.69,236.438 395.723,236.111 395.758,235.783 M 395.777,234.184 C 395.729,232.119 395.772,230.047 395.757,227.979 C 396.579,227.553 397.66,227.456 398.45,228.003 C 399.157,228.516 399.418,229.416 399.534,230.242 C 399.661,231.431 399.653,232.684 399.165,233.798 C 398.975,234.26 398.66,234.701 398.193,234.911 C 397.353,235.284 396.283,234.937 395.777,234.184 Z" marker-start="none" marker-end="none"/>
   <path d="M 407.663,236.832 C 408.668,236.941 409.743,236.919 410.663,236.449 C 411.342,236.106 411.84,235.467 412.068,234.747 C 412.397,233.78 412.306,232.745 412.311,231.741 C 412.293,230.465 412.331,229.184 412.217,227.909 C 412.655,227.943 413.095,227.964 413.535,227.97 C 413.535,227.455 413.535,226.942 413.535,226.428 C 412.258,226.428 410.98,226.428 409.703,226.428 C 409.676,226.744 409.648,227.059 409.622,227.374 C 408.983,226.736 408.158,226.269 407.255,226.153 C 406.368,226.022 405.364,226.133 404.684,226.772 C 403.443,227.901 403.612,230.13 404.942,231.124 C 406.243,232.1 407.904,232.446 409.5,232.531 C 409.48,233.222 409.576,233.941 409.343,234.607 C 409.214,234.985 408.898,235.301 408.501,235.383 C 407.855,235.519 407.166,235.322 406.676,234.883 C 407.055,234.311 406.958,233.451 406.376,233.051 C 405.816,232.695 404.945,232.762 404.554,233.338 C 404.093,234.012 404.283,234.971 404.812,235.552 C 405.533,236.354 406.623,236.696 407.663,236.832 M 407.108,230.159 C 406.724,229.754 406.603,229.101 406.856,228.598 C 407.121,228.145 407.713,228.033 408.196,228.117 C 408.696,228.179 409.128,228.468 409.482,228.813 C 409.478,229.573 409.482,230.332 409.48,231.092 C 408.636,230.983 407.733,230.775 407.108,230.159 Z" marker-start="none" marker-end="none"/>
   <path d="M 420.586,236.628 C 421.246,236.938 422.069,237 422.721,236.634 C 423.65,236.127 423.724,234.618 422.872,234.003 C 422.348,233.676 421.613,233.726 421.127,234.101 C 420.853,234.309 420.782,234.662 420.713,234.977 C 420.013,234.877 419.522,234.313 419.145,233.765 C 418.974,233.491 418.787,233.202 418.768,232.872 C 418.74,231.218 418.823,229.559 418.684,227.909 C 419.122,227.944 419.561,227.965 420.001,227.969 C 420.001,227.455 420.001,226.942 420.001,226.428 C 418.231,226.428 416.46,226.428 414.69,226.428 C 414.69,226.864 414.69,227.3 414.69,227.736 C 415.052,227.77 415.519,227.819 415.683,228.202 C 415.951,228.859 415.869,229.588 415.887,230.28 C 415.903,231.746 415.836,233.215 415.967,234.678 C 415.493,234.659 415.021,234.637 414.548,234.618 C 414.548,235.131 414.548,235.644 414.548,236.156 C 415.608,236.188 416.751,236.191 417.686,236.762 C 418.011,236.77 418.337,236.768 418.663,236.767 C 418.722,236.175 418.734,235.581 418.75,234.986 C 419.254,235.636 419.826,236.274 420.586,236.628 Z" marker-start="none" marker-end="none"/>
   <path d="M 366.79,236.158 C 367.852,236.186 368.995,236.193 369.933,236.763 C 370.289,236.77 370.648,236.768 371.005,236.767 C 371.005,234.46 371.005,232.155 371.005,229.848 C 371.005,229.202 370.979,228.554 370.925,227.909 C 371.363,227.944 371.802,227.965 372.242,227.969 C 372.242,227.455 372.242,226.942 372.242,226.428 C 370.472,226.427 368.702,226.428 366.932,226.428 C 366.931,226.864 366.931,227.3 366.932,227.736 C 367.255,227.776 367.635,227.795 367.852,228.075 C 368.057,228.395 368.084,228.79 368.114,229.159 C 368.17,230.998 368.054,232.842 368.208,234.678 C 367.735,234.659 367.263,234.639 366.79,234.617 C 366.789,235.131 366.789,235.644 366.79,236.158 Z" marker-start="none" marker-end="none"/>
   <path d="M 332.75,236.168 C 333.224,236.438 333.861,235.968 333.743,235.436 C 333.682,234.931 333.008,234.673 332.628,235.012 C 332.238,235.298 332.311,235.969 332.75,236.168 Z" marker-start="none" marker-end="none"/>
   <path d="M 486.107,223.998 C 486.575,224.127 487.113,224.008 487.465,223.667 C 488.21,222.986 488.192,221.617 487.374,221.001 C 486.671,220.481 485.555,220.735 485.147,221.512 C 484.612,222.403 485.089,223.719 486.107,223.998 Z" marker-start="none" marker-end="none"/>
   <path d="M 430.621,223.61 C 430.837,223.679 431.022,223.823 431.243,223.879 C 431.581,223.906 431.921,223.884 432.261,223.888 C 432.26,221.897 432.262,219.906 432.26,217.915 C 432.883,218.379 433.598,218.709 434.345,218.913 C 435.093,219.12 435.901,219.07 436.636,218.834 C 437.252,218.636 437.781,218.192 438.07,217.612 C 438.571,216.618 438.634,215.475 438.648,214.382 C 438.634,212.945 438.692,211.502 438.565,210.067 C 439.004,210.1 439.443,210.121 439.884,210.127 C 439.884,209.613 439.884,209.1 439.884,208.586 C 438.106,208.585 436.329,208.586 434.552,208.586 C 434.552,209.021 434.552,209.455 434.552,209.89 C 434.889,209.934 435.304,209.958 435.509,210.276 C 435.751,210.71 435.754,211.229 435.766,211.712 C 435.763,212.686 435.756,213.658 435.745,214.632 C 435.73,215.278 435.687,215.956 435.361,216.529 C 435.167,216.872 434.804,217.108 434.414,217.151 C 433.632,217.27 432.848,216.935 432.259,216.436 C 432.264,215.034 432.259,213.63 432.261,212.227 C 432.263,211.506 432.243,210.785 432.18,210.066 C 432.619,210.1 433.058,210.12 433.498,210.127 C 433.498,209.613 433.498,209.1 433.498,208.586 C 431.727,208.585 429.957,208.586 428.186,208.585 C 428.186,209.02 428.187,209.454 428.185,209.888 C 428.613,209.899 429.115,210.046 429.256,210.502 C 429.443,211.203 429.364,211.939 429.384,212.656 C 429.387,215.207 429.379,217.757 429.388,220.306 C 429.391,220.806 429.421,221.304 429.464,221.801 C 428.99,221.783 428.517,221.761 428.044,221.74 C 428.044,222.255 428.044,222.768 428.044,223.281 C 428.91,223.294 429.794,223.326 430.621,223.61 Z" marker-start="none" marker-end="none"/>
   <path d="M 443.525,223.75 C 443.921,224.001 444.41,223.852 444.851,223.888 C 444.849,220.431 444.851,216.973 444.85,213.514 C 444.848,212.365 444.873,211.212 444.768,210.065 C 445.206,210.102 445.645,210.12 446.085,210.127 C 446.086,209.614 446.085,209.1 446.087,208.586 C 444.316,208.584 442.545,208.586 440.775,208.586 C 440.774,209.021 440.774,209.455 440.775,209.89 C 441.172,209.911 441.644,210.012 441.811,210.425 C 442.029,211.027 441.951,211.686 441.97,212.314 C 441.97,214.808 441.97,217.301 441.97,219.795 C 441.969,220.465 441.993,221.134 442.052,221.802 C 441.578,221.782 441.105,221.761 440.633,221.74 C 440.632,222.255 440.632,222.768 440.633,223.282 C 441.607,223.302 442.63,223.319 443.525,223.75 Z" marker-start="none" marker-end="none"/>
   <path d="M 479.421,223.606 C 479.642,223.675 479.831,223.825 480.057,223.879 C 480.395,223.906 480.735,223.885 481.074,223.887 C 481.073,221.091 481.074,218.294 481.073,215.497 C 481.049,213.687 481.136,211.872 480.993,210.066 C 481.431,210.1 481.87,210.12 482.31,210.126 C 482.31,209.613 482.31,209.099 482.31,208.586 C 480.54,208.585 478.77,208.586 477.001,208.585 C 476.999,209.02 477,209.454 476.997,209.889 C 477.408,209.905 477.894,210.026 478.049,210.458 C 478.254,211.081 478.174,211.754 478.195,212.399 C 478.195,214.864 478.195,217.328 478.195,219.793 C 478.194,220.463 478.216,221.134 478.276,221.802 C 477.802,221.781 477.33,221.762 476.859,221.74 C 476.857,222.254 476.857,222.768 476.859,223.281 C 477.719,223.293 478.598,223.326 479.421,223.606 Z" marker-start="none" marker-end="none"/>
   <path d="M 419.326,223.771 C 419.725,223.869 420.17,223.753 420.46,223.459 C 421.102,222.854 421.116,221.709 420.458,221.111 C 420.063,220.702 419.371,220.628 418.908,220.966 C 418.433,221.294 418.194,221.9 418.269,222.467 C 418.328,223.053 418.746,223.616 419.326,223.771 Z" marker-start="none" marker-end="none"/>
   <path d="M 422.854,223.771 C 423.702,224.001 424.468,223.182 424.471,222.371 C 424.557,221.549 423.856,220.654 422.988,220.759 C 422.19,220.846 421.678,221.719 421.796,222.476 C 421.858,223.058 422.276,223.618 422.854,223.771 Z" marker-start="none" marker-end="none"/>
   <path d="M 469.014,223.785 C 469.681,223.931 470.313,223.417 470.492,222.796 C 470.686,222.19 470.522,221.468 470.022,221.056 C 469.602,220.673 468.907,220.647 468.469,221.012 C 467.852,221.484 467.706,222.423 468.093,223.084 C 468.291,223.425 468.617,223.713 469.014,223.785 Z" marker-start="none" marker-end="none"/>
   <path d="M 472.539,223.784 C 473.403,223.971 474.132,223.099 474.097,222.284 C 474.145,221.453 473.376,220.59 472.509,220.773 C 471.673,220.949 471.227,221.937 471.467,222.72 C 471.609,223.223 472.011,223.681 472.539,223.784 Z" marker-start="none" marker-end="none"/>
   <path d="M 459.262,219.272 C 459.897,219.781 460.362,220.486 460.625,221.254 C 461.123,221.254 461.622,221.254 462.121,221.254 C 462.112,220.41 462.107,219.565 462.1,218.721 C 462.958,218.721 463.816,218.721 464.674,218.721 C 464.674,218.2 464.674,217.68 464.675,217.159 C 463.816,217.141 462.958,217.119 462.1,217.099 C 462.094,215.618 462.088,214.137 462.082,212.655 C 462.086,211.976 462.036,211.24 462.394,210.631 C 462.636,210.21 463.175,210.073 463.625,210.185 C 464.28,210.331 464.755,210.848 465.145,211.361 C 465.466,211.056 465.79,210.754 466.113,210.451 C 465.625,209.779 465.092,209.086 464.329,208.715 C 463.381,208.282 462.282,208.125 461.268,208.401 C 460.662,208.564 460.12,208.955 459.791,209.491 C 459.301,210.276 459.191,211.23 459.183,212.138 C 459.191,213.771 459.209,215.404 459.221,217.037 C 458.762,217.037 458.303,217.037 457.843,217.037 C 457.842,217.595 457.842,218.153 457.843,218.711 C 458.363,218.74 458.864,218.935 459.262,219.272 Z" marker-start="none" marker-end="none"/>
   <path d="M 449.461,218.163 C 450.698,219.074 452.364,219.242 453.821,218.839 C 454.882,218.532 455.889,217.838 456.351,216.807 C 456.754,215.946 456.843,214.978 456.851,214.039 C 454.634,213.997 452.416,213.958 450.199,213.916 C 450.213,212.919 450.348,211.866 450.931,211.029 C 451.313,210.472 451.967,210.152 452.63,210.091 C 453.931,209.939 455.229,210.585 456.041,211.584 C 456.343,211.302 456.647,211.019 456.95,210.734 C 456.208,209.679 455.149,208.801 453.879,208.482 C 452.276,208.056 450.419,208.217 449.089,209.278 C 447.88,210.217 447.283,211.76 447.238,213.259 C 447.116,215.12 447.912,217.077 449.461,218.163 M 451.551,217.444 C 450.777,217.043 450.463,216.142 450.322,215.335 C 451.566,215.334 452.81,215.335 454.055,215.335 C 454.016,215.944 453.951,216.599 453.564,217.097 C 453.106,217.704 452.197,217.739 451.551,217.444 Z" marker-start="none" marker-end="none"/>
   <path d="M 468.978,218.684 C 469.904,219.01 470.903,219.099 471.878,219.009 C 472.728,218.923 473.601,218.598 474.153,217.919 C 474.804,217.129 474.958,216.062 474.952,215.07 C 474.922,213.402 474.983,211.73 474.851,210.066 C 475.289,210.101 475.727,210.12 476.166,210.127 C 476.166,209.613 476.166,209.099 476.167,208.585 C 474.89,208.586 473.613,208.585 472.336,208.586 C 472.308,208.901 472.282,209.214 472.255,209.529 C 471.697,208.98 471.011,208.545 470.241,208.376 C 469.501,208.215 468.7,208.199 467.992,208.494 C 467.246,208.806 466.696,209.517 466.543,210.306 C 466.391,211.106 466.51,211.986 466.988,212.66 C 467.344,213.173 467.871,213.539 468.425,213.81 C 469.574,214.383 470.86,214.626 472.134,214.689 C 472.121,215.302 472.182,215.925 472.049,216.528 C 471.957,216.949 471.692,217.365 471.265,217.502 C 470.59,217.707 469.828,217.509 469.311,217.037 C 469.658,216.498 469.61,215.716 469.109,215.286 C 468.783,214.997 468.309,214.952 467.896,215.026 C 467.432,215.113 467.079,215.515 466.975,215.963 C 466.848,216.515 466.986,217.116 467.33,217.564 C 467.737,218.107 468.347,218.46 468.978,218.684 M 470.345,212.753 C 469.958,212.559 469.596,212.26 469.447,211.84 C 469.324,211.478 469.311,211.045 469.517,210.709 C 469.77,210.33 470.27,210.213 470.701,210.257 C 471.249,210.29 471.737,210.593 472.116,210.972 C 472.11,211.731 472.115,212.49 472.114,213.249 C 471.505,213.171 470.891,213.045 470.345,212.753 Z" marker-start="none" marker-end="none"/>
   <path d="M 418.547,218.882 C 418.918,218.974 419.311,218.905 419.693,218.923 C 419.695,216.834 419.688,214.746 419.696,212.658 C 419.718,211.956 419.742,211.195 420.146,210.59 C 420.427,210.178 420.973,210.074 421.438,210.154 C 422.073,210.266 422.634,210.641 423.081,211.095 C 423.1,213.008 423.013,214.926 423.159,216.835 C 422.685,216.815 422.212,216.795 421.741,216.774 C 421.74,217.288 421.74,217.802 421.741,218.315 C 422.62,218.329 423.523,218.357 424.358,218.666 C 424.589,218.743 424.784,218.931 425.039,218.923 C 425.344,218.933 425.651,218.922 425.957,218.923 C 425.957,216.634 425.958,214.345 425.957,212.055 C 425.955,211.393 425.934,210.729 425.876,210.067 C 426.313,210.1 426.752,210.121 427.192,210.126 C 427.192,209.613 427.192,209.099 427.192,208.585 C 425.909,208.586 424.625,208.585 423.341,208.586 C 423.3,208.941 423.261,209.297 423.219,209.652 C 422.483,209.044 421.676,208.422 420.699,208.299 C 419.977,208.218 419.218,208.272 418.546,208.565 C 417.968,208.811 417.519,209.301 417.277,209.876 C 416.869,210.832 416.817,211.89 416.815,212.916 C 416.821,214.222 416.789,215.53 416.875,216.834 C 416.402,216.814 415.929,216.795 415.457,216.775 C 415.457,217.288 415.457,217.802 415.457,218.315 C 416.503,218.336 417.609,218.36 418.547,218.882 Z" marker-start="none" marker-end="none"/>
   <path d="M 486.64,218.898 C 486.995,218.96 487.362,218.911 487.723,218.923 C 487.722,216.632 487.723,214.342 487.723,212.052 C 487.722,211.389 487.7,210.726 487.642,210.066 C 488.08,210.1 488.519,210.121 488.96,210.126 C 488.96,209.613 488.96,209.1 488.96,208.586 C 487.189,208.585 485.419,208.586 483.649,208.585 C 483.648,209.021 483.648,209.456 483.648,209.891 C 483.965,209.933 484.342,209.95 484.56,210.222 C 484.784,210.559 484.804,210.98 484.834,211.369 C 484.882,213.191 484.772,215.017 484.926,216.835 C 484.452,216.815 483.979,216.794 483.506,216.775 C 483.505,217.288 483.505,217.802 483.507,218.316 C 484.569,218.331 485.688,218.37 486.64,218.898 Z" marker-start="none" marker-end="none"/>
  </g>
 </g>
 <g id="Sponsoren" transform="scale(1 -1)"/>
 <g id="Content" transform="scale(1 -1)"/>
 <g id="Logo Vektor" transform="scale(1 -1)"/>
</svg>
