<?xml version="1.0" standalone="no"?>
<!DOCTYPE svg PUBLIC "-//W3C//DTD SVG 1.1//EN" "http://www.w3.org/Graphics/SVG/1.1/DTD/svg11.dtd">
<!--Generator: Xara Designer (www.xara.com), SVG filter version: 6.6.0.0-->
<svg fill="none" fill-rule="evenodd" stroke="black" stroke-width="0.501" stroke-linejoin="bevel" stroke-miterlimit="10" font-family="Times New Roman" font-size="16" style="font-variant-ligatures:none" xmlns:xlink="http://www.w3.org/1999/xlink" xmlns="http://www.w3.org/2000/svg" version="1.1" overflow="visible" width="99.279pt" height="42.346pt" viewBox="83.991 -571.497 99.279 42.346">
 <defs>
	</defs>
 <g id="Layer 1" transform="scale(1 -1)"/>
 <g id="Sponsoren" transform="scale(1 -1)"/>
 <g id="Content" transform="scale(1 -1)"/>
 <g id="Logo Vektor" transform="scale(1 -1)">
  <g id="Group" fill-rule="nonzero" stroke-linejoin="miter" stroke="none" stroke-width="0.008">
   <path d="M 182.975,556.742 C 185.312,545.602 173.505,533.698 156.604,530.153 C 139.704,526.609 124.109,532.766 121.773,543.906 C 119.437,555.046 131.244,566.95 148.144,570.495 C 165.045,574.039 180.639,567.881 182.975,556.742 Z" fill="#0b6083" marker-start="none" marker-end="none"/>
   <path d="M 126.824,545.253 L 128.791,545.253 L 128.791,551.865 L 131.038,551.865 L 131.038,553.515 L 124.577,553.515 L 124.577,551.865 L 126.824,551.865 L 126.824,545.253 Z M 132.434,545.253 L 134.414,545.253 L 134.414,548.159 L 135.378,548.159 L 136.901,545.253 L 139.109,545.253 L 137.269,548.527 C 138.119,548.933 138.69,549.707 138.69,550.913 C 138.69,552.905 137.218,553.515 135.467,553.515 L 132.434,553.515 L 132.434,545.253 Z M 134.414,549.72 L 134.414,551.954 L 135.314,551.954 C 136.254,551.954 136.761,551.7 136.761,550.913 C 136.761,550.126 136.254,549.72 135.314,549.72 L 134.414,549.72 Z M 142.295,549.39 C 142.511,550.202 142.727,551.179 142.93,552.042 L 142.98,552.042 C 143.196,551.179 143.412,550.202 143.628,549.39 L 143.805,548.679 L 142.117,548.679 L 142.295,549.39 Z M 139.236,545.253 L 141.254,545.253 L 141.737,547.156 L 144.186,547.156 L 144.668,545.253 L 146.75,545.253 L 144.173,553.515 L 141.813,553.515 L 139.236,545.253 Z M 141.546,554.111 C 142.092,554.111 142.473,554.504 142.473,555.038 C 142.473,555.558 142.092,555.951 141.546,555.951 C 141.013,555.951 140.632,555.558 140.632,555.038 C 140.632,554.504 141.013,554.111 141.546,554.111 Z M 144.389,554.111 C 144.922,554.111 145.303,554.504 145.303,555.038 C 145.303,555.558 144.922,555.951 144.389,555.951 C 143.843,555.951 143.463,555.558 143.463,555.038 C 143.463,554.504 143.843,554.111 144.389,554.111 Z M 150.887,545.1 C 153.083,545.1 154.187,546.344 154.187,549.136 L 154.187,553.515 L 152.296,553.515 L 152.296,548.92 C 152.296,547.347 151.801,546.801 150.887,546.801 C 149.986,546.801 149.516,547.347 149.516,548.92 L 149.516,553.515 L 147.549,553.515 L 147.549,549.136 C 147.549,546.344 148.692,545.1 150.887,545.1 Z M 156.179,545.253 L 157.956,545.253 L 157.956,548.121 C 157.956,548.933 157.791,550.342 157.69,551.154 L 157.741,551.154 L 158.4,548.996 L 159.505,545.951 L 160.621,545.951 L 161.738,548.996 L 162.424,551.154 L 162.474,551.154 C 162.373,550.342 162.208,548.933 162.208,548.121 L 162.208,545.253 L 163.997,545.253 L 163.997,553.515 L 161.84,553.515 L 160.583,549.923 C 160.419,549.44 160.291,548.946 160.139,548.425 L 160.088,548.425 C 159.936,548.946 159.796,549.44 159.644,549.923 L 158.337,553.515 L 156.179,553.515 L 156.179,545.253 Z M 167.018,545.1 C 167.69,545.1 168.198,545.633 168.198,546.318 C 168.198,547.004 167.69,547.537 167.018,547.537 C 166.345,547.537 165.85,547.004 165.85,546.318 C 165.85,545.633 166.345,545.1 167.018,545.1 Z M 170.051,545.253 L 175.242,545.253 L 175.242,546.902 L 172.031,546.902 L 172.031,553.515 L 170.051,553.515 L 170.051,545.253 Z M 176.802,545.253 L 178.782,545.253 L 178.782,553.515 L 176.802,553.515 L 176.802,545.253 Z" fill="#ffffff" marker-start="none" marker-end="none"/>
   <path d="M 85.476,545.253 L 87.938,545.253 L 88.648,548.87 C 88.788,549.517 88.877,550.164 88.966,550.824 L 89.017,550.824 C 89.093,550.164 89.181,549.517 89.321,548.87 L 90.07,545.253 L 92.57,545.253 L 94.029,553.515 L 92.152,553.515 L 91.593,549.732 C 91.491,548.882 91.377,548.006 91.288,547.093 L 91.238,547.093 C 91.085,548.006 90.92,548.895 90.755,549.732 L 89.918,553.515 L 88.217,553.515 L 87.354,549.732 C 87.189,548.87 87.024,547.993 86.872,547.093 L 86.821,547.093 C 86.732,547.993 86.631,548.857 86.516,549.732 L 85.996,553.515 L 83.991,553.515 L 85.476,545.253 Z M 98.662,545.1 C 100.908,545.1 102.444,546.712 102.444,549.415 C 102.444,552.118 100.908,553.667 98.662,553.667 C 96.415,553.667 94.88,552.131 94.88,549.415 C 94.88,546.712 96.415,545.1 98.662,545.1 Z M 98.662,546.801 C 97.583,546.801 96.898,547.816 96.898,549.415 C 96.898,551.027 97.583,551.966 98.662,551.966 C 99.754,551.966 100.426,551.027 100.426,549.415 C 100.426,547.816 99.754,546.801 98.662,546.801 Z M 104.107,545.253 L 106.086,545.253 L 106.086,548.654 L 108.815,548.654 L 108.815,545.253 L 110.782,545.253 L 110.782,553.515 L 108.815,553.515 L 108.815,550.367 L 106.086,550.367 L 106.086,553.515 L 104.107,553.515 L 104.107,545.253 Z M 112.813,545.253 L 114.691,545.253 L 114.691,548.032 C 114.691,549.022 114.539,550.164 114.437,551.078 L 114.488,551.078 C 114.742,550.431 115.009,549.77 115.288,549.212 L 117.331,545.253 L 119.361,545.253 L 119.361,553.515 L 117.496,553.515 L 117.496,550.735 C 117.496,549.758 117.648,548.578 117.75,547.689 L 117.699,547.689 C 117.445,548.337 117.179,548.996 116.887,549.555 L 114.856,553.515 L 112.813,553.515 L 112.813,545.253 Z" fill="#0b6083" marker-start="none" marker-end="none"/>
  </g>
 </g>
</svg>
