<?xml version="1.0" standalone="no"?>
<!DOCTYPE svg PUBLIC "-//W3C//DTD SVG 1.1//EN" "http://www.w3.org/Graphics/SVG/1.1/DTD/svg11.dtd">
<!--Generator: Xara Designer (www.xara.com), SVG filter version: 6.6.0.0-->
<svg fill="none" fill-rule="evenodd" stroke="black" stroke-width="0.501" stroke-linejoin="bevel" stroke-miterlimit="10" font-family="Times New Roman" font-size="16" style="font-variant-ligatures:none" xmlns:xlink="http://www.w3.org/1999/xlink" xmlns="http://www.w3.org/2000/svg" version="1.1" overflow="visible" width="54.757pt" height="12.926pt" viewBox="48.225 -404.802 54.757 12.926">
 <defs>
	</defs>
 <g id="Layer 1" transform="scale(1 -1)"/>
 <g id="Sponsoren" transform="scale(1 -1)"/>
 <g id="Content" transform="scale(1 -1)">
  <g id="Group" fill-rule="nonzero" stroke="none">
   <g id="Group_1" stroke-width="0">
    <path d="M 102.982,404.802 L 48.225,404.802 L 48.225,391.876 L 102.982,391.876 L 102.982,404.802 Z" marker-start="none" marker-end="none"/>
    <path d="M 48.225,392.819 L 48.225,392.82 L 48.225,403.86 C 48.225,404.379 48.648,404.802 49.167,404.802 L 102.039,404.802 C 102.559,404.802 102.982,404.379 102.982,403.86 L 102.982,393.315 L 69.724,393.315 C 69.432,393.315 69.193,393.1 69.151,392.819 L 69.142,392.819 L 69.142,391.876 L 49.167,391.876 C 48.648,391.876 48.225,392.299 48.225,392.819 Z" fill="#ff0000" stroke-linejoin="miter" marker-start="none" marker-end="none"/>
   </g>
   <path d="M 98.571,398.442 C 97.592,398.462 96.48,398.288 96.48,397.33 C 96.48,396.737 96.868,396.473 97.316,396.473 C 97.969,396.473 98.388,396.88 98.531,397.299 C 98.561,397.391 98.571,397.492 98.571,397.584 L 98.571,398.442 Z M 99.449,397.105 C 99.449,396.676 99.469,396.258 99.519,395.922 L 98.714,395.922 L 98.633,396.544 L 98.602,396.544 C 98.336,396.156 97.796,395.809 97.092,395.809 C 96.092,395.809 95.582,396.513 95.582,397.227 C 95.582,398.42 96.643,399.074 98.55,399.064 L 98.55,399.166 C 98.55,399.573 98.438,400.318 97.428,400.308 C 96.959,400.308 96.48,400.176 96.132,399.941 L 95.928,400.543 C 96.337,400.798 96.939,400.972 97.561,400.972 C 99.082,400.972 99.449,399.941 99.449,398.952 L 99.449,397.105 Z M 87.376,399.523 C 87.376,400.042 87.355,400.451 87.335,400.859 L 88.12,400.859 L 88.162,400.064 L 88.191,400.064 C 88.467,400.533 88.926,400.972 89.752,400.972 C 90.415,400.972 90.926,400.563 91.14,399.982 L 91.16,399.982 C 91.313,400.267 91.518,400.471 91.721,400.624 C 92.017,400.849 92.333,400.972 92.803,400.972 C 93.466,400.972 94.435,400.543 94.435,398.829 L 94.435,395.922 L 93.557,395.922 L 93.557,398.716 C 93.557,399.676 93.201,400.237 92.487,400.237 C 91.966,400.237 91.578,399.859 91.415,399.43 C 91.374,399.298 91.343,399.136 91.343,398.981 L 91.343,395.922 L 90.467,395.922 L 90.467,398.889 C 90.467,399.676 90.119,400.237 89.436,400.237 C 88.885,400.237 88.467,399.788 88.324,399.339 C 88.273,399.207 88.253,399.054 88.253,398.9 L 88.253,395.922 L 87.376,395.922 L 87.376,399.523 Z M 85.284,398.869 C 85.294,399.441 85.049,400.329 84.049,400.329 C 83.131,400.329 82.743,399.492 82.672,398.869 L 85.284,398.869 Z M 82.662,398.227 C 82.683,397.023 83.447,396.524 84.346,396.524 C 84.988,396.524 85.385,396.636 85.713,396.778 L 85.876,396.135 C 85.558,395.993 85.008,395.819 84.223,395.819 C 82.714,395.819 81.794,396.829 81.794,398.309 C 81.794,399.798 82.683,400.972 84.121,400.972 C 85.733,400.972 86.15,399.553 86.15,398.645 C 86.15,398.462 86.141,398.329 86.121,398.227 L 82.662,398.227 Z M 76.376,399.523 C 76.376,400.042 76.365,400.451 76.335,400.859 L 77.131,400.859 L 77.182,400.053 L 77.202,400.053 C 77.447,400.511 78.017,400.972 78.834,400.972 C 79.518,400.972 80.579,400.563 80.579,398.869 L 80.579,395.922 L 79.681,395.922 L 79.681,398.768 C 79.681,399.564 79.385,400.237 78.538,400.237 C 77.957,400.237 77.498,399.819 77.334,399.319 C 77.293,399.207 77.274,399.043 77.274,398.9 L 77.274,395.922 L 76.376,395.922 L 76.376,399.523 Z M 73.924,400.859 L 74.823,400.859 L 74.823,395.922 L 73.924,395.922 L 73.924,400.859 Z M 74.353,401.695 C 74.026,401.695 73.813,401.95 73.813,402.246 C 73.813,402.562 74.037,402.807 74.373,402.807 C 74.699,402.807 74.924,402.562 74.924,402.246 C 74.924,401.95 74.711,401.695 74.363,401.695 L 74.353,401.695 Z M 72.833,396.105 C 72.598,395.993 72.078,395.819 71.415,395.819 C 69.926,395.819 68.956,396.829 68.956,398.34 C 68.956,399.859 69.997,400.972 71.609,400.972 C 72.14,400.972 72.609,400.838 72.853,400.706 L 72.65,400.022 C 72.436,400.135 72.098,400.257 71.609,400.257 C 70.476,400.257 69.864,399.41 69.864,398.39 C 69.864,397.248 70.599,396.544 71.579,396.544 C 72.088,396.544 72.425,396.666 72.68,396.778 L 72.833,396.105 Z M 67.767,400.859 L 67.767,397.935 C 67.767,396.76 66.71,395.809 65.406,395.809 C 64.101,395.809 63.044,396.76 63.044,397.935 L 63.044,400.859 L 64.595,400.859 L 64.595,397.872 C 64.595,397.424 64.958,397.061 65.406,397.061 C 65.853,397.061 66.215,397.424 66.215,397.872 L 66.215,400.859 L 67.767,400.859 Z M 56.443,400.859 L 56.443,397.935 C 56.443,397.012 55.788,396.228 54.874,395.935 L 54.874,395.056 C 54.873,394.259 54.229,393.615 53.432,393.615 L 53.383,393.615 C 53.312,393.615 53.253,393.672 53.253,393.744 L 53.253,395.946 C 52.359,396.249 51.721,397.024 51.721,397.935 L 51.721,400.859 L 53.272,400.859 L 53.272,397.872 C 53.272,397.424 53.635,397.061 54.082,397.061 C 54.53,397.061 54.893,397.424 54.893,397.872 L 54.893,400.859 L 56.443,400.859 Z M 59.76,396.922 L 59.749,396.922 C 59.096,396.922 58.739,397.563 58.739,398.411 C 58.739,399.156 59.025,399.911 59.76,399.911 C 60.463,399.911 60.748,399.156 60.748,398.42 C 60.748,397.523 60.372,396.922 59.76,396.922 Z M 59.81,401.022 C 58.198,401.022 57.137,399.993 57.137,398.38 C 57.137,396.768 58.26,395.809 59.718,395.809 L 59.729,395.809 C 61.055,395.809 62.35,396.646 62.35,398.462 C 62.35,399.971 61.33,401.022 59.81,401.022 Z" fill="#ffffff" stroke-width="0.022" stroke-linejoin="miter" marker-start="none" marker-end="none"/>
  </g>
 </g>
 <g id="Logo Vektor" transform="scale(1 -1)"/>
</svg>
