<svg version="1.1" id="Layer_1" xmlns="http://www.w3.org/2000/svg" xmlns:xlink="http://www.w3.org/1999/xlink" x="0px" y="0px"
	 width="100%" viewBox="0 0 894 1374" enable-background="new 0 0 894 1374" xml:space="preserve">
<path fill="#FFFFFF" opacity="1.000000" stroke="none" 
	d="
M895.000000,477.000000 
	C895.000000,776.286560 895.000000,1075.573120 895.000000,1374.929810 
	C597.093384,1374.929810 299.186707,1374.929810 1.000000,1374.929810 
	C1.000000,1078.973145 1.000000,782.946289 1.380388,486.601929 
	C2.504629,490.899445 3.242051,495.515503 3.993535,500.129303 
	C6.327073,514.456238 8.202808,528.876587 11.097396,543.089355 
	C17.488195,574.468933 28.457823,604.384216 42.192234,633.219604 
	C48.352200,646.152344 55.703568,658.553772 63.044670,670.880432 
	C78.268715,696.443542 96.374146,719.911194 117.001366,741.307800 
	C128.142319,752.864258 139.902161,763.902649 152.091400,774.347778 
	C164.249435,784.766174 176.887238,794.736084 190.038391,803.859375 
	C212.430176,819.393127 236.093369,832.799622 260.977936,844.091553 
	C285.179199,855.073547 309.915222,864.437988 335.623535,871.151978 
	C337.637482,871.677917 340.643463,871.350708 342.219086,870.149048 
	C356.265228,859.436523 371.065918,849.452515 383.757263,837.285583 
	C402.759674,819.068237 421.356476,800.179871 438.053009,779.872742 
	C455.839081,758.240479 471.558838,734.864990 487.552155,711.814453 
	C507.582245,682.945923 523.998779,651.934265 539.740356,620.575012 
	C540.704041,618.655212 541.226196,616.513733 542.158936,613.900635 
	C515.753540,624.672974 489.097961,631.731689 461.552734,633.626404 
	C444.818756,634.777466 427.653931,634.011475 411.045654,631.603271 
	C387.428009,628.178711 365.210236,619.625854 344.305450,607.795044 
	C324.223358,596.429871 305.926147,582.664062 289.437988,566.681396 
	C278.308746,555.893311 267.904602,544.261597 258.024506,532.306152 
	C247.106491,519.094849 236.766174,505.359802 226.860809,491.366852 
	C200.702911,454.414459 179.345261,414.588776 158.343750,374.600189 
	C148.776443,356.383209 140.040588,337.726685 131.056564,319.206970 
	C117.090889,290.418091 103.229660,261.578552 89.335991,232.754745 
	C84.053520,221.795715 78.803741,210.820938 73.187302,199.120529 
	C72.043854,200.779068 71.331551,201.606857 70.843872,202.550705 
	C64.484947,214.857742 58.071621,227.137802 51.840672,239.509598 
	C38.849918,265.303223 28.712891,292.211243 20.546902,319.895782 
	C11.614947,350.177124 5.108604,380.900879 2.924480,412.465332 
	C2.840286,413.682129 1.666216,414.823486 1.000000,416.000000 
	C1.000000,277.735443 1.000000,139.470917 1.000000,1.000000 
	C143.693466,1.000000 286.387024,1.000000 429.328949,1.376069 
	C421.051910,2.497331 412.462524,2.814989 404.015015,4.080264 
	C388.353058,6.426130 372.677826,8.863869 357.181091,12.093464 
	C327.373047,18.305613 298.766083,28.406923 271.129456,41.063938 
	C245.501129,52.801208 220.933853,66.529205 197.786972,82.710991 
	C176.189056,97.809891 155.744858,114.282501 136.752197,132.589127 
	C131.770111,137.391251 129.159180,141.657562 130.730820,149.279922 
	C134.258759,166.390121 135.394760,184.014847 139.270493,201.027817 
	C149.161438,244.445419 164.719208,285.980103 183.690903,326.222748 
	C198.641617,357.936096 215.605881,388.574646 234.143463,418.326233 
	C239.557312,427.015137 245.576492,435.326904 251.832886,444.572083 
	C252.681793,440.461548 253.423752,437.313202 253.974304,434.131744 
	C257.913605,411.368286 264.261139,389.313080 273.971191,368.334473 
	C287.635193,338.813354 306.601624,313.442505 332.268127,293.044769 
	C353.400146,276.250641 376.794891,263.959991 402.067444,254.934921 
	C434.108337,243.492844 467.181305,236.896378 501.026276,234.002411 
	C517.591125,232.586014 534.166870,230.266556 550.742493,230.223953 
	C584.104736,230.138214 617.476379,231.119095 650.831787,232.085754 
	C668.150330,232.587646 685.447876,233.915131 702.744934,235.024475 
	C716.224670,235.888992 729.685852,237.037827 743.161072,237.977997 
	C758.294434,239.033829 773.434631,239.992722 788.571167,241.003265 
	C793.672729,241.343857 798.776123,241.666611 803.872131,242.078766 
	C817.658630,243.193771 831.441589,244.352371 845.908752,245.550217 
	C845.098267,243.728958 844.775269,242.642075 844.184143,241.728760 
	C834.422852,226.645844 825.439697,210.971985 814.642578,196.668137 
	C799.911743,177.152969 784.140137,158.384628 768.122681,139.895630 
	C760.111572,130.648438 750.800598,122.468414 741.652405,114.280754 
	C730.993652,104.741119 720.268921,95.191650 708.860413,86.591553 
	C688.603149,71.320930 667.320190,57.402470 644.456177,46.401917 
	C626.249207,37.641983 607.567078,29.543644 588.432800,23.129450 
	C569.494934,16.781107 549.886963,12.102896 530.272400,8.204165 
	C514.087097,4.987059 497.461639,3.987549 481.036835,1.960036 
	C480.329163,1.872680 479.677673,1.330369 479.000000,0.999995 
	C617.596680,1.000000 756.193420,1.000000 895.000000,1.000000 
	C895.000000,139.360123 895.000000,277.720367 894.642273,416.367798 
	C893.856445,415.092957 893.201599,413.554565 893.035950,411.965149 
	C891.622070,398.402161 890.978760,384.717468 888.764954,371.290131 
	C886.248169,356.025391 882.187805,341.020630 879.171387,325.828827 
	C878.427185,322.080933 876.741943,320.067017 873.399902,318.727539 
	C861.280823,313.870209 849.375488,308.430023 837.093140,304.038910 
	C795.648987,289.221985 752.641235,281.242462 709.082886,276.122009 
	C692.085327,274.123871 674.965210,272.862427 657.864014,272.141479 
	C642.189209,271.480682 626.463318,271.869293 610.762512,272.036316 
	C595.660278,272.196991 580.559143,272.592194 565.462585,273.049866 
	C561.479675,273.170624 557.515259,273.902710 553.057007,274.409149 
	C554.236145,275.642212 554.963318,276.531311 555.816956,277.275116 
	C563.268188,283.767609 571.152283,289.826355 578.099915,296.816925 
	C585.872803,304.637909 592.939758,313.180725 600.071716,321.614319 
	C615.353882,339.685699 626.990906,360.001678 634.467712,382.369476 
	C638.737976,395.144501 641.447388,408.518890 643.890442,421.801697 
	C645.725647,431.780060 646.564026,442.028351 646.822388,452.182556 
	C647.026306,460.195679 646.020386,468.296173 644.929626,476.272797 
	C643.135925,489.389618 641.655457,502.632324 638.593628,515.476440 
	C630.805847,548.145752 618.899414,579.440735 604.008301,609.504333 
	C594.561218,628.576904 584.701599,647.507080 573.874329,665.819580 
	C557.324158,693.811218 540.277954,721.539917 522.519043,748.778320 
	C503.587921,777.814575 483.589050,806.154846 464.045013,834.791321 
	C454.733765,848.434448 445.362885,862.037048 436.091980,875.707520 
	C433.526825,879.489990 431.223602,883.450012 428.046051,888.535522 
	C439.530823,887.975281 449.465118,887.702454 459.363983,886.958557 
	C474.617310,885.812378 489.921967,884.903320 505.065369,882.859924 
	C521.559265,880.634399 538.121155,878.138794 554.241455,874.111877 
	C575.094360,868.902771 595.748047,862.675293 616.104980,855.760132 
	C639.402710,847.846008 661.419434,836.775391 682.717834,824.522766 
	C705.466003,811.436096 727.369995,796.900757 746.506653,778.816711 
	C763.198364,763.043274 779.965759,747.185669 795.041321,729.917297 
	C807.463684,715.688110 817.978516,699.681213 828.394043,683.840942 
	C841.367798,664.110168 851.912170,642.953308 860.840759,621.101746 
	C870.974548,596.300293 878.847290,570.758118 884.310242,544.474426 
	C888.585571,523.905090 891.965027,503.247009 893.075928,482.241272 
	C893.169922,480.465240 894.333374,478.745758 895.000000,477.000000 
M615.466248,1089.963257 
	C610.848877,1083.680908 606.265930,1077.373047 601.605896,1071.122559 
	C595.026611,1062.297607 588.390381,1053.515259 581.603027,1044.481201 
	C583.597534,1043.795166 585.133240,1043.317017 586.632263,1042.743042 
	C595.521057,1039.338867 603.493042,1034.720825 609.549866,1027.039307 
	C618.996216,1015.059082 618.004517,994.869812 607.445068,983.870361 
	C597.112610,973.107300 583.822083,969.682617 569.812866,969.158875 
	C552.178772,968.499634 534.501465,968.993225 516.842773,969.014343 
	C515.587769,969.015869 514.332947,969.222473 513.373291,969.307495 
	C513.373291,1017.791931 513.373291,1065.842285 513.373291,1113.781494 
	C521.693970,1113.781494 529.639954,1113.781494 538.023376,1113.781494 
	C538.023376,1091.173096 538.023376,1068.777954 538.023376,1046.001587 
	C542.915466,1046.001587 547.377625,1045.920654 551.832764,1046.063232 
	C552.841736,1046.095459 554.198486,1046.628296 554.766846,1047.395996 
	C568.882874,1066.460205 583.198181,1085.388428 596.799683,1104.815674 
	C601.274292,1111.206909 605.510620,1115.823242 613.921692,1114.053589 
	C615.676514,1113.684448 617.575378,1114.000000 619.407898,1114.000000 
	C623.918823,1114.000000 628.429749,1114.000000 633.827087,1114.000000 
	C627.366943,1105.482178 621.676636,1097.979492 615.466248,1089.963257 
M340.961273,982.305237 
	C322.981354,1005.483826 304.974243,1028.641357 287.030609,1051.848022 
	C274.084167,1068.591797 261.086395,1085.299561 248.437286,1102.266235 
	C245.919205,1105.643799 241.008255,1108.138306 242.229706,1113.743042 
	C288.497620,1113.743042 334.585022,1113.743042 380.718201,1113.743042 
	C380.718201,1110.414185 380.718201,1107.348511 380.718201,1103.665649 
	C346.314484,1103.665649 312.188904,1103.665649 277.381165,1103.665649 
	C312.292084,1058.518188 346.639771,1014.098999 381.325043,969.243286 
	C334.237213,969.243286 288.296722,969.243286 242.267151,969.243286 
	C242.267151,972.556763 242.267151,975.621765 242.267151,979.157959 
	C275.861420,979.157959 309.191559,979.157959 343.052399,979.157959 
	C342.088409,980.322876 341.576508,980.941467 340.961273,982.305237 
M424.000000,1004.500000 
	C424.000000,996.072510 424.000000,987.645020 424.000000,978.792603 
	C447.688477,978.792603 470.755463,978.792603 493.647644,978.792603 
	C493.647644,975.274536 493.647644,972.210144 493.647644,969.364136 
	C461.904480,969.364136 430.514709,969.364136 399.370728,969.364136 
	C399.370728,1017.781738 399.370728,1065.834717 399.370728,1113.783447 
	C407.689240,1113.783447 415.635590,1113.783447 424.000000,1113.783447 
	C424.000000,1101.453857 424.000000,1089.337158 424.000000,1077.220459 
	C424.000000,1064.942261 424.000000,1052.664185 424.000000,1039.946533 
	C441.194031,1039.946533 457.928375,1039.946533 474.727295,1039.946533 
	C474.727295,1036.431030 474.727295,1033.366211 474.727295,1029.862549 
	C457.726868,1029.862549 440.994232,1029.862549 424.000000,1029.862549 
	C424.000000,1021.444580 424.000000,1013.472290 424.000000,1004.500000 
M603.856934,1165.509644 
	C606.890442,1171.259033 609.890076,1177.026733 612.985474,1182.742676 
	C613.622437,1183.918823 614.617065,1184.901367 615.446838,1185.973145 
	C616.305969,1184.936401 617.375977,1184.010498 617.988647,1182.844238 
	C621.043884,1177.028809 623.978943,1171.150269 626.956238,1165.293945 
	C627.306274,1165.390747 627.656311,1165.487427 628.006348,1165.584229 
	C628.006348,1172.273682 628.006348,1178.963013 628.006348,1185.726074 
	C629.881287,1185.726074 631.269714,1185.726074 632.737305,1185.726074 
	C632.737305,1176.046753 632.737305,1166.636108 632.737305,1157.337036 
	C628.886108,1156.195923 626.893372,1157.544189 625.391418,1161.005493 
	C622.985657,1166.549683 620.005249,1171.844360 616.765564,1178.234985 
	C613.530273,1171.930542 610.513611,1166.882446 608.317993,1161.499390 
	C606.688965,1157.505371 604.450684,1156.144653 600.005432,1157.450562 
	C600.005432,1166.096313 599.962708,1174.881104 600.080444,1183.663574 
	C600.090698,1184.426270 601.158997,1185.174805 601.735779,1185.929932 
	C602.155334,1185.182861 602.922363,1184.443481 602.939392,1183.687378 
	C603.074524,1177.701538 603.066833,1171.712402 603.856934,1165.509644 
M511.678650,1185.982788 
	C511.842957,1185.955688 512.019714,1185.957031 512.167603,1185.892212 
	C512.279114,1185.843384 512.446960,1185.645874 512.431274,1185.623047 
	C509.410797,1181.211426 506.376221,1176.809570 503.253021,1172.278076 
	C508.547577,1171.033813 509.582611,1167.104370 508.929565,1162.472046 
	C508.371765,1158.515015 505.007843,1157.392456 501.792328,1157.102661 
	C497.375305,1156.704590 492.895508,1157.003052 488.250305,1157.003052 
	C488.250305,1166.849121 488.250305,1176.245361 488.250305,1185.711426 
	C490.229309,1185.711426 491.954254,1185.711426 494.106506,1185.711426 
	C494.106506,1181.364014 494.106506,1177.286255 494.106506,1173.208496 
	C494.582550,1172.919800 495.058624,1172.631104 495.534668,1172.342407 
	C497.352020,1174.536133 499.139557,1176.755371 500.993744,1178.917603 
	C503.712677,1182.088013 504.942657,1187.373169 511.678650,1185.982788 
M407.879761,1174.349854 
	C409.467499,1176.614380 411.277374,1178.757690 412.593323,1181.170410 
	C414.823242,1185.258423 417.787018,1187.195679 422.772980,1185.550781 
	C419.515808,1181.088135 416.360321,1176.764893 413.197479,1172.431519 
	C418.478333,1169.770142 420.380280,1166.584961 418.867035,1161.940918 
	C417.566498,1157.949707 414.093597,1156.981567 410.253510,1156.996582 
	C406.304199,1157.011963 402.354767,1157.000000 398.263977,1157.000000 
	C398.263977,1166.884033 398.263977,1176.280640 398.263977,1185.694824 
	C400.257690,1185.694824 401.982819,1185.694824 404.002411,1185.694824 
	C404.002411,1182.089111 404.025146,1178.782227 403.995483,1175.475952 
	C403.970001,1172.639160 405.121338,1172.264526 407.879761,1174.349854 
M253.943863,1163.339233 
	C248.216278,1170.575439 242.488678,1177.811646 236.438721,1185.455200 
	C246.468399,1185.455200 255.647598,1185.455200 264.826782,1185.455200 
	C264.837738,1185.044312 264.848694,1184.633545 264.859680,1184.222656 
	C258.433350,1184.222656 252.007004,1184.222656 244.679916,1184.222656 
	C251.887344,1174.769043 258.426636,1166.191895 264.972778,1157.605713 
	C255.256714,1157.605713 246.201996,1157.605713 237.147278,1157.605713 
	C237.147156,1158.035156 237.147034,1158.464478 237.146912,1158.893921 
	C243.591705,1158.893921 250.036484,1158.893921 257.238068,1158.893921 
	C255.735397,1160.658203 254.901596,1161.637085 253.943863,1163.339233 
M523.070679,1180.596436 
	C522.367676,1182.195923 521.664673,1183.795532 520.674316,1186.048706 
	C526.885559,1185.597900 525.760437,1179.554199 528.738770,1177.215820 
	C535.182495,1176.453613 541.438721,1175.888550 543.943787,1184.266846 
	C544.291748,1185.430664 547.573242,1185.717407 550.687500,1186.838867 
	C545.848633,1176.204346 541.794373,1167.221191 537.642822,1158.283325 
	C537.228149,1157.390625 536.221008,1156.773071 535.488892,1156.027832 
	C534.928162,1156.845093 534.251587,1157.606323 533.824829,1158.488403 
	C530.366089,1165.637451 526.954224,1172.809326 523.070679,1180.596436 
M283.123535,1159.767212 
	C288.057770,1159.326782 292.992004,1158.886353 297.926270,1158.445923 
	C297.885406,1158.076050 297.844574,1157.706299 297.803711,1157.336426 
	C290.946960,1157.336426 284.090240,1157.336426 277.365662,1157.336426 
	C277.365662,1167.062744 277.365662,1176.448853 277.365662,1185.364868 
	C284.450836,1185.364868 291.161804,1185.364868 297.872772,1185.364868 
	C297.859802,1184.937744 297.846832,1184.510742 297.833862,1184.083618 
	C292.994995,1184.083618 288.156097,1184.083618 283.313904,1184.083618 
	C283.313904,1179.703613 283.313904,1175.977051 283.313904,1171.811035 
	C286.707275,1171.811035 289.788330,1171.811035 292.869385,1171.811035 
	C292.972626,1171.301514 293.075867,1170.791870 293.179138,1170.282349 
	C290.619659,1167.414673 286.392731,1170.133301 283.016541,1168.328003 
	C283.016541,1165.944458 283.016541,1163.325684 283.123535,1159.767212 
M443.658478,1159.000000 
	C447.395813,1159.000000 451.133118,1159.000000 454.870453,1159.000000 
	C454.851807,1158.460205 454.833160,1157.920410 454.814545,1157.380615 
	C448.001526,1157.380615 441.188538,1157.380615 434.297363,1157.380615 
	C434.297363,1166.923340 434.297363,1176.306763 434.297363,1185.461914 
	C441.352844,1185.461914 448.099426,1185.461914 454.846008,1185.461914 
	C454.855713,1184.999023 454.865417,1184.536133 454.875122,1184.073242 
	C449.947266,1184.073242 445.019440,1184.073242 440.246704,1184.073242 
	C440.246704,1179.609375 440.246704,1175.997925 440.246704,1172.529297 
	C443.410645,1170.807495 447.733978,1173.878296 451.046539,1168.960693 
	C446.637482,1168.960693 443.427765,1168.960693 440.005768,1168.960693 
	C440.005768,1166.027344 439.750061,1163.671265 440.129150,1161.422119 
	C440.285095,1160.496826 441.807343,1159.801636 443.658478,1159.000000 
M566.000000,1173.155518 
	C566.000000,1167.880981 566.000000,1162.606567 566.000000,1157.284180 
	C564.106567,1157.284180 562.718201,1157.284180 561.002869,1157.284180 
	C561.002869,1164.344116 560.894043,1171.134644 561.087830,1177.916626 
	C561.130310,1179.403564 561.985046,1181.060181 562.919800,1182.294922 
	C566.775024,1187.387573 574.874878,1188.588379 581.174194,1185.417480 
	C584.489380,1183.748657 586.056091,1181.316040 586.016846,1177.642456 
	C585.952881,1171.660034 586.030518,1165.676025 585.962952,1159.693726 
	C585.952820,1158.795044 585.479614,1157.901489 585.220642,1157.005615 
	C584.813660,1157.061523 584.406677,1157.117432 583.999695,1157.173218 
	C583.999695,1162.763428 584.096741,1168.355713 583.973999,1173.943237 
	C583.834473,1180.293823 580.185791,1184.089111 574.562378,1184.000000 
	C569.691162,1183.922974 567.110107,1180.928345 566.000000,1173.155518 
M373.016388,1160.709106 
	C374.638214,1160.139404 376.229187,1159.223267 377.888519,1159.075684 
	C380.891693,1158.808472 383.935638,1159.000000 386.962555,1159.000000 
	C386.909485,1158.439941 386.856384,1157.880005 386.803314,1157.319946 
	C380.291168,1157.319946 373.779022,1157.319946 367.303314,1157.319946 
	C367.303314,1167.022095 367.303314,1176.401367 367.303314,1186.033569 
	C369.345734,1185.935059 371.070374,1185.851929 373.244629,1185.747070 
	C373.244629,1180.921021 373.244629,1176.529541 373.244629,1171.989624 
	C376.204285,1171.989624 378.696960,1172.103149 381.165863,1171.910767 
	C381.793457,1171.861816 382.345245,1170.839966 382.931824,1170.265015 
	C382.353333,1169.847290 381.791779,1169.099854 381.193481,1169.068970 
	C378.596008,1168.935913 375.987823,1169.011963 373.002106,1169.011963 
	C373.002106,1166.225220 373.002106,1163.936035 373.016388,1160.709106 
M342.467957,1185.997314 
	C343.311829,1184.812256 344.851807,1183.647095 344.886414,1182.438843 
	C345.108215,1174.697021 344.999603,1166.945801 344.999603,1159.259155 
	C348.740448,1159.016968 351.821350,1158.817505 354.902252,1158.618042 
	C354.864563,1158.297485 354.826843,1157.976929 354.789124,1157.656372 
	C345.916046,1157.656372 337.042938,1157.656372 328.169830,1157.656372 
	C328.165527,1158.087891 328.161224,1158.519287 328.156921,1158.950806 
	C331.674377,1158.950806 335.191833,1158.950806 339.000336,1158.950806 
	C339.000336,1167.205566 338.889954,1174.828979 339.113708,1182.442627 
	C339.149200,1183.650269 340.689850,1184.813477 342.467957,1185.997314 
M472.902710,1185.138550 
	C472.902710,1175.895752 472.902710,1166.653076 472.902710,1157.251465 
	C470.824036,1157.251465 469.105286,1157.251465 467.238220,1157.251465 
	C467.238220,1166.871704 467.238220,1176.242310 467.238220,1185.862183 
	C469.087128,1185.862183 470.701172,1185.862183 472.902710,1185.138550 
M311.000000,1177.449463 
	C311.000000,1180.212402 311.000000,1182.975464 311.000000,1186.031860 
	C313.308838,1185.930176 315.027679,1185.854492 316.713684,1185.780273 
	C316.713684,1175.992310 316.713684,1166.627930 316.713684,1156.979980 
	C314.693054,1157.069458 312.972992,1157.145508 311.000000,1157.232788 
	C311.000000,1163.912842 311.000000,1170.186646 311.000000,1177.449463 
z"/>
<path fill="#92278F" opacity="1.000000" stroke="none" 
	d="
M1.000000,416.333313 
	C1.666216,414.823486 2.840286,413.682129 2.924480,412.465332 
	C5.108604,380.900879 11.614947,350.177124 20.546902,319.895782 
	C28.712891,292.211243 38.849918,265.303223 51.840672,239.509598 
	C58.071621,227.137802 64.484947,214.857742 70.843872,202.550705 
	C71.331551,201.606857 72.043854,200.779068 73.187302,199.120529 
	C78.803741,210.820938 84.053520,221.795715 89.335991,232.754745 
	C103.229660,261.578552 117.090889,290.418091 131.056564,319.206970 
	C140.040588,337.726685 148.776443,356.383209 158.343750,374.600189 
	C179.345261,414.588776 200.702911,454.414459 226.860809,491.366852 
	C236.766174,505.359802 247.106491,519.094849 258.024506,532.306152 
	C267.904602,544.261597 278.308746,555.893311 289.437988,566.681396 
	C305.926147,582.664062 324.223358,596.429871 344.305450,607.795044 
	C365.210236,619.625854 387.428009,628.178711 411.045654,631.603271 
	C427.653931,634.011475 444.818756,634.777466 461.552734,633.626404 
	C489.097961,631.731689 515.753540,624.672974 542.158936,613.900635 
	C541.226196,616.513733 540.704041,618.655212 539.740356,620.575012 
	C523.998779,651.934265 507.582245,682.945923 487.552155,711.814453 
	C471.558838,734.864990 455.839081,758.240479 438.053009,779.872742 
	C421.356476,800.179871 402.759674,819.068237 383.757263,837.285583 
	C371.065918,849.452515 356.265228,859.436523 342.219086,870.149048 
	C340.643463,871.350708 337.637482,871.677917 335.623535,871.151978 
	C309.915222,864.437988 285.179199,855.073547 260.977936,844.091553 
	C236.093369,832.799622 212.430176,819.393127 190.038391,803.859375 
	C176.887238,794.736084 164.249435,784.766174 152.091400,774.347778 
	C139.902161,763.902649 128.142319,752.864258 117.001366,741.307800 
	C96.374146,719.911194 78.268715,696.443542 63.044670,670.880432 
	C55.703568,658.553772 48.352200,646.152344 42.192234,633.219604 
	C28.457823,604.384216 17.488195,574.468933 11.097396,543.089355 
	C8.202808,528.876587 6.327073,514.456238 3.993535,500.129303 
	C3.242051,495.515503 2.504629,490.899445 1.380388,486.142212 
	C1.000000,485.555542 1.000000,485.111115 1.376068,484.144897 
	C1.501424,480.415436 1.250713,477.207733 1.000001,474.000000 
	C1.000000,458.979095 1.000000,443.958221 1.376068,428.280243 
	C1.501424,424.415436 1.250713,421.207733 1.000001,418.000000 
	C1.000000,417.555542 1.000000,417.111115 1.000000,416.333313 
z"/>
<path fill="#25AAE1" opacity="1.000000" stroke="none" 
	d="
M478.531342,0.999995 
	C479.677673,1.330369 480.329163,1.872680 481.036835,1.960036 
	C497.461639,3.987549 514.087097,4.987059 530.272400,8.204165 
	C549.886963,12.102896 569.494934,16.781107 588.432800,23.129450 
	C607.567078,29.543644 626.249207,37.641983 644.456177,46.401917 
	C667.320190,57.402470 688.603149,71.320930 708.860413,86.591553 
	C720.268921,95.191650 730.993652,104.741119 741.652405,114.280754 
	C750.800598,122.468414 760.111572,130.648438 768.122681,139.895630 
	C784.140137,158.384628 799.911743,177.152969 814.642578,196.668137 
	C825.439697,210.971985 834.422852,226.645844 844.184143,241.728760 
	C844.775269,242.642075 845.098267,243.728958 845.908752,245.550217 
	C831.441589,244.352371 817.658630,243.193771 803.872131,242.078766 
	C798.776123,241.666611 793.672729,241.343857 788.571167,241.003265 
	C773.434631,239.992722 758.294434,239.033829 743.161072,237.977997 
	C729.685852,237.037827 716.224670,235.888992 702.744934,235.024475 
	C685.447876,233.915131 668.150330,232.587646 650.831787,232.085754 
	C617.476379,231.119095 584.104736,230.138214 550.742493,230.223953 
	C534.166870,230.266556 517.591125,232.586014 501.026276,234.002411 
	C467.181305,236.896378 434.108337,243.492844 402.067444,254.934921 
	C376.794891,263.959991 353.400146,276.250641 332.268127,293.044769 
	C306.601624,313.442505 287.635193,338.813354 273.971191,368.334473 
	C264.261139,389.313080 257.913605,411.368286 253.974304,434.131744 
	C253.423752,437.313202 252.681793,440.461548 251.832886,444.572083 
	C245.576492,435.326904 239.557312,427.015137 234.143463,418.326233 
	C215.605881,388.574646 198.641617,357.936096 183.690903,326.222748 
	C164.719208,285.980103 149.161438,244.445419 139.270493,201.027817 
	C135.394760,184.014847 134.258759,166.390121 130.730820,149.279922 
	C129.159180,141.657562 131.770111,137.391251 136.752197,132.589127 
	C155.744858,114.282501 176.189056,97.809891 197.786972,82.710991 
	C220.933853,66.529205 245.501129,52.801208 271.129456,41.063938 
	C298.766083,28.406923 327.373047,18.305613 357.181091,12.093464 
	C372.677826,8.863869 388.353058,6.426130 404.015015,4.080264 
	C412.462524,2.814989 421.051910,2.497331 429.788635,1.376069 
	C446.020905,1.000000 462.041779,1.000000 478.531342,0.999995 
z"/>
<path fill="#8CC63F" opacity="1.000000" stroke="none" 
	d="
M895.000000,476.666687 
	C894.333374,478.745758 893.169922,480.465240 893.075928,482.241272 
	C891.965027,503.247009 888.585571,523.905090 884.310242,544.474426 
	C878.847290,570.758118 870.974548,596.300293 860.840759,621.101746 
	C851.912170,642.953308 841.367798,664.110168 828.394043,683.840942 
	C817.978516,699.681213 807.463684,715.688110 795.041321,729.917297 
	C779.965759,747.185669 763.198364,763.043274 746.506653,778.816711 
	C727.369995,796.900757 705.466003,811.436096 682.717834,824.522766 
	C661.419434,836.775391 639.402710,847.846008 616.104980,855.760132 
	C595.748047,862.675293 575.094360,868.902771 554.241455,874.111877 
	C538.121155,878.138794 521.559265,880.634399 505.065369,882.859924 
	C489.921967,884.903320 474.617310,885.812378 459.363983,886.958557 
	C449.465118,887.702454 439.530823,887.975281 428.046051,888.535522 
	C431.223602,883.450012 433.526825,879.489990 436.091980,875.707520 
	C445.362885,862.037048 454.733765,848.434448 464.045013,834.791321 
	C483.589050,806.154846 503.587921,777.814575 522.519043,748.778320 
	C540.277954,721.539917 557.324158,693.811218 573.874329,665.819580 
	C584.701599,647.507080 594.561218,628.576904 604.008301,609.504333 
	C618.899414,579.440735 630.805847,548.145752 638.593628,515.476440 
	C641.655457,502.632324 643.135925,489.389618 644.929626,476.272797 
	C646.020386,468.296173 647.026306,460.195679 646.822388,452.182556 
	C646.564026,442.028351 645.725647,431.780060 643.890442,421.801697 
	C641.447388,408.518890 638.737976,395.144501 634.467712,382.369476 
	C626.990906,360.001678 615.353882,339.685699 600.071716,321.614319 
	C592.939758,313.180725 585.872803,304.637909 578.099915,296.816925 
	C571.152283,289.826355 563.268188,283.767609 555.816956,277.275116 
	C554.963318,276.531311 554.236145,275.642212 553.057007,274.409149 
	C557.515259,273.902710 561.479675,273.170624 565.462585,273.049866 
	C580.559143,272.592194 595.660278,272.196991 610.762512,272.036316 
	C626.463318,271.869293 642.189209,271.480682 657.864014,272.141479 
	C674.965210,272.862427 692.085327,274.123871 709.082886,276.122009 
	C752.641235,281.242462 795.648987,289.221985 837.093140,304.038910 
	C849.375488,308.430023 861.280823,313.870209 873.399902,318.727539 
	C876.741943,320.067017 878.427185,322.080933 879.171387,325.828827 
	C882.187805,341.020630 886.248169,356.025391 888.764954,371.290131 
	C890.978760,384.717468 891.622070,398.402161 893.035950,411.965149 
	C893.201599,413.554565 893.856445,415.092957 894.642273,416.827515 
	C895.000000,417.444458 895.000000,417.888885 894.624817,418.880829 
	C894.499756,424.952209 894.749878,430.476105 895.000000,436.000000 
	C895.000000,442.687653 895.000000,449.375275 894.624512,456.745911 
	C894.499390,463.285950 894.749695,469.142975 895.000000,475.000000 
	C895.000000,475.444458 895.000000,475.888885 895.000000,476.666687 
z"/>
<path fill="#FFFFFF" opacity="1.000000" stroke="none" 
	d="
M895.000000,474.532043 
	C894.749695,469.142975 894.499390,463.285950 894.624512,457.214478 
	C895.000000,462.688049 895.000000,468.376068 895.000000,474.532043 
z"/>
<path fill="#FFFFFF" opacity="1.000000" stroke="none" 
	d="
M895.000000,435.532410 
	C894.749878,430.476105 894.499756,424.952209 894.624817,419.214172 
	C895.000000,424.354919 895.000000,429.709869 895.000000,435.532410 
z"/>
<path fill="#FFFFFF" opacity="1.000000" stroke="none" 
	d="
M1.000001,418.454102 
	C1.250713,421.207733 1.501424,424.415436 1.376068,427.811584 
	C1.000000,424.969391 1.000000,421.938812 1.000001,418.454102 
z"/>
<path fill="#FFFFFF" opacity="1.000000" stroke="none" 
	d="
M1.000001,474.454102 
	C1.250713,477.207733 1.501424,480.415436 1.376068,483.811584 
	C1.000000,480.969391 1.000000,477.938812 1.000001,474.454102 
z"/>
<path fill="#3A3A3C" opacity="1.000000" stroke="none" 
	d="
M615.726318,1090.219971 
	C621.676636,1097.979492 627.366943,1105.482178 633.827087,1114.000000 
	C628.429749,1114.000000 623.918823,1114.000000 619.407898,1114.000000 
	C617.575378,1114.000000 615.676514,1113.684448 613.921692,1114.053589 
	C605.510620,1115.823242 601.274292,1111.206909 596.799683,1104.815674 
	C583.198181,1085.388428 568.882874,1066.460205 554.766846,1047.395996 
	C554.198486,1046.628296 552.841736,1046.095459 551.832764,1046.063232 
	C547.377625,1045.920654 542.915466,1046.001587 538.023376,1046.001587 
	C538.023376,1068.777954 538.023376,1091.173096 538.023376,1113.781494 
	C529.639954,1113.781494 521.693970,1113.781494 513.373291,1113.781494 
	C513.373291,1065.842285 513.373291,1017.791931 513.373291,969.307495 
	C514.332947,969.222473 515.587769,969.015869 516.842773,969.014343 
	C534.501465,968.993225 552.178772,968.499634 569.812866,969.158875 
	C583.822083,969.682617 597.112610,973.107300 607.445068,983.870361 
	C618.004517,994.869812 618.996216,1015.059082 609.549866,1027.039307 
	C603.493042,1034.720825 595.521057,1039.338867 586.632263,1042.743042 
	C585.133240,1043.317017 583.597534,1043.795166 581.603027,1044.481201 
	C588.390381,1053.515259 595.026611,1062.297607 601.605896,1071.122559 
	C606.265930,1077.373047 610.848877,1083.680908 615.726318,1090.219971 
M588.958618,1011.076111 
	C589.888489,996.790222 582.506592,985.725647 569.916687,980.989624 
	C559.510437,977.075012 548.794434,979.834656 538.343872,978.943481 
	C538.343872,999.040955 538.343872,1018.438660 538.343872,1038.000000 
	C544.674561,1038.000000 550.700928,1038.435547 556.643555,1037.914917 
	C571.794678,1036.587036 585.567017,1028.917603 588.958618,1011.076111 
z"/>
<path fill="#3A3A3C" opacity="1.000000" stroke="none" 
	d="
M341.012939,981.932617 
	C341.576508,980.941467 342.088409,980.322876 343.052399,979.157959 
	C309.191559,979.157959 275.861420,979.157959 242.267151,979.157959 
	C242.267151,975.621765 242.267151,972.556763 242.267151,969.243286 
	C288.296722,969.243286 334.237213,969.243286 381.325043,969.243286 
	C346.639771,1014.098999 312.292084,1058.518188 277.381165,1103.665649 
	C312.188904,1103.665649 346.314484,1103.665649 380.718201,1103.665649 
	C380.718201,1107.348511 380.718201,1110.414185 380.718201,1113.743042 
	C334.585022,1113.743042 288.497620,1113.743042 242.229706,1113.743042 
	C241.008255,1108.138306 245.919205,1105.643799 248.437286,1102.266235 
	C261.086395,1085.299561 274.084167,1068.591797 287.030609,1051.848022 
	C304.974243,1028.641357 322.981354,1005.483826 341.012939,981.932617 
z"/>
<path fill="#3A3A3C" opacity="1.000000" stroke="none" 
	d="
M424.000000,1005.000000 
	C424.000000,1013.472290 424.000000,1021.444580 424.000000,1029.862549 
	C440.994232,1029.862549 457.726868,1029.862549 474.727295,1029.862549 
	C474.727295,1033.366211 474.727295,1036.431030 474.727295,1039.946533 
	C457.928375,1039.946533 441.194031,1039.946533 424.000000,1039.946533 
	C424.000000,1052.664185 424.000000,1064.942261 424.000000,1077.220459 
	C424.000000,1089.337158 424.000000,1101.453857 424.000000,1113.783447 
	C415.635590,1113.783447 407.689240,1113.783447 399.370728,1113.783447 
	C399.370728,1065.834717 399.370728,1017.781738 399.370728,969.364136 
	C430.514709,969.364136 461.904480,969.364136 493.647644,969.364136 
	C493.647644,972.210144 493.647644,975.274536 493.647644,978.792603 
	C470.755463,978.792603 447.688477,978.792603 424.000000,978.792603 
	C424.000000,987.645020 424.000000,996.072510 424.000000,1005.000000 
z"/>
<path fill="#58585A" opacity="1.000000" stroke="none" 
	d="
M603.479980,1165.616943 
	C603.066833,1171.712402 603.074524,1177.701538 602.939392,1183.687378 
	C602.922363,1184.443481 602.155334,1185.182861 601.735840,1185.929932 
	C601.158997,1185.174805 600.090698,1184.426270 600.080444,1183.663574 
	C599.962708,1174.881104 600.005432,1166.096313 600.005432,1157.450562 
	C604.450684,1156.144653 606.688965,1157.505371 608.317993,1161.499390 
	C610.513611,1166.882446 613.530273,1171.930542 616.765564,1178.234985 
	C620.005249,1171.844360 622.985657,1166.549683 625.391418,1161.005493 
	C626.893372,1157.544189 628.886108,1156.195923 632.737305,1157.337036 
	C632.737305,1166.636108 632.737305,1176.046753 632.737305,1185.726074 
	C631.269714,1185.726074 629.881287,1185.726074 628.006348,1185.726074 
	C628.006348,1178.963013 628.006348,1172.273682 628.006348,1165.584229 
	C627.656311,1165.487427 627.306274,1165.390747 626.956238,1165.293945 
	C623.978943,1171.150269 621.043884,1177.028809 617.988647,1182.844238 
	C617.375977,1184.010498 616.305969,1184.936401 615.446838,1185.973145 
	C614.617065,1184.901367 613.622437,1183.918823 612.985474,1182.742676 
	C609.890076,1177.026733 606.890442,1171.259033 603.479980,1165.616943 
z"/>
<path fill="#58585A" opacity="1.000000" stroke="none" 
	d="
M511.295349,1185.990479 
	C504.942657,1187.373169 503.712677,1182.088013 500.993744,1178.917603 
	C499.139557,1176.755371 497.352020,1174.536133 495.534668,1172.342407 
	C495.058624,1172.631104 494.582550,1172.919800 494.106506,1173.208496 
	C494.106506,1177.286255 494.106506,1181.364014 494.106506,1185.711426 
	C491.954254,1185.711426 490.229309,1185.711426 488.250305,1185.711426 
	C488.250305,1176.245361 488.250305,1166.849121 488.250305,1157.003052 
	C492.895508,1157.003052 497.375305,1156.704590 501.792328,1157.102661 
	C505.007843,1157.392456 508.371765,1158.515015 508.929565,1162.472046 
	C509.582611,1167.104370 508.547577,1171.033813 503.253021,1172.278076 
	C506.376221,1176.809570 509.410797,1181.211426 512.431274,1185.623047 
	C512.446960,1185.645874 512.279114,1185.843384 512.167603,1185.892212 
	C512.019714,1185.957031 511.842957,1185.955688 511.295349,1185.990479 
M494.000000,1166.353271 
	C494.099915,1167.879761 494.199799,1169.406250 494.332092,1171.427734 
	C498.419342,1169.494629 503.948730,1170.359009 502.988403,1163.784546 
	C502.492065,1160.386597 499.132874,1158.767700 494.000000,1159.605591 
	C494.000000,1161.513794 494.000000,1163.471924 494.000000,1166.353271 
z"/>
<path fill="#58585A" opacity="1.000000" stroke="none" 
	d="
M407.577301,1174.090820 
	C405.121338,1172.264526 403.970001,1172.639160 403.995483,1175.475952 
	C404.025146,1178.782227 404.002411,1182.089111 404.002411,1185.694824 
	C401.982819,1185.694824 400.257690,1185.694824 398.263977,1185.694824 
	C398.263977,1176.280640 398.263977,1166.884033 398.263977,1157.000000 
	C402.354767,1157.000000 406.304199,1157.011963 410.253510,1156.996582 
	C414.093597,1156.981567 417.566498,1157.949707 418.867035,1161.940918 
	C420.380280,1166.584961 418.478333,1169.770142 413.197479,1172.431519 
	C416.360321,1176.764893 419.515808,1181.088135 422.772980,1185.550781 
	C417.787018,1187.195679 414.823242,1185.258423 412.593323,1181.170410 
	C411.277374,1178.757690 409.467499,1176.614380 407.577301,1174.090820 
M411.416748,1168.917969 
	C411.823669,1166.667114 413.335388,1163.504395 412.395233,1162.365234 
	C410.712585,1160.326538 407.553192,1159.506348 404.339844,1157.825806 
	C404.339844,1163.166626 404.339844,1167.001709 404.339844,1171.397949 
	C406.742310,1170.505981 408.673096,1169.789062 411.416748,1168.917969 
z"/>
<path fill="#58585A" opacity="1.000000" stroke="none" 
	d="
M254.005829,1162.977661 
	C254.901596,1161.637085 255.735397,1160.658203 257.238068,1158.893921 
	C250.036484,1158.893921 243.591705,1158.893921 237.146912,1158.893921 
	C237.147034,1158.464478 237.147156,1158.035156 237.147278,1157.605713 
	C246.201996,1157.605713 255.256714,1157.605713 264.972778,1157.605713 
	C258.426636,1166.191895 251.887344,1174.769043 244.679916,1184.222656 
	C252.007004,1184.222656 258.433350,1184.222656 264.859680,1184.222656 
	C264.848694,1184.633545 264.837738,1185.044312 264.826782,1185.455200 
	C255.647598,1185.455200 246.468399,1185.455200 236.438721,1185.455200 
	C242.488678,1177.811646 248.216278,1170.575439 254.005829,1162.977661 
z"/>
<path fill="#58585A" opacity="1.000000" stroke="none" 
	d="
M523.299316,1180.285278 
	C526.954224,1172.809326 530.366089,1165.637451 533.824829,1158.488403 
	C534.251587,1157.606323 534.928162,1156.845093 535.488892,1156.027832 
	C536.221008,1156.773071 537.228149,1157.390625 537.642822,1158.283325 
	C541.794373,1167.221191 545.848633,1176.204346 550.687500,1186.838867 
	C547.573242,1185.717407 544.291748,1185.430664 543.943787,1184.266846 
	C541.438721,1175.888550 535.182495,1176.453613 528.738770,1177.215820 
	C525.760437,1179.554199 526.885559,1185.597900 520.674316,1186.048706 
	C521.664673,1183.795532 522.367676,1182.195923 523.299316,1180.285278 
M538.065613,1172.418091 
	C536.911438,1170.016602 535.757202,1167.615234 534.283447,1164.548950 
	C532.627014,1167.921021 531.259094,1170.705688 529.380981,1174.528809 
	C533.126770,1173.930908 535.797791,1173.504517 538.065613,1172.418091 
z"/>
<path fill="#58585A" opacity="1.000000" stroke="none" 
	d="
M283.070038,1160.237061 
	C283.016541,1163.325684 283.016541,1165.944458 283.016541,1168.328003 
	C286.392731,1170.133301 290.619659,1167.414673 293.179138,1170.282349 
	C293.075867,1170.791870 292.972626,1171.301514 292.869385,1171.811035 
	C289.788330,1171.811035 286.707275,1171.811035 283.313904,1171.811035 
	C283.313904,1175.977051 283.313904,1179.703613 283.313904,1184.083618 
	C288.156097,1184.083618 292.994995,1184.083618 297.833862,1184.083618 
	C297.846832,1184.510742 297.859802,1184.937744 297.872772,1185.364868 
	C291.161804,1185.364868 284.450836,1185.364868 277.365662,1185.364868 
	C277.365662,1176.448853 277.365662,1167.062744 277.365662,1157.336426 
	C284.090240,1157.336426 290.946960,1157.336426 297.803711,1157.336426 
	C297.844574,1157.706299 297.885406,1158.076050 297.926270,1158.445923 
	C292.992004,1158.886353 288.057770,1159.326782 283.070038,1160.237061 
z"/>
<path fill="#58585A" opacity="1.000000" stroke="none" 
	d="
M443.183289,1159.000854 
	C441.807343,1159.801636 440.285095,1160.496826 440.129150,1161.422119 
	C439.750061,1163.671265 440.005768,1166.027344 440.005768,1168.960693 
	C443.427765,1168.960693 446.637482,1168.960693 451.046539,1168.960693 
	C447.733978,1173.878296 443.410645,1170.807495 440.246704,1172.529297 
	C440.246704,1175.997925 440.246704,1179.609375 440.246704,1184.073242 
	C445.019440,1184.073242 449.947266,1184.073242 454.875122,1184.073242 
	C454.865417,1184.536133 454.855713,1184.999023 454.846008,1185.461914 
	C448.099426,1185.461914 441.352844,1185.461914 434.297363,1185.461914 
	C434.297363,1176.306763 434.297363,1166.923340 434.297363,1157.380615 
	C441.188538,1157.380615 448.001526,1157.380615 454.814545,1157.380615 
	C454.833160,1157.920410 454.851807,1158.460205 454.870453,1159.000000 
	C451.133118,1159.000000 447.395813,1159.000000 443.183289,1159.000854 
z"/>
<path fill="#58585A" opacity="1.000000" stroke="none" 
	d="
M566.000122,1173.610718 
	C567.110107,1180.928345 569.691162,1183.922974 574.562378,1184.000000 
	C580.185791,1184.089111 583.834473,1180.293823 583.973999,1173.943237 
	C584.096741,1168.355713 583.999695,1162.763428 583.999695,1157.173218 
	C584.406677,1157.117432 584.813660,1157.061523 585.220642,1157.005615 
	C585.479614,1157.901489 585.952820,1158.795044 585.962952,1159.693726 
	C586.030518,1165.676025 585.952881,1171.660034 586.016846,1177.642456 
	C586.056091,1181.316040 584.489380,1183.748657 581.174194,1185.417480 
	C574.874878,1188.588379 566.775024,1187.387573 562.919800,1182.294922 
	C561.985046,1181.060181 561.130310,1179.403564 561.087830,1177.916626 
	C560.894043,1171.134644 561.002869,1164.344116 561.002869,1157.284180 
	C562.718201,1157.284180 564.106567,1157.284180 566.000000,1157.284180 
	C566.000000,1162.606567 566.000000,1167.880981 566.000122,1173.610718 
z"/>
<path fill="#58585A" opacity="1.000000" stroke="none" 
	d="
M373.009247,1161.177979 
	C373.002106,1163.936035 373.002106,1166.225220 373.002106,1169.011963 
	C375.987823,1169.011963 378.596008,1168.935913 381.193481,1169.068970 
	C381.791779,1169.099854 382.353333,1169.847290 382.931824,1170.265015 
	C382.345245,1170.839966 381.793457,1171.861816 381.165863,1171.910767 
	C378.696960,1172.103149 376.204285,1171.989624 373.244629,1171.989624 
	C373.244629,1176.529541 373.244629,1180.921021 373.244629,1185.747070 
	C371.070374,1185.851929 369.345734,1185.935059 367.303314,1186.033569 
	C367.303314,1176.401367 367.303314,1167.022095 367.303314,1157.319946 
	C373.779022,1157.319946 380.291168,1157.319946 386.803314,1157.319946 
	C386.856384,1157.880005 386.909485,1158.439941 386.962555,1159.000000 
	C383.935638,1159.000000 380.891693,1158.808472 377.888519,1159.075684 
	C376.229187,1159.223267 374.638214,1160.139404 373.009247,1161.177979 
z"/>
<path fill="#58585A" opacity="1.000000" stroke="none" 
	d="
M342.001282,1185.997314 
	C340.689850,1184.813477 339.149200,1183.650269 339.113708,1182.442627 
	C338.889954,1174.828979 339.000336,1167.205566 339.000336,1158.950806 
	C335.191833,1158.950806 331.674377,1158.950806 328.156921,1158.950806 
	C328.161224,1158.519287 328.165527,1158.087891 328.169830,1157.656372 
	C337.042938,1157.656372 345.916046,1157.656372 354.789124,1157.656372 
	C354.826843,1157.976929 354.864563,1158.297485 354.902252,1158.618042 
	C351.821350,1158.817505 348.740448,1159.016968 344.999603,1159.259155 
	C344.999603,1166.945801 345.108215,1174.697021 344.886414,1182.438843 
	C344.851807,1183.647095 343.311829,1184.812256 342.001282,1185.997314 
z"/>
<path fill="#58585A" opacity="1.000000" stroke="none" 
	d="
M472.608948,1185.500366 
	C470.701172,1185.862183 469.087128,1185.862183 467.238220,1185.862183 
	C467.238220,1176.242310 467.238220,1166.871704 467.238220,1157.251465 
	C469.105286,1157.251465 470.824036,1157.251465 472.902710,1157.251465 
	C472.902710,1166.653076 472.902710,1175.895752 472.608948,1185.500366 
z"/>
<path fill="#58585A" opacity="1.000000" stroke="none" 
	d="
M311.000000,1176.954956 
	C311.000000,1170.186646 311.000000,1163.912842 311.000000,1157.232788 
	C312.972992,1157.145508 314.693054,1157.069458 316.713684,1156.979980 
	C316.713684,1166.627930 316.713684,1175.992310 316.713684,1185.780273 
	C315.027679,1185.854492 313.308838,1185.930176 311.000000,1186.031860 
	C311.000000,1182.975464 311.000000,1180.212402 311.000000,1176.954956 
z"/>
<path fill="#FFFFFF" opacity="1.000000" stroke="none" 
	d="
M588.787964,1011.482727 
	C585.567017,1028.917603 571.794678,1036.587036 556.643555,1037.914917 
	C550.700928,1038.435547 544.674561,1038.000000 538.343872,1038.000000 
	C538.343872,1018.438660 538.343872,999.040955 538.343872,978.943481 
	C548.794434,979.834656 559.510437,977.075012 569.916687,980.989624 
	C582.506592,985.725647 589.888489,996.790222 588.787964,1011.482727 
z"/>
<path fill="#FFFFFF" opacity="1.000000" stroke="none" 
	d="
M494.000000,1165.891724 
	C494.000000,1163.471924 494.000000,1161.513794 494.000000,1159.605591 
	C499.132874,1158.767700 502.492065,1160.386597 502.988403,1163.784546 
	C503.948730,1170.359009 498.419342,1169.494629 494.332092,1171.427734 
	C494.199799,1169.406250 494.099915,1167.879761 494.000000,1165.891724 
z"/>
<path fill="#FFFFFF" opacity="1.000000" stroke="none" 
	d="
M411.010315,1168.995117 
	C408.673096,1169.789062 406.742310,1170.505981 404.339844,1171.397949 
	C404.339844,1167.001709 404.339844,1163.166626 404.339844,1157.825806 
	C407.553192,1159.506348 410.712585,1160.326538 412.395233,1162.365234 
	C413.335388,1163.504395 411.823669,1166.667114 411.010315,1168.995117 
z"/>
<path fill="#FFFFFF" opacity="1.000000" stroke="none" 
	d="
M538.267212,1172.748047 
	C535.797791,1173.504517 533.126770,1173.930908 529.380981,1174.528809 
	C531.259094,1170.705688 532.627014,1167.921021 534.283447,1164.548950 
	C535.757202,1167.615234 536.911438,1170.016602 538.267212,1172.748047 
z"/>
</svg>