<?xml version="1.0" standalone="no"?>
<!DOCTYPE svg PUBLIC "-//W3C//DTD SVG 1.1//EN" "http://www.w3.org/Graphics/SVG/1.1/DTD/svg11.dtd">
<!--Generator: Xara Designer (www.xara.com), SVG filter version: 6.6.0.8-->
<svg fill="none" fill-rule="evenodd" stroke="black" stroke-width="0.501" stroke-linejoin="bevel" stroke-miterlimit="10" font-family="Times New Roman" font-size="16" style="font-variant-ligatures:none" xmlns:xlink="http://www.w3.org/1999/xlink" xmlns="http://www.w3.org/2000/svg" version="1.1" overflow="visible" width="430.279pt" height="153.203pt" viewBox="102.21 -581.427 430.279 153.203">
 <defs>
  <style type="text/css">@import url('https://themes.googleusercontent.com/fonts/css?family=Open Sans:400,600');</style>
 </defs>
 <g id="Layer 1" transform="scale(1 -1)">
  <g id="Group" fill-rule="nonzero" stroke-linejoin="round" stroke-linecap="round" stroke="none" stroke-width="0.312" fill="#12377e">
   <g id="Group_1">
    <path d="M 299.51,519.316 C 299.51,517.862 299.069,516.625 298.188,515.605 C 297.306,514.586 296.069,513.885 294.476,513.502 L 294.476,513.407 C 296.356,513.173 297.779,512.602 298.745,511.694 C 299.712,510.786 300.195,509.563 300.195,508.023 C 300.195,505.782 299.382,504.038 297.757,502.79 C 296.133,501.542 293.812,500.918 290.796,500.918 C 288.269,500.918 286.029,501.338 284.074,502.177 L 284.074,506.366 C 284.977,505.909 285.97,505.538 287.053,505.251 C 288.136,504.964 289.209,504.821 290.271,504.821 C 291.896,504.821 293.095,505.097 293.871,505.649 C 294.646,506.202 295.034,507.088 295.034,508.309 C 295.034,509.403 294.588,510.178 293.696,510.635 C 292.804,511.092 291.381,511.32 289.427,511.32 L 287.658,511.32 L 287.658,515.095 L 289.459,515.095 C 291.264,515.095 292.583,515.332 293.417,515.804 C 294.25,516.277 294.667,517.087 294.667,518.233 C 294.667,519.996 293.563,520.877 291.354,520.878 C 290.59,520.877 289.812,520.75 289.02,520.495 C 288.229,520.24 287.35,519.799 286.384,519.173 L 284.107,522.566 C 286.231,524.095 288.763,524.86 291.704,524.86 C 294.115,524.86 296.019,524.372 297.415,523.394 C 298.812,522.417 299.51,521.058 299.51,519.316 Z" marker-start="none" marker-end="none"/>
    <path d="M 302.6,511.129 C 302.6,515.738 303.574,519.168 305.523,521.419 C 307.471,523.671 310.389,524.796 314.276,524.796 C 315.604,524.796 316.644,524.716 317.398,524.557 L 317.398,520.623 C 316.453,520.835 315.518,520.941 314.595,520.941 C 312.906,520.941 311.528,520.687 310.461,520.177 C 309.393,519.667 308.594,518.913 308.064,517.915 C 307.533,516.917 307.22,515.499 307.124,513.662 L 307.331,513.662 C 308.382,515.467 310.065,516.37 312.38,516.369 C 314.462,516.37 316.092,515.717 317.271,514.41 C 318.449,513.104 319.039,511.299 319.039,508.994 C 319.039,506.51 318.338,504.542 316.936,503.093 C 315.535,501.643 313.591,500.918 311.106,500.918 C 309.386,500.918 307.886,501.317 306.606,502.113 C 305.327,502.91 304.339,504.072 303.643,505.602 C 302.948,507.131 302.6,508.973 302.6,511.129 Z M 311.011,504.853 C 312.062,504.853 312.869,505.206 313.432,505.912 C 313.995,506.618 314.276,507.625 314.276,508.931 C 314.276,510.067 314.013,510.962 313.488,511.615 C 312.962,512.268 312.168,512.594 311.106,512.594 C 310.108,512.594 309.256,512.271 308.549,511.623 C 307.843,510.975 307.49,510.221 307.49,509.361 C 307.49,508.097 307.822,507.03 308.485,506.159 C 309.15,505.288 309.991,504.853 311.011,504.853 Z" marker-start="none" marker-end="none"/>
    <path d="M 321.938,503.515 C 321.938,504.407 322.176,505.081 322.654,505.538 C 323.132,505.994 323.828,506.223 324.741,506.223 C 325.623,506.223 326.305,505.989 326.788,505.522 C 327.271,505.054 327.513,504.386 327.513,503.515 C 327.513,502.676 327.269,502.015 326.78,501.532 C 326.292,501.049 325.612,500.807 324.741,500.807 C 323.849,500.807 323.159,501.043 322.67,501.516 C 322.182,501.988 321.938,502.655 321.938,503.515 Z" marker-start="none" marker-end="none"/>
    <path d="M 357.921,512.913 C 357.921,509.058 356.965,506.096 355.054,504.024 C 353.142,501.954 350.403,500.918 346.834,500.918 C 343.266,500.918 340.527,501.954 338.615,504.024 C 336.703,506.096 335.748,509.069 335.748,512.945 C 335.748,516.821 336.706,519.781 338.623,521.825 C 340.54,523.87 343.287,524.892 346.866,524.892 C 350.445,524.892 353.182,523.862 355.078,521.802 C 356.973,519.741 357.921,516.779 357.921,512.913 Z M 340.924,512.913 C 340.924,510.312 341.418,508.352 342.406,507.035 C 343.394,505.719 344.87,505.06 346.834,505.06 C 350.774,505.06 352.744,507.678 352.744,512.913 C 352.744,518.159 350.785,520.782 346.866,520.782 C 344.902,520.782 343.42,520.121 342.422,518.799 C 341.424,517.477 340.924,515.515 340.924,512.913 Z" marker-start="none" marker-end="none"/>
    <path d="M 367.224,501.237 L 362.366,501.237 L 362.366,526.023 L 367.224,526.023 L 367.224,501.237 Z" marker-start="none" marker-end="none"/>
    <path d="M 379.824,504.789 C 380.674,504.789 381.693,504.975 382.883,505.347 L 382.883,501.731 C 381.672,501.189 380.185,500.918 378.423,500.918 C 376.479,500.918 375.064,501.41 374.178,502.392 C 373.29,503.374 372.847,504.848 372.847,506.812 L 372.847,515.398 L 370.522,515.398 L 370.522,517.453 L 373.198,519.078 L 374.599,522.837 L 377.706,522.837 L 377.706,519.046 L 382.692,519.046 L 382.692,515.398 L 377.706,515.398 L 377.706,506.812 C 377.706,506.122 377.9,505.613 378.287,505.283 C 378.675,504.954 379.187,504.789 379.824,504.789 Z" marker-start="none" marker-end="none"/>
    <path d="M 402.921,501.237 L 398.063,501.237 L 398.063,511.639 C 398.063,512.924 397.835,513.887 397.378,514.53 C 396.922,515.172 396.194,515.494 395.196,515.494 C 393.836,515.494 392.854,515.04 392.249,514.132 C 391.643,513.224 391.341,511.718 391.341,509.616 L 391.341,501.237 L 386.483,501.237 L 386.483,519.046 L 390.194,519.046 L 390.847,516.768 L 391.118,516.768 C 391.66,517.628 392.406,518.278 393.356,518.719 C 394.307,519.16 395.387,519.38 396.598,519.38 C 398.668,519.38 400.24,518.82 401.312,517.7 C 402.385,516.579 402.922,514.963 402.921,512.849 L 402.921,501.237 Z" marker-start="none" marker-end="none"/>
    <path d="M 415.299,515.924 C 414.269,515.924 413.462,515.597 412.878,514.944 C 412.294,514.291 411.959,513.365 411.874,512.164 L 418.692,512.164 C 418.671,513.365 418.357,514.291 417.752,514.944 C 417.146,515.597 416.329,515.924 415.299,515.924 Z M 415.984,500.918 C 413.117,500.918 410.876,501.71 409.262,503.292 C 407.647,504.874 406.84,507.115 406.84,510.014 C 406.84,512.998 407.587,515.305 409.079,516.935 C 410.571,518.565 412.633,519.38 415.267,519.38 C 417.783,519.38 419.743,518.663 421.145,517.23 C 422.547,515.796 423.247,513.816 423.247,511.288 L 423.247,508.931 L 411.763,508.931 C 411.816,507.55 412.225,506.472 412.989,505.697 C 413.754,504.922 414.827,504.535 416.207,504.534 C 417.28,504.535 418.294,504.646 419.249,504.869 C 420.205,505.092 421.203,505.448 422.244,505.936 L 422.244,502.177 C 421.394,501.752 420.486,501.436 419.52,501.229 C 418.554,501.022 417.375,500.918 415.984,500.918 Z" marker-start="none" marker-end="none"/>
    <path d="M 437.138,519.38 C 437.796,519.38 438.343,519.332 438.778,519.237 L 438.412,514.681 C 438.019,514.788 437.541,514.841 436.978,514.84 C 435.428,514.841 434.22,514.442 433.354,513.646 C 432.488,512.849 432.056,511.734 432.056,510.301 L 432.056,501.237 L 427.198,501.237 L 427.198,519.046 L 430.877,519.046 L 431.594,516.051 L 431.833,516.051 C 432.385,517.049 433.131,517.854 434.071,518.464 C 435.011,519.075 436.033,519.38 437.138,519.38 Z" marker-start="none" marker-end="none"/>
   </g>
  </g>
  <g id="Group_2" fill-rule="nonzero" stroke-linejoin="round" stroke-linecap="round" stroke="none" stroke-width="0.084" fill="#12377e">
   <g id="Group_3">
    <path d="M 294.875,442.116 C 294.875,435.018 292.128,431.469 286.635,431.469 C 285.675,431.469 284.914,431.551 284.351,431.717 L 284.351,433.491 C 285.013,433.276 285.766,433.169 286.61,433.169 C 288.595,433.169 290.095,433.783 291.108,435.012 C 292.122,436.24 292.674,438.124 292.765,440.664 L 292.616,440.664 C 292.161,439.977 291.557,439.454 290.804,439.094 C 290.051,438.735 289.204,438.555 288.26,438.555 C 286.655,438.555 285.381,439.034 284.438,439.994 C 283.495,440.954 283.023,442.294 283.024,444.015 C 283.023,445.901 283.551,447.39 284.606,448.482 C 285.66,449.574 287.048,450.12 288.769,450.12 C 290.002,450.12 291.079,449.804 292.002,449.171 C 292.924,448.538 293.633,447.616 294.13,446.404 C 294.626,445.192 294.875,443.762 294.875,442.116 Z M 288.769,448.358 C 287.586,448.358 286.672,447.978 286.026,447.216 C 285.381,446.455 285.059,445.396 285.059,444.04 C 285.059,442.848 285.356,441.911 285.952,441.229 C 286.548,440.546 287.453,440.205 288.67,440.205 C 289.422,440.205 290.115,440.358 290.748,440.664 C 291.381,440.97 291.88,441.388 292.244,441.917 C 292.608,442.447 292.79,443.001 292.79,443.58 C 292.79,444.449 292.62,445.252 292.281,445.988 C 291.942,446.724 291.468,447.303 290.86,447.725 C 290.252,448.147 289.555,448.358 288.769,448.358 Z" marker-start="none" marker-end="none"/>
    <path d="M 298.126,433.033 C 298.126,433.587 298.253,434.007 298.505,434.292 C 298.757,434.578 299.119,434.72 299.591,434.72 C 300.071,434.72 300.445,434.578 300.714,434.292 C 300.983,434.007 301.117,433.587 301.117,433.033 C 301.117,432.495 300.981,432.081 300.707,431.791 C 300.434,431.502 300.062,431.357 299.591,431.357 C 299.169,431.357 298.819,431.487 298.542,431.748 C 298.265,432.009 298.126,432.437 298.126,433.033 Z" marker-start="none" marker-end="none"/>
    <path d="M 304.021,437.587 L 304.021,439.473 L 314.693,439.473 L 314.693,437.587 L 304.021,437.587 Z" marker-start="none" marker-end="none"/>
    <path d="M 324.584,431.717 L 322.573,431.717 L 322.573,444.648 C 322.573,445.723 322.606,446.741 322.673,447.7 C 322.499,447.527 322.304,447.345 322.089,447.154 C 321.874,446.964 320.89,446.157 319.136,444.735 L 318.044,446.149 L 322.847,449.86 L 324.584,449.86 L 324.584,431.717 Z" marker-start="none" marker-end="none"/>
    <path d="M 331.695,439.473 C 331.695,443.039 332.388,445.705 333.774,447.471 C 335.159,449.237 337.209,450.12 339.922,450.12 C 340.858,450.12 341.594,450.042 342.131,449.885 L 342.131,448.11 C 341.494,448.317 340.766,448.42 339.947,448.42 C 338.003,448.42 336.518,447.814 335.492,446.602 C 334.466,445.39 333.904,443.485 333.805,440.887 L 333.954,440.887 C 334.864,442.311 336.303,443.022 338.272,443.022 C 339.902,443.022 341.186,442.53 342.125,441.545 C 343.064,440.561 343.534,439.225 343.533,437.537 C 343.534,435.651 343.019,434.168 341.988,433.088 C 340.959,432.009 339.567,431.469 337.813,431.469 C 335.935,431.469 334.446,432.174 333.345,433.585 C 332.245,434.995 331.695,436.958 331.695,439.473 Z M 337.788,433.219 C 338.963,433.219 339.875,433.589 340.524,434.329 C 341.174,435.07 341.499,436.139 341.499,437.537 C 341.499,438.737 341.196,439.68 340.592,440.366 C 339.988,441.053 339.087,441.396 337.887,441.396 C 337.143,441.396 336.46,441.243 335.84,440.937 C 335.219,440.631 334.725,440.209 334.357,439.671 C 333.989,439.134 333.805,438.575 333.805,437.996 C 333.805,437.144 333.97,436.35 334.301,435.614 C 334.632,434.877 335.101,434.294 335.709,433.864 C 336.317,433.434 337.01,433.219 337.788,433.219 Z" marker-start="none" marker-end="none"/>
    <path d="M 346.661,433.033 C 346.661,433.587 346.788,434.007 347.04,434.292 C 347.292,434.578 347.654,434.72 348.126,434.72 C 348.606,434.72 348.98,434.578 349.249,434.292 C 349.518,434.007 349.652,433.587 349.652,433.033 C 349.652,432.495 349.516,432.081 349.242,431.791 C 348.969,431.502 348.597,431.357 348.126,431.357 C 347.704,431.357 347.354,431.487 347.077,431.748 C 346.8,432.009 346.661,432.437 346.661,433.033 Z" marker-start="none" marker-end="none"/>
    <path d="M 364.705,442.116 C 364.705,435.018 361.958,431.469 356.465,431.469 C 355.505,431.469 354.744,431.551 354.181,431.717 L 354.181,433.491 C 354.843,433.276 355.596,433.169 356.44,433.169 C 358.425,433.169 359.925,433.783 360.938,435.012 C 361.952,436.24 362.504,438.124 362.595,440.664 L 362.446,440.664 C 361.991,439.977 361.387,439.454 360.634,439.094 C 359.881,438.735 359.034,438.555 358.09,438.555 C 356.485,438.555 355.211,439.034 354.268,439.994 C 353.325,440.954 352.853,442.294 352.854,444.015 C 352.853,445.901 353.381,447.39 354.436,448.482 C 355.49,449.574 356.878,450.12 358.599,450.12 C 359.832,450.12 360.909,449.804 361.832,449.171 C 362.754,448.538 363.463,447.616 363.96,446.404 C 364.456,445.192 364.705,443.762 364.705,442.116 Z M 358.599,448.358 C 357.416,448.358 356.502,447.978 355.856,447.216 C 355.211,446.455 354.889,445.396 354.889,444.04 C 354.889,442.848 355.186,441.911 355.782,441.229 C 356.378,440.546 357.283,440.205 358.5,440.205 C 359.252,440.205 359.945,440.358 360.578,440.664 C 361.211,440.97 361.71,441.388 362.074,441.917 C 362.438,442.447 362.62,443.001 362.62,443.58 C 362.62,444.449 362.45,445.252 362.111,445.988 C 361.772,446.724 361.298,447.303 360.69,447.725 C 360.082,448.147 359.385,448.358 358.599,448.358 Z" marker-start="none" marker-end="none"/>
    <path d="M 367.956,433.033 C 367.956,433.587 368.083,434.007 368.335,434.292 C 368.587,434.578 368.949,434.72 369.421,434.72 C 369.901,434.72 370.275,434.578 370.544,434.292 C 370.813,434.007 370.947,433.587 370.947,433.033 C 370.947,432.495 370.811,432.081 370.537,431.791 C 370.264,431.502 369.892,431.357 369.421,431.357 C 368.999,431.357 368.649,431.487 368.372,431.748 C 368.095,432.009 367.956,432.437 367.956,433.033 Z" marker-start="none" marker-end="none"/>
    <path d="M 386,431.717 L 374.074,431.717 L 374.074,433.491 L 378.852,438.294 C 380.308,439.767 381.267,440.818 381.731,441.446 C 382.194,442.075 382.541,442.687 382.773,443.283 C 383.005,443.878 383.121,444.519 383.121,445.206 C 383.121,446.174 382.827,446.941 382.239,447.508 C 381.652,448.075 380.837,448.358 379.795,448.358 C 379.042,448.358 378.329,448.234 377.654,447.986 C 376.98,447.737 376.229,447.287 375.402,446.633 L 374.31,448.035 C 375.981,449.425 377.801,450.12 379.77,450.12 C 381.474,450.12 382.81,449.684 383.778,448.811 C 384.746,447.939 385.23,446.766 385.23,445.293 C 385.23,444.143 384.907,443.006 384.262,441.88 C 383.617,440.755 382.409,439.332 380.638,437.611 L 376.667,433.727 L 376.667,433.628 L 386,433.628 L 386,431.717 Z" marker-start="none" marker-end="none"/>
    <path d="M 400.631,440.813 C 400.631,437.678 400.137,435.336 399.148,433.789 C 398.159,432.242 396.647,431.469 394.612,431.469 C 392.66,431.469 391.175,432.261 390.157,433.845 C 389.14,435.43 388.631,437.752 388.631,440.813 C 388.631,443.974 389.123,446.319 390.108,447.849 C 391.092,449.38 392.594,450.145 394.612,450.145 C 396.581,450.145 398.077,449.347 399.098,447.75 C 400.12,446.154 400.631,443.841 400.631,440.813 Z M 390.716,440.813 C 390.716,438.174 391.026,436.252 391.646,435.049 C 392.267,433.845 393.256,433.243 394.612,433.243 C 395.986,433.243 396.98,433.854 397.597,435.074 C 398.213,436.294 398.521,438.207 398.521,440.813 C 398.521,443.419 398.213,445.328 397.597,446.54 C 396.98,447.752 395.986,448.358 394.612,448.358 C 393.256,448.358 392.267,447.76 391.646,446.565 C 391.026,445.369 390.716,443.452 390.716,440.813 Z" marker-start="none" marker-end="none"/>
    <path d="M 415.064,431.717 L 403.138,431.717 L 403.138,433.491 L 407.916,438.294 C 409.372,439.767 410.331,440.818 410.795,441.446 C 411.258,442.075 411.605,442.687 411.837,443.283 C 412.069,443.878 412.185,444.519 412.185,445.206 C 412.185,446.174 411.891,446.941 411.303,447.508 C 410.716,448.075 409.901,448.358 408.859,448.358 C 408.106,448.358 407.393,448.234 406.718,447.986 C 406.044,447.737 405.293,447.287 404.466,446.633 L 403.374,448.035 C 405.045,449.425 406.865,450.12 408.834,450.12 C 410.538,450.12 411.874,449.684 412.842,448.811 C 413.81,447.939 414.294,446.766 414.294,445.293 C 414.294,444.143 413.971,443.006 413.326,441.88 C 412.681,440.755 411.473,439.332 409.702,437.611 L 405.731,433.727 L 405.731,433.628 L 415.064,433.628 L 415.064,431.717 Z" marker-start="none" marker-end="none"/>
    <path d="M 428.913,445.591 C 428.913,444.433 428.588,443.485 427.939,442.749 C 427.289,442.013 426.369,441.52 425.178,441.272 L 425.178,441.173 C 426.634,440.991 427.713,440.528 428.417,439.783 C 429.12,439.039 429.471,438.063 429.471,436.855 C 429.471,435.126 428.872,433.796 427.672,432.865 C 426.472,431.934 424.768,431.469 422.559,431.469 C 421.599,431.469 420.721,431.541 419.922,431.686 C 419.124,431.831 418.349,432.085 417.596,432.449 L 417.596,434.41 C 418.382,434.021 419.219,433.725 420.108,433.523 C 420.998,433.32 421.84,433.219 422.634,433.219 C 425.769,433.219 427.337,434.447 427.337,436.904 C 427.337,439.105 425.608,440.205 422.15,440.205 L 420.363,440.205 L 420.363,441.98 L 422.174,441.98 C 423.589,441.98 424.71,442.292 425.538,442.917 C 426.365,443.541 426.778,444.408 426.778,445.516 C 426.778,446.401 426.475,447.096 425.866,447.601 C 425.258,448.106 424.433,448.358 423.391,448.358 C 422.596,448.358 421.848,448.251 421.144,448.035 C 420.441,447.82 419.639,447.423 418.737,446.844 L 417.695,448.234 C 418.439,448.821 419.298,449.282 420.27,449.618 C 421.242,449.953 422.266,450.12 423.341,450.12 C 425.103,450.12 426.472,449.717 427.449,448.91 C 428.425,448.104 428.913,446.998 428.913,445.591 Z" marker-start="none" marker-end="none"/>
   </g>
  </g>
  <g id="Group_4" fill-rule="nonzero" stroke-linejoin="round" stroke-linecap="round" stroke="none" stroke-width="0.144" fill="#12377e">
   <g id="Group_5">
    <path d="M 300.418,464.722 L 284.138,464.722 L 284.138,468.147 L 289.984,474.057 C 291.715,475.83 292.846,477.059 293.377,477.744 C 293.908,478.429 294.291,479.063 294.524,479.647 C 294.758,480.231 294.874,480.837 294.874,481.463 C 294.874,482.398 294.617,483.094 294.102,483.55 C 293.587,484.007 292.899,484.235 292.039,484.235 C 291.136,484.235 290.26,484.028 289.411,483.614 C 288.561,483.2 287.675,482.611 286.75,481.846 L 284.074,485.016 C 285.221,485.993 286.172,486.683 286.926,487.086 C 287.68,487.49 288.503,487.801 289.395,488.018 C 290.287,488.236 291.285,488.345 292.39,488.345 C 293.844,488.345 295.129,488.079 296.245,487.548 C 297.359,487.017 298.225,486.274 298.841,485.318 C 299.456,484.362 299.765,483.269 299.765,482.037 C 299.765,480.964 299.576,479.958 299.199,479.018 C 298.822,478.079 298.238,477.115 297.447,476.127 C 296.656,475.14 295.262,473.733 293.265,471.906 L 290.271,469.087 L 290.271,468.864 L 300.418,468.864 L 300.418,464.722 Z" marker-start="none" marker-end="none"/>
    <path d="M 302.425,471.476 L 302.425,475.458 L 310.978,475.458 L 310.978,471.476 L 302.425,471.476 Z" marker-start="none" marker-end="none"/>
    <path d="M 328.628,471.189 C 328.628,469.087 327.871,467.43 326.358,466.219 C 324.845,465.009 322.739,464.403 320.042,464.403 C 317.557,464.403 315.359,464.871 313.447,465.805 L 313.447,470.393 C 315.019,469.692 316.349,469.198 317.437,468.911 C 318.526,468.625 319.522,468.481 320.424,468.481 C 321.507,468.481 322.338,468.688 322.917,469.103 C 323.496,469.517 323.785,470.132 323.785,470.95 C 323.785,471.407 323.658,471.813 323.403,472.169 C 323.148,472.525 322.774,472.867 322.28,473.196 C 321.786,473.525 320.78,474.051 319.262,474.773 C 317.838,475.443 316.771,476.085 316.06,476.701 C 315.348,477.317 314.78,478.033 314.355,478.851 C 313.931,479.669 313.718,480.625 313.718,481.718 C 313.718,483.779 314.417,485.398 315.813,486.577 C 317.21,487.756 319.14,488.345 321.603,488.345 C 322.814,488.345 323.968,488.202 325.068,487.915 C 326.167,487.628 327.317,487.224 328.516,486.704 L 326.923,482.865 C 325.681,483.375 324.653,483.731 323.841,483.932 C 323.029,484.134 322.229,484.235 321.444,484.235 C 320.509,484.235 319.792,484.017 319.293,483.582 C 318.794,483.147 318.545,482.578 318.545,481.878 C 318.545,481.442 318.645,481.062 318.847,480.739 C 319.049,480.415 319.37,480.102 319.811,479.799 C 320.252,479.497 321.295,478.952 322.941,478.166 C 325.118,477.125 326.61,476.082 327.417,475.036 C 328.224,473.99 328.628,472.708 328.628,471.189 Z" marker-start="none" marker-end="none"/>
    <path d="M 339.969,468.274 C 340.819,468.274 341.838,468.46 343.028,468.832 L 343.028,465.216 C 341.817,464.674 340.33,464.403 338.568,464.403 C 336.624,464.403 335.209,464.895 334.323,465.877 C 333.435,466.859 332.992,468.333 332.992,470.297 L 332.992,478.883 L 330.667,478.883 L 330.667,480.938 L 333.343,482.563 L 334.744,486.322 L 337.851,486.322 L 337.851,482.531 L 342.837,482.531 L 342.837,478.883 L 337.851,478.883 L 337.851,470.297 C 337.851,469.607 338.045,469.098 338.432,468.768 C 338.82,468.439 339.332,468.274 339.969,468.274 Z" marker-start="none" marker-end="none"/>
    <path d="M 359.244,464.722 L 358.59,467 L 358.336,467 C 357.815,466.171 357.077,465.532 356.121,465.08 C 355.165,464.629 354.077,464.403 352.856,464.403 C 350.764,464.403 349.187,464.963 348.125,466.084 C 347.063,467.205 346.532,468.816 346.532,470.919 L 346.532,482.531 L 351.391,482.531 L 351.391,472.129 C 351.391,470.844 351.619,469.88 352.075,469.238 C 352.532,468.596 353.259,468.274 354.258,468.274 C 355.617,468.274 356.599,468.728 357.205,469.636 C 357.81,470.544 358.112,472.049 358.113,474.152 L 358.113,482.531 L 362.971,482.531 L 362.971,464.722 L 359.244,464.722 Z" marker-start="none" marker-end="none"/>
    <path d="M 384.507,464.722 L 379.649,464.722 L 379.649,475.124 C 379.649,476.409 379.421,477.372 378.964,478.015 C 378.508,478.657 377.78,478.979 376.782,478.979 C 375.422,478.979 374.44,478.525 373.835,477.617 C 373.229,476.709 372.927,475.203 372.927,473.101 L 372.927,464.722 L 368.069,464.722 L 368.069,482.531 L 371.78,482.531 L 372.433,480.253 L 372.704,480.253 C 373.246,481.113 373.992,481.763 374.942,482.204 C 375.893,482.645 376.973,482.865 378.184,482.865 C 380.254,482.865 381.826,482.305 382.898,481.185 C 383.971,480.064 384.508,478.448 384.507,476.334 L 384.507,464.722 Z" marker-start="none" marker-end="none"/>
    <path d="M 395.148,464.403 C 393.056,464.403 391.413,465.216 390.218,466.841 C 389.023,468.465 388.426,470.716 388.426,473.594 C 388.426,476.515 389.034,478.79 390.25,480.42 C 391.466,482.05 393.141,482.865 395.276,482.865 C 397.517,482.865 399.227,481.994 400.405,480.253 L 400.564,480.253 C 400.32,481.58 400.198,482.764 400.198,483.805 L 400.198,489.508 L 405.073,489.508 L 405.073,464.722 L 401.345,464.722 L 400.405,467.032 L 400.198,467.032 C 399.094,465.279 397.41,464.403 395.148,464.403 Z M 396.853,468.274 C 398.095,468.274 399.006,468.635 399.585,469.357 C 400.164,470.079 400.48,471.306 400.533,473.037 L 400.533,473.563 C 400.533,475.474 400.238,476.844 399.649,477.672 C 399.059,478.501 398.101,478.915 396.773,478.915 C 395.69,478.915 394.848,478.456 394.249,477.537 C 393.648,476.618 393.348,475.283 393.349,473.531 C 393.348,471.778 393.651,470.465 394.257,469.588 C 394.862,468.712 395.727,468.274 396.853,468.274 Z" marker-start="none" marker-end="none"/>
    <path d="M 417.529,479.409 C 416.499,479.409 415.692,479.082 415.108,478.429 C 414.524,477.776 414.189,476.85 414.104,475.649 L 420.922,475.649 C 420.901,476.85 420.587,477.776 419.982,478.429 C 419.376,479.082 418.559,479.409 417.529,479.409 Z M 418.214,464.403 C 415.347,464.403 413.106,465.195 411.492,466.777 C 409.877,468.359 409.07,470.6 409.07,473.499 C 409.07,476.483 409.817,478.79 411.309,480.42 C 412.801,482.05 414.863,482.865 417.497,482.865 C 420.013,482.865 421.973,482.148 423.375,480.715 C 424.777,479.281 425.477,477.301 425.477,474.773 L 425.477,472.416 L 413.993,472.416 C 414.046,471.035 414.455,469.957 415.219,469.182 C 415.984,468.407 417.057,468.02 418.437,468.019 C 419.51,468.02 420.524,468.131 421.479,468.354 C 422.435,468.577 423.433,468.933 424.474,469.421 L 424.474,465.662 C 423.624,465.237 422.716,464.921 421.75,464.714 C 420.784,464.507 419.605,464.403 418.214,464.403 Z" marker-start="none" marker-end="none"/>
    <path d="M 445.866,464.722 L 441.008,464.722 L 441.008,475.124 C 441.008,476.409 440.78,477.372 440.323,478.015 C 439.867,478.657 439.139,478.979 438.141,478.979 C 436.781,478.979 435.799,478.525 435.194,477.617 C 434.588,476.709 434.286,475.203 434.286,473.101 L 434.286,464.722 L 429.428,464.722 L 429.428,482.531 L 433.139,482.531 L 433.792,480.253 L 434.063,480.253 C 434.605,481.113 435.351,481.763 436.301,482.204 C 437.252,482.645 438.332,482.865 439.543,482.865 C 441.613,482.865 443.185,482.305 444.257,481.185 C 445.33,480.064 445.867,478.448 445.866,476.334 L 445.866,464.722 Z" marker-start="none" marker-end="none"/>
    <path d="M 449.292,471.476 L 449.292,475.458 L 457.845,475.458 L 457.845,471.476 L 449.292,471.476 Z" marker-start="none" marker-end="none"/>
    <path d="M 461.748,464.722 L 461.748,488.01 L 466.686,488.01 L 466.686,468.8 L 476.132,468.8 L 476.132,464.722 L 461.748,464.722 Z" marker-start="none" marker-end="none"/>
    <path d="M 491.105,464.722 L 490.166,467.143 L 490.038,467.143 C 489.22,466.113 488.379,465.399 487.513,465.001 C 486.648,464.602 485.52,464.403 484.129,464.403 C 482.419,464.403 481.073,464.892 480.09,465.869 C 479.108,466.846 478.617,468.237 478.617,470.042 C 478.617,471.933 479.278,473.326 480.6,474.224 C 481.922,475.121 483.916,475.618 486.582,475.713 L 489.672,475.809 L 489.672,476.589 C 489.672,478.394 488.748,479.297 486.9,479.297 C 485.477,479.297 483.805,478.867 481.882,478.007 L 480.274,481.288 C 482.323,482.361 484.596,482.897 487.091,482.897 C 489.481,482.897 491.312,482.377 492.587,481.336 C 493.861,480.295 494.498,478.713 494.498,476.589 L 494.498,464.722 L 491.105,464.722 Z M 489.672,472.973 L 487.792,472.909 C 486.38,472.867 485.328,472.612 484.638,472.145 C 483.948,471.678 483.603,470.967 483.603,470.011 C 483.603,468.641 484.389,467.956 485.96,467.956 C 487.086,467.956 487.986,468.28 488.66,468.927 C 489.334,469.575 489.672,470.435 489.672,471.508 L 489.672,472.973 Z" marker-start="none" marker-end="none"/>
    <path d="M 512.116,464.722 L 511.462,467 L 511.208,467 C 510.687,466.171 509.949,465.532 508.993,465.08 C 508.037,464.629 506.949,464.403 505.728,464.403 C 503.636,464.403 502.059,464.963 500.997,466.084 C 499.935,467.205 499.404,468.816 499.404,470.919 L 499.404,482.531 L 504.263,482.531 L 504.263,472.129 C 504.263,470.844 504.491,469.88 504.947,469.238 C 505.404,468.596 506.131,468.274 507.13,468.274 C 508.489,468.274 509.471,468.728 510.077,469.636 C 510.682,470.544 510.984,472.049 510.985,474.152 L 510.985,482.531 L 515.843,482.531 L 515.843,464.722 L 512.116,464.722 Z" marker-start="none" marker-end="none"/>
    <path d="M 530.785,478.883 L 526.579,478.883 L 526.579,464.722 L 521.721,464.722 L 521.721,478.883 L 519.045,478.883 L 519.045,481.225 L 521.721,482.531 L 521.721,483.837 C 521.721,485.866 522.22,487.347 523.218,488.281 C 524.217,489.216 525.815,489.683 528.013,489.683 C 529.691,489.683 531.183,489.434 532.489,488.934 L 531.247,485.366 C 530.27,485.674 529.367,485.828 528.539,485.828 C 527.849,485.828 527.349,485.624 527.042,485.215 C 526.733,484.806 526.579,484.283 526.579,483.646 L 526.579,482.531 L 530.785,482.531 L 530.785,478.883 Z" marker-start="none" marker-end="none"/>
   </g>
  </g>
  <g id="Group_6" fill-rule="evenodd" stroke="none" stroke-width="0.396">
   <path d="M 145.303,473.438 C 135.793,482.363 129.695,493.553 127.065,505.421 C 125.951,510.41 125.451,515.569 125.609,520.709 C 126.011,535.46 131.582,550.104 142.464,561.735 C 166.05,586.853 205.575,588.098 230.705,564.572 C 254.106,542.588 256.839,506.794 238.018,481.618 C 238.156,488.724 235.684,494.574 231.348,499.38 C 239.528,517.403 235.844,539.456 220.554,553.757 C 201.374,571.702 171.256,570.717 153.278,551.573 C 143.473,541.066 139.272,527.347 140.657,514.109 C 141.342,507.653 143.313,501.323 146.552,495.499 C 148.899,491.485 151.871,487.662 155.432,484.31 C 172.745,468.035 199.098,467.292 217.247,481.458 C 218.632,478.004 219.249,474.423 218.472,469.662 C 218.105,467.452 217.407,465.426 216.617,463.516 C 193.777,451.762 165.09,454.899 145.303,473.438 Z M 136.718,501.165 C 139.935,499.38 143.176,497.331 146.552,495.499 C 143.176,497.331 139.935,499.38 136.718,501.165 Z" fill="#183c82" marker-start="none" marker-end="none"/>
   <path d="M 216,432.035 C 213.951,432.722 211.194,433.157 209.489,434.027 C 207.257,435.17 206.033,437.036 206.297,440.329 C 207.153,449.855 213.264,455.803 216.617,463.516 C 217.407,465.426 218.105,467.452 218.472,469.662 C 219.249,474.423 218.632,478.004 217.247,481.458 C 215.84,484.972 213.688,488.291 211.434,492.708 C 210.336,494.732 206.055,497.916 203.926,499.218 C 201.752,500.603 197.838,503.899 196.031,505.147 L 196.031,505.202 C 194.819,505.924 188.558,502.757 185.459,500.546 C 177.928,495.179 171.12,489.573 160.866,490.716 C 155.648,491.323 150.967,493.235 146.552,495.499 C 143.313,501.323 141.342,507.653 140.657,514.109 C 145.018,512.252 149.504,510.445 154.376,508.9 C 161.393,506.726 177.346,512.197 177.243,520.709 L 177.243,520.709 C 177.161,521.774 173.407,524.908 167.961,528.205 C 162.858,531.319 157.559,533.916 156.21,534.373 L 153.178,535.298 L 155.888,536.97 C 159.241,539.052 161.073,541.282 163.625,542.955 C 166.277,544.715 169.001,545.06 172.423,542.428 C 176.199,539.499 181.785,536.707 185.586,533.068 C 186.201,532.461 186.546,531.499 186.808,530.699 L 186.991,529.749 L 187.736,530.277 C 188.296,530.699 188.958,531.159 189.498,531.421 L 189.52,531.479 C 194.544,534.028 204.386,551.995 213.77,542.873 C 220.554,536.283 216.103,530.094 212.018,525.573 C 207.897,521.054 204.041,517.838 205.813,515.676 C 208.447,512.539 212.178,511.715 216.905,509.508 C 222.671,506.874 227.672,503.501 231.348,499.38 C 235.684,494.574 238.156,488.724 238.018,481.618 C 237.994,480.189 237.834,478.644 237.594,477.1 C 236.394,470.107 233.762,463.253 231.588,456.548 C 231.243,455.403 229.401,450.802 229.056,448.835 L 229.034,448.548 L 229.879,448.205 C 231.185,447.908 232.695,448.365 234.617,448.043 C 238.359,447.323 243.817,447.931 248.018,446.603 C 254.151,444.634 250.353,434.587 247.585,432.355 C 238.703,425.227 226.127,428.819 216,432.035 Z M 233.553,476.275 C 228.554,470.966 222.81,466.673 216.617,463.516 C 222.81,466.673 228.554,470.966 233.553,476.275 Z M 105.687,490.098 C 102.265,492.572 101.945,497.709 102.345,502.23 C 102.745,506.909 104.017,511.955 104.622,515.069 C 105.002,516.716 105.402,519.667 106.329,521.922 C 107.186,524.11 109.016,526.798 112.392,525.733 C 117.051,524.268 121.352,522.519 125.609,520.709 C 125.451,515.569 125.951,510.41 127.065,505.421 C 125.931,505.686 124.729,505.901 123.562,506.031 C 123.16,506.051 122.462,505.686 121.352,503.374 C 120.39,501.21 119.646,498.636 118.559,495.844 C 116.487,490.66 112.815,484.892 105.687,490.098 Z" fill="#8d387b" marker-start="none" marker-end="none"/>
  </g>
 </g>
</svg>
