<?xml version="1.0" standalone="no"?>
<!DOCTYPE svg PUBLIC "-//W3C//DTD SVG 1.1//EN" "http://www.w3.org/Graphics/SVG/1.1/DTD/svg11.dtd">
<!--Generator: Xara Designer (www.xara.com), SVG filter version: 6.6.0.9-->
<svg fill="none" fill-rule="evenodd" stroke="black" stroke-width="0.501" stroke-linejoin="bevel" stroke-miterlimit="10" font-family="Times New Roman" font-size="16" style="font-variant-ligatures:none" xmlns:xlink="http://www.w3.org/1999/xlink" xmlns="http://www.w3.org/2000/svg" version="1.1" overflow="visible" width="430.278pt" height="153.203pt" viewBox="0 -153.203 430.278 153.203">
 <defs>
  <style type="text/css">@import url('https://themes.googleusercontent.com/fonts/css?family=Open Sans:400');</style>
 </defs>
 <g id="Layer 1" transform="scale(1 -1)">
  <g id="Group">
   <ellipse rx="55.152" ry="55.151" transform="translate(85.435 88.733) rotate(52.4195)" stroke-width="6.502" fill="#ffeb09" stroke="none"/>
   <path d="M 46.067,48.266 C 37.233,56.557 31.568,66.951 29.125,77.976 C 28.09,82.61 27.625,87.402 27.772,92.177 C 28.146,105.879 33.321,119.482 43.429,130.287 C 65.339,153.619 102.054,154.776 125.398,132.922 C 147.136,112.501 149.675,79.251 132.191,55.865 C 132.32,62.466 130.024,67.899 125.996,72.364 C 133.594,89.106 130.172,109.591 115.969,122.876 C 98.152,139.545 70.175,138.63 53.475,120.847 C 44.366,111.087 40.464,98.343 41.751,86.046 C 42.387,80.049 44.218,74.168 47.227,68.759 C 49.407,65.03 52.168,61.479 55.476,58.365 C 71.558,43.247 96.038,42.557 112.897,55.716 C 114.184,52.507 114.757,49.181 114.034,44.759 C 113.694,42.705 113.046,40.823 112.312,39.049 C 91.095,28.131 64.447,31.044 46.067,48.266 Z M 47.227,68.759 C 46.996,68.884 47.147,68.801 47.227,68.759 Z" stroke-width="1.858" fill="#b90006" fill-rule="evenodd" marker-start="none" marker-end="none"/>
   <path d="M 111.738,9.806 C 109.835,10.444 107.275,10.848 105.691,11.657 C 103.617,12.718 102.48,14.451 102.725,17.51 C 103.521,26.359 109.197,31.885 112.312,39.049 C 113.046,40.823 113.694,42.705 114.034,44.759 C 114.757,49.181 114.184,52.507 112.897,55.716 C 111.59,58.98 109.59,62.063 107.497,66.166 C 106.477,68.046 102.501,71.004 100.523,72.214 C 98.503,73.5 94.867,76.562 93.189,77.721 L 93.189,77.772 C 92.063,78.443 86.247,75.501 83.368,73.447 C 76.373,68.461 70.049,63.254 60.524,64.315 C 55.676,64.88 51.328,66.656 47.227,68.759 C 44.218,74.168 42.387,80.049 41.751,86.046 C 45.802,84.321 49.969,82.643 54.495,81.207 C 61.013,79.188 75.832,84.27 75.737,92.177 L 75.737,92.177 C 75.66,93.166 72.173,96.077 67.114,99.14 C 62.374,102.033 57.451,104.445 56.198,104.87 L 53.382,105.729 L 55.899,107.282 C 59.014,109.216 60.716,111.288 63.086,112.842 C 65.55,114.477 68.08,114.797 71.259,112.352 C 74.767,109.632 79.956,107.037 83.486,103.658 C 84.058,103.093 84.378,102.2 84.621,101.457 L 84.791,100.575 L 85.484,101.065 C 86.003,101.457 86.619,101.884 87.12,102.127 L 87.141,102.182 C 91.807,104.549 100.95,121.239 109.667,112.766 C 115.969,106.644 111.834,100.895 108.039,96.695 C 104.212,92.498 100.629,89.51 102.276,87.502 C 104.722,84.588 108.188,83.822 112.579,81.772 C 117.935,79.326 122.581,76.192 125.996,72.364 C 130.024,67.899 132.32,62.466 132.191,55.865 C 132.169,54.537 132.02,53.102 131.798,51.668 C 130.683,45.171 128.238,38.805 126.218,32.576 C 125.898,31.513 124.187,27.239 123.866,25.412 L 123.846,25.145 L 124.631,24.827 C 125.844,24.55 127.247,24.975 129.032,24.676 C 132.508,24.007 137.578,24.572 141.48,23.338 C 147.178,21.51 143.649,12.176 141.078,10.103 C 132.828,3.482 121.146,6.819 111.738,9.806 Z M 112.312,39.049 C 112.329,39.058 112.36,39.073 112.312,39.049 Z M 9.267,63.742 C 6.087,66.04 5.79,70.812 6.162,75.011 C 6.534,79.358 7.715,84.045 8.277,86.938 C 8.63,88.468 9.002,91.209 9.862,93.303 C 10.659,95.336 12.359,97.834 15.495,96.844 C 19.823,95.483 23.818,93.858 27.772,92.177 C 27.625,87.402 28.09,82.61 29.125,77.976 C 28.072,78.222 26.955,78.421 25.871,78.542 C 25.497,78.561 24.849,78.222 23.818,76.074 C 22.924,74.064 22.233,71.673 21.223,69.079 C 19.299,64.264 15.888,58.905 9.267,63.742 Z" stroke-width="1.858" fill="#b90006" fill-rule="evenodd" marker-start="none" marker-end="none"/>
  </g>
  <g id="Group_1" fill-rule="nonzero" stroke-linejoin="round" stroke-linecap="round" stroke-width="2.527" fill="#ffeb09">
   <g id="Group_2">
    <path d="M 207.43,101.776 C 207.43,100.524 207.05,99.458 206.291,98.58 C 205.532,97.702 204.466,97.098 203.094,96.769 L 203.094,96.686 C 204.713,96.486 205.939,95.994 206.771,95.212 C 207.603,94.43 208.019,93.376 208.019,92.05 C 208.019,90.12 207.32,88.618 205.92,87.543 C 204.521,86.468 202.522,85.931 199.925,85.931 C 197.748,85.931 195.819,86.292 194.136,87.015 L 194.136,90.623 C 194.913,90.229 195.768,89.909 196.701,89.662 C 197.634,89.415 198.558,89.292 199.472,89.292 C 200.872,89.292 201.905,89.53 202.573,90.005 C 203.241,90.481 203.575,91.245 203.575,92.296 C 203.575,93.238 203.19,93.906 202.422,94.299 C 201.654,94.693 200.429,94.889 198.745,94.889 L 197.222,94.889 L 197.222,98.141 L 198.773,98.141 C 200.327,98.141 201.464,98.345 202.182,98.751 C 202.9,99.159 203.259,99.856 203.259,100.844 C 203.259,102.362 202.308,103.121 200.406,103.121 C 199.747,103.121 199.077,103.011 198.395,102.792 C 197.714,102.572 196.957,102.192 196.125,101.653 L 194.163,104.575 C 195.993,105.892 198.174,106.551 200.707,106.551 C 202.783,106.551 204.423,106.13 205.626,105.288 C 206.828,104.447 207.43,103.276 207.43,101.776 Z" marker-start="none" marker-end="none"/>
    <path d="M 212.217,86.205 L 219.749,102.668 L 209.857,102.668 L 209.857,106.235 L 224.249,106.235 L 224.249,103.574 L 216.662,86.205 L 212.217,86.205 Z" marker-start="none" marker-end="none"/>
    <path d="M 226.745,88.167 C 226.745,88.935 226.95,89.516 227.362,89.909 C 227.774,90.303 228.373,90.499 229.159,90.499 C 229.919,90.499 230.506,90.298 230.922,89.896 C 231.338,89.493 231.546,88.917 231.546,88.167 C 231.546,87.445 231.336,86.875 230.915,86.459 C 230.495,86.043 229.909,85.835 229.159,85.835 C 228.391,85.835 227.796,86.038 227.376,86.445 C 226.955,86.852 226.745,87.426 226.745,88.167 Z" marker-start="none" marker-end="none"/>
    <path d="M 261.179,96.262 C 261.179,92.941 260.356,90.39 258.71,88.606 C 257.064,86.823 254.704,85.931 251.631,85.931 C 248.558,85.931 246.198,86.823 244.552,88.606 C 242.905,90.39 242.082,92.95 242.082,96.289 C 242.082,99.627 242.908,102.176 244.558,103.937 C 246.209,105.698 248.576,106.578 251.658,106.578 C 254.74,106.578 257.098,105.691 258.73,103.917 C 260.363,102.142 261.179,99.591 261.179,96.262 Z M 246.541,96.262 C 246.541,94.021 246.966,92.333 247.817,91.199 C 248.668,90.065 249.939,89.498 251.631,89.498 C 255.024,89.498 256.72,91.752 256.72,96.262 C 256.72,100.78 255.033,103.039 251.658,103.039 C 249.966,103.039 248.691,102.469 247.83,101.331 C 246.971,100.192 246.541,98.502 246.541,96.262 Z" marker-start="none" marker-end="none"/>
    <path d="M 269.191,86.205 L 265.007,86.205 L 265.007,107.552 L 269.191,107.552 L 269.191,86.205 Z" marker-start="none" marker-end="none"/>
    <path d="M 280.043,89.265 C 280.774,89.265 281.652,89.425 282.677,89.745 L 282.677,86.631 C 281.634,86.164 280.353,85.931 278.835,85.931 C 277.161,85.931 275.943,86.354 275.179,87.2 C 274.415,88.046 274.033,89.315 274.033,91.007 L 274.033,98.402 L 272.03,98.402 L 272.03,100.171 L 274.335,101.571 L 275.542,104.808 L 278.218,104.808 L 278.218,101.543 L 282.512,101.543 L 282.512,98.402 L 278.218,98.402 L 278.218,91.007 C 278.218,90.413 278.385,89.974 278.718,89.69 C 279.053,89.407 279.494,89.265 280.043,89.265 Z" marker-start="none" marker-end="none"/>
    <path d="M 299.935,86.205 L 295.751,86.205 L 295.751,95.164 C 295.751,96.27 295.554,97.101 295.161,97.654 C 294.767,98.207 294.141,98.484 293.281,98.484 C 292.11,98.484 291.264,98.093 290.743,97.311 C 290.221,96.529 289.961,95.232 289.961,93.421 L 289.961,86.205 L 285.777,86.205 L 285.777,101.543 L 288.973,101.543 L 289.536,99.581 L 289.769,99.581 C 290.235,100.322 290.878,100.882 291.697,101.262 C 292.515,101.641 293.446,101.831 294.488,101.831 C 296.272,101.831 297.625,101.349 298.549,100.384 C 299.473,99.419 299.935,98.027 299.935,96.206 L 299.935,86.205 Z" marker-start="none" marker-end="none"/>
    <path d="M 310.593,98.854 C 309.706,98.854 309.011,98.573 308.508,98.011 C 308.005,97.448 307.717,96.65 307.644,95.616 L 313.516,95.616 C 313.498,96.65 313.228,97.448 312.706,98.011 C 312.185,98.573 311.481,98.854 310.593,98.854 Z M 311.184,85.931 C 308.714,85.931 306.784,86.612 305.394,87.975 C 304.004,89.338 303.309,91.268 303.309,93.764 C 303.309,96.334 303.951,98.322 305.236,99.725 C 306.521,101.129 308.298,101.831 310.566,101.831 C 312.733,101.831 314.421,101.214 315.629,99.979 C 316.836,98.745 317.439,97.039 317.439,94.862 L 317.439,92.831 L 307.548,92.831 C 307.594,91.642 307.946,90.714 308.604,90.047 C 309.263,89.379 310.187,89.045 311.376,89.045 C 312.3,89.045 313.173,89.141 313.996,89.333 C 314.819,89.525 315.679,89.832 316.575,90.252 L 316.575,87.015 C 315.843,86.649 315.061,86.377 314.229,86.198 C 313.397,86.02 312.382,85.931 311.184,85.931 Z" marker-start="none" marker-end="none"/>
    <path d="M 329.403,101.831 C 329.97,101.831 330.441,101.79 330.816,101.708 L 330.5,97.784 C 330.162,97.876 329.75,97.922 329.265,97.921 C 327.93,97.922 326.889,97.579 326.144,96.893 C 325.398,96.206 325.026,95.246 325.026,94.011 L 325.026,86.205 L 320.842,86.205 L 320.842,101.543 L 324.011,101.543 L 324.628,98.964 L 324.834,98.964 C 325.309,99.824 325.952,100.517 326.762,101.042 C 327.571,101.568 328.452,101.831 329.403,101.831 Z" marker-start="none" marker-end="none"/>
   </g>
   <g id="Group_3">
    <path d="M 208.212,49.179 L 194.191,49.179 L 194.191,52.129 L 199.225,57.219 C 200.717,58.746 201.691,59.804 202.147,60.394 C 202.605,60.985 202.935,61.531 203.136,62.034 C 203.337,62.537 203.437,63.058 203.437,63.598 C 203.437,64.403 203.216,65.002 202.772,65.395 C 202.328,65.789 201.736,65.985 200.995,65.985 C 200.218,65.985 199.463,65.807 198.732,65.45 C 198,65.093 197.236,64.586 196.44,63.927 L 194.136,66.657 C 195.123,67.499 195.942,68.093 196.591,68.441 C 197.241,68.788 197.95,69.056 198.718,69.243 C 199.486,69.431 200.346,69.525 201.297,69.525 C 202.55,69.525 203.656,69.296 204.617,68.839 C 205.577,68.381 206.323,67.741 206.853,66.918 C 207.384,66.095 207.649,65.153 207.649,64.092 C 207.649,63.168 207.487,62.302 207.162,61.492 C 206.837,60.683 206.334,59.853 205.653,59.002 C 204.972,58.152 203.771,56.94 202.051,55.366 L 199.472,52.938 L 199.472,52.746 L 208.212,52.746 L 208.212,49.179 Z" marker-start="none" marker-end="none"/>
    <path d="M 209.94,54.996 L 209.94,58.426 L 217.306,58.426 L 217.306,54.996 L 209.94,54.996 Z" marker-start="none" marker-end="none"/>
    <path d="M 232.508,54.749 C 232.508,52.938 231.856,51.512 230.553,50.469 C 229.249,49.426 227.436,48.905 225.113,48.905 C 222.973,48.905 221.08,49.307 219.433,50.112 L 219.433,54.063 C 220.787,53.46 221.932,53.034 222.87,52.787 C 223.807,52.54 224.665,52.417 225.442,52.417 C 226.375,52.417 227.09,52.595 227.589,52.952 C 228.088,53.309 228.337,53.839 228.337,54.543 C 228.337,54.937 228.227,55.287 228.008,55.593 C 227.788,55.899 227.466,56.194 227.041,56.478 C 226.615,56.761 225.748,57.214 224.441,57.836 C 223.215,58.413 222.296,58.966 221.683,59.496 C 221.07,60.027 220.581,60.644 220.215,61.348 C 219.85,62.053 219.667,62.876 219.666,63.818 C 219.667,65.592 220.268,66.987 221.47,68.002 C 222.673,69.017 224.336,69.525 226.458,69.525 C 227.5,69.525 228.495,69.401 229.441,69.154 C 230.388,68.907 231.378,68.56 232.412,68.112 L 231.04,64.805 C 229.97,65.244 229.085,65.551 228.385,65.724 C 227.685,65.898 226.997,65.985 226.32,65.985 C 225.515,65.985 224.898,65.798 224.468,65.423 C 224.038,65.048 223.823,64.558 223.823,63.955 C 223.823,63.58 223.91,63.253 224.084,62.974 C 224.258,62.695 224.534,62.425 224.914,62.164 C 225.293,61.904 226.192,61.435 227.61,60.758 C 229.485,59.862 230.77,58.963 231.465,58.062 C 232.16,57.161 232.508,56.057 232.508,54.749 Z" marker-start="none" marker-end="none"/>
    <path d="M 242.276,52.239 C 243.007,52.239 243.885,52.399 244.91,52.719 L 244.91,49.605 C 243.867,49.138 242.586,48.905 241.068,48.905 C 239.394,48.905 238.176,49.328 237.412,50.174 C 236.648,51.02 236.266,52.289 236.266,53.981 L 236.266,61.376 L 234.263,61.376 L 234.263,63.145 L 236.568,64.545 L 237.775,67.782 L 240.451,67.782 L 240.451,64.517 L 244.745,64.517 L 244.745,61.376 L 240.451,61.376 L 240.451,53.981 C 240.451,53.387 240.618,52.948 240.951,52.664 C 241.286,52.381 241.727,52.239 242.276,52.239 Z" marker-start="none" marker-end="none"/>
    <path d="M 258.875,49.179 L 258.313,51.141 L 258.093,51.141 C 257.645,50.428 257.009,49.877 256.186,49.488 C 255.363,49.099 254.425,48.905 253.374,48.905 C 251.572,48.905 250.214,49.387 249.299,50.352 C 248.385,51.317 247.927,52.705 247.927,54.516 L 247.927,64.517 L 252.112,64.517 L 252.112,55.559 C 252.112,54.452 252.308,53.622 252.701,53.069 C 253.095,52.515 253.721,52.239 254.581,52.239 C 255.752,52.239 256.598,52.63 257.119,53.412 C 257.64,54.193 257.901,55.49 257.901,57.301 L 257.901,64.517 L 262.085,64.517 L 262.085,49.179 L 258.875,49.179 Z" marker-start="none" marker-end="none"/>
    <path d="M 280.633,49.179 L 276.449,49.179 L 276.449,58.138 C 276.449,59.244 276.252,60.075 275.859,60.628 C 275.465,61.181 274.839,61.458 273.979,61.458 C 272.808,61.458 271.962,61.067 271.441,60.285 C 270.919,59.503 270.659,58.206 270.659,56.395 L 270.659,49.179 L 266.475,49.179 L 266.475,64.517 L 269.671,64.517 L 270.234,62.555 L 270.467,62.555 C 270.933,63.296 271.576,63.856 272.395,64.236 C 273.213,64.615 274.144,64.805 275.186,64.805 C 276.97,64.805 278.323,64.323 279.247,63.358 C 280.171,62.393 280.633,61.001 280.633,59.18 L 280.633,49.179 Z" marker-start="none" marker-end="none"/>
    <path d="M 289.796,48.905 C 287.994,48.905 286.579,49.605 285.55,51.004 C 284.521,52.403 284.007,54.342 284.007,56.821 C 284.007,59.336 284.53,61.296 285.578,62.699 C 286.625,64.103 288.067,64.805 289.906,64.805 C 291.836,64.805 293.309,64.055 294.324,62.555 L 294.461,62.555 C 294.251,63.699 294.145,64.718 294.145,65.615 L 294.145,70.526 L 298.343,70.526 L 298.343,49.179 L 295.133,49.179 L 294.324,51.169 L 294.145,51.169 C 293.194,49.659 291.744,48.905 289.796,48.905 Z M 291.264,52.239 C 292.334,52.239 293.119,52.55 293.617,53.171 C 294.116,53.793 294.388,54.85 294.433,56.341 L 294.433,56.793 C 294.433,58.44 294.18,59.619 293.672,60.333 C 293.164,61.046 292.339,61.403 291.195,61.403 C 290.263,61.403 289.538,61.008 289.021,60.216 C 288.504,59.425 288.246,58.275 288.246,56.766 C 288.246,55.257 288.506,54.125 289.028,53.37 C 289.549,52.616 290.294,52.239 291.264,52.239 Z" marker-start="none" marker-end="none"/>
    <path d="M 309.071,61.828 C 308.184,61.828 307.489,61.547 306.986,60.985 C 306.483,60.422 306.195,59.624 306.122,58.59 L 311.994,58.59 C 311.976,59.624 311.706,60.422 311.184,60.985 C 310.663,61.547 309.959,61.828 309.071,61.828 Z M 309.662,48.905 C 307.192,48.905 305.262,49.586 303.872,50.949 C 302.482,52.312 301.787,54.242 301.787,56.738 C 301.787,59.308 302.429,61.296 303.714,62.699 C 304.999,64.103 306.776,64.805 309.044,64.805 C 311.211,64.805 312.899,64.188 314.107,62.953 C 315.314,61.719 315.917,60.013 315.917,57.836 L 315.917,55.805 L 306.026,55.805 C 306.072,54.616 306.424,53.688 307.082,53.021 C 307.741,52.353 308.665,52.019 309.854,52.019 C 310.778,52.019 311.651,52.115 312.474,52.307 C 313.297,52.499 314.157,52.806 315.053,53.226 L 315.053,49.989 C 314.321,49.623 313.539,49.351 312.707,49.172 C 311.875,48.994 310.86,48.905 309.662,48.905 Z" marker-start="none" marker-end="none"/>
    <path d="M 333.478,49.179 L 329.294,49.179 L 329.294,58.138 C 329.294,59.244 329.097,60.075 328.704,60.628 C 328.31,61.181 327.684,61.458 326.824,61.458 C 325.653,61.458 324.807,61.067 324.286,60.285 C 323.764,59.503 323.504,58.206 323.504,56.395 L 323.504,49.179 L 319.32,49.179 L 319.32,64.517 L 322.516,64.517 L 323.079,62.555 L 323.312,62.555 C 323.778,63.296 324.421,63.856 325.24,64.236 C 326.058,64.615 326.989,64.805 328.031,64.805 C 329.815,64.805 331.168,64.323 332.092,63.358 C 333.016,62.393 333.478,61.001 333.478,59.18 L 333.478,49.179 Z" marker-start="none" marker-end="none"/>
    <path d="M 336.427,54.996 L 336.427,58.426 L 343.793,58.426 L 343.793,54.996 L 336.427,54.996 Z" marker-start="none" marker-end="none"/>
    <path d="M 347.155,49.179 L 347.155,69.236 L 351.408,69.236 L 351.408,52.691 L 359.543,52.691 L 359.543,49.179 L 347.155,49.179 Z" marker-start="none" marker-end="none"/>
    <path d="M 372.439,49.179 L 371.63,51.265 L 371.52,51.265 C 370.816,50.377 370.091,49.762 369.345,49.419 C 368.6,49.076 367.628,48.905 366.43,48.905 C 364.958,48.905 363.799,49.326 362.952,50.167 C 362.107,51.009 361.684,52.207 361.683,53.761 C 361.684,55.389 362.253,56.59 363.391,57.363 C 364.53,58.135 366.247,58.563 368.543,58.645 L 371.205,58.728 L 371.205,59.4 C 371.205,60.954 370.409,61.732 368.818,61.732 C 367.592,61.732 366.151,61.361 364.496,60.621 L 363.11,63.447 C 364.876,64.371 366.833,64.833 368.982,64.833 C 371.04,64.833 372.618,64.385 373.715,63.488 C 374.813,62.592 375.361,61.229 375.361,59.4 L 375.361,49.179 L 372.439,49.179 Z M 371.205,56.286 L 369.585,56.231 C 368.369,56.194 367.464,55.975 366.869,55.572 C 366.275,55.17 365.978,54.557 365.977,53.734 C 365.978,52.554 366.654,51.964 368.008,51.964 C 368.978,51.964 369.753,52.243 370.333,52.801 C 370.914,53.359 371.205,54.1 371.205,55.024 L 371.205,56.286 Z" marker-start="none" marker-end="none"/>
    <path d="M 390.534,49.179 L 389.972,51.141 L 389.752,51.141 C 389.304,50.428 388.668,49.877 387.845,49.488 C 387.022,49.099 386.084,48.905 385.033,48.905 C 383.231,48.905 381.873,49.387 380.958,50.352 C 380.044,51.317 379.586,52.705 379.586,54.516 L 379.586,64.517 L 383.771,64.517 L 383.771,55.559 C 383.771,54.452 383.967,53.622 384.36,53.069 C 384.754,52.515 385.38,52.239 386.24,52.239 C 387.411,52.239 388.257,52.63 388.778,53.412 C 389.299,54.193 389.56,55.49 389.56,57.301 L 389.56,64.517 L 393.744,64.517 L 393.744,49.179 L 390.534,49.179 Z" marker-start="none" marker-end="none"/>
    <path d="M 406.612,61.376 L 402.99,61.376 L 402.99,49.179 L 398.806,49.179 L 398.806,61.376 L 396.501,61.376 L 396.501,63.392 L 398.806,64.517 L 398.806,65.642 C 398.806,67.389 399.236,68.665 400.095,69.47 C 400.955,70.275 402.332,70.677 404.225,70.677 C 405.67,70.677 406.955,70.462 408.08,70.032 L 407.01,66.959 C 406.169,67.225 405.391,67.357 404.678,67.357 C 404.083,67.357 403.653,67.181 403.388,66.829 C 403.123,66.477 402.99,66.026 402.99,65.478 L 402.99,64.517 L 406.612,64.517 L 406.612,61.376 Z" marker-start="none" marker-end="none"/>
   </g>
   <g id="Group_4">
    <path d="M 196.324,12.097 L 203.252,27.063 L 194.14,27.063 L 194.14,28.812 L 205.264,28.812 L 205.264,27.291 L 198.428,12.097 L 196.324,12.097 Z" marker-start="none" marker-end="none"/>
    <path d="M 208.192,13.309 C 208.192,13.82 208.308,14.207 208.54,14.47 C 208.773,14.733 209.106,14.864 209.54,14.864 C 209.983,14.864 210.328,14.733 210.575,14.47 C 210.823,14.207 210.947,13.82 210.947,13.309 C 210.947,12.814 210.821,12.433 210.569,12.166 C 210.318,11.899 209.975,11.766 209.54,11.766 C 209.152,11.766 208.83,11.886 208.574,12.126 C 208.319,12.366 208.192,12.76 208.192,13.309 Z" marker-start="none" marker-end="none"/>
    <path d="M 219.704,17.505 L 219.704,19.243 L 229.536,19.243 L 229.536,17.505 L 219.704,17.505 Z" marker-start="none" marker-end="none"/>
    <path d="M 244.73,12.097 L 242.878,12.097 L 242.878,24.01 C 242.878,25.001 242.908,25.939 242.97,26.822 C 242.809,26.663 242.63,26.495 242.432,26.319 C 242.234,26.144 241.327,25.401 239.711,24.09 L 238.705,25.394 L 243.13,28.812 L 244.73,28.812 L 244.73,12.097 Z" marker-start="none" marker-end="none"/>
    <path d="M 262.863,15.939 L 260.382,15.939 L 260.382,12.097 L 258.564,12.097 L 258.564,15.939 L 250.435,15.939 L 250.435,17.596 L 258.37,28.903 L 260.382,28.903 L 260.382,17.665 L 262.863,17.665 L 262.863,15.939 Z M 258.564,17.665 L 258.564,23.221 C 258.564,24.311 258.602,25.542 258.678,26.914 L 258.587,26.914 C 258.221,26.183 257.878,25.576 257.558,25.096 L 252.333,17.665 L 258.564,17.665 Z" marker-start="none" marker-end="none"/>
    <path d="M 265.07,13.309 C 265.07,13.82 265.186,14.207 265.418,14.47 C 265.651,14.733 265.984,14.864 266.418,14.864 C 266.861,14.864 267.206,14.733 267.453,14.47 C 267.701,14.207 267.825,13.82 267.825,13.309 C 267.825,12.814 267.699,12.433 267.447,12.166 C 267.196,11.899 266.853,11.766 266.418,11.766 C 266.03,11.766 265.708,11.886 265.452,12.126 C 265.197,12.366 265.07,12.76 265.07,13.309 Z" marker-start="none" marker-end="none"/>
    <path d="M 281.784,20.478 C 281.784,17.589 281.329,15.432 280.418,14.007 C 279.507,12.581 278.114,11.869 276.239,11.869 C 274.441,11.869 273.073,12.598 272.135,14.058 C 271.198,15.518 270.729,17.658 270.729,20.478 C 270.729,23.389 271.183,25.55 272.089,26.96 C 272.996,28.37 274.38,29.075 276.239,29.075 C 278.054,29.075 279.431,28.34 280.372,26.868 C 281.314,25.397 281.784,23.267 281.784,20.478 Z M 272.649,20.478 C 272.649,18.046 272.935,16.276 273.507,15.167 C 274.079,14.058 274.99,13.503 276.239,13.503 C 277.505,13.503 278.421,14.066 278.989,15.19 C 279.557,16.314 279.841,18.077 279.841,20.478 C 279.841,22.879 279.557,24.637 278.989,25.754 C 278.421,26.87 277.505,27.429 276.239,27.429 C 274.99,27.429 274.079,26.878 273.507,25.776 C 272.935,24.675 272.649,22.909 272.649,20.478 Z" marker-start="none" marker-end="none"/>
    <path d="M 295.081,21.678 C 295.081,15.138 292.55,11.869 287.489,11.869 C 286.605,11.869 285.904,11.945 285.386,12.097 L 285.386,13.732 C 285.996,13.534 286.689,13.435 287.467,13.435 C 289.296,13.435 290.677,14.001 291.611,15.133 C 292.545,16.264 293.053,18 293.137,20.34 L 293,20.34 C 292.581,19.708 292.025,19.226 291.331,18.894 C 290.637,18.563 289.856,18.397 288.987,18.397 C 287.509,18.397 286.335,18.839 285.466,19.723 C 284.597,20.607 284.162,21.842 284.163,23.427 C 284.162,25.165 284.648,26.537 285.62,27.543 C 286.592,28.549 287.871,29.052 289.456,29.052 C 290.591,29.052 291.584,28.76 292.434,28.177 C 293.284,27.594 293.937,26.744 294.395,25.628 C 294.852,24.511 295.081,23.195 295.081,21.678 Z M 289.456,27.429 C 288.366,27.429 287.524,27.078 286.929,26.377 C 286.335,25.676 286.037,24.7 286.037,23.45 C 286.037,22.352 286.312,21.489 286.861,20.86 C 287.409,20.231 288.244,19.917 289.365,19.917 C 290.058,19.917 290.696,20.058 291.279,20.34 C 291.862,20.622 292.322,21.007 292.657,21.495 C 292.992,21.983 293.16,22.493 293.16,23.027 C 293.16,23.827 293.004,24.567 292.691,25.245 C 292.379,25.923 291.943,26.457 291.382,26.846 C 290.822,27.234 290.18,27.429 289.456,27.429 Z" marker-start="none" marker-end="none"/>
    <path d="M 298.077,13.309 C 298.077,13.82 298.193,14.207 298.425,14.47 C 298.658,14.733 298.991,14.864 299.425,14.864 C 299.868,14.864 300.213,14.733 300.46,14.47 C 300.708,14.207 300.832,13.82 300.832,13.309 C 300.832,12.814 300.706,12.433 300.454,12.166 C 300.203,11.899 299.86,11.766 299.425,11.766 C 299.037,11.766 298.715,11.886 298.459,12.126 C 298.204,12.366 298.077,12.76 298.077,13.309 Z" marker-start="none" marker-end="none"/>
    <path d="M 314.7,12.097 L 303.713,12.097 L 303.713,13.732 L 308.115,18.157 C 309.456,19.513 310.34,20.482 310.767,21.061 C 311.194,21.64 311.514,22.204 311.727,22.753 C 311.941,23.301 312.048,23.892 312.048,24.525 C 312.048,25.416 311.777,26.123 311.236,26.645 C 310.695,27.168 309.944,27.429 308.984,27.429 C 308.29,27.429 307.633,27.314 307.011,27.086 C 306.39,26.857 305.698,26.441 304.936,25.839 L 303.93,27.131 C 305.47,28.412 307.147,29.052 308.96,29.052 C 310.531,29.052 311.762,28.65 312.653,27.846 C 313.545,27.042 313.991,25.961 313.991,24.605 C 313.991,23.545 313.694,22.497 313.099,21.461 C 312.505,20.424 311.392,19.113 309.761,17.528 L 306.102,13.949 L 306.102,13.858 L 314.7,13.858 L 314.7,12.097 Z" marker-start="none" marker-end="none"/>
    <path d="M 328.179,20.478 C 328.179,17.589 327.724,15.432 326.813,14.007 C 325.902,12.581 324.509,11.869 322.634,11.869 C 320.836,11.869 319.468,12.598 318.53,14.058 C 317.593,15.518 317.124,17.658 317.124,20.478 C 317.124,23.389 317.578,25.55 318.484,26.96 C 319.391,28.37 320.775,29.075 322.634,29.075 C 324.449,29.075 325.826,28.34 326.767,26.868 C 327.709,25.397 328.179,23.267 328.179,20.478 Z M 319.044,20.478 C 319.044,18.046 319.33,16.276 319.902,15.167 C 320.474,14.058 321.385,13.503 322.634,13.503 C 323.9,13.503 324.816,14.066 325.384,15.19 C 325.952,16.314 326.236,18.077 326.236,20.478 C 326.236,22.879 325.952,24.637 325.384,25.754 C 324.816,26.87 323.9,27.429 322.634,27.429 C 321.385,27.429 320.474,26.878 319.902,25.776 C 319.33,24.675 319.044,22.909 319.044,20.478 Z" marker-start="none" marker-end="none"/>
    <path d="M 341.476,12.097 L 330.489,12.097 L 330.489,13.732 L 334.891,18.157 C 336.232,19.513 337.116,20.482 337.543,21.061 C 337.97,21.64 338.29,22.204 338.503,22.753 C 338.717,23.301 338.824,23.892 338.824,24.525 C 338.824,25.416 338.553,26.123 338.012,26.645 C 337.471,27.168 336.72,27.429 335.76,27.429 C 335.066,27.429 334.409,27.314 333.787,27.086 C 333.166,26.857 332.474,26.441 331.712,25.839 L 330.706,27.131 C 332.246,28.412 333.923,29.052 335.736,29.052 C 337.307,29.052 338.538,28.65 339.429,27.846 C 340.321,27.042 340.767,25.961 340.767,24.605 C 340.767,23.545 340.47,22.497 339.875,21.461 C 339.281,20.424 338.168,19.113 336.537,17.528 L 332.878,13.949 L 332.878,13.858 L 341.476,13.858 L 341.476,12.097 Z" marker-start="none" marker-end="none"/>
    <path d="M 355.653,15.939 L 353.172,15.939 L 353.172,12.097 L 351.354,12.097 L 351.354,15.939 L 343.225,15.939 L 343.225,17.596 L 351.16,28.903 L 353.172,28.903 L 353.172,17.665 L 355.653,17.665 L 355.653,15.939 Z M 351.354,17.665 L 351.354,23.221 C 351.354,24.311 351.392,25.542 351.468,26.914 L 351.377,26.914 C 351.011,26.183 350.668,25.576 350.348,25.096 L 345.123,17.665 L 351.354,17.665 Z" marker-start="none" marker-end="none"/>
   </g>
  </g>
  <g id="Group_5" fill-rule="nonzero" stroke-linejoin="round" stroke-linecap="round" stroke="none" stroke-width="0.211" fill="#ffeb09">
   <g id="Group_6">
    <path d="M 207.43,101.776 C 207.43,100.524 207.05,99.458 206.291,98.58 C 205.532,97.702 204.466,97.098 203.094,96.769 L 203.094,96.686 C 204.713,96.486 205.939,95.994 206.771,95.212 C 207.603,94.43 208.019,93.376 208.019,92.05 C 208.019,90.12 207.32,88.618 205.92,87.543 C 204.521,86.468 202.522,85.931 199.925,85.931 C 197.748,85.931 195.819,86.292 194.136,87.015 L 194.136,90.623 C 194.913,90.229 195.768,89.909 196.701,89.662 C 197.634,89.415 198.558,89.292 199.472,89.292 C 200.872,89.292 201.905,89.53 202.573,90.005 C 203.241,90.481 203.575,91.245 203.575,92.296 C 203.575,93.238 203.19,93.906 202.422,94.299 C 201.654,94.693 200.429,94.889 198.745,94.889 L 197.222,94.889 L 197.222,98.141 L 198.773,98.141 C 200.327,98.141 201.464,98.345 202.182,98.751 C 202.9,99.159 203.259,99.856 203.259,100.844 C 203.259,102.362 202.308,103.121 200.406,103.121 C 199.747,103.121 199.077,103.011 198.395,102.792 C 197.714,102.572 196.957,102.192 196.125,101.653 L 194.163,104.575 C 195.993,105.892 198.174,106.551 200.707,106.551 C 202.783,106.551 204.423,106.13 205.626,105.288 C 206.828,104.447 207.43,103.276 207.43,101.776 Z" marker-start="none" marker-end="none"/>
    <path d="M 212.217,86.205 L 219.749,102.668 L 209.857,102.668 L 209.857,106.235 L 224.249,106.235 L 224.249,103.574 L 216.662,86.205 L 212.217,86.205 Z" marker-start="none" marker-end="none"/>
    <path d="M 226.745,88.167 C 226.745,88.935 226.95,89.516 227.362,89.909 C 227.774,90.303 228.373,90.499 229.159,90.499 C 229.919,90.499 230.506,90.298 230.922,89.896 C 231.338,89.493 231.546,88.917 231.546,88.167 C 231.546,87.445 231.336,86.875 230.915,86.459 C 230.495,86.043 229.909,85.835 229.159,85.835 C 228.391,85.835 227.796,86.038 227.376,86.445 C 226.955,86.852 226.745,87.426 226.745,88.167 Z" marker-start="none" marker-end="none"/>
    <path d="M 261.179,96.262 C 261.179,92.941 260.356,90.39 258.71,88.606 C 257.064,86.823 254.704,85.931 251.631,85.931 C 248.558,85.931 246.198,86.823 244.552,88.606 C 242.905,90.39 242.082,92.95 242.082,96.289 C 242.082,99.627 242.908,102.176 244.558,103.937 C 246.209,105.698 248.576,106.578 251.658,106.578 C 254.74,106.578 257.098,105.691 258.73,103.917 C 260.363,102.142 261.179,99.591 261.179,96.262 Z M 246.541,96.262 C 246.541,94.021 246.966,92.333 247.817,91.199 C 248.668,90.065 249.939,89.498 251.631,89.498 C 255.024,89.498 256.72,91.752 256.72,96.262 C 256.72,100.78 255.033,103.039 251.658,103.039 C 249.966,103.039 248.691,102.469 247.83,101.331 C 246.971,100.192 246.541,98.502 246.541,96.262 Z" marker-start="none" marker-end="none"/>
    <path d="M 269.191,86.205 L 265.007,86.205 L 265.007,107.552 L 269.191,107.552 L 269.191,86.205 Z" marker-start="none" marker-end="none"/>
    <path d="M 280.043,89.265 C 280.774,89.265 281.652,89.425 282.677,89.745 L 282.677,86.631 C 281.634,86.164 280.353,85.931 278.835,85.931 C 277.161,85.931 275.943,86.354 275.179,87.2 C 274.415,88.046 274.033,89.315 274.033,91.007 L 274.033,98.402 L 272.03,98.402 L 272.03,100.171 L 274.335,101.571 L 275.542,104.808 L 278.218,104.808 L 278.218,101.543 L 282.512,101.543 L 282.512,98.402 L 278.218,98.402 L 278.218,91.007 C 278.218,90.413 278.385,89.974 278.718,89.69 C 279.053,89.407 279.494,89.265 280.043,89.265 Z" marker-start="none" marker-end="none"/>
    <path d="M 299.935,86.205 L 295.751,86.205 L 295.751,95.164 C 295.751,96.27 295.554,97.101 295.161,97.654 C 294.767,98.207 294.141,98.484 293.281,98.484 C 292.11,98.484 291.264,98.093 290.743,97.311 C 290.221,96.529 289.961,95.232 289.961,93.421 L 289.961,86.205 L 285.777,86.205 L 285.777,101.543 L 288.973,101.543 L 289.536,99.581 L 289.769,99.581 C 290.235,100.322 290.878,100.882 291.697,101.262 C 292.515,101.641 293.446,101.831 294.488,101.831 C 296.272,101.831 297.625,101.349 298.549,100.384 C 299.473,99.419 299.935,98.027 299.935,96.206 L 299.935,86.205 Z" marker-start="none" marker-end="none"/>
    <path d="M 310.593,98.854 C 309.706,98.854 309.011,98.573 308.508,98.011 C 308.005,97.448 307.717,96.65 307.644,95.616 L 313.516,95.616 C 313.498,96.65 313.228,97.448 312.706,98.011 C 312.185,98.573 311.481,98.854 310.593,98.854 Z M 311.184,85.931 C 308.714,85.931 306.784,86.612 305.394,87.975 C 304.004,89.338 303.309,91.268 303.309,93.764 C 303.309,96.334 303.951,98.322 305.236,99.725 C 306.521,101.129 308.298,101.831 310.566,101.831 C 312.733,101.831 314.421,101.214 315.629,99.979 C 316.836,98.745 317.439,97.039 317.439,94.862 L 317.439,92.831 L 307.548,92.831 C 307.594,91.642 307.946,90.714 308.604,90.047 C 309.263,89.379 310.187,89.045 311.376,89.045 C 312.3,89.045 313.173,89.141 313.996,89.333 C 314.819,89.525 315.679,89.832 316.575,90.252 L 316.575,87.015 C 315.843,86.649 315.061,86.377 314.229,86.198 C 313.397,86.02 312.382,85.931 311.184,85.931 Z" marker-start="none" marker-end="none"/>
    <path d="M 329.403,101.831 C 329.97,101.831 330.441,101.79 330.816,101.708 L 330.5,97.784 C 330.162,97.876 329.75,97.922 329.265,97.921 C 327.93,97.922 326.889,97.579 326.144,96.893 C 325.398,96.206 325.026,95.246 325.026,94.011 L 325.026,86.205 L 320.842,86.205 L 320.842,101.543 L 324.011,101.543 L 324.628,98.964 L 324.834,98.964 C 325.309,99.824 325.952,100.517 326.762,101.042 C 327.571,101.568 328.452,101.831 329.403,101.831 Z" marker-start="none" marker-end="none"/>
   </g>
   <g id="Group_7">
    <path d="M 208.212,49.179 L 194.191,49.179 L 194.191,52.129 L 199.225,57.219 C 200.717,58.746 201.691,59.804 202.147,60.394 C 202.605,60.985 202.935,61.531 203.136,62.034 C 203.337,62.537 203.437,63.058 203.437,63.598 C 203.437,64.403 203.216,65.002 202.772,65.395 C 202.328,65.789 201.736,65.985 200.995,65.985 C 200.218,65.985 199.463,65.807 198.732,65.45 C 198,65.093 197.236,64.586 196.44,63.927 L 194.136,66.657 C 195.123,67.499 195.942,68.093 196.591,68.441 C 197.241,68.788 197.95,69.056 198.718,69.243 C 199.486,69.431 200.346,69.525 201.297,69.525 C 202.55,69.525 203.656,69.296 204.617,68.839 C 205.577,68.381 206.323,67.741 206.853,66.918 C 207.384,66.095 207.649,65.153 207.649,64.092 C 207.649,63.168 207.487,62.302 207.162,61.492 C 206.837,60.683 206.334,59.853 205.653,59.002 C 204.972,58.152 203.771,56.94 202.051,55.366 L 199.472,52.938 L 199.472,52.746 L 208.212,52.746 L 208.212,49.179 Z" marker-start="none" marker-end="none"/>
    <path d="M 209.94,54.996 L 209.94,58.426 L 217.306,58.426 L 217.306,54.996 L 209.94,54.996 Z" marker-start="none" marker-end="none"/>
    <path d="M 232.508,54.749 C 232.508,52.938 231.856,51.512 230.553,50.469 C 229.249,49.426 227.436,48.905 225.113,48.905 C 222.973,48.905 221.08,49.307 219.433,50.112 L 219.433,54.063 C 220.787,53.46 221.932,53.034 222.87,52.787 C 223.807,52.54 224.665,52.417 225.442,52.417 C 226.375,52.417 227.09,52.595 227.589,52.952 C 228.088,53.309 228.337,53.839 228.337,54.543 C 228.337,54.937 228.227,55.287 228.008,55.593 C 227.788,55.899 227.466,56.194 227.041,56.478 C 226.615,56.761 225.748,57.214 224.441,57.836 C 223.215,58.413 222.296,58.966 221.683,59.496 C 221.07,60.027 220.581,60.644 220.215,61.348 C 219.85,62.053 219.667,62.876 219.666,63.818 C 219.667,65.592 220.268,66.987 221.47,68.002 C 222.673,69.017 224.336,69.525 226.458,69.525 C 227.5,69.525 228.495,69.401 229.441,69.154 C 230.388,68.907 231.378,68.56 232.412,68.112 L 231.04,64.805 C 229.97,65.244 229.085,65.551 228.385,65.724 C 227.685,65.898 226.997,65.985 226.32,65.985 C 225.515,65.985 224.898,65.798 224.468,65.423 C 224.038,65.048 223.823,64.558 223.823,63.955 C 223.823,63.58 223.91,63.253 224.084,62.974 C 224.258,62.695 224.534,62.425 224.914,62.164 C 225.293,61.904 226.192,61.435 227.61,60.758 C 229.485,59.862 230.77,58.963 231.465,58.062 C 232.16,57.161 232.508,56.057 232.508,54.749 Z" marker-start="none" marker-end="none"/>
    <path d="M 242.276,52.239 C 243.007,52.239 243.885,52.399 244.91,52.719 L 244.91,49.605 C 243.867,49.138 242.586,48.905 241.068,48.905 C 239.394,48.905 238.176,49.328 237.412,50.174 C 236.648,51.02 236.266,52.289 236.266,53.981 L 236.266,61.376 L 234.263,61.376 L 234.263,63.145 L 236.568,64.545 L 237.775,67.782 L 240.451,67.782 L 240.451,64.517 L 244.745,64.517 L 244.745,61.376 L 240.451,61.376 L 240.451,53.981 C 240.451,53.387 240.618,52.948 240.951,52.664 C 241.286,52.381 241.727,52.239 242.276,52.239 Z" marker-start="none" marker-end="none"/>
    <path d="M 258.875,49.179 L 258.313,51.141 L 258.093,51.141 C 257.645,50.428 257.009,49.877 256.186,49.488 C 255.363,49.099 254.425,48.905 253.374,48.905 C 251.572,48.905 250.214,49.387 249.299,50.352 C 248.385,51.317 247.927,52.705 247.927,54.516 L 247.927,64.517 L 252.112,64.517 L 252.112,55.559 C 252.112,54.452 252.308,53.622 252.701,53.069 C 253.095,52.515 253.721,52.239 254.581,52.239 C 255.752,52.239 256.598,52.63 257.119,53.412 C 257.64,54.193 257.901,55.49 257.901,57.301 L 257.901,64.517 L 262.085,64.517 L 262.085,49.179 L 258.875,49.179 Z" marker-start="none" marker-end="none"/>
    <path d="M 280.633,49.179 L 276.449,49.179 L 276.449,58.138 C 276.449,59.244 276.252,60.075 275.859,60.628 C 275.465,61.181 274.839,61.458 273.979,61.458 C 272.808,61.458 271.962,61.067 271.441,60.285 C 270.919,59.503 270.659,58.206 270.659,56.395 L 270.659,49.179 L 266.475,49.179 L 266.475,64.517 L 269.671,64.517 L 270.234,62.555 L 270.467,62.555 C 270.933,63.296 271.576,63.856 272.395,64.236 C 273.213,64.615 274.144,64.805 275.186,64.805 C 276.97,64.805 278.323,64.323 279.247,63.358 C 280.171,62.393 280.633,61.001 280.633,59.18 L 280.633,49.179 Z" marker-start="none" marker-end="none"/>
    <path d="M 289.796,48.905 C 287.994,48.905 286.579,49.605 285.55,51.004 C 284.521,52.403 284.007,54.342 284.007,56.821 C 284.007,59.336 284.53,61.296 285.578,62.699 C 286.625,64.103 288.067,64.805 289.906,64.805 C 291.836,64.805 293.309,64.055 294.324,62.555 L 294.461,62.555 C 294.251,63.699 294.145,64.718 294.145,65.615 L 294.145,70.526 L 298.343,70.526 L 298.343,49.179 L 295.133,49.179 L 294.324,51.169 L 294.145,51.169 C 293.194,49.659 291.744,48.905 289.796,48.905 Z M 291.264,52.239 C 292.334,52.239 293.119,52.55 293.617,53.171 C 294.116,53.793 294.388,54.85 294.433,56.341 L 294.433,56.793 C 294.433,58.44 294.18,59.619 293.672,60.333 C 293.164,61.046 292.339,61.403 291.195,61.403 C 290.263,61.403 289.538,61.008 289.021,60.216 C 288.504,59.425 288.246,58.275 288.246,56.766 C 288.246,55.257 288.506,54.125 289.028,53.37 C 289.549,52.616 290.294,52.239 291.264,52.239 Z" marker-start="none" marker-end="none"/>
    <path d="M 309.071,61.828 C 308.184,61.828 307.489,61.547 306.986,60.985 C 306.483,60.422 306.195,59.624 306.122,58.59 L 311.994,58.59 C 311.976,59.624 311.706,60.422 311.184,60.985 C 310.663,61.547 309.959,61.828 309.071,61.828 Z M 309.662,48.905 C 307.192,48.905 305.262,49.586 303.872,50.949 C 302.482,52.312 301.787,54.242 301.787,56.738 C 301.787,59.308 302.429,61.296 303.714,62.699 C 304.999,64.103 306.776,64.805 309.044,64.805 C 311.211,64.805 312.899,64.188 314.107,62.953 C 315.314,61.719 315.917,60.013 315.917,57.836 L 315.917,55.805 L 306.026,55.805 C 306.072,54.616 306.424,53.688 307.082,53.021 C 307.741,52.353 308.665,52.019 309.854,52.019 C 310.778,52.019 311.651,52.115 312.474,52.307 C 313.297,52.499 314.157,52.806 315.053,53.226 L 315.053,49.989 C 314.321,49.623 313.539,49.351 312.707,49.172 C 311.875,48.994 310.86,48.905 309.662,48.905 Z" marker-start="none" marker-end="none"/>
    <path d="M 333.478,49.179 L 329.294,49.179 L 329.294,58.138 C 329.294,59.244 329.097,60.075 328.704,60.628 C 328.31,61.181 327.684,61.458 326.824,61.458 C 325.653,61.458 324.807,61.067 324.286,60.285 C 323.764,59.503 323.504,58.206 323.504,56.395 L 323.504,49.179 L 319.32,49.179 L 319.32,64.517 L 322.516,64.517 L 323.079,62.555 L 323.312,62.555 C 323.778,63.296 324.421,63.856 325.24,64.236 C 326.058,64.615 326.989,64.805 328.031,64.805 C 329.815,64.805 331.168,64.323 332.092,63.358 C 333.016,62.393 333.478,61.001 333.478,59.18 L 333.478,49.179 Z" marker-start="none" marker-end="none"/>
    <path d="M 336.427,54.996 L 336.427,58.426 L 343.793,58.426 L 343.793,54.996 L 336.427,54.996 Z" marker-start="none" marker-end="none"/>
    <path d="M 347.155,49.179 L 347.155,69.236 L 351.408,69.236 L 351.408,52.691 L 359.543,52.691 L 359.543,49.179 L 347.155,49.179 Z" marker-start="none" marker-end="none"/>
    <path d="M 372.439,49.179 L 371.63,51.265 L 371.52,51.265 C 370.816,50.377 370.091,49.762 369.345,49.419 C 368.6,49.076 367.628,48.905 366.43,48.905 C 364.958,48.905 363.799,49.326 362.952,50.167 C 362.107,51.009 361.684,52.207 361.683,53.761 C 361.684,55.389 362.253,56.59 363.391,57.363 C 364.53,58.135 366.247,58.563 368.543,58.645 L 371.205,58.728 L 371.205,59.4 C 371.205,60.954 370.409,61.732 368.818,61.732 C 367.592,61.732 366.151,61.361 364.496,60.621 L 363.11,63.447 C 364.876,64.371 366.833,64.833 368.982,64.833 C 371.04,64.833 372.618,64.385 373.715,63.488 C 374.813,62.592 375.361,61.229 375.361,59.4 L 375.361,49.179 L 372.439,49.179 Z M 371.205,56.286 L 369.585,56.231 C 368.369,56.194 367.464,55.975 366.869,55.572 C 366.275,55.17 365.978,54.557 365.977,53.734 C 365.978,52.554 366.654,51.964 368.008,51.964 C 368.978,51.964 369.753,52.243 370.333,52.801 C 370.914,53.359 371.205,54.1 371.205,55.024 L 371.205,56.286 Z" marker-start="none" marker-end="none"/>
    <path d="M 390.534,49.179 L 389.972,51.141 L 389.752,51.141 C 389.304,50.428 388.668,49.877 387.845,49.488 C 387.022,49.099 386.084,48.905 385.033,48.905 C 383.231,48.905 381.873,49.387 380.958,50.352 C 380.044,51.317 379.586,52.705 379.586,54.516 L 379.586,64.517 L 383.771,64.517 L 383.771,55.559 C 383.771,54.452 383.967,53.622 384.36,53.069 C 384.754,52.515 385.38,52.239 386.24,52.239 C 387.411,52.239 388.257,52.63 388.778,53.412 C 389.299,54.193 389.56,55.49 389.56,57.301 L 389.56,64.517 L 393.744,64.517 L 393.744,49.179 L 390.534,49.179 Z" marker-start="none" marker-end="none"/>
    <path d="M 406.612,61.376 L 402.99,61.376 L 402.99,49.179 L 398.806,49.179 L 398.806,61.376 L 396.501,61.376 L 396.501,63.392 L 398.806,64.517 L 398.806,65.642 C 398.806,67.389 399.236,68.665 400.095,69.47 C 400.955,70.275 402.332,70.677 404.225,70.677 C 405.67,70.677 406.955,70.462 408.08,70.032 L 407.01,66.959 C 406.169,67.225 405.391,67.357 404.678,67.357 C 404.083,67.357 403.653,67.181 403.388,66.829 C 403.123,66.477 402.99,66.026 402.99,65.478 L 402.99,64.517 L 406.612,64.517 L 406.612,61.376 Z" marker-start="none" marker-end="none"/>
   </g>
   <g id="Group_8">
    <path d="M 196.324,12.097 L 203.252,27.063 L 194.14,27.063 L 194.14,28.812 L 205.264,28.812 L 205.264,27.291 L 198.428,12.097 L 196.324,12.097 Z" marker-start="none" marker-end="none"/>
    <path d="M 208.192,13.309 C 208.192,13.82 208.308,14.207 208.54,14.47 C 208.773,14.733 209.106,14.864 209.54,14.864 C 209.983,14.864 210.328,14.733 210.575,14.47 C 210.823,14.207 210.947,13.82 210.947,13.309 C 210.947,12.814 210.821,12.433 210.569,12.166 C 210.318,11.899 209.975,11.766 209.54,11.766 C 209.152,11.766 208.83,11.886 208.574,12.126 C 208.319,12.366 208.192,12.76 208.192,13.309 Z" marker-start="none" marker-end="none"/>
    <path d="M 219.704,17.505 L 219.704,19.243 L 229.536,19.243 L 229.536,17.505 L 219.704,17.505 Z" marker-start="none" marker-end="none"/>
    <path d="M 244.73,12.097 L 242.878,12.097 L 242.878,24.01 C 242.878,25.001 242.908,25.939 242.97,26.822 C 242.809,26.663 242.63,26.495 242.432,26.319 C 242.234,26.144 241.327,25.401 239.711,24.09 L 238.705,25.394 L 243.13,28.812 L 244.73,28.812 L 244.73,12.097 Z" marker-start="none" marker-end="none"/>
    <path d="M 262.863,15.939 L 260.382,15.939 L 260.382,12.097 L 258.564,12.097 L 258.564,15.939 L 250.435,15.939 L 250.435,17.596 L 258.37,28.903 L 260.382,28.903 L 260.382,17.665 L 262.863,17.665 L 262.863,15.939 Z M 258.564,17.665 L 258.564,23.221 C 258.564,24.311 258.602,25.542 258.678,26.914 L 258.587,26.914 C 258.221,26.183 257.878,25.576 257.558,25.096 L 252.333,17.665 L 258.564,17.665 Z" marker-start="none" marker-end="none"/>
    <path d="M 265.07,13.309 C 265.07,13.82 265.186,14.207 265.418,14.47 C 265.651,14.733 265.984,14.864 266.418,14.864 C 266.861,14.864 267.206,14.733 267.453,14.47 C 267.701,14.207 267.825,13.82 267.825,13.309 C 267.825,12.814 267.699,12.433 267.447,12.166 C 267.196,11.899 266.853,11.766 266.418,11.766 C 266.03,11.766 265.708,11.886 265.452,12.126 C 265.197,12.366 265.07,12.76 265.07,13.309 Z" marker-start="none" marker-end="none"/>
    <path d="M 281.784,20.478 C 281.784,17.589 281.329,15.432 280.418,14.007 C 279.507,12.581 278.114,11.869 276.239,11.869 C 274.441,11.869 273.073,12.598 272.135,14.058 C 271.198,15.518 270.729,17.658 270.729,20.478 C 270.729,23.389 271.183,25.55 272.089,26.96 C 272.996,28.37 274.38,29.075 276.239,29.075 C 278.054,29.075 279.431,28.34 280.372,26.868 C 281.314,25.397 281.784,23.267 281.784,20.478 Z M 272.649,20.478 C 272.649,18.046 272.935,16.276 273.507,15.167 C 274.079,14.058 274.99,13.503 276.239,13.503 C 277.505,13.503 278.421,14.066 278.989,15.19 C 279.557,16.314 279.841,18.077 279.841,20.478 C 279.841,22.879 279.557,24.637 278.989,25.754 C 278.421,26.87 277.505,27.429 276.239,27.429 C 274.99,27.429 274.079,26.878 273.507,25.776 C 272.935,24.675 272.649,22.909 272.649,20.478 Z" marker-start="none" marker-end="none"/>
    <path d="M 295.081,21.678 C 295.081,15.138 292.55,11.869 287.489,11.869 C 286.605,11.869 285.904,11.945 285.386,12.097 L 285.386,13.732 C 285.996,13.534 286.689,13.435 287.467,13.435 C 289.296,13.435 290.677,14.001 291.611,15.133 C 292.545,16.264 293.053,18 293.137,20.34 L 293,20.34 C 292.581,19.708 292.025,19.226 291.331,18.894 C 290.637,18.563 289.856,18.397 288.987,18.397 C 287.509,18.397 286.335,18.839 285.466,19.723 C 284.597,20.607 284.162,21.842 284.163,23.427 C 284.162,25.165 284.648,26.537 285.62,27.543 C 286.592,28.549 287.871,29.052 289.456,29.052 C 290.591,29.052 291.584,28.76 292.434,28.177 C 293.284,27.594 293.937,26.744 294.395,25.628 C 294.852,24.511 295.081,23.195 295.081,21.678 Z M 289.456,27.429 C 288.366,27.429 287.524,27.078 286.929,26.377 C 286.335,25.676 286.037,24.7 286.037,23.45 C 286.037,22.352 286.312,21.489 286.861,20.86 C 287.409,20.231 288.244,19.917 289.365,19.917 C 290.058,19.917 290.696,20.058 291.279,20.34 C 291.862,20.622 292.322,21.007 292.657,21.495 C 292.992,21.983 293.16,22.493 293.16,23.027 C 293.16,23.827 293.004,24.567 292.691,25.245 C 292.379,25.923 291.943,26.457 291.382,26.846 C 290.822,27.234 290.18,27.429 289.456,27.429 Z" marker-start="none" marker-end="none"/>
    <path d="M 298.077,13.309 C 298.077,13.82 298.193,14.207 298.425,14.47 C 298.658,14.733 298.991,14.864 299.425,14.864 C 299.868,14.864 300.213,14.733 300.46,14.47 C 300.708,14.207 300.832,13.82 300.832,13.309 C 300.832,12.814 300.706,12.433 300.454,12.166 C 300.203,11.899 299.86,11.766 299.425,11.766 C 299.037,11.766 298.715,11.886 298.459,12.126 C 298.204,12.366 298.077,12.76 298.077,13.309 Z" marker-start="none" marker-end="none"/>
    <path d="M 314.7,12.097 L 303.713,12.097 L 303.713,13.732 L 308.115,18.157 C 309.456,19.513 310.34,20.482 310.767,21.061 C 311.194,21.64 311.514,22.204 311.727,22.753 C 311.941,23.301 312.048,23.892 312.048,24.525 C 312.048,25.416 311.777,26.123 311.236,26.645 C 310.695,27.168 309.944,27.429 308.984,27.429 C 308.29,27.429 307.633,27.314 307.011,27.086 C 306.39,26.857 305.698,26.441 304.936,25.839 L 303.93,27.131 C 305.47,28.412 307.147,29.052 308.96,29.052 C 310.531,29.052 311.762,28.65 312.653,27.846 C 313.545,27.042 313.991,25.961 313.991,24.605 C 313.991,23.545 313.694,22.497 313.099,21.461 C 312.505,20.424 311.392,19.113 309.761,17.528 L 306.102,13.949 L 306.102,13.858 L 314.7,13.858 L 314.7,12.097 Z" marker-start="none" marker-end="none"/>
    <path d="M 328.179,20.478 C 328.179,17.589 327.724,15.432 326.813,14.007 C 325.902,12.581 324.509,11.869 322.634,11.869 C 320.836,11.869 319.468,12.598 318.53,14.058 C 317.593,15.518 317.124,17.658 317.124,20.478 C 317.124,23.389 317.578,25.55 318.484,26.96 C 319.391,28.37 320.775,29.075 322.634,29.075 C 324.449,29.075 325.826,28.34 326.767,26.868 C 327.709,25.397 328.179,23.267 328.179,20.478 Z M 319.044,20.478 C 319.044,18.046 319.33,16.276 319.902,15.167 C 320.474,14.058 321.385,13.503 322.634,13.503 C 323.9,13.503 324.816,14.066 325.384,15.19 C 325.952,16.314 326.236,18.077 326.236,20.478 C 326.236,22.879 325.952,24.637 325.384,25.754 C 324.816,26.87 323.9,27.429 322.634,27.429 C 321.385,27.429 320.474,26.878 319.902,25.776 C 319.33,24.675 319.044,22.909 319.044,20.478 Z" marker-start="none" marker-end="none"/>
    <path d="M 341.476,12.097 L 330.489,12.097 L 330.489,13.732 L 334.891,18.157 C 336.232,19.513 337.116,20.482 337.543,21.061 C 337.97,21.64 338.29,22.204 338.503,22.753 C 338.717,23.301 338.824,23.892 338.824,24.525 C 338.824,25.416 338.553,26.123 338.012,26.645 C 337.471,27.168 336.72,27.429 335.76,27.429 C 335.066,27.429 334.409,27.314 333.787,27.086 C 333.166,26.857 332.474,26.441 331.712,25.839 L 330.706,27.131 C 332.246,28.412 333.923,29.052 335.736,29.052 C 337.307,29.052 338.538,28.65 339.429,27.846 C 340.321,27.042 340.767,25.961 340.767,24.605 C 340.767,23.545 340.47,22.497 339.875,21.461 C 339.281,20.424 338.168,19.113 336.537,17.528 L 332.878,13.949 L 332.878,13.858 L 341.476,13.858 L 341.476,12.097 Z" marker-start="none" marker-end="none"/>
    <path d="M 355.653,15.939 L 353.172,15.939 L 353.172,12.097 L 351.354,12.097 L 351.354,15.939 L 343.225,15.939 L 343.225,17.596 L 351.16,28.903 L 353.172,28.903 L 353.172,17.665 L 355.653,17.665 L 355.653,15.939 Z M 351.354,17.665 L 351.354,23.221 C 351.354,24.311 351.392,25.542 351.468,26.914 L 351.377,26.914 C 351.011,26.183 350.668,25.576 350.348,25.096 L 345.123,17.665 L 351.354,17.665 Z" marker-start="none" marker-end="none"/>
   </g>
  </g>
 </g>
</svg>
