<?xml version="1.0" standalone="no"?>
<!DOCTYPE svg PUBLIC "-//W3C//DTD SVG 1.1//EN" "http://www.w3.org/Graphics/SVG/1.1/DTD/svg11.dtd">
<!--Generator: Xara Designer (www.xara.com), SVG filter version: 6.6.0.0-->
<svg fill="none" fill-rule="evenodd" stroke="black" stroke-width="0.501" stroke-linejoin="bevel" stroke-miterlimit="10" font-family="Times New Roman" font-size="16" style="font-variant-ligatures:none" xmlns:xlink="http://www.w3.org/1999/xlink" xmlns="http://www.w3.org/2000/svg" version="1.1" overflow="visible" width="279.76pt" height="298.473pt" viewBox="76.12 -379.623 279.76 298.473">
 <defs>
	</defs>
 <g id="Layer 1" transform="scale(1 -1)">
  <g id="Group" fill-rule="evenodd" stroke="none" stroke-width="0.337">
   <path d="M 189.809,280.282 C 181.068,288.475 175.462,298.766 173.041,309.644 C 172.008,314.282 171.554,319.026 171.682,323.761 C 172.048,337.322 177.188,350.807 187.189,361.476 C 208.877,384.609 245.249,385.783 268.383,364.095 C 289.943,343.883 292.429,310.915 275.11,287.797 C 275.242,294.305 272.933,299.702 268.992,304.12 C 276.508,320.727 273.077,340.977 259.044,354.133 C 241.411,370.664 213.682,369.769 197.151,352.136 C 188.119,342.503 184.29,329.855 185.549,317.666 C 186.163,311.731 187.983,305.905 190.997,300.588 C 193.122,296.84 195.841,293.344 199.148,290.243 C 215.093,275.294 239.298,274.597 256.009,287.641 C 257.288,284.456 257.869,281.161 257.132,276.769 C 256.79,274.735 256.18,272.876 255.414,271.116 C 234.42,260.304 208.015,263.214 189.809,280.282 Z M 181.911,305.77 C 184.863,304.118 187.851,302.248 190.997,300.588 C 187.851,302.248 184.863,304.118 181.911,305.77 Z" fill="#0045b3" marker-start="none" marker-end="none"/>
   <path d="M 254.855,242.174 C 253.006,242.767 250.44,243.209 248.849,243.997 C 246.82,245.015 245.658,246.759 245.929,249.799 C 246.732,258.565 252.333,264.039 255.414,271.116 C 256.18,272.876 256.79,274.735 257.132,276.769 C 257.869,281.161 257.288,284.456 256.009,287.641 C 254.719,290.856 252.719,293.959 250.65,297.966 C 249.658,299.873 245.7,302.784 243.773,303.979 C 241.726,305.244 238.134,308.284 236.525,309.457 L 236.481,309.487 C 235.367,310.165 229.598,307.225 226.757,305.199 C 219.81,300.25 213.57,295.083 204.13,296.139 C 199.323,296.676 195.03,298.46 190.997,300.588 C 187.983,305.905 186.163,311.731 185.549,317.666 C 189.542,315.967 193.682,314.333 198.182,312.898 C 204.614,310.849 219.282,315.924 219.171,323.735 L 219.171,323.779 C 219.098,324.723 215.685,327.603 210.634,330.664 C 205.961,333.502 201.087,335.895 199.849,336.291 L 197.054,337.177 L 199.55,338.719 C 202.612,340.612 204.315,342.665 206.663,344.205 C 209.087,345.803 211.609,346.172 214.77,343.731 C 218.264,341.038 223.368,338.491 226.86,335.092 C 227.412,334.548 227.768,333.663 227.984,332.926 L 228.166,332.096 L 228.854,332.538 C 229.404,332.926 229.981,333.344 230.474,333.619 L 230.527,333.643 C 235.097,336.011 244.172,352.546 252.817,344.127 C 259.053,338.07 254.972,332.35 251.2,328.214 C 247.401,324.053 243.838,321.077 245.495,319.123 C 247.938,316.246 251.34,315.463 255.698,313.45 C 260.993,311.008 265.597,307.927 268.992,304.12 C 272.933,299.702 275.242,294.305 275.11,287.797 C 275.083,286.455 274.953,285.069 274.711,283.634 C 273.63,277.178 271.196,270.903 269.221,264.718 C 268.883,263.65 267.174,259.427 266.867,257.626 L 266.852,257.342 L 267.631,257.005 C 268.836,256.777 270.225,257.181 271.952,256.864 C 275.409,256.22 280.449,256.792 284.313,255.562 C 289.972,253.752 286.486,244.506 283.934,242.462 C 275.748,235.903 264.178,239.205 254.855,242.174 Z M 271.002,282.901 C 266.382,277.973 261.096,274.042 255.414,271.116 C 261.096,274.042 266.382,277.973 271.002,282.901 Z M 153.375,295.558 C 150.206,297.873 149.932,302.58 150.288,306.74 C 150.663,311.054 151.83,315.702 152.402,318.565 C 152.705,320.078 153.112,322.781 153.956,324.874 C 154.769,326.882 156.451,329.337 159.548,328.355 C 163.823,326.991 167.8,325.418 171.682,323.761 C 171.554,319.026 172.008,314.282 173.041,309.644 C 171.981,309.923 170.908,310.121 169.82,310.22 C 169.449,310.254 168.776,309.916 167.805,307.788 C 166.894,305.816 166.205,303.452 165.189,300.874 C 163.289,296.104 159.911,290.788 153.375,295.558 Z" fill="#ff3ca4" marker-start="none" marker-end="none"/>
  </g>
  <g id="Group_1" fill-rule="nonzero" stroke-linejoin="round" stroke-linecap="round" stroke="none" stroke-width="0.296" fill="#0045b3">
   <g id="Group_2">
    <path d="M 104.033,191.069 C 104.033,188.439 103.236,186.202 101.642,184.358 C 100.048,182.514 97.81,181.247 94.93,180.555 L 94.93,180.382 C 98.329,179.96 100.902,178.928 102.65,177.286 C 104.398,175.644 105.271,173.431 105.271,170.647 C 105.271,166.594 103.802,163.44 100.864,161.184 C 97.926,158.927 93.73,157.799 88.276,157.799 C 83.705,157.799 79.654,158.557 76.12,160.074 L 76.12,167.65 C 77.752,166.824 79.547,166.152 81.506,165.634 C 83.465,165.115 85.406,164.856 87.325,164.856 C 90.264,164.856 92.433,165.355 93.835,166.354 C 95.237,167.353 95.939,168.956 95.939,171.164 C 95.939,173.142 95.131,174.544 93.519,175.37 C 91.906,176.196 89.333,176.609 85.799,176.609 L 82.601,176.609 L 82.601,183.436 L 85.856,183.436 C 89.121,183.436 91.507,183.864 93.014,184.718 C 94.522,185.573 95.276,187.037 95.276,189.111 C 95.276,192.298 93.279,193.892 89.284,193.893 C 87.902,193.892 86.495,193.662 85.064,193.201 C 83.633,192.74 82.044,191.943 80.297,190.81 L 76.178,196.946 C 80.019,199.711 84.599,201.094 89.918,201.094 C 94.277,201.094 97.72,200.211 100.245,198.444 C 102.77,196.677 104.033,194.219 104.033,191.069 Z" marker-start="none" marker-end="none"/>
    <path d="M 140.3,167.103 L 135.229,167.103 L 135.229,158.375 L 126.53,158.375 L 126.53,167.103 L 108.555,167.103 L 108.555,173.296 L 127.02,200.489 L 135.229,200.489 L 135.229,174.017 L 140.3,174.017 L 140.3,167.103 Z M 126.53,174.017 L 126.53,181.161 C 126.53,182.351 126.578,184.079 126.674,186.346 C 126.77,188.611 126.847,189.926 126.905,190.292 L 126.674,190.292 C 125.963,188.717 125.108,187.181 124.11,185.683 L 116.39,174.017 L 126.53,174.017 Z" marker-start="none" marker-end="none"/>
    <path d="M 144.591,162.494 C 144.591,164.107 145.023,165.327 145.887,166.152 C 146.752,166.978 148.01,167.391 149.661,167.391 C 151.256,167.391 152.489,166.969 153.362,166.124 C 154.236,165.278 154.673,164.069 154.673,162.494 C 154.673,160.977 154.232,159.782 153.348,158.908 C 152.465,158.034 151.236,157.597 149.661,157.597 C 148.048,157.597 146.799,158.024 145.916,158.879 C 145.033,159.734 144.591,160.939 144.591,162.494 Z" marker-start="none" marker-end="none"/>
    <path d="M 209.663,179.49 C 209.663,172.519 207.935,167.161 204.478,163.416 C 201.022,159.671 196.067,157.799 189.613,157.799 C 183.162,157.799 178.207,159.671 174.75,163.416 C 171.293,167.161 169.565,172.538 169.565,179.547 C 169.565,186.556 171.298,191.909 174.764,195.606 C 178.231,199.303 183.199,201.152 189.672,201.152 C 196.143,201.152 201.093,199.289 204.521,195.564 C 207.948,191.838 209.663,186.48 209.663,179.49 Z M 178.926,179.49 C 178.926,174.785 179.82,171.242 181.606,168.86 C 183.392,166.479 186.062,165.289 189.613,165.289 C 196.739,165.289 200.3,170.022 200.3,179.49 C 200.3,188.977 196.758,193.72 189.672,193.72 C 186.119,193.72 183.44,192.525 181.634,190.134 C 179.829,187.743 178.926,184.195 178.926,179.49 Z" marker-start="none" marker-end="none"/>
    <path d="M 226.485,158.375 L 217.699,158.375 L 217.699,203.197 L 226.485,203.197 L 226.485,158.375 Z" marker-start="none" marker-end="none"/>
    <path d="M 249.271,164.799 C 250.807,164.799 252.651,165.135 254.802,165.807 L 254.802,159.268 C 252.612,158.288 249.923,157.799 246.736,157.799 C 243.221,157.799 240.663,158.687 239.059,160.464 C 237.455,162.24 236.653,164.905 236.653,168.457 L 236.653,183.983 L 232.448,183.983 L 232.448,187.699 L 237.288,190.638 L 239.822,197.436 L 245.439,197.436 L 245.439,190.58 L 254.456,190.58 L 254.456,183.983 L 245.439,183.983 L 245.439,168.457 C 245.439,167.209 245.79,166.288 246.491,165.692 C 247.192,165.097 248.119,164.799 249.271,164.799 Z" marker-start="none" marker-end="none"/>
    <path d="M 291.038,158.375 L 282.253,158.375 L 282.253,177.185 C 282.253,179.509 281.84,181.252 281.014,182.414 C 280.188,183.575 278.872,184.156 277.067,184.156 C 274.609,184.156 272.833,183.335 271.739,181.693 C 270.644,180.051 270.096,177.329 270.097,173.527 L 270.097,158.375 L 261.311,158.375 L 261.311,190.58 L 268.022,190.58 L 269.204,186.46 L 269.693,186.46 C 270.673,188.016 272.023,189.192 273.741,189.989 C 275.46,190.786 277.413,191.185 279.602,191.185 C 283.347,191.185 286.189,190.171 288.129,188.146 C 290.069,186.12 291.039,183.196 291.038,179.375 L 291.038,158.375 Z" marker-start="none" marker-end="none"/>
    <path d="M 313.42,184.934 C 311.557,184.934 310.098,184.343 309.042,183.162 C 307.986,181.982 307.38,180.306 307.227,178.136 L 319.556,178.136 C 319.517,180.306 318.95,181.982 317.856,183.162 C 316.761,184.343 315.283,184.934 313.42,184.934 Z M 314.659,157.799 C 309.474,157.799 305.421,159.23 302.503,162.091 C 299.583,164.953 298.124,169.005 298.124,174.247 C 298.124,179.643 299.473,183.816 302.172,186.763 C 304.87,189.711 308.599,191.185 313.362,191.185 C 317.913,191.185 321.457,189.889 323.992,187.296 C 326.527,184.704 327.794,181.122 327.794,176.552 L 327.794,172.288 L 307.025,172.288 C 307.121,169.791 307.861,167.842 309.243,166.441 C 310.627,165.039 312.566,164.338 315.062,164.338 C 317.002,164.338 318.836,164.54 320.564,164.943 C 322.292,165.346 324.097,165.989 325.979,166.873 L 325.979,160.074 C 324.443,159.306 322.801,158.735 321.054,158.36 C 319.306,157.986 317.175,157.799 314.659,157.799 Z" marker-start="none" marker-end="none"/>
    <path d="M 352.913,191.185 C 354.104,191.185 355.093,191.098 355.88,190.926 L 355.217,182.687 C 354.507,182.88 353.642,182.976 352.625,182.975 C 349.821,182.976 347.636,182.255 346.071,180.815 C 344.506,179.375 343.723,177.358 343.724,174.766 L 343.724,158.375 L 334.938,158.375 L 334.938,190.58 L 341.592,190.58 L 342.888,185.164 L 343.32,185.164 C 344.319,186.969 345.668,188.424 347.368,189.528 C 349.068,190.633 350.916,191.185 352.913,191.185 Z" marker-start="none" marker-end="none"/>
   </g>
  </g>
  <g id="Group_3" fill-rule="nonzero" stroke-linejoin="round" stroke-linecap="round" stroke="none" stroke-width="0.12" fill="#0045b3">
   <g id="Group_4">
    <path d="M 135.543,81.383 L 134.4,81.383 L 134.4,93.801 C 134.401,94.928 134.447,96.098 134.54,97.311 C 134.424,97.194 134.303,97.081 134.179,96.973 C 134.054,96.864 132.854,95.919 130.576,94.139 L 129.911,94.967 L 134.54,98.43 L 135.543,98.43 L 135.543,81.383 Z" marker-start="none" marker-end="none"/>
    <path d="M 149.174,81.383 L 148.031,81.383 L 148.031,93.801 C 148.032,94.928 148.078,96.098 148.171,97.311 C 148.055,97.194 147.934,97.081 147.81,96.973 C 147.685,96.864 146.485,95.919 144.207,94.139 L 143.542,94.967 L 148.171,98.43 L 149.174,98.43 L 149.174,81.383 Z" marker-start="none" marker-end="none"/>
    <path d="M 156.742,82.292 C 156.742,83.054 157.053,83.435 157.675,83.435 C 158.312,83.435 158.631,83.054 158.631,82.292 C 158.631,81.531 158.312,81.15 157.675,81.15 C 157.053,81.15 156.742,81.531 156.742,82.292 Z" marker-start="none" marker-end="none"/>
    <path d="M 171.53,94.302 C 173.302,94.302 174.637,93.745 175.535,92.629 C 176.433,91.514 176.882,89.883 176.882,87.738 C 176.882,85.631 176.41,84.006 175.465,82.864 C 174.521,81.721 173.194,81.15 171.484,81.15 C 170.582,81.15 169.77,81.336 169.047,81.709 C 168.324,82.082 167.752,82.611 167.333,83.295 L 167.228,83.295 L 166.901,81.383 L 166.178,81.383 L 166.178,99.526 L 167.333,99.526 L 167.333,94.967 C 167.333,94.283 167.317,93.653 167.286,93.078 L 167.251,92.087 L 167.333,92.087 C 167.814,92.849 168.396,93.409 169.076,93.766 C 169.756,94.124 170.574,94.302 171.53,94.302 Z M 171.507,93.253 C 170.014,93.253 168.946,92.825 168.3,91.97 C 167.655,91.115 167.333,89.704 167.333,87.738 L 167.333,87.54 C 167.333,85.627 167.669,84.255 168.341,83.423 C 169.014,82.592 170.061,82.176 171.484,82.176 C 172.867,82.176 173.909,82.66 174.608,83.628 C 175.308,84.596 175.658,85.973 175.658,87.761 C 175.658,91.422 174.274,93.253 171.507,93.253 Z" marker-start="none" marker-end="none"/>
    <path d="M 181.547,81.383 L 180.392,81.383 L 180.392,94.058 L 181.547,94.058 L 181.547,81.383 Z M 180.229,97.579 C 180.229,98.325 180.474,98.698 180.963,98.698 C 181.205,98.698 181.393,98.601 181.529,98.407 C 181.665,98.212 181.733,97.936 181.733,97.579 C 181.733,97.229 181.665,96.953 181.529,96.751 C 181.393,96.549 181.205,96.448 180.963,96.448 C 180.474,96.448 180.229,96.825 180.229,97.579 Z" marker-start="none" marker-end="none"/>
    <path d="M 193.65,84.683 C 193.65,83.548 193.219,82.675 192.356,82.065 C 191.493,81.455 190.268,81.15 188.683,81.15 C 186.988,81.15 185.643,81.41 184.648,81.931 L 184.648,83.179 C 185.923,82.542 187.268,82.223 188.683,82.222 C 189.934,82.223 190.885,82.431 191.534,82.846 C 192.183,83.262 192.508,83.816 192.507,84.508 C 192.508,85.145 192.249,85.682 191.732,86.117 C 191.215,86.552 190.366,86.98 189.184,87.4 C 187.917,87.858 187.027,88.253 186.514,88.583 C 186.001,88.913 185.614,89.287 185.354,89.702 C 185.094,90.118 184.963,90.626 184.963,91.224 C 184.963,92.173 185.362,92.923 186.158,93.475 C 186.955,94.026 188.069,94.302 189.499,94.302 C 190.867,94.302 192.165,94.046 193.393,93.533 L 192.962,92.483 C 191.719,92.996 190.564,93.253 189.499,93.253 C 188.465,93.253 187.645,93.082 187.039,92.74 C 186.432,92.398 186.129,91.924 186.129,91.317 C 186.129,90.657 186.364,90.128 186.835,89.732 C 187.305,89.335 188.224,88.892 189.592,88.402 C 190.735,87.99 191.567,87.619 192.088,87.289 C 192.608,86.959 192.999,86.584 193.259,86.164 C 193.52,85.744 193.65,85.25 193.65,84.683 Z" marker-start="none" marker-end="none"/>
    <path d="M 208.948,81.383 L 207.805,81.383 L 207.805,93.801 C 207.806,94.928 207.852,96.098 207.945,97.311 C 207.829,97.194 207.708,97.081 207.584,96.973 C 207.459,96.864 206.259,95.919 203.981,94.139 L 203.316,94.967 L 207.945,98.43 L 208.948,98.43 L 208.948,81.383 Z" marker-start="none" marker-end="none"/>
    <path d="M 221.413,98.721 C 222.859,98.722 224.023,98.353 224.905,97.614 C 225.788,96.875 226.229,95.876 226.229,94.617 C 226.229,93.747 225.955,92.977 225.407,92.308 C 224.859,91.64 223.971,91.022 222.743,90.455 C 224.235,89.84 225.284,89.168 225.891,88.438 C 226.497,87.707 226.8,86.821 226.8,85.779 C 226.8,84.372 226.309,83.249 225.325,82.409 C 224.342,81.569 223.022,81.15 221.366,81.15 C 219.648,81.15 218.331,81.542 217.414,82.328 C 216.497,83.113 216.038,84.256 216.038,85.756 C 216.038,86.774 216.361,87.668 217.006,88.438 C 217.651,89.207 218.65,89.864 220.002,90.408 C 218.751,90.999 217.868,91.622 217.356,92.28 C 216.843,92.936 216.586,93.723 216.586,94.641 C 216.586,95.457 216.792,96.174 217.204,96.792 C 217.616,97.41 218.193,97.886 218.935,98.22 C 219.678,98.555 220.503,98.722 221.413,98.721 Z M 217.227,85.581 C 217.227,84.508 217.591,83.676 218.317,83.085 C 219.044,82.495 220.06,82.199 221.366,82.199 C 222.641,82.199 223.668,82.512 224.445,83.138 C 225.222,83.764 225.611,84.613 225.611,85.686 C 225.611,86.65 225.306,87.433 224.695,88.035 C 224.085,88.638 222.909,89.269 221.168,89.93 C 219.738,89.378 218.724,88.768 218.125,88.099 C 217.527,87.431 217.227,86.591 217.227,85.581 Z M 221.39,97.672 C 220.294,97.672 219.414,97.402 218.749,96.862 C 218.084,96.322 217.752,95.581 217.752,94.641 C 217.752,94.096 217.874,93.616 218.119,93.201 C 218.364,92.785 218.718,92.408 219.18,92.07 C 219.643,91.731 220.418,91.337 221.506,90.886 C 222.773,91.376 223.683,91.916 224.235,92.507 C 224.787,93.098 225.063,93.809 225.063,94.641 C 225.063,95.573 224.734,96.312 224.077,96.856 C 223.421,97.4 222.525,97.672 221.39,97.672 Z" marker-start="none" marker-end="none"/>
    <path d="M 230.147,82.292 C 230.147,83.054 230.458,83.435 231.08,83.435 C 231.717,83.435 232.036,83.054 232.036,82.292 C 232.036,81.531 231.717,81.15 231.08,81.15 C 230.458,81.15 230.147,81.531 230.147,82.292 Z" marker-start="none" marker-end="none"/>
    <path d="M 246.016,91.201 C 246.016,88.962 245.722,87.089 245.136,85.581 C 244.549,84.073 243.694,82.957 242.57,82.234 C 241.447,81.511 240.089,81.15 238.495,81.15 C 237.687,81.15 236.941,81.251 236.256,81.453 L 236.256,82.456 C 236.591,82.347 236.993,82.263 237.463,82.205 C 237.934,82.147 238.293,82.118 238.542,82.118 C 240.462,82.118 241.966,82.811 243.054,84.199 C 244.142,85.587 244.749,87.61 244.873,90.268 L 244.733,90.268 C 244.166,89.522 243.49,88.948 242.705,88.548 C 241.92,88.148 241.099,87.948 240.244,87.948 C 238.666,87.948 237.436,88.383 236.554,89.253 C 235.672,90.124 235.23,91.36 235.23,92.961 C 235.23,94.672 235.714,96.056 236.682,97.113 C 237.65,98.17 238.907,98.698 240.454,98.698 C 241.574,98.698 242.553,98.405 243.392,97.818 C 244.232,97.231 244.879,96.37 245.334,95.235 C 245.788,94.1 246.016,92.755 246.016,91.201 Z M 240.454,97.672 C 239.226,97.672 238.246,97.258 237.516,96.43 C 236.785,95.602 236.42,94.47 236.42,93.031 C 236.42,91.679 236.758,90.653 237.434,89.953 C 238.11,89.253 239.078,88.904 240.337,88.904 C 241.123,88.904 241.855,89.079 242.535,89.429 C 243.216,89.778 243.756,90.243 244.156,90.822 C 244.556,91.401 244.757,91.99 244.757,92.588 C 244.757,93.498 244.576,94.349 244.214,95.142 C 243.853,95.935 243.348,96.555 242.699,97.002 C 242.05,97.449 241.301,97.672 240.454,97.672 Z" marker-start="none" marker-end="none"/>
    <path d="M 249.456,82.292 C 249.456,83.054 249.767,83.435 250.389,83.435 C 251.026,83.435 251.345,83.054 251.345,82.292 C 251.345,81.531 251.026,81.15 250.389,81.15 C 249.767,81.15 249.456,81.531 249.456,82.292 Z" marker-start="none" marker-end="none"/>
    <path d="M 265.232,81.383 L 254.563,81.383 L 254.563,82.409 L 259.098,87.143 C 260.373,88.465 261.267,89.475 261.78,90.175 C 262.293,90.874 262.67,91.543 262.911,92.18 C 263.152,92.818 263.273,93.486 263.273,94.186 C 263.273,95.204 262.938,96.032 262.27,96.669 C 261.601,97.307 260.735,97.625 259.67,97.626 C 258.247,97.625 256.887,97.109 255.589,96.075 L 254.959,96.879 C 256.382,98.076 257.959,98.675 259.693,98.675 C 261.178,98.675 262.346,98.279 263.197,97.486 C 264.048,96.693 264.474,95.601 264.474,94.209 C 264.474,93.082 264.188,91.992 263.616,90.939 C 263.045,89.885 262.002,88.585 260.486,87.038 L 256.113,82.549 L 256.113,82.502 L 265.232,82.502 L 265.232,81.383 Z" marker-start="none" marker-end="none"/>
    <path d="M 279.177,89.953 C 279.177,86.96 278.721,84.745 277.807,83.307 C 276.894,81.869 275.512,81.15 273.662,81.15 C 271.882,81.15 270.529,81.89 269.605,83.371 C 268.679,84.852 268.217,87.046 268.217,89.953 C 268.217,92.923 268.666,95.123 269.564,96.553 C 270.461,97.983 271.827,98.698 273.662,98.698 C 275.458,98.698 276.826,97.958 277.767,96.477 C 278.707,94.996 279.177,92.821 279.177,89.953 Z M 269.476,89.953 C 269.476,87.31 269.822,85.357 270.514,84.094 C 271.206,82.831 272.255,82.199 273.662,82.199 C 275.131,82.199 276.202,82.852 276.874,84.158 C 277.547,85.464 277.883,87.396 277.883,89.953 C 277.883,92.472 277.547,94.384 276.874,95.69 C 276.202,96.996 275.131,97.649 273.662,97.649 C 272.193,97.649 271.128,96.996 270.467,95.69 C 269.807,94.384 269.476,92.472 269.476,89.953 Z" marker-start="none" marker-end="none"/>
    <path d="M 292.494,81.383 L 281.825,81.383 L 281.825,82.409 L 286.36,87.143 C 287.635,88.465 288.529,89.475 289.042,90.175 C 289.555,90.874 289.932,91.543 290.173,92.18 C 290.414,92.818 290.535,93.486 290.535,94.186 C 290.535,95.204 290.2,96.032 289.532,96.669 C 288.863,97.307 287.997,97.625 286.932,97.626 C 285.509,97.625 284.149,97.109 282.851,96.075 L 282.221,96.879 C 283.644,98.076 285.221,98.675 286.955,98.675 C 288.44,98.675 289.608,98.279 290.459,97.486 C 291.31,96.693 291.736,95.601 291.736,94.209 C 291.736,93.082 291.45,91.992 290.878,90.939 C 290.307,89.885 289.264,88.585 287.748,87.038 L 283.375,82.549 L 283.375,82.502 L 292.494,82.502 L 292.494,81.383 Z" marker-start="none" marker-end="none"/>
    <path d="M 302.09,81.383 L 300.947,81.383 L 300.947,93.801 C 300.948,94.928 300.994,96.098 301.087,97.311 C 300.971,97.194 300.85,97.081 300.726,96.973 C 300.601,96.864 299.401,95.919 297.123,94.139 L 296.458,94.967 L 301.087,98.43 L 302.09,98.43 L 302.09,81.383 Z" marker-start="none" marker-end="none"/>
   </g>
  </g>
  <g id="Group_5" fill-rule="nonzero" stroke-linejoin="round" stroke-linecap="round" stroke="none" stroke-width="0.138" fill="#0045b3">
   <g id="Group_6">
    <path d="M 125.006,118.696 L 111.272,118.696 L 111.272,121.585 L 116.204,126.571 C 117.664,128.066 118.618,129.103 119.066,129.681 C 119.514,130.259 119.837,130.794 120.034,131.287 C 120.231,131.78 120.329,132.29 120.329,132.819 C 120.329,133.607 120.112,134.194 119.677,134.58 C 119.243,134.965 118.662,135.157 117.937,135.157 C 117.176,135.157 116.437,134.983 115.72,134.633 C 115.003,134.284 114.255,133.787 113.476,133.142 L 111.218,135.816 C 112.186,136.64 112.987,137.222 113.623,137.563 C 114.26,137.903 114.954,138.165 115.706,138.349 C 116.459,138.533 117.301,138.624 118.233,138.624 C 119.46,138.624 120.544,138.4 121.485,137.952 C 122.425,137.505 123.155,136.877 123.675,136.071 C 124.194,135.265 124.454,134.342 124.454,133.303 C 124.454,132.398 124.295,131.549 123.977,130.757 C 123.659,129.964 123.167,129.151 122.499,128.318 C 121.832,127.485 120.656,126.297 118.972,124.756 L 116.445,122.378 L 116.445,122.19 L 125.006,122.19 L 125.006,118.696 Z" marker-start="none" marker-end="none"/>
    <path d="M 126.699,124.394 L 126.699,127.753 L 133.915,127.753 L 133.915,124.394 L 126.699,124.394 Z" marker-start="none" marker-end="none"/>
    <path d="M 148.805,124.152 C 148.805,122.378 148.166,120.981 146.89,119.959 C 145.613,118.938 143.837,118.427 141.561,118.427 C 139.465,118.427 137.611,118.821 135.998,119.61 L 135.998,123.48 C 137.324,122.889 138.446,122.472 139.364,122.23 C 140.283,121.988 141.122,121.867 141.884,121.867 C 142.797,121.867 143.498,122.042 143.987,122.391 C 144.475,122.741 144.719,123.26 144.719,123.95 C 144.719,124.335 144.612,124.678 144.397,124.978 C 144.182,125.278 143.866,125.567 143.45,125.845 C 143.033,126.122 142.184,126.566 140.903,127.175 C 139.702,127.74 138.802,128.282 138.202,128.801 C 137.602,129.321 137.123,129.926 136.764,130.616 C 136.406,131.305 136.227,132.112 136.226,133.034 C 136.227,134.772 136.816,136.138 137.994,137.133 C 139.172,138.127 140.8,138.624 142.878,138.624 C 143.9,138.624 144.874,138.504 145.801,138.262 C 146.728,138.02 147.698,137.679 148.711,137.24 L 147.367,134.002 C 146.319,134.432 145.452,134.732 144.766,134.902 C 144.081,135.072 143.407,135.157 142.744,135.157 C 141.955,135.157 141.351,134.974 140.93,134.606 C 140.509,134.239 140.298,133.76 140.298,133.168 C 140.298,132.801 140.383,132.481 140.554,132.208 C 140.724,131.935 140.995,131.671 141.367,131.415 C 141.738,131.16 142.619,130.701 144.007,130.038 C 145.844,129.16 147.103,128.279 147.783,127.397 C 148.464,126.515 148.805,125.433 148.805,124.152 Z" marker-start="none" marker-end="none"/>
    <path d="M 158.372,121.693 C 159.089,121.693 159.949,121.849 160.953,122.163 L 160.953,119.113 C 159.931,118.655 158.677,118.427 157.19,118.427 C 155.55,118.427 154.357,118.842 153.609,119.67 C 152.86,120.499 152.486,121.742 152.486,123.399 L 152.486,130.642 L 150.524,130.642 L 150.524,132.376 L 152.782,133.746 L 153.965,136.918 L 156.585,136.918 L 156.585,133.72 L 160.791,133.72 L 160.791,130.642 L 156.585,130.642 L 156.585,123.399 C 156.585,122.817 156.749,122.387 157.076,122.109 C 157.403,121.832 157.835,121.693 158.372,121.693 Z" marker-start="none" marker-end="none"/>
    <path d="M 174.632,118.696 L 174.081,120.617 L 173.866,120.617 C 173.427,119.919 172.804,119.379 171.998,118.998 C 171.191,118.618 170.273,118.427 169.243,118.427 C 167.478,118.427 166.148,118.9 165.252,119.845 C 164.356,120.79 163.908,122.15 163.908,123.923 L 163.908,133.72 L 168.007,133.72 L 168.007,124.945 C 168.007,123.861 168.2,123.048 168.585,122.506 C 168.97,121.964 169.583,121.693 170.426,121.693 C 171.573,121.693 172.401,122.076 172.912,122.842 C 173.422,123.607 173.678,124.877 173.678,126.651 L 173.678,133.72 L 177.776,133.72 L 177.776,118.696 L 174.632,118.696 Z" marker-start="none" marker-end="none"/>
    <path d="M 195.944,118.696 L 191.846,118.696 L 191.846,127.471 C 191.846,128.555 191.653,129.368 191.268,129.91 C 190.882,130.452 190.268,130.723 189.426,130.723 C 188.28,130.723 187.451,130.34 186.941,129.574 C 186.43,128.808 186.174,127.538 186.175,125.764 L 186.175,118.696 L 182.076,118.696 L 182.076,133.72 L 185.207,133.72 L 185.758,131.798 L 185.986,131.798 C 186.443,132.524 187.073,133.072 187.875,133.444 C 188.676,133.816 189.588,134.002 190.609,134.002 C 192.356,134.002 193.682,133.529 194.587,132.584 C 195.492,131.639 195.944,130.275 195.944,128.492 L 195.944,118.696 Z" marker-start="none" marker-end="none"/>
    <path d="M 204.92,118.427 C 203.155,118.427 201.769,119.113 200.761,120.483 C 199.753,121.854 199.249,123.753 199.249,126.181 C 199.249,128.644 199.762,130.564 200.788,131.939 C 201.814,133.314 203.227,134.002 205.028,134.002 C 206.918,134.002 208.36,133.267 209.355,131.798 L 209.489,131.798 C 209.283,132.918 209.18,133.917 209.18,134.794 L 209.18,139.605 L 213.292,139.605 L 213.292,118.696 L 210.147,118.696 L 209.355,120.645 L 209.18,120.645 C 208.248,119.166 206.828,118.427 204.92,118.427 Z M 206.358,121.693 C 207.406,121.693 208.174,121.997 208.662,122.606 C 209.151,123.216 209.417,124.25 209.462,125.711 L 209.462,126.154 C 209.462,127.767 209.214,128.922 208.716,129.621 C 208.219,130.32 207.411,130.669 206.291,130.669 C 205.377,130.669 204.667,130.282 204.161,129.507 C 203.654,128.732 203.401,127.605 203.402,126.127 C 203.401,124.649 203.657,123.54 204.168,122.801 C 204.678,122.062 205.408,121.693 206.358,121.693 Z" marker-start="none" marker-end="none"/>
    <path d="M 223.801,131.086 C 222.932,131.086 222.251,130.81 221.758,130.259 C 221.266,129.709 220.983,128.927 220.912,127.914 L 226.663,127.914 C 226.645,128.927 226.381,129.709 225.87,130.259 C 225.359,130.81 224.67,131.086 223.801,131.086 Z M 224.379,118.427 C 221.96,118.427 220.069,119.095 218.708,120.429 C 217.346,121.765 216.665,123.655 216.665,126.1 C 216.665,128.618 217.295,130.564 218.553,131.939 C 219.812,133.314 221.552,134.002 223.774,134.002 C 225.897,134.002 227.55,133.397 228.733,132.188 C 229.915,130.978 230.506,129.308 230.506,127.175 L 230.506,125.186 L 220.818,125.186 C 220.862,124.022 221.208,123.112 221.852,122.459 C 222.498,121.805 223.402,121.478 224.567,121.478 C 225.472,121.478 226.327,121.572 227.133,121.76 C 227.939,121.948 228.782,122.248 229.66,122.66 L 229.66,119.489 C 228.943,119.13 228.177,118.864 227.362,118.689 C 226.547,118.514 225.552,118.427 224.379,118.427 Z" marker-start="none" marker-end="none"/>
    <path d="M 247.707,118.696 L 243.609,118.696 L 243.609,127.471 C 243.609,128.555 243.416,129.368 243.031,129.91 C 242.645,130.452 242.031,130.723 241.189,130.723 C 240.043,130.723 239.214,130.34 238.704,129.574 C 238.193,128.808 237.937,127.538 237.938,125.764 L 237.938,118.696 L 233.839,118.696 L 233.839,133.72 L 236.97,133.72 L 237.521,131.798 L 237.749,131.798 C 238.206,132.524 238.836,133.072 239.638,133.444 C 240.439,133.816 241.351,134.002 242.372,134.002 C 244.119,134.002 245.445,133.529 246.35,132.584 C 247.255,131.639 247.707,130.275 247.707,128.492 L 247.707,118.696 Z" marker-start="none" marker-end="none"/>
    <path d="M 250.596,124.394 L 250.596,127.753 L 257.812,127.753 L 257.812,124.394 L 250.596,124.394 Z" marker-start="none" marker-end="none"/>
    <path d="M 261.105,118.696 L 261.105,138.342 L 265.27,138.342 L 265.27,122.136 L 273.239,122.136 L 273.239,118.696 L 261.105,118.696 Z" marker-start="none" marker-end="none"/>
    <path d="M 285.871,118.696 L 285.078,120.739 L 284.97,120.739 C 284.281,119.869 283.571,119.267 282.841,118.931 C 282.111,118.595 281.159,118.427 279.985,118.427 C 278.543,118.427 277.408,118.839 276.579,119.663 C 275.75,120.488 275.336,121.661 275.335,123.184 C 275.336,124.779 275.894,125.955 277.009,126.712 C 278.124,127.469 279.806,127.888 282.055,127.968 L 284.662,128.049 L 284.662,128.707 C 284.662,130.23 283.882,130.992 282.323,130.992 C 281.123,130.992 279.712,130.629 278.09,129.903 L 276.733,132.672 C 278.463,133.576 280.379,134.028 282.485,134.028 C 284.5,134.028 286.046,133.59 287.12,132.712 C 288.196,131.834 288.733,130.499 288.733,128.707 L 288.733,118.696 L 285.871,118.696 Z M 284.662,125.657 L 283.076,125.603 C 281.884,125.567 280.998,125.352 280.415,124.958 C 279.833,124.564 279.542,123.964 279.542,123.157 C 279.542,122.002 280.205,121.424 281.53,121.424 C 282.48,121.424 283.239,121.697 283.808,122.244 C 284.377,122.79 284.662,123.516 284.662,124.421 L 284.662,125.657 Z" marker-start="none" marker-end="none"/>
    <path d="M 303.596,118.696 L 303.045,120.617 L 302.83,120.617 C 302.391,119.919 301.768,119.379 300.962,118.998 C 300.155,118.618 299.237,118.427 298.207,118.427 C 296.442,118.427 295.112,118.9 294.216,119.845 C 293.32,120.79 292.872,122.15 292.872,123.923 L 292.872,133.72 L 296.971,133.72 L 296.971,124.945 C 296.971,123.861 297.164,123.048 297.549,122.506 C 297.934,121.964 298.547,121.693 299.39,121.693 C 300.537,121.693 301.365,122.076 301.876,122.842 C 302.386,123.607 302.642,124.877 302.642,126.651 L 302.642,133.72 L 306.74,133.72 L 306.74,118.696 L 303.596,118.696 Z" marker-start="none" marker-end="none"/>
    <path d="M 319.345,130.642 L 315.797,130.642 L 315.797,118.696 L 311.699,118.696 L 311.699,130.642 L 309.441,130.642 L 309.441,132.618 L 311.699,133.72 L 311.699,134.822 C 311.698,136.533 312.119,137.782 312.962,138.571 C 313.804,139.359 315.152,139.753 317.006,139.753 C 318.422,139.753 319.68,139.543 320.782,139.122 L 319.734,136.112 C 318.91,136.372 318.149,136.501 317.45,136.501 C 316.868,136.501 316.446,136.329 316.187,135.984 C 315.927,135.639 315.797,135.198 315.797,134.66 L 315.797,133.72 L 319.345,133.72 L 319.345,130.642 Z" marker-start="none" marker-end="none"/>
   </g>
  </g>
 </g>
</svg>
