<?xml version="1.0" standalone="no"?>
<!DOCTYPE svg PUBLIC "-//W3C//DTD SVG 1.1//EN" "http://www.w3.org/Graphics/SVG/1.1/DTD/svg11.dtd">
<!--Generator: Xara Designer (www.xara.com), SVG filter version: 6.6.0.0-->
<svg fill="none" fill-rule="evenodd" stroke="black" stroke-width="0.501" stroke-linejoin="bevel" stroke-miterlimit="10" font-family="Times New Roman" font-size="16" style="font-variant-ligatures:none" xmlns:xlink="http://www.w3.org/1999/xlink" xmlns="http://www.w3.org/2000/svg" version="1.1" overflow="visible" width="279.76pt" height="289.509pt" viewBox="82.83 -379.623 279.76 289.509">
 <defs>
	</defs>
 <g id="Layer 1" transform="scale(1 -1)">
  <g id="Group" fill-rule="nonzero" stroke-linejoin="round" stroke-linecap="round" stroke="none" stroke-width="0.296" fill="#0045b3">
   <g id="Group_1">
    <path d="M 110.743,200.033 C 110.743,197.403 109.946,195.166 108.352,193.322 C 106.758,191.478 104.52,190.211 101.64,189.519 L 101.64,189.346 C 105.039,188.924 107.612,187.892 109.36,186.25 C 111.108,184.608 111.981,182.395 111.981,179.611 C 111.981,175.558 110.512,172.404 107.574,170.148 C 104.636,167.891 100.44,166.763 94.986,166.763 C 90.415,166.763 86.364,167.521 82.83,169.038 L 82.83,176.614 C 84.462,175.788 86.257,175.116 88.216,174.598 C 90.175,174.079 92.116,173.82 94.035,173.82 C 96.974,173.82 99.143,174.319 100.545,175.318 C 101.947,176.317 102.649,177.92 102.649,180.128 C 102.649,182.106 101.841,183.508 100.229,184.334 C 98.616,185.16 96.043,185.573 92.509,185.573 L 89.311,185.573 L 89.311,192.4 L 92.566,192.4 C 95.831,192.4 98.217,192.828 99.724,193.682 C 101.232,194.537 101.986,196.001 101.986,198.075 C 101.986,201.262 99.989,202.856 95.994,202.857 C 94.612,202.856 93.205,202.626 91.774,202.165 C 90.343,201.704 88.754,200.907 87.007,199.774 L 82.888,205.91 C 86.729,208.675 91.309,210.058 96.628,210.058 C 100.987,210.058 104.43,209.175 106.955,207.408 C 109.48,205.641 110.743,203.183 110.743,200.033 Z" marker-start="none" marker-end="none"/>
    <path d="M 147.01,176.067 L 141.939,176.067 L 141.939,167.339 L 133.24,167.339 L 133.24,176.067 L 115.265,176.067 L 115.265,182.26 L 133.73,209.453 L 141.939,209.453 L 141.939,182.981 L 147.01,182.981 L 147.01,176.067 Z M 133.24,182.981 L 133.24,190.125 C 133.24,191.315 133.288,193.043 133.384,195.31 C 133.48,197.575 133.557,198.89 133.615,199.256 L 133.384,199.256 C 132.673,197.681 131.818,196.145 130.82,194.647 L 123.1,182.981 L 133.24,182.981 Z" marker-start="none" marker-end="none"/>
    <path d="M 151.301,171.458 C 151.301,173.071 151.733,174.291 152.597,175.116 C 153.462,175.942 154.72,176.355 156.371,176.355 C 157.966,176.355 159.199,175.933 160.072,175.088 C 160.946,174.242 161.383,173.033 161.383,171.458 C 161.383,169.941 160.942,168.746 160.058,167.872 C 159.175,166.998 157.946,166.561 156.371,166.561 C 154.758,166.561 153.509,166.988 152.626,167.843 C 151.743,168.698 151.301,169.903 151.301,171.458 Z" marker-start="none" marker-end="none"/>
    <path d="M 216.373,188.454 C 216.373,181.483 214.645,176.125 211.188,172.38 C 207.732,168.635 202.777,166.763 196.323,166.763 C 189.872,166.763 184.917,168.635 181.46,172.38 C 178.003,176.125 176.275,181.502 176.275,188.511 C 176.275,195.52 178.008,200.873 181.474,204.57 C 184.941,208.267 189.909,210.116 196.382,210.116 C 202.853,210.116 207.803,208.253 211.231,204.528 C 214.658,200.802 216.373,195.444 216.373,188.454 Z M 185.636,188.454 C 185.636,183.749 186.53,180.206 188.316,177.824 C 190.102,175.443 192.772,174.253 196.323,174.253 C 203.449,174.253 207.01,178.986 207.01,188.454 C 207.01,197.941 203.468,202.684 196.382,202.684 C 192.829,202.684 190.15,201.489 188.344,199.098 C 186.539,196.707 185.636,193.159 185.636,188.454 Z" marker-start="none" marker-end="none"/>
    <path d="M 233.195,167.339 L 224.409,167.339 L 224.409,212.161 L 233.195,212.161 L 233.195,167.339 Z" marker-start="none" marker-end="none"/>
    <path d="M 255.981,173.763 C 257.517,173.763 259.361,174.099 261.512,174.771 L 261.512,168.232 C 259.322,167.252 256.633,166.763 253.446,166.763 C 249.931,166.763 247.373,167.651 245.769,169.428 C 244.165,171.204 243.363,173.869 243.363,177.421 L 243.363,192.947 L 239.158,192.947 L 239.158,196.663 L 243.998,199.602 L 246.532,206.4 L 252.149,206.4 L 252.149,199.544 L 261.166,199.544 L 261.166,192.947 L 252.149,192.947 L 252.149,177.421 C 252.149,176.173 252.5,175.252 253.201,174.656 C 253.902,174.061 254.829,173.763 255.981,173.763 Z" marker-start="none" marker-end="none"/>
    <path d="M 297.748,167.339 L 288.963,167.339 L 288.963,186.149 C 288.963,188.473 288.55,190.216 287.724,191.378 C 286.898,192.539 285.582,193.12 283.777,193.12 C 281.319,193.12 279.543,192.299 278.449,190.657 C 277.354,189.015 276.806,186.293 276.807,182.491 L 276.807,167.339 L 268.021,167.339 L 268.021,199.544 L 274.732,199.544 L 275.914,195.424 L 276.403,195.424 C 277.383,196.98 278.733,198.156 280.451,198.953 C 282.17,199.75 284.123,200.149 286.312,200.149 C 290.057,200.149 292.899,199.135 294.839,197.11 C 296.779,195.084 297.749,192.16 297.748,188.339 L 297.748,167.339 Z" marker-start="none" marker-end="none"/>
    <path d="M 320.13,193.898 C 318.267,193.898 316.808,193.307 315.752,192.126 C 314.696,190.946 314.09,189.27 313.937,187.1 L 326.266,187.1 C 326.227,189.27 325.66,190.946 324.566,192.126 C 323.471,193.307 321.993,193.898 320.13,193.898 Z M 321.369,166.763 C 316.184,166.763 312.131,168.194 309.213,171.055 C 306.293,173.917 304.834,177.969 304.834,183.211 C 304.834,188.607 306.183,192.78 308.882,195.727 C 311.58,198.675 315.309,200.149 320.072,200.149 C 324.623,200.149 328.167,198.853 330.702,196.26 C 333.237,193.668 334.504,190.086 334.504,185.516 L 334.504,181.252 L 313.735,181.252 C 313.831,178.755 314.571,176.806 315.953,175.405 C 317.337,174.003 319.276,173.302 321.772,173.302 C 323.712,173.302 325.546,173.504 327.274,173.907 C 329.002,174.31 330.807,174.953 332.689,175.837 L 332.689,169.038 C 331.153,168.27 329.511,167.699 327.764,167.324 C 326.016,166.95 323.885,166.763 321.369,166.763 Z" marker-start="none" marker-end="none"/>
    <path d="M 359.623,200.149 C 360.814,200.149 361.803,200.062 362.59,199.89 L 361.927,191.651 C 361.217,191.844 360.352,191.94 359.335,191.939 C 356.531,191.94 354.346,191.219 352.781,189.779 C 351.216,188.339 350.433,186.322 350.434,183.73 L 350.434,167.339 L 341.648,167.339 L 341.648,199.544 L 348.302,199.544 L 349.598,194.128 L 350.03,194.128 C 351.029,195.933 352.378,197.388 354.078,198.492 C 355.778,199.597 357.626,200.149 359.623,200.149 Z" marker-start="none" marker-end="none"/>
   </g>
  </g>
  <g id="Group_2" fill-rule="nonzero" stroke-linejoin="round" stroke-linecap="round" stroke="none" stroke-width="0.12" fill="#0045b3">
   <g id="Group_3">
    <path d="M 151.879,90.347 L 150.736,90.347 L 150.736,102.765 C 150.737,103.892 150.783,105.062 150.876,106.275 C 150.76,106.158 150.639,106.045 150.515,105.937 C 150.39,105.828 149.19,104.883 146.912,103.103 L 146.247,103.931 L 150.876,107.394 L 151.879,107.394 L 151.879,90.347 Z" marker-start="none" marker-end="none"/>
    <path d="M 165.51,90.347 L 164.367,90.347 L 164.367,102.765 C 164.368,103.892 164.414,105.062 164.507,106.275 C 164.391,106.158 164.27,106.045 164.146,105.937 C 164.021,105.828 162.821,104.883 160.543,103.103 L 159.878,103.931 L 164.507,107.394 L 165.51,107.394 L 165.51,90.347 Z" marker-start="none" marker-end="none"/>
    <path d="M 173.078,91.256 C 173.078,92.018 173.389,92.399 174.011,92.399 C 174.648,92.399 174.967,92.018 174.967,91.256 C 174.967,90.495 174.648,90.114 174.011,90.114 C 173.389,90.114 173.078,90.495 173.078,91.256 Z" marker-start="none" marker-end="none"/>
    <path d="M 181.348,96.317 L 181.348,97.273 L 191.376,97.273 L 191.376,96.317 L 181.348,96.317 Z" marker-start="none" marker-end="none"/>
    <path d="M 203.809,90.347 L 202.666,90.347 L 202.666,102.765 C 202.667,103.892 202.713,105.062 202.806,106.275 C 202.69,106.158 202.569,106.045 202.445,105.937 C 202.32,105.828 201.12,104.883 198.842,103.103 L 198.177,103.931 L 202.806,107.394 L 203.809,107.394 L 203.809,90.347 Z" marker-start="none" marker-end="none"/>
    <path d="M 216.274,107.685 C 217.72,107.686 218.884,107.317 219.766,106.578 C 220.649,105.839 221.09,104.84 221.09,103.581 C 221.09,102.711 220.816,101.941 220.268,101.272 C 219.72,100.604 218.832,99.986 217.604,99.419 C 219.096,98.804 220.145,98.132 220.752,97.402 C 221.358,96.671 221.661,95.785 221.661,94.743 C 221.661,93.336 221.17,92.213 220.186,91.373 C 219.203,90.533 217.883,90.114 216.227,90.114 C 214.509,90.114 213.192,90.506 212.275,91.292 C 211.358,92.077 210.899,93.22 210.899,94.72 C 210.899,95.738 211.222,96.632 211.867,97.402 C 212.512,98.171 213.511,98.828 214.863,99.372 C 213.612,99.963 212.729,100.586 212.217,101.244 C 211.704,101.9 211.447,102.687 211.447,103.605 C 211.447,104.421 211.653,105.138 212.065,105.756 C 212.477,106.374 213.054,106.85 213.796,107.184 C 214.539,107.519 215.364,107.686 216.274,107.685 Z M 212.088,94.545 C 212.088,93.472 212.452,92.64 213.178,92.049 C 213.905,91.459 214.921,91.163 216.227,91.163 C 217.502,91.163 218.529,91.476 219.306,92.102 C 220.083,92.728 220.472,93.577 220.472,94.65 C 220.472,95.614 220.167,96.397 219.556,96.999 C 218.946,97.602 217.77,98.233 216.029,98.894 C 214.599,98.342 213.585,97.732 212.986,97.063 C 212.388,96.395 212.088,95.555 212.088,94.545 Z M 216.251,106.636 C 215.155,106.636 214.275,106.366 213.61,105.826 C 212.945,105.286 212.613,104.545 212.613,103.605 C 212.613,103.06 212.735,102.58 212.98,102.165 C 213.225,101.749 213.579,101.372 214.041,101.034 C 214.504,100.695 215.279,100.301 216.367,99.85 C 217.634,100.34 218.544,100.88 219.096,101.471 C 219.648,102.062 219.924,102.773 219.924,103.605 C 219.924,104.537 219.595,105.276 218.938,105.82 C 218.282,106.364 217.386,106.636 216.251,106.636 Z" marker-start="none" marker-end="none"/>
    <path d="M 225.008,91.256 C 225.008,92.018 225.319,92.399 225.941,92.399 C 226.578,92.399 226.897,92.018 226.897,91.256 C 226.897,90.495 226.578,90.114 225.941,90.114 C 225.319,90.114 225.008,90.495 225.008,91.256 Z" marker-start="none" marker-end="none"/>
    <path d="M 240.877,100.165 C 240.877,97.926 240.583,96.053 239.997,94.545 C 239.41,93.037 238.555,91.921 237.431,91.198 C 236.308,90.475 234.95,90.114 233.356,90.114 C 232.548,90.114 231.802,90.215 231.117,90.417 L 231.117,91.42 C 231.452,91.311 231.854,91.227 232.324,91.169 C 232.795,91.111 233.154,91.082 233.403,91.082 C 235.323,91.082 236.827,91.775 237.915,93.163 C 239.003,94.551 239.61,96.574 239.734,99.232 L 239.594,99.232 C 239.027,98.486 238.351,97.912 237.566,97.512 C 236.781,97.112 235.96,96.912 235.105,96.912 C 233.527,96.912 232.297,97.347 231.415,98.217 C 230.533,99.088 230.091,100.324 230.091,101.925 C 230.091,103.636 230.575,105.02 231.543,106.077 C 232.511,107.134 233.768,107.662 235.315,107.662 C 236.435,107.662 237.414,107.369 238.253,106.782 C 239.093,106.195 239.74,105.334 240.195,104.199 C 240.649,103.064 240.877,101.719 240.877,100.165 Z M 235.315,106.636 C 234.087,106.636 233.107,106.222 232.377,105.394 C 231.646,104.566 231.281,103.434 231.281,101.995 C 231.281,100.643 231.619,99.617 232.295,98.917 C 232.971,98.217 233.939,97.868 235.198,97.868 C 235.984,97.868 236.716,98.043 237.396,98.393 C 238.077,98.742 238.617,99.207 239.017,99.786 C 239.417,100.365 239.618,100.954 239.618,101.552 C 239.618,102.462 239.437,103.313 239.075,104.106 C 238.714,104.899 238.209,105.519 237.56,105.966 C 236.911,106.413 236.162,106.636 235.315,106.636 Z" marker-start="none" marker-end="none"/>
    <path d="M 244.317,91.256 C 244.317,92.018 244.628,92.399 245.25,92.399 C 245.887,92.399 246.206,92.018 246.206,91.256 C 246.206,90.495 245.887,90.114 245.25,90.114 C 244.628,90.114 244.317,90.495 244.317,91.256 Z" marker-start="none" marker-end="none"/>
    <path d="M 260.093,90.347 L 249.424,90.347 L 249.424,91.373 L 253.959,96.107 C 255.234,97.429 256.128,98.439 256.641,99.139 C 257.154,99.838 257.531,100.507 257.772,101.144 C 258.013,101.782 258.134,102.45 258.134,103.15 C 258.134,104.168 257.799,104.996 257.131,105.633 C 256.462,106.271 255.596,106.589 254.531,106.59 C 253.108,106.589 251.748,106.073 250.45,105.039 L 249.82,105.843 C 251.243,107.04 252.82,107.639 254.554,107.639 C 256.039,107.639 257.207,107.243 258.058,106.45 C 258.909,105.657 259.335,104.565 259.335,103.173 C 259.335,102.046 259.049,100.956 258.477,99.903 C 257.906,98.849 256.863,97.549 255.347,96.002 L 250.974,91.513 L 250.974,91.466 L 260.093,91.466 L 260.093,90.347 Z" marker-start="none" marker-end="none"/>
    <path d="M 274.038,98.917 C 274.038,95.924 273.582,93.709 272.668,92.271 C 271.755,90.833 270.373,90.114 268.523,90.114 C 266.743,90.114 265.39,90.854 264.466,92.335 C 263.54,93.816 263.078,96.01 263.078,98.917 C 263.078,101.887 263.527,104.087 264.425,105.517 C 265.322,106.947 266.688,107.662 268.523,107.662 C 270.319,107.662 271.687,106.922 272.628,105.441 C 273.568,103.96 274.038,101.785 274.038,98.917 Z M 264.337,98.917 C 264.337,96.274 264.683,94.321 265.375,93.058 C 266.067,91.795 267.116,91.163 268.523,91.163 C 269.992,91.163 271.063,91.816 271.735,93.122 C 272.408,94.428 272.744,96.36 272.744,98.917 C 272.744,101.436 272.408,103.348 271.735,104.654 C 271.063,105.96 269.992,106.613 268.523,106.613 C 267.054,106.613 265.989,105.96 265.328,104.654 C 264.668,103.348 264.337,101.436 264.337,98.917 Z" marker-start="none" marker-end="none"/>
    <path d="M 287.355,90.347 L 276.686,90.347 L 276.686,91.373 L 281.221,96.107 C 282.496,97.429 283.39,98.439 283.903,99.139 C 284.416,99.838 284.793,100.507 285.034,101.144 C 285.275,101.782 285.396,102.45 285.396,103.15 C 285.396,104.168 285.061,104.996 284.393,105.633 C 283.724,106.271 282.858,106.589 281.793,106.59 C 280.37,106.589 279.01,106.073 277.712,105.039 L 277.082,105.843 C 278.505,107.04 280.082,107.639 281.816,107.639 C 283.301,107.639 284.469,107.243 285.32,106.45 C 286.171,105.657 286.597,104.565 286.597,103.173 C 286.597,102.046 286.311,100.956 285.739,99.903 C 285.168,98.849 284.125,97.549 282.609,96.002 L 278.236,91.513 L 278.236,91.466 L 287.355,91.466 L 287.355,90.347 Z" marker-start="none" marker-end="none"/>
    <path d="M 296.951,90.347 L 295.808,90.347 L 295.808,102.765 C 295.809,103.892 295.855,105.062 295.948,106.275 C 295.832,106.158 295.711,106.045 295.587,105.937 C 295.462,105.828 294.262,104.883 291.984,103.103 L 291.319,103.931 L 295.948,107.394 L 296.951,107.394 L 296.951,90.347 Z" marker-start="none" marker-end="none"/>
   </g>
  </g>
  <g id="Group_4" fill-rule="nonzero" stroke-linejoin="round" stroke-linecap="round" stroke="none" stroke-width="0.138" fill="#0045b3">
   <g id="Group_5">
    <path d="M 131.716,127.66 L 117.982,127.66 L 117.982,130.549 L 122.914,135.535 C 124.374,137.03 125.328,138.067 125.776,138.645 C 126.224,139.223 126.547,139.758 126.744,140.251 C 126.941,140.744 127.039,141.254 127.039,141.783 C 127.039,142.571 126.822,143.158 126.387,143.544 C 125.953,143.929 125.372,144.121 124.647,144.121 C 123.886,144.121 123.147,143.947 122.43,143.597 C 121.713,143.248 120.965,142.751 120.186,142.106 L 117.928,144.78 C 118.896,145.604 119.697,146.186 120.333,146.527 C 120.97,146.867 121.664,147.129 122.416,147.313 C 123.169,147.497 124.011,147.588 124.943,147.588 C 126.17,147.588 127.254,147.364 128.195,146.916 C 129.135,146.469 129.865,145.841 130.385,145.035 C 130.904,144.229 131.164,143.306 131.164,142.267 C 131.164,141.362 131.005,140.513 130.687,139.721 C 130.369,138.928 129.877,138.115 129.209,137.282 C 128.542,136.449 127.366,135.261 125.682,133.72 L 123.155,131.342 L 123.155,131.154 L 131.716,131.154 L 131.716,127.66 Z" marker-start="none" marker-end="none"/>
    <path d="M 133.409,133.358 L 133.409,136.717 L 140.625,136.717 L 140.625,133.358 L 133.409,133.358 Z" marker-start="none" marker-end="none"/>
    <path d="M 155.515,133.116 C 155.515,131.342 154.876,129.945 153.6,128.923 C 152.323,127.902 150.547,127.391 148.271,127.391 C 146.175,127.391 144.321,127.785 142.708,128.574 L 142.708,132.444 C 144.034,131.853 145.156,131.436 146.074,131.194 C 146.993,130.952 147.832,130.831 148.594,130.831 C 149.507,130.831 150.208,131.006 150.697,131.355 C 151.185,131.705 151.429,132.224 151.429,132.914 C 151.429,133.299 151.322,133.642 151.107,133.942 C 150.892,134.242 150.576,134.531 150.16,134.809 C 149.743,135.086 148.894,135.53 147.613,136.139 C 146.412,136.704 145.512,137.246 144.912,137.765 C 144.312,138.285 143.833,138.89 143.474,139.58 C 143.116,140.269 142.937,141.076 142.936,141.998 C 142.937,143.736 143.526,145.102 144.704,146.097 C 145.882,147.091 147.51,147.588 149.588,147.588 C 150.61,147.588 151.584,147.468 152.511,147.226 C 153.438,146.984 154.408,146.643 155.421,146.204 L 154.077,142.966 C 153.029,143.396 152.162,143.696 151.476,143.866 C 150.791,144.036 150.117,144.121 149.454,144.121 C 148.665,144.121 148.061,143.938 147.64,143.57 C 147.219,143.203 147.008,142.724 147.008,142.132 C 147.008,141.765 147.093,141.445 147.264,141.172 C 147.434,140.899 147.705,140.635 148.077,140.379 C 148.448,140.124 149.329,139.665 150.717,139.002 C 152.554,138.124 153.813,137.243 154.493,136.361 C 155.174,135.479 155.515,134.397 155.515,133.116 Z" marker-start="none" marker-end="none"/>
    <path d="M 165.082,130.657 C 165.799,130.657 166.659,130.813 167.663,131.127 L 167.663,128.077 C 166.641,127.619 165.387,127.391 163.9,127.391 C 162.26,127.391 161.067,127.806 160.319,128.634 C 159.57,129.463 159.196,130.706 159.196,132.363 L 159.196,139.606 L 157.234,139.606 L 157.234,141.34 L 159.492,142.71 L 160.675,145.882 L 163.295,145.882 L 163.295,142.684 L 167.501,142.684 L 167.501,139.606 L 163.295,139.606 L 163.295,132.363 C 163.295,131.781 163.459,131.351 163.786,131.073 C 164.113,130.796 164.545,130.657 165.082,130.657 Z" marker-start="none" marker-end="none"/>
    <path d="M 181.342,127.66 L 180.791,129.581 L 180.576,129.581 C 180.137,128.883 179.514,128.343 178.708,127.962 C 177.901,127.582 176.983,127.391 175.953,127.391 C 174.188,127.391 172.858,127.864 171.962,128.809 C 171.066,129.754 170.618,131.114 170.618,132.887 L 170.618,142.684 L 174.717,142.684 L 174.717,133.909 C 174.717,132.825 174.91,132.012 175.295,131.47 C 175.68,130.928 176.293,130.657 177.136,130.657 C 178.283,130.657 179.111,131.04 179.622,131.806 C 180.132,132.571 180.388,133.841 180.388,135.615 L 180.388,142.684 L 184.486,142.684 L 184.486,127.66 L 181.342,127.66 Z" marker-start="none" marker-end="none"/>
    <path d="M 202.654,127.66 L 198.556,127.66 L 198.556,136.435 C 198.556,137.519 198.363,138.332 197.978,138.874 C 197.592,139.416 196.978,139.687 196.136,139.687 C 194.99,139.687 194.161,139.304 193.651,138.538 C 193.14,137.772 192.884,136.502 192.885,134.728 L 192.885,127.66 L 188.786,127.66 L 188.786,142.684 L 191.917,142.684 L 192.468,140.762 L 192.696,140.762 C 193.153,141.488 193.783,142.036 194.585,142.408 C 195.386,142.78 196.298,142.966 197.319,142.966 C 199.066,142.966 200.392,142.493 201.297,141.548 C 202.202,140.603 202.654,139.239 202.654,137.456 L 202.654,127.66 Z" marker-start="none" marker-end="none"/>
    <path d="M 211.63,127.391 C 209.865,127.391 208.479,128.077 207.471,129.447 C 206.463,130.818 205.959,132.717 205.959,135.145 C 205.959,137.608 206.472,139.528 207.498,140.903 C 208.524,142.278 209.937,142.966 211.738,142.966 C 213.628,142.966 215.07,142.231 216.065,140.762 L 216.199,140.762 C 215.993,141.882 215.89,142.881 215.89,143.758 L 215.89,148.569 L 220.002,148.569 L 220.002,127.66 L 216.857,127.66 L 216.065,129.609 L 215.89,129.609 C 214.958,128.13 213.538,127.391 211.63,127.391 Z M 213.068,130.657 C 214.116,130.657 214.884,130.961 215.372,131.57 C 215.861,132.18 216.127,133.214 216.172,134.675 L 216.172,135.118 C 216.172,136.731 215.924,137.886 215.426,138.585 C 214.929,139.284 214.121,139.633 213.001,139.633 C 212.087,139.633 211.377,139.246 210.871,138.471 C 210.364,137.696 210.111,136.569 210.112,135.091 C 210.111,133.613 210.367,132.504 210.878,131.765 C 211.388,131.026 212.118,130.657 213.068,130.657 Z" marker-start="none" marker-end="none"/>
    <path d="M 230.511,140.05 C 229.642,140.05 228.961,139.774 228.468,139.223 C 227.976,138.673 227.693,137.891 227.622,136.878 L 233.373,136.878 C 233.355,137.891 233.091,138.673 232.58,139.223 C 232.069,139.774 231.38,140.05 230.511,140.05 Z M 231.089,127.391 C 228.67,127.391 226.779,128.059 225.418,129.393 C 224.056,130.729 223.375,132.619 223.375,135.064 C 223.375,137.582 224.005,139.528 225.263,140.903 C 226.522,142.278 228.262,142.966 230.484,142.966 C 232.607,142.966 234.26,142.361 235.443,141.152 C 236.625,139.942 237.216,138.272 237.216,136.139 L 237.216,134.15 L 227.528,134.15 C 227.572,132.986 227.918,132.076 228.562,131.423 C 229.208,130.769 230.112,130.442 231.277,130.442 C 232.182,130.442 233.037,130.536 233.843,130.724 C 234.649,130.912 235.492,131.212 236.37,131.624 L 236.37,128.453 C 235.653,128.094 234.887,127.828 234.072,127.653 C 233.257,127.478 232.262,127.391 231.089,127.391 Z" marker-start="none" marker-end="none"/>
    <path d="M 254.417,127.66 L 250.319,127.66 L 250.319,136.435 C 250.319,137.519 250.126,138.332 249.741,138.874 C 249.355,139.416 248.741,139.687 247.899,139.687 C 246.753,139.687 245.924,139.304 245.414,138.538 C 244.903,137.772 244.647,136.502 244.648,134.728 L 244.648,127.66 L 240.549,127.66 L 240.549,142.684 L 243.68,142.684 L 244.231,140.762 L 244.459,140.762 C 244.916,141.488 245.546,142.036 246.348,142.408 C 247.149,142.78 248.061,142.966 249.082,142.966 C 250.829,142.966 252.155,142.493 253.06,141.548 C 253.965,140.603 254.417,139.239 254.417,137.456 L 254.417,127.66 Z" marker-start="none" marker-end="none"/>
    <path d="M 257.306,133.358 L 257.306,136.717 L 264.522,136.717 L 264.522,133.358 L 257.306,133.358 Z" marker-start="none" marker-end="none"/>
    <path d="M 267.815,127.66 L 267.815,147.306 L 271.98,147.306 L 271.98,131.1 L 279.949,131.1 L 279.949,127.66 L 267.815,127.66 Z" marker-start="none" marker-end="none"/>
    <path d="M 292.581,127.66 L 291.788,129.703 L 291.68,129.703 C 290.991,128.833 290.281,128.231 289.551,127.895 C 288.821,127.559 287.869,127.391 286.695,127.391 C 285.253,127.391 284.118,127.803 283.289,128.627 C 282.46,129.452 282.046,130.625 282.045,132.148 C 282.046,133.743 282.604,134.919 283.719,135.676 C 284.834,136.433 286.516,136.852 288.765,136.932 L 291.372,137.013 L 291.372,137.671 C 291.372,139.194 290.592,139.956 289.033,139.956 C 287.833,139.956 286.422,139.593 284.8,138.867 L 283.443,141.636 C 285.173,142.54 287.089,142.992 289.195,142.992 C 291.21,142.992 292.756,142.554 293.83,141.676 C 294.906,140.798 295.443,139.463 295.443,137.671 L 295.443,127.66 L 292.581,127.66 Z M 291.372,134.621 L 289.786,134.567 C 288.594,134.531 287.708,134.316 287.125,133.922 C 286.543,133.528 286.252,132.928 286.252,132.121 C 286.252,130.966 286.915,130.388 288.24,130.388 C 289.19,130.388 289.949,130.661 290.518,131.208 C 291.087,131.754 291.372,132.48 291.372,133.385 L 291.372,134.621 Z" marker-start="none" marker-end="none"/>
    <path d="M 310.306,127.66 L 309.755,129.581 L 309.54,129.581 C 309.101,128.883 308.478,128.343 307.672,127.962 C 306.865,127.582 305.947,127.391 304.917,127.391 C 303.152,127.391 301.822,127.864 300.926,128.809 C 300.03,129.754 299.582,131.114 299.582,132.887 L 299.582,142.684 L 303.681,142.684 L 303.681,133.909 C 303.681,132.825 303.874,132.012 304.259,131.47 C 304.644,130.928 305.257,130.657 306.1,130.657 C 307.247,130.657 308.075,131.04 308.586,131.806 C 309.096,132.571 309.352,133.841 309.352,135.615 L 309.352,142.684 L 313.45,142.684 L 313.45,127.66 L 310.306,127.66 Z" marker-start="none" marker-end="none"/>
    <path d="M 326.055,139.606 L 322.507,139.606 L 322.507,127.66 L 318.409,127.66 L 318.409,139.606 L 316.151,139.606 L 316.151,141.582 L 318.409,142.684 L 318.409,143.786 C 318.408,145.497 318.829,146.746 319.672,147.535 C 320.514,148.323 321.862,148.717 323.716,148.717 C 325.132,148.717 326.39,148.507 327.492,148.086 L 326.444,145.076 C 325.62,145.336 324.859,145.465 324.16,145.465 C 323.578,145.465 323.156,145.293 322.897,144.948 C 322.637,144.603 322.507,144.162 322.507,143.624 L 322.507,142.684 L 326.055,142.684 L 326.055,139.606 Z" marker-start="none" marker-end="none"/>
   </g>
  </g>
  <g id="Group_6" fill-rule="evenodd" stroke="none" stroke-width="0.337">
   <path d="M 189.809,280.282 C 181.068,288.475 175.462,298.766 173.041,309.644 C 172.008,314.282 171.554,319.026 171.682,323.761 C 172.048,337.322 177.188,350.807 187.189,361.476 C 208.877,384.609 245.249,385.783 268.383,364.095 C 289.943,343.883 292.429,310.915 275.11,287.797 C 275.242,294.305 272.933,299.702 268.992,304.12 C 276.508,320.727 273.077,340.977 259.044,354.133 C 241.411,370.664 213.682,369.769 197.151,352.136 C 188.119,342.503 184.29,329.855 185.549,317.666 C 186.163,311.731 187.983,305.905 190.997,300.588 C 193.122,296.84 195.841,293.344 199.148,290.243 C 215.093,275.294 239.298,274.597 256.009,287.641 C 257.288,284.456 257.869,281.161 257.132,276.769 C 256.79,274.735 256.18,272.876 255.414,271.116 C 234.42,260.304 208.015,263.214 189.809,280.282 Z M 181.911,305.77 C 184.863,304.118 187.851,302.248 190.997,300.588 C 187.851,302.248 184.863,304.118 181.911,305.77 Z" fill="#0045b3" marker-start="none" marker-end="none"/>
   <path d="M 254.855,242.174 C 253.006,242.767 250.44,243.209 248.849,243.997 C 246.82,245.015 245.658,246.759 245.929,249.799 C 246.732,258.565 252.333,264.039 255.414,271.116 C 256.18,272.876 256.79,274.735 257.132,276.769 C 257.869,281.161 257.288,284.456 256.009,287.641 C 254.719,290.856 252.719,293.959 250.65,297.966 C 249.658,299.873 245.7,302.784 243.773,303.979 C 241.726,305.244 238.134,308.284 236.525,309.457 L 236.481,309.487 C 235.367,310.165 229.598,307.225 226.757,305.199 C 219.81,300.25 213.57,295.083 204.13,296.139 C 199.323,296.676 195.03,298.46 190.997,300.588 C 187.983,305.905 186.163,311.731 185.549,317.666 C 189.542,315.967 193.682,314.333 198.182,312.898 C 204.614,310.849 219.282,315.924 219.171,323.735 L 219.171,323.779 C 219.098,324.723 215.685,327.603 210.634,330.664 C 205.961,333.502 201.087,335.895 199.849,336.291 L 197.054,337.177 L 199.55,338.719 C 202.612,340.612 204.315,342.665 206.663,344.205 C 209.087,345.803 211.609,346.172 214.77,343.731 C 218.264,341.038 223.368,338.491 226.86,335.092 C 227.412,334.548 227.768,333.663 227.984,332.926 L 228.166,332.096 L 228.854,332.538 C 229.404,332.926 229.981,333.344 230.474,333.619 L 230.527,333.643 C 235.097,336.011 244.172,352.546 252.817,344.127 C 259.053,338.07 254.972,332.35 251.2,328.214 C 247.401,324.053 243.838,321.077 245.495,319.123 C 247.938,316.246 251.34,315.463 255.698,313.45 C 260.993,311.008 265.597,307.927 268.992,304.12 C 272.933,299.702 275.242,294.305 275.11,287.797 C 275.083,286.455 274.953,285.069 274.711,283.634 C 273.63,277.178 271.196,270.903 269.221,264.718 C 268.883,263.65 267.174,259.427 266.867,257.626 L 266.852,257.342 L 267.631,257.005 C 268.836,256.777 270.225,257.181 271.952,256.864 C 275.409,256.22 280.449,256.792 284.313,255.562 C 289.972,253.752 286.486,244.506 283.934,242.462 C 275.748,235.903 264.178,239.205 254.855,242.174 Z M 271.002,282.901 C 266.382,277.973 261.096,274.042 255.414,271.116 C 261.096,274.042 266.382,277.973 271.002,282.901 Z M 153.375,295.558 C 150.206,297.873 149.932,302.58 150.288,306.74 C 150.663,311.054 151.83,315.702 152.402,318.565 C 152.705,320.078 153.112,322.781 153.956,324.874 C 154.769,326.882 156.451,329.337 159.548,328.355 C 163.823,326.991 167.8,325.418 171.682,323.761 C 171.554,319.026 172.008,314.282 173.041,309.644 C 171.981,309.923 170.908,310.121 169.82,310.22 C 169.449,310.254 168.776,309.916 167.805,307.788 C 166.894,305.816 166.205,303.452 165.189,300.874 C 163.289,296.104 159.911,290.788 153.375,295.558 Z" fill="#ff3ca4" marker-start="none" marker-end="none"/>
  </g>
 </g>
</svg>
