<?xml version="1.0" standalone="no"?>
<!DOCTYPE svg PUBLIC "-//W3C//DTD SVG 1.1//EN" "http://www.w3.org/Graphics/SVG/1.1/DTD/svg11.dtd">
<!--Generator: Xara Designer (www.xara.com), SVG filter version: 6.6.0.0-->
<svg fill="none" fill-rule="evenodd" stroke="black" stroke-width="0.501" stroke-linejoin="bevel" stroke-miterlimit="10" font-family="Times New Roman" font-size="16" style="font-variant-ligatures:none" xmlns:xlink="http://www.w3.org/1999/xlink" xmlns="http://www.w3.org/2000/svg" version="1.1" overflow="visible" width="317.979pt" height="328.505pt" viewBox="36.113 -379.382 317.979 328.505">
 <defs>
	</defs>
 <g id="Layer 1" transform="scale(1 -1)">
  <path d="M 321.051,153.77 C 323.949,170.998 319.88,185.186 311.186,196.72 C 330.388,236.82 322.48,286.389 288.335,318.401 C 246.154,357.946 179.814,355.806 140.268,313.624 C 119.287,291.244 110.04,262.064 112.282,233.693 C 101.232,238.51 90.571,243.479 79.419,248.054 C 80.803,279.712 93.077,311.049 116.437,335.967 C 168.321,391.309 255.335,394.117 310.678,342.232 C 364.616,291.665 368.651,207.73 320.787,152.264 C 320.879,152.765 320.966,153.267 321.051,153.77 Z M 122.702,141.725 C 101.119,161.958 87.526,187.535 82.051,214.495 C 95.835,212.917 108.535,204.469 122.262,196.583 C 127.71,185.232 135.312,174.68 145.045,165.556 C 182.805,130.156 239.927,128.161 279.853,158.391 C 281.608,152.446 282.172,146.048 280.833,138.065 C 279.462,129.908 276.205,122.979 272.447,116.349 C 223.498,94.666 164.197,102.823 122.702,141.725 Z M 82.051,214.495 C 79.808,225.538 78.927,236.816 79.419,248.054 C 90.571,243.479 101.232,238.51 112.282,233.693 C 113.29,220.929 116.624,208.328 122.262,196.583 C 108.535,204.469 95.835,212.917 82.051,214.495 Z" stroke="none" fill-rule="evenodd" stroke-width="0.772" fill="#0045b3" marker-start="none" marker-end="none"/>
  <path d="M 43.451,181.051 C 36.2,186.347 35.573,197.116 36.388,206.634 C 37.246,216.504 39.916,227.137 41.224,233.688 C 41.918,237.15 42.848,243.335 44.78,248.123 C 46.64,252.716 50.491,258.331 57.574,256.086 C 65.196,253.655 72.405,250.932 79.419,248.054 C 78.927,236.816 79.808,225.538 82.051,214.495 C 81.725,214.532 81.4,214.565 81.075,214.595 C 80.227,214.675 78.684,213.9 76.464,209.034 C 74.381,204.519 72.803,199.112 70.481,193.213 C 66.133,182.3 58.404,170.139 43.451,181.051 Z M 275.623,58.917 C 271.392,60.274 265.521,61.285 261.882,63.087 C 257.24,65.416 254.58,69.407 255.202,76.362 C 256.695,92.664 265.44,103.987 272.447,116.349 C 276.205,122.979 279.462,129.908 280.833,138.065 C 282.172,146.048 281.608,152.446 279.853,158.391 C 277.169,167.488 271.699,175.525 266.002,186.56 C 263.734,190.922 254.679,197.582 250.268,200.317 C 245.586,203.212 237.368,210.166 233.687,212.85 L 233.587,212.919 C 231.038,214.472 217.837,207.745 211.339,203.11 C 195.444,191.784 181.169,179.965 159.571,182.38 C 145.641,183.936 133.601,190.068 122.262,196.583 C 116.624,208.328 113.29,220.929 112.282,233.693 C 122.891,229.068 133.86,224.583 145.965,220.723 C 160.678,216.034 194.238,227.647 193.981,245.517 L 193.981,245.616 C 193.817,247.777 186.006,254.364 174.451,261.37 C 163.761,267.862 152.612,273.335 149.778,274.24 L 143.384,276.269 L 149.094,279.799 C 156.096,284.129 159.994,288.824 165.367,292.349 C 170.911,296.003 176.683,296.848 183.913,291.265 C 191.91,285.102 203.584,279.278 211.575,271.5 C 212.838,270.253 213.652,268.231 214.145,266.545 L 214.563,264.646 L 216.137,265.656 C 217.394,266.545 218.714,267.499 219.844,268.131 L 219.965,268.184 C 230.422,273.6 251.182,311.433 270.96,292.17 C 285.225,278.313 275.891,265.226 267.263,255.764 C 258.57,246.245 250.416,239.434 254.208,234.965 C 259.797,228.382 267.581,226.593 277.551,221.987 C 291.434,215.583 303.24,207.26 311.186,196.72 C 319.88,185.186 323.949,170.998 321.051,153.77 C 320.966,153.267 320.879,152.765 320.787,152.264 C 318.199,138.025 312.854,124.162 308.49,110.495 C 307.718,108.051 303.807,98.388 303.106,94.266 L 303.072,93.619 L 304.851,92.849 C 307.607,92.327 310.789,93.25 314.74,92.526 C 322.647,91.052 334.179,92.359 343.018,89.547 C 355.966,85.406 347.989,64.252 342.154,59.576 C 323.422,44.569 296.953,52.124 275.623,58.917 Z" fill="#ff3ca4" stroke="none" fill-rule="evenodd" stroke-width="0.772" marker-start="none" marker-end="none"/>
 </g>
</svg>
