<?xml version="1.0" standalone="no"?>
<!DOCTYPE svg PUBLIC "-//W3C//DTD SVG 1.1//EN" "http://www.w3.org/Graphics/SVG/1.1/DTD/svg11.dtd">
<!--Generator: Xara Designer (www.xara.com), SVG filter version: 6.6.0.9-->
<svg fill="none" fill-rule="evenodd" stroke="black" stroke-width="0.501" stroke-linejoin="bevel" stroke-miterlimit="10" font-family="Times New Roman" font-size="16" style="font-variant-ligatures:none" xmlns:xlink="http://www.w3.org/1999/xlink" xmlns="http://www.w3.org/2000/svg" version="1.1" overflow="visible" width="149.102pt" height="153.203pt" viewBox="0 -153.203 149.102 153.203">
 <defs>
	</defs>
 <g id="Layer 1" transform="scale(1 -1)">
  <g id="Group">
   <ellipse rx="55.152" ry="55.151" transform="translate(84.07 87.144) rotate(52.4195)" stroke-width="6.502" fill="#ffeb09" stroke="none"/>
   <path d="M 44.702,46.677 C 35.868,54.968 30.203,65.362 27.76,76.387 C 26.725,81.021 26.26,85.813 26.407,90.588 C 26.781,104.29 31.956,117.893 42.064,128.698 C 63.974,152.03 100.689,153.187 124.033,131.333 C 145.771,110.912 148.31,77.662 130.826,54.276 C 130.955,60.877 128.659,66.31 124.631,70.775 C 132.229,87.517 128.807,108.002 114.604,121.287 C 96.787,137.956 68.81,137.041 52.11,119.258 C 43.001,109.498 39.099,96.754 40.386,84.457 C 41.022,78.46 42.853,72.579 45.862,67.17 C 48.042,63.441 50.803,59.89 54.111,56.776 C 70.193,41.658 94.673,40.968 111.532,54.127 C 112.819,50.918 113.392,47.592 112.669,43.17 C 112.329,41.116 111.681,39.234 110.947,37.46 C 89.73,26.542 63.082,29.455 44.702,46.677 Z M 45.862,67.17 C 45.631,67.295 45.782,67.212 45.862,67.17 Z" stroke-width="1.858" fill="#b90006" fill-rule="evenodd" marker-start="none" marker-end="none"/>
   <path d="M 110.373,8.217 C 108.47,8.855 105.91,9.259 104.326,10.068 C 102.252,11.129 101.115,12.862 101.36,15.921 C 102.156,24.77 107.832,30.296 110.947,37.46 C 111.681,39.234 112.329,41.116 112.669,43.17 C 113.392,47.592 112.819,50.918 111.532,54.127 C 110.225,57.391 108.225,60.474 106.132,64.577 C 105.112,66.457 101.136,69.415 99.158,70.625 C 97.138,71.911 93.502,74.973 91.824,76.132 L 91.824,76.183 C 90.698,76.854 84.882,73.912 82.003,71.858 C 75.008,66.872 68.684,61.665 59.159,62.726 C 54.311,63.291 49.963,65.067 45.862,67.17 C 42.853,72.579 41.022,78.46 40.386,84.457 C 44.437,82.732 48.604,81.054 53.13,79.618 C 59.648,77.599 74.467,82.681 74.372,90.588 L 74.372,90.588 C 74.295,91.577 70.808,94.488 65.749,97.551 C 61.009,100.444 56.086,102.856 54.833,103.281 L 52.017,104.14 L 54.534,105.693 C 57.649,107.627 59.351,109.699 61.721,111.253 C 64.185,112.888 66.715,113.208 69.894,110.763 C 73.402,108.043 78.591,105.448 82.121,102.069 C 82.693,101.504 83.013,100.611 83.256,99.868 L 83.426,98.986 L 84.119,99.476 C 84.638,99.868 85.254,100.295 85.755,100.538 L 85.776,100.593 C 90.442,102.96 99.585,119.65 108.302,111.177 C 114.604,105.055 110.469,99.306 106.674,95.106 C 102.847,90.909 99.264,87.921 100.911,85.913 C 103.357,82.999 106.823,82.233 111.214,80.183 C 116.57,77.737 121.216,74.603 124.631,70.775 C 128.659,66.31 130.955,60.877 130.826,54.276 C 130.804,52.948 130.655,51.513 130.433,50.079 C 129.318,43.582 126.873,37.216 124.853,30.987 C 124.533,29.924 122.822,25.65 122.501,23.823 L 122.481,23.556 L 123.266,23.238 C 124.479,22.961 125.882,23.386 127.667,23.087 C 131.143,22.418 136.213,22.983 140.115,21.749 C 145.813,19.921 142.284,10.587 139.713,8.514 C 131.463,1.893 119.781,5.23 110.373,8.217 Z M 110.947,37.46 C 110.964,37.469 110.995,37.484 110.947,37.46 Z M 7.902,62.153 C 4.722,64.451 4.425,69.223 4.797,73.422 C 5.169,77.769 6.35,82.456 6.912,85.349 C 7.265,86.879 7.637,89.62 8.497,91.714 C 9.294,93.747 10.994,96.245 14.13,95.255 C 18.458,93.894 22.453,92.269 26.407,90.588 C 26.26,85.813 26.725,81.021 27.76,76.387 C 26.707,76.633 25.59,76.832 24.506,76.953 C 24.132,76.972 23.484,76.633 22.453,74.485 C 21.559,72.475 20.868,70.084 19.858,67.49 C 17.934,62.675 14.523,57.316 7.902,62.153 Z" stroke-width="1.858" fill="#b90006" fill-rule="evenodd" marker-start="none" marker-end="none"/>
  </g>
 </g>
</svg>
