<?xml version="1.0" standalone="no"?>
<!DOCTYPE svg PUBLIC "-//W3C//DTD SVG 1.1//EN" "http://www.w3.org/Graphics/SVG/1.1/DTD/svg11.dtd">
<!--Generator: Xara Designer (www.xara.com), SVG filter version: 6.6.0.7-->
<svg fill="none" fill-rule="evenodd" stroke="black" stroke-width="0.501" stroke-linejoin="bevel" stroke-miterlimit="10" font-family="Times New Roman" font-size="16" style="font-variant-ligatures:none" xmlns:xlink="http://www.w3.org/1999/xlink" xmlns="http://www.w3.org/2000/svg" version="1.1" overflow="visible" width="128.572pt" height="132.109pt" viewBox="87.876 -540.553 128.572 132.109">
 <defs>
  <style type="text/css">@import url('https://themes.googleusercontent.com/fonts/css?family=Open Sans:400,600');</style>
 </defs>
 <g id="Layer 1" transform="scale(1 -1)">
  <g id="Group" stroke="none" fill-rule="evenodd" stroke-width="0.341">
   <path d="M 125.035,447.433 C 116.834,455.129 111.576,464.778 109.308,475.012 C 108.347,479.314 107.916,483.763 108.052,488.195 C 108.399,500.915 113.203,513.543 122.587,523.572 C 142.925,545.232 177.008,546.305 198.678,526.018 C 218.857,507.062 221.213,476.196 204.984,454.487 C 205.103,460.614 202.971,465.659 199.232,469.803 C 206.286,485.344 203.109,504.361 189.924,516.693 C 173.386,532.167 147.414,531.318 131.912,514.809 C 123.457,505.749 119.834,493.919 121.028,482.503 C 121.619,476.937 123.319,471.478 126.112,466.456 C 128.135,462.995 130.699,459.698 133.769,456.807 C 148.698,442.774 171.422,442.133 187.073,454.349 C 188.267,451.37 188.799,448.282 188.129,444.176 C 187.812,442.271 187.211,440.524 186.53,438.877 C 166.834,428.741 142.097,431.446 125.035,447.433 Z M 117.632,471.342 C 120.406,469.803 123.2,468.036 126.112,466.456 C 123.2,468.036 120.406,469.803 117.632,471.342 Z" fill="#00c1f3" marker-start="none" marker-end="none"/>
   <path d="M 185.998,411.73 C 184.231,412.323 181.853,412.698 180.383,413.448 C 178.459,414.433 177.403,416.043 177.631,418.882 C 178.369,427.096 183.638,432.226 186.53,438.877 C 187.211,440.524 187.812,442.271 188.129,444.176 C 188.799,448.282 188.267,451.37 187.073,454.349 C 185.86,457.379 184.004,460.241 182.06,464.049 C 181.114,465.795 177.422,468.54 175.586,469.663 C 173.711,470.857 170.336,473.7 168.778,474.775 L 168.778,474.823 C 167.733,475.446 162.334,472.715 159.661,470.808 C 153.168,466.181 147.297,461.346 138.455,462.332 C 133.955,462.855 129.918,464.504 126.112,466.456 C 123.319,471.478 121.619,476.937 121.028,482.503 C 124.789,480.903 128.657,479.344 132.858,478.012 C 138.909,476.137 152.666,480.855 152.577,488.195 L 152.577,488.195 C 152.506,489.114 149.27,491.816 144.573,494.659 C 140.172,497.344 135.603,499.583 134.44,499.978 L 131.825,500.775 L 134.162,502.217 C 137.054,504.012 138.633,505.935 140.834,507.378 C 143.121,508.896 145.47,509.193 148.42,506.924 C 151.677,504.398 156.493,501.991 159.771,498.853 C 160.302,498.329 160.599,497.5 160.825,496.81 L 160.983,495.991 L 161.625,496.445 C 162.108,496.81 162.679,497.206 163.144,497.432 L 163.164,497.482 C 167.496,499.681 175.982,515.174 184.075,507.308 C 189.924,501.624 186.086,496.288 182.564,492.389 C 179.011,488.493 175.685,485.719 177.214,483.855 C 179.485,481.15 182.702,480.439 186.778,478.536 C 191.75,476.265 196.062,473.357 199.232,469.803 C 202.971,465.659 205.103,460.614 204.984,454.487 C 204.963,453.254 204.825,451.922 204.618,450.59 C 203.583,444.56 201.314,438.65 199.439,432.868 C 199.142,431.881 197.553,427.914 197.256,426.217 L 197.237,425.97 L 197.966,425.674 C 199.092,425.418 200.394,425.812 202.052,425.534 C 205.278,424.914 209.985,425.437 213.607,424.293 C 218.896,422.595 215.62,413.931 213.234,412.006 C 205.575,405.86 194.73,408.957 185.998,411.73 Z M 201.134,449.879 C 196.823,445.301 191.87,441.599 186.53,438.877 C 191.87,441.599 196.823,445.301 201.134,449.879 Z M 90.873,461.799 C 87.923,463.932 87.647,468.362 87.992,472.26 C 88.337,476.295 89.433,480.646 89.955,483.331 C 90.282,484.752 90.627,487.297 91.427,489.241 C 92.166,491.128 93.744,493.445 96.655,492.527 C 100.673,491.264 104.382,489.756 108.052,488.195 C 107.916,483.763 108.347,479.314 109.308,475.012 C 108.33,475.241 107.293,475.426 106.287,475.538 C 105.94,475.555 105.339,475.241 104.382,473.247 C 103.552,471.381 102.91,469.161 101.973,466.754 C 100.186,462.284 97.02,457.31 90.873,461.799 Z" fill="#f06aa8" marker-start="none" marker-end="none"/>
  </g>
 </g>
</svg>
