<?xml version="1.0" standalone="no"?>
<!DOCTYPE svg PUBLIC "-//W3C//DTD SVG 1.1//EN" "http://www.w3.org/Graphics/SVG/1.1/DTD/svg11.dtd">
<!--Generator: Xara Designer (www.xara.com), SVG filter version: 6.6.0.13-->
<svg fill="none" fill-rule="evenodd" stroke="black" stroke-linejoin="bevel" stroke-miterlimit="10" font-family="Times New Roman" font-size="16" style="font-variant-ligatures:none" xmlns:xlink="http://www.w3.org/1999/xlink" xmlns="http://www.w3.org/2000/svg" version="1.1" overflow="visible" width="171.028pt" height="175.669pt" viewBox="184.944 -575.113 171.028 175.669">
 <defs>
  <style type="text/css">@import url('https://themes.googleusercontent.com/fonts/css?family=Open Sans:400,600');</style>
 </defs>
 <g id="Layer 1" transform="scale(1 -1)" stroke-width="0.501">
  <path d="M 234.851,451.751 C 224.087,461.853 217.184,474.519 214.207,487.952 C 212.946,493.599 212.38,499.438 212.559,505.256 C 213.014,521.953 219.32,538.528 231.637,551.694 C 258.334,580.124 303.072,581.534 331.517,554.905 C 358.004,530.021 361.098,489.506 339.794,461.01 C 339.951,469.053 337.153,475.674 332.245,481.114 C 341.504,501.514 337.334,526.476 320.027,542.663 C 298.317,562.975 264.227,561.86 243.878,540.191 C 232.779,528.298 228.024,512.77 229.592,497.786 C 230.367,490.478 232.598,483.313 236.265,476.721 C 238.921,472.178 242.285,467.851 246.316,464.057 C 265.912,445.635 295.741,444.794 316.284,460.828 C 317.852,456.919 318.55,452.866 317.67,447.477 C 317.255,444.975 316.465,442.682 315.571,440.52 C 289.718,427.216 257.248,430.766 234.851,451.751 Z M 236.265,476.721 C 235.984,476.874 236.167,476.773 236.265,476.721 Z" stroke="#ffffff" fill="#ffffff" stroke-width="2.264" fill-rule="evenodd" marker-start="none" marker-end="none"/>
  <path d="M 314.872,404.887 C 312.553,405.664 309.433,406.157 307.503,407.142 C 304.976,408.435 303.591,410.547 303.89,414.275 C 304.859,425.057 311.776,431.79 315.571,440.52 C 316.465,442.682 317.255,444.975 317.67,447.477 C 318.55,452.866 317.852,456.919 316.284,460.828 C 314.691,464.806 312.255,468.563 309.704,473.562 C 308.461,475.853 303.616,479.457 301.206,480.931 C 298.745,482.499 294.315,486.229 292.27,487.642 L 292.27,487.704 C 290.898,488.521 283.811,484.937 280.303,482.434 C 271.779,476.359 264.073,470.014 252.467,471.307 C 246.56,471.995 241.262,474.159 236.265,476.721 C 232.598,483.313 230.367,490.478 229.592,497.786 C 234.528,495.684 239.606,493.639 245.121,491.89 C 253.063,489.429 271.12,495.622 271.004,505.256 L 271.004,505.256 C 270.911,506.462 266.662,510.009 260.497,513.741 C 254.721,517.266 248.723,520.205 247.196,520.723 L 243.765,521.77 L 246.832,523.662 C 250.627,526.019 252.701,528.543 255.589,530.437 C 258.591,532.429 261.674,532.819 265.548,529.84 C 269.822,526.525 276.145,523.364 280.447,519.246 C 281.143,518.558 281.534,517.47 281.83,516.564 L 282.037,515.489 L 282.881,516.086 C 283.514,516.564 284.264,517.085 284.875,517.381 L 284.9,517.447 C 290.586,520.332 301.727,540.669 312.348,530.344 C 320.027,522.885 314.989,515.879 310.365,510.762 C 305.701,505.647 301.336,502.007 303.342,499.56 C 306.323,496.009 310.546,495.076 315.897,492.578 C 322.423,489.597 328.084,485.779 332.245,481.114 C 337.153,475.674 339.951,469.053 339.794,461.01 C 339.767,459.392 339.586,457.643 339.315,455.896 C 337.956,447.98 334.977,440.222 332.516,432.633 C 332.126,431.337 330.041,426.129 329.65,423.903 L 329.626,423.578 L 330.582,423.19 C 332.06,422.853 333.769,423.371 335.945,423.006 C 340.18,422.191 346.358,422.879 351.113,421.376 C 358.055,419.148 353.756,407.775 350.623,405.249 C 340.57,397.181 326.335,401.247 314.872,404.887 Z M 315.571,440.52 C 315.592,440.531 315.63,440.549 315.571,440.52 Z M 190.01,470.608 C 186.136,473.408 185.774,479.223 186.227,484.34 C 186.68,489.636 188.119,495.348 188.804,498.873 C 189.234,500.737 189.687,504.077 190.736,506.629 C 191.706,509.106 193.778,512.149 197.599,510.943 C 202.873,509.285 207.741,507.305 212.559,505.256 C 212.38,499.438 212.946,493.599 214.207,487.952 C 212.924,488.252 211.563,488.495 210.242,488.642 C 209.787,488.665 208.997,488.252 207.741,485.635 C 206.652,483.186 205.81,480.272 204.579,477.112 C 202.234,471.244 198.078,464.715 190.01,470.608 Z" stroke="#ffffff" stroke-width="2.264" fill-rule="evenodd" marker-start="none" marker-end="none"/>
 </g>
</svg>
